<svg width="45" height="60" viewBox="0 0 45 60" fill="none" xmlns="http://www.w3.org/2000/svg">
<path d="M35.6761 43.0081C36.013 42.7672 36.4815 42.845 36.7224 43.1819C36.9633 43.5189 36.8855 43.9873 36.5485 44.2282L35.6761 43.0081ZM28.9529 59.1381C28.6353 59.4041 28.1623 59.3622 27.8964 59.0446L23.5628 53.8694C23.2969 53.5518 23.3388 53.0788 23.6563 52.8129C23.9739 52.547 24.4469 52.5888 24.7129 52.9064L28.5649 57.5066L33.1651 53.6545C33.4827 53.3886 33.9557 53.4305 34.2216 53.7481C34.4876 54.0656 34.4457 54.5387 34.1281 54.8046L28.9529 59.1381ZM36.1123 43.6182C36.5485 44.2282 36.5488 44.2281 36.549 44.2279C36.5491 44.2279 36.5493 44.2277 36.5493 44.2277C36.5495 44.2275 36.5496 44.2275 36.5495 44.2275C36.5495 44.2276 36.549 44.2279 36.5481 44.2286C36.5464 44.2298 36.543 44.2323 36.5382 44.2359C36.5284 44.2431 36.5125 44.2549 36.4908 44.2714C36.4474 44.3045 36.3809 44.3562 36.2944 44.4267C36.1213 44.5677 35.8682 44.7836 35.5593 45.0752C34.9413 45.6588 34.1022 46.5436 33.2342 47.7362C31.4997 50.1197 29.6522 53.729 29.2185 58.6292L27.7243 58.497C28.1865 53.2754 30.1594 49.4122 32.0214 46.8536C32.9517 45.5752 33.8548 44.6217 34.5295 43.9846C34.867 43.6659 35.1478 43.426 35.3471 43.2637C35.4467 43.1825 35.526 43.1207 35.5819 43.0782C35.6098 43.0569 35.6319 43.0404 35.6477 43.0288C35.6556 43.0229 35.662 43.0183 35.6667 43.0148C35.6691 43.0131 35.671 43.0117 35.6726 43.0106C35.6734 43.01 35.6741 43.0095 35.6746 43.0091C35.6749 43.0089 35.6753 43.0086 35.6754 43.0085C35.6758 43.0083 35.6761 43.0081 36.1123 43.6182Z" fill="url(#paint0_linear_3169_5981)"/>
<path d="M9.35323 43.0081C9.0163 42.7672 8.54784 42.845 8.30691 43.1819C8.06599 43.5189 8.14382 43.9873 8.48075 44.2282L9.35323 43.0081ZM16.0764 59.1381C16.394 59.4041 16.867 59.3622 17.1329 59.0446L21.4665 53.8694C21.7324 53.5518 21.6905 53.0788 21.373 52.8129C21.0554 52.547 20.5824 52.5888 20.3164 52.9064L16.4644 57.5066L11.8642 53.6545C11.5466 53.3886 11.0736 53.4305 10.8077 53.7481C10.5417 54.0656 10.5836 54.5387 10.9012 54.8046L16.0764 59.1381ZM8.91699 43.6182C8.48075 44.2282 8.4805 44.2281 8.48027 44.2279C8.48023 44.2279 8.48003 44.2277 8.47995 44.2277C8.47978 44.2275 8.47972 44.2275 8.47976 44.2275C8.47983 44.2276 8.48031 44.2279 8.48118 44.2286C8.48293 44.2298 8.48626 44.2323 8.49114 44.2359C8.5009 44.2431 8.51681 44.2549 8.5385 44.2714C8.58189 44.3045 8.64838 44.3562 8.73491 44.4267C8.90802 44.5677 9.16113 44.7836 9.46998 45.0752C10.088 45.6588 10.9271 46.5436 11.7951 47.7362C13.5295 50.1197 15.3771 53.729 15.8108 58.6292L17.305 58.497C16.8428 53.2754 14.8699 49.4122 13.0079 46.8536C12.0776 45.5752 11.1745 44.6217 10.4998 43.9846C10.1623 43.6659 9.88147 43.426 9.68222 43.2637C9.58257 43.1825 9.50327 43.1207 9.44742 43.0782C9.41949 43.0569 9.39742 43.0404 9.3816 43.0288C9.37368 43.0229 9.36733 43.0183 9.36259 43.0148C9.36022 43.0131 9.35825 43.0117 9.35669 43.0106C9.35591 43.01 9.35523 43.0095 9.35465 43.0091C9.35436 43.0089 9.35401 43.0086 9.35386 43.0085C9.35354 43.0083 9.35323 43.0081 8.91699 43.6182Z" fill="url(#paint1_linear_3169_5981)"/>
<circle cx="22.3103" cy="22.3103" r="19.3103" stroke="url(#paint2_linear_3169_5981)" stroke-width="1.5"/>
<path fill-rule="evenodd" clip-rule="evenodd" d="M25 3C25 4.2714 24.2091 5.35807 23.0925 5.79488L24.2459 8.92288L32.0142 8.29401C32.0048 8.19728 32 8.0992 32 8C32 6.34315 33.3431 5 35 5C36.6569 5 38 6.34315 38 8C38 9.65685 36.6569 11 35 11C34.4674 11 33.9673 10.8612 33.5338 10.6179L28.0826 17.1653L39.3041 20.6825C39.7919 19.6861 40.8158 19 42 19C43.6569 19 45 20.3431 45 22C45 23.6569 43.6569 25 42 25C40.6572 25 39.5205 24.1178 39.1378 22.9014L29.6794 23.658L33.9336 35.1951C34.265 35.069 34.6244 35 35 35C36.6569 35 38 36.3431 38 38C38 39.6569 36.6569 41 35 41C33.3431 41 32 39.6569 32 38C32 37.5866 32.0836 37.1927 32.2349 36.8343L21.1741 25.7371L15.0599 36.819C15.6388 37.3659 16 38.1408 16 39C16 40.6569 14.6569 42 13 42C11.3431 42 10 40.6569 10 39C10 37.3431 11.3431 36 13 36L13.0183 36.0001L15.9955 24.7528L5.94848 25.5565C5.68756 26.9475 4.4667 28 3 28C1.34315 28 0 26.6569 0 25C0 23.3431 1.34315 22 3 22C4.3284 22 5.45513 22.8634 5.84966 24.0596L16.4024 23.2154L16.8457 21.5408L8.56068 13.5626C8.10599 13.8401 7.57167 14 7 14C5.34315 14 4 12.6569 4 11C4 9.34315 5.34315 8 7 8C8.47506 8 9.70147 9.06456 9.95285 10.4673L20.0807 9.3198L21.0043 5.83079C19.8368 5.42016 19 4.30781 19 3C19 1.34315 20.3431 0 22 0C23.6569 0 25 1.34315 25 3ZM11.1106 11.8457L19.6687 10.8761L18.7761 14.2483L11.1106 11.8457ZM21.2684 10.6948L20.2089 14.6974L25.3734 16.3161L23.2324 10.5098L22.0725 10.6037L21.2684 10.6948ZM10.3131 13.1677L18.3919 15.6998L17.285 19.8814L10.3131 13.1677ZM19.8246 16.1489L18.5215 21.0721L20.414 22.8945L21.4284 22.8133L25.4968 17.9268L19.8246 16.1489ZM17.9877 23.0886L18.0822 22.7315L18.4174 23.0542L17.9877 23.0886ZM17.5807 24.6259L19.8602 24.4436L20.0655 24.6413L15.2813 33.3125L17.5807 24.6259ZM22.1772 24.2582L22.0137 24.4546L32.1094 34.5837L28.1265 23.7823L22.1772 24.2582ZM37.0899 21.5604L29.1404 22.1964L27.8364 18.6601L37.0899 21.5604ZM27.5875 22.3206L26.422 19.1598L23.5195 22.646L27.5875 22.3206ZM32.2818 9.77726L26.9309 16.2043L24.7847 10.3842L32.2818 9.77726ZM21.9395 9.10959L22.6935 9.04855L22.1176 7.48669L21.6803 9.13856L21.9156 9.11191L21.9275 9.11056L21.9395 9.10959Z" fill="url(#paint3_linear_3169_5981)"/>
<defs>
<linearGradient id="paint0_linear_3169_5981" x1="37.0294" y1="44.1631" x2="29.5868" y2="42.6163" gradientUnits="userSpaceOnUse">
<stop stop-color="#0968E5"/>
<stop offset="0.492708" stop-color="#0941AB"/>
<stop offset="1" stop-color="#091970"/>
</linearGradient>
<linearGradient id="paint1_linear_3169_5981" x1="7.99994" y1="44.1631" x2="15.4425" y2="42.6163" gradientUnits="userSpaceOnUse">
<stop stop-color="#0968E5"/>
<stop offset="0.492708" stop-color="#0941AB"/>
<stop offset="1" stop-color="#091970"/>
</linearGradient>
<linearGradient id="paint2_linear_3169_5981" x1="3" y1="41.6207" x2="49.6046" y2="23.2071" gradientUnits="userSpaceOnUse">
<stop stop-color="#0968E5"/>
<stop offset="0.492708" stop-color="#0941AB"/>
<stop offset="1" stop-color="#091970"/>
</linearGradient>
<linearGradient id="paint3_linear_3169_5981" x1="6.70552e-07" y1="42" x2="53.239" y2="19.4627" gradientUnits="userSpaceOnUse">
<stop stop-color="#0968E5"/>
<stop offset="0.492708" stop-color="#0941AB"/>
<stop offset="1" stop-color="#091970"/>
</linearGradient>
</defs>
</svg>
