<svg width="30" height="36" viewBox="0 0 30 36" fill="none" xmlns="http://www.w3.org/2000/svg">
<path d="M19.4627 9.85338V2.73195C19.4627 0.64399 17.1884 -0.698264 15.3614 0.383C11.0363 2.88109 4.39963 6.72144 1.4914 8.39927C0.559274 8.92126 0 9.89066 0 10.9719C0 14.3649 0 22.0083 0 27.0045C0 29.0924 2.27438 30.4347 4.10135 29.3534L9.73138 26.1096L16.5918 22.0828C18.3815 21.0389 19.5 19.1373 19.5 17.0494L19.4627 9.85338Z" fill="#FDC651"/>
<path d="M25.1304 6.60951L19.5004 9.85331C16.7786 11.4193 14.2432 12.9107 12.3044 14.0292C10.552 15.0359 9.4707 16.9002 9.4707 18.9135L9.7317 26.1096V33.2683C9.7317 35.3562 12.0061 36.6985 13.833 35.6172L27.5912 27.6755C28.5979 27.1162 29.1945 26.035 29.1945 24.8791V8.99575C29.1945 6.87051 26.9201 5.52825 25.1304 6.60951Z" fill="#9457F6"/>
<path d="M19.5004 17.0495C19.5004 19.1375 18.3818 21.039 16.5921 22.083L9.7317 26.1098L9.4707 18.9138C9.4707 16.9004 10.552 15.0361 12.3044 14.0294C14.2432 12.9109 16.7413 11.4568 19.5004 9.85352V17.0495Z" fill="#976B7A"/>
</svg>
