<svg width="56" height="58" viewBox="0 0 56 58" fill="none" xmlns="http://www.w3.org/2000/svg">
<path d="M4 32.6523L0.743717 40.6771L9.3215 39.4847L4 32.6523ZM51.9457 32.6523C51.9457 45.6851 41.3805 56.2502 28.3478 56.2502V57.7502C42.209 57.7502 53.4457 46.5135 53.4457 32.6523H51.9457ZM28.3478 56.2502C17.5632 56.2502 8.46649 49.0149 5.65059 39.1322L4.20801 39.5432C7.20266 50.0533 16.8754 57.7502 28.3478 57.7502V56.2502Z" fill="url(#paint0_linear_3169_6024)"/>
<path d="M52.6957 25.3477L47.3742 18.5153L55.9519 17.3229L52.6957 25.3477ZM51.0451 18.8678C48.2292 8.98506 39.1325 1.74983 28.3478 1.74983V0.249831C39.8202 0.249831 49.493 7.94668 52.4876 18.4568L51.0451 18.8678ZM28.3478 1.74983C15.3151 1.74983 4.75 12.3149 4.75 25.3477H3.25C3.25 11.4865 14.4867 0.249831 28.3478 0.249831V1.74983Z" fill="url(#paint1_linear_3169_6024)"/>
<path d="M17.3916 25.9561V44.478C17.3916 46.6871 19.1825 48.478 21.3916 48.478H35.3046C37.5138 48.478 39.3046 46.6871 39.3046 44.478V25.9562" stroke="url(#paint2_linear_3169_6024)" stroke-width="1.5"/>
<line x1="17.3916" y1="40.4238" x2="39.3046" y2="40.4238" stroke="url(#paint3_linear_3169_6024)" stroke-width="1.5"/>
<path d="M25.9121 44.8262H30.7817" stroke="url(#paint4_linear_3169_6024)" stroke-linecap="round"/>
<path d="M13.7393 16.8258V24.1302L19.2175 26.565L24.0871 24.1302L29.5653 26.565L33.2175 24.1302L38.0871 26.565L42.9567 24.1302V16.8258M13.7393 16.8258H42.9567M13.7393 16.8258L19.2175 9.52148H38.0871L42.9567 16.8258" stroke="url(#paint5_linear_3169_6024)"/>
<defs>
<linearGradient id="paint0_linear_3169_6024" x1="4" y1="57.0002" x2="45.8213" y2="23.9528" gradientUnits="userSpaceOnUse">
<stop stop-color="#0968E5"/>
<stop offset="0.492708" stop-color="#0941AB"/>
<stop offset="1" stop-color="#091970"/>
</linearGradient>
<linearGradient id="paint1_linear_3169_6024" x1="4" y1="0.999829" x2="45.8213" y2="34.0472" gradientUnits="userSpaceOnUse">
<stop stop-color="#0968E5"/>
<stop offset="0.492708" stop-color="#0941AB"/>
<stop offset="1" stop-color="#091970"/>
</linearGradient>
<linearGradient id="paint2_linear_3169_6024" x1="17.3916" y1="48.478" x2="44.0265" y2="38.239" gradientUnits="userSpaceOnUse">
<stop stop-color="#0968E5"/>
<stop offset="0.492708" stop-color="#0941AB"/>
<stop offset="1" stop-color="#091970"/>
</linearGradient>
<linearGradient id="paint3_linear_3169_6024" x1="17.3916" y1="42.1738" x2="17.7941" y2="38.6893" gradientUnits="userSpaceOnUse">
<stop stop-color="#0968E5"/>
<stop offset="0.492708" stop-color="#0941AB"/>
<stop offset="1" stop-color="#091970"/>
</linearGradient>
<linearGradient id="paint4_linear_3169_6024" x1="25.9121" y1="45.8262" x2="27.357" y2="43.0462" gradientUnits="userSpaceOnUse">
<stop stop-color="#0968E5"/>
<stop offset="0.492708" stop-color="#0941AB"/>
<stop offset="1" stop-color="#091970"/>
</linearGradient>
<linearGradient id="paint5_linear_3169_6024" x1="13.7393" y1="26.565" x2="41.6817" y2="7.63907" gradientUnits="userSpaceOnUse">
<stop stop-color="#0968E5"/>
<stop offset="0.492708" stop-color="#0941AB"/>
<stop offset="1" stop-color="#091970"/>
</linearGradient>
</defs>
</svg>
