<svg width="40" height="40" viewBox="0 0 40 40" fill="none" xmlns="http://www.w3.org/2000/svg">
<path d="M19.9953 39.9999C23.7462 39.9999 27.3773 38.9604 30.539 36.9963L32.5749 39.0322C32.733 39.1903 32.9486 39.2766 33.169 39.2766C33.2312 39.2766 33.2983 39.267 33.3606 39.2526C33.6432 39.1855 33.8732 38.9796 33.9642 38.7017L36.3594 31.5161C36.46 31.2143 36.3833 30.8837 36.1582 30.6586C35.933 30.4334 35.6025 30.3568 35.3007 30.4574L28.1151 32.8526C27.8372 32.9436 27.6312 33.1736 27.5642 33.4562C27.4971 33.7388 27.5833 34.0358 27.7893 34.2418L29.3175 35.77C26.5007 37.437 23.3055 38.3233 20.0001 38.3233C9.89704 38.3233 1.67665 30.1029 1.67665 19.9999C1.67665 18.2226 1.93054 16.4741 2.42875 14.7975C2.56288 14.352 2.30899 13.8873 1.86348 13.7532C1.42276 13.6238 0.953296 13.8729 0.819164 14.3184C0.273055 16.1484 0 18.0598 0 19.9999C0 31.0274 8.97248 39.9999 20.0001 39.9999H19.9953ZM34.2372 32.5795L32.8001 36.8861L29.9258 34.0119L34.2324 32.5748L34.2372 32.5795Z" fill="url(#paint0_linear_2983_2062)"/>
<path d="M19.9958 7.47772C16.1587 7.47772 12.7192 9.21665 10.4197 11.9424C10.3575 11.9951 10.3048 12.0574 10.2665 12.1292C8.52274 14.2801 7.47363 17.0202 7.47363 19.9999C7.47363 22.9795 8.52274 25.7244 10.2712 27.8754C10.3144 27.9424 10.3623 27.9999 10.4197 28.0526C12.7192 30.7831 16.1587 32.5221 20.0006 32.5221C23.8425 32.5221 27.2773 30.7831 29.5767 28.0574C29.639 28.0047 29.6917 27.9424 29.73 27.8706C31.4737 25.7197 32.5228 22.9795 32.5228 19.9999C32.5228 17.0202 31.4737 14.2753 29.7252 12.1244C29.6821 12.0574 29.6342 11.9999 29.5767 11.9472C27.2773 9.21665 23.8378 7.47772 19.9958 7.47772ZM15.2916 10.2274C14.6976 11.0322 14.185 11.9855 13.7683 13.0586C13.2461 12.8574 12.7431 12.637 12.288 12.3831C13.1551 11.5065 14.1707 10.7735 15.2964 10.2274H15.2916ZM11.191 13.6765C11.8186 14.0454 12.5036 14.3711 13.2413 14.6538C12.8629 16.0334 12.6281 17.552 12.5707 19.1616H9.18382C9.3419 17.1256 10.0605 15.243 11.191 13.6765ZM11.191 26.3233C10.0605 24.7568 9.3419 22.8741 9.18382 20.8382H12.5707C12.6329 22.4526 12.8629 23.9712 13.2413 25.346C12.5036 25.6238 11.8186 25.9496 11.191 26.3233ZM12.2832 27.6167C12.7431 27.3628 13.2413 27.1424 13.7635 26.9412C14.1802 28.0143 14.6976 28.9724 15.2868 29.7724C14.1611 29.231 13.1455 28.4981 12.2784 27.6167H12.2832ZM19.1575 30.7257C17.6341 30.2849 16.2832 28.6753 15.3826 26.4143C16.5611 26.1077 17.8353 25.9256 19.1575 25.873V30.7257ZM19.1575 24.1963C17.6533 24.2538 16.197 24.4646 14.8557 24.8238C14.5252 23.6023 14.3096 22.2562 14.2521 20.8382H19.1623V24.1963H19.1575ZM19.1575 19.1616H14.2473C14.3096 17.7484 14.5204 16.3975 14.8509 15.1759C16.197 15.5352 17.6533 15.7412 19.1527 15.8035V19.1616H19.1575ZM19.1575 14.1268C17.8353 14.0693 16.5611 13.8873 15.3826 13.5855C16.2832 11.3244 17.6341 9.71485 19.1575 9.27413V14.1268ZM27.7084 12.3831C27.2485 12.637 26.7503 12.8574 26.2282 13.0586C25.8114 11.9855 25.294 11.0274 24.7048 10.2274C25.8306 10.7687 26.8461 11.5017 27.7132 12.3831H27.7084ZM20.8342 9.27413C22.3575 9.71485 23.7084 11.3244 24.609 13.5855C23.4306 13.8921 22.1563 14.0741 20.8342 14.1268V9.27413ZM20.8342 15.8035C22.3383 15.746 23.7946 15.5352 25.136 15.1759C25.4665 16.3975 25.6821 17.7436 25.7396 19.1616H20.8294V15.8035H20.8342ZM20.8342 20.8382H25.7443C25.6821 22.2514 25.4713 23.6023 25.1408 24.8238C23.7946 24.4646 22.3383 24.2586 20.8389 24.1963V20.8382H20.8342ZM20.8342 30.7257V25.873C22.1563 25.9304 23.4306 26.1125 24.609 26.4143C23.7084 28.6753 22.3575 30.2849 20.8342 30.7257ZM24.7 29.7724C25.294 28.9676 25.8066 28.0143 26.2234 26.9412C26.7455 27.1424 27.2485 27.3628 27.7036 27.6167C26.8366 28.4933 25.821 29.2262 24.6952 29.7724H24.7ZM28.8006 26.3233C28.1731 25.9544 27.4881 25.6286 26.7503 25.346C27.1288 23.9664 27.3635 22.4478 27.421 20.8382H30.8078C30.6497 22.8741 29.9312 24.7568 28.8006 26.3233ZM30.8078 19.1616H27.421C27.3587 17.5472 27.1288 16.0286 26.7503 14.6538C27.4881 14.3759 28.1731 14.0502 28.8006 13.6765C29.9312 15.243 30.6497 17.1256 30.8078 19.1616Z" fill="url(#paint1_linear_2983_2062)"/>
<path d="M4.42651 9.58564C4.51753 9.58564 4.60376 9.57127 4.68999 9.54252L11.8756 7.14731C12.1535 7.05629 12.3595 6.82635 12.4265 6.54372C12.4936 6.26108 12.4074 5.96408 12.2014 5.75809L10.6732 4.22994C13.49 2.56288 16.6852 1.67665 19.9906 1.67665C30.0937 1.67665 38.314 9.89702 38.314 20C38.314 21.7773 38.0601 23.5258 37.5619 25.2024C37.4278 25.6479 37.6817 26.1126 38.1272 26.2467C38.2086 26.2707 38.2853 26.2803 38.3667 26.2803C38.726 26.2803 39.0613 26.0455 39.1715 25.6815C39.7176 23.8515 39.9907 21.9401 39.9907 20C39.9907 8.97246 31.0182 0 19.9906 0C16.2397 0 12.6086 1.03952 9.44689 3.0036L7.41095 0.967666C7.20496 0.761678 6.90796 0.67545 6.62532 0.742516C6.34269 0.809582 6.11275 1.01557 6.02173 1.29341L3.62651 8.47905C3.52591 8.78085 3.60256 9.11139 3.82771 9.33654C3.98579 9.49462 4.20136 9.58085 4.42172 9.58085L4.42651 9.58564ZM7.1858 3.11378L10.0601 5.98803L5.75346 7.42516L7.19059 3.11857L7.1858 3.11378Z" fill="url(#paint2_linear_2983_2062)"/>
<defs>
<linearGradient id="paint0_linear_2983_2062" x1="5.42445e-07" y1="39.9999" x2="39.0807" y2="18.612" gradientUnits="userSpaceOnUse">
<stop stop-color="#0968E5"/>
<stop offset="0.492708" stop-color="#0941AB"/>
<stop offset="1" stop-color="#091970"/>
</linearGradient>
<linearGradient id="paint1_linear_2983_2062" x1="7.47363" y1="32.5221" x2="37.6995" y2="20.5774" gradientUnits="userSpaceOnUse">
<stop stop-color="#0968E5"/>
<stop offset="0.492708" stop-color="#0941AB"/>
<stop offset="1" stop-color="#091970"/>
</linearGradient>
<linearGradient id="paint2_linear_2983_2062" x1="3.58301" y1="26.2803" x2="42.6661" y2="4.88779" gradientUnits="userSpaceOnUse">
<stop stop-color="#0968E5"/>
<stop offset="0.492708" stop-color="#0941AB"/>
<stop offset="1" stop-color="#091970"/>
</linearGradient>
</defs>
</svg>
