<svg width="42" height="40" viewBox="0 0 42 40" fill="none" xmlns="http://www.w3.org/2000/svg">
<path d="M40.7986 19.2001H38.3986V15.2001C38.3986 14.9049 38.2362 14.6337 37.9762 14.4945C37.717 14.3553 37.3994 14.3713 37.1554 14.5345L29.9554 19.3345C29.7322 19.4833 29.5986 19.7329 29.5986 20.0001C29.5986 20.2673 29.7322 20.5169 29.9546 20.6657L37.1546 25.4656C37.2882 25.5544 37.4434 25.6 37.5986 25.6C37.7282 25.6 37.8578 25.5688 37.9762 25.5056C38.2362 25.3664 38.3986 25.0952 38.3986 24.8V20.8001H40.7986C41.241 20.8001 41.5986 20.4417 41.5986 20.0001C41.5986 19.5585 41.241 19.2001 40.7986 19.2001ZM36.7986 23.3057L31.841 20.0001L36.7986 16.6953V23.3057Z" fill="url(#paint0_linear_2983_2074)"/>
<path d="M20.798 0.000198364C20.3564 0.000198364 19.998 0.358597 19.998 0.800195V39.2C19.998 39.6424 20.3564 40 20.798 40C21.2396 40 21.598 39.6424 21.598 39.2V0.800195C21.598 0.358597 21.2396 0.000198364 20.798 0.000198364Z" fill="url(#paint1_linear_2983_2074)"/>
<path d="M11.9991 20.0001C11.9991 19.7329 11.8655 19.4833 11.6431 19.3345L4.44318 14.5346C4.19678 14.3706 3.88078 14.3554 3.62238 14.4946C3.36238 14.6338 3.19998 14.905 3.19998 15.2002V19.2002H0.799996C0.358398 19.2002 0 19.5585 0 20.0001C0 20.4417 0.358398 20.8001 0.799996 20.8001H3.19998V24.8001C3.19998 25.0953 3.36238 25.3665 3.62238 25.5057C3.73998 25.5689 3.86958 25.6001 3.99918 25.6001C4.15438 25.6001 4.30878 25.5545 4.44318 25.4657L11.6431 20.6657C11.8655 20.5169 11.9991 20.2673 11.9991 20.0001ZM4.79918 23.3057V16.6954L9.75675 20.0001L4.79918 23.3057Z" fill="url(#paint2_linear_2983_2074)"/>
<path d="M26.3978 20.0001C26.3978 12.2593 31.0858 1.22576 31.133 1.11537C31.3074 0.708967 31.1186 0.238569 30.713 0.0649702C30.309 -0.108629 29.837 0.0785702 29.6634 0.484968C29.4642 0.948966 24.7979 11.9289 24.7979 20.0001C24.7979 28.0712 29.4642 39.0512 29.6626 39.5152C29.7922 39.8184 30.0874 40 30.3978 40C30.5034 40 30.6106 39.98 30.713 39.9352C31.1194 39.7608 31.3074 39.2912 31.133 38.8856C31.0858 38.7744 26.3978 27.7408 26.3978 20.0001Z" fill="url(#paint3_linear_2983_2074)"/>
<path d="M10.8834 0.0649959C10.4778 0.238595 10.289 0.708993 10.4634 1.11539C10.5106 1.22579 15.1986 12.2593 15.1986 20.0001C15.1986 27.7409 10.5106 38.7744 10.4634 38.8848C10.289 39.2912 10.4778 39.7608 10.8834 39.9344C10.9866 39.98 11.093 40 11.1986 40C11.509 40 11.8042 39.8184 11.9338 39.5152C12.1322 39.0512 16.7986 28.0713 16.7986 20.0001C16.7986 11.9289 12.1322 0.948992 11.9338 0.484994C11.761 0.0793959 11.2898 -0.109403 10.8834 0.0649959Z" fill="url(#paint4_linear_2983_2074)"/>
<defs>
<linearGradient id="paint0_linear_2983_2074" x1="29.5986" y1="25.6" x2="43.7956" y2="19.5901" gradientUnits="userSpaceOnUse">
<stop stop-color="#0968E5"/>
<stop offset="0.492708" stop-color="#0941AB"/>
<stop offset="1" stop-color="#091970"/>
</linearGradient>
<linearGradient id="paint1_linear_2983_2074" x1="19.998" y1="40" x2="22.2296" y2="39.9647" gradientUnits="userSpaceOnUse">
<stop stop-color="#0968E5"/>
<stop offset="0.492708" stop-color="#0941AB"/>
<stop offset="1" stop-color="#091970"/>
</linearGradient>
<linearGradient id="paint2_linear_2983_2074" x1="1.78801e-07" y1="25.6001" x2="14.1964" y2="19.591" gradientUnits="userSpaceOnUse">
<stop stop-color="#0968E5"/>
<stop offset="0.492708" stop-color="#0941AB"/>
<stop offset="1" stop-color="#091970"/>
</linearGradient>
<linearGradient id="paint3_linear_2983_2074" x1="24.7979" y1="40" x2="33.6913" y2="39.4377" gradientUnits="userSpaceOnUse">
<stop stop-color="#0968E5"/>
<stop offset="0.492708" stop-color="#0941AB"/>
<stop offset="1" stop-color="#091970"/>
</linearGradient>
<linearGradient id="paint4_linear_2983_2074" x1="10.3984" y1="40" x2="19.2918" y2="39.4378" gradientUnits="userSpaceOnUse">
<stop stop-color="#0968E5"/>
<stop offset="0.492708" stop-color="#0941AB"/>
<stop offset="1" stop-color="#091970"/>
</linearGradient>
</defs>
</svg>
