<svg width="53" height="40" viewBox="0 0 53 40" fill="none" xmlns="http://www.w3.org/2000/svg">
<path d="M50.2731 8.04302H50.1373V0.707514C50.1373 0.316966 49.8203 0 49.4297 0H45.8243C45.4337 0 45.1167 0.316966 45.1167 0.707514V2.70553H43.3564V0.707514C43.3564 0.316966 43.0395 0 42.6489 0H38.7661C38.3755 0 38.0586 0.316966 38.0586 0.707514V5.14504C37.6171 4.87336 37.102 4.70921 36.5473 4.70921C35.9926 4.70921 35.4436 4.87902 34.9908 5.16768C34.7757 3.76397 33.5701 2.68289 32.1098 2.68289C31.1646 2.68289 30.3325 3.14136 29.7948 3.83756C29.2628 3.27154 28.51 2.9093 27.6666 2.9093C26.478 2.9093 25.4535 3.62247 25.0007 4.64695C24.5083 4.26772 23.897 4.03566 23.2291 4.03566C21.616 4.03566 20.3028 5.3488 20.3028 6.96194V8.04302H18.9331C19.0406 7.57323 19.0916 7.09212 19.0916 6.60535C19.0916 2.9659 16.1313 0.00566024 12.4975 0.00566024C9.95613 0.00566024 7.62417 1.49427 6.54309 3.75831C2.92628 3.78661 0 6.74119 0 10.358C0 13.9748 2.93194 16.9294 6.54309 16.9577C7.62417 19.2217 9.95613 20.7103 12.4975 20.7103C14.5974 20.7103 16.4709 19.7198 17.6765 18.1803V18.2991C17.6765 20.4104 18.3105 22.448 19.5161 24.1857L21.3047 26.7723V31.1759H20.6028C20.2123 31.1759 19.8953 31.4929 19.8953 31.8834V39.2925C19.8953 39.683 20.2123 40 20.6028 40H36.5417C36.9322 40 37.2492 39.683 37.2492 39.2925V31.8834C37.2492 31.4929 36.9322 31.1759 36.5417 31.1759H35.8455V26.7723L37.6341 24.1857C38.834 22.448 39.4736 20.4104 39.4736 18.2991V12.6673H50.2674C51.4221 12.6673 52.356 11.7277 52.356 10.5787V10.1316C52.356 8.97694 51.4164 8.04302 50.2674 8.04302H50.2731ZM50.9467 10.5844C50.9467 10.958 50.641 11.258 50.2731 11.258H39.4793V9.45805H50.2731C50.6467 9.45805 50.9467 9.76369 50.9467 10.1316V10.5787V10.5844ZM34.5606 26.161C34.4814 26.2799 34.4361 26.4214 34.4361 26.5629V31.1872H22.7253V26.5629C22.7253 26.4214 22.6801 26.2799 22.6008 26.161L20.6877 23.3876C19.6519 21.8876 19.1029 20.1274 19.1029 18.3048V13.0409C19.1029 11.8183 20.0991 10.8278 21.316 10.8278H29.9646C30.1457 10.8278 30.2872 10.9693 30.2929 11.1504C30.3042 11.7051 30.1967 12.4862 29.6477 13.0466C29.093 13.6126 28.1647 13.8956 26.8855 13.8956H23.4159C23.331 13.8956 23.28 13.8956 23.2687 13.8956C22.8838 13.9069 22.5725 14.2239 22.5782 14.6144C22.5838 15.005 22.9008 15.3106 23.2857 15.3106H23.3763C23.8291 15.3163 26.3478 15.4295 27.661 17.0822C28.5609 18.2086 28.742 19.867 28.2043 22.0008C28.1081 22.3801 28.3402 22.765 28.7194 22.8612C29.0986 22.9574 29.4835 22.7253 29.5797 22.3461C29.891 21.1122 29.9873 19.9972 29.8741 19.0067C29.7948 18.2878 29.6024 17.6426 29.308 17.0596C29.7948 16.7313 30.1797 16.2615 30.4005 15.7068C30.8872 16.0634 31.4759 16.2785 32.1268 16.2785C32.3136 16.2785 32.489 16.2558 32.6645 16.2219C33.2531 16.1087 33.7852 15.8257 34.1927 15.4181C34.7248 16.154 35.5851 16.6407 36.5643 16.6407C37.119 16.6407 37.6341 16.4766 38.0756 16.2049V18.2935C38.0756 20.116 37.5265 21.8763 36.4907 23.3763L34.5776 26.1497L34.5606 26.161ZM35.8398 32.6022V38.5963H21.316V32.6022H35.8398ZM12.5032 19.2953C10.3693 19.2953 8.4279 17.9595 7.66945 15.9728C7.56191 15.6955 7.30154 15.52 7.00722 15.52C6.97892 15.52 6.95062 15.52 6.92232 15.52C6.81477 15.5313 6.71289 15.537 6.60535 15.537C3.74699 15.537 1.41503 13.2107 1.41503 10.3523C1.41503 7.49399 3.74133 5.16202 6.60535 5.16202C6.71289 5.16202 6.81477 5.16768 6.92232 5.179C7.23928 5.21862 7.55059 5.03184 7.66945 4.72619C8.4279 2.73949 10.3693 1.40371 12.5032 1.40371C15.3615 1.40371 17.6822 3.73001 17.6822 6.58837C17.6822 7.79397 17.2577 8.96562 16.4936 9.88821C16.2785 10.1486 16.2785 10.5278 16.4936 10.7938C17.2577 11.7164 17.6822 12.8881 17.6822 14.0937C17.6822 16.952 15.3615 19.284 12.5032 19.284V19.2953ZM23.2348 5.44503C24.0668 5.44503 24.746 6.12424 24.746 6.95628V9.4071H21.7235V6.95628C21.7235 6.12424 22.4027 5.44503 23.2348 5.44503ZM26.161 5.82991C26.161 4.99788 26.8402 4.31866 27.6723 4.31866C28.5043 4.31866 29.1835 4.99788 29.1835 5.82991V9.40144H26.161V5.82991ZM30.5986 5.60351C30.5986 4.77147 31.2778 4.09226 32.1098 4.09226C32.9418 4.09226 33.6211 4.77147 33.6211 5.60351V13.3465C33.6211 14.1786 32.9418 14.8578 32.1098 14.8578C31.4872 14.8578 30.9551 14.4786 30.7231 13.9465C31.3796 13.2333 31.7193 12.2598 31.6966 11.1165C31.6853 10.3976 31.2268 9.78633 30.5929 9.53163V5.60351H30.5986ZM28.4817 15.8879C28.2609 15.6559 28.0345 15.4408 27.7911 15.2597C28.2949 15.2031 28.7364 15.0955 29.1496 14.9484C29.059 15.3446 28.8156 15.6785 28.4873 15.8936L28.4817 15.8879ZM20.3085 9.54861C19.4878 9.78633 18.7859 10.3014 18.3161 10.9919C18.1973 10.7712 18.0727 10.5561 17.9312 10.3467C18.1293 10.058 18.3048 9.75803 18.452 9.44673H20.3141V9.54295L20.3085 9.54861ZM38.0642 13.7144C38.0642 14.5465 37.385 15.2257 36.553 15.2257C35.721 15.2257 35.0417 14.5465 35.0417 13.7144V7.63549C35.0417 6.80345 35.721 6.12424 36.553 6.12424C37.385 6.12424 38.0642 6.80345 38.0642 7.63549V13.7144ZM39.4793 1.41503H41.9471V3.41305C41.9471 3.80359 42.264 4.12056 42.6546 4.12056H45.8299C46.2205 4.12056 46.5374 3.80359 46.5374 3.41305V1.41503H48.7279V8.03736H39.4849V1.41503H39.4793Z" fill="url(#paint0_linear_2983_2073)"/>
<defs>
<linearGradient id="paint0_linear_2983_2073" x1="7.80166e-07" y1="40" x2="57.6294" y2="10.197" gradientUnits="userSpaceOnUse">
<stop stop-color="#0968E5"/>
<stop offset="0.492708" stop-color="#0941AB"/>
<stop offset="1" stop-color="#091970"/>
</linearGradient>
</defs>
</svg>
