<svg width="34" height="42" viewBox="0 0 34 42" fill="none" xmlns="http://www.w3.org/2000/svg">
<path d="M11.6105 1.00205C11.5394 1.01449 11.4722 1.04327 11.4142 1.08616C11.3562 1.12906 11.3089 1.18487 11.2762 1.24917C11.1322 1.53725 10.9803 1.988 10.7384 2.54303C10.4965 3.09806 10.181 3.73682 9.79361 4.3457C9.01882 5.56345 7.98782 6.5845 6.5814 6.5845H1.46512C1.34176 6.58451 1.22347 6.63352 1.13624 6.72076C1.04902 6.808 1.00001 6.92632 1 7.0497V21.0059C1 26.9595 3.75785 31.4983 7.07558 34.7585C10.3933 38.0187 14.2666 40.0167 16.6395 40.9661C16.7514 41.0113 16.8765 41.0113 16.9884 40.9661C19.3613 40.0167 23.2346 38.0187 26.5523 34.7585C29.8701 31.4983 32.6279 26.9595 32.6279 21.0059V7.0497C32.6279 6.92632 32.5789 6.808 32.4917 6.72076C32.4044 6.63352 32.2861 6.58451 32.1628 6.5845H27.0465C25.6401 6.5845 24.6091 5.56345 23.8343 4.3457C23.4469 3.73682 23.1314 3.09806 22.8895 2.54303C22.6476 1.988 22.4958 1.53725 22.3517 1.24917C22.3113 1.17293 22.2505 1.10945 22.176 1.06581C22.1016 1.02216 22.0165 1.00009 21.9302 1.00205H16.814H11.6977C11.6687 0.999317 11.6395 0.999317 11.6105 1.00205ZM12.0029 1.93245H16.814H21.625C21.7264 2.16779 21.8478 2.45056 22.0465 2.90646C22.2988 3.48537 22.6229 4.18406 23.0494 4.8545C23.9025 6.19538 25.1971 7.5149 27.0465 7.5149H31.6977V21.0059C31.6977 26.674 29.1067 30.9658 25.9128 34.1043C22.7837 37.1791 19.1053 39.0865 16.814 40.0211C14.5226 39.0865 10.8442 37.1791 7.71512 34.1043C4.52122 30.9658 1.93023 26.674 1.93023 21.0059V7.5149H6.5814C8.43079 7.5149 9.72537 6.19538 10.5785 4.8545C11.0051 4.18406 11.3291 3.48537 11.5814 2.90646C11.7801 2.45056 11.9015 2.16779 12.0029 1.93245Z" stroke="url(#paint0_linear_2983_2070)" stroke-width="0.930233"/>
<path d="M15.5033 21.3385L15.5033 21.3384C15.4578 21.0685 15.3114 20.878 15.19 20.7442C15.1406 20.6898 15.0857 20.6347 15.038 20.5868C15.0285 20.5773 15.0193 20.568 15.0105 20.5591C14.9533 20.5015 14.9015 20.4481 14.8522 20.3904C14.678 20.187 14.4886 19.8846 14.4886 19.2244C14.4886 18.1497 15.3593 17.2791 16.4332 17.2791C17.5071 17.2791 18.3785 18.1504 18.3785 19.2244C18.3785 19.8216 18.1944 20.1317 18.0063 20.3636C17.9546 20.4273 17.9009 20.487 17.8425 20.5509C17.8359 20.5581 17.8292 20.5654 17.8224 20.5729C17.7717 20.6282 17.7147 20.6905 17.6629 20.7526C17.5453 20.8937 17.406 21.0889 17.3612 21.3514L17.3612 21.3518C17.3329 21.5185 17.3073 21.6734 17.2834 21.818C17.2343 22.1152 17.1923 22.3688 17.1496 22.5918C17.0858 22.9251 17.028 23.1451 16.9626 23.2956C16.9018 23.4355 16.8488 23.4816 16.8076 23.5055C16.7561 23.5353 16.6546 23.5689 16.4332 23.5689C16.2124 23.5689 16.1108 23.5348 16.0591 23.5045C16.0169 23.4798 15.963 23.432 15.9015 23.2896C15.8357 23.1372 15.7777 22.9151 15.714 22.5807C15.6714 22.3569 15.6296 22.1027 15.5808 21.8054C15.5569 21.6605 15.5314 21.5053 15.5033 21.3385Z" stroke="url(#paint1_linear_2983_2070)" stroke-width="0.930233"/>
<defs>
<linearGradient id="paint0_linear_2983_2070" x1="1" y1="41" x2="41.2007" y2="28.4411" gradientUnits="userSpaceOnUse">
<stop stop-color="#0968E5"/>
<stop offset="0.492708" stop-color="#0941AB"/>
<stop offset="1" stop-color="#091970"/>
</linearGradient>
<linearGradient id="paint1_linear_2983_2070" x1="14.0234" y1="24.0341" x2="20.3106" y2="22.3757" gradientUnits="userSpaceOnUse">
<stop stop-color="#0968E5"/>
<stop offset="0.492708" stop-color="#0941AB"/>
<stop offset="1" stop-color="#091970"/>
</linearGradient>
</defs>
</svg>
