<svg width="32" height="40" viewBox="0 0 32 40" fill="none" xmlns="http://www.w3.org/2000/svg">
<path d="M14.5938 28.7856L14.5938 28.7855C14.5483 28.5156 14.4019 28.3252 14.2805 28.1915C14.2312 28.1371 14.1763 28.082 14.1286 28.0341C14.1191 28.0246 14.1099 28.0153 14.101 28.0065C14.0439 27.9488 13.9921 27.8954 13.9428 27.8378C13.7687 27.6344 13.5793 27.3321 13.5793 26.672C13.5793 25.5976 14.4498 24.7272 15.5234 24.7272C16.5971 24.7272 17.4683 25.5983 17.4683 26.672C17.4683 27.2691 17.2842 27.5791 17.0962 27.8109C17.0445 27.8747 16.9908 27.9344 16.9324 27.9982C16.9258 28.0054 16.9191 28.0128 16.9123 28.0202C16.8616 28.0755 16.8046 28.1377 16.7528 28.1999C16.6352 28.3409 16.496 28.5361 16.4513 28.7985L16.4512 28.7989C16.423 28.9656 16.3973 29.1204 16.3734 29.265C16.3243 29.5621 16.2824 29.8157 16.2397 30.0387C16.1759 30.3718 16.1181 30.5918 16.0527 30.7422C15.9919 30.8821 15.939 30.9282 15.8978 30.9521C15.8463 30.9818 15.7448 31.0155 15.5234 31.0155C15.3027 31.0155 15.2012 30.9814 15.1494 30.9511C15.1072 30.9264 15.0533 30.8786 14.9919 30.7363C14.926 30.5839 14.8681 30.3619 14.8044 30.0275C14.7618 29.8038 14.7201 29.5497 14.6712 29.2524C14.6474 29.1076 14.6219 28.9524 14.5938 28.7856ZM14.1352 28.8628C14.1624 29.0241 14.1875 29.1765 14.2111 29.3202C14.4801 30.9563 14.5662 31.4805 15.5234 31.4805C16.4783 31.4805 16.5631 30.9679 16.8335 29.3332C16.8572 29.1898 16.8824 29.0377 16.9097 28.8766C16.9442 28.6741 17.0867 28.5183 17.255 28.3345C17.5537 28.0082 17.9333 27.5935 17.9333 26.672C17.9333 25.3415 16.8539 24.2622 15.5234 24.2622C14.1929 24.2622 13.1143 25.3409 13.1143 26.672C13.1143 27.6748 13.5023 28.0643 13.8017 28.3648C13.9651 28.5289 14.1021 28.6665 14.1352 28.8628Z" stroke="url(#paint0_linear_2983_2066)" stroke-width="0.930008"/>
<rect x="1.16251" y="16.9002" width="29.1503" height="21.9372" rx="4.08338" stroke="url(#paint1_linear_2983_2066)" stroke-width="2.32502"/>
<mask id="path-3-inside-1_2983_2066" fill="white">
<path d="M6.50977 16.9416V9.41621C6.50743 7.08343 7.37196 4.833 8.93553 3.10178C10.4991 1.37057 12.6502 0.282087 14.9711 0.0476458C17.2921 -0.186796 19.6174 0.449529 21.4956 1.83309C23.3738 3.21665 24.6709 5.24874 25.1351 7.53486"/>
</mask>
<path d="M4.18475 16.9416C4.18475 18.2257 5.2257 19.2666 6.50977 19.2666C7.79384 19.2666 8.83479 18.2257 8.83479 16.9416H4.18475ZM6.50977 9.41621L8.83479 9.41621L8.83479 9.41387L6.50977 9.41621ZM22.8566 7.99753C23.1121 9.25592 24.3394 10.0689 25.5978 9.81338C26.8562 9.55786 27.6691 8.33059 27.4136 7.07219L22.8566 7.99753ZM8.83479 16.9416V9.41621H4.18475V16.9416H8.83479ZM8.83479 9.41387C8.83303 7.65767 9.48387 5.96347 10.661 4.66015L7.21007 1.54341C5.26004 3.70252 4.18183 6.50918 4.18475 9.41854L8.83479 9.41387ZM10.661 4.66015C11.8381 3.35684 13.4575 2.53739 15.2048 2.3609L14.7375 -2.2656C11.8428 -1.97322 9.16011 -0.615701 7.21007 1.54341L10.661 4.66015ZM15.2048 2.3609C16.9521 2.1844 18.7027 2.66345 20.1166 3.70504L22.8745 -0.0388609C20.5321 -1.76439 17.6321 -2.55799 14.7375 -2.2656L15.2048 2.3609ZM20.1166 3.70504C21.5306 4.74663 22.5071 6.27645 22.8566 7.99753L27.4136 7.07219C26.8347 4.22102 25.217 1.68667 22.8745 -0.0388609L20.1166 3.70504Z" fill="url(#paint2_linear_2983_2066)" mask="url(#path-3-inside-1_2983_2066)"/>
<defs>
<linearGradient id="paint0_linear_2983_2066" x1="13.1143" y1="31.4805" x2="19.3999" y2="29.8225" gradientUnits="userSpaceOnUse">
<stop stop-color="#0968E5"/>
<stop offset="0.492708" stop-color="#0941AB"/>
<stop offset="1" stop-color="#091970"/>
</linearGradient>
<linearGradient id="paint1_linear_2983_2066" x1="4.69019e-07" y1="39.9999" x2="34.7751" y2="22.1754" gradientUnits="userSpaceOnUse">
<stop stop-color="#0968E5"/>
<stop offset="0.492708" stop-color="#0941AB"/>
<stop offset="1" stop-color="#091970"/>
</linearGradient>
<linearGradient id="paint2_linear_2983_2066" x1="6.50977" y1="16.9416" x2="28.3696" y2="7.44637" gradientUnits="userSpaceOnUse">
<stop offset="0.492708" stop-color="#0941AB"/>
<stop offset="1" stop-color="#0968E5"/>
</linearGradient>
</defs>
</svg>
