<?xml version="1.0" standalone="no"?>
<!DOCTYPE svg PUBLIC "-//W3C//DTD SVG 20010904//EN"
 "http://www.w3.org/TR/2001/REC-SVG-20010904/DTD/svg10.dtd">
<svg version="1.0" xmlns="http://www.w3.org/2000/svg"
 width="960.000000pt" height="960.000000pt" viewBox="0 0 960.000000 960.000000"
 preserveAspectRatio="xMidYMid meet">
<metadata>
Created by potrace 1.14, written by Peter Selinger 2001-2017
</metadata>
<g transform="translate(0.000000,960.000000) scale(0.100000,-0.100000)"
fill="#000000" stroke="none">
<path d="M5158 9595 c-2 -2 -15 -6 -28 -9 -67 -14 -113 -27 -133 -38 -12 -6
-29 -14 -38 -19 -30 -14 -114 -60 -154 -85 -22 -13 -52 -29 -67 -35 -16 -6
-28 -15 -28 -19 0 -4 -17 -15 -37 -24 -51 -22 -97 -49 -101 -58 -2 -5 -7 -8
-12 -8 -4 0 -38 -18 -74 -40 -36 -22 -70 -40 -75 -40 -5 0 -11 -3 -13 -7 -1
-5 -19 -16 -38 -27 -91 -49 -145 -80 -150 -85 -4 -5 -34 -22 -111 -64 -13 -7
-35 -20 -49 -28 -20 -13 -215 -126 -465 -269 -180 -103 -234 -135 -255 -148
-14 -9 -27 -17 -30 -17 -3 0 -16 -8 -30 -17 -21 -13 -143 -84 -377 -219 -51
-29 -104 -60 -152 -87 -24 -13 -104 -60 -178 -103 -75 -43 -137 -79 -138 -79
-2 0 -72 -41 -157 -91 -84 -50 -162 -95 -173 -100 -11 -5 -42 -23 -70 -40 -27
-16 -58 -33 -67 -36 -10 -3 -18 -9 -18 -13 0 -4 -8 -10 -17 -13 -18 -6 -73
-37 -83 -47 -3 -3 -21 -13 -40 -23 -65 -35 -95 -52 -100 -58 -3 -4 -27 -18
-55 -33 -27 -14 -72 -39 -100 -55 -27 -16 -72 -42 -100 -56 -27 -15 -57 -33
-66 -41 -8 -8 -21 -14 -27 -14 -6 0 -17 -6 -24 -12 -7 -7 -31 -22 -53 -33 -22
-11 -44 -23 -50 -28 -5 -4 -39 -26 -75 -49 -86 -54 -185 -157 -235 -243 -22
-38 -39 -73 -38 -77 2 -4 -1 -8 -6 -8 -8 0 -25 -45 -19 -52 1 -2 -4 -12 -10
-24 -6 -11 -13 -32 -16 -45 -3 -13 -9 -35 -13 -49 -4 -14 -9 -1040 -10 -2280
l-2 -2255 25 -85 c28 -98 34 -112 89 -200 48 -78 147 -179 213 -217 26 -15 49
-31 50 -35 2 -4 8 -8 13 -8 6 0 29 -9 51 -20 23 -11 45 -20 49 -20 4 0 20 -5
36 -11 65 -26 271 -31 363 -9 30 7 56 12 58 11 2 -1 113 52 142 69 8 5 51 30
95 54 120 68 139 80 146 89 3 5 8 7 10 6 4 -3 100 50 109 61 3 3 21 13 40 22
19 10 55 30 80 44 25 15 61 36 80 47 19 11 49 28 65 38 17 10 53 30 80 44 28
15 57 33 66 41 8 8 18 14 21 14 4 0 62 32 130 72 67 39 152 88 188 108 36 20
83 47 105 60 22 12 60 34 85 48 25 14 57 33 72 43 14 11 29 19 32 19 4 0 24
11 46 25 22 14 43 25 47 25 5 0 8 -442 9 -982 0 -976 2 -1053 28 -1123 41
-109 53 -136 78 -173 15 -24 28 -47 28 -52 0 -4 3 -10 8 -12 4 -2 28 -26 54
-54 26 -29 49 -49 52 -46 3 3 6 0 6 -7 0 -37 308 -186 342 -165 4 3 8 1 8 -4
0 -5 57 -8 128 -7 109 1 138 5 207 29 43 15 104 41 135 58 30 17 73 41 95 52
22 12 42 24 45 27 3 4 32 21 65 39 95 52 108 60 150 86 22 13 51 30 65 37 14
6 27 14 30 17 3 3 18 12 34 20 56 29 66 35 66 42 0 5 5 8 10 8 6 0 53 25 105
55 53 30 100 55 105 55 4 0 10 4 12 8 2 5 28 22 58 39 30 17 95 53 143 82 49
28 93 51 98 51 5 0 9 3 9 8 0 4 10 12 23 18 57 27 503 288 509 298 4 6 8 8 8
4 0 -4 15 1 33 12 17 11 40 23 50 26 9 4 17 10 17 15 0 5 5 9 10 9 6 0 38 17
73 38 34 20 76 44 92 52 17 8 32 17 35 21 3 3 52 31 110 63 58 32 107 61 110
65 3 3 23 15 45 27 22 11 117 65 210 119 94 54 217 125 275 158 58 33 137 79
175 102 39 23 77 45 85 48 8 4 29 16 45 27 17 11 37 23 45 27 8 4 48 26 88 50
40 24 77 43 81 43 5 0 11 3 13 8 2 4 20 16 40 27 114 62 263 150 266 157 2 4
12 8 23 8 10 0 19 5 19 10 0 6 4 10 9 10 11 0 162 91 211 128 82 61 220 230
220 269 0 7 4 13 8 13 6 0 27 41 36 70 1 3 8 23 16 45 7 22 15 49 17 60 2 11
9 54 16 95 10 59 12 527 11 2250 0 1196 -4 2198 -8 2227 -12 94 -79 259 -131
323 -41 51 -169 170 -199 184 -19 9 -37 20 -40 24 -5 8 -102 47 -181 73 -65
21 -244 19 -327 -3 -63 -17 -195 -72 -208 -88 -3 -3 -16 -11 -30 -17 -14 -7
-46 -25 -72 -40 -103 -62 -141 -83 -149 -83 -5 0 -9 -5 -9 -12 0 -6 -3 -8 -7
-5 -3 4 -13 1 -22 -6 -9 -8 -52 -34 -96 -59 -118 -67 -206 -118 -570 -328
-257 -148 -264 -152 -425 -244 l-115 -66 -6 1018 c-3 686 -9 1028 -16 1052
-33 107 -56 158 -107 235 -42 62 -147 175 -163 175 -6 0 -18 9 -28 20 -10 11
-22 20 -27 20 -5 0 -27 12 -51 27 -23 14 -42 25 -42 24 0 -1 -13 3 -30 9 -75
30 -138 42 -246 45 -65 2 -119 2 -121 0z"/>
</g>
</svg>
