<svg width="655" height="528" viewBox="0 0 655 528" fill="none" xmlns="http://www.w3.org/2000/svg">
<rect width="655" height="528" fill="#0E5CDF"/>
<path d="M220.203 199.177V249.29L73 308.505L220.203 199.177Z" fill="#00C9FF"/>
<g filter="url(#filter0_d_5397_15878)">
<path d="M192.603 197V283.449C192.603 295.53 187.756 307.116 179.129 315.658C170.502 324.201 158.8 329 146.599 329C134.398 329 122.697 324.201 114.07 315.658C105.443 307.116 100.596 295.53 100.596 283.449V247.022L128.193 231.983V283.449C127.935 285.695 128.159 287.97 128.85 290.124C129.541 292.279 130.684 294.264 132.205 295.951C133.725 297.638 135.588 298.987 137.672 299.911C139.755 300.835 142.013 301.313 144.296 301.313C146.579 301.313 148.836 300.835 150.92 299.911C153.004 298.987 154.867 297.638 156.387 295.951C157.907 294.264 159.05 292.279 159.742 290.124C160.433 287.97 160.657 285.695 160.398 283.449V214.446L192.603 197Z" fill="white"/>
</g>
<g filter="url(#filter1_d_5397_15878)">
<line x1="268.348" y1="183" x2="268.348" y2="343" stroke="white" stroke-width="5"/>
</g>
<g filter="url(#filter2_d_5397_15878)">
<path d="M328.616 314.28C324.946 314.28 322.173 313.213 320.296 311.08C318.504 308.861 317.608 306.216 317.608 303.144C317.608 299.987 318.546 297.341 320.424 295.208C322.386 293.075 325.117 292.008 328.616 292.008C332.114 292.008 334.888 292.904 336.936 294.696C338.984 296.488 340.008 299.176 340.008 302.76C340.008 306.344 339.026 309.16 337.064 311.208C335.186 313.256 332.37 314.28 328.616 314.28ZM377.595 265.896C369.317 265.469 362.875 263.421 358.267 259.752C353.659 255.997 351.355 251.176 351.355 245.288C351.355 238.12 354.213 232.445 359.931 228.264C365.648 224.083 374.011 221.992 385.019 221.992C396.027 221.992 404.347 223.955 409.979 227.88C415.611 231.805 418.427 237.096 418.427 243.752C418.427 250.323 416.251 255.528 411.899 259.368C407.547 263.123 401.275 265.299 393.083 265.896V266.28C411.515 267.816 420.731 275.624 420.731 289.704C420.731 297.896 417.829 304.04 412.027 308.136C406.309 312.232 397.349 314.28 385.147 314.28C360.997 314.28 348.923 306.131 348.923 289.832C348.923 275.411 358.48 267.56 377.595 266.28V265.896ZM396.283 289.704C396.283 281.768 395.515 276.093 393.979 272.68C392.443 269.267 389.456 267.56 385.019 267.56C380.667 267.56 377.723 269.309 376.187 272.808C374.651 276.221 373.883 281.896 373.883 289.832C373.883 297.683 374.608 303.272 376.059 306.6C377.595 309.928 380.624 311.592 385.147 311.592C389.669 311.592 392.656 309.928 394.107 306.6C395.557 303.187 396.283 297.555 396.283 289.704ZM385.147 224.68C381.392 224.68 378.96 226.216 377.851 229.288C376.827 232.275 376.315 236.371 376.315 241.576C376.315 246.696 376.357 250.152 376.443 251.944C376.528 253.651 376.699 255.443 376.955 257.32C377.296 259.197 377.808 260.605 378.491 261.544C379.941 263.592 382.288 264.616 385.531 264.616C388.432 264.616 390.608 263.592 392.059 261.544C393.168 259.923 393.765 257.533 393.851 254.376C393.936 251.133 393.979 246.909 393.979 241.704C393.979 236.413 393.424 232.275 392.315 229.288C391.291 226.216 388.901 224.68 385.147 224.68ZM455.845 265.896C447.567 265.469 441.125 263.421 436.517 259.752C431.909 255.997 429.605 251.176 429.605 245.288C429.605 238.12 432.463 232.445 438.181 228.264C443.898 224.083 452.261 221.992 463.269 221.992C474.277 221.992 482.597 223.955 488.229 227.88C493.861 231.805 496.677 237.096 496.677 243.752C496.677 250.323 494.501 255.528 490.149 259.368C485.797 263.123 479.525 265.299 471.333 265.896V266.28C489.765 267.816 498.981 275.624 498.981 289.704C498.981 297.896 496.079 304.04 490.277 308.136C484.559 312.232 475.599 314.28 463.397 314.28C439.247 314.28 427.173 306.131 427.173 289.832C427.173 275.411 436.73 267.56 455.845 266.28V265.896ZM474.533 289.704C474.533 281.768 473.765 276.093 472.229 272.68C470.693 269.267 467.706 267.56 463.269 267.56C458.917 267.56 455.973 269.309 454.437 272.808C452.901 276.221 452.133 281.896 452.133 289.832C452.133 297.683 452.858 303.272 454.309 306.6C455.845 309.928 458.874 311.592 463.397 311.592C467.919 311.592 470.906 309.928 472.357 306.6C473.807 303.187 474.533 297.555 474.533 289.704ZM463.397 224.68C459.642 224.68 457.21 226.216 456.101 229.288C455.077 232.275 454.565 236.371 454.565 241.576C454.565 246.696 454.607 250.152 454.693 251.944C454.778 253.651 454.949 255.443 455.205 257.32C455.546 259.197 456.058 260.605 456.741 261.544C458.191 263.592 460.538 264.616 463.781 264.616C466.682 264.616 468.858 263.592 470.309 261.544C471.418 259.923 472.015 257.533 472.101 254.376C472.186 251.133 472.229 246.909 472.229 241.704C472.229 236.413 471.674 232.275 470.565 229.288C469.541 226.216 467.151 224.68 463.397 224.68ZM534.095 265.896C525.817 265.469 519.375 263.421 514.767 259.752C510.159 255.997 507.855 251.176 507.855 245.288C507.855 238.12 510.713 232.445 516.431 228.264C522.148 224.083 530.511 221.992 541.519 221.992C552.527 221.992 560.847 223.955 566.479 227.88C572.111 231.805 574.927 237.096 574.927 243.752C574.927 250.323 572.751 255.528 568.399 259.368C564.047 263.123 557.775 265.299 549.583 265.896V266.28C568.015 267.816 577.231 275.624 577.231 289.704C577.231 297.896 574.329 304.04 568.527 308.136C562.809 312.232 553.849 314.28 541.647 314.28C517.497 314.28 505.423 306.131 505.423 289.832C505.423 275.411 514.98 267.56 534.095 266.28V265.896ZM552.783 289.704C552.783 281.768 552.015 276.093 550.479 272.68C548.943 269.267 545.956 267.56 541.519 267.56C537.167 267.56 534.223 269.309 532.687 272.808C531.151 276.221 530.383 281.896 530.383 289.832C530.383 297.683 531.108 303.272 532.559 306.6C534.095 309.928 537.124 311.592 541.647 311.592C546.169 311.592 549.156 309.928 550.607 306.6C552.057 303.187 552.783 297.555 552.783 289.704ZM541.647 224.68C537.892 224.68 535.46 226.216 534.351 229.288C533.327 232.275 532.815 236.371 532.815 241.576C532.815 246.696 532.857 250.152 532.943 251.944C533.028 253.651 533.199 255.443 533.455 257.32C533.796 259.197 534.308 260.605 534.991 261.544C536.441 263.592 538.788 264.616 542.031 264.616C544.932 264.616 547.108 263.592 548.559 261.544C549.668 259.923 550.265 257.533 550.351 254.376C550.436 251.133 550.479 246.909 550.479 241.704C550.479 236.413 549.924 232.275 548.815 229.288C547.791 226.216 545.401 224.68 541.647 224.68Z" fill="white"/>
</g>
<defs>
<filter id="filter0_d_5397_15878" x="96.5957" y="197" width="100.008" height="140" filterUnits="userSpaceOnUse" color-interpolation-filters="sRGB">
<feFlood flood-opacity="0" result="BackgroundImageFix"/>
<feColorMatrix in="SourceAlpha" type="matrix" values="0 0 0 0 0 0 0 0 0 0 0 0 0 0 0 0 0 0 127 0" result="hardAlpha"/>
<feOffset dy="4"/>
<feGaussianBlur stdDeviation="2"/>
<feComposite in2="hardAlpha" operator="out"/>
<feColorMatrix type="matrix" values="0 0 0 0 0 0 0 0 0 0.788235 0 0 0 0 1 0 0 0 0.6 0"/>
<feBlend mode="normal" in2="BackgroundImageFix" result="effect1_dropShadow_5397_15878"/>
<feBlend mode="normal" in="SourceGraphic" in2="effect1_dropShadow_5397_15878" result="shape"/>
</filter>
<filter id="filter1_d_5397_15878" x="265.848" y="183" width="13" height="168" filterUnits="userSpaceOnUse" color-interpolation-filters="sRGB">
<feFlood flood-opacity="0" result="BackgroundImageFix"/>
<feColorMatrix in="SourceAlpha" type="matrix" values="0 0 0 0 0 0 0 0 0 0 0 0 0 0 0 0 0 0 127 0" result="hardAlpha"/>
<feOffset dx="4" dy="4"/>
<feGaussianBlur stdDeviation="2"/>
<feComposite in2="hardAlpha" operator="out"/>
<feColorMatrix type="matrix" values="0 0 0 0 0 0 0 0 0 0.788235 0 0 0 0 1 0 0 0 0.3 0"/>
<feBlend mode="normal" in2="BackgroundImageFix" result="effect1_dropShadow_5397_15878"/>
<feBlend mode="normal" in="SourceGraphic" in2="effect1_dropShadow_5397_15878" result="shape"/>
</filter>
<filter id="filter2_d_5397_15878" x="317.607" y="221.992" width="267.623" height="100.288" filterUnits="userSpaceOnUse" color-interpolation-filters="sRGB">
<feFlood flood-opacity="0" result="BackgroundImageFix"/>
<feColorMatrix in="SourceAlpha" type="matrix" values="0 0 0 0 0 0 0 0 0 0 0 0 0 0 0 0 0 0 127 0" result="hardAlpha"/>
<feOffset dx="4" dy="4"/>
<feGaussianBlur stdDeviation="2"/>
<feComposite in2="hardAlpha" operator="out"/>
<feColorMatrix type="matrix" values="0 0 0 0 0 0 0 0 0 0.788235 0 0 0 0 1 0 0 0 0.6 0"/>
<feBlend mode="normal" in2="BackgroundImageFix" result="effect1_dropShadow_5397_15878"/>
<feBlend mode="normal" in="SourceGraphic" in2="effect1_dropShadow_5397_15878" result="shape"/>
</filter>
</defs>
</svg>
