<svg width="40" height="40" viewBox="0 0 40 40" fill="none" xmlns="http://www.w3.org/2000/svg">
<path d="M15.9197 18.7075C15.5649 18.3524 15.1592 18.0987 14.7536 17.8961C14.2974 17.6931 13.8412 17.5412 13.3848 17.5412C12.9286 17.4904 12.523 17.5917 12.0667 17.7441C11.6104 17.8961 11.2556 18.1498 10.85 18.5043C10.4951 18.8593 10.2416 19.265 10.0895 19.7213C9.93742 20.1775 9.88672 20.6339 9.88672 21.0901C9.88672 21.5464 10.0388 21.9521 10.2416 22.408C10.4445 22.8642 10.6979 23.2699 11.0528 23.6248C11.4076 23.9798 11.8132 24.233 12.2696 24.4362C12.7258 24.6387 13.1313 24.7911 13.5876 24.7911C14.0439 24.8418 14.5002 24.7911 14.9564 24.588C15.362 24.4362 15.7676 24.1825 16.1225 23.8279C16.4774 23.4729 16.7308 23.0672 16.9336 22.611C17.0857 22.1547 17.1365 21.6984 17.1365 21.2421C17.0857 20.7858 16.9843 20.3801 16.7815 19.9239C16.5787 19.4676 16.2746 19.062 15.9197 18.7075ZM15.0071 22.6617C14.7029 23.0166 14.2467 23.1179 13.7905 23.0672C13.2834 22.9659 12.7765 22.7122 12.3709 22.256C11.9653 21.8504 11.7118 21.3941 11.6104 20.9378C11.509 20.4308 11.6104 20.0252 11.9653 19.6706C12.3203 19.3157 12.7258 19.2144 13.2327 19.3157C13.7396 19.3662 14.196 19.62 14.6522 20.0763C15.0578 20.4815 15.3113 20.9378 15.4127 21.3941C15.5142 21.901 15.362 22.3066 15.0071 22.6617Z" fill="url(#paint0_linear_2983_2056)"/>
<path d="M17.1357 12.4716L19.924 30.3673L21.3943 28.8972L18.6059 11.001L17.1357 12.4716Z" fill="url(#paint1_linear_2983_2056)"/>
<path d="M22.4074 17.5411C22.0524 17.8961 21.7989 18.3018 21.6468 18.758C21.4441 19.2144 21.3934 19.6706 21.4441 20.127C21.4441 20.5832 21.5454 21.0394 21.7482 21.4447C21.951 21.901 22.2552 22.3066 22.6101 22.6616C22.965 23.0166 23.3705 23.2699 23.8269 23.4729C24.2324 23.6755 24.6887 23.8278 25.1449 23.8278C25.6013 23.8785 26.0575 23.8278 26.4631 23.6248C26.9193 23.4729 27.3249 23.2192 27.6798 22.8642C28.0347 22.5097 28.2881 22.104 28.4402 21.6478C28.5923 21.1914 28.6937 20.7352 28.643 20.2788C28.643 19.8226 28.4909 19.4169 28.2881 18.9607C28.0854 18.5043 27.8319 18.0987 27.4771 17.7441C27.1221 17.3892 26.7165 17.1355 26.2603 16.9329C25.8547 16.7298 25.3984 16.5778 24.9422 16.5778C24.4859 16.5273 24.0297 16.6285 23.624 16.781C23.1677 16.9329 22.7622 17.1862 22.4074 17.5411ZM24.79 18.3524C25.297 18.4031 25.7533 18.6567 26.1589 19.113C26.5645 19.5182 26.8179 19.9746 26.9193 20.4308C27.0207 20.9378 26.9193 21.3434 26.5645 21.6983C26.2096 22.0533 25.804 22.1547 25.297 22.104C24.79 22.0027 24.3338 21.749 23.8776 21.2927C23.4719 20.8872 23.2184 20.4308 23.1171 19.9746C23.0664 19.4676 23.1677 19.062 23.5226 18.7074C23.8269 18.4031 24.2831 18.2511 24.79 18.3524Z" fill="url(#paint2_linear_2983_2056)"/>
<path d="M38.9861 0.101408L24.1319 0C23.8277 0 23.5741 0.152395 23.3713 0.304379L0.304167 23.5742C-0.101389 23.9799 -0.101389 24.6388 0.304167 25.0445L14.9557 39.696C15.3612 40.1016 16.0203 40.1016 16.4259 39.696L16.4766 39.6453L39.6452 16.5779C39.8479 16.3754 39.9493 16.071 39.9493 15.7668L40 1.16627C40 0.557617 39.5437 0.101408 38.9861 0.101408ZM37.8708 15.4122L15.6655 37.4651L2.53489 24.2838L24.5374 2.0789L37.9214 2.18018L37.8708 15.4122Z" fill="url(#paint3_linear_2983_2056)"/>
<path d="M31.5333 12.4207C32.6487 12.4207 33.6626 11.9644 34.3724 11.2549C35.0821 10.4942 35.5385 9.53103 35.5385 8.41577C35.5385 7.30061 35.0821 6.28632 34.3724 5.57682C33.6626 4.86678 32.6487 4.41052 31.5333 4.41052C30.4688 4.41052 29.4547 4.86678 28.745 5.57682C27.9846 6.28632 27.5283 7.30061 27.5283 8.41577C27.5283 9.53103 27.9846 10.4942 28.745 11.2549C29.4547 11.9644 30.4688 12.4207 31.5333 12.4207ZM30.2152 7.04693C30.5702 6.69198 31.0264 6.48939 31.5333 6.48939C32.091 6.48939 32.5473 6.69198 32.9022 7.04693C33.257 7.40189 33.4598 7.85825 33.4598 8.41577C33.4598 8.9227 33.257 9.42964 32.9022 9.73405C32.5473 10.0886 32.091 10.2917 31.5333 10.2917C31.0264 10.2917 30.5702 10.0886 30.2152 9.73405C29.8603 9.42964 29.6575 8.9227 29.6575 8.41577C29.6575 7.85825 29.8603 7.40189 30.2152 7.04693Z" fill="url(#paint4_linear_2983_2056)"/>
<defs>
<linearGradient id="paint0_linear_2983_2056" x1="9.88672" y1="24.8094" x2="18.6454" y2="21.3639" gradientUnits="userSpaceOnUse">
<stop stop-color="#0968E5"/>
<stop offset="0.492708" stop-color="#0941AB"/>
<stop offset="1" stop-color="#091970"/>
</linearGradient>
<linearGradient id="paint1_linear_2983_2056" x1="17.1357" y1="30.3673" x2="23.0323" y2="29.855" gradientUnits="userSpaceOnUse">
<stop stop-color="#0968E5"/>
<stop offset="0.492708" stop-color="#0941AB"/>
<stop offset="1" stop-color="#091970"/>
</linearGradient>
<linearGradient id="paint2_linear_2983_2056" x1="21.4258" y1="23.8461" x2="30.1674" y2="20.4165" gradientUnits="userSpaceOnUse">
<stop stop-color="#0968E5"/>
<stop offset="0.492708" stop-color="#0941AB"/>
<stop offset="1" stop-color="#091970"/>
</linearGradient>
<linearGradient id="paint3_linear_2983_2056" x1="5.96046e-07" y1="40.0002" x2="48.2691" y2="20.9291" gradientUnits="userSpaceOnUse">
<stop stop-color="#0968E5"/>
<stop offset="0.492708" stop-color="#0941AB"/>
<stop offset="1" stop-color="#091970"/>
</linearGradient>
<linearGradient id="paint4_linear_2983_2056" x1="27.5283" y1="12.4207" x2="37.1944" y2="8.60163" gradientUnits="userSpaceOnUse">
<stop stop-color="#0968E5"/>
<stop offset="0.492708" stop-color="#0941AB"/>
<stop offset="1" stop-color="#091970"/>
</linearGradient>
</defs>
</svg>
