<svg width="20" height="20" viewBox="0 0 20 20" fill="none" xmlns="http://www.w3.org/2000/svg">
<mask id="mask0_351_9146" style="mask-type:luminance" maskUnits="userSpaceOnUse" x="0" y="0" width="20" height="20">
<path d="M20 0H0V20H20V0Z" fill="white"/>
</mask>
<g mask="url(#mask0_351_9146)">
<path d="M10 20C11.9778 20 13.9112 19.4135 15.5557 18.3147C17.2002 17.2159 18.4819 15.6541 19.2388 13.8268C19.9957 11.9996 20.1937 9.98891 19.8079 8.0491C19.422 6.10929 18.4696 4.32746 17.0711 2.92894C15.6725 1.53041 13.8907 0.578003 11.9509 0.192151C10.0111 -0.193701 8.00043 0.00433564 6.17317 0.761212C4.3459 1.51809 2.78412 2.79981 1.6853 4.4443C0.58649 6.08879 0 8.02219 0 10C0 11.3132 0.258658 12.6136 0.761205 13.8268C1.26375 15.0401 2.00035 16.1425 2.92893 17.0711C3.85752 17.9997 4.95991 18.7362 6.17317 19.2388C7.38642 19.7413 8.68678 20 10 20Z" fill="white"/>
<path d="M10 20C11.9778 20 13.9112 19.4135 15.5557 18.3147C17.2002 17.2159 18.4819 15.6541 19.2388 13.8268C19.9957 11.9996 20.1937 9.98891 19.8079 8.0491C19.422 6.10929 18.4696 4.32746 17.0711 2.92894C15.6725 1.53041 13.8907 0.578003 11.9509 0.192151C10.0111 -0.193701 8.00043 0.00433564 6.17317 0.761212C4.3459 1.51809 2.78412 2.79981 1.6853 4.4443C0.58649 6.08879 0 8.02219 0 10C0 11.3132 0.258658 12.6136 0.761205 13.8268C1.26375 15.0401 2.00035 16.1425 2.92893 17.0711C3.85752 17.9997 4.95991 18.7362 6.17317 19.2388C7.38642 19.7413 8.68678 20 10 20Z" fill="#1A71B1"/>
<path d="M16.0298 12.3863L11.4198 4.28634C11.2788 4.03398 11.073 3.82381 10.8236 3.67752C10.5743 3.53123 10.2904 3.4541 10.0013 3.4541C9.71225 3.4541 9.42838 3.53123 9.17904 3.67752C8.92969 3.82381 8.72388 4.03398 8.58284 4.28634L3.97284 12.3863C3.82741 12.638 3.75057 12.9234 3.75 13.2141C3.74943 13.5048 3.82515 13.7905 3.9696 14.0428C4.11404 14.295 4.32215 14.5049 4.57313 14.6516C4.82411 14.7982 5.10918 14.8764 5.39984 14.8783H14.6198C14.9089 14.8732 15.1917 14.7926 15.4402 14.6448C15.6886 14.4969 15.8942 14.2867 16.0366 14.035C16.179 13.7834 16.2533 13.4989 16.2521 13.2098C16.2509 12.9207 16.1743 12.6368 16.0298 12.3863ZM13.0658 11.4003C13.0658 11.6776 12.9937 11.9502 12.8566 12.1912C12.7196 12.4323 12.5222 12.6336 12.2838 12.7753L10.7838 13.6513C10.5465 13.7899 10.2766 13.8629 10.0018 13.8629C9.72704 13.8629 9.45716 13.7899 9.21984 13.6513L7.71984 12.7753C7.48175 12.6338 7.28485 12.4324 7.14872 12.1912C7.01258 11.95 6.94195 11.6773 6.94384 11.4003V9.64034C6.94386 9.36303 7.01595 9.09049 7.15304 8.84944C7.29013 8.60839 7.48752 8.40711 7.72584 8.26534L9.21484 7.38934C9.45216 7.25078 9.72204 7.17776 9.99684 7.17776C10.2716 7.17776 10.5415 7.25078 10.7788 7.38934L12.2788 8.26534C12.518 8.40613 12.7161 8.60719 12.8534 8.84846C12.9906 9.08974 13.0621 9.36278 13.0608 9.64034V11.4003H13.0658Z" fill="white"/>
<path d="M12.0994 9.63772C12.1005 9.532 12.0733 9.42792 12.0205 9.3363C11.9677 9.24468 11.8914 9.16886 11.7994 9.11671L10.2994 8.24072C10.2091 8.18548 10.1053 8.15625 9.99944 8.15625C9.89358 8.15625 9.78976 8.18548 9.69944 8.24072L8.19944 9.11671C8.10803 9.16949 8.03216 9.24545 7.97948 9.33693C7.92681 9.42841 7.8992 9.53216 7.89944 9.63772V11.4007C7.89837 11.5064 7.92563 11.6105 7.97839 11.7021C8.03114 11.7938 8.10747 11.8696 8.19944 11.9217L9.69944 12.7977C9.7898 12.8528 9.8936 12.882 9.99944 12.882C10.1053 12.882 10.2091 12.8528 10.2994 12.7977L11.7994 11.9217C11.8909 11.8689 11.9667 11.793 12.0194 11.7015C12.0721 11.61 12.0997 11.5063 12.0994 11.4007V9.64072V9.63772Z" fill="#F1F1F1"/>
</g>
</svg>
