<svg width="26" height="24" viewBox="0 0 26 24" fill="none" xmlns="http://www.w3.org/2000/svg">
<path d="M9.4 17.8L16.72 10.48C17.1707 10.0382 17.7773 9.79179 18.4085 9.79404C19.0396 9.79628 19.6444 10.047 20.092 10.492L25 15.4M25 15.4V3.4C25 2.76348 24.7471 2.15303 24.2971 1.70294C23.847 1.25286 23.2365 1 22.6 1H3.4C2.76348 1 2.15303 1.25286 1.70294 1.70294C1.25286 2.15303 1 2.76348 1 3.4V15.4C1 16.0365 1.25286 16.647 1.70294 17.0971C2.15303 17.5471 2.76348 17.8 3.4 17.8H22.6C23.2365 17.8 23.847 17.5471 24.2971 17.0971C24.7471 16.647 25 16.0365 25 15.4ZM8.2 22.6H17.8M13 17.8V22.6M10.6 8.2C10.6 9.52548 9.52548 10.6 8.2 10.6C6.87452 10.6 5.8 9.52548 5.8 8.2C5.8 6.87452 6.87452 5.8 8.2 5.8C9.52548 5.8 10.6 6.87452 10.6 8.2Z" stroke="#2851E3" stroke-width="2" stroke-linecap="round" stroke-linejoin="round"/>
</svg>
