<svg width="931" height="480" viewBox="0 0 931 480" fill="none" xmlns="http://www.w3.org/2000/svg">
<g clip-path="url(#clip0_8943_56796)">
<path d="M91.7459 461.168V478.267H81.5569C69.3743 478.267 64.8113 472.996 64.6341 464.047C58.4321 473.129 48.7746 479.331 34.2441 479.331C14.0432 479.331 0 469.319 0 452.042C0 432.727 13.6445 422.183 39.5159 422.183H62.6406V416.557C62.6406 406.191 55.1982 399.812 42.4397 399.812C30.9659 399.812 23.3463 405.261 21.8844 413.456H2.34792C4.51863 395.426 19.8022 383.952 43.3257 383.952C66.8492 383.952 82.0885 395.78 82.0885 417.798V455.098C82.0885 459.839 83.7276 461.123 87.8918 461.123H91.7016L91.7459 461.168ZM62.6406 436.802H38.6299C26.6245 436.802 19.8908 441.365 19.8908 450.801C19.8908 458.642 26.4473 464.091 36.9908 464.091C53.0275 464.091 62.6406 454.434 62.6406 440.435V436.802Z" fill="black"/>
<path d="M134.499 478.31L99.1914 385.103H120.323L146.903 457.179L173.306 385.103H194.038L158.554 478.31H134.543H134.499Z" fill="black"/>
<path d="M294.422 461.168V478.267H284.233C272.05 478.267 267.487 472.996 267.31 464.047C261.108 473.129 251.45 479.331 236.92 479.331C216.719 479.331 202.676 469.319 202.676 452.042C202.676 432.727 216.32 422.183 242.192 422.183H265.316V416.557C265.316 406.191 257.874 399.812 245.115 399.812C233.642 399.812 226.022 405.261 224.56 413.456H205.068C207.239 395.426 222.522 383.952 246.046 383.952C269.569 383.952 284.809 395.78 284.809 417.798V455.098C284.809 459.839 286.448 461.123 290.612 461.123H294.422V461.168ZM265.316 436.802H241.306C229.3 436.802 222.567 441.365 222.567 450.801C222.567 458.642 229.123 464.091 239.667 464.091C255.703 464.091 265.316 454.434 265.316 440.435V436.802Z" fill="black"/>
<path d="M384.479 460.989V478.266H308.77V460.989H336.9V369.376L308.77 378.679V361.313L332.825 352.099H356.57V461.033H384.523L384.479 460.989Z" fill="black"/>
<path d="M489.344 461.168V478.267H479.155C466.972 478.267 462.409 472.996 462.232 464.047C456.03 473.129 446.372 479.331 431.842 479.331C411.641 479.331 397.598 469.319 397.598 452.042C397.598 432.727 411.242 422.183 437.114 422.183H460.238V416.557C460.238 406.191 452.796 399.812 440.037 399.812C428.564 399.812 420.944 405.261 419.482 413.456H399.99C402.161 395.426 417.444 383.952 440.968 383.952C464.491 383.952 479.73 395.78 479.73 417.798V455.098C479.73 459.839 481.37 461.123 485.534 461.123H489.344V461.168ZM460.194 436.802H436.183C424.178 436.802 417.444 441.365 417.444 450.801C417.444 458.642 424.001 464.091 434.544 464.091C450.581 464.091 460.194 454.434 460.194 440.435V436.802Z" fill="black"/>
<path d="M594.604 425.15V478.31H574.758V426.966C574.758 410.398 567.67 401.317 553.626 401.317C538.874 401.317 529.97 412.037 529.97 430.067V478.31H510.301V385.103H527.401L529.571 397.285C535.198 390.02 543.969 383.995 558.145 383.995C577.992 383.995 594.56 394.716 594.56 425.15H594.604Z" fill="black"/>
<path d="M618.693 431.884C618.693 403.133 637.077 383.995 665.119 383.995C688.953 383.995 703.882 397.285 707.515 418.416H686.96C684.39 407.474 676.593 400.741 664.765 400.741C649.127 400.741 638.716 413.676 638.716 431.884C638.716 450.091 649.083 462.628 664.765 462.628C676.416 462.628 684.434 455.717 686.782 444.952H707.515C704.059 466.084 688.2 479.374 664.544 479.374C636.501 479.374 618.648 460.989 618.648 431.884H618.693Z" fill="black"/>
<path d="M816.404 425.152V478.312H796.558V426.791C796.558 410.754 789.47 401.318 774.895 401.318C760.32 401.318 750.884 412.26 750.884 429.892V478.312H731.215V350.904H750.884V396.977C757.263 388.958 766.921 384.041 779.458 384.041C801.298 384.041 816.404 396.977 816.404 425.196V425.152Z" fill="black"/>
<path d="M860.184 436.225V437.155C860.716 452.971 870.551 463.381 885.834 463.381C897.485 463.381 906.389 457.356 908.959 446.99H928.628C925.35 465.375 909.889 479.374 886.942 479.374C857.836 479.374 839.629 460.457 839.629 431.884C839.629 403.31 857.836 383.995 884.948 383.995C912.06 383.995 929.736 401.095 930.267 428.428C930.267 430.422 930.09 433.523 929.736 436.269H860.184V436.225ZM860.937 421.473H909.889C908.25 407.651 898.77 399.81 885.125 399.81C872.943 399.81 862.355 408.183 860.893 421.473H860.937Z" fill="black"/>
<path d="M532.763 137.242C536.794 130.375 546.806 130.375 550.793 137.242L593.631 210.426C597.662 217.292 592.612 225.842 584.594 225.842H498.917C490.899 225.842 485.893 217.292 489.88 210.426L532.718 137.242H532.763Z" fill="black"/>
<path d="M506.887 88.5117C510.785 81.6895 510.785 73.2724 506.887 66.4059L471.757 5.09425C467.814 -1.7723 457.979 -1.7723 454.037 5.09425L336.464 210.338C332.521 217.204 337.438 225.798 345.324 225.798H415.54C423.381 225.798 430.602 221.59 434.5 214.768L506.843 88.4674L506.887 88.5117Z" fill="black"/>
</g>
<defs>
<clipPath id="clip0_8943_56796">
<rect width="930.262" height="479.374" fill="white"/>
</clipPath>
</defs>
</svg>
