<svg width="20" height="20" viewBox="0 0 20 20" fill="none" xmlns="http://www.w3.org/2000/svg">
<path d="M20 10C20 8.02219 19.4135 6.08879 18.3147 4.4443C17.2159 2.79981 15.6541 1.51809 13.8268 0.761209C11.9996 0.00433281 9.98891 -0.1937 8.0491 0.192152C6.10929 0.578004 4.32746 1.53041 2.92894 2.92894C1.53041 4.32746 0.578004 6.10929 0.192152 8.0491C-0.1937 9.98891 0.00433281 11.9996 0.761209 13.8268C1.51809 15.6541 2.79981 17.2159 4.4443 18.3147C6.08879 19.4135 8.02219 20 10 20C12.6522 20 15.1957 18.9464 17.0711 17.0711C18.9464 15.1957 20 12.6522 20 10Z" fill="#F0B90B"/>
<path d="M16.9215 8.26864C16.9215 8.63049 16.9278 8.99234 16.9215 9.3542C16.9126 9.76329 16.909 10.1724 16.9162 10.5806C16.9278 11.2588 16.9224 11.938 16.9215 12.6162C16.9221 13.0057 16.8182 13.3881 16.6207 13.7237C16.4232 14.0593 16.1392 14.3359 15.7985 14.5244C15.4313 14.7312 15.0641 14.9389 14.704 15.1563C14.1818 15.4724 13.6541 15.7799 13.1212 16.0788C12.4224 16.471 11.7326 16.8809 11.0347 17.2722C10.7594 17.4276 10.4533 17.5207 10.1381 17.5449C9.67472 17.5789 9.21246 17.4657 8.81724 17.2214C8.28782 16.9121 7.75574 16.6082 7.22454 16.3016C7.12918 16.2464 7.03292 16.1929 6.93845 16.1358C6.90574 16.1175 6.87875 16.0905 6.86049 16.0578C6.84224 16.0251 6.83343 15.9879 6.83506 15.9505C6.83506 15.4255 6.84397 14.9005 6.83506 14.3765C6.82615 13.8524 6.83506 13.3239 6.82437 12.7972C6.81991 12.6091 6.82437 12.421 6.81545 12.233C6.81223 12.0881 6.77186 11.9464 6.6982 11.8216C6.62454 11.6967 6.52007 11.5929 6.39478 11.52C6.03827 11.3043 5.66661 11.1029 5.30209 10.8961C4.93756 10.6893 4.58105 10.4808 4.21652 10.2802C3.86715 10.0886 3.52758 9.88183 3.17909 9.68931C3.13088 9.66667 3.09053 9.63013 3.06321 9.5844C3.0359 9.53867 3.02287 9.48582 3.02579 9.43263C3.02579 8.65812 3.02579 7.88361 3.02579 7.1091C3.02629 6.6269 3.18889 6.15887 3.48747 5.78023C3.68304 5.53572 3.92545 5.3327 4.20048 5.18308C4.83684 4.82122 5.46964 4.45224 6.10422 4.08593C6.13382 4.06634 6.16836 4.05552 6.20385 4.05473C6.23933 4.05395 6.27432 4.06322 6.30476 4.08147C6.53916 4.21784 6.77713 4.34885 7.01064 4.487C7.63987 4.86222 8.27624 5.22586 8.90993 5.59128C9.10244 5.70269 9.29585 5.8132 9.48836 5.92461C9.63203 6.01479 9.79823 6.06263 9.96786 6.06263C10.1375 6.06263 10.3037 6.01479 10.4474 5.92461C10.9768 5.62217 11.5044 5.31736 12.0302 5.01017C12.5561 4.70298 13.073 4.40084 13.581 4.10376C13.6255 4.07329 13.6782 4.05699 13.7321 4.05699C13.786 4.05699 13.8387 4.07329 13.8832 4.10376C14.3823 4.39698 14.8859 4.6813 15.3859 4.97363C15.6217 5.09674 15.8491 5.23518 16.0668 5.38807C16.496 5.71598 16.7864 6.19311 16.8805 6.72497C16.9068 6.86722 16.9194 7.01168 16.9179 7.15634C16.9197 7.52889 16.9209 7.89965 16.9215 8.26864ZM15.6639 7.76151C15.6741 7.51192 15.67 7.26195 15.6515 7.01285C15.6414 6.87662 15.5984 6.74487 15.5263 6.6289C15.4541 6.51294 15.3548 6.41622 15.237 6.34707C14.778 6.07434 14.3128 5.81231 13.8538 5.54493C13.8192 5.52038 13.7776 5.50763 13.7352 5.5086C13.6929 5.50956 13.6519 5.52418 13.6185 5.55028C13.3431 5.71695 13.0623 5.8747 12.7834 6.03602C12.254 6.34172 11.7219 6.64297 11.196 6.95402C10.8824 7.15008 10.5282 7.27201 10.1604 7.31053C9.78385 7.3453 9.40491 7.27819 9.06323 7.11623C8.7798 6.98254 8.51688 6.81142 8.24594 6.65545C7.59591 6.28171 6.94736 5.90708 6.3003 5.53156C6.27221 5.51152 6.23856 5.50075 6.20405 5.50075C6.16954 5.50075 6.13589 5.51152 6.10779 5.53156C5.67107 5.78736 5.23257 6.04226 4.79228 6.29181C4.63429 6.37294 4.50274 6.49746 4.41306 6.65076C4.32339 6.80405 4.27932 6.97976 4.28604 7.15723C4.28604 7.69199 4.28604 8.22407 4.28604 8.75349C4.28604 8.77666 4.28604 8.80072 4.28604 8.8239C4.28721 8.83744 4.29185 8.85045 4.29949 8.86169C4.30714 8.87293 4.31755 8.88201 4.32971 8.88807C4.42597 8.94243 4.52045 8.99858 4.6167 9.05295L5.67998 9.65277C6.07036 9.87381 6.45895 10.0984 6.8511 10.3159C7.04634 10.4187 7.22806 10.5453 7.3921 10.6929C7.59913 10.8857 7.76523 11.1181 7.88052 11.3765C8.00674 11.6539 8.07527 11.9541 8.08194 12.2588C8.08729 12.6349 8.08194 13.0111 8.08996 13.3872C8.09798 13.7633 8.08996 14.1617 8.10244 14.5458C8.10244 14.6234 8.08996 14.7018 8.09531 14.7784C8.10779 14.9433 8.10244 15.1073 8.10155 15.2722C8.09986 15.298 8.10614 15.3238 8.11952 15.3459C8.13291 15.3681 8.15277 15.3856 8.17642 15.3961C8.59234 15.6338 9.00826 15.8735 9.42419 16.1153C9.57918 16.2275 9.76486 16.2893 9.95614 16.2925C10.1474 16.2957 10.3351 16.2401 10.4937 16.1332C10.9393 15.8792 11.3912 15.6055 11.8422 15.3569C12.1372 15.1866 12.4572 15.0004 12.7335 14.8471C13.0472 14.6626 13.3413 14.4906 13.663 14.307C13.8413 14.2071 14.0302 14.0957 14.213 13.9923C14.5427 13.8141 14.8805 13.6073 15.2049 13.4175C15.3416 13.3443 15.4563 13.2358 15.537 13.1034C15.6177 12.971 15.6615 12.8194 15.6639 12.6644C15.6639 12.167 15.6639 11.9923 15.6639 11.4683C15.6639 11.1421 15.6639 10.495 15.6639 10.1635V8.79003C15.6639 8.65099 15.6639 8.5173 15.6639 8.3747C15.6648 8.16703 15.6639 7.96739 15.6639 7.76151Z" fill="white"/>
<path d="M12.7967 3.56366C12.803 3.62516 12.7602 3.65813 12.7076 3.68665L12.2852 3.93086C12.1256 4.01999 11.9652 4.11357 11.8065 4.20804C11.7682 4.23368 11.723 4.24736 11.6769 4.24736C11.6307 4.24736 11.5856 4.23368 11.5472 4.20804C11.2572 4.03811 10.9661 3.86996 10.6737 3.70359C10.5612 3.63131 10.4439 3.56669 10.3226 3.51018C10.1868 3.45301 10.0393 3.42947 9.8925 3.44158C9.7457 3.45368 9.604 3.50107 9.47945 3.5797C9.12295 3.78915 8.75842 3.99414 8.40013 4.20359C8.35992 4.23095 8.3124 4.24558 8.26377 4.24558C8.21513 4.24558 8.16762 4.23095 8.1274 4.20359C7.83596 4.03157 7.54184 3.86491 7.24862 3.69646C7.21867 3.67749 7.19289 3.65263 7.17286 3.62337C7.15444 3.59945 7.14593 3.56936 7.14908 3.53933C7.15223 3.5093 7.16681 3.48163 7.18979 3.46206C7.29231 3.38855 7.40049 3.32329 7.51332 3.26687C7.91974 3.03068 8.32972 2.79985 8.73436 2.56009C9.01161 2.38384 9.32029 2.26279 9.64345 2.20359C9.87252 2.16871 10.1057 2.17052 10.3342 2.20894C10.6786 2.28013 11.0064 2.41592 11.3003 2.60911C11.7647 2.88184 12.2335 3.14922 12.6996 3.41927C12.7531 3.45403 12.8003 3.48879 12.7967 3.56366Z" fill="white"/>
<path d="M3.02463 11.7311V10.8301C3.02364 10.8002 3.02603 10.7703 3.03176 10.7409C3.0339 10.7186 3.04183 10.6972 3.05477 10.6788C3.0677 10.6605 3.0852 10.6458 3.10553 10.6363C3.12586 10.6267 3.14833 10.6226 3.17072 10.6244C3.1931 10.6262 3.21463 10.6338 3.23319 10.6465C3.28667 10.6732 3.33747 10.7044 3.38916 10.7356L4.17882 11.191C4.2134 11.2111 4.24151 11.2407 4.25983 11.2762C4.27815 11.3117 4.28591 11.3518 4.28221 11.3916C4.28221 11.7989 4.28221 12.2062 4.28221 12.6126C4.27883 12.8448 4.36172 13.0699 4.51483 13.2445C4.59821 13.3328 4.6962 13.4061 4.80449 13.4611C5.16813 13.6705 5.53087 13.8818 5.8954 14.085C5.94013 14.1064 5.97735 14.1408 6.00216 14.1838C6.02697 14.2267 6.03822 14.2762 6.03444 14.3256C6.02909 14.6696 6.03444 15.0128 6.03444 15.3568C6.03444 15.4459 5.9872 15.5083 5.90966 15.511C5.87308 15.5114 5.83716 15.5012 5.80627 15.4816L4.4774 14.7124C4.33479 14.6304 4.19041 14.5511 4.05137 14.4638C3.63664 14.2081 3.32207 13.8181 3.16011 13.3586C3.06902 13.1011 3.02407 12.8296 3.02731 12.5564C3.02463 12.281 3.02463 12.0065 3.02463 11.7311Z" fill="white"/>
<path d="M15.1311 9.24425C15.1246 9.55132 15.0353 9.85094 14.8726 10.1115C14.7263 10.3708 14.526 10.5957 14.2853 10.771C14.1188 10.8976 13.9216 10.9776 13.714 11.0027C13.5924 11.0141 13.4705 10.9836 13.3687 10.9161C13.2668 10.8487 13.1912 10.7484 13.1543 10.632C13.0877 10.3932 13.097 10.1397 13.181 9.90646C13.2971 9.53311 13.5128 9.19847 13.8049 8.93855C13.9676 8.78243 14.1662 8.66886 14.3833 8.60789C14.4691 8.5772 14.561 8.56792 14.6511 8.58088C14.7413 8.59383 14.8269 8.62862 14.9005 8.68222C14.9741 8.73581 15.0336 8.80659 15.0736 8.88839C15.1136 8.97019 15.133 9.06053 15.1302 9.15156C15.1329 9.18275 15.1311 9.21395 15.1311 9.24425Z" fill="white"/>
<path d="M15.1307 11.9588C15.1274 12.2168 15.0613 12.47 14.9382 12.6968C14.7738 13.0356 14.521 13.3239 14.2065 13.531C14.0534 13.6359 13.8748 13.6975 13.6895 13.7092C13.5923 13.7174 13.4949 13.6972 13.4089 13.6509C13.323 13.6047 13.2524 13.5346 13.2056 13.449C13.1081 13.2647 13.0799 13.0516 13.1263 12.8483C13.1743 12.5771 13.2754 12.3181 13.424 12.0862C13.5725 11.8543 13.7654 11.6541 13.9917 11.4971C14.1095 11.4133 14.2424 11.3528 14.3829 11.3189C14.4688 11.2886 14.5607 11.2798 14.6506 11.2932C14.7406 11.3065 14.826 11.3416 14.8994 11.3955C14.9727 11.4493 15.0318 11.5202 15.0715 11.6021C15.1112 11.684 15.1303 11.7743 15.1272 11.8652C15.1334 11.8928 15.1307 11.9249 15.1307 11.9588Z" fill="white"/>
</svg>
