<svg width="36" height="36" viewBox="0 0 36 36" fill="none" xmlns="http://www.w3.org/2000/svg">
<g id="box">
<path id="Vector" d="M4.93506 10.5L18.0001 18M18.0001 18L31.0651 10.5M18.0001 18L18 33M31.5 23.9999V11.9999C31.4995 11.4738 31.3606 10.9571 31.0973 10.5016C30.834 10.0461 30.4556 9.6679 30 9.40485L19.5 3.40485C19.0439 3.14155 18.5266 3.00293 18 3.00293C17.4734 3.00293 16.9561 3.14155 16.5 3.40485L6 9.40485C5.54439 9.6679 5.16597 10.0461 4.90269 10.5016C4.63941 10.9571 4.50054 11.4738 4.5 11.9999V23.9999C4.50054 24.5259 4.63941 25.0426 4.90269 25.4981C5.16597 25.9536 5.54439 26.3318 6 26.5949L16.5 32.5949C16.9561 32.8582 17.4734 32.9968 18 32.9968C18.5266 32.9968 19.0439 32.8582 19.5 32.5949L30 26.5949C30.4556 26.3318 30.834 25.9536 31.0973 25.4981C31.3606 25.0426 31.4995 24.5259 31.5 23.9999Z" stroke="#212121" stroke-width="2" stroke-linecap="round" stroke-linejoin="round"/>
</g>
</svg>
