<svg width="28" height="28" viewBox="0 0 28 28" fill="none" xmlns="http://www.w3.org/2000/svg">
<g id="boxes">
<path id="Vector" d="M14 22.3331L9.236 25.1891C8.86272 25.4134 8.43546 25.5318 8 25.5318C7.56454 25.5318 7.13728 25.4134 6.764 25.1891L3.164 23.0291C2.80971 22.8162 2.51639 22.5155 2.31246 22.156C2.10854 21.7965 2.00091 21.3904 2 20.9771V17.0891C2.00091 16.6758 2.10854 16.2697 2.31246 15.9102C2.51639 15.5507 2.80971 15.25 3.164 15.0371L8 12.1331M14 22.3331V15.7331M14 22.3331L18.764 25.1891C19.1373 25.4134 19.5645 25.5318 20 25.5318C20.4355 25.5318 20.8627 25.4134 21.236 25.1891L24.836 23.0291C25.1903 22.8162 25.4836 22.5155 25.6875 22.156C25.8915 21.7965 25.9991 21.3904 26 20.9771V17.0891C25.9991 16.6758 25.8915 16.2697 25.6875 15.9102C25.4836 15.5507 25.1903 15.25 24.836 15.0371L20 12.1331M14 15.7331L8 12.1331M14 15.7331L7.99972 19.333M14 15.7331L20 12.1331M14 15.7331L20 19.3331M14 15.7331L13.9997 9.13299M8 12.1331V6.88922C8.00091 6.4759 8.10854 6.06983 8.31247 5.71032C8.51639 5.35082 8.80971 5.05007 9.164 4.83722L12.764 2.67722C13.1373 2.45295 13.5645 2.33447 14 2.33447C14.4355 2.33447 14.8627 2.45295 15.236 2.67722L18.836 4.83722C19.1903 5.05007 19.4836 5.35082 19.6875 5.71032C19.8915 6.06983 19.9991 6.4759 20 6.88922V12.1331M7.99972 19.333L2.31172 15.913M7.99972 19.333L8 25.5371M20 19.3331L25.688 15.913M20 19.3331V25.5371M13.9997 9.13299L8.31172 5.71299M13.9997 9.13299L19.688 5.71299" stroke="#2851E3" stroke-width="2" stroke-linecap="round" stroke-linejoin="round"/>
</g>
</svg>
