<svg width="28" height="27" viewBox="0 0 28 27" fill="none" xmlns="http://www.w3.org/2000/svg">
<g id="lock" clip-path="url(#clip0_5537_5334)">
<path id="Vector" d="M20.6888 10.2722L19.6963 10.1503L19.94 8.1652C20.2764 5.42577 18.326 2.92948 15.5866 2.59312C12.8472 2.25676 10.3509 4.20708 10.0145 6.9465L9.77079 8.93159L8.77825 8.80973C7.68645 8.67567 6.68347 9.45928 6.54942 10.5511L5.33072 20.4765C5.19667 21.5683 5.98028 22.5713 7.07208 22.7054L18.9826 24.1678C20.0744 24.3019 21.0774 23.5183 21.2115 22.4264L22.4302 12.501C22.5642 11.4092 21.7806 10.4062 20.6888 10.2722ZM13.6367 18.4739C12.5449 18.3398 11.7613 17.3368 11.8953 16.245C12.0294 15.1532 13.0324 14.3696 14.1242 14.5037C15.216 14.6377 15.9996 15.6407 15.8655 16.7325C15.7315 17.8243 14.7285 18.6079 13.6367 18.4739ZM17.8104 9.91874L11.6566 9.16315L11.9004 7.17805C12.1088 5.4808 13.6578 4.27056 15.3551 4.47896C17.0523 4.68735 18.2626 6.23639 18.0542 7.93364L17.8104 9.91874Z" fill="white"/>
</g>
<defs>
<clipPath id="clip0_5537_5334">
<rect width="24" height="24" fill="white" transform="translate(3.79785 0.138184) rotate(7)"/>
</clipPath>
</defs>
</svg>
