<svg width="20" height="20" viewBox="0 0 20 20" fill="none" xmlns="http://www.w3.org/2000/svg">
<mask id="mask0_351_9243" style="mask-type:luminance" maskUnits="userSpaceOnUse" x="0" y="0" width="20" height="20">
<path d="M20 0H0V20H20V0Z" fill="white"/>
</mask>
<g mask="url(#mask0_351_9243)">
<path d="M10 20C11.9778 20 13.9112 19.4135 15.5557 18.3147C17.2002 17.2159 18.4819 15.6541 19.2388 13.8268C19.9957 11.9996 20.1937 9.98891 19.8079 8.0491C19.422 6.10929 18.4696 4.32746 17.0711 2.92894C15.6725 1.53041 13.8907 0.578004 11.9509 0.192152C10.0111 -0.193701 8.00043 0.00433284 6.17317 0.761209C4.3459 1.51809 2.78412 2.79981 1.6853 4.4443C0.58649 6.08879 0 8.02219 0 10C0 12.6522 1.05357 15.1957 2.92893 17.0711C4.8043 18.9464 7.34784 20 10 20Z" fill="url(#paint0_linear_351_9243)"/>
<path d="M5.67272 6.4811C5.79773 6.2469 5.97879 6.0473 6.19972 5.9001L9.87472 3.3291L6.09972 9.5631C6.09972 9.5631 5.76972 9.0031 5.63872 8.7221C5.48131 8.36851 5.40281 7.98486 5.40869 7.59785C5.41456 7.21085 5.50466 6.82976 5.67272 6.4811ZM4.15672 10.7811C4.19828 11.3771 4.36629 11.9575 4.64959 12.4836C4.93288 13.0096 5.32495 13.4693 5.79972 13.8321L9.87072 16.6671C9.87072 16.6671 7.31572 12.9921 5.17072 9.3331C4.95517 8.94459 4.81249 8.51994 4.74972 8.0801C4.71679 7.88381 4.71679 7.6834 4.74972 7.4871C4.70072 7.5871 4.58472 7.8001 4.58472 7.8001C4.37009 8.249 4.22026 8.72609 4.13972 9.2171C4.08762 9.73813 4.09332 10.2633 4.15672 10.7831V10.7811ZM14.5397 11.2751C14.4077 10.9951 14.0787 10.4341 14.0787 10.4341L10.2997 16.6671L13.9997 14.1121C14.2162 13.9615 14.3963 13.7643 14.5267 13.5351C14.6916 13.1821 14.7781 12.7976 14.7804 12.408C14.7826 12.0184 14.7005 11.633 14.5397 11.2781V11.2751ZM16.0227 9.2311C15.9802 8.63502 15.8113 8.05482 15.5271 7.5291C15.243 7.00338 14.8501 6.5442 14.3747 6.1821L10.3207 3.3311C10.3207 3.3311 12.8757 7.0061 15.0207 10.6651C15.239 11.0527 15.3844 11.4771 15.4497 11.9171C15.4827 12.1134 15.4827 12.3138 15.4497 12.5101C15.4987 12.4101 15.6147 12.1971 15.6147 12.1971C15.8269 11.7532 15.9766 11.2821 16.0597 10.7971C16.097 10.2761 16.0846 9.75275 16.0227 9.2341V9.2311Z" fill="white"/>
</g>
<defs>
<linearGradient id="paint0_linear_351_9243" x1="0" y1="0" x2="20" y2="20" gradientUnits="userSpaceOnUse">
<stop offset="0.142" stop-color="#8098FA"/>
<stop offset="0.858" stop-color="#4DB5F2"/>
</linearGradient>
</defs>
</svg>
