<svg width="26" height="26" viewBox="0 0 26 26" fill="none" xmlns="http://www.w3.org/2000/svg">
<g clip-path="url(#clip0_1793_7968)">
<path d="M17.1668 17.1667L13.0002 13L8.8335 17.1667" stroke="#2851E3" stroke-width="2" stroke-linecap="round" stroke-linejoin="round"/>
<path d="M13 13V22.375" stroke="#2851E3" stroke-width="2" stroke-linecap="round" stroke-linejoin="round"/>
<path d="M21.7396 19.6561C22.7556 19.1022 23.5582 18.2258 24.0207 17.1651C24.4833 16.1044 24.5794 14.9199 24.294 13.7985C24.0086 12.6771 23.3578 11.6827 22.4445 10.9722C21.5311 10.2617 20.4072 9.87565 19.25 9.87488H17.9375C17.6222 8.65534 17.0346 7.52315 16.2187 6.56342C15.4029 5.60369 14.3801 4.84139 13.2272 4.33385C12.0743 3.8263 10.8214 3.58671 9.56264 3.63309C8.30386 3.67947 7.07196 4.01061 5.95958 4.60162C4.84719 5.19262 3.88326 6.02811 3.14025 7.04528C2.39724 8.06245 1.89449 9.23482 1.66979 10.4743C1.44509 11.7137 1.5043 12.9879 1.84295 14.2012C2.1816 15.4145 2.7909 16.5352 3.62502 17.479" stroke="#2851E3" stroke-width="2" stroke-linecap="round" stroke-linejoin="round"/>
<path d="M17.1668 17.1667L13.0002 13L8.8335 17.1667" stroke="#2851E3" stroke-width="2" stroke-linecap="round" stroke-linejoin="round"/>
</g>
<defs>
<clipPath id="clip0_1793_7968">
<rect width="25" height="25" fill="white" transform="translate(0.5 0.5)"/>
</clipPath>
</defs>
</svg>
