<svg width="25" height="24" viewBox="0 0 25 24" fill="none" xmlns="http://www.w3.org/2000/svg">
<g id="li:globe">
<path id="Vector (Stroke)" fill-rule="evenodd" clip-rule="evenodd" d="M12.6499 3C7.67934 3 3.6499 7.02944 3.6499 12C3.6499 16.9706 7.67934 21 12.6499 21C17.6205 21 21.6499 16.9706 21.6499 12C21.6499 7.02944 17.6205 3 12.6499 3ZM1.6499 12C1.6499 5.92487 6.57477 1 12.6499 1C18.725 1 23.6499 5.92487 23.6499 12C23.6499 18.0751 18.725 23 12.6499 23C6.57477 23 1.6499 18.0751 1.6499 12Z" fill="#FD71AF"/>
<path id="Vector (Stroke)_2" fill-rule="evenodd" clip-rule="evenodd" d="M1.6499 12C1.6499 11.4477 2.09762 11 2.6499 11H22.6499C23.2022 11 23.6499 11.4477 23.6499 12C23.6499 12.5523 23.2022 13 22.6499 13H2.6499C2.09762 13 1.6499 12.5523 1.6499 12Z" fill="#FD71AF"/>
<path id="Vector (Stroke)_3" fill-rule="evenodd" clip-rule="evenodd" d="M9.65013 12.0001C9.71867 15.0749 10.7762 18.0353 12.6499 20.4493C14.5236 18.0353 15.5811 15.0749 15.6497 12.0001C15.5811 8.92527 14.5236 5.96495 12.6499 3.5509C10.7762 5.96495 9.71867 8.92527 9.65013 12.0001ZM12.6499 2.00011L11.9116 1.32568C9.24679 4.24301 7.73242 8.02896 7.65012 11.9793C7.64983 11.9932 7.64983 12.0071 7.65012 12.0209C7.73242 15.9713 9.24679 19.7572 11.9116 22.6745C12.101 22.8819 12.369 23.0001 12.6499 23.0001C12.9308 23.0001 13.1988 22.8819 13.3882 22.6745C16.053 19.7572 17.5674 15.9713 17.6497 12.0209C17.65 12.0071 17.65 11.9932 17.6497 11.9793C17.5674 8.02896 16.053 4.24301 13.3882 1.32568L12.6499 2.00011Z" fill="#FD71AF"/>
</g>
</svg>
