<svg width="265" height="242" viewBox="0 0 265 242" fill="none" xmlns="http://www.w3.org/2000/svg">
<path opacity="0.3" fill-rule="evenodd" clip-rule="evenodd" d="M21.3192 178.415L0 190.724L21.3192 203.032L29.9239 203.009L38.3363 190.724L21.3192 178.415Z" fill="#2639ED"/>
<path opacity="0.3" fill-rule="evenodd" clip-rule="evenodd" d="M44.735 196.581L23.4155 208.89L44.735 221.198L61.9445 221.176L70.3564 208.89L44.735 196.581Z" fill="#2639ED"/>
<path opacity="0.3" fill-rule="evenodd" clip-rule="evenodd" d="M74.6443 216.349L53.3252 228.658L74.6443 240.966L96.1561 240.944L104.568 228.658L74.6443 216.349Z" fill="#2639ED"/>
<path fill-rule="evenodd" clip-rule="evenodd" d="M18.8774 98.262V104.625L52.3687 123.961L18.8774 143.298V149.661C18.8774 149.661 118.55 207.207 151.35 226.144C153.479 227.374 156.103 227.374 158.234 226.144L158.244 226.138V226.138C158.244 226.138 258.473 168.27 260.603 167.041C262.733 165.811 264.045 163.539 264.045 161.079C264.045 151.385 264.045 137.979 264.045 129.552C264.045 124.633 261.421 120.088 257.161 117.629C228.643 101.163 121.247 39.1587 121.247 39.1587L18.8774 98.262Z" fill="white"/>
<path fill-rule="evenodd" clip-rule="evenodd" d="M18.8774 98.262V104.625L52.3687 123.961L18.8774 143.298V149.661C18.8774 149.661 118.55 207.207 151.35 226.144C153.479 227.374 156.103 227.374 158.234 226.144L158.244 226.138C158.244 226.138 258.473 168.27 260.603 167.041C262.733 165.811 264.045 163.539 264.045 161.079C264.045 151.385 264.045 137.979 264.045 129.552C264.045 124.633 261.421 120.088 257.161 117.629C228.643 101.163 121.247 39.1587 121.247 39.1587L18.8774 98.262Z" stroke="#262725" stroke-width="0.860472" stroke-linecap="round" stroke-linejoin="round"/>
<path fill-rule="evenodd" clip-rule="evenodd" d="M18.8774 104.625L149.691 180.151C152.886 181.995 154.854 185.404 154.854 189.093C154.854 196.362 154.854 208.574 154.854 215.842C154.854 217.072 154.198 218.208 153.133 218.823C152.068 219.438 150.756 219.438 149.691 218.823L18.8774 143.298V149.661C18.8774 149.661 118.55 207.207 151.35 226.144C153.479 227.374 156.103 227.374 158.234 226.144C160.363 224.914 161.675 222.642 161.675 220.183C161.675 210.489 161.675 197.082 161.675 188.655C161.675 183.736 159.051 179.191 154.792 176.732C126.273 160.266 18.8774 98.262 18.8774 98.262V104.625Z" fill="#2639ED"/>
<path fill-rule="evenodd" clip-rule="evenodd" d="M18.8774 104.625L149.691 180.151C152.886 181.995 154.854 185.404 154.854 189.093C154.854 196.362 154.854 208.574 154.854 215.842C154.854 217.072 154.198 218.208 153.133 218.823C152.068 219.438 150.756 219.438 149.691 218.823L18.8774 143.298V149.661C18.8774 149.661 118.55 207.207 151.35 226.144C153.479 227.374 156.103 227.374 158.234 226.144C160.363 224.914 161.675 222.642 161.675 220.183C161.675 210.489 161.675 197.082 161.675 188.655C161.675 183.736 159.051 179.191 154.792 176.732C126.273 160.266 18.8774 98.262 18.8774 98.262V104.625Z" stroke="#262725" stroke-width="0.860472" stroke-linecap="round" stroke-linejoin="round"/>
<path fill-rule="evenodd" clip-rule="evenodd" d="M38.9949 116.24C38.9949 116.24 30.0013 121.433 24.0408 124.874C22.9755 125.489 22.3198 126.625 22.3198 127.855C22.3198 129.084 22.9755 130.221 24.0408 130.836C44.6672 142.744 120.872 186.741 138.02 196.641C140.149 197.871 142.773 197.871 144.904 196.641C148.872 194.35 154.855 190.896 154.855 190.896C154.855 190.896 154.849 190.116 154.842 189.049C154.817 185.365 152.841 181.969 149.651 180.127C127.196 167.163 38.9949 116.24 38.9949 116.24Z" fill="#FFA8A8"/>
<path fill-rule="evenodd" clip-rule="evenodd" d="M106.374 79.2412C126.066 67.8718 158.042 67.8718 177.734 79.2412C197.427 90.6106 197.427 109.072 177.734 120.441C158.042 131.81 126.066 131.81 106.374 120.441C86.6813 109.072 86.6813 90.6106 106.374 79.2412Z" fill="white"/>
<path fill-rule="evenodd" clip-rule="evenodd" d="M106.374 79.2412C126.066 67.8718 158.042 67.8718 177.734 79.2412C197.427 90.6106 197.427 109.072 177.734 120.441C158.042 131.81 126.066 131.81 106.374 120.441C86.6813 109.072 86.6813 90.6106 106.374 79.2412Z" stroke="#262725" stroke-width="0.860472" stroke-linecap="round" stroke-linejoin="round"/>
<path fill-rule="evenodd" clip-rule="evenodd" d="M208.564 86.8155C220.331 80.0221 239.437 80.0221 251.203 86.8155C262.969 93.6085 262.969 104.639 251.203 111.433C239.437 118.226 220.331 118.226 208.564 111.433C196.798 104.639 196.798 93.6085 208.564 86.8155Z" fill="white"/>
<path fill-rule="evenodd" clip-rule="evenodd" d="M208.564 86.8155C220.331 80.0221 239.437 80.0221 251.203 86.8155C262.969 93.6085 262.969 104.639 251.203 111.433C239.437 118.226 220.331 118.226 208.564 111.433C196.798 104.639 196.798 93.6085 208.564 86.8155Z" stroke="#262725" stroke-width="0.860472" stroke-linecap="round" stroke-linejoin="round"/>
<path fill-rule="evenodd" clip-rule="evenodd" d="M217.254 86.6296C224.225 82.6052 235.543 82.6052 242.514 86.6296C249.484 90.6541 249.484 97.1885 242.514 101.213C235.543 105.237 224.225 105.237 217.254 101.213C210.284 97.1885 210.284 90.6541 217.254 86.6296Z" fill="white"/>
<path fill-rule="evenodd" clip-rule="evenodd" d="M217.254 86.6296C224.225 82.6052 235.543 82.6052 242.514 86.6296C249.484 90.6541 249.484 97.1885 242.514 101.213C235.543 105.237 224.225 105.237 217.254 101.213C210.284 97.1885 210.284 90.6541 217.254 86.6296Z" stroke="#262725" stroke-width="0.860472" stroke-linecap="round" stroke-linejoin="round"/>
<path fill-rule="evenodd" clip-rule="evenodd" d="M224.239 86.5292C227.354 84.7308 232.413 84.7308 235.528 86.5292C238.643 88.328 238.643 91.2485 235.528 93.0469C232.413 94.8457 227.354 94.8457 224.239 93.0469C221.124 91.2485 221.124 88.328 224.239 86.5292Z" fill="white"/>
<path fill-rule="evenodd" clip-rule="evenodd" d="M224.239 86.5292C227.354 84.7308 232.413 84.7308 235.528 86.5292C238.643 88.328 238.643 91.2485 235.528 93.0469C232.413 94.8457 227.354 94.8457 224.239 93.0469C221.124 91.2485 221.124 88.328 224.239 86.5292Z" stroke="#262725" stroke-width="0.860472" stroke-linecap="round" stroke-linejoin="round"/>
<path fill-rule="evenodd" clip-rule="evenodd" d="M192.504 111.914H192.485C192.85 119.637 187.933 127.427 177.734 133.316C158.042 144.685 126.066 144.685 106.374 133.316C96.1753 127.427 91.2582 119.637 91.6234 111.914H91.6045V99.8416C91.6045 107.299 96.5277 114.757 106.374 120.441C126.066 131.811 158.042 131.811 177.734 120.441C187.58 114.757 192.504 107.299 192.504 99.8416V111.914Z" fill="#2639ED"/>
<path fill-rule="evenodd" clip-rule="evenodd" d="M192.504 111.914H192.485C192.85 119.637 187.933 127.427 177.734 133.316C158.042 144.685 126.066 144.685 106.374 133.316C96.1753 127.427 91.2582 119.637 91.6234 111.914H91.6045V99.8416C91.6045 107.299 96.5277 114.757 106.374 120.441C126.066 131.811 158.042 131.811 177.734 120.441C187.58 114.757 192.504 107.299 192.504 99.8416V111.914Z" stroke="#262725" stroke-width="0.860472" stroke-linecap="round" stroke-linejoin="round"/>
<path fill-rule="evenodd" clip-rule="evenodd" d="M260.028 106.338H260.017C260.235 110.952 257.297 115.607 251.203 119.125C239.437 125.919 220.331 125.919 208.564 119.125C202.471 115.607 199.533 110.952 199.751 106.338H199.74V99.124C199.74 103.58 202.681 108.036 208.564 111.433C220.331 118.226 239.437 118.226 251.203 111.433C257.086 108.036 260.028 103.58 260.028 99.124V106.338Z" fill="#2639ED"/>
<path fill-rule="evenodd" clip-rule="evenodd" d="M260.028 106.338H260.017C260.235 110.952 257.297 115.607 251.203 119.125C239.437 125.919 220.331 125.919 208.564 119.125C202.471 115.607 199.533 110.952 199.751 106.338H199.74V99.124C199.74 103.58 202.681 108.036 208.564 111.433C220.331 118.226 239.437 118.226 251.203 111.433C257.086 108.036 260.028 103.58 260.028 99.124V106.338Z" stroke="#262725" stroke-width="0.860472" stroke-linecap="round" stroke-linejoin="round"/>
<path fill-rule="evenodd" clip-rule="evenodd" d="M247.742 98.1947H247.735C247.864 100.928 246.124 103.686 242.514 105.77C235.543 109.794 224.225 109.794 217.254 105.77C213.644 103.686 211.904 100.928 212.033 98.1947H212.026V93.9211C212.026 96.5611 213.769 99.2006 217.254 101.213C224.225 105.237 235.543 105.237 242.514 101.213C245.999 99.2006 247.742 96.5611 247.742 93.9211V98.1947Z" fill="#FFA8A8"/>
<path fill-rule="evenodd" clip-rule="evenodd" d="M247.742 98.1947H247.735C247.864 100.928 246.124 103.686 242.514 105.77C235.543 109.794 224.225 109.794 217.254 105.77C213.644 103.686 211.904 100.928 212.033 98.1947H212.026V93.9211C212.026 96.5611 213.769 99.2006 217.254 101.213C224.225 105.237 235.543 105.237 242.514 101.213C245.999 99.2006 247.742 96.5611 247.742 93.9211V98.1947Z" stroke="#262725" stroke-width="0.860472" stroke-linecap="round" stroke-linejoin="round"/>
<path fill-rule="evenodd" clip-rule="evenodd" d="M237.865 91.6979H237.862C237.919 92.9198 237.141 94.152 235.528 95.0834C232.413 96.8822 227.354 96.8822 224.239 95.0834C222.626 94.152 221.848 92.9198 221.906 91.6979H221.903V89.7881C221.903 90.9678 222.682 92.1475 224.239 93.0467C227.354 94.8455 232.413 94.8455 235.528 93.0467C237.086 92.1475 237.865 90.9678 237.865 89.7881V91.6979Z" fill="#2639ED"/>
<path fill-rule="evenodd" clip-rule="evenodd" d="M237.865 91.6979H237.862C237.919 92.9198 237.141 94.152 235.528 95.0834C232.413 96.8822 227.354 96.8822 224.239 95.0834C222.626 94.152 221.848 92.9198 221.906 91.6979H221.903V89.7881C221.903 90.9678 222.682 92.1475 224.239 93.0467C227.354 94.8455 232.413 94.8455 235.528 93.0467C237.086 92.1475 237.865 90.9678 237.865 89.7881V91.6979Z" stroke="#262725" stroke-width="0.860472" stroke-linecap="round" stroke-linejoin="round"/>
<path fill-rule="evenodd" clip-rule="evenodd" d="M100.584 13.1827L117.947 3.51958C125.029 -0.493228 134.85 0.155139 145.697 6.41766C167.266 18.8708 184.777 48.8363 184.777 73.2927C184.777 85.2713 180.576 93.7212 173.753 97.7624L155.669 107.834C162.737 103.896 167.111 95.347 167.111 83.124C167.111 58.6677 149.6 28.7017 128.031 16.249C117.34 10.076 107.645 9.35789 100.584 13.1827Z" fill="white"/>
<path fill-rule="evenodd" clip-rule="evenodd" d="M100.584 13.1827L117.947 3.51958C125.029 -0.493228 134.85 0.155139 145.697 6.41766C167.266 18.8708 184.777 48.8364 184.777 73.2927C184.777 85.2713 180.576 93.7212 173.753 97.7624L155.669 107.834C162.737 103.896 167.111 95.347 167.111 83.124C167.111 58.6677 149.6 28.7017 128.031 16.249C117.34 10.076 107.645 9.35789 100.584 13.1827Z" stroke="#262725" stroke-width="0.860472" stroke-linecap="round" stroke-linejoin="round"/>
<path fill-rule="evenodd" clip-rule="evenodd" d="M128.032 16.2488C149.601 28.7016 167.112 58.6676 167.112 83.1239C167.112 107.58 149.601 117.326 128.032 104.873C106.463 92.4196 88.9512 62.4541 88.9512 37.9977C88.9512 13.5414 106.463 3.79609 128.032 16.2488ZM128.032 33.7582C141.078 41.2903 151.67 59.4153 151.67 74.2085C151.67 89.0014 141.078 94.896 128.032 87.3634C114.985 79.8313 104.393 61.7059 104.393 46.9131C104.393 32.1203 114.985 26.2256 128.032 33.7582Z" fill="#FFA8A8"/>
<path fill-rule="evenodd" clip-rule="evenodd" d="M128.032 16.2488C149.601 28.7016 167.112 58.6676 167.112 83.1239C167.112 107.58 149.601 117.326 128.032 104.873C106.463 92.4196 88.9512 62.4541 88.9512 37.9977C88.9512 13.5414 106.463 3.79609 128.032 16.2488ZM128.032 33.7582C141.078 41.2903 151.67 59.4153 151.67 74.2085C151.67 89.0014 141.078 94.896 128.032 87.3634C114.985 79.8313 104.393 61.7059 104.393 46.9131C104.393 32.1203 114.985 26.2256 128.032 33.7582Z" stroke="#262725" stroke-width="0.860472" stroke-linecap="round" stroke-linejoin="round"/>
<path fill-rule="evenodd" clip-rule="evenodd" d="M150.783 80.9889C147.98 90.6232 138.849 93.6095 128.032 87.3637C114.985 79.8316 104.393 61.7062 104.393 46.9134C104.393 34.8186 111.473 28.6722 121.187 30.9495C120.609 32.9359 120.3 35.2028 120.3 37.7296C120.3 52.5224 130.892 70.6474 143.938 78.1799C146.318 79.5537 148.616 80.4808 150.783 80.9889Z" fill="white"/>
<path fill-rule="evenodd" clip-rule="evenodd" d="M150.783 80.9889C147.98 90.6232 138.849 93.6095 128.032 87.3637C114.985 79.8316 104.393 61.7062 104.393 46.9134C104.393 34.8186 111.473 28.6722 121.187 30.9495C120.609 32.9359 120.3 35.2028 120.3 37.7296C120.3 52.5224 130.892 70.6474 143.938 78.1799C146.318 79.5537 148.616 80.4808 150.783 80.9889Z" stroke="#262725" stroke-width="0.860472" stroke-linecap="round" stroke-linejoin="round"/>
<path fill-rule="evenodd" clip-rule="evenodd" d="M29.925 152.601L8.60596 164.909V190.701L29.925 203.009L51.2445 190.701V164.909L29.925 152.601Z" fill="#2639ED"/>
<path fill-rule="evenodd" clip-rule="evenodd" d="M29.925 152.601L8.60596 164.909V190.701L29.925 203.009L51.2445 190.701V164.909L29.925 152.601Z" stroke="#262725" stroke-width="0.860472" stroke-linecap="round" stroke-linejoin="round"/>
<path fill-rule="evenodd" clip-rule="evenodd" d="M51.2433 164.909L29.9238 177.218V203.009L51.2433 190.701V164.909Z" fill="white"/>
<path fill-rule="evenodd" clip-rule="evenodd" d="M51.2433 164.909L29.9238 177.218V203.009L51.2433 190.701V164.909Z" stroke="#262725" stroke-width="0.860472" stroke-linecap="round" stroke-linejoin="round"/>
<path fill-rule="evenodd" clip-rule="evenodd" d="M29.925 152.601L8.60596 164.909L29.925 177.218L51.2445 164.909L29.925 152.601Z" fill="white"/>
<path fill-rule="evenodd" clip-rule="evenodd" d="M29.925 152.601L8.60596 164.909L29.925 177.218L51.2445 164.909L29.925 152.601Z" stroke="#262725" stroke-width="0.860472" stroke-linecap="round" stroke-linejoin="round"/>
<path fill-rule="evenodd" clip-rule="evenodd" d="M61.6037 146.619L40.2842 158.928V208.99L61.6037 221.299L82.9232 208.99V158.928L61.6037 146.619Z" fill="#2639ED"/>
<path fill-rule="evenodd" clip-rule="evenodd" d="M61.6037 146.619L40.2842 158.928V208.99L61.6037 221.299L82.9232 208.99V158.928L61.6037 146.619Z" stroke="#262725" stroke-width="0.860472" stroke-linecap="round" stroke-linejoin="round"/>
<path fill-rule="evenodd" clip-rule="evenodd" d="M82.9235 158.928L61.604 171.237V221.299L82.9235 208.99V158.928Z" fill="white"/>
<path fill-rule="evenodd" clip-rule="evenodd" d="M82.9235 158.928L61.604 171.237V221.299L82.9235 208.99V158.928Z" stroke="#262725" stroke-width="0.860472" stroke-linecap="round" stroke-linejoin="round"/>
<path fill-rule="evenodd" clip-rule="evenodd" d="M61.6037 146.619L40.2842 158.928L61.6037 171.237L82.9232 158.928L61.6037 146.619Z" fill="white"/>
<path fill-rule="evenodd" clip-rule="evenodd" d="M61.6037 146.619L40.2842 158.928L61.6037 171.237L82.9232 158.928L61.6037 146.619Z" stroke="#262725" stroke-width="0.860472" stroke-linecap="round" stroke-linejoin="round"/>
<path fill-rule="evenodd" clip-rule="evenodd" d="M95.7258 131.312L74.4067 143.62V228.691L95.7258 241L117.045 228.691V143.62L95.7258 131.312Z" fill="#2639ED"/>
<path fill-rule="evenodd" clip-rule="evenodd" d="M95.7258 131.312L74.4067 143.62V228.691L95.7258 241L117.045 228.691V143.62L95.7258 131.312Z" stroke="#262725" stroke-width="0.860472" stroke-linecap="round" stroke-linejoin="round"/>
<path fill-rule="evenodd" clip-rule="evenodd" d="M117.045 143.62L95.7256 155.929V241L117.045 228.691V143.62Z" fill="white"/>
<path fill-rule="evenodd" clip-rule="evenodd" d="M117.045 143.62L95.7256 155.929V241L117.045 228.691V143.62Z" stroke="#262725" stroke-width="0.860472" stroke-linecap="round" stroke-linejoin="round"/>
<path fill-rule="evenodd" clip-rule="evenodd" d="M95.7258 131.312L74.4067 143.62L95.7258 155.929L117.045 143.62L95.7258 131.312Z" fill="white"/>
<path fill-rule="evenodd" clip-rule="evenodd" d="M95.7258 131.312L74.4067 143.62L95.7258 155.929L117.045 143.62L95.7258 131.312Z" stroke="#262725" stroke-width="0.860472" stroke-linecap="round" stroke-linejoin="round"/>
</svg>
