<svg width="212" height="242" viewBox="0 0 212 242" fill="none" xmlns="http://www.w3.org/2000/svg">
<g id="Group 1261152725">
<path id="Fill-2" opacity="0.3" fill-rule="evenodd" clip-rule="evenodd" d="M27.6545 147.039C64.5271 125.751 124.399 125.751 161.271 147.039C198.144 168.328 198.144 202.894 161.271 224.183C124.399 245.471 64.5271 245.471 27.6545 224.183C-9.21816 202.894 -9.21816 168.328 27.6545 147.039Z" fill="#2639ED"/>
<path id="Fill-3" fill-rule="evenodd" clip-rule="evenodd" d="M49.864 118.454C86.7366 97.1653 146.608 97.1653 183.481 118.454C220.353 139.742 220.353 174.309 183.481 195.597C146.608 216.886 86.7366 216.886 49.864 195.597C12.9913 174.309 12.9913 139.742 49.864 118.454Z" fill="white"/>
<path id="Stroke-4" fill-rule="evenodd" clip-rule="evenodd" d="M49.864 118.454C86.7366 97.1653 146.608 97.1653 183.481 118.454C220.353 139.742 220.353 174.309 183.481 195.597C146.608 216.886 86.7366 216.886 49.864 195.597C12.9913 174.309 12.9913 139.742 49.864 118.454Z" stroke="#262725" stroke-width="0.88838" stroke-linecap="round" stroke-linejoin="round"/>
<path id="Fill-5" fill-rule="evenodd" clip-rule="evenodd" d="M72.6522 112.2C96.9476 98.1732 136.397 98.1732 160.692 112.2C184.988 126.227 184.988 149.003 160.692 163.03C136.397 177.057 96.9476 177.057 72.6522 163.03C48.3568 149.003 48.3568 126.227 72.6522 112.2Z" fill="white"/>
<path id="Stroke-6" fill-rule="evenodd" clip-rule="evenodd" d="M72.6522 112.2C96.9476 98.1732 136.397 98.1732 160.692 112.2C184.988 126.227 184.988 149.003 160.692 163.03C136.397 177.057 96.9476 177.057 72.6522 163.03C48.3568 149.003 48.3568 126.227 72.6522 112.2Z" stroke="#262725" stroke-width="0.88838" stroke-linecap="round" stroke-linejoin="round"/>
<path id="Fill-7" fill-rule="evenodd" clip-rule="evenodd" d="M103.147 129.806C110.612 125.497 122.733 125.497 130.198 129.806C137.662 134.116 137.662 141.114 130.198 145.423C122.733 149.733 110.612 149.733 103.147 145.423C95.6827 141.114 95.6827 134.116 103.147 129.806Z" fill="#2639ED"/>
<path id="Stroke-8" fill-rule="evenodd" clip-rule="evenodd" d="M103.147 129.806C110.612 125.497 122.733 125.497 130.198 129.806C137.662 134.116 137.662 141.114 130.198 145.423C122.733 149.733 110.612 149.733 103.147 145.423C95.6827 141.114 95.6827 134.116 103.147 129.806Z" stroke="#262725" stroke-width="0.88838" stroke-linecap="round" stroke-linejoin="round"/>
<path id="Fill-9" fill-rule="evenodd" clip-rule="evenodd" d="M99.1553 142.055C100.083 140.832 101.414 139.686 103.147 138.685C110.612 134.376 122.733 134.376 130.197 138.685C131.931 139.686 133.262 140.832 134.189 142.055C133.262 143.277 131.931 144.423 130.197 145.423C122.733 149.733 110.612 149.733 103.147 145.423C101.414 144.423 100.083 143.277 99.1553 142.055Z" fill="#2639ED"/>
<path id="Stroke-10" fill-rule="evenodd" clip-rule="evenodd" d="M99.1553 142.055C100.083 140.832 101.414 139.686 103.147 138.685C110.612 134.376 122.733 134.376 130.197 138.685C131.931 139.686 133.262 140.832 134.189 142.055C133.262 143.277 131.931 144.423 130.197 145.423C122.733 149.733 110.612 149.733 103.147 145.423C101.414 144.423 100.083 143.277 99.1553 142.055Z" stroke="white" stroke-width="0.88838" stroke-linecap="round" stroke-linejoin="round"/>
<path id="Fill-11" fill-rule="evenodd" clip-rule="evenodd" d="M211.135 184.961H211.1C211.783 199.421 202.577 214.009 183.481 225.034C146.608 246.322 86.7365 246.322 49.8639 225.034C30.7677 214.009 21.5614 199.421 22.245 184.961H22.2095V157.026C22.2095 170.989 31.4277 184.953 49.8639 195.597C86.7365 216.886 146.608 216.886 183.481 195.597C201.917 184.953 211.135 170.989 211.135 157.026V184.961Z" fill="#2639ED"/>
<path id="Stroke-12" fill-rule="evenodd" clip-rule="evenodd" d="M211.135 184.961H211.1C211.783 199.421 202.577 214.009 183.481 225.034C146.608 246.322 86.7365 246.322 49.8639 225.034C30.7677 214.009 21.5614 199.421 22.245 184.961H22.2095V157.026C22.2095 170.989 31.4277 184.953 49.8639 195.597C86.7365 216.886 146.608 216.886 183.481 195.597C201.917 184.953 211.135 170.989 211.135 157.026V184.961Z" stroke="#262725" stroke-width="0.88838" stroke-linecap="round" stroke-linejoin="round"/>
<path id="Fill-13" fill-rule="evenodd" clip-rule="evenodd" d="M178.914 152.51H178.89C179.341 162.037 173.275 171.649 160.692 178.914C136.397 192.94 96.9476 192.94 72.6522 178.914C60.0697 171.649 54.0038 162.037 54.4542 152.51H54.4307V137.615C54.4307 146.815 60.5045 156.016 72.6522 163.03C96.9476 177.057 136.397 177.057 160.692 163.03C172.84 156.016 178.914 146.815 178.914 137.615V152.51Z" fill="#2639ED"/>
<path id="Stroke-14" fill-rule="evenodd" clip-rule="evenodd" d="M178.914 152.51H178.89C179.341 162.037 173.275 171.649 160.692 178.914C136.397 192.94 96.9476 192.94 72.6522 178.914C60.0697 171.649 54.0038 162.037 54.4542 152.51H54.4307V137.615C54.4307 146.815 60.5045 156.016 72.6522 163.03C96.9476 177.057 136.397 177.057 160.692 163.03C172.84 156.016 178.914 146.815 178.914 137.615V152.51Z" stroke="#262725" stroke-width="0.88838" stroke-linecap="round" stroke-linejoin="round"/>
<path id="Fill-15" fill-rule="evenodd" clip-rule="evenodd" d="M116.672 20.1234V97.5523L83.0728 78.1536L116.672 20.1234Z" fill="#2639ED"/>
<path id="Stroke-16" fill-rule="evenodd" clip-rule="evenodd" d="M116.672 20.1234V97.5523L83.0728 78.1536L116.672 20.1234Z" stroke="#262725" stroke-width="0.88838" stroke-linecap="round" stroke-linejoin="round"/>
<path id="Fill-17" fill-rule="evenodd" clip-rule="evenodd" d="M150.272 86.2085L116.673 144.239V105.607L150.272 86.2085Z" fill="white"/>
<path id="Stroke-18" fill-rule="evenodd" clip-rule="evenodd" d="M150.272 86.2085L116.673 144.239V105.607L150.272 86.2085Z" stroke="#262725" stroke-width="0.88838" stroke-linecap="round" stroke-linejoin="round"/>
<path id="Fill-19" fill-rule="evenodd" clip-rule="evenodd" d="M116.672 105.607V144.239L83.0728 86.2085L116.672 105.607Z" fill="#2639ED"/>
<path id="Stroke-20" fill-rule="evenodd" clip-rule="evenodd" d="M116.672 105.607V144.239L83.0728 86.2085L116.672 105.607Z" stroke="#262725" stroke-width="0.88838" stroke-linecap="round" stroke-linejoin="round"/>
<path id="Fill-21" fill-rule="evenodd" clip-rule="evenodd" d="M116.672 66.8103L83.0728 86.2085L116.672 105.607L150.272 86.2085L116.672 66.8103Z" fill="#2639ED"/>
<path id="Stroke-22" fill-rule="evenodd" clip-rule="evenodd" d="M116.672 66.8103L83.0728 86.2085L116.672 105.607L150.272 86.2085L116.672 66.8103Z" stroke="white" stroke-width="0.88838" stroke-linecap="round" stroke-linejoin="round"/>
<path id="Fill-23" fill-rule="evenodd" clip-rule="evenodd" d="M116.672 58.7548L83.0728 78.1535L116.672 97.5521L150.272 78.1535L116.672 58.7548Z" fill="white"/>
<path id="Stroke-24" fill-rule="evenodd" clip-rule="evenodd" d="M116.672 58.7548L83.0728 78.1535L116.672 97.5521L150.272 78.1535L116.672 58.7548Z" stroke="#262725" stroke-width="0.88838" stroke-linecap="round" stroke-linejoin="round"/>
<path id="Stroke-25" fill-rule="evenodd" clip-rule="evenodd" d="M116.673 20.1234V97.5523L150.272 78.1536L116.673 20.1234Z" stroke="#262725" stroke-width="0.88838" stroke-linecap="round" stroke-linejoin="round"/>
<path id="Fill-26" fill-rule="evenodd" clip-rule="evenodd" d="M90.544 7.24442C104.965 -1.08147 128.381 -1.08147 142.801 7.24442C157.222 15.5703 157.222 29.0892 142.801 37.4151C128.381 45.741 104.965 45.741 90.544 37.4151C76.1234 29.0892 76.1234 15.5703 90.544 7.24442ZM97.5777 11.3052C108.117 5.22069 125.229 5.22069 135.767 11.3052C146.306 17.3897 146.306 27.2698 135.767 33.3544C125.229 39.4389 108.117 39.4389 97.5777 33.3544C87.0389 27.2698 87.0389 17.3897 97.5777 11.3052Z" fill="white"/>
<path id="Stroke-27" fill-rule="evenodd" clip-rule="evenodd" d="M90.544 7.24442C104.965 -1.08147 128.381 -1.08147 142.801 7.24442C157.222 15.5703 157.222 29.0892 142.801 37.4151C128.381 45.741 104.965 45.741 90.544 37.4151C76.1234 29.0892 76.1234 15.5703 90.544 7.24442ZM97.5777 11.3052C108.117 5.22069 125.229 5.22069 135.767 11.3052C146.306 17.3897 146.306 27.2698 135.767 33.3543C125.229 39.4389 108.117 39.4389 97.5777 33.3543C87.0389 27.2698 87.0389 17.3897 97.5777 11.3052Z" stroke="#262725" stroke-width="0.88838" stroke-linecap="round" stroke-linejoin="round"/>
<path id="Stroke-28" fill-rule="evenodd" clip-rule="evenodd" d="M90.6084 26.4098C91.7975 23.8655 94.1206 21.4616 97.5773 19.4658C108.116 13.3809 125.228 13.3809 135.767 19.4658C139.224 21.4616 141.547 23.8655 142.736 26.4098C141.547 28.9546 139.224 31.3586 135.767 33.3543C125.228 39.4388 108.116 39.4388 97.5773 33.3543C94.1206 31.3586 91.7975 28.9546 90.6084 26.4098Z" stroke="#262725" stroke-width="0.88838" stroke-linecap="round" stroke-linejoin="round"/>
<path id="Fill-29" fill-rule="evenodd" clip-rule="evenodd" d="M153.617 31.1707H153.603C153.871 36.8262 150.27 42.5309 142.801 46.8431C128.381 55.169 104.965 55.169 90.5442 46.8431C83.0756 42.5309 79.475 36.8262 79.7424 31.1707H79.7285V22.33C79.7285 27.7909 83.3337 33.2522 90.5442 37.4151C104.965 45.741 128.381 45.741 142.801 37.4151C150.012 33.2522 153.617 27.7909 153.617 22.33V31.1707Z" fill="#FFA8A8"/>
<path id="Stroke-30" fill-rule="evenodd" clip-rule="evenodd" d="M153.617 31.1707H153.603C153.871 36.8262 150.27 42.5309 142.801 46.8431C128.381 55.169 104.965 55.169 90.5442 46.8431C83.0756 42.5309 79.475 36.8262 79.7424 31.1707H79.7285V22.33C79.7285 27.7909 83.3337 33.2522 90.5442 37.4151C104.965 45.741 128.381 45.741 142.801 37.4151C150.012 33.2522 153.617 27.7909 153.617 22.33V31.1707Z" stroke="#262725" stroke-width="0.88838" stroke-linecap="round" stroke-linejoin="round"/>
<path id="Fill-31" fill-rule="evenodd" clip-rule="evenodd" d="M34.8047 152.388L40.6795 149.118C43.0755 147.761 46.3985 147.98 50.0688 150.099C57.3664 154.313 63.2915 164.451 63.2915 172.727C63.2915 176.779 61.8701 179.638 59.5616 181.006L53.4429 184.414C55.8344 183.081 57.3145 180.188 57.3145 176.053C57.3145 167.778 51.3894 157.639 44.0914 153.426C40.4739 151.337 37.1935 151.094 34.8047 152.388Z" fill="white"/>
<path id="Stroke-32" fill-rule="evenodd" clip-rule="evenodd" d="M34.8047 152.388L40.6795 149.118C43.0755 147.761 46.3985 147.98 50.0688 150.099C57.3664 154.313 63.2915 164.451 63.2915 172.727C63.2915 176.779 61.8701 179.638 59.5616 181.006L53.4429 184.414C55.8344 183.081 57.3145 180.188 57.3145 176.053C57.3145 167.778 51.3894 157.639 44.0914 153.426C40.4739 151.337 37.1935 151.094 34.8047 152.388Z" stroke="#262725" stroke-width="0.88838" stroke-linecap="round" stroke-linejoin="round"/>
<path id="Fill-33" fill-rule="evenodd" clip-rule="evenodd" d="M145.156 179.171L179.25 159.56C180.684 158.747 182.673 158.879 184.87 160.147C189.239 162.669 192.785 168.739 192.785 173.692C192.785 176.118 191.934 177.829 190.552 178.648L156.313 198.342C157.745 197.544 158.631 195.812 158.631 193.336C158.631 188.383 155.084 182.314 150.715 179.792C148.55 178.541 146.586 178.396 145.156 179.171Z" fill="white"/>
<path id="Stroke-34" fill-rule="evenodd" clip-rule="evenodd" d="M145.156 179.171L179.25 159.56C180.684 158.747 182.673 158.879 184.87 160.147C189.239 162.669 192.785 168.739 192.785 173.692C192.785 176.118 191.934 177.829 190.552 178.648L156.313 198.342C157.745 197.544 158.631 195.812 158.631 193.336C158.631 188.383 155.084 182.314 150.715 179.792C148.55 178.541 146.586 178.396 145.156 179.171Z" stroke="#262725" stroke-width="0.88838" stroke-linecap="round" stroke-linejoin="round"/>
<path id="Fill-35" fill-rule="evenodd" clip-rule="evenodd" d="M44.0913 153.426C51.3893 157.639 57.3144 167.778 57.3144 176.053C57.3144 184.327 51.3893 187.625 44.0913 183.411C36.7933 179.198 30.8687 169.059 30.8687 160.784C30.8687 152.509 36.7933 149.212 44.0913 153.426Z" fill="white"/>
<path id="Stroke-36" fill-rule="evenodd" clip-rule="evenodd" d="M44.0913 153.426C51.3893 157.639 57.3144 167.778 57.3144 176.053C57.3144 184.327 51.3893 187.625 44.0913 183.411C36.7933 179.198 30.8687 169.059 30.8687 160.784C30.8687 152.509 36.7933 149.212 44.0913 153.426Z" stroke="#262725" stroke-width="0.88838" stroke-linecap="round" stroke-linejoin="round"/>
<path id="Fill-37" fill-rule="evenodd" clip-rule="evenodd" d="M150.716 179.792C155.084 182.314 158.631 188.383 158.631 193.336C158.631 198.29 155.084 200.264 150.716 197.741C146.347 195.219 142.8 189.15 142.8 184.197C142.8 179.243 146.347 177.27 150.716 179.792Z" fill="#FFA8A8"/>
<path id="Stroke-38" fill-rule="evenodd" clip-rule="evenodd" d="M150.716 179.792C155.084 182.314 158.631 188.383 158.631 193.336C158.631 198.29 155.084 200.264 150.716 197.741C146.347 195.219 142.8 189.15 142.8 184.197C142.8 179.243 146.347 177.27 150.716 179.792Z" stroke="#262725" stroke-width="0.88838" stroke-linecap="round" stroke-linejoin="round"/>
</g>
</svg>
