<svg width="107" height="150" viewBox="0 0 107 150" fill="none" xmlns="http://www.w3.org/2000/svg">
<g id="magic_suitecase">
<path id="Vector" d="M39.2134 90.3933L45.5194 85.3809V83.4922L38.269 89.449L39.2134 90.3933Z" fill="#855CFF"/>
<path id="Vector_2" d="M45.5165 84.4727V85.3779L40.6857 89.2224L38.7551 89.8762H38.6908L38.5176 89.2448L39.3669 88.5463H40.4482L45.5165 84.4727Z" fill="url(#paint0_radial_3471_10356)"/>
<path id="Vector_3" d="M68.4271 90.3933L62.1211 85.3809V83.4922L69.3715 89.449L68.4271 90.3933Z" fill="#855CFF"/>
<path id="Vector_4" d="M62.1245 84.4727V85.3779L66.9553 89.2224L68.886 89.8762H68.9502L69.0955 89.2224L68.2741 88.5463H67.19L62.1245 84.4727Z" fill="url(#paint1_radial_3471_10356)"/>
<path id="Vector_5" d="M23.7434 89.231H83.8866C84.4054 89.231 84.9028 89.437 85.2696 89.8038C85.6364 90.1706 85.8424 90.668 85.8424 91.1867V137.732H21.7876V91.1867C21.7876 90.668 21.9936 90.1706 22.3604 89.8038C22.7272 89.437 23.2247 89.231 23.7434 89.231Z" fill="#6633FF"/>
<path id="Vector_6" d="M82.8783 94.2717V136.134H24.1768V94.2717C24.1768 93.7001 24.4036 93.1519 24.8075 92.7475C25.2114 92.3431 25.7593 92.1155 26.3309 92.1148H80.7158C80.9995 92.114 81.2806 92.1692 81.5429 92.2773C81.8052 92.3854 82.0437 92.5442 82.2446 92.7446C82.4455 92.9449 82.6048 93.1829 82.7136 93.445C82.8223 93.707 82.8783 93.988 82.8783 94.2717Z" fill="#A385FF"/>
<path id="Vector_7" d="M82.8783 94.2717V100.511H24.1768V94.2717C24.1768 93.7001 24.4036 93.1519 24.8075 92.7475C25.2114 92.3431 25.7593 92.1155 26.3309 92.1148H80.7158C80.9995 92.114 81.2806 92.1692 81.5429 92.2773C81.8052 92.3854 82.0437 92.5442 82.2446 92.7446C82.4455 92.9449 82.6048 93.1829 82.7136 93.445C82.8223 93.707 82.8783 93.988 82.8783 94.2717Z" fill="url(#paint2_radial_3471_10356)"/>
<path id="Vector_8" d="M62.1214 83.4922H45.5195V85.3809H62.1214V83.4922Z" fill="#FFDE82"/>
<path id="Vector_9" d="M62.1214 84.4727H45.5195V85.3807H62.1214V84.4727Z" fill="url(#paint3_radial_3471_10356)"/>
<path id="Vector_10" style="mix-blend-mode:overlay" d="M106.252 12.8325H0L26.6993 135.477H79.553L106.252 12.8325Z" fill="url(#paint4_radial_3471_10356)"/>
<path id="Vector_11" style="mix-blend-mode:overlay" d="M14.8975 19.8088L91.2402 19.5825L77.3541 136.625L29.7111 136.852L14.8975 19.8088Z" fill="url(#paint5_radial_3471_10356)"/>
<path id="Vector_12" d="M35.4141 56.438L35.6599 57.6031L30.9604 57.9943L35.4141 56.438Z" fill="url(#paint6_radial_3471_10356)"/>
<path id="Vector_13" style="mix-blend-mode:overlay" d="M48.118 136.852H46.2293L41.2588 56.561H47.8777L48.118 136.852Z" fill="url(#paint7_radial_3471_10356)"/>
<path id="Vector_14" style="mix-blend-mode:overlay" d="M42.846 136.851L39.6888 136.804L24.1738 35.7568L31.0694 35.2427L42.846 136.851Z" fill="url(#paint8_radial_3471_10356)"/>
<path id="Vector_15" d="M15.8145 135.477H91.252V148.033C91.252 148.551 91.0459 149.049 90.6791 149.416C90.3123 149.782 89.8149 149.988 89.2962 149.988H17.7814C17.2627 149.988 16.7653 149.782 16.3985 149.416C16.0317 149.049 15.8256 148.551 15.8256 148.033V135.477H15.8145Z" fill="#6633FF"/>
<path id="Vector_16" d="M25.6792 131.375V139.581H29.4567V131.375H25.6792Z" fill="#FFDE82"/>
<path id="Vector_17" d="M77.6704 131.375V139.581H81.4479V131.375H77.6704Z" fill="#FFDE82"/>
<path id="Vector_18" d="M15.8145 142.132V147.843C15.8145 148.415 16.0417 148.963 16.4462 149.368C16.8507 149.772 17.3993 150 17.9714 150H89.0978C89.6699 150 90.2185 149.772 90.623 149.368C91.0275 148.963 91.2547 148.415 91.2547 147.843V142.132H15.8145Z" fill="url(#paint9_radial_3471_10356)"/>
<path id="Vector_19" d="M15.8145 143.655H91.2408" stroke="#C2ADFF" stroke-width="0.785109" stroke-miterlimit="10" stroke-linecap="round"/>
<path id="Vector_20" d="M38.6885 89.8735H38.7516L38.7242 89.9037L38.6885 89.8735Z" fill="#6633FF"/>
<path id="Vector_21" d="M29.4567 136.209H25.6792V139.581H29.4567V136.209Z" fill="url(#paint10_radial_3471_10356)"/>
<path id="Vector_22" d="M29.4567 136.209H25.6792V139.581H29.4567V136.209Z" fill="url(#paint11_radial_3471_10356)"/>
<path id="Vector_23" d="M81.4415 136.209H77.6641V139.581H81.4415V136.209Z" fill="url(#paint12_radial_3471_10356)"/>
<path id="Vector_24" style="mix-blend-mode:overlay" d="M68.1426 135.476H70.808L82.1125 61.9165L73.2221 64.6881L68.1426 135.476Z" fill="url(#paint13_radial_3471_10356)"/>
<path id="Vector_25" d="M77.5052 30.8617L41.8232 46.888L45.7628 41.7079L71.0176 30.3672L77.5052 30.8617Z" fill="#202945"/>
<path id="Vector_26" d="M41.0748 25.1536L57.6053 17.728C58.4568 17.3438 59.3757 17.1314 60.3094 17.1026C61.2431 17.0739 62.1732 17.2294 63.0467 17.5604C63.9203 17.8914 64.72 18.3914 65.4001 19.0317C66.0803 19.672 66.6276 20.4401 67.0107 21.292L69.8271 27.5617L44.5649 38.9097L39.8423 28.3965C39.5754 27.8024 39.5554 27.1265 39.7868 26.5176C40.0182 25.9088 40.482 25.4168 41.0762 25.1499L41.0748 25.1536Z" fill="#202945"/>
<path id="Vector_27" d="M69.6788 27.2626L44.4268 38.606L45.8052 41.6745L71.0572 30.3311L69.6788 27.2626Z" fill="#E0D6FF"/>
<path id="Vector_28" d="M73.6355 30.5655L71.0175 30.3672L45.7628 41.7079L44.1758 43.795L73.6355 30.5655Z" fill="url(#paint14_radial_3471_10356)"/>
<path id="Vector_29" d="M56.9355 18.0431L41.2501 25.0868C40.9274 25.2315 40.6364 25.4384 40.3938 25.6957C40.1512 25.953 39.9616 26.2555 39.836 26.5861C39.7104 26.9167 39.6513 27.2689 39.6619 27.6224C39.6725 27.9758 39.7526 28.3238 39.8978 28.6463L41.3479 31.8817L66.4602 20.6052C65.4117 19.1451 63.8907 18.0923 62.1548 17.6254C60.4189 17.1585 58.575 17.306 56.9355 18.0431Z" fill="url(#paint15_radial_3471_10356)"/>
<path id="Vector_30" d="M62.6234 58.8257L55.1545 56.643C54.768 56.5301 54.363 56.7518 54.2501 57.1384L49.6575 72.8539C49.5445 73.2404 49.7663 73.6454 50.1529 73.7584L57.6217 75.941C58.0083 76.054 58.4133 75.8322 58.5263 75.4456L63.1188 59.7301C63.2318 59.3435 63.01 58.9386 62.6234 58.8257Z" fill="#202945"/>
<path id="Vector_31" d="M62.7281 59.7864L58.2242 75.1953C58.184 75.3302 58.0922 75.4437 57.9687 75.5112C57.8452 75.5788 57.7001 75.5947 57.5648 75.5557L50.3899 73.4602C50.2544 73.4201 50.1403 73.3278 50.0727 73.2037C50.0052 73.0795 49.9896 72.9336 50.0295 72.798L54.5306 57.3892C54.5714 57.2542 54.6637 57.1405 54.7877 57.0731C54.9116 57.0056 55.0572 56.9897 55.1928 57.0288L56.3942 57.3809C56.4601 57.4033 56.5152 57.4495 56.5488 57.5105C56.5824 57.5715 56.592 57.6428 56.5758 57.7105L56.5171 57.9117C56.5007 57.979 56.5099 58.0501 56.543 58.111C56.576 58.1719 56.6305 58.2184 56.6959 58.2414L60.4482 59.3394C60.5159 59.3557 60.5873 59.3461 60.6482 59.3125C60.7092 59.2789 60.7555 59.2237 60.7779 59.1578L60.8366 58.9566C60.859 58.8907 60.9053 58.8356 60.9663 58.802C61.0273 58.7684 61.0986 58.7588 61.1663 58.7751L62.3677 59.1243C62.3814 59.1282 62.3946 59.1338 62.4068 59.1411C62.5246 59.1862 62.6226 59.2715 62.6835 59.3819C62.7444 59.4924 62.7641 59.6209 62.7393 59.7446C62.7365 59.7588 62.7328 59.7727 62.7281 59.7864Z" fill="#DCF5F3"/>
<path id="Vector_32" d="M62.3789 60.9795L60.208 68.4059L50.7755 73.572L50.3899 73.4603C50.2544 73.4201 50.1403 73.3279 50.0727 73.2037C50.0052 73.0796 49.9896 72.9337 50.0295 72.798L51.7869 66.7826L62.3789 60.9795Z" fill="white"/>
<path id="Vector_33" d="M59.8592 69.605L59.3116 71.4769L53.8438 74.4693L51.9746 73.9217L59.8592 69.605Z" fill="white"/>
<path id="Vector_34" d="M62.739 59.7448L52.147 65.5395L52.4264 64.6035L62.4121 59.1357C62.53 59.182 62.6276 59.2686 62.6875 59.3801C62.7474 59.4917 62.7656 59.621 62.739 59.7448Z" fill="white"/>
<path id="Vector_35" style="mix-blend-mode:overlay" d="M64.9429 108.917H66.8316L70.5308 49.1792L65.1133 52.4286L64.9429 108.917Z" fill="url(#paint16_radial_3471_10356)"/>
</g>
<defs>
<radialGradient id="paint0_radial_3471_10356" cx="0" cy="0" r="1" gradientUnits="userSpaceOnUse" gradientTransform="translate(42.3006 88.876) scale(7.72256 7.7226)">
<stop stop-color="#412BC9"/>
<stop offset="1" stop-color="#412BC9" stop-opacity="0"/>
</radialGradient>
<radialGradient id="paint1_radial_3471_10356" cx="0" cy="0" r="1" gradientUnits="userSpaceOnUse" gradientTransform="translate(65.332 88.9011) rotate(180) scale(7.69742 7.69745)">
<stop stop-color="#412BC9"/>
<stop offset="1" stop-color="#412BC9" stop-opacity="0"/>
</radialGradient>
<radialGradient id="paint2_radial_3471_10356" cx="0" cy="0" r="1" gradientUnits="userSpaceOnUse" gradientTransform="translate(53.6505 81.1176) scale(39.4343 39.4343)">
<stop stop-color="#412BC9"/>
<stop offset="1" stop-color="#412BC9" stop-opacity="0"/>
</radialGradient>
<radialGradient id="paint3_radial_3471_10356" cx="0" cy="0" r="1" gradientUnits="userSpaceOnUse" gradientTransform="translate(53.5411 85.7858) scale(12.3634 12.3634)">
<stop stop-color="#E5B20E"/>
<stop offset="1" stop-color="#E5B20E" stop-opacity="0"/>
</radialGradient>
<radialGradient id="paint4_radial_3471_10356" cx="0" cy="0" r="1" gradientUnits="userSpaceOnUse" gradientTransform="translate(54.4966 148.219) scale(111.435 132.608)">
<stop stop-color="#E0D6FF"/>
<stop offset="1" stop-color="#C2ADFF" stop-opacity="0"/>
</radialGradient>
<radialGradient id="paint5_radial_3471_10356" cx="0" cy="0" r="1" gradientUnits="userSpaceOnUse" gradientTransform="translate(60.4114 137.192) scale(96.845 96.845)">
<stop stop-color="white"/>
<stop offset="1" stop-color="white" stop-opacity="0"/>
</radialGradient>
<radialGradient id="paint6_radial_3471_10356" cx="0" cy="0" r="1" gradientUnits="userSpaceOnUse" gradientTransform="translate(37.784 44.491) rotate(177.709) scale(4.11044 4.11049)">
<stop stop-color="#512EE5"/>
<stop offset="1" stop-color="#512EE5" stop-opacity="0"/>
</radialGradient>
<radialGradient id="paint7_radial_3471_10356" cx="0" cy="0" r="1" gradientUnits="userSpaceOnUse" gradientTransform="translate(47.1932 118.772) scale(58.7909)">
<stop stop-color="white"/>
<stop offset="1" stop-color="white" stop-opacity="0"/>
</radialGradient>
<radialGradient id="paint8_radial_3471_10356" cx="0" cy="0" r="1" gradientUnits="userSpaceOnUse" gradientTransform="translate(40.3258 113.969) scale(74.753 74.753)">
<stop stop-color="white"/>
<stop offset="1" stop-color="white" stop-opacity="0"/>
</radialGradient>
<radialGradient id="paint9_radial_3471_10356" cx="0" cy="0" r="1" gradientUnits="userSpaceOnUse" gradientTransform="translate(54.1227 132.962) scale(53.0912 53.0911)">
<stop stop-color="#412BC9"/>
<stop offset="0.24" stop-color="#412BC9" stop-opacity="0.73"/>
<stop offset="0.61" stop-color="#412BC9" stop-opacity="0.34"/>
<stop offset="0.87" stop-color="#412BC9" stop-opacity="0.09"/>
<stop offset="1" stop-color="#412BC9" stop-opacity="0"/>
</radialGradient>
<radialGradient id="paint10_radial_3471_10356" cx="0" cy="0" r="1" gradientUnits="userSpaceOnUse" gradientTransform="translate(26.9728 135.726) scale(3.40307 3.40309)">
<stop stop-color="#E5B20E"/>
<stop offset="1" stop-color="#E5B20E" stop-opacity="0"/>
</radialGradient>
<radialGradient id="paint11_radial_3471_10356" cx="0" cy="0" r="1" gradientUnits="userSpaceOnUse" gradientTransform="translate(27.6993 135.614) scale(4.48435 4.48437)">
<stop stop-color="#E5B20E"/>
<stop offset="1" stop-color="#E5B20E" stop-opacity="0"/>
</radialGradient>
<radialGradient id="paint12_radial_3471_10356" cx="0" cy="0" r="1" gradientUnits="userSpaceOnUse" gradientTransform="translate(79.6841 135.614) scale(4.48435 4.48437)">
<stop stop-color="#E5B20E"/>
<stop offset="1" stop-color="#E5B20E" stop-opacity="0"/>
</radialGradient>
<radialGradient id="paint13_radial_3471_10356" cx="0" cy="0" r="1" gradientUnits="userSpaceOnUse" gradientTransform="translate(74.9068 105.598) rotate(4.91) scale(26.5819 28.1769)">
<stop stop-color="white"/>
<stop offset="1" stop-color="white" stop-opacity="0"/>
</radialGradient>
<radialGradient id="paint14_radial_3471_10356" cx="0" cy="0" r="1" gradientUnits="userSpaceOnUse" gradientTransform="translate(54.7426 29.7699) rotate(-24.1799) scale(20.0552 20.0551)">
<stop stop-color="#070A0F"/>
<stop offset="1" stop-color="#6633FF" stop-opacity="0"/>
</radialGradient>
<radialGradient id="paint15_radial_3471_10356" cx="0" cy="0" r="1" gradientUnits="userSpaceOnUse" gradientTransform="translate(42.6972 16.4223) rotate(-24.18) scale(18.9711 18.9711)">
<stop stop-color="#484E66"/>
<stop offset="1" stop-color="#484E66" stop-opacity="0"/>
</radialGradient>
<radialGradient id="paint16_radial_3471_10356" cx="0" cy="0" r="1" gradientUnits="userSpaceOnUse" gradientTransform="translate(66.7981 83.2531) scale(21.2119 28.6361)">
<stop stop-color="white"/>
<stop offset="1" stop-color="white" stop-opacity="0"/>
</radialGradient>
</defs>
</svg>
