<svg width="226" height="242" viewBox="0 0 226 242" fill="none" xmlns="http://www.w3.org/2000/svg">
<g id="Group 1261152720">
<path id="Fill-2" opacity="0.3" fill-rule="evenodd" clip-rule="evenodd" d="M0 181.3C0 196.729 10.6156 211.525 29.5115 222.435C68.8337 245.137 132.683 245.137 172.005 222.435C190.901 211.525 201.516 196.729 201.516 181.3H151.137C151.137 189.015 145.829 196.413 136.382 201.868C116.721 213.219 84.7957 213.219 65.1346 201.868C55.6869 196.413 50.3793 189.015 50.3793 181.3H0Z" fill="#2639ED"/>
<path id="Fill-3" fill-rule="evenodd" clip-rule="evenodd" d="M29.2378 83.7463V163.037L76.8418 172.557C79.3366 168.398 83.4332 164.621 88.8228 161.509C100.613 154.702 117.473 151.704 133.853 153.501L143.261 124.927V45.6365C110.5 42.0411 76.7797 48.0375 53.1997 61.6515C42.4202 67.8753 34.227 75.4299 29.2378 83.7463Z" fill="white"/>
<path id="Stroke-4" fill-rule="evenodd" clip-rule="evenodd" d="M29.2378 83.7463V163.037L76.8418 172.557C79.3366 168.398 83.4332 164.621 88.8227 161.509C100.613 154.702 117.473 151.704 133.853 153.501L143.261 124.927V45.6365C110.5 42.0411 76.7797 48.0375 53.1997 61.6515C42.4202 67.8753 34.227 75.4299 29.2378 83.7463Z" stroke="#262725" stroke-width="0.947523" stroke-linecap="round" stroke-linejoin="round"/>
<path id="Fill-5" fill-rule="evenodd" clip-rule="evenodd" d="M143.261 45.6365C110.5 42.0411 76.7797 48.0375 53.1997 61.6515C42.4202 67.8753 34.227 75.4299 29.2378 83.7463L76.8418 93.266C79.3366 89.1078 83.4332 85.3305 88.8228 82.2189C100.613 75.4119 117.473 72.4134 133.853 74.2114L143.261 45.6365Z" fill="white"/>
<path id="Stroke-6" fill-rule="evenodd" clip-rule="evenodd" d="M143.261 45.6365C110.5 42.0411 76.7797 48.0375 53.1997 61.6515C42.4202 67.8753 34.227 75.4299 29.2378 83.7463L76.8418 93.266C79.3366 89.1078 83.4332 85.3305 88.8227 82.2189C100.613 75.4119 117.473 72.4134 133.853 74.2114L143.261 45.6365Z" stroke="#262725" stroke-width="0.947523" stroke-linecap="round" stroke-linejoin="round"/>
<path id="Fill-7" fill-rule="evenodd" clip-rule="evenodd" d="M29.2378 163.037V83.7461L76.8418 93.2659V172.556L29.2378 163.037Z" fill="#2639ED"/>
<path id="Stroke-8" fill-rule="evenodd" clip-rule="evenodd" d="M29.2378 163.037V83.7461L76.8418 93.2659V172.556L29.2378 163.037Z" stroke="#262725" stroke-width="0.947523" stroke-linecap="round" stroke-linejoin="round"/>
<path id="Fill-9" fill-rule="evenodd" clip-rule="evenodd" d="M143.261 124.927V45.6364L133.853 74.2113V153.501L143.261 124.927Z" fill="white"/>
<path id="Stroke-10" fill-rule="evenodd" clip-rule="evenodd" d="M143.261 124.927V45.6364L133.853 74.2113V153.501L143.261 124.927Z" stroke="#262725" stroke-width="0.947523" stroke-linecap="round" stroke-linejoin="round"/>
<path id="Fill-11" fill-rule="evenodd" clip-rule="evenodd" d="M221.068 116.057C216.301 106.752 207.578 98.2835 195.693 91.422C183.809 84.5605 169.141 79.5244 153.024 76.7723L124.447 132.556L221.068 116.057Z" fill="white"/>
<path id="Stroke-12" fill-rule="evenodd" clip-rule="evenodd" d="M221.068 116.057C216.301 106.752 207.578 98.2835 195.693 91.422C183.809 84.5605 169.141 79.5244 153.024 76.7723L124.447 132.556L221.068 116.057Z" stroke="#262725" stroke-width="0.947523" stroke-linecap="round" stroke-linejoin="round"/>
<path id="Fill-13" fill-rule="evenodd" clip-rule="evenodd" d="M221.068 166.006V116.057L124.434 132.564L124.447 182.505L221.068 166.006Z" fill="#2639ED"/>
<path id="Stroke-14" fill-rule="evenodd" clip-rule="evenodd" d="M221.068 166.006V116.057L124.434 132.564L124.447 182.505L221.068 166.006Z" stroke="#262725" stroke-width="0.947523" stroke-linecap="round" stroke-linejoin="round"/>
<path id="Fill-15" fill-rule="evenodd" clip-rule="evenodd" d="M23.688 151.453C23.688 166.882 34.3036 181.678 53.1995 192.588C92.5217 215.29 156.371 215.29 195.693 192.588C214.589 181.678 225.204 166.882 225.204 151.453H174.825C174.825 159.168 169.517 166.566 160.07 172.021C140.409 183.372 108.484 183.372 88.8226 172.021C79.3748 166.566 74.0673 159.168 74.0673 151.453H23.688Z" fill="white"/>
<path id="Stroke-16" fill-rule="evenodd" clip-rule="evenodd" d="M23.688 151.453C23.688 166.882 34.3036 181.678 53.1995 192.588C92.5217 215.29 156.371 215.29 195.693 192.588C214.589 181.678 225.204 166.882 225.204 151.453H174.825C174.825 159.168 169.517 166.566 160.07 172.021C140.409 183.372 108.484 183.372 88.8226 172.021C79.3748 166.566 74.0673 159.168 74.0673 151.453H23.688Z" stroke="#262725" stroke-width="0.947523" stroke-linecap="round" stroke-linejoin="round"/>
<path id="Fill-17" opacity="0.3" fill-rule="evenodd" clip-rule="evenodd" d="M44.5825 157.62L28.9043 166.672L44.5825 175.723L50.7414 175.383C50.7414 175.383 54.1065 169.695 60.2602 166.672L44.5825 157.62Z" fill="#2639ED"/>
<path id="Fill-18" opacity="0.3" fill-rule="evenodd" clip-rule="evenodd" d="M66.1201 175.714L50.4419 184.765L66.1201 193.817L72.279 193.477C72.279 193.477 75.6441 187.788 81.7978 184.765L66.1201 175.714Z" fill="#2639ED"/>
<path id="Fill-19" opacity="0.3" fill-rule="evenodd" clip-rule="evenodd" d="M96.06 184.348L80.3818 193.4L96.06 202.451L102.219 202.111C102.219 202.111 105.585 196.423 111.738 193.4L96.06 184.348Z" fill="#2639ED"/>
<path id="Fill-20" fill-rule="evenodd" clip-rule="evenodd" d="M225.185 181.231H225.147C225.876 196.653 216.057 212.212 195.689 223.971C156.362 246.676 92.5045 246.676 53.1771 223.971C32.8096 212.212 22.9904 196.653 23.7195 181.231H23.6816V151.435C23.6816 166.328 33.5136 181.222 53.1771 192.575C92.5045 215.28 156.362 215.28 195.689 192.575C215.353 181.222 225.185 166.328 225.185 151.435V181.231Z" fill="#2639ED"/>
<path id="Stroke-21" fill-rule="evenodd" clip-rule="evenodd" d="M225.185 181.231H225.147C225.876 196.653 216.057 212.212 195.689 223.971C156.362 246.676 92.5045 246.676 53.1771 223.971C32.8096 212.212 22.9904 196.653 23.7195 181.231H23.6816V151.435C23.6816 166.328 33.5136 181.222 53.1771 192.575C92.5045 215.28 156.362 215.28 195.689 192.575C215.353 181.222 225.185 166.328 225.185 151.435V181.231Z" stroke="#262725" stroke-width="0.947523" stroke-linecap="round" stroke-linejoin="round"/>
<path id="Fill-22" fill-rule="evenodd" clip-rule="evenodd" d="M50.7417 138.313L35.0635 147.365V166.331L50.7417 175.383L66.4194 166.331V147.365L50.7417 138.313Z" fill="#2639ED"/>
<path id="Stroke-23" fill-rule="evenodd" clip-rule="evenodd" d="M50.7417 138.313L35.0635 147.365V166.331L50.7417 175.383L66.4194 166.331V147.365L50.7417 138.313Z" stroke="#262725" stroke-width="0.947523" stroke-linecap="round" stroke-linejoin="round"/>
<path id="Fill-24" fill-rule="evenodd" clip-rule="evenodd" d="M66.4194 147.365L50.7417 156.416V175.383L66.4194 166.331V147.365Z" fill="white"/>
<path id="Stroke-25" fill-rule="evenodd" clip-rule="evenodd" d="M66.4194 147.365L50.7417 156.416V175.383L66.4194 166.331V147.365Z" stroke="#262725" stroke-width="0.947523" stroke-linecap="round" stroke-linejoin="round"/>
<path id="Fill-26" fill-rule="evenodd" clip-rule="evenodd" d="M50.7417 138.313L35.0635 147.365L50.7417 156.416L66.4194 147.365L50.7417 138.313Z" fill="white"/>
<path id="Stroke-27" fill-rule="evenodd" clip-rule="evenodd" d="M50.7417 138.313L35.0635 147.365L50.7417 156.416L66.4194 147.365L50.7417 138.313Z" stroke="#262725" stroke-width="0.947523" stroke-linecap="round" stroke-linejoin="round"/>
<path id="Fill-28" fill-rule="evenodd" clip-rule="evenodd" d="M72.3628 138.653L56.6846 147.705V184.52L72.3628 193.572L88.0405 184.52V147.705L72.3628 138.653Z" fill="#2639ED"/>
<path id="Stroke-29" fill-rule="evenodd" clip-rule="evenodd" d="M72.3628 138.653L56.6846 147.705V184.52L72.3628 193.572L88.0405 184.52V147.705L72.3628 138.653Z" stroke="#262725" stroke-width="0.947523" stroke-linecap="round" stroke-linejoin="round"/>
<path id="Fill-30" fill-rule="evenodd" clip-rule="evenodd" d="M88.0405 147.705L72.3628 156.757V193.572L88.0405 184.52V147.705Z" fill="white"/>
<path id="Stroke-31" fill-rule="evenodd" clip-rule="evenodd" d="M88.0405 147.705L72.3628 156.757V193.572L88.0405 184.52V147.705Z" stroke="#262725" stroke-width="0.947523" stroke-linecap="round" stroke-linejoin="round"/>
<path id="Fill-32" fill-rule="evenodd" clip-rule="evenodd" d="M72.3628 138.653L56.6846 147.705L72.3628 156.757L88.0405 147.705L72.3628 138.653Z" fill="white"/>
<path id="Stroke-33" fill-rule="evenodd" clip-rule="evenodd" d="M72.3628 138.653L56.6846 147.705L72.3628 156.757L88.0405 147.705L72.3628 138.653Z" stroke="#262725" stroke-width="0.947523" stroke-linecap="round" stroke-linejoin="round"/>
<path id="Fill-34" fill-rule="evenodd" clip-rule="evenodd" d="M102.103 121.483L86.4253 130.534V193.095L102.103 202.147L117.781 193.095V130.534L102.103 121.483Z" fill="#2639ED"/>
<path id="Stroke-35" fill-rule="evenodd" clip-rule="evenodd" d="M102.103 121.483L86.4253 130.534V193.095L102.103 202.147L117.781 193.095V130.534L102.103 121.483Z" stroke="#262725" stroke-width="0.947523" stroke-linecap="round" stroke-linejoin="round"/>
<path id="Fill-36" fill-rule="evenodd" clip-rule="evenodd" d="M117.781 130.534L102.103 139.586V202.147L117.781 193.095V130.534Z" fill="white"/>
<path id="Stroke-37" fill-rule="evenodd" clip-rule="evenodd" d="M117.781 130.534L102.103 139.586V202.147L117.781 193.095V130.534Z" stroke="#262725" stroke-width="0.947523" stroke-linecap="round" stroke-linejoin="round"/>
<path id="Fill-38" fill-rule="evenodd" clip-rule="evenodd" d="M102.103 121.483L86.4253 130.534L102.103 139.586L117.781 130.534L102.103 121.483Z" fill="white"/>
<path id="Stroke-39" fill-rule="evenodd" clip-rule="evenodd" d="M102.103 121.483L86.4253 130.534L102.103 139.586L117.781 130.534L102.103 121.483Z" stroke="#262725" stroke-width="0.947523" stroke-linecap="round" stroke-linejoin="round"/>
<path id="Fill-40" fill-rule="evenodd" clip-rule="evenodd" d="M104.87 53.4658C110.317 50.3215 119.161 50.3215 124.608 53.4658C130.055 56.6106 130.055 61.7168 124.608 64.8617C119.161 68.006 110.317 68.006 104.87 64.8617C99.4234 61.7168 99.4234 56.6106 104.87 53.4658Z" fill="#FFA8A8"/>
<path id="Fill-41" fill-rule="evenodd" clip-rule="evenodd" d="M114.739 1C125.632 1 134.477 9.84418 134.477 20.7374C134.477 31.631 125.632 40.4752 114.739 40.4752C103.845 40.4752 95.001 31.631 95.001 20.7374C95.001 9.84418 103.845 1 114.739 1Z" fill="#FFA8A8"/>
<path id="Stroke-42" fill-rule="evenodd" clip-rule="evenodd" d="M114.739 1C125.632 1 134.477 9.84418 134.477 20.7374C134.477 31.631 125.632 40.4752 114.739 40.4752C103.845 40.4752 95.001 31.631 95.001 20.7374C95.001 9.84418 103.845 1 114.739 1Z" stroke="white" stroke-width="0.947523" stroke-linecap="round" stroke-linejoin="round"/>
</g>
</svg>
