<svg width="230" height="242" viewBox="0 0 230 242" fill="none" xmlns="http://www.w3.org/2000/svg">
<path opacity="0.3" fill-rule="evenodd" clip-rule="evenodd" d="M140.553 240.992H140.554C140.839 241.003 141.124 241.003 141.409 240.992H154.333V234.971L201.476 207.753C203.716 206.46 205.096 204.07 205.096 201.484C205.096 198.898 203.716 196.508 201.476 195.215C180.304 182.992 134.196 156.371 118.409 147.256C115.05 145.317 110.911 145.317 107.551 147.256C95.8323 154.023 67.974 170.107 52.485 179.049C50.2456 180.342 48.8657 182.731 48.8657 185.318C48.8657 187.904 50.2456 190.293 52.485 191.586C73.6576 203.81 119.766 230.431 135.552 239.545C137.104 240.441 138.822 240.923 140.553 240.992Z" fill="#2639ED"/>
<path opacity="0.3" fill-rule="evenodd" clip-rule="evenodd" d="M9.77537 201.072C22.8092 193.547 43.9732 193.547 57.007 201.072C70.0409 208.598 70.0409 220.817 57.007 228.342C43.9732 235.867 22.8092 235.867 9.77537 228.342C-3.25846 220.817 -3.25846 208.598 9.77537 201.072Z" fill="#2639ED"/>
<path fill-rule="evenodd" clip-rule="evenodd" d="M165.864 74.8474C166.982 74.49 168.214 74.6112 169.253 75.2116C184.125 83.7978 193.292 89.0905 207.438 97.2573C210.913 99.2638 213.053 102.971 213.053 106.984C213.053 132.607 213.053 128.457 213.053 155.472C213.053 156.704 212.515 157.86 211.603 158.651C213.814 157.408 225.913 150.478 226.845 149.941C228.147 149.189 228.95 147.798 228.95 146.294C228.95 119.278 228.95 123.429 228.95 97.8052C228.95 93.7933 226.81 90.0853 223.335 88.0794C209.189 79.9125 200.022 74.6194 185.15 66.0331C183.847 65.2808 182.241 65.2808 180.938 66.0331C179.636 66.7855 165.864 74.8474 165.864 74.8474Z" fill="white"/>
<path fill-rule="evenodd" clip-rule="evenodd" d="M165.864 74.8474C166.982 74.49 168.214 74.6112 169.253 75.2116C184.125 83.7978 193.292 89.0905 207.438 97.2573C210.913 99.2638 213.053 102.971 213.053 106.984C213.053 132.607 213.053 128.457 213.053 155.472C213.053 156.704 212.515 157.86 211.603 158.651C213.814 157.408 225.913 150.478 226.845 149.941C228.147 149.189 228.95 147.798 228.95 146.294C228.95 119.278 228.95 123.429 228.95 97.8052C228.95 93.7933 226.81 90.0853 223.335 88.0794C209.189 79.9125 200.022 74.6194 185.15 66.0331C183.847 65.2808 182.241 65.2808 180.938 66.0331C179.636 66.7855 165.864 74.8474 165.864 74.8474Z" stroke="#262725" stroke-width="0.904813" stroke-linecap="round" stroke-linejoin="round"/>
<path fill-rule="evenodd" clip-rule="evenodd" d="M213.054 106.768C213.054 102.889 210.984 99.3047 207.625 97.3652C198.208 91.9291 178.912 80.7881 169.044 75.0905C167.784 74.3631 166.231 74.3631 164.972 75.0905C163.712 75.818 162.936 77.1621 162.936 78.6166C162.936 90.8664 162.936 115.882 162.936 127.562C162.936 131.442 165.005 135.026 168.365 136.966C177.781 142.402 197.077 153.543 206.946 159.24C208.206 159.968 209.758 159.968 211.018 159.24C212.277 158.513 213.054 157.169 213.054 155.714C213.054 143.465 213.054 118.449 213.054 106.768Z" fill="#2639ED"/>
<path fill-rule="evenodd" clip-rule="evenodd" d="M213.054 106.768C213.054 102.889 210.984 99.3047 207.625 97.3652C198.208 91.9291 178.912 80.7881 169.044 75.0905C167.784 74.3631 166.231 74.3631 164.972 75.0905C163.712 75.818 162.936 77.1621 162.936 78.6166C162.936 90.8664 162.936 115.882 162.936 127.562C162.936 131.442 165.005 135.026 168.365 136.966C177.781 142.402 197.077 153.543 206.946 159.24C208.206 159.968 209.758 159.968 211.018 159.24C212.277 158.513 213.054 157.169 213.054 155.714C213.054 143.465 213.054 118.449 213.054 106.768Z" stroke="#262725" stroke-width="0.904813" stroke-linecap="round" stroke-linejoin="round"/>
<path fill-rule="evenodd" clip-rule="evenodd" d="M131.981 135.485C128.622 133.545 124.483 133.545 121.124 135.485C109.405 142.251 81.5463 158.335 66.0572 167.278C63.8178 168.571 62.438 170.96 62.438 173.546C62.438 176.132 63.8178 178.522 66.0572 179.815C87.2299 192.039 133.338 218.66 149.124 227.774C152.484 229.713 156.623 229.713 159.982 227.774C171.702 221.008 199.56 204.924 215.049 195.981C217.289 194.688 218.668 192.298 218.668 189.712C218.668 187.127 217.289 184.737 215.049 183.444C193.876 171.22 147.768 144.599 131.981 135.485Z" fill="white"/>
<path fill-rule="evenodd" clip-rule="evenodd" d="M131.981 135.485C128.622 133.545 124.483 133.545 121.124 135.485C109.405 142.251 81.5463 158.335 66.0572 167.278C63.8178 168.571 62.438 170.96 62.438 173.546C62.438 176.132 63.8178 178.522 66.0572 179.815C87.2299 192.039 133.338 218.66 149.124 227.774C152.484 229.713 156.623 229.713 159.982 227.774C171.702 221.008 199.56 204.924 215.049 195.981C217.289 194.688 218.668 192.298 218.668 189.712C218.668 187.127 217.289 184.737 215.049 183.444C193.876 171.22 147.768 144.599 131.981 135.485Z" stroke="#262725" stroke-width="0.904813" stroke-linecap="round" stroke-linejoin="round"/>
<path fill-rule="evenodd" clip-rule="evenodd" d="M218.42 189.713V189.838C218.375 192.465 216.957 194.88 214.676 196.197C193.424 208.467 176.036 218.506 160.169 227.666C156.694 229.673 152.413 229.673 148.938 227.666C133.072 218.506 87.6829 192.3 66.4307 180.03C64.1139 178.693 62.687 176.221 62.687 173.546C62.687 173.546 62.687 182.61 62.687 185.285C62.687 187.96 64.1139 190.432 66.4307 191.769C87.6829 204.039 133.072 230.245 148.938 239.405C152.413 241.411 156.694 241.411 160.169 239.405C176.036 230.245 193.424 220.206 214.676 207.936C216.993 206.598 218.42 204.126 218.42 201.452V189.713Z" fill="#2639ED"/>
<path fill-rule="evenodd" clip-rule="evenodd" d="M218.42 189.713V189.838C218.375 192.465 216.957 194.88 214.676 196.197C193.424 208.467 176.036 218.506 160.169 227.666C156.694 229.673 152.413 229.673 148.938 227.666C133.072 218.506 87.6829 192.3 66.4307 180.03C64.1139 178.693 62.687 176.221 62.687 173.546C62.687 173.546 62.687 182.61 62.687 185.285C62.687 187.96 64.1139 190.432 66.4307 191.769C87.6829 204.039 133.072 230.245 148.938 239.405C152.413 241.411 156.694 241.411 160.169 239.405C176.036 230.245 193.424 220.206 214.676 207.936C216.993 206.598 218.42 204.126 218.42 201.452V189.713Z" stroke="#262725" stroke-width="0.904813" stroke-linecap="round" stroke-linejoin="round"/>
<path fill-rule="evenodd" clip-rule="evenodd" d="M107.66 13.0721L100.526 8.95343C99.9258 8.60689 99.3503 8.54989 98.926 8.79509C98.5016 9.03984 98.2632 9.5669 98.2632 10.2595C98.2632 28.7756 98.2632 139.985 98.2632 158.501C98.2632 159.194 98.5016 159.996 98.926 160.731C99.3503 161.466 99.9258 162.073 100.526 162.419C111.302 168.641 157.345 195.224 168.121 201.446C168.721 201.792 169.297 201.849 169.721 201.604C170.145 201.359 170.384 200.833 170.384 200.14C170.384 181.623 170.384 70.4142 170.384 51.8986C170.384 51.2055 170.145 50.4034 169.721 49.6687C169.297 48.9335 168.721 48.3264 168.121 47.9798L160.987 43.8607V47.9292C160.987 48.6223 160.749 49.1489 160.324 49.3941C159.9 49.6388 159.324 49.5818 158.725 49.2353C150.006 44.2018 118.641 26.0929 109.922 21.0594C109.322 20.7128 108.747 20.1057 108.322 19.3705C107.898 18.6358 107.66 17.8337 107.66 17.1406V13.0721Z" fill="#2639ED"/>
<path fill-rule="evenodd" clip-rule="evenodd" d="M107.66 13.0721L100.526 8.95343C99.9258 8.60689 99.3503 8.54989 98.926 8.79509C98.5016 9.03984 98.2632 9.5669 98.2632 10.2595C98.2632 28.7756 98.2632 139.985 98.2632 158.501C98.2632 159.194 98.5016 159.996 98.926 160.731C99.3503 161.466 99.9258 162.073 100.526 162.419C111.302 168.641 157.345 195.224 168.121 201.446C168.721 201.792 169.297 201.849 169.721 201.604C170.145 201.359 170.384 200.833 170.384 200.14C170.384 181.623 170.384 70.4142 170.384 51.8986C170.384 51.2055 170.145 50.4034 169.721 49.6687C169.297 48.9335 168.721 48.3264 168.121 47.9798L160.987 43.8607V47.9292C160.987 48.6223 160.749 49.1489 160.324 49.3941C159.9 49.6388 159.324 49.5818 158.725 49.2353C150.006 44.2018 118.641 26.0929 109.922 21.0594C109.322 20.7128 108.747 20.1057 108.322 19.3705C107.898 18.6358 107.66 17.8337 107.66 17.1406V13.0721Z" stroke="white" stroke-width="0.904813" stroke-linecap="round" stroke-linejoin="round"/>
<path fill-rule="evenodd" clip-rule="evenodd" d="M64.9646 210.921C65.0026 211.001 65.0388 211.081 65.0741 211.161L65.0759 211.165C66.8973 215.347 64.9772 219.962 59.3163 223.231C50.7509 228.176 36.8426 228.176 28.2771 223.231C22.6162 219.962 20.6962 215.347 22.5176 211.165L22.5194 211.161C22.5547 211.081 22.5909 211.001 22.6289 210.921L43.7969 164.326L64.9646 210.921Z" fill="#2639ED"/>
<path fill-rule="evenodd" clip-rule="evenodd" d="M64.9646 210.921C65.0026 211.001 65.0388 211.081 65.0741 211.161L65.0759 211.165C66.8973 215.347 64.9773 219.962 59.3163 223.231C50.7509 228.176 36.8426 228.176 28.2771 223.231C22.6162 219.962 20.6962 215.347 22.5176 211.165L22.5194 211.161C22.5547 211.081 22.5909 211.001 22.6289 210.921L43.7969 164.326L64.9646 210.921Z" stroke="#262725" stroke-width="0.904813" stroke-linecap="round" stroke-linejoin="round"/>
<path fill-rule="evenodd" clip-rule="evenodd" d="M28.2769 205.31C36.8423 200.365 50.7507 200.365 59.3161 205.31C67.8819 210.255 67.8819 218.285 59.3161 223.231C50.7507 228.176 36.8423 228.176 28.2769 223.231C19.7111 218.285 19.7111 210.255 28.2769 205.31Z" fill="#2639ED"/>
<path fill-rule="evenodd" clip-rule="evenodd" d="M28.2769 205.31C36.8423 200.365 50.7507 200.365 59.3161 205.31C67.8819 210.255 67.8819 218.285 59.3161 223.231C50.7507 228.176 36.8423 228.176 28.2769 223.231C19.7111 218.285 19.7111 210.255 28.2769 205.31Z" stroke="#262725" stroke-width="0.904813" stroke-linecap="round" stroke-linejoin="round"/>
<path fill-rule="evenodd" clip-rule="evenodd" d="M20.1806 133.814C33.2145 126.289 54.3785 126.289 67.4123 133.814C80.4461 141.339 80.4461 153.558 67.4123 161.083C54.3785 168.609 33.2145 168.609 20.1806 161.083C7.14682 153.558 7.14682 141.339 20.1806 133.814Z" fill="white"/>
<path fill-rule="evenodd" clip-rule="evenodd" d="M20.1806 133.814C33.2145 126.289 54.3785 126.289 67.4123 133.814C80.4461 141.339 80.4461 153.558 67.4123 161.083C54.3785 168.609 33.2145 168.609 20.1806 161.083C7.14682 153.558 7.14682 141.339 20.1806 133.814Z" stroke="#262725" stroke-width="0.904813" stroke-linecap="round" stroke-linejoin="round"/>
<path fill-rule="evenodd" clip-rule="evenodd" d="M77.1878 157.324H77.1753C77.4169 162.435 74.1628 167.592 67.4124 171.489C54.3786 179.014 33.2146 179.014 20.1807 171.489C13.4304 167.592 10.1762 162.435 10.4178 157.324H10.4053V147.449C10.4053 152.385 13.6638 157.321 20.1807 161.083C33.2146 168.609 54.3786 168.609 67.4124 161.083C73.9293 157.321 77.1878 152.385 77.1878 147.449V157.324Z" fill="#FFA8A8"/>
<path fill-rule="evenodd" clip-rule="evenodd" d="M77.1878 157.324H77.1753C77.4169 162.435 74.1628 167.592 67.4124 171.489C54.3786 179.014 33.2146 179.014 20.1807 171.489C13.4304 167.592 10.1762 162.435 10.4178 157.324H10.4053V147.449C10.4053 152.385 13.6638 157.321 20.1807 161.083C33.2146 168.609 54.3786 168.609 67.4124 161.083C73.9293 157.321 77.1878 152.385 77.1878 147.449V157.324Z" stroke="#262725" stroke-width="0.904813" stroke-linecap="round" stroke-linejoin="round"/>
<path fill-rule="evenodd" clip-rule="evenodd" d="M181.115 49.4212C181.115 45.4088 178.974 41.7013 175.499 39.6954C161.354 31.5285 124.326 10.1505 109.455 1.56426C108.151 0.811912 106.546 0.811912 105.243 1.56426C103.94 2.31662 98.2632 5.70514 98.2632 5.70514C98.2632 5.70514 103.137 126.345 103.137 151.968C103.137 155.981 105.278 159.688 108.753 161.694C122.899 169.861 170.384 204.694 170.384 204.694C170.384 204.694 177.706 200.577 179.009 199.825C180.312 199.073 181.115 197.683 181.115 196.178C181.115 169.163 181.115 75.0451 181.115 49.4212Z" fill="white"/>
<path fill-rule="evenodd" clip-rule="evenodd" d="M181.115 49.4212C181.115 45.4088 178.974 41.7013 175.499 39.6954C161.354 31.5285 124.326 10.1505 109.455 1.56426C108.151 0.811912 106.546 0.811912 105.243 1.56426C103.94 2.31662 98.2632 5.70514 98.2632 5.70514C98.2632 5.70514 103.137 126.345 103.137 151.968C103.137 155.981 105.278 159.688 108.753 161.694C122.899 169.861 170.384 204.694 170.384 204.694C170.384 204.694 177.706 200.577 179.009 199.825C180.312 199.073 181.115 197.683 181.115 196.178C181.115 169.163 181.115 75.0451 181.115 49.4212Z" stroke="#262725" stroke-width="0.904813" stroke-linecap="round" stroke-linejoin="round"/>
<path fill-rule="evenodd" clip-rule="evenodd" d="M173.312 53.7108C173.312 49.8318 171.242 46.2474 167.883 44.3075C153.813 36.1845 116.237 14.4898 101.441 5.94795C100.182 5.22048 98.6298 5.22048 97.3698 5.94795C96.1099 6.67496 95.334 8.01952 95.334 9.474C95.334 36.2393 95.334 131.305 95.334 156.688C95.334 160.567 97.4033 164.152 100.763 166.091C114.833 174.215 152.409 195.909 167.204 204.451C168.464 205.178 170.016 205.178 171.276 204.451C172.535 203.724 173.312 202.38 173.312 200.925C173.312 174.16 173.312 79.0939 173.312 53.7108Z" fill="#2639ED"/>
<path fill-rule="evenodd" clip-rule="evenodd" d="M173.312 53.7108C173.312 49.8318 171.242 46.2474 167.883 44.3075C153.813 36.1845 116.237 14.4898 101.441 5.94795C100.182 5.22048 98.6298 5.22048 97.3698 5.94795C96.1099 6.67496 95.334 8.01952 95.334 9.474C95.334 36.2393 95.334 131.305 95.334 156.688C95.334 160.567 97.4033 164.152 100.763 166.091C114.833 174.215 152.409 195.909 167.204 204.451C168.464 205.178 170.016 205.178 171.276 204.451C172.535 203.724 173.312 202.38 173.312 200.925C173.312 174.16 173.312 79.094 173.312 53.7108Z" stroke="white" stroke-width="0.904813" stroke-linecap="round" stroke-linejoin="round"/>
<path fill-rule="evenodd" clip-rule="evenodd" d="M160.006 43.2943V52.1719C160.006 52.8405 159.649 53.4585 159.07 53.7928C158.491 54.1272 157.777 54.1272 157.198 53.7928C148.533 48.7897 122.203 33.5883 112.385 27.9197C110.068 26.5824 108.641 24.1104 108.641 21.4358V13.639L101.071 9.26832C100.492 8.934 99.7783 8.934 99.1992 9.26832C98.6201 9.60265 98.2632 10.2206 98.2632 10.8893C98.2632 30.6011 98.2632 134.264 98.2632 156.79C98.2632 159.466 99.6905 161.937 102.007 163.275C114.763 170.64 156.36 194.656 167.576 201.131C168.155 201.466 168.869 201.466 169.448 201.131C170.027 200.796 170.384 200.179 170.384 199.51C170.384 179.798 170.384 76.1354 170.384 53.6087C170.384 50.9336 168.957 48.4621 166.64 47.1248L160.006 43.2943Z" fill="#2639ED"/>
<path fill-rule="evenodd" clip-rule="evenodd" d="M160.006 43.2943V52.1719C160.006 52.8405 159.649 53.4585 159.07 53.7928C158.491 54.1272 157.777 54.1272 157.198 53.7928C148.533 48.7897 122.203 33.5883 112.385 27.9197C110.068 26.5824 108.641 24.1104 108.641 21.4358V13.639L101.071 9.26832C100.492 8.934 99.7783 8.934 99.1992 9.26832C98.6201 9.60265 98.2632 10.2206 98.2632 10.8893C98.2632 30.6011 98.2632 134.264 98.2632 156.79C98.2632 159.466 99.6905 161.937 102.007 163.275C114.763 170.64 156.36 194.656 167.576 201.131C168.155 201.466 168.869 201.466 169.448 201.131C170.027 200.796 170.384 200.179 170.384 199.51C170.384 179.798 170.384 76.1354 170.384 53.6087C170.384 50.9336 168.957 48.4621 166.64 47.1248L160.006 43.2943Z" stroke="#CACACA" stroke-width="0.904813" stroke-linecap="round" stroke-linejoin="round"/>
<path fill-rule="evenodd" clip-rule="evenodd" d="M87.1895 136.578C88.4797 135.865 90.0514 135.877 91.3317 136.617C103.542 143.666 130.2 159.058 141.832 165.773C145.307 167.779 147.447 171.487 147.447 175.499C147.447 180.136 147.447 186.381 147.447 191.191C147.447 192.43 146.903 193.591 145.983 194.383C150.153 191.997 162.355 185.015 163.433 184.393C164.736 183.64 165.539 182.25 165.539 180.745C165.539 175.935 165.539 169.69 165.539 165.054C165.539 161.041 163.399 157.334 159.924 155.328C148.292 148.612 121.634 133.221 109.423 126.171C108.12 125.419 106.515 125.419 105.212 126.171L87.1895 136.578Z" fill="white"/>
<path fill-rule="evenodd" clip-rule="evenodd" d="M87.1895 136.578C88.4797 135.865 90.0514 135.877 91.3317 136.617C103.542 143.666 130.2 159.058 141.832 165.773C145.307 167.779 147.447 171.487 147.447 175.499C147.447 180.136 147.447 186.381 147.447 191.191C147.447 192.43 146.903 193.591 145.983 194.383C150.153 191.997 162.355 185.015 163.433 184.393C164.736 183.64 165.539 182.25 165.539 180.745C165.539 175.935 165.539 169.69 165.539 165.054C165.539 161.041 163.399 157.334 159.924 155.328C148.292 148.612 121.634 133.221 109.423 126.171C108.12 125.419 106.515 125.419 105.212 126.171L87.1895 136.578Z" stroke="#262725" stroke-width="0.904813" stroke-linecap="round" stroke-linejoin="round"/>
<path fill-rule="evenodd" clip-rule="evenodd" d="M147.447 175.284C147.447 171.405 145.378 167.821 142.018 165.881C130.421 159.185 103.298 143.526 91.1216 136.495C89.8617 135.768 88.3099 135.768 87.05 136.495C85.79 137.223 85.0142 138.567 85.0142 140.022C85.0142 144.937 85.0142 151.437 85.0142 156.171C85.0142 160.05 87.0835 163.634 90.443 165.574C102.04 172.27 129.163 187.929 141.34 194.959C142.6 195.687 144.151 195.687 145.411 194.959C146.671 194.232 147.447 192.887 147.447 191.433C147.447 186.517 147.447 180.018 147.447 175.284Z" fill="white"/>
<path fill-rule="evenodd" clip-rule="evenodd" d="M147.447 175.284C147.447 171.405 145.378 167.821 142.018 165.881C130.421 159.185 103.298 143.526 91.1216 136.495C89.8617 135.768 88.3099 135.768 87.05 136.495C85.79 137.223 85.0142 138.567 85.0142 140.022C85.0142 144.937 85.0142 151.437 85.0142 156.171C85.0142 160.05 87.0835 163.634 90.443 165.574C102.04 172.27 129.163 187.929 141.34 194.959C142.6 195.687 144.151 195.687 145.411 194.959C146.671 194.232 147.447 192.887 147.447 191.433C147.447 186.517 147.447 180.018 147.447 175.284Z" stroke="#262725" stroke-width="0.904813" stroke-linecap="round" stroke-linejoin="round"/>
<path fill-rule="evenodd" clip-rule="evenodd" d="M115.14 92.0013C120.562 95.1315 124.964 102.756 124.964 109.017C124.964 115.278 120.562 117.819 115.14 114.689C109.718 111.558 105.316 103.934 105.316 97.6731C105.316 91.4123 109.718 88.8707 115.14 92.0013Z" fill="white"/>
<path fill-rule="evenodd" clip-rule="evenodd" d="M115.14 92.0013C120.562 95.1315 124.964 102.756 124.964 109.017C124.964 115.278 120.562 117.819 115.14 114.689C109.718 111.558 105.316 103.934 105.316 97.6731C105.316 91.4123 109.718 88.8707 115.14 92.0013Z" stroke="white" stroke-width="0.904813" stroke-linecap="round" stroke-linejoin="round"/>
<path fill-rule="evenodd" clip-rule="evenodd" d="M124.5 125.195C129.922 128.325 134.324 135.95 134.324 142.211C134.324 148.471 129.922 151.013 124.5 147.883C119.078 144.752 114.675 137.128 114.675 130.867C114.675 124.606 119.078 122.064 124.5 125.195Z" fill="#FFA8A8"/>
<path fill-rule="evenodd" clip-rule="evenodd" d="M124.5 125.195C129.922 128.325 134.324 135.95 134.324 142.211C134.324 148.471 129.922 151.013 124.5 147.883C119.078 144.752 114.675 137.128 114.675 130.867C114.675 124.606 119.078 122.064 124.5 125.195Z" stroke="#262725" stroke-width="0.904813" stroke-linecap="round" stroke-linejoin="round"/>
<path fill-rule="evenodd" clip-rule="evenodd" d="M96.4981 147.332C99.845 149.265 102.563 153.971 102.563 157.836C102.563 161.701 99.845 163.269 96.4981 161.337C93.1512 159.405 90.4341 154.698 90.4341 150.833C90.4341 146.969 93.1512 145.4 96.4981 147.332Z" fill="#2639ED"/>
<path fill-rule="evenodd" clip-rule="evenodd" d="M96.4981 147.332C99.845 149.265 102.563 153.971 102.563 157.836C102.563 161.701 99.845 163.269 96.4981 161.337C93.1512 159.405 90.4341 154.698 90.4341 150.833C90.4341 146.969 93.1512 145.4 96.4981 147.332Z" stroke="#262725" stroke-width="0.904813" stroke-linecap="round" stroke-linejoin="round"/>
<path fill-rule="evenodd" clip-rule="evenodd" d="M117.753 124.4L141.408 110.745C141.548 110.654 141.692 110.57 141.84 110.495L141.841 110.495C143.599 109.602 145.965 109.798 148.566 111.3C153.988 114.43 158.39 122.055 158.39 128.316C158.39 131.494 157.256 133.714 155.429 134.72L131.455 148.562C133.227 147.533 134.323 145.335 134.323 142.211C134.323 135.95 129.921 128.326 124.499 125.195C121.888 123.688 119.514 123.496 117.753 124.4Z" fill="white"/>
<path fill-rule="evenodd" clip-rule="evenodd" d="M117.753 124.4L141.408 110.744C141.548 110.654 141.692 110.57 141.84 110.495C143.599 109.602 145.965 109.798 148.566 111.3C153.988 114.43 158.39 122.055 158.39 128.316C158.39 131.494 157.256 133.714 155.429 134.72L131.455 148.562C133.227 147.533 134.323 145.335 134.323 142.211C134.323 135.95 129.921 128.325 124.499 125.195C121.888 123.688 119.514 123.496 117.753 124.4Z" stroke="#262725" stroke-width="0.904813" stroke-linecap="round" stroke-linejoin="round"/>
<path fill-rule="evenodd" clip-rule="evenodd" d="M114.169 91.4955C114.489 91.6434 114.813 91.8122 115.14 92.0013C120.562 95.1315 124.964 102.756 124.964 109.017C124.964 109.395 124.949 109.76 124.917 110.111C124.597 109.963 124.273 109.794 123.946 109.605C118.523 106.475 114.122 98.8503 114.122 92.5894C114.122 92.2112 114.138 91.8466 114.169 91.4955Z" fill="#FFA8A8"/>
<path fill-rule="evenodd" clip-rule="evenodd" d="M114.169 91.4955C114.489 91.6434 114.813 91.8122 115.14 92.0013C120.562 95.1315 124.964 102.756 124.964 109.017C124.964 109.395 124.949 109.76 124.917 110.111C124.597 109.963 124.273 109.794 123.946 109.605C118.523 106.475 114.122 98.8503 114.122 92.5894C114.122 92.2112 114.138 91.8466 114.169 91.4955Z" stroke="white" stroke-width="0.904813" stroke-linecap="round" stroke-linejoin="round"/>
<path fill-rule="evenodd" clip-rule="evenodd" d="M115.412 19.453C116.729 20.213 117.798 22.0647 117.798 23.5857C117.798 25.1063 116.729 25.7233 115.412 24.9628C114.095 24.2028 113.026 22.3511 113.026 20.8306C113.026 19.31 114.095 18.6925 115.412 19.453Z" fill="white"/>
<path fill-rule="evenodd" clip-rule="evenodd" d="M115.412 19.453C116.729 20.213 117.798 22.0647 117.798 23.5857C117.798 25.1063 116.729 25.7233 115.412 24.9628C114.095 24.2028 113.026 22.3511 113.026 20.8306C113.026 19.31 114.095 18.6925 115.412 19.453Z" stroke="white" stroke-width="0.904813" stroke-linecap="round" stroke-linejoin="round"/>
<path fill-rule="evenodd" clip-rule="evenodd" d="M89.2236 39.5502C90.5139 38.8372 92.0855 38.8503 93.3659 39.5895C105.576 46.6389 132.235 62.0303 143.866 68.7458C147.341 70.7518 149.481 74.4597 149.481 78.4716C149.481 83.1083 149.481 89.3529 149.481 94.1633C149.481 95.4025 148.937 96.5643 148.017 97.3555C152.188 94.9695 148.945 96.9045 150.023 96.282C151.327 95.5296 152.129 94.1394 152.129 92.6347C152.129 87.8242 152.129 81.5796 152.129 76.9434C152.129 72.931 149.989 69.2235 146.514 67.2171C134.882 60.5016 108.224 45.1102 96.0138 38.0608C94.7104 37.3085 93.1053 37.3085 91.8019 38.0608L89.2236 39.5502Z" fill="white"/>
<path fill-rule="evenodd" clip-rule="evenodd" d="M89.2236 39.5502C90.5139 38.8372 92.0855 38.8503 93.3659 39.5895C105.576 46.6389 132.235 62.0303 143.866 68.7458C147.341 70.7518 149.481 74.4597 149.481 78.4716C149.481 83.1083 149.481 89.3529 149.481 94.1633C149.481 95.4025 148.937 96.5643 148.017 97.3555C152.188 94.9695 148.945 96.9045 150.023 96.282C151.327 95.5296 152.129 94.1394 152.129 92.6347C152.129 87.8242 152.129 81.5796 152.129 76.9434C152.129 72.931 149.989 69.2235 146.514 67.2171C134.882 60.5016 108.224 45.1102 96.0138 38.0608C94.7104 37.3085 93.1053 37.3085 91.8019 38.0608L89.2236 39.5502Z" stroke="#262725" stroke-width="0.904813" stroke-linecap="round" stroke-linejoin="round"/>
<path fill-rule="evenodd" clip-rule="evenodd" d="M149.482 78.4717C149.482 74.4598 147.341 70.7519 143.867 68.7459C132.235 62.0304 105.576 46.6391 93.3662 39.5897C92.0633 38.8373 90.4577 38.8373 89.1548 39.5897C87.8518 40.342 87.0488 41.7323 87.0488 43.237C87.0488 48.0469 87.0488 54.292 87.0488 58.9282C87.0488 62.9406 89.1896 66.6481 92.6641 68.6541C104.296 75.3696 130.955 90.7614 143.165 97.8108C144.468 98.5631 146.073 98.5631 147.376 97.8108C148.679 97.0584 149.482 95.6682 149.482 94.1635C149.482 89.353 149.482 83.1085 149.482 78.4717Z" fill="white"/>
<path fill-rule="evenodd" clip-rule="evenodd" d="M149.482 78.4717C149.482 74.4598 147.341 70.7519 143.867 68.7459C132.235 62.0304 105.576 46.6391 93.3662 39.5897C92.0633 38.8373 90.4577 38.8373 89.1548 39.5897C87.8518 40.342 87.0488 41.7323 87.0488 43.237C87.0488 48.0469 87.0488 54.292 87.0488 58.9282C87.0488 62.9406 89.1896 66.6481 92.6641 68.6541C104.296 75.3696 130.955 90.7614 143.165 97.8108C144.468 98.5631 146.073 98.5631 147.376 97.8108C148.679 97.0584 149.482 95.6682 149.482 94.1635C149.482 89.353 149.482 83.1085 149.482 78.4717Z" stroke="#262725" stroke-width="0.904813" stroke-linecap="round" stroke-linejoin="round"/>
<path fill-rule="evenodd" clip-rule="evenodd" d="M148.726 40.7956C148.726 40.4323 148.532 40.0962 148.218 39.9148C145.218 38.183 129.801 29.2819 124.86 26.429C124.545 26.2471 124.157 26.2471 123.842 26.429C123.528 26.6109 123.334 26.9466 123.334 27.3098C123.334 27.3506 123.334 27.3899 123.334 27.4284C123.334 27.7921 123.528 28.1278 123.842 28.3092C126.842 30.041 142.259 38.9421 147.2 41.795C147.515 41.9769 147.903 41.9769 148.218 41.795C148.532 41.6136 148.726 41.2774 148.726 40.9142C148.726 40.8734 148.726 40.8341 148.726 40.7956Z" fill="white"/>
<path fill-rule="evenodd" clip-rule="evenodd" d="M137.676 172.463L107.183 154.858V158.764L137.676 176.37V172.463Z" fill="#2639ED"/>
<path fill-rule="evenodd" clip-rule="evenodd" d="M137.676 172.463L107.183 154.858V158.764L137.676 176.37V172.463Z" stroke="#262725" stroke-width="0.904813" stroke-linecap="round" stroke-linejoin="round"/>
<path fill-rule="evenodd" clip-rule="evenodd" d="M122.429 171.044L107.183 162.241V166.148L122.429 174.95V171.044Z" fill="#2639ED"/>
<path fill-rule="evenodd" clip-rule="evenodd" d="M122.429 171.044L107.183 162.241V166.148L122.429 174.95V171.044Z" stroke="#262725" stroke-width="0.904813" stroke-linecap="round" stroke-linejoin="round"/>
</svg>
