<svg width="240" height="144" viewBox="0 0 240 144" fill="none" xmlns="http://www.w3.org/2000/svg">
<g id="GDPR-pana 1" clip-path="url(#clip0_3505_4402)">
<g id="freepik--background-complete--inject-152">
<path id="Vector" d="M72.2018 16.0896H52.8706V42.544H72.2018V16.0896Z" fill="#F5F5F5"/>
<path id="Vector_2" d="M67.3024 19.4209H47.9712V45.8753H67.3024V19.4209Z" fill="#E0E0E0"/>
<path id="Vector_3" d="M158.422 55.5969H158.298H157.923H156.467L151.005 55.6161L132.16 55.6801H132.109V55.6289C131.902 54.9205 131.865 54.1734 132.002 53.4482C132.138 52.723 132.444 52.0403 132.895 51.4558C133.345 50.8713 133.927 50.4014 134.594 50.0845C135.26 49.7676 135.992 49.6125 136.73 49.6321L136.662 49.7249C136.543 49.3092 136.493 48.8767 136.515 48.4449C136.537 47.7212 136.748 47.0158 137.126 46.3985C137.504 45.7811 138.037 45.2732 138.672 44.9249C139.29 44.6027 139.977 44.4363 140.673 44.4402C141.37 44.4441 142.055 44.6182 142.669 44.9473L142.57 44.9825C142.911 44.1925 143.412 43.4819 144.041 42.8953C144.671 42.3087 145.415 41.859 146.227 41.5745C146.975 41.292 147.772 41.1655 148.57 41.203C149.368 41.2404 150.15 41.4409 150.867 41.7921C152.161 42.4743 153.179 43.5835 153.747 44.9313C154.267 46.1139 154.39 47.4328 154.099 48.6913L154.048 48.6305C154.791 48.5536 155.541 48.6636 156.23 48.9505C156.844 49.1982 157.396 49.5759 157.85 50.0577C158.056 50.2745 158.227 50.5217 158.358 50.7905C158.475 51.0388 158.566 51.2982 158.63 51.5649C158.74 52.0309 158.803 52.507 158.816 52.9857C158.838 53.6429 158.781 54.3005 158.646 54.9441C158.61 55.112 158.564 55.2776 158.509 55.4401L158.451 55.6001" fill="#EBEBEB"/>
<path id="Vector_4" d="M208.685 43.0241C207.793 43.1729 206.961 43.5699 206.284 44.1695C205.607 44.7691 205.113 45.5472 204.858 46.4147C204.602 47.2821 204.596 48.204 204.84 49.0747C205.085 49.9453 205.569 50.7297 206.238 51.338C206.907 51.9463 207.734 52.3539 208.624 52.5142C209.514 52.6745 210.431 52.581 211.27 52.2444C212.11 51.9078 212.837 51.3417 213.37 50.6109C213.902 49.8801 214.218 49.0142 214.282 48.1121L215.603 47.8913L216.32 46.4001L217.351 47.5969L219.005 47.3217L219.712 45.8369L220.743 47.0337L222.163 46.7969L222.595 45.8913L223.235 46.6209L224.064 46.4833L224.973 45.2801L223.415 43.5649L213.575 45.2001C213.066 44.3945 212.33 43.7577 211.46 43.3704C210.589 42.9831 209.624 42.8625 208.685 43.0241ZM206.003 48.3553C205.959 48.086 205.995 47.8095 206.107 47.5607C206.219 47.3119 206.403 47.1019 206.634 46.9571C206.866 46.8124 207.135 46.7394 207.408 46.7474C207.68 46.7554 207.945 46.844 208.167 47.0021C208.39 47.1601 208.561 47.3805 208.658 47.6355C208.756 47.8904 208.776 48.1685 208.715 48.4348C208.655 48.701 208.517 48.9434 208.319 49.1314C208.121 49.3194 207.872 49.4447 207.603 49.4913C207.424 49.5225 207.24 49.5178 207.062 49.4775C206.884 49.4372 206.716 49.362 206.567 49.2564C206.418 49.1508 206.292 49.0168 206.195 48.8622C206.098 48.7075 206.033 48.5353 206.003 48.3553Z" fill="#EBEBEB"/>
<path id="Vector_5" d="M203.798 79.8369L204.394 90.7489C204.403 90.9362 204.484 91.1128 204.62 91.2424C204.756 91.3721 204.936 91.4451 205.123 91.4464L224.755 91.5872C224.852 91.5881 224.948 91.5699 225.037 91.5337C225.127 91.4975 225.209 91.444 225.278 91.3762C225.346 91.3085 225.401 91.2278 225.439 91.1388C225.477 91.0498 225.497 90.9543 225.498 90.8576L225.558 82.3649C225.559 82.2677 225.541 82.1713 225.504 82.0812C225.468 81.9912 225.414 81.9093 225.345 81.8403C225.277 81.7713 225.195 81.7165 225.106 81.6791C225.016 81.6417 224.92 81.6225 224.822 81.6225H212.749C212.652 81.6228 212.557 81.6037 212.467 81.5663C212.378 81.529 212.298 81.474 212.23 81.4049L210.147 79.3249C210.01 79.1882 209.825 79.1102 209.632 79.1073L204.541 79.0721C204.441 79.0711 204.342 79.0904 204.25 79.1288C204.158 79.1672 204.075 79.2239 204.006 79.2954C203.936 79.3669 203.882 79.4518 203.847 79.5448C203.811 79.6379 203.795 79.7373 203.798 79.8369Z" fill="#EBEBEB"/>
<path id="Vector_6" d="M225.575 80.3421L204.123 80.1848L204.029 93.0037L225.481 93.1609L225.575 80.3421Z" fill="#F5F5F5"/>
<path id="Vector_7" d="M202.41 81.3215L203.949 94.6975C203.962 94.8129 204.016 94.9197 204.102 94.9976C204.188 95.0755 204.3 95.119 204.416 95.1199L225.322 95.2703C225.441 95.2715 225.556 95.2276 225.644 95.1474C225.731 95.0673 225.786 94.9568 225.795 94.8383L226.947 81.4783C226.953 81.4131 226.945 81.3474 226.924 81.2855C226.903 81.2235 226.869 81.1666 226.825 81.1184C226.781 81.0702 226.727 81.0318 226.667 81.0056C226.607 80.9794 226.542 80.966 226.477 80.9663L202.88 80.7935C202.813 80.793 202.747 80.8068 202.686 80.8339C202.625 80.8611 202.57 80.901 202.525 80.9509C202.481 81.0009 202.448 81.0598 202.428 81.1237C202.408 81.1876 202.402 81.255 202.41 81.3215Z" fill="#EBEBEB"/>
</g>
<g id="freepik--User--inject-152">
<path id="Vector_8" d="M57.0176 72.4543H20.8384V96.6847H57.0176V72.4543Z" fill="#FAFAFA"/>
<path id="Vector_9" d="M47.1872 87.152H46.2272V81.3504C46.2039 80.6959 45.9275 80.076 45.4562 79.6212C44.985 79.1664 44.3557 78.9123 43.7008 78.9123C43.0459 78.9123 42.4165 79.1664 41.9453 79.6212C41.474 80.076 41.1977 80.6959 41.1744 81.3504V87.152H40.2144V81.3504C40.2418 80.4432 40.6215 79.5823 41.273 78.9503C41.9244 78.3183 42.7963 77.9648 43.704 77.9648C44.6116 77.9648 45.4835 78.3183 46.135 78.9503C46.7864 79.5823 47.1661 80.4432 47.1936 81.3504L47.1872 87.152Z" fill="#263238"/>
<path id="Vector_10" d="M47.3856 84.5696H40.0096C39.4105 84.5696 38.9248 85.0553 38.9248 85.6544V89.6096C38.9248 90.2087 39.4105 90.6944 40.0096 90.6944H47.3856C47.9847 90.6944 48.4704 90.2087 48.4704 89.6096V85.6544C48.4704 85.0553 47.9847 84.5696 47.3856 84.5696Z" fill="#263238"/>
<path id="Vector_11" d="M43.6991 87.6319C43.5416 87.6319 43.3875 87.5852 43.2565 87.4976C43.1254 87.4101 43.0233 87.2857 42.963 87.1401C42.9027 86.9945 42.8869 86.8342 42.9177 86.6797C42.9484 86.5251 43.0243 86.3831 43.1357 86.2717C43.2472 86.1603 43.3891 86.0844 43.5437 86.0536C43.6983 86.0229 43.8585 86.0387 44.0041 86.099C44.1497 86.1593 44.2741 86.2614 44.3617 86.3925C44.4492 86.5235 44.4959 86.6775 44.4959 86.8351C44.4959 87.0465 44.412 87.2491 44.2626 87.3986C44.1131 87.548 43.9105 87.6319 43.6991 87.6319Z" fill="#455A64"/>
<path id="Vector_12" d="M43.9166 87.1521H43.4814V88.7937H43.9166V87.1521Z" fill="#455A64"/>
<path id="Vector_13" d="M38.6881 87.0815C39.3792 86.777 39.9656 86.2762 40.3746 85.6413C40.7837 85.0065 40.9973 84.2655 40.9889 83.5103C40.9889 81.3759 39.3889 79.6383 37.3825 79.6287C35.3761 79.6191 33.7537 81.3407 33.7441 83.4687C33.7275 84.2313 33.9383 84.9816 34.3498 85.6239C34.7613 86.2662 35.3548 86.7714 36.0545 87.0751C30.4961 87.9231 30.7329 93.9743 30.7329 93.9743L43.9137 94.0351C43.9137 94.0351 44.2145 87.9167 38.6881 87.0815Z" fill="#2639ED"/>
<path id="Vector_14" d="M57.0142 96.6881C57.0142 96.6881 57.0142 96.5345 57.0142 96.2433C57.0142 95.9521 57.0142 95.5233 57.0142 94.9633C57.0142 93.8401 57.0142 92.1953 56.995 90.0897C56.995 85.8785 56.9758 79.8305 56.963 72.4545L57.027 72.5217H20.867L20.9502 72.4385C20.9502 81.0785 20.9502 89.2801 20.9502 96.6721L20.8766 96.5953L46.9342 96.6305L54.3838 96.6529H56.3646H56.8766H57.0526H56.3838H54.4158L46.9854 96.6753L20.8766 96.7105H20.7998V96.6369C20.7998 89.2449 20.7998 81.0369 20.7998 72.4033V72.3201H20.8862L57.0622 72.3393H57.1294V72.4033C57.1294 79.7953 57.1038 85.8593 57.0942 90.0801C57.0942 92.1793 57.0942 93.8209 57.0782 94.9409C57.0782 95.4945 57.0782 95.9169 57.0782 96.2209C57.0782 96.5249 57.0142 96.6881 57.0142 96.6881Z" fill="#263238"/>
<path id="Vector_15" d="M57.0081 75.3664C57.0081 75.4112 48.9121 75.4496 38.9313 75.4496C28.9505 75.4496 20.8545 75.4112 20.8545 75.3664C20.8545 75.3216 28.9473 75.2832 38.9313 75.2832C48.9153 75.2832 57.0081 75.3216 57.0081 75.3664Z" fill="#263238"/>
<path id="Vector_16" d="M23.219 73.9137C23.219 73.9878 23.1971 74.0601 23.1559 74.1217C23.1148 74.1833 23.0563 74.2313 22.9879 74.2596C22.9195 74.2879 22.8442 74.2954 22.7716 74.2809C22.6989 74.2665 22.6322 74.2308 22.5799 74.1784C22.5275 74.1261 22.4919 74.0594 22.4774 73.9867C22.463 73.9141 22.4704 73.8388 22.4987 73.7704C22.5271 73.702 22.575 73.6435 22.6366 73.6024C22.6982 73.5613 22.7706 73.5393 22.8446 73.5393C22.9439 73.5393 23.0391 73.5788 23.1094 73.649C23.1796 73.7192 23.219 73.8144 23.219 73.9137Z" fill="#263238"/>
<path id="Vector_17" d="M24.4451 73.9137C24.4451 74.013 24.4056 74.1082 24.3354 74.1784C24.2652 74.2487 24.17 74.2881 24.0707 74.2881C23.9714 74.2881 23.8762 74.2487 23.8059 74.1784C23.7357 74.1082 23.6963 74.013 23.6963 73.9137C23.6963 73.8144 23.7357 73.7192 23.8059 73.649C23.8762 73.5788 23.9714 73.5393 24.0707 73.5393C24.17 73.5393 24.2652 73.5788 24.3354 73.649C24.4056 73.7192 24.4451 73.8144 24.4451 73.9137Z" fill="#263238"/>
<path id="Vector_18" d="M25.76 73.9136C25.76 73.9872 25.7383 74.0592 25.6975 74.1206C25.6568 74.1819 25.5989 74.2299 25.531 74.2585C25.4632 74.2871 25.3884 74.295 25.316 74.2813C25.2437 74.2677 25.177 74.2329 25.1243 74.1815C25.0715 74.1301 25.0351 74.0643 25.0196 73.9923C25.0041 73.9204 25.0102 73.8454 25.037 73.7768C25.0639 73.7083 25.1104 73.6492 25.1707 73.6069C25.231 73.5646 25.3024 73.5411 25.376 73.5392C25.426 73.5379 25.4757 73.5466 25.5223 73.5649C25.5688 73.5831 25.6112 73.6105 25.647 73.6454C25.6828 73.6803 25.7112 73.722 25.7306 73.7681C25.7501 73.8141 25.76 73.8636 25.76 73.9136Z" fill="#263238"/>
<path id="Vector_19" d="M57.0142 96.6881C57.0142 96.6881 57.0142 96.5345 57.0142 96.2433C57.0142 95.9521 57.0142 95.5233 57.0142 94.9633C57.0142 93.8401 57.0142 92.1953 56.995 90.0897C56.995 85.8785 56.9758 79.8305 56.963 72.4545L57.027 72.5217H20.867L20.9502 72.4385C20.9502 81.0785 20.9502 89.2801 20.9502 96.6721L20.8766 96.5953L46.9342 96.6305L54.3838 96.6529H56.3646H56.8766H57.0526H56.3838H54.4158L46.9854 96.6753L20.8766 96.7105H20.7998V96.6369C20.7998 89.2449 20.7998 81.0369 20.7998 72.4033V72.3201H20.8862L57.0622 72.3393H57.1294V72.4033C57.1294 79.7953 57.1038 85.8593 57.0942 90.0801C57.0942 92.1793 57.0942 93.8209 57.0782 94.9409C57.0782 95.4945 57.0782 95.9169 57.0782 96.2209C57.0782 96.5249 57.0142 96.6881 57.0142 96.6881Z" fill="#263238"/>
<path id="Vector_20" d="M38.6911 97.4943C38.6463 97.4943 38.6079 97.3151 38.6079 97.0943C38.6079 96.8735 38.6463 96.6943 38.6911 96.6943C38.7359 96.6943 38.7775 96.8735 38.7775 97.0943C38.7775 97.3151 38.7391 97.4943 38.6911 97.4943Z" fill="#263238"/>
<path id="Vector_21" d="M38.6914 100.989C38.6102 100.704 38.582 100.407 38.6082 100.112C38.5818 99.8183 38.61 99.5221 38.6914 99.2385C38.7767 99.5214 38.806 99.8181 38.7778 100.112C38.8059 100.407 38.7765 100.705 38.6914 100.989Z" fill="#263238"/>
<path id="Vector_22" d="M38.6914 104.49C38.6102 104.205 38.582 103.908 38.6082 103.613C38.5818 103.319 38.61 103.023 38.6914 102.739C38.7767 103.022 38.806 103.319 38.7778 103.613C38.8059 103.908 38.7765 104.206 38.6914 104.49Z" fill="#263238"/>
<path id="Vector_23" d="M38.6914 107.99C38.6102 107.706 38.582 107.408 38.6082 107.114C38.5818 106.82 38.61 106.524 38.6914 106.24C38.7767 106.523 38.806 106.82 38.7778 107.114C38.8059 107.409 38.7765 107.706 38.6914 107.99Z" fill="#263238"/>
<path id="Vector_24" d="M38.6914 111.491C38.6102 111.206 38.582 110.909 38.6082 110.614C38.5818 110.32 38.61 110.024 38.6914 109.741C38.7767 110.024 38.806 110.32 38.7778 110.614C38.8059 110.909 38.7765 111.207 38.6914 111.491Z" fill="#263238"/>
<path id="Vector_25" d="M39.4911 114.042C39.2328 114.123 38.9607 114.151 38.6911 114.125L38.6079 114.042V113.741C38.6079 113.645 38.6079 113.558 38.6271 113.485C38.6271 113.341 38.6623 113.251 38.6847 113.251C38.7071 113.251 38.7295 113.341 38.7455 113.485C38.7455 113.558 38.7455 113.645 38.7455 113.741V113.891V114.042C38.7071 114.003 38.8255 114.125 38.6591 113.958C38.9392 113.927 39.2227 113.956 39.4911 114.042Z" fill="#263238"/>
<path id="Vector_26" d="M42.6371 114.042C42.3831 114.123 42.1152 114.151 41.8499 114.125C41.5856 114.151 41.3188 114.123 41.0659 114.042C41.3188 113.961 41.5856 113.932 41.8499 113.958C42.1152 113.932 42.3831 113.961 42.6371 114.042Z" fill="#263238"/>
<path id="Vector_27" d="M45.7824 114.042C45.5284 114.123 45.2605 114.151 44.9952 114.125C44.7299 114.151 44.462 114.123 44.208 114.042C44.462 113.961 44.7299 113.932 44.9952 113.958C45.2605 113.932 45.5284 113.961 45.7824 114.042Z" fill="#263238"/>
<path id="Vector_28" d="M48.9279 114.042C48.6739 114.123 48.406 114.151 48.1407 114.125C47.8754 114.151 47.6075 114.123 47.3535 114.042C47.6075 113.961 47.8754 113.932 48.1407 113.958C48.406 113.932 48.6739 113.961 48.9279 114.042Z" fill="#263238"/>
<path id="Vector_29" d="M52.0707 114.041C51.5529 114.152 51.0174 114.152 50.4995 114.041C51.0174 113.931 51.5529 113.931 52.0707 114.041Z" fill="#263238"/>
<path id="Vector_30" d="M55.2157 114.041C54.6979 114.152 54.1624 114.152 53.6445 114.041C54.1624 113.931 54.6979 113.931 55.2157 114.041Z" fill="#263238"/>
<path id="Vector_31" d="M58.3615 114.042C57.8426 114.153 57.306 114.153 56.7871 114.042C57.306 113.931 57.8426 113.931 58.3615 114.042Z" fill="#263238"/>
<path id="Vector_32" d="M61.5043 114.041C60.9864 114.152 60.451 114.152 59.9331 114.041C60.451 113.931 60.9864 113.931 61.5043 114.041Z" fill="#263238"/>
<path id="Vector_33" d="M64.6493 114.041C64.1315 114.152 63.596 114.152 63.0781 114.041C63.596 113.931 64.1315 113.931 64.6493 114.041Z" fill="#263238"/>
<path id="Vector_34" d="M67.7951 114.042C67.2762 114.153 66.7396 114.153 66.2207 114.042C66.7396 113.931 67.2762 113.931 67.7951 114.042Z" fill="#263238"/>
<path id="Vector_35" d="M70.9379 114.041C70.42 114.152 69.8846 114.152 69.3667 114.041C69.8846 113.931 70.42 113.931 70.9379 114.041Z" fill="#263238"/>
<path id="Vector_36" d="M73.3117 114.042C73.3117 114.086 73.1325 114.125 72.9117 114.125C72.6909 114.125 72.5117 114.086 72.5117 114.042C72.5117 113.997 72.6909 113.958 72.9117 113.958C73.1325 113.958 73.3117 113.997 73.3117 114.042Z" fill="#263238"/>
</g>
<g id="freepik--Document--inject-152">
<path id="Vector_37" d="M63.9904 23.4849H44.6592V49.9393H63.9904V23.4849Z" fill="white"/>
<path id="Vector_38" d="M63.9998 49.9198C63.9998 49.9198 63.9998 49.875 63.9998 49.7886C63.9998 49.7022 63.9998 49.5742 63.9998 49.4142C63.9998 49.0942 63.9998 48.595 63.9998 47.9678C63.9998 46.7038 63.9998 44.8606 63.9742 42.5278C63.9742 37.8718 63.9391 31.2702 63.9167 23.459L64.003 23.5454L44.675 23.5678L44.771 23.4718V49.9262L44.6942 49.8494L58.7326 49.8782L62.6398 49.8974H63.667H64.0254C64.0254 49.8974 63.9135 49.8974 63.6862 49.8974H62.6719L58.7806 49.9198L44.7006 49.971H44.6206V49.891C44.6206 42.467 44.5982 33.3182 44.5854 23.4366V23.3406H44.6846H64.0126H64.1023V23.4302C64.1023 31.2638 64.0798 37.8878 64.0702 42.5566C64.0702 44.8766 64.0702 46.7166 64.0511 47.971C64.0511 48.5918 64.0511 49.0686 64.0511 49.3982C64.0511 49.555 64.0511 49.6766 64.0511 49.763C64.0392 49.8168 64.022 49.8693 63.9998 49.9198Z" fill="#263238"/>
<path id="Vector_39" d="M56.4767 28.7998C56.4767 28.8542 54.3743 28.8958 51.7791 28.899C49.1839 28.9022 47.0815 28.8606 47.0815 28.8062C47.0815 28.7518 49.1839 28.707 51.7791 28.707C54.3743 28.707 56.4767 28.7454 56.4767 28.7998Z" fill="#263238"/>
<path id="Vector_40" d="M61.5583 31.0945C61.5583 31.1489 58.3167 31.1937 54.3199 31.1969C50.3231 31.2001 47.0815 31.1585 47.0815 31.1041C47.0815 31.0497 50.3231 31.0049 54.3199 31.0049C58.3167 31.0049 61.5583 31.0401 61.5583 31.0945Z" fill="#263238"/>
<path id="Vector_41" d="M61.5618 33.4943C61.5618 33.5455 58.3202 33.5903 54.3234 33.5935C50.3266 33.5967 47.085 33.5551 47.085 33.5039C47.085 33.4527 50.3266 33.4047 54.3234 33.4015C58.3202 33.3983 61.5618 33.4399 61.5618 33.4943Z" fill="#263238"/>
<path id="Vector_42" d="M61.562 35.8913C61.562 35.9457 58.3236 35.9905 54.3268 35.9937C50.33 35.9969 47.0884 35.9553 47.0884 35.9009C47.0884 35.8465 50.3268 35.8017 54.3268 35.7985C58.3268 35.7953 61.562 35.8401 61.562 35.8913Z" fill="#263238"/>
<path id="Vector_43" d="M61.5652 38.288C61.5652 38.3424 58.3236 38.3872 54.3268 38.3904C50.33 38.3936 47.0884 38.352 47.0884 38.3008C47.0884 38.2496 50.33 38.2016 54.3268 38.1984C58.3236 38.1952 61.5652 38.2368 61.5652 38.288Z" fill="#263238"/>
<path id="Vector_44" d="M61.5649 40.6879C61.5649 40.7423 58.3265 40.7871 54.3297 40.7903C50.3329 40.7935 47.0913 40.7519 47.0913 40.6975C47.0913 40.6431 50.3297 40.5983 54.3297 40.5951C58.3297 40.5919 61.5649 40.6399 61.5649 40.6879Z" fill="#263238"/>
<path id="Vector_45" d="M61.5681 43.0849C61.5681 43.1393 58.3265 43.1841 54.3297 43.1873C50.3329 43.1905 47.0913 43.1489 47.0913 43.0977C47.0913 43.0465 50.3329 42.9985 54.3297 42.9953C58.3265 42.9921 61.5681 43.0337 61.5681 43.0849Z" fill="#263238"/>
<path id="Vector_46" d="M54.8739 45.4878C54.8739 45.5422 53.1331 45.587 50.9859 45.587C48.8387 45.587 47.0947 45.5486 47.0947 45.4942C47.0947 45.4398 48.8355 45.395 50.9859 45.395C53.1363 45.395 54.8739 45.4398 54.8739 45.4878Z" fill="#263238"/>
<path id="Vector_47" d="M62.3102 51.856C64.4787 51.856 66.2366 50.0981 66.2366 47.9296C66.2366 45.7611 64.4787 44.0032 62.3102 44.0032C60.1417 44.0032 58.3838 45.7611 58.3838 47.9296C58.3838 50.0981 60.1417 51.856 62.3102 51.856Z" fill="#2639ED"/>
<path id="Vector_48" d="M64.5636 46.416C64.73 46.5728 63.9588 47.6704 62.842 48.8704C62.6596 49.0624 62.4836 49.2448 62.314 49.4144L62.042 49.6832L61.77 49.456C60.794 48.6368 60.154 47.9328 60.2724 47.7792C60.3908 47.6256 61.2324 48.0768 62.266 48.8224L61.7252 48.864C61.882 48.6848 62.0452 48.4928 62.2308 48.3008C63.3604 47.1008 64.394 46.2592 64.5636 46.416Z" fill="#E0E0E0"/>
<path id="Vector_49" d="M52.861 51.3825C52.7501 50.8549 52.7501 50.31 52.861 49.7825C52.972 50.31 52.972 50.8549 52.861 51.3825Z" fill="#263238"/>
<path id="Vector_50" d="M52.861 54.5824C52.7501 54.0549 52.7501 53.51 52.861 52.9824C52.972 53.51 52.972 54.0549 52.861 54.5824Z" fill="#263238"/>
<path id="Vector_51" d="M52.861 57.7824C52.7501 57.2548 52.7501 56.7099 52.861 56.1824C52.972 56.7099 52.972 57.2548 52.861 57.7824Z" fill="#263238"/>
<path id="Vector_52" d="M52.861 60.9823C52.7501 60.4548 52.7501 59.9099 52.861 59.3823C52.972 59.9099 52.972 60.4548 52.861 60.9823Z" fill="#263238"/>
<path id="Vector_53" d="M52.861 64.1823C52.7501 63.6547 52.7501 63.1098 52.861 62.5823C52.972 63.1098 52.972 63.6547 52.861 64.1823Z" fill="#263238"/>
<path id="Vector_54" d="M52.861 67.3822C52.7501 66.8547 52.7501 66.3098 52.861 65.7822C52.972 66.3098 52.972 66.8547 52.861 67.3822Z" fill="#263238"/>
<path id="Vector_55" d="M52.861 70.5822C52.7501 70.0546 52.7501 69.5097 52.861 68.9822C52.972 69.5097 52.972 70.0546 52.861 70.5822Z" fill="#263238"/>
<path id="Vector_56" d="M52.861 73.7824C52.7501 73.2548 52.7501 72.7099 52.861 72.1824C52.972 72.7099 52.972 73.2548 52.861 73.7824Z" fill="#263238"/>
<path id="Vector_57" d="M54.4001 75.4368C54.1417 75.5179 53.8697 75.5462 53.6001 75.52C53.3506 75.5261 53.1009 75.509 52.8545 75.4688H52.8193V75.4464C52.8193 75.4112 52.8385 75.392 52.8481 75.392C52.8577 75.392 52.8705 75.4112 52.8801 75.4464L52.8481 75.4176C53.0942 75.3743 53.344 75.356 53.5937 75.3632C53.8647 75.3331 54.1391 75.3581 54.4001 75.4368Z" fill="#263238"/>
<path id="Vector_58" d="M57.6 75.437C57.0724 75.5479 56.5276 75.5479 56 75.437C56.5276 75.326 57.0724 75.326 57.6 75.437Z" fill="#263238"/>
<path id="Vector_59" d="M60.8002 75.437C60.2726 75.5479 59.7278 75.5479 59.2002 75.437C59.7278 75.326 60.2726 75.326 60.8002 75.437Z" fill="#263238"/>
<path id="Vector_60" d="M63.9999 75.437C63.4723 75.5479 62.9275 75.5479 62.3999 75.437C62.9275 75.326 63.4723 75.326 63.9999 75.437Z" fill="#263238"/>
<path id="Vector_61" d="M67.2001 75.437C66.6725 75.5479 66.1277 75.5479 65.6001 75.437C66.1277 75.326 66.6725 75.326 67.2001 75.437Z" fill="#263238"/>
</g>
<g id="freepik--Cloud--inject-152">
<path id="Vector_62" d="M120.502 46.4896C120.391 45.9621 120.391 45.4172 120.502 44.8896C120.613 45.4172 120.613 45.9621 120.502 46.4896Z" fill="#263238"/>
<path id="Vector_63" d="M120.502 49.6896C120.391 49.162 120.391 48.6172 120.502 48.0896C120.613 48.6172 120.613 49.162 120.502 49.6896Z" fill="#263238"/>
<path id="Vector_64" d="M120.502 52.8898C120.391 52.3622 120.391 51.8174 120.502 51.2898C120.613 51.8174 120.613 52.3622 120.502 52.8898Z" fill="#263238"/>
<path id="Vector_65" d="M120.502 56.0866C120.391 55.559 120.391 55.0141 120.502 54.4866C120.613 55.0141 120.613 55.559 120.502 56.0866Z" fill="#263238"/>
<path id="Vector_66" d="M120.502 59.2897C120.392 58.7621 120.392 58.2173 120.502 57.6897C120.613 58.2173 120.613 58.7621 120.502 59.2897Z" fill="#263238"/>
<path id="Vector_67" d="M120.502 62.4894C120.391 61.9618 120.391 61.417 120.502 60.8894C120.613 61.417 120.613 61.9618 120.502 62.4894Z" fill="#263238"/>
<path id="Vector_68" d="M120.502 65.6896C120.391 65.162 120.391 64.6172 120.502 64.0896C120.613 64.6172 120.613 65.162 120.502 65.6896Z" fill="#263238"/>
<path id="Vector_69" d="M120.502 68.8896C120.391 68.362 120.391 67.8171 120.502 67.2896C120.613 67.8171 120.613 68.362 120.502 68.8896Z" fill="#263238"/>
<path id="Vector_70" d="M142.234 48.5439H142.045H141.478H139.274L131.005 48.5727L102.464 48.6399H102.4L102.378 48.5663C102.064 47.4938 102.008 46.3622 102.215 45.2641C102.422 44.1659 102.886 43.1322 103.568 42.2471C104.25 41.3621 105.132 40.6508 106.141 40.1713C107.151 39.6918 108.259 39.4577 109.376 39.4879L109.27 39.6255C109.095 39.0014 109.02 38.3532 109.05 37.7055C109.136 35.4975 110.39 33.3663 112.317 32.3807C113.251 31.8922 114.291 31.6398 115.345 31.6453C116.399 31.6509 117.436 31.9144 118.365 32.4127L118.218 32.4671C118.732 31.2731 119.489 30.199 120.44 29.3127C121.392 28.4264 122.517 27.7473 123.744 27.3183C126.099 26.4607 128.71 26.5727 130.765 27.6383C132.719 28.6715 134.254 30.3495 135.11 32.3871C135.897 34.1776 136.086 36.1739 135.648 38.0799L135.568 37.9903C136.695 37.8709 137.834 38.0371 138.88 38.4735C139.809 38.8497 140.645 39.4228 141.331 40.1535C141.645 40.4799 141.905 40.8535 142.102 41.2607C142.279 41.6376 142.417 42.031 142.515 42.4351C142.681 43.1396 142.776 43.8589 142.797 44.5823C142.832 45.5791 142.745 46.5763 142.538 47.5519C142.483 47.8041 142.415 48.053 142.333 48.2975C142.275 48.4639 142.243 48.5439 142.243 48.5439" fill="#2639ED"/>
<path id="Vector_71" d="M138.614 37.5842H137.382V30.173C137.382 29.3166 137.042 28.4954 136.437 27.8899C135.831 27.2843 135.01 26.9442 134.154 26.9442C133.297 26.9442 132.476 27.2843 131.871 27.8899C131.265 28.4954 130.925 29.3166 130.925 30.173V37.5842H129.693V30.173C129.693 28.9899 130.163 27.8553 130.999 27.0187C131.836 26.1821 132.971 25.7122 134.154 25.7122C135.337 25.7122 136.471 26.1821 137.308 27.0187C138.144 27.8553 138.614 28.9899 138.614 30.173V37.5842Z" fill="#E0E0E0"/>
<path id="Vector_72" d="M139.168 34.2847H129.139C128.54 34.2847 128.055 34.7703 128.055 35.3695V41.0271C128.055 41.6262 128.54 42.1119 129.139 42.1119H139.168C139.767 42.1119 140.253 41.6262 140.253 41.0271V35.3695C140.253 34.7703 139.767 34.2847 139.168 34.2847Z" fill="#E0E0E0"/>
<path id="Vector_73" d="M134.154 38.1983C133.952 38.199 133.754 38.1396 133.586 38.0276C133.417 37.9157 133.286 37.7563 133.208 37.5697C133.131 37.383 133.11 37.1775 133.149 36.9792C133.189 36.7809 133.286 36.5987 133.429 36.4557C133.572 36.3128 133.754 36.2155 133.952 36.1762C134.151 36.1369 134.356 36.1574 134.543 36.2351C134.729 36.3127 134.889 36.444 135.001 36.6124C135.113 36.7808 135.172 36.9786 135.171 37.1807C135.171 37.4506 135.064 37.7094 134.873 37.9003C134.683 38.0911 134.424 38.1983 134.154 38.1983Z" fill="#455A64"/>
<path id="Vector_74" d="M134.432 37.584H133.875V39.68H134.432V37.584Z" fill="#455A64"/>
</g>
<g id="freepik--Key--inject-152">
<path id="Vector_75" d="M209.155 35.1233C210.072 34.2698 210.731 33.1752 211.055 31.9648C211.379 30.7545 211.356 29.4773 210.988 28.2795C210.62 27.0817 209.923 26.0117 208.975 25.192C208.027 24.3723 206.868 23.8361 205.63 23.6447C204.391 23.4533 203.124 23.6145 201.973 24.1098C200.822 24.6051 199.834 25.4145 199.122 26.4453C198.409 27.4762 198.001 28.6868 197.945 29.9385C197.889 31.1903 198.186 32.4326 198.803 33.5233L197.443 34.8033L197.763 37.0433L195.661 36.4801L193.961 38.0801L194.281 40.3201L192.173 39.7281L190.72 41.0817L190.918 42.4545L189.638 42.0961L188.8 42.8801L188.672 44.9697L191.785 45.7537L201.888 36.3265C203.084 36.8614 204.41 37.0326 205.703 36.8186C206.995 36.6047 208.196 36.015 209.155 35.1233ZM208.169 26.9185C208.43 27.1957 208.602 27.5439 208.664 27.9189C208.726 28.2939 208.675 28.679 208.518 29.0252C208.361 29.3713 208.105 29.6631 207.782 29.8636C207.459 30.064 207.083 30.164 206.703 30.151C206.324 30.138 205.956 30.0125 205.648 29.7904C205.339 29.5683 205.103 29.2597 204.97 28.9035C204.838 28.5474 204.813 28.1598 204.901 27.7899C204.988 27.42 205.184 27.0844 205.462 26.8257C205.834 26.4801 206.328 26.2959 206.835 26.3133C207.342 26.3307 207.822 26.5483 208.169 26.9185Z" fill="#263238"/>
<path id="Vector_76" d="M208.17 26.9186C208.17 26.9186 208.045 26.8002 207.789 26.6434C207.428 26.4246 207.005 26.3322 206.586 26.381C206.245 26.4172 205.922 26.5475 205.651 26.7574C205.381 26.9673 205.174 27.2483 205.054 27.5691C204.934 27.8898 204.906 28.2376 204.973 28.5734C205.04 28.9092 205.199 29.2198 205.432 29.4703C205.666 29.7208 205.964 29.9014 206.295 29.9917C206.625 30.082 206.974 30.0786 207.302 29.9818C207.631 29.8849 207.926 29.6986 208.154 29.4435C208.382 29.1885 208.535 28.8748 208.595 28.5378C208.672 28.1217 208.609 27.692 208.416 27.3154C208.279 27.0498 208.157 26.9282 208.17 26.9186C208.183 26.909 208.205 26.941 208.263 27.0018C208.344 27.0879 208.415 27.1835 208.474 27.2866C208.701 27.6722 208.785 28.125 208.714 28.5666C208.671 28.8258 208.576 29.0739 208.436 29.2962C208.296 29.5185 208.112 29.7105 207.897 29.861C207.681 30.0115 207.438 30.1175 207.181 30.1727C206.924 30.2279 206.659 30.2313 206.4 30.1826C205.984 30.1052 205.603 29.8957 205.315 29.585C205.027 29.2743 204.846 28.879 204.8 28.4578C204.769 28.1959 204.791 27.9305 204.865 27.6773C204.938 27.4241 205.061 27.1881 205.228 26.9834C205.394 26.7788 205.599 26.6095 205.832 26.4857C206.065 26.3618 206.32 26.286 206.583 26.2626C207.024 26.2197 207.467 26.3329 207.834 26.5826C207.933 26.6481 208.023 26.7255 208.103 26.813C208.131 26.8443 208.153 26.88 208.17 26.9186Z" fill="#263238"/>
<path id="Vector_77" d="M209.155 35.1232C209.126 35.1566 209.094 35.1876 209.059 35.216L208.765 35.4784C208.369 35.7982 207.94 36.0739 207.485 36.3008C206.609 36.7199 205.652 36.9441 204.681 36.9579C203.71 36.9717 202.747 36.7748 201.859 36.3808H201.914L191.831 45.824L191.799 45.8496H191.76L188.647 45.0688L188.583 45.0528V44.9888C188.621 44.3488 188.663 43.6256 188.707 42.9024V42.8704L188.733 42.848L189.581 42.0544L189.613 42.0256H189.658L190.938 42.3872L190.835 42.4768C190.775 42.048 190.707 41.5776 190.637 41.104V41.0592L190.666 41.0304L192.128 39.6672L192.16 39.6352H192.205L194.314 40.2272L194.208 40.3168C194.106 39.6032 193.994 38.8352 193.888 38.0768V38.0352L193.917 38.0032L194.368 37.584L195.616 36.4192L195.651 36.3872H195.696L197.805 36.9792L197.699 37.0688C197.591 36.3115 197.484 35.5648 197.379 34.8288V34.7872L197.411 34.7584L198.768 33.4784L198.752 33.5776C198.23 32.6467 197.934 31.6068 197.885 30.5408C197.861 30.023 197.899 29.5041 197.997 28.9952C198.088 28.4951 198.237 28.0075 198.442 27.5424C198.951 26.3609 199.789 25.3504 200.856 24.631C201.922 23.9117 203.173 23.5137 204.46 23.4844C205.746 23.4551 207.014 23.7957 208.112 24.4657C209.21 25.1356 210.093 26.1069 210.656 27.264C211.185 28.3575 211.406 29.5743 211.296 30.784C211.223 31.6794 210.969 32.5505 210.547 33.344L210.423 33.5808L210.288 33.792C210.195 33.9264 210.122 34.0608 210.032 34.1696C209.853 34.3872 209.712 34.5824 209.578 34.72L209.258 35.04L209.149 35.1392L209.248 35.0272L209.546 34.7072C209.677 34.5696 209.811 34.3872 209.984 34.1568C210.071 34.0448 210.144 33.9104 210.231 33.776L210.365 33.5648L210.483 33.328C210.958 32.4008 211.21 31.3757 211.219 30.3341C211.228 29.2924 210.993 28.2631 210.535 27.328C209.831 25.9132 208.644 24.797 207.189 24.1813C205.734 23.5656 204.107 23.491 202.602 23.9712C201.708 24.2562 200.886 24.7281 200.189 25.3554C199.492 25.9827 198.937 26.7511 198.56 27.6096C198.361 28.0636 198.216 28.5394 198.128 29.0272C198.032 29.5234 197.996 30.0296 198.023 30.5344C198.069 31.5764 198.36 32.5928 198.874 33.5008L198.903 33.5552L198.858 33.6L197.501 34.88L197.527 34.8096C197.633 35.552 197.74 36.2987 197.847 37.0496L197.866 37.1744L197.744 37.1424L195.635 36.5504L195.715 36.5312L194.467 37.696L194.016 38.1152L194.042 38.0448C194.154 38.816 194.263 39.584 194.362 40.2848L194.381 40.4096L194.259 40.3776L192.151 39.7856L192.231 39.7664L190.768 41.1296L190.794 41.056C190.861 41.5296 190.928 42 190.992 42.4288V42.5536L190.874 42.5216L189.594 42.16L189.671 42.1408L188.823 42.9344L188.848 42.88C188.803 43.6032 188.759 44.3168 188.717 44.9664L188.659 44.8864L191.773 45.6736H191.703L201.821 36.2688L201.843 36.2464H201.875C202.751 36.639 203.701 36.8387 204.66 36.8321C205.62 36.8255 206.567 36.6126 207.437 36.208C207.896 35.9901 208.33 35.7241 208.733 35.4144C208.864 35.3088 208.963 35.2256 209.034 35.1648L209.155 35.1232Z" fill="#263238"/>
<path id="Vector_78" d="M208.931 34.3681C209.849 33.5146 210.507 32.42 210.831 31.2097C211.156 29.9993 211.132 28.7222 210.765 27.5244C210.397 26.3266 209.699 25.2566 208.751 24.4369C207.803 23.6172 206.644 23.081 205.406 22.8896C204.167 22.6982 202.9 22.8594 201.749 23.3547C200.598 23.85 199.61 24.6594 198.898 25.6902C198.185 26.7211 197.778 27.9317 197.721 29.1834C197.665 30.4352 197.962 31.6775 198.579 32.7681L197.222 34.0481L197.542 36.2881L195.434 35.6961L193.734 37.2961L194.054 39.5361L191.946 38.9441L190.496 40.3201L190.694 41.6929L189.414 41.3345L188.566 42.1281L188.438 44.2145L191.552 44.9985L201.654 35.5745C202.852 36.1112 204.18 36.2829 205.475 36.0683C206.769 35.8538 207.971 35.2624 208.931 34.3681ZM207.946 26.1601C208.206 26.4372 208.379 26.7854 208.441 27.1606C208.503 27.5358 208.453 27.921 208.296 28.2675C208.139 28.6139 207.883 28.906 207.56 29.1066C207.237 29.3072 206.861 29.4073 206.481 29.3943C206.101 29.3812 205.733 29.2556 205.425 29.0333C205.116 28.811 204.881 28.5021 204.748 28.1457C204.615 27.7893 204.591 27.4015 204.679 27.0315C204.767 26.6615 204.963 26.3259 205.242 26.0673C205.613 25.7228 206.106 25.5392 206.613 25.5565C207.119 25.5739 207.598 25.7909 207.946 26.1601Z" fill="#E0E0E0"/>
<path id="Vector_79" d="M207.946 26.16C207.946 26.16 207.821 26.0448 207.565 25.888C207.205 25.6678 206.781 25.5744 206.362 25.6224C206.021 25.6592 205.698 25.79 205.428 26.0002C205.158 26.2104 204.952 26.4916 204.832 26.8124C204.713 27.1332 204.685 27.4808 204.753 27.8164C204.82 28.152 204.979 28.4622 205.212 28.7125C205.446 28.9627 205.745 29.1429 206.075 29.233C206.405 29.3231 206.754 29.3196 207.082 29.2227C207.41 29.1258 207.705 28.9394 207.933 28.6845C208.161 28.4296 208.314 28.1161 208.374 27.7792C208.452 27.3638 208.387 26.9346 208.192 26.56C208.054 26.2944 207.933 26.1728 207.946 26.16C207.958 26.1472 207.981 26.1856 208.038 26.2432C208.12 26.3293 208.191 26.4249 208.25 26.528C208.476 26.9137 208.561 27.3664 208.49 27.808C208.448 28.0683 208.354 28.3176 208.214 28.5413C208.074 28.7649 207.892 28.9584 207.676 29.1105C207.461 29.2625 207.217 29.3699 206.959 29.4265C206.702 29.4831 206.435 29.4877 206.176 29.44C205.76 29.3611 205.379 29.1506 205.091 28.8396C204.803 28.5285 204.623 28.1333 204.576 27.712C204.529 27.321 204.601 26.9249 204.784 26.576C204.936 26.281 205.16 26.0293 205.435 25.8441C205.71 25.6589 206.028 25.5463 206.358 25.5168C206.8 25.4758 207.242 25.5888 207.61 25.8368C207.709 25.9014 207.799 25.9788 207.878 26.0672C207.928 26.1269 207.95 26.1578 207.946 26.16Z" fill="#263238"/>
<path id="Vector_80" d="M208.931 34.368C208.901 34.3997 208.869 34.4296 208.835 34.4576L208.544 34.72C208.148 35.0398 207.719 35.3156 207.264 35.5424C206.388 35.9615 205.431 36.1856 204.46 36.1995C203.489 36.2133 202.526 36.0164 201.638 35.6224H201.693L191.597 45.056L191.568 45.0848H191.526L188.413 44.304H188.349V44.24C188.387 43.6 188.429 42.8736 188.473 42.1504V42.1184L188.496 42.0992C188.758 41.8528 189.049 41.5776 189.344 41.3056L189.379 41.2736H189.421L190.701 41.632L190.598 41.7216C190.534 41.2928 190.467 40.8224 190.4 40.3488V40.3072L190.429 40.2752L191.891 38.9152L191.923 38.8832H191.968L194.077 39.472L193.971 39.5648C193.869 38.848 193.757 38.0832 193.651 37.3248V37.2832L193.683 37.2544L194.131 36.832L195.379 35.6672L195.414 35.6352H195.459L197.568 36.2272L197.462 36.32C197.353 35.5584 197.245 34.8096 197.142 34.08V34.0384L197.174 34.0096L198.531 32.7296V32.8288C198.007 31.8987 197.709 30.8585 197.661 29.792C197.618 28.7644 197.808 27.7404 198.217 26.7968C198.727 25.6153 199.565 24.6048 200.631 23.8854C201.698 23.1661 202.949 22.7681 204.235 22.7388C205.522 22.7095 206.789 23.0501 207.888 23.72C208.986 24.39 209.869 25.3613 210.432 26.5184C210.964 27.6044 211.19 28.8144 211.088 30.0192C211.015 30.9147 210.761 31.7859 210.339 32.5792L210.217 32.816L210.08 33.0272C209.987 33.1648 209.913 33.296 209.827 33.408C209.645 33.6256 209.507 33.8176 209.373 33.9552L209.053 34.2752C208.982 34.3456 208.944 34.3776 208.944 34.3776C208.944 34.3776 208.976 34.336 209.043 34.2656L209.341 33.9456C209.472 33.808 209.606 33.6256 209.782 33.392C209.865 33.28 209.939 33.1456 210.025 33.0112L210.16 32.8L210.281 32.5632C210.656 31.7788 210.873 30.9283 210.92 30.0601C210.966 29.1919 210.841 28.3231 210.552 27.5033C210.262 26.6834 209.814 25.9286 209.233 25.282C208.652 24.6353 207.949 24.1094 207.165 23.7344C206.38 23.3593 205.53 23.1424 204.662 23.0961C203.793 23.0497 202.925 23.1749 202.105 23.4643C201.285 23.7537 200.53 24.2018 199.883 24.7829C199.237 25.364 198.711 26.0668 198.336 26.8512C197.937 27.774 197.754 28.7751 197.798 29.7792C197.845 30.8202 198.136 31.8355 198.649 32.7424L198.681 32.8L198.633 32.8416L197.277 34.1216L197.302 34.0512C197.407 34.7936 197.513 35.5403 197.622 36.2912L197.641 36.4192L197.52 36.384L195.411 35.792L195.491 35.7728L194.243 36.9376L193.792 37.36L193.817 37.2864C193.929 38.0576 194.038 38.8256 194.137 39.5264L194.157 39.6544L194.035 39.6192L191.933 39.04L192.013 39.0208L190.55 40.384L190.576 40.3136C190.643 40.7872 190.713 41.2736 190.774 41.6864L190.79 41.808L190.672 41.776L189.392 41.4144L189.469 41.3952L188.617 42.1888L188.643 42.1344C188.598 42.8576 188.553 43.5712 188.512 44.2208L188.454 44.1408L191.568 44.928L191.497 44.9472L201.6 35.5392L201.625 35.5168H201.654C202.658 35.9659 203.757 36.1625 204.854 36.0896C205.669 36.0291 206.467 35.8232 207.209 35.4816C207.661 35.2603 208.09 34.9945 208.489 34.688L208.79 34.4352L208.931 34.368Z" fill="#263238"/>
<path id="Vector_81" d="M208.32 33.8462C208.648 33.4944 208.948 33.1166 209.216 32.7166C209.521 32.2423 209.752 31.7244 209.901 31.1806C210.106 30.4627 210.171 29.712 210.093 28.9694C210.001 28.0705 209.7 27.2056 209.213 26.4446C208.653 25.5708 207.871 24.8618 206.947 24.3902C206.451 24.1336 205.919 23.9545 205.369 23.859C205.086 23.8081 204.8 23.775 204.512 23.7598C204.218 23.7557 203.924 23.7706 203.632 23.8046C202.407 23.9457 201.26 24.4761 200.359 25.3176C199.458 26.1592 198.851 27.2676 198.627 28.4798C198.573 28.7685 198.538 29.0603 198.521 29.3534C198.517 29.642 198.529 29.9305 198.56 30.2174C198.621 30.7687 198.763 31.308 198.982 31.8174C199.387 32.7727 200.04 33.6023 200.873 34.2206C201.537 34.7098 202.297 35.0531 203.103 35.2279C203.908 35.4028 204.742 35.4052 205.549 35.235C206.102 35.1243 206.635 34.9301 207.129 34.659C207.547 34.4182 207.945 34.1454 208.32 33.843C208.32 33.843 208.297 33.8686 208.253 33.9102L208.045 34.0958C207.934 34.2008 207.814 34.2961 207.686 34.3806C207.518 34.4986 207.343 34.6055 207.161 34.7006C206.663 34.985 206.123 35.1911 205.561 35.3118C204.74 35.4941 203.888 35.4996 203.064 35.328C202.24 35.1564 201.462 34.8117 200.781 34.3166C199.925 33.6857 199.252 32.8387 198.832 31.8622C198.606 31.3423 198.46 30.7909 198.4 30.227C198.365 29.934 198.351 29.6389 198.358 29.3438C198.371 29.0419 198.406 28.7413 198.464 28.4446C198.695 27.1987 199.32 26.0598 200.247 25.1957C201.174 24.3316 202.354 23.7879 203.613 23.6446C203.912 23.61 204.214 23.5961 204.515 23.603C204.81 23.6176 205.104 23.6518 205.395 23.7054C205.96 23.8065 206.506 23.9932 207.014 24.259C207.959 24.7453 208.757 25.4756 209.325 26.3742C209.82 27.1538 210.123 28.0401 210.208 28.9598C210.279 29.7138 210.204 30.4743 209.987 31.1998C209.828 31.7489 209.585 32.2702 209.267 32.7454C209.156 32.9209 209.032 33.0878 208.896 33.2446C208.799 33.3605 208.692 33.4676 208.576 33.5646L208.374 33.7598C208.345 33.827 208.32 33.8494 208.32 33.8462Z" fill="#263238"/>
<path id="Vector_82" d="M208.048 29.1201C208.048 29.1201 208.189 28.9761 208.368 28.6785C208.588 28.323 208.702 27.9127 208.699 27.4949C208.695 27.0771 208.574 26.6687 208.349 26.3169C208.138 25.9896 207.843 25.7254 207.494 25.5521C207.114 25.3563 206.683 25.2804 206.259 25.3345C205.802 25.3868 205.373 25.5845 205.036 25.8983C204.699 26.2122 204.472 26.6258 204.387 27.0785C204.305 27.4993 204.351 27.935 204.518 28.3297C204.638 28.61 204.815 28.8625 205.037 29.0711C205.26 29.2798 205.523 29.4401 205.81 29.5421C206.098 29.644 206.403 29.6852 206.707 29.6633C207.011 29.6413 207.308 29.5566 207.577 29.4145C207.897 29.2481 208.029 29.0945 208.041 29.1201C208.054 29.1457 208.013 29.1617 207.942 29.2257C207.846 29.3202 207.738 29.4029 207.622 29.4721C207.242 29.6909 206.807 29.795 206.369 29.7717C205.931 29.7485 205.51 29.5988 205.155 29.3409C204.801 29.0842 204.527 28.7324 204.365 28.3262C204.203 27.9201 204.16 27.4763 204.24 27.0465C204.33 26.5594 204.574 26.1143 204.937 25.7766C205.299 25.439 205.76 25.2268 206.253 25.1713C206.558 25.1345 206.868 25.1594 207.163 25.2447C207.458 25.3299 207.734 25.4736 207.973 25.6674C208.211 25.8611 208.409 26.1009 208.553 26.3724C208.697 26.644 208.786 26.9417 208.813 27.2481C208.861 27.7656 208.727 28.2837 208.435 28.7137C208.357 28.8298 208.267 28.9371 208.166 29.0337C208.131 29.0682 208.091 29.0973 208.048 29.1201Z" fill="#263238"/>
<path id="Vector_83" d="M190.72 44.6306C190.688 44.5986 192.96 42.4258 195.798 39.7794C198.637 37.133 200.963 35.0114 200.995 35.0466C201.027 35.0818 198.755 37.2514 195.914 39.901C193.072 42.5506 190.762 44.6658 190.72 44.6306Z" fill="#263238"/>
<path id="Vector_84" d="M180.899 73.5392C180.372 73.6502 179.827 73.6502 179.299 73.5392C179.827 73.4283 180.372 73.4283 180.899 73.5392Z" fill="#263238"/>
<path id="Vector_85" d="M184.099 73.5392C183.571 73.6502 183.027 73.6502 182.499 73.5392C183.027 73.4283 183.571 73.4283 184.099 73.5392Z" fill="#263238"/>
<path id="Vector_86" d="M187.299 73.5392C186.772 73.6502 186.227 73.6502 185.699 73.5392C186.227 73.4283 186.772 73.4283 187.299 73.5392Z" fill="#263238"/>
<path id="Vector_87" d="M190.499 73.5392C189.971 73.6502 189.426 73.6502 188.899 73.5392C189.426 73.4283 189.971 73.4283 190.499 73.5392Z" fill="#263238"/>
<path id="Vector_88" d="M193.699 73.5392C193.172 73.6502 192.627 73.6502 192.099 73.5392C192.627 73.4283 193.172 73.4283 193.699 73.5392Z" fill="#263238"/>
<path id="Vector_89" d="M196.899 73.5392C196.372 73.6502 195.827 73.6502 195.299 73.5392C195.827 73.4283 196.372 73.4283 196.899 73.5392Z" fill="#263238"/>
<path id="Vector_90" d="M199.616 73.0559C199.648 73.0559 199.68 73.2543 199.693 73.5391V73.5999H199.613H199.293C199.023 73.6261 198.751 73.5978 198.493 73.5167C198.751 73.4356 199.023 73.4073 199.293 73.4335H199.613L199.536 73.5103C199.552 73.2543 199.581 73.0559 199.616 73.0559Z" fill="#263238"/>
<path id="Vector_91" d="M199.616 69.856C199.727 70.3835 199.727 70.9284 199.616 71.456C199.505 70.9284 199.505 70.3835 199.616 69.856Z" fill="#263238"/>
<path id="Vector_92" d="M199.616 66.656C199.727 67.1836 199.727 67.7284 199.616 68.256C199.505 67.7284 199.505 67.1836 199.616 66.656Z" fill="#263238"/>
<path id="Vector_93" d="M199.616 63.4561C199.727 63.9836 199.727 64.5285 199.616 65.0561C199.505 64.5285 199.505 63.9836 199.616 63.4561Z" fill="#263238"/>
<path id="Vector_94" d="M199.616 60.2561C199.727 60.7837 199.727 61.3285 199.616 61.8561C199.505 61.3285 199.505 60.7837 199.616 60.2561Z" fill="#263238"/>
<path id="Vector_95" d="M199.616 57.0562C199.727 57.5837 199.727 58.1286 199.616 58.6562C199.505 58.1286 199.505 57.5837 199.616 57.0562Z" fill="#263238"/>
<path id="Vector_96" d="M199.616 53.856C199.727 54.3835 199.727 54.9284 199.616 55.456C199.505 54.9284 199.505 54.3835 199.616 53.856Z" fill="#263238"/>
<path id="Vector_97" d="M199.616 50.656C199.727 51.1836 199.727 51.7284 199.616 52.256C199.505 51.7284 199.505 51.1836 199.616 50.656Z" fill="#263238"/>
<path id="Vector_98" d="M199.616 47.4561C199.727 47.9836 199.727 48.5285 199.616 49.0561C199.505 48.5285 199.505 47.9836 199.616 47.4561Z" fill="#263238"/>
<path id="Vector_99" d="M199.616 44.2561C199.727 44.7837 199.727 45.3285 199.616 45.8561C199.505 45.3285 199.505 44.7837 199.616 44.2561Z" fill="#263238"/>
<path id="Vector_100" d="M199.616 41.0559C199.727 41.5835 199.727 42.1283 199.616 42.6559C199.505 42.1283 199.505 41.5835 199.616 41.0559Z" fill="#263238"/>
</g>
<g id="freepik--Folder--inject-152">
<path id="Vector_101" d="M175.622 105.434C175.094 105.545 174.55 105.545 174.022 105.434C174.55 105.323 175.094 105.323 175.622 105.434Z" fill="#263238"/>
<path id="Vector_102" d="M178.822 105.434C178.295 105.545 177.75 105.545 177.222 105.434C177.75 105.323 178.295 105.323 178.822 105.434Z" fill="#263238"/>
<path id="Vector_103" d="M182.022 105.434C181.495 105.545 180.95 105.545 180.422 105.434C180.95 105.323 181.495 105.323 182.022 105.434Z" fill="#263238"/>
<path id="Vector_104" d="M185.222 105.434C184.695 105.545 184.15 105.545 183.622 105.434C184.15 105.323 184.695 105.323 185.222 105.434Z" fill="#263238"/>
<path id="Vector_105" d="M188.422 105.434C187.895 105.545 187.35 105.545 186.822 105.434C187.35 105.323 187.895 105.323 188.422 105.434Z" fill="#263238"/>
<path id="Vector_106" d="M191.622 105.434C191.095 105.545 190.55 105.545 190.022 105.434C190.55 105.323 191.095 105.323 191.622 105.434Z" fill="#263238"/>
<path id="Vector_107" d="M194.822 105.434C194.295 105.545 193.75 105.545 193.222 105.434C193.75 105.323 194.295 105.323 194.822 105.434Z" fill="#263238"/>
<path id="Vector_108" d="M198.022 105.434C197.495 105.545 196.95 105.545 196.422 105.434C196.95 105.323 197.495 105.323 198.022 105.434Z" fill="#263238"/>
<path id="Vector_109" d="M201.223 105.434C200.695 105.545 200.15 105.545 199.623 105.434C200.15 105.323 200.695 105.323 201.223 105.434Z" fill="#263238"/>
<path id="Vector_110" d="M204.422 105.434C203.895 105.545 203.35 105.545 202.822 105.434C203.35 105.323 203.895 105.323 204.422 105.434Z" fill="#263238"/>
<path id="Vector_111" d="M207.325 105.136C207.353 105.136 207.373 105.251 207.389 105.437V105.494H207.318C207.184 105.494 206.998 105.51 206.819 105.51C206.549 105.538 206.277 105.51 206.019 105.427C206.277 105.346 206.549 105.318 206.819 105.344C207.011 105.344 207.184 105.344 207.318 105.363L207.254 105.427C207.273 105.251 207.299 105.136 207.325 105.136Z" fill="#263238"/>
<path id="Vector_112" d="M207.36 101.936C207.441 102.195 207.467 102.467 207.437 102.736C207.461 103.006 207.429 103.278 207.344 103.536C207.265 103.277 207.24 103.005 207.27 102.736C207.246 102.466 207.277 102.194 207.36 101.936Z" fill="#263238"/>
<path id="Vector_113" d="M207.389 98.7361C207.467 98.9949 207.494 99.267 207.465 99.5361C207.489 99.8063 207.458 100.079 207.373 100.336C207.294 100.077 207.269 99.805 207.299 99.5361C207.275 99.2661 207.305 98.994 207.389 98.7361Z" fill="#263238"/>
<path id="Vector_114" d="M207.421 95.5361C207.5 95.795 207.526 96.067 207.497 96.3361C207.52 96.6063 207.488 96.8782 207.405 97.1361C207.326 96.8773 207.3 96.6053 207.328 96.3361C207.306 96.066 207.337 95.7941 207.421 95.5361Z" fill="#263238"/>
<path id="Vector_115" d="M196.832 85.5072L197.42 96.32C197.429 96.5059 197.51 96.6813 197.644 96.8099C197.779 96.9386 197.957 97.0106 198.144 97.0112L217.603 97.1552C217.797 97.1561 217.983 97.0801 218.121 96.944C218.259 96.8078 218.337 96.6226 218.339 96.4288L218.4 88.0128C218.4 87.9165 218.382 87.8209 218.346 87.7316C218.31 87.6424 218.256 87.5612 218.188 87.4928C218.12 87.4243 218.04 87.37 217.951 87.3329C217.862 87.2959 217.766 87.2768 217.67 87.2768H205.702C205.509 87.2764 205.323 87.1993 205.187 87.0624L203.123 84.9984C203.056 84.9307 202.976 84.8769 202.888 84.8401C202.8 84.8033 202.706 84.7843 202.611 84.784L197.564 84.7456C197.466 84.7455 197.368 84.7654 197.277 84.804C197.186 84.8426 197.104 84.8992 197.036 84.9703C196.967 85.0414 196.914 85.1257 196.879 85.2179C196.844 85.3102 196.828 85.4086 196.832 85.5072Z" fill="#2639ED"/>
<path id="Vector_116" d="M218.413 86.0047L197.15 85.8489L197.057 98.5525L218.32 98.7084L218.413 86.0047Z" fill="#F5F5F5"/>
<path id="Vector_117" d="M195.453 86.9759L196.979 100.237C196.991 100.351 197.045 100.457 197.131 100.534C197.217 100.611 197.328 100.653 197.443 100.653L218.163 100.806C218.282 100.807 218.397 100.764 218.484 100.683C218.571 100.603 218.625 100.493 218.634 100.374L219.776 87.1328C219.781 87.0681 219.773 87.003 219.752 86.9417C219.731 86.8803 219.698 86.824 219.654 86.7762C219.61 86.7284 219.557 86.6902 219.497 86.664C219.438 86.6378 219.374 86.6242 219.309 86.624L195.923 86.4544C195.857 86.454 195.791 86.4676 195.731 86.4944C195.67 86.5211 195.616 86.5604 195.571 86.6097C195.527 86.659 195.493 86.7171 195.473 86.7802C195.453 86.8433 195.446 86.91 195.453 86.9759Z" fill="#2639ED"/>
</g>
<g id="freepik--Device--inject-152">
<path id="Vector_118" d="M178.086 66.3584H70.9856C68.4107 66.3584 66.3232 68.4458 66.3232 71.0208V138.688C66.3232 141.263 68.4107 143.35 70.9856 143.35H178.086C180.661 143.35 182.749 141.263 182.749 138.688V71.0208C182.749 68.4458 180.661 66.3584 178.086 66.3584Z" fill="#263238"/>
<path id="Vector_119" d="M61.4399 137.658H187.594V138.698C187.594 140.208 186.993 141.657 185.925 142.725C184.857 143.794 183.408 144.394 181.898 144.394H67.1519C65.6413 144.394 64.1925 143.794 63.1243 142.725C62.0561 141.657 61.4559 140.208 61.4559 138.698V137.658H61.4399Z" fill="#263238"/>
<path id="Vector_120" d="M179.299 69.4177H69.4497V134.435H179.299V69.4177Z" fill="#455A64"/>
<path id="Vector_121" d="M113.059 137.658L114.624 140.147H136.649L138.105 137.658H113.059Z" fill="#455A64"/>
<path id="Vector_122" d="M176.218 71.6191H72.7583C72.1804 71.6191 71.7119 72.0876 71.7119 72.6655V133.181C71.7119 133.759 72.1804 134.227 72.7583 134.227H176.218C176.795 134.227 177.264 133.759 177.264 133.181V72.6655C177.264 72.0876 176.795 71.6191 176.218 71.6191Z" fill="#EBEBEB"/>
<path id="Vector_123" d="M177.264 76.208H71.7119V134.23H177.264V76.208Z" fill="#FAFAFA"/>
<path id="Vector_124" d="M80.3678 74.0384C80.3678 74.2056 80.3182 74.3691 80.2252 74.5081C80.1323 74.6471 80.0001 74.7554 79.8456 74.8192C79.691 74.8831 79.521 74.8996 79.357 74.8667C79.1931 74.8339 79.0425 74.7531 78.9245 74.6346C78.8065 74.5162 78.7263 74.3653 78.6941 74.2013C78.6618 74.0372 78.679 73.8672 78.7435 73.7129C78.8079 73.5586 78.9167 73.4269 79.056 73.3344C79.1954 73.242 79.359 73.193 79.5262 73.1936C79.637 73.1936 79.7467 73.2155 79.849 73.258C79.9513 73.3005 80.0443 73.3628 80.1225 73.4412C80.2007 73.5197 80.2626 73.6129 80.3047 73.7154C80.3468 73.8178 80.3682 73.9276 80.3678 74.0384Z" fill="#263238"/>
<path id="Vector_125" d="M75.2609 74.0384C75.2609 74.2055 75.2113 74.3688 75.1185 74.5077C75.0257 74.6467 74.8937 74.755 74.7394 74.8189C74.585 74.8828 74.4152 74.8996 74.2513 74.867C74.0874 74.8344 73.9369 74.7539 73.8187 74.6358C73.7006 74.5176 73.6201 74.3671 73.5875 74.2032C73.5549 74.0393 73.5717 73.8695 73.6356 73.7151C73.6995 73.5607 73.8078 73.4288 73.9467 73.336C74.0857 73.2432 74.249 73.1936 74.4161 73.1936C74.6401 73.1936 74.855 73.2826 75.0135 73.441C75.1719 73.5995 75.2609 73.8143 75.2609 74.0384Z" fill="#263238"/>
<path id="Vector_126" d="M77.7121 74.0384C77.7121 74.2056 77.6624 74.3691 77.5695 74.5081C77.4765 74.6471 77.3444 74.7554 77.1898 74.8192C77.0353 74.8831 76.8652 74.8996 76.7013 74.8667C76.5373 74.8339 76.3868 74.7531 76.2688 74.6346C76.1508 74.5162 76.0705 74.3653 76.0383 74.2013C76.0061 74.0372 76.0233 73.8672 76.0877 73.7129C76.1521 73.5586 76.2609 73.4269 76.4002 73.3344C76.5396 73.242 76.7032 73.193 76.8705 73.1936C76.9813 73.1936 77.091 73.2155 77.1933 73.258C77.2956 73.3005 77.3885 73.3628 77.4667 73.4412C77.5449 73.5197 77.6068 73.6129 77.6489 73.7154C77.691 73.8178 77.7125 73.9276 77.7121 74.0384Z" fill="#263238"/>
<path id="Vector_127" d="M181.76 137.658C181.76 137.699 155.92 137.734 124.051 137.734C92.1826 137.734 66.333 137.699 66.333 137.658C66.333 137.616 92.1698 137.581 124.051 137.581C155.933 137.581 181.76 137.616 181.76 137.658Z" fill="#455A64"/>
<path id="Vector_128" d="M103.114 105.437H79.0273V107.05H103.114V105.437Z" fill="#E0E0E0"/>
<path id="Vector_129" d="M134.224 83.0657H110.138V84.6785H134.224V83.0657Z" fill="#E0E0E0"/>
<path id="Vector_130" d="M170.048 89.0655C170.048 89.1071 156.637 89.1423 140.093 89.1423C123.549 89.1423 110.138 89.1071 110.138 89.0655C110.138 89.0239 123.549 88.9919 140.093 88.9919C156.637 88.9919 170.048 89.0239 170.048 89.0655Z" fill="#E0E0E0"/>
<path id="Vector_131" d="M170.048 92.5858C170.048 92.6274 156.637 92.6594 140.093 92.6594C123.549 92.6594 110.138 92.6274 110.138 92.5858C110.138 92.5442 123.549 92.509 140.093 92.509C156.637 92.509 170.048 92.5442 170.048 92.5858Z" fill="#E0E0E0"/>
<path id="Vector_132" d="M170.048 96.1024C170.048 96.144 156.637 96.1792 140.093 96.1792C123.549 96.1792 110.138 96.144 110.138 96.1024C110.138 96.0608 123.549 96.0288 140.093 96.0288C156.637 96.0288 170.048 96.0608 170.048 96.1024Z" fill="#E0E0E0"/>
<path id="Vector_133" d="M170.048 99.6225C170.048 99.6641 156.637 99.6961 140.093 99.6961C123.549 99.6961 110.138 99.6641 110.138 99.6225C110.138 99.5809 123.549 99.5457 140.093 99.5457C156.637 99.5457 170.048 99.5809 170.048 99.6225Z" fill="#E0E0E0"/>
<path id="Vector_134" d="M170.048 103.139C170.048 103.181 156.637 103.216 140.093 103.216C123.549 103.216 110.138 103.181 110.138 103.139C110.138 103.098 123.549 103.066 140.093 103.066C156.637 103.066 170.048 103.098 170.048 103.139Z" fill="#E0E0E0"/>
<path id="Vector_135" d="M133.523 106.659C133.523 106.701 128.288 106.733 121.83 106.733C115.373 106.733 110.138 106.701 110.138 106.659C110.138 106.618 115.373 106.583 121.83 106.583C128.288 106.583 133.523 106.618 133.523 106.659Z" fill="#E0E0E0"/>
<path id="Vector_136" d="M169.6 113.485C169.6 113.526 160.784 113.562 149.914 113.562C139.043 113.562 130.224 113.526 130.224 113.485C130.224 113.443 139.037 113.411 149.914 113.411C160.791 113.411 169.6 113.443 169.6 113.485Z" fill="#E0E0E0"/>
<path id="Vector_137" d="M169.6 117.223C169.6 117.264 160.784 117.296 149.914 117.296C139.043 117.296 130.224 117.264 130.224 117.223C130.224 117.181 139.037 117.146 149.914 117.146C160.791 117.146 169.6 117.181 169.6 117.223Z" fill="#E0E0E0"/>
<path id="Vector_138" d="M169.6 120.96C169.6 121.002 160.784 121.034 149.913 121.034C139.043 121.034 130.24 120.998 130.24 120.96C130.24 120.922 139.053 120.883 149.929 120.883C160.806 120.883 169.6 120.915 169.6 120.96Z" fill="#E0E0E0"/>
<path id="Vector_139" d="M169.6 124.691C169.6 124.733 160.784 124.765 149.914 124.765C139.043 124.765 130.224 124.733 130.224 124.691C130.224 124.65 139.037 124.615 149.914 124.615C160.791 124.615 169.6 124.65 169.6 124.691Z" fill="#E0E0E0"/>
<path id="Vector_140" d="M103.174 113.13C103.174 113.171 97.92 113.203 91.4368 113.203C84.9536 113.203 79.6992 113.171 79.6992 113.13C79.6992 113.088 84.9536 113.053 91.4368 113.053C97.92 113.053 103.174 113.088 103.174 113.13Z" fill="#E0E0E0"/>
<path id="Vector_141" d="M103.174 116.061C103.174 116.102 97.92 116.137 91.4368 116.137C84.9536 116.137 79.6992 116.102 79.6992 116.061C79.6992 116.019 84.9536 115.987 91.4368 115.987C97.92 115.987 103.174 116.019 103.174 116.061Z" fill="#E0E0E0"/>
<path id="Vector_142" d="M103.174 118.995C103.174 119.037 97.92 119.072 91.4368 119.072C84.9536 119.072 79.6992 119.037 79.6992 118.995C79.6992 118.954 84.9536 118.918 91.4368 118.918C97.92 118.918 103.174 118.954 103.174 118.995Z" fill="#E0E0E0"/>
<path id="Vector_143" d="M103.174 121.92C103.174 121.962 97.92 121.994 91.4368 121.994C84.9536 121.994 79.6992 121.962 79.6992 121.92C79.6992 121.878 84.9536 121.843 91.4368 121.843C97.92 121.843 103.174 121.888 103.174 121.92Z" fill="#E0E0E0"/>
<path id="Vector_144" d="M103.174 124.861C103.174 124.903 97.92 124.938 91.4368 124.938C84.9536 124.938 79.6992 124.903 79.6992 124.861C79.6992 124.819 84.9536 124.787 91.4368 124.787C97.92 124.787 103.174 124.819 103.174 124.861Z" fill="#E0E0E0"/>
<path id="Vector_145" d="M127.21 111.706H110.122V128.24H127.21V111.706Z" fill="#F5F5F5"/>
<path id="Vector_146" d="M111.447 126.823L116.176 118.314L120.042 123.754L122.394 120.864L125.888 126.823H111.447Z" fill="#EBEBEB"/>
<path id="Vector_147" d="M121.69 116.659C121.69 116.903 121.618 117.142 121.483 117.345C121.348 117.548 121.156 117.706 120.931 117.8C120.705 117.894 120.457 117.918 120.218 117.871C119.979 117.823 119.759 117.706 119.586 117.534C119.414 117.361 119.297 117.141 119.249 116.902C119.202 116.663 119.226 116.415 119.32 116.189C119.414 115.964 119.572 115.772 119.775 115.637C119.978 115.502 120.217 115.43 120.461 115.43C120.787 115.43 121.099 115.56 121.33 115.79C121.56 116.021 121.69 116.333 121.69 116.659Z" fill="#EBEBEB"/>
<path id="Vector_148" d="M125.888 126.871C125.885 126.847 125.885 126.824 125.888 126.8C125.888 126.752 125.888 126.688 125.888 126.608C125.888 126.432 125.888 126.186 125.888 125.866C125.888 125.21 125.888 124.266 125.869 123.056C125.869 120.64 125.849 117.203 125.833 113.072L125.904 113.143H111.465L111.545 113.063V116.8C111.545 118.016 111.545 119.207 111.545 120.362C111.545 122.679 111.545 124.867 111.545 126.883L111.475 126.81L121.913 126.848L124.857 126.864H125.638H125.843H125.913H125.654H124.886L121.958 126.88L111.475 126.919H111.401V126.848C111.401 124.832 111.401 122.643 111.401 120.327C111.401 119.171 111.401 117.981 111.401 116.765V113.079L111.485 112.995H125.923H125.993V113.063C125.977 117.223 125.965 120.666 125.958 123.091C125.958 124.288 125.942 125.232 125.939 125.885C125.939 126.199 125.939 126.442 125.939 126.615C125.939 126.691 125.939 126.752 125.939 126.8C125.924 126.825 125.907 126.849 125.888 126.871Z" fill="#EBEBEB"/>
<path id="Vector_149" d="M102.659 80.3137H79.4814V102.739H102.659V80.3137Z" fill="#F5F5F5"/>
<path id="Vector_150" d="M81.2769 100.819L87.6897 89.28L92.9345 96.656L96.1217 92.7392L100.861 100.819H81.2769Z" fill="#E0E0E0"/>
<path id="Vector_151" d="M95.1679 87.04C95.1679 87.3697 95.0701 87.6921 94.8869 87.9663C94.7037 88.2404 94.4433 88.4541 94.1387 88.5803C93.8341 88.7065 93.4988 88.7395 93.1754 88.6752C92.852 88.6108 92.555 88.452 92.3218 88.2189C92.0886 87.9857 91.9299 87.6887 91.8655 87.3653C91.8012 87.0418 91.8342 86.7066 91.9604 86.402C92.0866 86.0974 92.3003 85.837 92.5744 85.6538C92.8486 85.4706 93.171 85.3728 93.5007 85.3728C93.9429 85.3728 94.3669 85.5485 94.6796 85.8611C94.9922 86.1738 95.1679 86.5978 95.1679 87.04Z" fill="#E0E0E0"/>
<path id="Vector_152" d="M100.861 100.883C100.861 100.883 100.861 100.851 100.861 100.79C100.861 100.73 100.861 100.637 100.861 100.528C100.861 100.291 100.861 99.9552 100.861 99.52C100.861 98.6304 100.845 97.344 100.835 95.712C100.835 92.4352 100.806 87.7728 100.787 82.1728L100.88 82.2656L81.2993 82.2816C81.2737 82.304 81.5073 82.0736 81.4081 82.176V87.2064C81.4081 88.8554 81.4081 90.4661 81.4081 92.0384C81.4081 95.1776 81.4081 98.1472 81.4081 100.88L81.3121 100.784L95.4721 100.832L99.4657 100.858H100.528H100.8H100.896H100.813H100.547H99.5073L95.5361 100.883L81.3121 100.931H81.2161V100.835C81.2161 98.1024 81.2161 95.1328 81.2161 91.9936C81.2161 90.4234 81.2161 88.8128 81.2161 87.1616V82.1792C81.1169 82.2752 81.3505 82.0384 81.3281 82.064L100.909 82.08H101.005V82.176C100.986 87.8016 100.97 92.4864 100.957 95.776C100.957 97.3984 100.938 98.6784 100.931 99.5616C100.931 99.9872 100.931 100.32 100.931 100.554C100.931 100.659 100.931 100.739 100.931 100.803C100.914 100.835 100.89 100.862 100.861 100.883Z" fill="#E0E0E0"/>
<path id="Vector_153" d="M105.767 88.8352L106.912 91.1552L109.472 91.5264L107.619 93.3344L108.055 95.8848L105.767 94.6816L103.475 95.8848L103.914 93.3344L102.061 91.5264L104.621 91.1552L105.767 88.8352Z" fill="#FFA8A8"/>
<path id="Vector_154" d="M113.831 80.7712L114.976 83.0912L117.536 83.4624L115.683 85.2704L116.122 87.8208L113.831 86.6144L111.539 87.8208L111.978 85.2704L110.125 83.4624L112.685 83.0912L113.831 80.7712Z" fill="#FFA8A8"/>
<path id="Vector_155" d="M124.608 77.6064L125.754 79.9264L128.314 80.2976L126.461 82.1024L126.899 84.6528L124.608 83.4496L122.317 84.6528L122.755 82.1024L120.902 80.2976L123.462 79.9264L124.608 77.6064Z" fill="#FFA8A8"/>
<path id="Vector_156" d="M135.763 80.8481L136.909 83.1681L139.469 83.5393L137.616 85.3442L138.054 87.8946L135.763 86.6913L133.472 87.8946L133.91 85.3442L132.058 83.5393L134.618 83.1681L135.763 80.8481Z" fill="#FFA8A8"/>
<path id="Vector_157" d="M143.45 88.5344L144.595 90.8544L147.155 91.2256L145.303 93.0336L145.741 95.5808L143.45 94.3776L141.162 95.5808L141.597 93.0336L139.744 91.2256L142.304 90.8544L143.45 88.5344Z" fill="#FFA8A8"/>
<path id="Vector_158" d="M146.24 99.6897L147.385 102.01L149.945 102.381L148.093 104.186L148.528 106.736L146.24 105.533L143.949 106.736L144.387 104.186L142.534 102.381L145.094 102.01L146.24 99.6897Z" fill="#FFA8A8"/>
<path id="Vector_159" d="M143.526 110.768L144.672 113.088L147.232 113.459L145.379 115.267L145.818 117.818L143.526 116.611L141.235 117.818L141.674 115.267L139.821 113.459L142.381 113.088L143.526 110.768Z" fill="#FFA8A8"/>
<path id="Vector_160" d="M135.36 118.458L136.506 120.778L139.066 121.149L137.213 122.954L137.651 125.504L135.36 124.301L133.072 125.504L133.507 122.954L131.658 121.149L134.218 120.778L135.36 118.458Z" fill="#FFA8A8"/>
<path id="Vector_161" d="M124.391 121.625L125.536 123.945L128.096 124.317L126.243 126.125L126.682 128.672L124.391 127.469L122.103 128.672L122.538 126.125L120.685 124.317L123.245 123.945L124.391 121.625Z" fill="#FFA8A8"/>
<path id="Vector_162" d="M113.914 118.461L115.059 120.781L117.619 121.152L115.766 122.957L116.205 125.507L113.914 124.304L111.626 125.507L112.061 122.957L110.208 121.152L112.771 120.781L113.914 118.461Z" fill="#FFA8A8"/>
<path id="Vector_163" d="M105.626 110.566L106.768 112.886L109.328 113.261L107.478 115.066L107.914 117.616L105.626 116.413L103.334 117.616L103.773 115.066L101.92 113.261L104.48 112.886L105.626 110.566Z" fill="#FFA8A8"/>
<path id="Vector_164" d="M102.835 99.7024L103.981 102.022L106.541 102.394L104.688 104.202L105.126 106.749L102.835 105.546L100.544 106.749L100.982 104.202L99.1294 102.394L101.689 102.022L102.835 99.7024Z" fill="#FFA8A8"/>
<path id="Vector_165" d="M132.508 107.661H130.268V95.4688C130.268 94.0889 129.72 92.7654 128.744 91.7896C127.769 90.8138 126.445 90.2656 125.065 90.2656C123.685 90.2656 122.362 90.8138 121.386 91.7896C120.41 92.7654 119.862 94.0889 119.862 95.4688V107.661H117.622V95.4688C117.622 94.4914 117.815 93.5235 118.189 92.6204C118.563 91.7174 119.111 90.8969 119.802 90.2057C120.493 89.5145 121.314 88.9663 122.217 88.5922C123.12 88.2182 124.088 88.0256 125.065 88.0256C126.043 88.0256 127.011 88.2182 127.914 88.5922C128.817 88.9663 129.637 89.5145 130.328 90.2057C131.02 90.8969 131.568 91.7174 131.942 92.6204C132.316 93.5235 132.508 94.4914 132.508 95.4688V107.661Z" fill="#263238"/>
<path id="Vector_166" d="M133.238 102.237H116.893C115.866 102.237 115.034 103.069 115.034 104.096V113.251C115.034 114.278 115.866 115.111 116.893 115.111H133.238C134.265 115.111 135.098 114.278 135.098 113.251V104.096C135.098 103.069 134.265 102.237 133.238 102.237Z" fill="#FFA8A8"/>
<path id="Vector_167" d="M126.742 106.995C126.742 107.327 126.644 107.651 126.46 107.927C126.275 108.202 126.014 108.417 125.707 108.544C125.401 108.671 125.064 108.704 124.738 108.64C124.413 108.575 124.114 108.415 123.88 108.181C123.645 107.946 123.486 107.648 123.421 107.322C123.356 106.997 123.389 106.66 123.516 106.353C123.643 106.047 123.858 105.785 124.134 105.601C124.41 105.417 124.734 105.318 125.065 105.318C125.51 105.318 125.937 105.495 126.251 105.809C126.566 106.124 126.742 106.55 126.742 106.995Z" fill="#263238"/>
<path id="Vector_168" d="M125.523 107.661H124.608V111.11H125.523V107.661Z" fill="#263238"/>
<path id="Vector_169" d="M116.102 113.888C116.057 113.888 116.019 111.741 116.019 109.088C116.019 106.435 116.057 104.288 116.102 104.288C116.147 104.288 116.185 106.435 116.185 109.088C116.185 111.741 116.16 113.888 116.102 113.888Z" fill="#FAFAFA"/>
<path id="Vector_170" d="M123.753 109.146C123.753 109.146 123.673 109.12 123.555 109.034C123.389 108.909 123.244 108.76 123.123 108.592C122.916 108.316 122.772 107.998 122.701 107.66C122.63 107.321 122.635 106.972 122.715 106.636C122.795 106.3 122.947 105.986 123.162 105.715C123.377 105.445 123.649 105.225 123.958 105.072C124.142 104.976 124.34 104.909 124.544 104.874C124.618 104.858 124.694 104.858 124.768 104.874C124.51 104.962 124.258 105.068 124.016 105.194C123.731 105.35 123.483 105.565 123.286 105.823C123.09 106.081 122.949 106.378 122.874 106.694C122.799 107.01 122.791 107.338 122.851 107.657C122.91 107.976 123.035 108.279 123.219 108.547C123.381 108.761 123.56 108.961 123.753 109.146Z" fill="#FAFAFA"/>
</g>
</g>
<defs>
<clipPath id="clip0_3505_4402">
<rect width="240" height="144" fill="white"/>
</clipPath>
</defs>
</svg>
