<svg width="132" height="122" viewBox="0 0 132 122" fill="none" xmlns="http://www.w3.org/2000/svg">
<g id="Group 1261152719">
<path id="Fill-2" opacity="0.3" fill-rule="evenodd" clip-rule="evenodd" d="M77.8871 80.8669C76.0351 79.7977 73.749 79.8 71.8901 80.8732C65.4052 84.6172 49.9901 93.5173 41.4196 98.4654C40.1805 99.1808 39.4142 100.502 39.4097 101.93C39.4052 103.358 40.163 104.677 41.3976 105.39C53.0704 112.129 59.4442 115.809 68.1478 120.834C69.9998 121.904 72.2858 121.901 74.1448 120.828C80.6297 117.084 96.0448 108.184 104.615 103.236C105.854 102.52 106.621 101.2 106.625 99.7714C106.63 98.343 105.872 97.024 104.637 96.311C92.9644 89.5718 86.5907 85.8919 77.8871 80.8669Z" fill="#2639ED"/>
<path id="Fill-3" opacity="0.3" fill-rule="evenodd" clip-rule="evenodd" d="M5.44045 94.8774C12.6944 90.6893 24.4728 90.6893 31.7268 94.8774C38.9807 99.0655 38.9807 105.866 31.7268 110.054C24.4728 114.242 12.6944 114.242 5.44045 110.054C-1.81348 105.866 -1.81348 99.0655 5.44045 94.8774Z" fill="#2639ED"/>
<path id="Fill-4" fill-rule="evenodd" clip-rule="evenodd" d="M81.1415 76.3608C79.2895 75.2916 77.0034 75.2939 75.1445 76.3671C68.6595 80.1111 53.2445 89.0112 44.674 93.9593C43.4349 94.6747 42.6686 95.9955 42.6641 97.4237C42.6596 98.8521 43.4174 100.171 44.652 100.884C56.3248 107.623 62.6986 111.303 71.4022 116.328C73.2542 117.398 75.5402 117.395 77.3992 116.322C83.8841 112.578 99.2992 103.678 107.87 98.7297C109.109 98.0142 109.875 96.6937 109.88 95.2653C109.884 93.8369 109.126 92.5179 107.891 91.8049C96.2188 85.0657 89.8451 81.3858 81.1415 76.3608Z" fill="white"/>
<path id="Stroke-5" fill-rule="evenodd" clip-rule="evenodd" d="M81.1415 76.3608C79.2895 75.2916 77.0034 75.2939 75.1445 76.3671C68.6595 80.1111 53.2445 89.0112 44.674 93.9593C43.4349 94.6747 42.6686 95.9955 42.6641 97.4237C42.6596 98.8521 43.4174 100.171 44.652 100.884C56.3248 107.623 62.6986 111.303 71.4022 116.328C73.2542 117.398 75.5402 117.395 77.3992 116.322C83.8841 112.578 99.2992 103.678 107.87 98.7297C109.109 98.0142 109.875 96.6937 109.88 95.2653C109.884 93.8369 109.126 92.5179 107.891 91.8049C96.2188 85.0657 89.8451 81.3858 81.1415 76.3608Z" stroke="#4F4F4F" stroke-width="0.500668" stroke-linecap="round" stroke-linejoin="round"/>
<path id="Fill-6" opacity="0.3" fill-rule="evenodd" clip-rule="evenodd" d="M57.2446 94.3188L52.0273 97.3311L57.2446 100.343H59.7479L62.4618 97.3311L57.2446 94.3188Z" fill="#2639ED"/>
<path id="Fill-7" opacity="0.3" fill-rule="evenodd" clip-rule="evenodd" d="M63.8876 98.8765L58.6704 101.888L63.8876 104.901H67.6426L70.3565 101.888L63.8876 98.8765Z" fill="#2639ED"/>
<path id="Fill-8" opacity="0.3" fill-rule="evenodd" clip-rule="evenodd" d="M72.3046 103.736L67.0874 106.749L72.3046 109.761H76.0596L78.7735 106.749L72.3046 103.736Z" fill="#2639ED"/>
<path id="Fill-9" fill-rule="evenodd" clip-rule="evenodd" d="M109.735 95.261V95.3303C109.71 96.7835 108.925 98.1203 107.663 98.8488C95.9038 105.638 86.2822 111.193 77.5024 116.262C75.5796 117.372 73.2107 117.372 71.2882 116.262C62.5084 111.193 56.5094 107.73 44.7497 100.94C43.468 100.2 42.6782 98.8325 42.6782 97.3525C42.6782 97.3525 42.6782 99.8646 42.6782 101.345C42.6782 102.825 43.468 104.192 44.7497 104.933C56.5094 111.722 62.5084 115.186 71.2882 120.254C73.2107 121.365 75.5796 121.365 77.5024 120.254C86.2822 115.186 95.9038 109.63 107.663 102.841C108.945 102.101 109.735 100.733 109.735 99.2533V95.261Z" fill="#2639ED"/>
<path id="Stroke-10" fill-rule="evenodd" clip-rule="evenodd" d="M109.735 95.261V95.3303C109.71 96.7835 108.925 98.1203 107.663 98.8488C95.9038 105.638 86.2822 111.193 77.5024 116.262C75.5796 117.372 73.2107 117.372 71.2882 116.262C62.5084 111.193 56.5094 107.73 44.7497 100.94C43.468 100.2 42.6782 98.8325 42.6782 97.3525C42.6782 97.3525 42.6782 99.8646 42.6782 101.345C42.6782 102.825 43.468 104.192 44.7497 104.933C56.5094 111.722 62.5084 115.186 71.2882 120.254C73.2107 121.365 75.5796 121.365 77.5024 120.254C86.2822 115.186 95.9038 109.63 107.663 102.841C108.945 102.101 109.735 100.733 109.735 99.2533V95.261Z" stroke="#4F4F4F" stroke-width="0.500668" stroke-linecap="round" stroke-linejoin="round"/>
<path id="Fill-11" fill-rule="evenodd" clip-rule="evenodd" d="M98.6772 17.1395C99.3394 16.9277 100.069 16.9998 100.685 17.3553C109.497 22.4431 114.93 25.5795 123.312 30.4187C125.371 31.6076 126.639 33.8045 126.639 36.1819C126.639 51.3652 126.639 48.9059 126.639 64.9138C126.639 65.6443 126.32 66.3289 125.78 66.7978C127.09 66.0608 129.158 64.8705 129.71 64.5521C130.482 64.1062 130.958 63.2824 130.958 62.3907C130.958 46.3828 130.958 48.8421 130.958 33.6588C130.958 31.2814 129.689 29.0845 127.63 27.8956C119.248 23.0564 113.816 19.92 105.004 14.8322C104.232 14.3863 103.28 14.3863 102.508 14.8322C101.736 15.278 98.6772 17.1395 98.6772 17.1395Z" fill="white"/>
<path id="Stroke-12" fill-rule="evenodd" clip-rule="evenodd" d="M98.6772 17.1395C99.3394 16.9277 100.069 16.9998 100.685 17.3553C109.497 22.4431 114.93 25.5795 123.312 30.4187C125.371 31.6076 126.639 33.8045 126.639 36.1819C126.639 51.3652 126.639 48.9059 126.639 64.9138C126.639 65.6443 126.32 66.3289 125.78 66.7978C127.09 66.0608 129.158 64.8705 129.71 64.5521C130.482 64.1062 130.958 63.2824 130.958 62.3907C130.958 46.3828 130.958 48.8421 130.958 33.6588C130.958 31.2814 129.689 29.0845 127.63 27.8956C119.248 23.0564 113.816 19.92 105.004 14.8322C104.232 14.3863 103.28 14.3863 102.508 14.8322C101.736 15.278 98.6772 17.1395 98.6772 17.1395Z" stroke="#4F4F4F" stroke-width="0.500668" stroke-linecap="round" stroke-linejoin="round"/>
<path id="Fill-13" fill-rule="evenodd" clip-rule="evenodd" d="M126.563 36.0861C126.563 33.7993 125.343 31.6863 123.363 30.543C117.812 27.3382 106.436 20.7704 100.619 17.4117C99.8759 16.9829 98.9609 16.9829 98.2182 17.4117C97.4757 17.8403 97.0181 18.6328 97.0181 19.4902C97.0181 26.7119 97.0181 41.4588 97.0181 48.3445C97.0181 50.6313 98.2382 52.7444 100.219 53.8876C105.769 57.0924 117.145 63.6602 122.963 67.0189C123.705 67.4477 124.62 67.4477 125.363 67.0189C126.106 66.5903 126.563 65.7978 126.563 64.9404C126.563 57.7188 126.563 42.9718 126.563 36.0861Z" fill="#2639ED"/>
<path id="Stroke-14" fill-rule="evenodd" clip-rule="evenodd" d="M126.563 36.0861C126.563 33.7993 125.343 31.6863 123.363 30.543C117.812 27.3382 106.436 20.7704 100.619 17.4117C99.8759 16.9829 98.9609 16.9829 98.2182 17.4117C97.4757 17.8403 97.0181 18.6328 97.0181 19.4902C97.0181 26.7119 97.0181 41.4588 97.0181 48.3445C97.0181 50.6313 98.2382 52.7444 100.219 53.8876C105.769 57.0924 117.145 63.6602 122.963 67.0189C123.705 67.4477 124.62 67.4477 125.363 67.0189C126.106 66.5903 126.563 65.7978 126.563 64.9404C126.563 57.7188 126.563 42.9718 126.563 36.0861Z" stroke="#4F4F4F" stroke-width="0.500668" stroke-linecap="round" stroke-linejoin="round"/>
<path id="Fill-15" fill-rule="evenodd" clip-rule="evenodd" d="M8.69484 90.3715C15.9488 86.1834 27.7272 86.1834 34.9812 90.3715C42.2351 94.5596 42.2351 101.36 34.9812 105.548C27.7272 109.736 15.9488 109.736 8.69484 105.548C1.44091 101.36 1.44091 94.5596 8.69484 90.3715Z" fill="white"/>
<path id="Stroke-16" fill-rule="evenodd" clip-rule="evenodd" d="M8.69484 90.3715C15.9488 86.1834 27.7272 86.1834 34.9812 90.3715C42.2351 94.5596 42.2351 101.36 34.9812 105.548C27.7272 109.736 15.9488 109.736 8.69484 105.548C1.44091 101.36 1.44091 94.5596 8.69484 90.3715Z" stroke="#4F4F4F" stroke-width="0.500668" stroke-linecap="round" stroke-linejoin="round"/>
<path id="Fill-17" fill-rule="evenodd" clip-rule="evenodd" d="M40.4215 101.703H40.4145C40.5492 104.548 38.738 107.417 34.9812 109.586C27.7273 113.774 15.9488 113.774 8.69491 109.586C4.93814 107.417 3.12697 104.548 3.2614 101.703H3.25439V97.9595C3.25439 100.707 5.06807 103.454 8.69491 105.548C15.9488 109.736 27.7273 109.736 34.9812 105.548C38.6081 103.454 40.4215 100.707 40.4215 97.9595V101.703Z" fill="#2639ED"/>
<path id="Stroke-18" fill-rule="evenodd" clip-rule="evenodd" d="M40.4215 101.703H40.4145C40.5492 104.548 38.738 107.417 34.9812 109.586C27.7273 113.774 15.9488 113.774 8.69491 109.586C4.93814 107.417 3.12697 104.548 3.2614 101.703H3.25439V97.9595C3.25439 100.707 5.06807 103.454 8.69491 105.548C15.9488 109.736 27.7273 109.736 34.9812 105.548C38.6081 103.454 40.4215 100.707 40.4215 97.9595V101.703Z" stroke="#4F4F4F" stroke-width="0.500668" stroke-linecap="round" stroke-linejoin="round"/>
<path id="Fill-19" fill-rule="evenodd" clip-rule="evenodd" d="M17.7702 95.6114C20.0152 94.3154 23.6603 94.3154 25.9053 95.6114C28.1503 96.9076 28.1503 99.0122 25.9053 100.308C23.6603 101.604 20.0152 101.604 17.7702 100.308C15.5252 99.0122 15.5252 96.9076 17.7702 95.6114Z" fill="#2639ED"/>
<path id="Fill-20" fill-rule="evenodd" clip-rule="evenodd" d="M21.8378 66.7102C28.2348 66.7102 33.4282 71.9036 33.4282 78.3004C33.4282 84.6972 28.2348 89.8906 21.8378 89.8906C15.441 89.8906 10.2476 84.6972 10.2476 78.3004C10.2476 71.9036 15.441 66.7102 21.8378 66.7102Z" fill="#2639ED"/>
<path id="Stroke-21" fill-rule="evenodd" clip-rule="evenodd" d="M21.8378 66.7102C28.2348 66.7102 33.4282 71.9036 33.4282 78.3004C33.4282 84.6972 28.2348 89.8906 21.8378 89.8906C15.441 89.8906 10.2476 84.6972 10.2476 78.3004C10.2476 71.9036 15.441 66.7102 21.8378 66.7102Z" stroke="white" stroke-width="0.500668" stroke-linecap="round" stroke-linejoin="round"/>
<path id="Fill-22" fill-rule="evenodd" clip-rule="evenodd" d="M113.95 44.4228C113.95 42.2765 112.805 40.2928 110.946 39.2196C100.146 32.9846 63.16 11.6306 48.5485 3.19455C47.3091 2.4791 45.7824 2.4791 44.5432 3.19455C43.3038 3.91001 42.5405 5.23227 42.5405 6.66343V67.029C42.5405 69.1754 43.6856 71.1588 45.5445 72.2319C56.344 78.467 93.3301 99.821 107.942 108.257C109.181 108.973 110.708 108.973 111.947 108.257C113.186 107.542 113.95 106.219 113.95 104.788V44.4228Z" fill="white"/>
<path id="Stroke-23" fill-rule="evenodd" clip-rule="evenodd" d="M113.95 44.4228C113.95 42.2765 112.805 40.2928 110.946 39.2196C100.146 32.9846 63.1601 11.6306 48.5485 3.19455C47.3091 2.4791 45.7824 2.4791 44.5432 3.19455C43.3038 3.91001 42.5405 5.23227 42.5405 6.66343V67.029C42.5405 69.1754 43.6856 71.1588 45.5445 72.2319C56.344 78.467 93.3301 99.821 107.942 108.257C109.181 108.973 110.708 108.973 111.947 108.257C113.186 107.542 113.95 106.219 113.95 104.788V44.4228Z" stroke="#4F4F4F" stroke-width="0.500668" stroke-linecap="round" stroke-linejoin="round"/>
<path id="Fill-24" fill-rule="evenodd" clip-rule="evenodd" d="M44.6289 3.14649C45.8523 2.47935 47.3378 2.49537 48.5486 3.1943C63.1601 11.6303 100.147 32.9843 110.946 39.2194C112.805 40.2926 113.95 42.2762 113.95 44.4226V104.788C113.95 106.022 113.382 107.175 112.431 107.928C113.197 107.51 114.164 106.977 114.819 106.599C116.058 105.884 116.821 104.561 116.821 103.13V42.7649C116.821 40.6183 115.676 38.6349 113.817 37.5617C103.018 31.3266 66.0317 9.9726 51.42 1.53659C50.1808 0.821136 48.6538 0.821136 47.4146 1.53659C46.1755 2.25205 44.6289 3.14624 44.6289 3.14624V3.14649Z" fill="white"/>
<path id="Stroke-25" fill-rule="evenodd" clip-rule="evenodd" d="M48.5486 3.1943C63.1601 11.6303 100.147 32.9843 110.946 39.2194C112.805 40.2926 113.95 42.2762 113.95 44.4226V104.788C113.95 106.022 113.382 107.175 112.431 107.928C113.197 107.51 114.164 106.977 114.819 106.599C116.058 105.884 116.821 104.561 116.821 103.13V42.7649C116.821 40.6183 115.676 38.6349 113.817 37.5617C103.018 31.3266 66.0317 9.9726 51.42 1.53659C50.1808 0.821136 48.6538 0.821136 47.4146 1.53659C46.1755 2.25205 44.6289 3.14624 44.6289 3.14624C45.8523 2.47935 47.3378 2.49537 48.5486 3.1943Z" fill="#FFA8A8" stroke="#4F4F4F" stroke-width="0.500668" stroke-linecap="round" stroke-linejoin="round"/>
<path id="Fill-26" fill-rule="evenodd" clip-rule="evenodd" d="M113.95 99.2771L42.5405 58.0488V67.0288C42.5405 69.1752 43.6856 71.1586 45.5445 72.2318C56.344 78.4668 93.3301 99.8208 107.942 108.257C109.181 108.973 110.708 108.973 111.947 108.257C113.186 107.541 113.95 106.219 113.95 104.788V99.2771Z" fill="#2639ED"/>
<path id="Stroke-27" fill-rule="evenodd" clip-rule="evenodd" d="M113.95 99.2771L42.5405 58.0488V67.0288C42.5405 69.1752 43.6856 71.1586 45.5445 72.2318C56.344 78.4668 93.3301 99.8208 107.942 108.257C109.181 108.973 110.708 108.973 111.947 108.257C113.186 107.541 113.95 106.219 113.95 104.788V99.2771Z" stroke="#4F4F4F" stroke-width="0.500668" stroke-linecap="round" stroke-linejoin="round"/>
<path id="Fill-28" fill-rule="evenodd" clip-rule="evenodd" d="M34.1196 26.6891C34.4325 26.589 34.7775 26.623 35.0684 26.791C39.2319 29.1949 41.7986 30.6769 45.7592 32.9632C46.732 33.525 47.3313 34.5629 47.3313 35.6864C47.3313 42.8602 47.3313 41.6981 47.3313 49.2615C47.3313 49.6067 47.1803 49.9301 46.9252 50.1517C47.544 49.8035 50.9316 47.8636 51.1922 47.7132C51.5572 47.5024 51.7817 47.1131 51.7817 46.6921V33.1167C51.7817 31.9934 51.1827 30.9553 50.2096 30.3938C46.2493 28.1073 43.6826 26.6253 39.5191 24.2216C39.1543 24.0108 38.7047 24.0108 38.34 24.2216C37.9753 24.4321 34.1196 26.6891 34.1196 26.6891Z" fill="white"/>
<path id="Stroke-29" fill-rule="evenodd" clip-rule="evenodd" d="M34.1196 26.6891C34.4325 26.589 34.7775 26.623 35.0684 26.791C39.2319 29.1949 41.7986 30.6769 45.7592 32.9632C46.732 33.525 47.3313 34.5629 47.3313 35.6864C47.3313 42.8602 47.3313 41.6981 47.3313 49.2615C47.3313 49.6067 47.1803 49.9301 46.9252 50.1517C47.544 49.8035 50.9316 47.8636 51.1922 47.7132C51.5572 47.5024 51.7817 47.1131 51.7817 46.6921V33.1167C51.7817 31.9934 51.1827 30.9553 50.2096 30.3938C46.2493 28.1073 43.6826 26.6253 39.5191 24.2216C39.1543 24.0108 38.7047 24.0108 38.34 24.2216C37.9753 24.4321 34.1196 26.6891 34.1196 26.6891Z" stroke="#4F4F4F" stroke-width="0.500668" stroke-linecap="round" stroke-linejoin="round"/>
<path id="Fill-30" fill-rule="evenodd" clip-rule="evenodd" d="M47.3308 35.6262C47.3308 34.5403 46.7513 33.5367 45.8108 32.9937C43.1745 31.4717 37.7723 28.3525 35.0094 26.7574C34.6566 26.5539 34.222 26.5539 33.8693 26.7574C33.5166 26.9609 33.2993 27.3374 33.2993 27.7447C33.2993 31.1743 33.2993 38.1779 33.2993 41.448C33.2993 42.5339 33.8788 43.5375 34.8193 44.0805C37.4554 45.6025 42.8578 48.7214 45.6208 50.3168C45.9735 50.5203 46.4081 50.5203 46.7608 50.3168C47.1135 50.1131 47.3308 49.7368 47.3308 49.3295C47.3308 45.8999 47.3308 38.8963 47.3308 35.6262Z" fill="#2639ED"/>
<path id="Stroke-31" fill-rule="evenodd" clip-rule="evenodd" d="M47.3308 35.6262C47.3308 34.5403 46.7513 33.5367 45.8108 32.9937C43.1745 31.4717 37.7723 28.3525 35.0094 26.7574C34.6566 26.5539 34.222 26.5539 33.8693 26.7574C33.5166 26.9609 33.2993 27.3374 33.2993 27.7447C33.2993 31.1743 33.2993 38.1779 33.2993 41.448C33.2993 42.5339 33.8788 43.5375 34.8193 44.0805C37.4554 45.6025 42.8578 48.7214 45.6208 50.3168C45.9735 50.5203 46.4081 50.5203 46.7608 50.3168C47.1135 50.1131 47.3308 49.7368 47.3308 49.3295C47.3308 45.8999 47.3308 38.8963 47.3308 35.6262Z" stroke="#4F4F4F" stroke-width="0.500668" stroke-linecap="round" stroke-linejoin="round"/>
<path id="Fill-32" fill-rule="evenodd" clip-rule="evenodd" d="M48.0305 7.23548C48.7975 7.67832 49.4203 8.75701 49.4203 9.64269C49.4203 10.5284 48.7975 10.8881 48.0305 10.4453C47.2635 10.0022 46.6406 8.92373 46.6406 8.0378C46.6406 7.15212 47.2635 6.79264 48.0305 7.23548Z" fill="white"/>
<path id="Stroke-33" fill-rule="evenodd" clip-rule="evenodd" d="M48.0305 7.23548C48.7975 7.67832 49.4203 8.75701 49.4203 9.64269C49.4203 10.5284 48.7975 10.8881 48.0305 10.4453C47.2635 10.0022 46.6406 8.92373 46.6406 8.0378C46.6406 7.15212 47.2635 6.79264 48.0305 7.23548Z" stroke="#4F4F4F" stroke-width="0.500668" stroke-linecap="round" stroke-linejoin="round"/>
<path id="Fill-34" fill-rule="evenodd" clip-rule="evenodd" d="M52.5263 9.83143C53.2936 10.2743 53.9162 11.353 53.9162 12.2386C53.9162 13.1243 53.2936 13.4838 52.5263 13.041C51.7593 12.5981 51.1367 11.5194 51.1367 10.6337C51.1367 9.74807 51.7593 9.38859 52.5263 9.83143Z" fill="#2639ED"/>
<path id="Stroke-35" fill-rule="evenodd" clip-rule="evenodd" d="M52.5263 9.83143C53.2936 10.2743 53.9162 11.353 53.9162 12.2386C53.9162 13.1243 53.2936 13.4838 52.5263 13.041C51.7593 12.5981 51.1367 11.5194 51.1367 10.6337C51.1367 9.74807 51.7593 9.38859 52.5263 9.83143Z" stroke="#4F4F4F" stroke-width="0.500668" stroke-linecap="round" stroke-linejoin="round"/>
<path id="Fill-36" fill-rule="evenodd" clip-rule="evenodd" d="M57.0222 12.4271C57.7892 12.8702 58.412 13.9486 58.412 14.8345C58.412 15.7202 57.7892 16.0797 57.0222 15.6369C56.2549 15.194 55.6323 14.1153 55.6323 13.2297C55.6323 12.344 56.2549 11.9842 57.0222 12.4271Z" fill="white"/>
<path id="Stroke-37" fill-rule="evenodd" clip-rule="evenodd" d="M57.0222 12.4271C57.7892 12.8702 58.412 13.9486 58.412 14.8345C58.412 15.7202 57.7892 16.0797 57.0222 15.6369C56.2549 15.194 55.6323 14.1153 55.6323 13.2297C55.6323 12.344 56.2549 11.9842 57.0222 12.4271Z" stroke="#4F4F4F" stroke-width="0.500668" stroke-linecap="round" stroke-linejoin="round"/>
<path id="Fill-38" fill-rule="evenodd" clip-rule="evenodd" d="M93.8913 68.2275C93.8913 66.0811 92.7461 64.0978 90.8873 63.0243C84.4703 59.3196 69.462 50.6546 62.7242 46.7644C62.0271 46.3621 61.1682 46.3621 60.4712 46.7644C59.774 47.1669 59.3447 47.9106 59.3447 48.7157C59.3447 51.4356 59.3447 55.0319 59.3447 57.6514C59.3447 59.798 60.4898 61.7814 62.3487 62.8546C68.7656 66.5595 83.7738 75.2243 90.5118 79.1145C91.2088 79.5171 92.0676 79.5171 92.7648 79.1145C93.4618 78.712 93.8913 77.9683 93.8913 77.1634C93.8913 74.4436 93.8913 70.8473 93.8913 68.2275Z" fill="white"/>
<path id="Stroke-39" fill-rule="evenodd" clip-rule="evenodd" d="M93.8913 68.2275C93.8913 66.0811 92.7461 64.0978 90.8873 63.0243C84.4703 59.3196 69.462 50.6546 62.7242 46.7644C62.0271 46.3621 61.1682 46.3621 60.4712 46.7644C59.774 47.1669 59.3447 47.9106 59.3447 48.7157C59.3447 51.4356 59.3447 55.0319 59.3447 57.6514C59.3447 59.798 60.4898 61.7814 62.3487 62.8546C68.7656 66.5595 83.7738 75.2243 90.5118 79.1145C91.2088 79.5171 92.0677 79.5171 92.7648 79.1145C93.4618 78.712 93.8913 77.9683 93.8913 77.1634C93.8913 74.4436 93.8913 70.8473 93.8913 68.2275Z" stroke="#4F4F4F" stroke-width="0.500668" stroke-linecap="round" stroke-linejoin="round"/>
<path id="Fill-40" fill-rule="evenodd" clip-rule="evenodd" d="M93.8913 45.4245C93.8913 43.2782 92.7461 41.2948 90.8873 40.2213C84.4703 36.5166 69.462 27.8516 62.7242 23.9614C62.0271 23.5591 61.1682 23.5591 60.4712 23.9614C59.774 24.3639 59.3447 25.1077 59.3447 25.9127C59.3447 28.6326 59.3447 32.2289 59.3447 34.8484C59.3447 36.995 60.4898 38.9784 62.3487 40.0516C68.7656 43.7566 83.7738 52.4214 90.5118 56.3116C91.2088 56.7141 92.0676 56.7141 92.7648 56.3116C93.4618 55.909 93.8913 55.1653 93.8913 54.3605C93.8913 51.6403 93.8913 48.0443 93.8913 45.4245Z" fill="#2639ED"/>
<path id="Stroke-41" fill-rule="evenodd" clip-rule="evenodd" d="M93.8913 45.4245C93.8913 43.2782 92.7461 41.2948 90.8873 40.2213C84.4703 36.5166 69.462 27.8516 62.7242 23.9614C62.0271 23.5591 61.1682 23.5591 60.4712 23.9614C59.774 24.3639 59.3447 25.1077 59.3447 25.9127C59.3447 28.6326 59.3447 32.2289 59.3447 34.8484C59.3447 36.995 60.4898 38.9784 62.3487 40.0516C68.7656 43.7566 83.7738 52.4214 90.5118 56.3116C91.2088 56.7141 92.0677 56.7141 92.7648 56.3116C93.4618 55.909 93.8913 55.1653 93.8913 54.3605C93.8913 51.6403 93.8913 48.0443 93.8913 45.4245Z" stroke="#4F4F4F" stroke-width="0.500668" stroke-linecap="round" stroke-linejoin="round"/>
<path id="Fill-42" fill-rule="evenodd" clip-rule="evenodd" d="M66.9736 26.4146V30.4439C66.9736 32.5903 68.1187 34.5737 69.9776 35.6471L93.8916 49.4538V45.4244C93.8916 43.2781 92.7463 41.2947 90.8875 40.2212L66.9736 26.4146Z" fill="white"/>
<path id="Stroke-43" fill-rule="evenodd" clip-rule="evenodd" d="M66.9736 26.4146V30.4439C66.9736 32.5903 68.1187 34.5737 69.9776 35.6471L93.8916 49.4538V45.4244C93.8916 43.2781 92.7463 41.2947 90.8875 40.2212L66.9736 26.4146Z" stroke="#4F4F4F" stroke-width="0.500668" stroke-linecap="round" stroke-linejoin="round"/>
<path id="Fill-44" fill-rule="evenodd" clip-rule="evenodd" d="M65.6995 52.7609C67.5515 53.8301 69.055 56.4343 69.055 58.5729C69.055 60.7115 67.5515 61.5795 65.6995 60.5103C63.8475 59.4411 62.3438 56.8369 62.3438 54.6983C62.3438 52.5597 63.8475 51.6918 65.6995 52.7609Z" fill="#2639ED"/>
<path id="Stroke-45" fill-rule="evenodd" clip-rule="evenodd" d="M65.6995 52.7609C67.5515 53.8301 69.055 56.4343 69.055 58.5729C69.055 60.7115 67.5515 61.5795 65.6995 60.5103C63.8475 59.4411 62.3438 56.8369 62.3438 54.6983C62.3438 52.5597 63.8475 51.6918 65.6995 52.7609Z" stroke="#4F4F4F" stroke-width="0.500668" stroke-linecap="round" stroke-linejoin="round"/>
<path id="Fill-46" fill-rule="evenodd" clip-rule="evenodd" d="M88.4841 66.6668L71.6108 56.925V59.0867L88.4841 68.8284V66.6668Z" fill="#2639ED"/>
<path id="Stroke-47" fill-rule="evenodd" clip-rule="evenodd" d="M88.4841 66.6668L71.6108 56.925V59.0867L88.4841 68.8284V66.6668Z" stroke="#4F4F4F" stroke-width="0.500668" stroke-linecap="round" stroke-linejoin="round"/>
<path id="Fill-48" fill-rule="evenodd" clip-rule="evenodd" d="M80.0476 65.8817L71.6108 61.011V63.1726L80.0476 68.0434V65.8817Z" fill="#2639ED"/>
<path id="Stroke-49" fill-rule="evenodd" clip-rule="evenodd" d="M80.0476 65.8817L71.6108 61.011V63.1726L80.0476 68.0434V65.8817Z" stroke="#4F4F4F" stroke-width="0.500668" stroke-linecap="round" stroke-linejoin="round"/>
<path id="Fill-50" fill-rule="evenodd" clip-rule="evenodd" d="M59.748 88.0073L54.5308 91.0193V97.331L59.748 100.343L64.9652 97.331V91.0193L59.748 88.0073Z" fill="#2639ED"/>
<path id="Stroke-51" fill-rule="evenodd" clip-rule="evenodd" d="M59.748 88.0073L54.5308 91.0193V97.331L59.748 100.343L64.9652 97.331V91.0193L59.748 88.0073Z" stroke="#4F4F4F" stroke-width="0.500668" stroke-linecap="round" stroke-linejoin="round"/>
<path id="Fill-52" fill-rule="evenodd" clip-rule="evenodd" d="M64.9653 91.0195L59.748 94.0318V100.343L64.9653 97.3312V91.0195Z" fill="white"/>
<path id="Stroke-53" fill-rule="evenodd" clip-rule="evenodd" d="M64.9653 91.0195L59.748 94.0318V100.343L64.9653 97.3312V91.0195Z" stroke="#4F4F4F" stroke-width="0.500668" stroke-linecap="round" stroke-linejoin="round"/>
<path id="Fill-54" fill-rule="evenodd" clip-rule="evenodd" d="M59.748 88.0073L54.5308 91.0193L59.748 94.0316L64.9652 91.0193L59.748 88.0073Z" fill="white"/>
<path id="Stroke-55" fill-rule="evenodd" clip-rule="evenodd" d="M59.748 88.0073L54.5308 91.0193L59.748 94.0316L64.9652 91.0193L59.748 88.0073Z" stroke="#4F4F4F" stroke-width="0.500668" stroke-linecap="round" stroke-linejoin="round"/>
<path id="Fill-56" fill-rule="evenodd" clip-rule="evenodd" d="M67.5004 86.5437L62.2832 89.5557V101.807L67.5004 104.819L72.7176 101.807V89.5557L67.5004 86.5437Z" fill="#2639ED"/>
<path id="Stroke-57" fill-rule="evenodd" clip-rule="evenodd" d="M67.5004 86.5437L62.2832 89.5557V101.807L67.5004 104.819L72.7176 101.807V89.5557L67.5004 86.5437Z" stroke="#4F4F4F" stroke-width="0.500668" stroke-linecap="round" stroke-linejoin="round"/>
<path id="Fill-58" fill-rule="evenodd" clip-rule="evenodd" d="M72.7177 89.5557L67.5005 92.5679V104.819L72.7177 101.807V89.5557Z" fill="white"/>
<path id="Stroke-59" fill-rule="evenodd" clip-rule="evenodd" d="M72.7177 89.5557L67.5005 92.5679V104.819L72.7177 101.807V89.5557Z" stroke="#4F4F4F" stroke-width="0.500668" stroke-linecap="round" stroke-linejoin="round"/>
<path id="Fill-60" fill-rule="evenodd" clip-rule="evenodd" d="M67.5004 86.5437L62.2832 89.5557L67.5004 92.568L72.7176 89.5557L67.5004 86.5437Z" fill="white"/>
<path id="Stroke-61" fill-rule="evenodd" clip-rule="evenodd" d="M67.5004 86.5437L62.2832 89.5557L67.5004 92.568L72.7176 89.5557L67.5004 86.5437Z" stroke="#4F4F4F" stroke-width="0.500668" stroke-linecap="round" stroke-linejoin="round"/>
<path id="Fill-62" fill-rule="evenodd" clip-rule="evenodd" d="M75.8505 82.7971L70.6333 85.8094V106.628L75.8505 109.64L81.0677 106.628V85.8094L75.8505 82.7971Z" fill="#2639ED"/>
<path id="Stroke-63" fill-rule="evenodd" clip-rule="evenodd" d="M75.8505 82.7971L70.6333 85.8094V106.628L75.8505 109.64L81.0677 106.628V85.8094L75.8505 82.7971Z" stroke="#4F4F4F" stroke-width="0.500668" stroke-linecap="round" stroke-linejoin="round"/>
<path id="Fill-64" fill-rule="evenodd" clip-rule="evenodd" d="M81.0678 85.8098L75.8506 88.8218V109.64L81.0678 106.628V85.8098Z" fill="white"/>
<path id="Stroke-65" fill-rule="evenodd" clip-rule="evenodd" d="M81.0678 85.8098L75.8506 88.8218V109.64L81.0678 106.628V85.8098Z" stroke="#4F4F4F" stroke-width="0.500668" stroke-linecap="round" stroke-linejoin="round"/>
<path id="Fill-66" fill-rule="evenodd" clip-rule="evenodd" d="M75.8505 82.7971L70.6333 85.8094L75.8505 88.8214L81.0677 85.8094L75.8505 82.7971Z" fill="white"/>
<path id="Stroke-67" fill-rule="evenodd" clip-rule="evenodd" d="M75.8505 82.7971L70.6333 85.8094L75.8505 88.8214L81.0677 85.8094L75.8505 82.7971Z" stroke="#4F4F4F" stroke-width="0.500668" stroke-linecap="round" stroke-linejoin="round"/>
<path id="Fill-68" fill-rule="evenodd" clip-rule="evenodd" d="M65.9657 30.2997C67.7821 31.3484 69.2566 33.9025 69.2566 35.9998C69.2566 38.0971 67.7821 38.9485 65.9657 37.8999C64.1495 36.8512 62.6748 34.2971 62.6748 32.1998C62.6748 30.1025 64.1495 29.2511 65.9657 30.2997Z" fill="white"/>
<path id="Stroke-69" fill-rule="evenodd" clip-rule="evenodd" d="M65.9657 30.2997C67.7821 31.3484 69.2566 33.9025 69.2566 35.9998C69.2566 38.0971 67.7821 38.9485 65.9657 37.8999C64.1495 36.8512 62.6748 34.2971 62.6748 32.1998C62.6748 30.1025 64.1495 29.2511 65.9657 30.2997Z" stroke="#4F4F4F" stroke-width="0.500668" stroke-linecap="round" stroke-linejoin="round"/>
<path id="Fill-70" fill-rule="evenodd" clip-rule="evenodd" d="M63.7061 30.0337L65.922 28.7548C65.9688 28.7245 66.0171 28.6964 66.0667 28.6714L66.067 28.6712C66.6557 28.372 67.4485 28.4378 68.3197 28.9408C70.1361 29.9894 71.6106 32.5436 71.6106 34.6409C71.6106 35.7058 71.2306 36.4493 70.6185 36.7862L68.2962 38.1275C68.8895 37.7828 69.2567 37.0466 69.2567 35.9999C69.2567 33.9026 67.7822 31.3485 65.9658 30.2998C65.0914 29.7949 64.2958 29.7306 63.7061 30.0337Z" fill="white"/>
<path id="Stroke-71" fill-rule="evenodd" clip-rule="evenodd" d="M63.7061 30.0337L65.922 28.7547C65.9688 28.7244 66.0171 28.6964 66.0667 28.6713C66.6557 28.3719 67.4485 28.4378 68.3197 28.9407C70.1361 29.9894 71.6106 32.5435 71.6106 34.6408C71.6106 35.7057 71.2306 36.4492 70.6185 36.7862L68.2962 38.1275C68.8895 37.7828 69.2567 37.0465 69.2567 35.9999C69.2567 33.9026 67.7822 31.3484 65.9658 30.2998C65.0914 29.7948 64.2958 29.7305 63.7061 30.0337Z" stroke="#4F4F4F" stroke-width="0.500668" stroke-linecap="round" stroke-linejoin="round"/>
<path id="Fill-72" fill-rule="evenodd" clip-rule="evenodd" d="M28.496 41.2192C30.3124 42.2678 31.7869 44.8217 31.7869 46.919C31.7869 49.0163 30.3124 49.8677 28.496 48.8191C26.6798 47.7704 25.2051 45.2165 25.2051 43.1192C25.2051 41.0219 26.6798 40.1705 28.496 41.2192Z" fill="white"/>
<path id="Stroke-73" fill-rule="evenodd" clip-rule="evenodd" d="M28.496 41.2192C30.3124 42.2678 31.7869 44.8217 31.7869 46.919C31.7869 49.0163 30.3124 49.8677 28.496 48.8191C26.6798 47.7704 25.2051 45.2165 25.2051 43.1192C25.2051 41.0219 26.6798 40.1705 28.496 41.2192Z" stroke="#4F4F4F" stroke-width="0.500668" stroke-linecap="round" stroke-linejoin="round"/>
<path id="Fill-74" fill-rule="evenodd" clip-rule="evenodd" d="M26.2363 40.953L29.586 39.0194C29.6329 38.9891 29.6812 38.9611 29.7307 38.9358H29.731C30.32 38.6367 31.1126 38.7025 31.9837 39.2054C33.8002 40.2541 35.2746 42.8082 35.2746 44.9055C35.2746 45.9704 34.8946 46.7139 34.2828 47.0509L30.8262 49.0468C31.4195 48.7021 31.7867 47.9659 31.7867 46.9192C31.7867 44.8219 30.3123 42.268 28.4958 41.2193C27.6214 40.7144 26.8261 40.6498 26.2363 40.953Z" fill="white"/>
<path id="Stroke-75" fill-rule="evenodd" clip-rule="evenodd" d="M26.2363 40.953L29.586 39.0194C29.6329 38.9891 29.6812 38.9611 29.7307 38.9358C30.32 38.6367 31.1126 38.7025 31.9837 39.2054C33.8002 40.2541 35.2746 42.8082 35.2746 44.9055C35.2746 45.9704 34.8946 46.7139 34.2828 47.0509L30.8262 49.0468C31.4195 48.7021 31.7867 47.9659 31.7867 46.9192C31.7867 44.8219 30.3123 42.268 28.4958 41.2193C27.6214 40.7144 26.8261 40.6498 26.2363 40.953Z" stroke="#4F4F4F" stroke-width="0.500668" stroke-linecap="round" stroke-linejoin="round"/>
</g>
</svg>
