<svg width="159" height="156" viewBox="0 0 159 156" fill="none" xmlns="http://www.w3.org/2000/svg">
<g opacity="0.4">
<path d="M119.164 112.893L125.939 108.908L132.713 112.694L125.939 116.679L119.164 112.893Z" fill="white"/>
<path d="M120.359 112.974L125.939 109.705L131.518 112.811L125.939 116.081L120.359 112.974Z" fill="#797B84"/>
<path d="M125.938 112.893V109.705L131.518 112.811L125.938 116.081V112.893Z" fill="#393A4A"/>
<path d="M119.164 112.893V120.863L125.939 124.848V116.679L119.164 112.893Z" fill="#BDBDBD"/>
<path d="M125.938 116.679L132.713 112.694V120.704L125.938 124.848V116.679Z" fill="#F3F3F3"/>
<path d="M108.467 118.49L115.242 114.505L122.016 118.291L115.242 122.276L108.467 118.49Z" fill="white"/>
<path d="M109.663 118.572L115.242 115.302L120.821 118.409L115.242 121.678L109.663 118.572Z" fill="#797B84"/>
<path d="M115.241 118.49V115.302L120.82 118.409L115.241 121.678V118.49Z" fill="#393A4A"/>
<path d="M108.467 118.491V126.461L115.242 130.446V122.277L108.467 118.491Z" fill="#BDBDBD"/>
<path d="M115.241 122.276L122.016 118.291V126.301L115.241 130.446V122.276Z" fill="#F3F3F3"/>
<path d="M129.911 118.49L136.686 114.505L143.461 118.291L136.686 122.276L129.911 118.49Z" fill="white"/>
<path d="M131.106 118.572L136.686 115.302L142.265 118.409L136.686 121.678L131.106 118.572Z" fill="#797B84"/>
<path d="M136.686 118.49V115.302L142.265 118.409L136.686 121.678V118.49Z" fill="#393A4A"/>
<path d="M129.911 118.491V126.461L136.686 130.446V122.277L129.911 118.491Z" fill="#BDBDBD"/>
<path d="M136.686 122.276L143.461 118.291V126.301L136.686 130.446V122.276Z" fill="#F3F3F3"/>
<path d="M119.164 124.76L125.939 120.775L132.713 124.561L125.939 128.546L119.164 124.76Z" fill="white"/>
<path d="M120.359 124.842L125.939 121.572L131.518 124.678L125.939 127.948L120.359 124.842Z" fill="#797B84"/>
<path d="M125.938 124.76V121.572L131.518 124.678L125.938 127.948V124.76Z" fill="#393A4A"/>
<path d="M119.164 124.76V132.73L125.939 136.716V128.546L119.164 124.76Z" fill="#BDBDBD"/>
<path d="M125.938 128.546L132.713 124.561V132.571L125.938 136.715V128.546Z" fill="#F3F3F3"/>
<path fill-rule="evenodd" clip-rule="evenodd" d="M125.85 127.94L109.76 118.648L94.7583 46.2153H158.123L142.226 118.424L125.85 127.94Z" fill="url(#paint0_linear_3471_10393)" fill-opacity="0.8"/>
</g>
<g opacity="0.4">
<path d="M71.9507 66.678L78.7254 62.6929L85.5001 66.4787L78.7254 70.4639L71.9507 66.678Z" fill="white"/>
<path d="M73.1465 66.7596L78.7257 63.4897L84.3048 66.5961L78.7257 69.8659L73.1465 66.7596Z" fill="#797B84"/>
<path d="M78.7256 66.6778V63.4897L84.3048 66.5961L78.7256 69.8659V66.6778Z" fill="#393A4A"/>
<path d="M71.9507 66.6782V74.6485L78.7254 78.6336V70.4641L71.9507 66.6782Z" fill="#BDBDBD"/>
<path d="M78.7256 70.4641L85.5003 66.479V74.4891L78.7256 78.6336V70.4641Z" fill="#F3F3F3"/>
<path d="M61.2534 72.2756L68.0281 68.2905L74.8028 72.0764L68.0281 76.0615L61.2534 72.2756Z" fill="white"/>
<path d="M62.4492 72.3572L68.0284 69.0874L73.6076 72.1938L68.0284 75.4636L62.4492 72.3572Z" fill="#797B84"/>
<path d="M68.0283 72.2755V69.0874L73.6075 72.1938L68.0283 75.4636V72.2755Z" fill="#393A4A"/>
<path d="M61.2534 72.2754V80.2456L68.0281 84.2308V76.0613L61.2534 72.2754Z" fill="#BDBDBD"/>
<path d="M68.0283 76.0618L74.803 72.0767V80.0868L68.0283 84.2313V76.0618Z" fill="#F3F3F3"/>
<path d="M82.6982 72.2756L89.473 68.2905L96.2477 72.0764L89.473 76.0615L82.6982 72.2756Z" fill="white"/>
<path d="M83.8936 72.3572L89.4727 69.0874L95.0519 72.1938L89.4727 75.4636L83.8936 72.3572Z" fill="#797B84"/>
<path d="M89.4727 72.2755V69.0874L95.0518 72.1938L89.4727 75.4636V72.2755Z" fill="#393A4A"/>
<path d="M82.6982 72.2754V80.2456L89.473 84.2308V76.0613L82.6982 72.2754Z" fill="#BDBDBD"/>
<path d="M89.4727 76.0618L96.2474 72.0767V80.0868L89.4727 84.2313V76.0618Z" fill="#F3F3F3"/>
<path d="M71.9507 78.5447L78.7254 74.5596L85.5001 78.3454L78.7254 82.3306L71.9507 78.5447Z" fill="white"/>
<path d="M73.1465 78.6263L78.7257 75.3564L84.3048 78.4628L78.7257 81.7326L73.1465 78.6263Z" fill="#797B84"/>
<path d="M78.7256 78.5445V75.3564L84.3048 78.4628L78.7256 81.7326V78.5445Z" fill="#393A4A"/>
<path d="M71.9507 78.5449V86.5152L78.7254 90.5003V82.3308L71.9507 78.5449Z" fill="#BDBDBD"/>
<path d="M78.7256 82.3308L85.5003 78.3457V86.3558L78.7256 90.5003V82.3308Z" fill="#F3F3F3"/>
<path fill-rule="evenodd" clip-rule="evenodd" d="M78.6371 81.7247L62.5469 72.4327L47.5454 0H110.91L95.0129 72.2088L78.6371 81.7247Z" fill="url(#paint1_linear_3471_10393)" fill-opacity="0.8"/>
</g>
<g opacity="0.4">
<path d="M71.2861 92.2796L78.0608 88.2944L84.8356 92.0803L78.0608 96.0654L71.2861 92.2796Z" fill="white"/>
<path d="M72.4814 92.3612L78.0606 89.0913L83.6398 92.1977L78.0606 95.4675L72.4814 92.3612Z" fill="#797B84"/>
<path d="M78.061 92.2794V89.0913L83.6402 92.1977L78.061 95.4675V92.2794Z" fill="#393A4A"/>
<path d="M71.2861 92.2793V100.25L78.0608 104.235V96.0652L71.2861 92.2793Z" fill="#BDBDBD"/>
<path d="M78.061 96.0652L84.8357 92.0801V100.09L78.061 104.235V96.0652Z" fill="#F3F3F3"/>
<path d="M60.5894 97.8772L67.3641 93.8921L74.1388 97.678L67.3641 101.663L60.5894 97.8772Z" fill="white"/>
<path d="M61.7847 97.9593L67.3638 94.6895L72.943 97.7958L67.3638 101.066L61.7847 97.9593Z" fill="#797B84"/>
<path d="M67.3638 97.8776V94.6895L72.9429 97.7958L67.3638 101.066V97.8776Z" fill="#393A4A"/>
<path d="M60.5894 97.8774V105.848L67.3641 109.833V101.663L60.5894 97.8774Z" fill="#BDBDBD"/>
<path d="M67.3638 101.663L74.1385 97.6782V105.688L67.3638 109.833V101.663Z" fill="#F3F3F3"/>
<path d="M82.0332 97.8772L88.8079 93.8921L95.5826 97.678L88.8079 101.663L82.0332 97.8772Z" fill="white"/>
<path d="M83.2285 97.9593L88.8077 94.6895L94.3869 97.7958L88.8077 101.066L83.2285 97.9593Z" fill="#797B84"/>
<path d="M88.8081 97.8776V94.6895L94.3873 97.7958L88.8081 101.066V97.8776Z" fill="#393A4A"/>
<path d="M82.0332 97.8774V105.848L88.8079 109.833V101.663L82.0332 97.8774Z" fill="#BDBDBD"/>
<path d="M88.8081 101.663L95.5828 97.6782V105.688L88.8081 109.833V101.663Z" fill="#F3F3F3"/>
<path d="M71.2861 104.146L78.0608 100.161L84.8356 103.947L78.0608 107.932L71.2861 104.146Z" fill="white"/>
<path d="M72.4814 104.228L78.0606 100.958L83.6398 104.065L78.0606 107.335L72.4814 104.228Z" fill="#797B84"/>
<path d="M78.061 104.147V100.958L83.6402 104.065L78.061 107.335V104.147Z" fill="#393A4A"/>
<path d="M71.2861 104.146V112.117L78.0608 116.102V107.932L71.2861 104.146Z" fill="#BDBDBD"/>
<path d="M78.061 107.932L84.8357 103.947V111.957L78.061 116.102V107.932Z" fill="#F3F3F3"/>
<path fill-rule="evenodd" clip-rule="evenodd" d="M77.972 107.326L61.8819 98.0343L46.8804 25.6016H110.245L94.3479 97.8104L77.972 107.326Z" fill="url(#paint2_linear_3471_10393)" fill-opacity="0.8"/>
</g>
<g opacity="0.4">
<path d="M27.0649 81.6399L33.8397 77.6548L40.6144 81.4407L33.8397 85.4258L27.0649 81.6399Z" fill="white"/>
<path d="M28.2607 81.7215L33.8399 78.4517L39.4191 81.558L33.8399 84.8279L28.2607 81.7215Z" fill="#797B84"/>
<path d="M33.8398 81.6398V78.4517L39.419 81.558L33.8398 84.8279V81.6398Z" fill="#393A4A"/>
<path d="M27.0649 81.6396V89.6099L33.8397 93.595V85.4255L27.0649 81.6396Z" fill="#BDBDBD"/>
<path d="M33.8398 85.4255L40.6146 81.4404V89.4505L33.8398 93.5951V85.4255Z" fill="#F3F3F3"/>
<path d="M16.3682 87.2376L23.1429 83.2524L29.9176 87.0383L23.1429 91.0234L16.3682 87.2376Z" fill="white"/>
<path d="M17.564 87.3196L23.1431 84.0498L28.7223 87.1562L23.1431 90.426L17.564 87.3196Z" fill="#797B84"/>
<path d="M23.1431 87.2379V84.0498L28.7222 87.1562L23.1431 90.426V87.2379Z" fill="#393A4A"/>
<path d="M16.3682 87.2373V95.2075L23.1429 99.1927V91.0232L16.3682 87.2373Z" fill="#BDBDBD"/>
<path d="M23.1431 91.0232L29.9178 87.0381V95.0482L23.1431 99.1927V91.0232Z" fill="#F3F3F3"/>
<path d="M37.8125 87.2376L44.5872 83.2524L51.3619 87.0383L44.5872 91.0234L37.8125 87.2376Z" fill="white"/>
<path d="M39.0083 87.3196L44.5875 84.0498L50.1666 87.1562L44.5875 90.426L39.0083 87.3196Z" fill="#797B84"/>
<path d="M44.5874 87.2379V84.0498L50.1666 87.1562L44.5874 90.426V87.2379Z" fill="#393A4A"/>
<path d="M37.8125 87.2373V95.2075L44.5872 99.1927V91.0232L37.8125 87.2373Z" fill="#BDBDBD"/>
<path d="M44.5874 91.0232L51.3621 87.0381V95.0482L44.5874 99.1927V91.0232Z" fill="#F3F3F3"/>
<path d="M27.0649 93.5071L33.8397 89.522L40.6144 93.3078L33.8397 97.293L27.0649 93.5071Z" fill="white"/>
<path d="M28.2607 93.5887L33.8399 90.3188L39.4191 93.4252L33.8399 96.695L28.2607 93.5887Z" fill="#797B84"/>
<path d="M33.8398 93.5069V90.3188L39.419 93.4252L33.8398 96.695V93.5069Z" fill="#393A4A"/>
<path d="M27.0649 93.5068V101.477L33.8397 105.462V97.2927L27.0649 93.5068Z" fill="#BDBDBD"/>
<path d="M33.8398 97.2932L40.6146 93.3081V101.318L33.8398 105.463V97.2932Z" fill="#F3F3F3"/>
<path fill-rule="evenodd" clip-rule="evenodd" d="M33.7513 96.6866L17.6612 87.3946L2.65967 14.9619H66.0243L50.1272 87.1707L33.7513 96.6866Z" fill="url(#paint3_linear_3471_10393)" fill-opacity="0.8"/>
</g>
<g opacity="0.4">
<path d="M112.846 81.6399L119.621 77.6548L126.396 81.4407L119.621 85.4258L112.846 81.6399Z" fill="white"/>
<path d="M114.042 81.7215L119.621 78.4517L125.2 81.558L119.621 84.8279L114.042 81.7215Z" fill="#797B84"/>
<path d="M119.621 81.6398V78.4517L125.2 81.558L119.621 84.8279V81.6398Z" fill="#393A4A"/>
<path d="M112.846 81.6396V89.6099L119.621 93.595V85.4255L112.846 81.6396Z" fill="#BDBDBD"/>
<path d="M119.621 85.4255L126.396 81.4404V89.4505L119.621 93.5951V85.4255Z" fill="#F3F3F3"/>
<path d="M102.149 87.2376L108.924 83.2524L115.699 87.0383L108.924 91.0234L102.149 87.2376Z" fill="white"/>
<path d="M103.345 87.3196L108.924 84.0498L114.504 87.1562L108.924 90.426L103.345 87.3196Z" fill="#797B84"/>
<path d="M108.924 87.2379V84.0498L114.503 87.1562L108.924 90.426V87.2379Z" fill="#393A4A"/>
<path d="M102.149 87.2373V95.2075L108.924 99.1927V91.0232L102.149 87.2373Z" fill="#BDBDBD"/>
<path d="M108.924 91.0232L115.699 87.0381V95.0482L108.924 99.1927V91.0232Z" fill="#F3F3F3"/>
<path d="M123.594 87.2376L130.368 83.2524L137.143 87.0383L130.368 91.0234L123.594 87.2376Z" fill="white"/>
<path d="M124.79 87.3196L130.369 84.0498L135.948 87.1562L130.369 90.426L124.79 87.3196Z" fill="#797B84"/>
<path d="M130.369 87.2379V84.0498L135.948 87.1562L130.369 90.426V87.2379Z" fill="#393A4A"/>
<path d="M123.594 87.2373V95.2075L130.368 99.1927V91.0232L123.594 87.2373Z" fill="#BDBDBD"/>
<path d="M130.369 91.0232L137.143 87.0381V95.0482L130.369 99.1927V91.0232Z" fill="#F3F3F3"/>
<path d="M112.846 93.5071L119.621 89.522L126.396 93.3078L119.621 97.293L112.846 93.5071Z" fill="white"/>
<path d="M114.042 93.5887L119.621 90.3188L125.2 93.4252L119.621 96.695L114.042 93.5887Z" fill="#797B84"/>
<path d="M119.621 93.5069V90.3188L125.2 93.4252L119.621 96.695V93.5069Z" fill="#393A4A"/>
<path d="M112.846 93.5068V101.477L119.621 105.462V97.2927L112.846 93.5068Z" fill="#BDBDBD"/>
<path d="M119.621 97.2932L126.396 93.3081V101.318L119.621 105.463V97.2932Z" fill="#F3F3F3"/>
<path fill-rule="evenodd" clip-rule="evenodd" d="M119.533 96.6866L103.442 87.3946L88.4409 14.9619H151.806L135.908 87.1707L119.533 96.6866Z" fill="url(#paint4_linear_3471_10393)" fill-opacity="0.8"/>
</g>
<g opacity="0.4">
<path d="M24.4053 112.893L31.18 108.908L37.9547 112.694L31.18 116.679L24.4053 112.893Z" fill="white"/>
<path d="M25.6011 112.974L31.1802 109.705L36.7594 112.811L31.1802 116.081L25.6011 112.974Z" fill="#797B84"/>
<path d="M31.1797 112.893V109.705L36.7589 112.811L31.1797 116.081V112.893Z" fill="#393A4A"/>
<path d="M24.4053 112.893V120.863L31.18 124.848V116.679L24.4053 112.893Z" fill="#BDBDBD"/>
<path d="M31.1797 116.679L37.9544 112.694V120.704L31.1797 124.848V116.679Z" fill="#F3F3F3"/>
<path d="M13.709 118.49L20.4837 114.505L27.2584 118.291L20.4837 122.276L13.709 118.49Z" fill="white"/>
<path d="M14.9043 118.572L20.4835 115.302L26.0626 118.409L20.4835 121.678L14.9043 118.572Z" fill="#797B84"/>
<path d="M20.4834 118.49V115.302L26.0626 118.409L20.4834 121.678V118.49Z" fill="#393A4A"/>
<path d="M13.709 118.491V126.461L20.4837 130.446V122.277L13.709 118.491Z" fill="#BDBDBD"/>
<path d="M20.4834 122.276L27.2581 118.291V126.301L20.4834 130.446V122.276Z" fill="#F3F3F3"/>
<path d="M35.1528 118.49L41.9275 114.505L48.7022 118.291L41.9275 122.276L35.1528 118.49Z" fill="white"/>
<path d="M36.3486 118.572L41.9278 115.302L47.507 118.409L41.9278 121.678L36.3486 118.572Z" fill="#797B84"/>
<path d="M41.9277 118.49V115.302L47.5069 118.409L41.9277 121.678V118.49Z" fill="#393A4A"/>
<path d="M35.1528 118.491V126.461L41.9275 130.446V122.277L35.1528 118.491Z" fill="#BDBDBD"/>
<path d="M41.9277 122.276L48.7024 118.291V126.301L41.9277 130.446V122.276Z" fill="#F3F3F3"/>
<path d="M24.4053 124.76L31.18 120.775L37.9547 124.561L31.18 128.546L24.4053 124.76Z" fill="white"/>
<path d="M25.6011 124.842L31.1802 121.572L36.7594 124.678L31.1802 127.948L25.6011 124.842Z" fill="#797B84"/>
<path d="M31.1797 124.76V121.572L36.7589 124.678L31.1797 127.948V124.76Z" fill="#393A4A"/>
<path d="M24.4053 124.76V132.73L31.18 136.716V128.546L24.4053 124.76Z" fill="#BDBDBD"/>
<path d="M31.1797 128.546L37.9544 124.561V132.571L31.1797 136.715V128.546Z" fill="#F3F3F3"/>
<path fill-rule="evenodd" clip-rule="evenodd" d="M31.0917 127.94L15.0015 118.648L0 46.2153H63.3646L47.4675 118.424L31.0917 127.94Z" fill="url(#paint5_linear_3471_10393)" fill-opacity="0.8"/>
</g>
<path d="M68.1597 120.625L78.2198 114.708L88.2799 120.329L78.2198 126.247L68.1597 120.625Z" fill="#06AFFF"/>
<path d="M69.9351 120.747L78.2198 115.891L86.5046 120.504L78.2198 125.359L69.9351 120.747Z" fill="#0551CA"/>
<path d="M78.2197 120.625V115.891L86.5045 120.504L78.2197 125.359V120.625Z" fill="#052DAC"/>
<path d="M68.1597 120.625V132.461L78.2198 138.379V126.247L68.1597 120.625Z" fill="#2F80ED"/>
<path d="M78.2197 126.247L88.2798 120.33V132.224L78.2197 138.379V126.247Z" fill="#3C8AFE"/>
<path d="M52.2754 128.937L62.3355 123.02L72.3956 128.641L62.3355 134.559L52.2754 128.937Z" fill="#FF6677"/>
<path d="M54.0508 129.059L62.3356 124.203L70.6203 128.816L62.3356 133.671L54.0508 129.059Z" fill="#C13647"/>
<path d="M62.3354 128.937V124.203L70.6202 128.816L62.3354 133.671V128.937Z" fill="#A81525"/>
<path d="M52.2754 128.938V140.773L62.3355 146.691V134.559L52.2754 128.938Z" fill="#DE2424"/>
<path d="M62.3354 134.559L72.3955 128.641V140.536L62.3354 146.69V134.559Z" fill="#F32626"/>
<path d="M84.1191 128.937L94.1792 123.02L104.239 128.641L94.1792 134.559L84.1191 128.937Z" fill="#FFEE50"/>
<path d="M85.8945 129.059L94.1793 124.203L102.464 128.816L94.1793 133.671L85.8945 129.059Z" fill="#FED354"/>
<path d="M94.1792 128.937V124.203L102.464 128.816L94.1792 133.671V128.937Z" fill="#EEBD43"/>
<path d="M84.1191 128.938V140.773L94.1792 146.691V134.559L84.1191 128.938Z" fill="#DCB616"/>
<path d="M94.1792 134.559L104.239 128.641V140.536L94.1792 146.69V134.559Z" fill="#FFD215"/>
<path d="M68.1597 138.247L78.2198 132.329L88.2799 137.951L78.2198 143.869L68.1597 138.247Z" fill="#42E7AA"/>
<path d="M69.9351 138.368L78.2198 133.513L86.5046 138.125L78.2198 142.981L69.9351 138.368Z" fill="#139565"/>
<path d="M78.2197 138.247V133.513L86.5045 138.125L78.2197 142.981V138.247Z" fill="#117E56"/>
<path d="M68.1597 138.247V150.082L78.2198 156V143.868L68.1597 138.247Z" fill="#16A568"/>
<path d="M78.2197 143.869L88.2798 137.951V149.846L78.2197 156V143.869Z" fill="#17CE8A"/>
<path fill-rule="evenodd" clip-rule="evenodd" d="M78.088 142.969L54.195 129.171L31.9185 21.6118H126.012L102.405 128.838L78.088 142.969Z" fill="url(#paint6_linear_3471_10393)" fill-opacity="0.8"/>
<path d="M135.737 67.6512V58.8954C135.461 55.9026 133.801 53.0582 131.034 50.4612V59.217C133.801 61.814 135.461 64.6584 135.737 67.6512ZM129.616 57.9803V49.2245C128.648 48.433 127.542 47.6662 126.366 46.9489V55.7047C127.542 56.422 128.614 57.1888 129.616 57.9803ZM124.36 54.5175V45.7617C123.081 45.0692 121.697 44.3766 120.21 43.7583V52.5141C121.697 53.1572 123.081 53.825 124.36 54.5175ZM117.444 53.9734V40.0234C128.717 44.3024 135.772 50.4364 135.772 57.2135V71.1634C135.772 64.3864 128.752 58.2523 117.444 53.9734Z" fill="#646D82"/>
<path d="M96.7986 47.2952V44.7724C95.9341 44.6487 95.0696 44.5498 94.1705 44.4508V46.9737C95.0696 47.0479 95.9341 47.1716 96.7986 47.2952ZM92.0956 44.2035V41.9774C91.1965 41.8785 90.2974 41.8043 89.3983 41.7301V43.9562C90.2974 44.0551 91.1965 44.1293 92.0956 44.2035ZM101.329 45.4649V42.4474C100.499 42.299 99.6689 42.1506 98.8043 42.0269V45.0692C99.6689 45.1929 100.499 45.3413 101.329 45.4649ZM87.2543 43.8325V39.3309C86.3206 39.2814 85.4215 39.232 84.4878 39.1825V43.6593C85.3869 43.7336 86.3206 43.7583 87.2543 43.8325ZM77.1566 43.5851V39.0836C76.2229 39.0836 75.2546 39.1083 74.3209 39.133V43.6099C75.2546 43.6099 76.2229 43.5851 77.1566 43.5851ZM72.1423 43.7088V38.0695C71.2086 38.1189 70.3095 38.1684 69.3758 38.2179V43.8572C70.3095 43.8078 71.2086 43.7583 72.1423 43.7088ZM82.24 43.6099V37.1543C81.4101 37.1296 80.5455 37.1296 79.681 37.1049C79.5773 37.1049 79.4735 37.1049 79.3698 37.1049V43.5604C79.4735 43.5604 79.5773 43.5604 79.681 43.5604C80.5455 43.5851 81.4101 43.5851 82.24 43.6099ZM67.2664 44.0304V35.9671C66.3673 36.0413 65.4682 36.1155 64.6037 36.2144V44.2777C65.4682 44.2035 66.3673 44.1046 67.2664 44.0304ZM58.8286 35.2745C65.3299 34.2852 72.3498 33.7658 79.681 33.8152C89.4674 33.8894 98.666 34.953 106.62 36.8081V50.758C98.6314 48.9277 89.4674 47.8394 79.681 47.7652C72.3498 47.7157 65.2953 48.2351 58.8286 49.2245V35.2745Z" fill="#646D82"/>
<path d="M22.899 57.6771V60.7688C23.9563 58.6992 24.7318 58.1718 25.6655 56.8889C26.9406 55.612 27.5674 54.9596 29.089 53.9703C30.6105 52.9809 37.6651 48.9987 43.4747 47.1437V44.423C42.4373 44.7445 41.4344 45.0908 40.4662 45.4618C39.982 45.6349 39.4979 45.8328 39.0137 46.0059C34.2416 47.7126 29.4002 51.0269 29.4002 51.0269C29.4002 51.0269 23.6943 54.8327 22.899 57.6771ZM22.1382 54.0939C24.3514 47.2921 33.6883 41.4302 46.8982 37.7695V51.7195C33.6883 55.3801 24.3514 61.242 22.1382 68.0439V54.0939Z" fill="#646D82"/>
<path d="M22.9531 57.6589V60.7507C24.0104 58.681 24.7859 58.1536 25.7196 56.8707C26.9947 55.5939 27.6216 54.9414 29.1431 53.9521C30.6647 52.9627 37.7192 48.9806 43.5289 47.1255V44.4048C42.4914 44.7263 41.4886 45.0726 40.5203 45.4436C40.0362 45.6167 39.552 45.8146 39.0679 45.9878C34.2957 47.6944 29.4544 51.0087 29.4544 51.0087C29.4544 51.0087 23.7485 54.8145 22.9531 57.6589Z" fill="#42E7AA"/>
<path opacity="0.7529" d="M131.284 50.4253C134.05 53.0224 135.71 55.8668 135.987 58.8596V67.6154C135.71 64.6226 134.05 61.7782 131.284 59.1811V50.4253Z" fill="#42E7AA"/>
<path d="M126.615 46.8882C127.791 47.6302 128.897 48.397 129.865 49.1637V57.9195C128.897 57.128 127.791 56.3613 126.615 55.644V46.8882Z" fill="#42E7AA"/>
<path opacity="0.7529" d="M120.459 43.7222C121.912 44.3653 123.295 45.0331 124.609 45.7256V54.4814C123.33 53.7889 121.946 53.0963 120.459 52.478V43.7222Z" fill="#42E7AA"/>
<path d="M98.8047 42.1592C99.6346 42.2828 100.499 42.4313 101.329 42.5797V45.6219C100.499 45.4735 99.6692 45.3251 98.8047 45.2015V42.1592Z" fill="#42E7AA"/>
<path opacity="0.7529" d="M94.2051 44.5581C95.0696 44.657 95.9687 44.7807 96.8332 44.8796V47.4025C95.9687 47.2788 95.1042 47.1799 94.2051 47.081V44.5581Z" fill="#42E7AA"/>
<path d="M89.3984 41.8867C90.2975 41.9609 91.1967 42.0351 92.0958 42.1341V44.3601C91.1967 44.2612 90.2975 44.187 89.3984 44.1128V41.8867Z" fill="#42E7AA"/>
<path opacity="0.7529" d="M84.4531 39.2251C85.3868 39.2746 86.3205 39.2993 87.2196 39.3735V43.8503C86.2859 43.8009 85.3868 43.7514 84.4531 43.7019V39.2251Z" fill="#42E7AA"/>
<path opacity="0.7529" d="M79.4048 37.1226C79.5085 37.1226 79.6123 37.1226 79.716 37.1226C80.5805 37.1226 81.4105 37.1473 82.275 37.172V43.6276C81.4451 43.6028 80.5805 43.6028 79.716 43.5781C79.6123 43.5781 79.5085 43.5781 79.4048 43.5781V37.1226Z" fill="#42E7AA"/>
<path d="M74.3208 39.1754C75.2545 39.1507 76.1882 39.126 77.1565 39.126V43.6028C76.2228 43.6028 75.2545 43.6276 74.3208 43.6523V39.1754Z" fill="#42E7AA"/>
<path opacity="0.7529" d="M69.4106 38.2602C70.3098 38.2108 71.2434 38.1366 72.1771 38.1118V43.7264C71.2434 43.7759 70.3443 43.8254 69.4106 43.8748V38.2602Z" fill="#42E7AA"/>
<path d="M64.5693 36.2322C65.4684 36.1333 66.333 36.0591 67.2321 35.9849V44.0481C66.333 44.1223 65.4339 44.1965 64.5693 44.2955V40.2638V36.2322Z" fill="#42E7AA"/>
<path d="M39.8783 92.7749V90.4252C40.5353 90.6725 41.2269 90.9199 41.9186 91.1672V93.5169C41.2269 93.2696 40.5699 93.0222 39.8783 92.7749ZM33.4116 89.8316V85.4784C33.9649 85.7752 34.5182 86.072 35.1061 86.3441V90.6973C34.5182 90.4004 33.9649 90.1036 33.4116 89.8316ZM36.4893 91.3403V86.2204C37.1118 86.4925 37.7343 86.7646 38.3567 87.0366V92.1566C37.7343 91.8845 37.1118 91.6124 36.4893 91.3403ZM28.1899 86.4678V80.779C28.6048 81.1005 29.0544 81.4468 29.504 81.7683V87.4571C29.0544 87.1108 28.6394 86.7893 28.1899 86.4678ZM30.6451 88.1991V82.0404C31.1293 82.3619 31.648 82.6587 32.1667 82.9555V89.1143C31.6134 88.8175 31.1293 88.4959 30.6451 88.1991ZM24.4205 82.7329V76.0548C24.6972 76.4258 25.0084 76.7721 25.3196 77.1183V83.7965C25.0084 83.4502 24.7318 83.1039 24.4205 82.7329ZM26.115 84.6374V75.9558C26.4608 76.3021 26.8412 76.6484 27.2216 76.9947V85.6763C26.8412 85.33 26.4954 84.9837 26.115 84.6374ZM23.141 80.779V70.9596C23.3485 71.3306 23.556 71.7016 23.8327 72.0726V81.8672C23.556 81.521 23.3485 81.15 23.141 80.779ZM46.0683 82.9555C33.0312 79.196 24.0401 73.2598 22.1382 66.458V80.4079C24.0401 87.2098 33.0312 93.1459 46.0683 96.9055V82.9555Z" fill="#3F4658"/>
<path d="M84.315 98.4885V95.3473C86.5627 95.2483 88.7759 95.1247 90.92 94.9268V98.068C88.7759 98.2659 86.5627 98.3896 84.315 98.4885ZM73.7677 98.5132V92.775C75.1164 92.8244 76.4651 92.8492 77.8483 92.8739C78.782 92.8739 79.7157 92.8739 80.6494 92.8739V98.6122C79.7157 98.6122 78.782 98.6369 77.8483 98.6122C76.4651 98.5874 75.1164 98.5627 73.7677 98.5132ZM63.6009 97.7465V88.9907C65.7103 89.238 67.889 89.4111 70.1367 89.5595V98.3154C67.9235 98.1917 65.7449 97.9938 63.6009 97.7465ZM94.4127 97.7217V88.4465C96.5221 88.1992 98.597 87.9024 100.603 87.5808V96.8313C98.597 97.1776 96.5221 97.4744 94.4127 97.7217ZM105.79 84.4644C97.4904 86.2947 87.946 87.3088 77.8483 87.2346C70.7938 87.1851 64.085 86.6162 57.895 85.6021V99.5521C64.085 100.541 70.7938 101.135 77.8483 101.184C87.946 101.259 97.4904 100.245 105.79 98.4143V84.4644Z" fill="#3F4658"/>
<path d="M119.795 88.4465V85.7505C128.89 81.9167 134.804 76.7968 135.772 71.0832V73.7792C134.804 79.4928 128.89 84.6127 119.795 88.4465ZM135.91 78.1819V64.2319C135.634 71.0585 128.233 77.143 116.718 81.3478V95.2978C128.268 91.093 135.634 84.9837 135.91 78.1819Z" fill="#3F4658"/>
<path d="M135.771 71.083C134.803 76.7718 128.89 81.9165 119.795 85.7502V88.4462C128.89 84.6125 134.803 79.4925 135.771 73.779V71.083Z" fill="#F3F3F3"/>
<path d="M70.1369 89.5591C67.9237 89.4107 65.7451 89.2376 63.6011 88.9902V97.746C65.7105 97.9934 67.8891 98.1665 70.1369 98.3149V89.5591Z" fill="#F3F3F3"/>
<path d="M90.9199 94.9263C88.7413 95.1241 86.5627 95.2478 84.3149 95.3467V98.488C86.5627 98.389 88.7759 98.2654 90.9199 98.0675V94.9263Z" fill="#F3F3F3"/>
<path d="M100.603 87.4814C98.5969 87.8277 96.522 88.1245 94.4126 88.3471V97.5976C96.522 97.3503 98.5969 97.0535 100.603 96.7319V87.4814Z" fill="#F3F3F3"/>
<path opacity="0.7529" d="M80.6497 92.8484C79.716 92.8484 78.7823 92.8732 77.8486 92.8484C76.4654 92.8484 75.1167 92.799 73.7681 92.7495V98.4878C75.1167 98.5372 76.4654 98.562 77.8486 98.5867C78.7823 98.5867 79.716 98.5867 80.6497 98.5867V92.8484Z" fill="#F3F3F3"/>
<path d="M23.8327 72.1218C23.5907 71.7508 23.3486 71.3798 23.1411 71.0088V80.8034C23.3486 81.1744 23.5561 81.5454 23.8327 81.9164V72.1218Z" fill="#F3F3F3"/>
<path d="M25.3195 77.192C25.0083 76.8457 24.6971 76.4747 24.4204 76.1284V82.8066C24.6971 83.1776 25.0083 83.5239 25.3195 83.8701V77.192Z" fill="#F3F3F3"/>
<path opacity="0.7529" d="M27.256 77.0437C26.8756 76.6974 26.4952 76.3512 26.1494 76.0049V84.6865C26.4952 85.0328 26.8756 85.379 27.256 85.7253V77.0437Z" fill="#F3F3F3"/>
<path d="M29.5387 81.7931C29.0891 81.4715 28.6396 81.15 28.2246 80.8037V86.4925C28.6396 86.8141 29.0891 87.1603 29.5387 87.4819V81.7931Z" fill="#F3F3F3"/>
<path d="M32.1319 83.0045C31.6132 82.7077 31.0945 82.3862 30.6104 82.0894V88.2481C31.0945 88.5696 31.6132 88.8665 32.1319 89.1633V83.0045Z" fill="#F3F3F3"/>
<path opacity="0.7529" d="M35.1061 86.3935C34.5182 86.1214 33.9649 85.8246 33.4116 85.5278V89.881C33.9649 90.1778 34.5182 90.4746 35.1061 90.7467V86.3935Z" fill="#F3F3F3"/>
<path d="M38.3566 87.0858C37.7342 86.8137 37.1117 86.5416 36.4893 86.2695V91.3895C37.1117 91.6615 37.7342 91.9336 38.3566 92.2057V87.0858Z" fill="#F3F3F3"/>
<path opacity="0.7529" d="M41.9182 91.1917C41.2266 90.9444 40.5696 90.697 39.8779 90.4497V92.7994C40.535 93.0468 41.2266 93.2941 41.9182 93.5414V91.1917Z" fill="#F3F3F3"/>
<defs>
<linearGradient id="paint0_linear_3471_10393" x1="124.132" y1="69.0535" x2="124.132" y2="128.278" gradientUnits="userSpaceOnUse">
<stop stop-color="white" stop-opacity="0"/>
<stop offset="0.862563" stop-color="#C4C4C4" stop-opacity="0.43"/>
<stop offset="1" stop-color="#C4C4C4" stop-opacity="0"/>
</linearGradient>
<linearGradient id="paint1_linear_3471_10393" x1="76.9192" y1="22.8381" x2="76.9192" y2="82.063" gradientUnits="userSpaceOnUse">
<stop stop-color="white" stop-opacity="0"/>
<stop offset="0.862563" stop-color="#C4C4C4" stop-opacity="0.43"/>
<stop offset="1" stop-color="#C4C4C4" stop-opacity="0"/>
</linearGradient>
<linearGradient id="paint2_linear_3471_10393" x1="76.2542" y1="48.4397" x2="76.2542" y2="107.665" gradientUnits="userSpaceOnUse">
<stop stop-color="white" stop-opacity="0"/>
<stop offset="0.862563" stop-color="#C4C4C4" stop-opacity="0.43"/>
<stop offset="1" stop-color="#C4C4C4" stop-opacity="0"/>
</linearGradient>
<linearGradient id="paint3_linear_3471_10393" x1="32.0335" y1="37.8001" x2="32.0335" y2="97.0249" gradientUnits="userSpaceOnUse">
<stop stop-color="white" stop-opacity="0"/>
<stop offset="0.862563" stop-color="#C4C4C4" stop-opacity="0.43"/>
<stop offset="1" stop-color="#C4C4C4" stop-opacity="0"/>
</linearGradient>
<linearGradient id="paint4_linear_3471_10393" x1="117.815" y1="37.8001" x2="117.815" y2="97.0249" gradientUnits="userSpaceOnUse">
<stop stop-color="white" stop-opacity="0"/>
<stop offset="0.862563" stop-color="#C4C4C4" stop-opacity="0.43"/>
<stop offset="1" stop-color="#C4C4C4" stop-opacity="0"/>
</linearGradient>
<linearGradient id="paint5_linear_3471_10393" x1="29.3738" y1="69.0535" x2="29.3738" y2="128.278" gradientUnits="userSpaceOnUse">
<stop stop-color="white" stop-opacity="0"/>
<stop offset="0.862563" stop-color="#C4C4C4" stop-opacity="0.43"/>
<stop offset="1" stop-color="#C4C4C4" stop-opacity="0"/>
</linearGradient>
<linearGradient id="paint6_linear_3471_10393" x1="75.5371" y1="55.5253" x2="75.5371" y2="143.471" gradientUnits="userSpaceOnUse">
<stop stop-color="white" stop-opacity="0"/>
<stop offset="0.862563" stop-color="#C4C4C4" stop-opacity="0.43"/>
<stop offset="1" stop-color="#C4C4C4" stop-opacity="0"/>
</linearGradient>
</defs>
</svg>
