<svg width="22" height="22" viewBox="0 0 22 22" fill="none" xmlns="http://www.w3.org/2000/svg">
<path d="M10.2249 2.78466C10.4427 2.11452 11.3908 2.11452 11.6085 2.78466L13.0397 7.18948C13.1371 7.48918 13.4164 7.69209 13.7315 7.69209H18.363C19.0676 7.69209 19.3606 8.59376 18.7905 9.00793L15.0436 11.7303C14.7886 11.9155 14.682 12.2438 14.7793 12.5435L16.2106 16.9483C16.4283 17.6185 15.6613 18.1757 15.0912 17.7616L11.3443 15.0392C11.0893 14.854 10.7441 14.854 10.4892 15.0392L6.74222 17.7616C6.17216 18.1757 5.40515 17.6185 5.6229 16.9483L7.05411 12.5435C7.15149 12.2438 7.04481 11.9155 6.78987 11.7303L3.04291 9.00793C2.47285 8.59376 2.76582 7.69209 3.47045 7.69209H8.10195C8.41708 7.69209 8.69636 7.48918 8.79374 7.18948L10.2249 2.78466Z" fill="#3E66DF"/>
</svg>
