<svg width="20" height="20" viewBox="0 0 20 20" fill="none" xmlns="http://www.w3.org/2000/svg">
<mask id="mask0_351_9209" style="mask-type:luminance" maskUnits="userSpaceOnUse" x="0" y="0" width="20" height="20">
<path d="M20 0H0V20H20V0Z" fill="white"/>
</mask>
<g mask="url(#mask0_351_9209)">
<path d="M20 10C20 8.02219 19.4135 6.08879 18.3147 4.4443C17.2159 2.79981 15.6541 1.51809 13.8268 0.761212C11.9996 0.00433564 9.98891 -0.193701 8.0491 0.192151C6.10929 0.578003 4.32746 1.53041 2.92894 2.92894C1.53041 4.32746 0.578004 6.10929 0.192152 8.0491C-0.193701 9.98891 0.00433284 11.9996 0.761209 13.8268C1.51809 15.6541 2.79981 17.2159 4.4443 18.3147C6.08879 19.4135 8.02219 20 10 20C12.6522 20 15.1957 18.9464 17.0711 17.0711C18.9464 15.1957 20 12.6522 20 10Z" fill="#14216A"/>
<mask id="mask1_351_9209" style="mask-type:luminance" maskUnits="userSpaceOnUse" x="6" y="4" width="9" height="13">
<path d="M15 4H6V16.255H15V4Z" fill="white"/>
</mask>
<g mask="url(#mask1_351_9209)">
<path d="M11.814 16.255C11.4686 16.2859 11.1205 16.2458 10.7911 16.1371C10.4618 16.0284 10.1582 15.8535 9.899 15.623C9.52695 15.2665 9.31122 14.7771 9.299 14.262C9.29424 14.1054 9.33043 13.9503 9.404 13.812C9.47249 13.6923 9.57153 13.5929 9.691 13.524C9.8298 13.4546 9.98284 13.4185 10.138 13.4185C10.2932 13.4185 10.4462 13.4546 10.585 13.524C10.7044 13.5927 10.8032 13.6921 10.871 13.812C10.9467 13.9496 10.9843 14.105 10.98 14.262C10.9878 14.4493 10.934 14.6341 10.827 14.788C10.7375 14.9138 10.6099 15.0074 10.463 15.055C10.6069 15.2374 10.8099 15.364 11.037 15.413C11.2915 15.487 11.555 15.525 11.82 15.526C12.1708 15.5288 12.5144 15.4261 12.806 15.231C13.1084 15.0169 13.3338 14.7111 13.449 14.359C13.5949 13.9414 13.6663 13.5013 13.66 13.059C13.6717 12.5967 13.5936 12.1365 13.43 11.704C13.3072 11.3578 13.0738 11.0615 12.766 10.861C12.4797 10.6801 12.1476 10.585 11.809 10.587C11.5138 10.6121 11.2293 10.7089 10.98 10.869L10.365 11.177V10.869L13.128 7.162H9.3V11C9.28933 11.2776 9.36289 11.552 9.511 11.787C9.58284 11.8891 9.67969 11.971 9.79228 12.025C9.90487 12.0789 10.0294 12.103 10.154 12.095C10.3845 12.0903 10.6074 12.0118 10.79 11.871C10.9966 11.7193 11.1764 11.534 11.322 11.323C11.3351 11.286 11.3591 11.2539 11.391 11.231C11.4167 11.2091 11.4493 11.197 11.483 11.197C11.5494 11.2031 11.6123 11.2297 11.663 11.273C11.7278 11.3445 11.7634 11.4376 11.763 11.534C11.7557 11.5983 11.7443 11.6621 11.729 11.725C11.5931 12.0546 11.365 12.3379 11.072 12.541C10.8001 12.7247 10.4792 12.8223 10.151 12.821C9.53465 12.8879 8.91651 12.7117 8.428 12.33C8.26396 12.1511 8.13707 11.9414 8.05467 11.7131C7.97228 11.4848 7.93602 11.2424 7.948 11V7.163H6V6.448H7.957V4.819L7.509 4.37V4H8.809L9.297 4.253V6.443L14.356 6.428L14.856 6.928L11.756 10.046C11.9434 9.97043 12.1408 9.92259 12.342 9.904C12.7403 9.92104 13.1288 10.0321 13.476 10.228C13.8783 10.4188 14.2174 10.7211 14.453 11.099C14.6637 11.4189 14.8129 11.7754 14.893 12.15C14.9586 12.4456 14.9938 12.7472 14.998 13.05C15.0001 13.6277 14.869 14.1981 14.615 14.717C14.3742 15.2198 13.9688 15.6252 13.466 15.866C12.9528 16.1216 12.3873 16.2548 11.814 16.255Z" fill="#FEFFFE"/>
</g>
</g>
</svg>
