<svg width="20" height="20" viewBox="0 0 20 20" fill="none" xmlns="http://www.w3.org/2000/svg">
<mask id="mask0_351_9179" style="mask-type:luminance" maskUnits="userSpaceOnUse" x="0" y="0" width="20" height="20">
<path d="M20 0H0V20H20V0Z" fill="white"/>
</mask>
<g mask="url(#mask0_351_9179)">
<path d="M20 10C20 8.02219 19.4135 6.08878 18.3147 4.44429C17.2159 2.7998 15.6541 1.51808 13.8268 0.761201C11.9996 0.00432432 9.98891 -0.193698 8.0491 0.192155C6.10929 0.578007 4.32746 1.5304 2.92894 2.92893C1.53041 4.32745 0.578004 6.10929 0.192152 8.0491C-0.193701 9.98891 0.00433284 11.9996 0.761209 13.8268C1.51809 15.6541 2.79981 17.2159 4.4443 18.3147C6.08879 19.4135 8.02219 20 10 20C12.6522 20 15.1957 18.9464 17.0711 17.0711C18.9464 15.1957 20 12.6522 20 10Z" fill="#0D67FE"/>
<path d="M4 14.293L6.282 12.576C6.27 12.456 6.265 12.333 6.265 12.21V9.175L8.534 7.924V10.882L11.181 8.89101V6.46001L13.831 5V6.89999L16.1 5.19V5.569L13.831 7.205V7.513L16.1 5.948V6.328L13.831 7.821V8.129L16.1 6.707V7.086L13.831 8.437V8.746L16.1 7.466V7.845L13.831 9.054V9.362L16.1 8.224V8.603L13.831 9.67V9.978L16.1 8.983V9.362L13.831 10.286V12.207C13.8339 13.1153 13.5096 13.9942 12.9175 14.683C12.3255 15.3717 11.5052 15.8243 10.6068 15.9579C9.70841 16.0914 8.79196 15.897 8.02515 15.4102C7.25834 14.9234 6.69244 14.1768 6.431 13.307L4 14.293ZM6.391 13.169L4 14.291L6.407 13.235L6.391 13.169ZM6.31 12.769L4 14.29L6.319 12.837C6.31633 12.8123 6.31333 12.7907 6.31 12.772V12.769ZM6.359 13.033L4.006 14.29L6.375 13.1L6.359 13.033ZM6.293 12.633L4.007 14.281L6.3 12.706C6.3 12.684 6.29767 12.662 6.293 12.64V12.633ZM11.184 11.358L8.557 12.429C8.61304 12.7562 8.79004 13.0504 9.05288 13.2532C9.31572 13.4559 9.64519 13.5525 9.9759 13.5237C10.3066 13.4948 10.6144 13.3427 10.8382 13.0975C11.062 12.8523 11.1854 12.532 11.184 12.2V11.358ZM11.184 10.908L8.537 12.152V12.2C8.537 12.2313 8.537 12.2623 8.537 12.293L11.181 11.133L11.184 10.908ZM11.184 10.458L8.537 11.868V12.01L11.184 10.682V10.458ZM11.184 10.007L8.538 11.59V11.733L11.185 10.239L11.184 10.007ZM11.184 9.556L8.537 11.299V11.441L11.184 9.782V9.556ZM11.184 9.106L8.537 11.015V11.157L11.184 9.33099V9.106ZM4 14.293L6.342 12.971C6.33733 12.949 6.333 12.927 6.329 12.905L4 14.291V14.293Z" fill="white"/>
</g>
</svg>
