<svg width="36" height="36" viewBox="0 0 36 36" fill="none" xmlns="http://www.w3.org/2000/svg">
<g id="user-check">
<path id="Vector" d="M24 31.5V28.5C24 26.9087 23.3679 25.3826 22.2426 24.2574C21.1174 23.1321 19.5913 22.5 18 22.5H9C7.4087 22.5 5.88258 23.1321 4.75736 24.2574C3.63214 25.3826 3 26.9087 3 28.5V31.5M24 16.5L27 19.5L33 13.5M19.5 10.5C19.5 13.8137 16.8137 16.5 13.5 16.5C10.1863 16.5 7.5 13.8137 7.5 10.5C7.5 7.18629 10.1863 4.5 13.5 4.5C16.8137 4.5 19.5 7.18629 19.5 10.5Z" stroke="#212121" stroke-width="2" stroke-linecap="round" stroke-linejoin="round"/>
</g>
</svg>
