<svg width="126" height="133" viewBox="0 0 126 133" fill="none" xmlns="http://www.w3.org/2000/svg">
<path d="M116.1 90.0118C116.1 89.4609 116.074 86.3203 115.503 86.0348L85.7229 71.1708C85.0928 70.8565 84.3982 70.6929 83.6941 70.6929C82.9899 70.6929 82.2953 70.8565 81.6652 71.1708L8.73554 107.595C8.47827 107.722 8.26284 107.919 8.11502 108.165C7.96721 108.41 7.89327 108.693 7.90207 108.98L8.27122 110.998C8.27122 111.543 7.69443 112.065 8.2568 112.348L39.9804 131.789C40.5043 132.051 41.0819 132.187 41.6675 132.187C42.2531 132.187 42.8307 132.051 43.3546 131.789L116.339 95.5345C116.592 95.4108 116.805 95.2177 116.953 94.9778C117.101 94.7379 117.178 94.461 117.175 94.1791L116.1 90.0118Z" fill="url(#paint0_radial_3471_10296)"/>
<path d="M116.152 85.3024C116.162 85.0146 116.088 84.73 115.94 84.4828C115.793 84.2357 115.576 84.0366 115.318 83.9094L85.5383 69.0311C84.9086 68.7153 84.2139 68.5508 83.5094 68.5508C82.8049 68.5508 82.1102 68.7153 81.4805 69.0311L8.55089 105.49C8.29385 105.617 8.07871 105.816 7.93098 106.062C7.78326 106.308 7.70914 106.591 7.71742 106.877V111.16C7.71212 111.444 7.78766 111.723 7.93524 111.966C8.08282 112.209 8.29634 112.404 8.55089 112.53L38.6739 127.578C39.1978 127.84 39.7754 127.976 40.361 127.976C40.9466 127.976 41.5242 127.84 42.0481 127.578L115.332 90.9579C115.586 90.8341 115.799 90.6411 115.947 90.4012C116.095 90.1613 116.172 89.8843 116.169 89.6024L116.152 85.3024Z" fill="#484E66"/>
<path d="M42.4001 123.065L115.333 86.6289C115.584 86.5032 115.795 86.3098 115.943 86.0707C116.091 85.8315 116.169 85.556 116.169 85.2749C116.169 84.9938 116.091 84.7182 115.943 84.4791C115.795 84.2399 115.584 84.0467 115.333 83.9209L85.5529 69.0426C84.9226 68.7269 84.2274 68.5625 83.5226 68.5625C82.8177 68.5625 82.1225 68.7269 81.4922 69.0426L8.56261 105.49C8.31122 105.616 8.09982 105.809 7.95207 106.048C7.80433 106.287 7.72607 106.563 7.72607 106.844C7.72607 107.125 7.80433 107.401 7.95207 107.64C8.09982 107.879 8.31122 108.072 8.56261 108.198L38.3309 123.065C38.9625 123.381 39.6591 123.546 40.3655 123.546C41.0719 123.546 41.7685 123.381 42.4001 123.065Z" fill="#9FA1AF"/>
<path d="M42.1893 122.431L113.602 86.7446C113.853 86.6188 114.065 86.4255 114.212 86.1864C114.36 85.9472 114.438 85.6716 114.438 85.3905C114.438 85.1094 114.36 84.8339 114.212 84.5948C114.065 84.3556 113.853 84.1624 113.602 84.0366L108.483 81.4582L106.634 82.3754C106.108 82.64 105.526 82.7777 104.937 82.7777C104.348 82.7777 103.767 82.64 103.24 82.3754L84.7191 73.1236C84.5934 73.0605 84.4878 72.9637 84.414 72.844C84.3402 72.7244 84.3011 72.5865 84.3011 72.4459C84.3011 72.3053 84.3402 72.1674 84.414 72.0478C84.4878 71.9281 84.5934 71.8313 84.7191 71.7682L86.9426 70.6578L84.8979 69.6253C84.3618 69.3923 83.7818 69.278 83.1974 69.2899C82.6131 69.3019 82.0382 69.4398 81.5121 69.6946L10.0071 105.456C9.75564 105.581 9.54406 105.774 9.39616 106.013C9.24827 106.252 9.16992 106.527 9.16992 106.808C9.16992 107.089 9.24827 107.365 9.39616 107.604C9.54406 107.843 9.75564 108.036 10.0071 108.161L38.5584 122.428C39.4841 123.045 41.004 122.961 42.1893 122.431Z" fill="#E0D6FF"/>
<path d="M113.974 86.4821C113.921 86.5302 113.865 86.5754 113.807 86.6176L113.712 86.6811L113.611 86.7358L113.276 86.9031H55.4614V81.5303H101.556L103.249 82.3724C103.776 82.6363 104.357 82.7737 104.946 82.7737C105.535 82.7737 106.116 82.6363 106.643 82.3724L108.333 81.536H108.65L113.611 84.0307L113.712 84.0884L113.807 84.1489C113.866 84.1903 113.922 84.2366 113.974 84.2874C114.122 84.4292 114.24 84.5996 114.32 84.7882C114.401 84.9768 114.442 85.1796 114.442 85.3847C114.442 85.5897 114.401 85.7927 114.32 85.9813C114.24 86.1698 114.122 86.3402 113.974 86.4821Z" fill="white"/>
<path d="M88.3331 99.3677L58.3832 114.338H22.3884L10.0162 108.152C9.76484 108.026 9.55343 107.833 9.40569 107.594C9.25794 107.355 9.17969 107.079 9.17969 106.798C9.17969 106.517 9.25794 106.242 9.40569 106.002C9.55343 105.763 9.76484 105.57 10.0162 105.444L22.1808 99.3677H88.3331Z" fill="url(#paint1_radial_3471_10296)"/>
<path d="M54.9337 116.06L49.6387 118.71H31.1294L25.8345 116.06H54.9337Z" fill="url(#paint2_radial_3471_10296)"/>
<path d="M18.2036 84.7606L58.1753 81.0894L96.5695 82.3093L91.6293 90.0325L27.8274 93.5538L18.2036 84.7606Z" fill="#EABEA4"/>
<path d="M17.8721 86.1332L57.8438 82.4619L96.238 83.6818L91.2978 91.4051L27.4959 94.9264L17.8721 86.1332Z" fill="#F5DED0"/>
<path d="M89.8381 71.3317L38.8213 52.2065L30.1506 75.3358L81.1674 94.461L89.8381 71.3317Z" fill="#8EE0B1"/>
<path d="M59.9259 82.3264C64.9049 82.3264 68.9412 78.2902 68.9412 73.3112C68.9412 68.3322 64.9049 64.2959 59.9259 64.2959C54.9469 64.2959 50.9106 68.3322 50.9106 73.3112C50.9106 78.2902 54.9469 82.3264 59.9259 82.3264Z" fill="#14AD6B"/>
<path d="M44.8312 70.015C46.1357 70.015 47.1932 68.9575 47.1932 67.653C47.1932 66.3486 46.1357 65.291 44.8312 65.291C43.5267 65.291 42.4692 66.3486 42.4692 67.653C42.4692 68.9575 43.5267 70.015 44.8312 70.015Z" fill="#14AD6B"/>
<path d="M75.0177 81.3343C76.3222 81.3343 77.3797 80.2768 77.3797 78.9724C77.3797 77.6679 76.3222 76.6104 75.0177 76.6104C73.7133 76.6104 72.6558 77.6679 72.6558 78.9724C72.6558 80.2768 73.7133 81.3343 75.0177 81.3343Z" fill="#14AD6B"/>
<path d="M87.0641 72.7252L39.9927 55.0791L32.9215 73.9417L79.9929 91.5879L87.0641 72.7252Z" stroke="#14AD6B" stroke-width="0.513345" stroke-miterlimit="10"/>
<path d="M58.8066 79.6473H58.671L58.1173 81.1269L57.3675 80.8385C57.0845 80.7309 56.8552 80.5164 56.7289 80.2412C56.6027 79.9661 56.5896 79.6523 56.6926 79.3676L56.8426 78.9697L56.7157 78.8918C54.9507 77.8189 54.6595 75.8636 55.1526 74.4014L55.2074 74.237L56.4763 74.7158C56.7017 74.8012 56.8947 74.9551 57.0281 75.1558C57.1616 75.3565 57.2288 75.5939 57.2204 75.8348C57.2007 76.2125 57.3019 76.5868 57.5094 76.9031C57.7168 77.2195 58.0197 77.4615 58.374 77.594C58.5864 77.6752 58.813 77.7132 59.0403 77.7057C59.2676 77.6981 59.4911 77.6452 59.6977 77.5501C59.9043 77.455 60.0898 77.3196 60.2433 77.1518C60.3969 76.984 60.5153 76.7873 60.5918 76.5731C61.059 75.333 60.1361 74.4822 58.7835 73.4007C56.8974 71.9587 56.9926 70.3524 57.4021 69.2594C57.6717 68.4906 58.1974 67.8378 58.891 67.4104C59.5845 66.983 60.4039 66.807 61.2118 66.9118H61.3474L61.8636 65.5361L62.6134 65.8245C62.8964 65.9321 63.1258 66.1466 63.252 66.4217C63.3782 66.6969 63.3913 67.0107 63.2883 67.2954L63.1729 67.5982L63.2911 67.6789C64.6351 68.6046 65.1052 70.1101 64.5486 71.7164L64.4909 71.8751L63.3373 71.4454C63.1248 71.3648 62.9408 71.2234 62.8085 71.0387C62.6761 70.854 62.6012 70.6343 62.5932 70.4072C62.5914 70.093 62.4969 69.7863 62.3214 69.5257C62.1459 69.265 61.8974 69.062 61.6069 68.9421C61.4137 68.871 61.2083 68.8393 61.0027 68.8487C60.7971 68.8581 60.5954 68.9084 60.4095 68.9968C60.2236 69.0852 60.0573 69.2098 59.9202 69.3634C59.7831 69.5169 59.6781 69.6963 59.6112 69.8909C59.1844 71.0272 60.0236 71.7078 61.2955 72.7345C62.8384 74.038 63.395 75.6618 62.8239 77.1845C62.5143 77.9768 61.9543 78.6462 61.229 79.0908C60.5038 79.5354 59.6531 79.7308 58.8066 79.6473Z" fill="#8EE0B1"/>
<path d="M71.0722 63.2576C74.9187 63.2576 78.037 60.1394 78.037 56.2929C78.037 52.4463 74.9187 49.3281 71.0722 49.3281C67.2257 49.3281 64.1074 52.4463 64.1074 56.2929C64.1074 60.1394 67.2257 63.2576 71.0722 63.2576Z" fill="#E5B20E"/>
<path d="M70.2992 62.5223C74.1458 62.5223 77.264 59.404 77.264 55.5575C77.264 51.711 74.1458 48.5928 70.2992 48.5928C66.4527 48.5928 63.3345 51.711 63.3345 55.5575C63.3345 59.404 66.4527 62.5223 70.2992 62.5223Z" fill="#FFDE82"/>
<path d="M69.4775 58.7296H69.4083L69.0622 59.4621L68.6901 59.2833C68.6188 59.2522 68.5544 59.2071 68.501 59.1505C68.4475 59.0939 68.4061 59.0271 68.3791 58.9541C68.3522 58.881 68.3403 58.8033 68.3442 58.7256C68.3481 58.6478 68.3677 58.5717 68.4018 58.5018L68.4969 58.3056L68.4335 58.2624C68.0759 57.998 67.8208 57.618 67.7115 57.187C67.6021 56.756 67.6453 56.3004 67.8336 55.8975L67.8682 55.8168L68.494 56.1052C68.6067 56.1567 68.6998 56.2431 68.7596 56.3517C68.8193 56.4602 68.8425 56.5852 68.8257 56.7079C68.7992 56.9009 68.8349 57.0972 68.9278 57.2684C69.0206 57.4396 69.1657 57.5766 69.3419 57.6596C69.4466 57.7117 69.5607 57.7421 69.6773 57.7489C69.794 57.7557 69.9109 57.7387 70.0209 57.6991C70.1308 57.6595 70.2316 57.598 70.3172 57.5183C70.4027 57.4387 70.4712 57.3425 70.5186 57.2357C70.807 56.6214 70.3802 56.1456 69.7341 55.5399C68.8344 54.7209 68.9526 53.9047 69.2093 53.3625C69.3805 52.9812 69.6779 52.6706 70.0514 52.4831C70.4249 52.2956 70.8517 52.2425 71.2598 52.3329H71.329L71.652 51.6523L72.024 51.8311C72.0954 51.8622 72.1597 51.9073 72.2132 51.9639C72.2666 52.0205 72.3081 52.0873 72.335 52.1603C72.362 52.2334 72.3738 52.3111 72.37 52.3888C72.3661 52.4666 72.3465 52.5427 72.3124 52.6127L72.2403 52.7626L72.2951 52.8059C72.606 53.0501 72.8226 53.3946 72.9078 53.7807C72.993 54.1667 72.9416 54.5703 72.7623 54.9227L72.7277 55.0006L72.1509 54.7324C72.0442 54.684 71.9548 54.6043 71.8945 54.5038C71.8342 54.4034 71.806 54.287 71.8135 54.17C71.8273 54.0093 71.793 53.848 71.715 53.7067C71.6369 53.5655 71.5186 53.4507 71.3751 53.3769C71.2797 53.3322 71.1762 53.3069 71.0709 53.3025C70.9655 53.2982 70.8603 53.3149 70.7615 53.3517C70.6627 53.3885 70.5722 53.4446 70.4953 53.5168C70.4185 53.589 70.3567 53.6757 70.3138 53.772C70.0456 54.3488 70.4465 54.7209 71.0492 55.3005C71.7818 56.0359 71.9952 56.8867 71.626 57.6395C71.4352 58.0301 71.1222 58.3479 70.7345 58.5446C70.3467 58.7414 69.9054 58.8063 69.4775 58.7296Z" fill="#E5B20E"/>
<path d="M70.3224 60.9504C73.3105 60.9504 75.7327 58.5282 75.7327 55.5402C75.7327 52.5522 73.3105 50.1299 70.3224 50.1299C67.3344 50.1299 64.9121 52.5522 64.9121 55.5402C64.9121 58.5282 67.3344 60.9504 70.3224 60.9504Z" stroke="#E5B20E" stroke-width="0.853653" stroke-miterlimit="10"/>
<path style="mix-blend-mode:multiply" d="M77.3624 59.2863C78.0945 57.7518 78.2362 56.0014 77.7604 54.3691C75.9262 58.1183 69.9564 61.5791 65.3594 60.4486C65.5322 60.6271 65.7152 60.7957 65.9073 60.9532C66.6741 61.8046 67.639 62.4537 68.7165 62.8429C69.7941 63.2321 70.9511 63.3495 72.0849 63.1846C73.2186 63.0197 74.2943 62.5777 75.2164 61.8977C76.1385 61.2177 76.8786 60.3208 77.3711 59.2863H77.3624Z" fill="url(#paint3_radial_3471_10296)"/>
<g style="mix-blend-mode:soft-light">
<path d="M64.0183 55.5575C64.0183 55.5575 63.9347 52.1602 66.7091 50.3202C69.4834 48.4802 71.9002 49.3858 73.1172 49.9424" stroke="#FFF3D5" stroke-width="0.602748" stroke-miterlimit="10" stroke-linecap="round"/>
</g>
<path d="M28.182 58.4157C32.7453 58.4157 36.4445 54.7164 36.4445 50.1531C36.4445 45.5899 32.7453 41.8906 28.182 41.8906C23.6187 41.8906 19.9194 45.5899 19.9194 50.1531C19.9194 54.7164 23.6187 58.4157 28.182 58.4157Z" fill="#E5B20E"/>
<path d="M29.4339 58.2771C33.9972 58.2771 37.6965 54.5778 37.6965 50.0145C37.6965 45.4512 33.9972 41.752 29.4339 41.752C24.8707 41.752 21.1714 45.4512 21.1714 50.0145C21.1714 54.5778 24.8707 58.2771 29.4339 58.2771Z" fill="#FFDE82"/>
<path d="M33.3038 50.5944V50.6752L34.2123 50.9896L34.0536 51.451C33.9933 51.6256 33.8663 51.7692 33.7003 51.8502C33.5344 51.9313 33.343 51.9433 33.1683 51.8836L32.926 51.8L32.8799 51.8778C32.6158 52.3346 32.2018 52.6858 31.7082 52.8719C31.2145 53.058 30.6717 53.0675 30.1718 52.8987L30.0738 52.867L30.342 52.0884C30.391 51.9503 30.4817 51.8309 30.6016 51.7467C30.7215 51.6624 30.8646 51.6176 31.0111 51.6182C31.2416 51.6239 31.468 51.556 31.6573 51.4243C31.8466 51.2925 31.9889 51.1039 32.0637 50.8857C32.112 50.7547 32.1333 50.6153 32.1264 50.4758C32.1194 50.3363 32.0842 50.1996 32.0231 50.0741C31.9619 49.9485 31.876 49.8367 31.7705 49.7452C31.6649 49.6537 31.542 49.5845 31.409 49.5418C30.6477 49.2765 30.143 49.8504 29.5143 50.6954C28.6664 51.8634 27.6887 51.8316 27.0168 51.6009C26.5451 51.4488 26.14 51.1391 25.8696 50.7238C25.5992 50.3084 25.4798 49.8127 25.5315 49.3197V49.2361L24.6865 48.9477L24.848 48.4863C24.9077 48.3119 25.0342 48.1683 25.1997 48.0872C25.3652 48.0061 25.5561 47.9941 25.7305 48.0537L25.918 48.1171L25.9641 48.045C26.2108 47.6469 26.5882 47.3469 27.0317 47.1964C27.4752 47.0459 27.9573 47.0543 28.3953 47.2202L28.4934 47.252L28.2511 47.9556C28.2064 48.0869 28.1235 48.2018 28.013 48.2856C27.9025 48.3693 27.7695 48.4181 27.631 48.4257C27.4421 48.4333 27.2594 48.4961 27.1057 48.6063C26.952 48.7165 26.8338 48.8693 26.7659 49.0458C26.7255 49.1644 26.7093 49.29 26.7181 49.415C26.727 49.54 26.7608 49.6619 26.8175 49.7737C26.8742 49.8855 26.9527 49.9848 27.0483 50.0659C27.1439 50.1469 27.2548 50.2079 27.3744 50.2455C28.0723 50.4877 28.4732 49.9571 29.0759 49.1784C29.8459 48.2209 30.8236 47.8547 31.7609 48.1777C32.2464 48.3572 32.66 48.6904 32.9385 49.1267C33.2171 49.563 33.3453 50.0784 33.3038 50.5944Z" fill="#E5B20E"/>
<path d="M29.4339 56.4313C32.9778 56.4313 35.8507 53.5584 35.8507 50.0145C35.8507 46.4706 32.9778 43.5977 29.4339 43.5977C25.89 43.5977 23.0171 46.4706 23.0171 50.0145C23.0171 53.5584 25.89 56.4313 29.4339 56.4313Z" stroke="#E5B20E" stroke-width="0.853653" stroke-miterlimit="10"/>
<path style="mix-blend-mode:multiply" d="M36.5253 54.2511C27.4351 56.1574 23.3081 48.1342 22.8813 43.8169C21.4784 44.9907 20.5047 46.5968 20.1128 48.3835C19.7209 50.1702 19.9329 52.0364 20.7156 53.6896C21.4984 55.3428 22.8076 56.6896 24.438 57.5187C26.0684 58.3479 27.9279 58.6126 29.7249 58.2713C31.1038 58.2216 32.4484 57.8278 33.6361 57.1256C34.8239 56.4234 35.8171 55.4353 36.5253 54.2511Z" fill="url(#paint4_radial_3471_10296)"/>
<g style="mix-blend-mode:soft-light">
<path d="M35.519 45.6943C36.1988 46.7971 36.607 48.0455 36.7101 49.3368" stroke="#FFF3D5" stroke-width="0.703687" stroke-miterlimit="10" stroke-linecap="round"/>
</g>
<g style="mix-blend-mode:soft-light">
<path d="M25.6411 43.5427C27.062 42.7327 28.6948 42.3718 30.3247 42.5074" stroke="#FFF3D5" stroke-width="0.703687" stroke-miterlimit="10" stroke-linecap="round"/>
</g>
<path d="M55.6441 16.3084L30.9558 27.9732C29.8195 28.5101 29.3336 29.8664 29.8705 31.0026L36.3941 44.8096C36.9309 45.9459 38.2873 46.4318 39.4235 45.895L64.1119 34.2301C65.2481 33.6933 65.734 32.3369 65.1971 31.2006L58.6735 17.3937C58.1367 16.2574 56.7804 15.7715 55.6441 16.3084Z" fill="#855CFF"/>
<path d="M59.7401 19.6527L30.937 33.2617L32.9489 37.5199L61.752 23.9109L59.7401 19.6527Z" fill="#412BC9"/>
<path d="M49.6953 35.8875L38.1855 41.3257L38.9962 43.0414L50.5059 37.6032L49.6953 35.8875Z" fill="#412BC9"/>
<path d="M61.2742 30.3343L54.5493 33.5117L55.36 35.2275L62.0849 32.0501L61.2742 30.3343Z" fill="#412BC9"/>
<path d="M68.5201 23.5279C71.7502 23.5279 74.3687 20.9094 74.3687 17.6793C74.3687 14.4491 71.7502 11.8306 68.5201 11.8306C65.2899 11.8306 62.6714 14.4491 62.6714 17.6793C62.6714 20.9094 65.2899 23.5279 68.5201 23.5279Z" fill="#E5B20E"/>
<path d="M69.0879 24.2145C72.3181 24.2145 74.9366 21.5959 74.9366 18.3658C74.9366 15.1356 72.3181 12.5171 69.0879 12.5171C65.8578 12.5171 63.2393 15.1356 63.2393 18.3658C63.2393 21.5959 65.8578 24.2145 69.0879 24.2145Z" fill="#FFDE82"/>
<path d="M70.2505 20.8805L70.2015 20.9122L70.3688 21.5697L70.0342 21.6563C69.9077 21.6887 69.7734 21.6695 69.6609 21.603C69.5485 21.5365 69.467 21.4281 69.4344 21.3015L69.3882 21.1227H69.3248C68.9522 21.1435 68.5838 21.0349 68.2821 20.8152C67.9804 20.5955 67.764 20.2783 67.6694 19.9172L67.6463 19.8451L68.2231 19.7009C68.324 19.6767 68.43 19.6842 68.5265 19.7224C68.623 19.7606 68.7054 19.8276 68.7624 19.9143C68.848 20.0535 68.9761 20.1614 69.1277 20.2222C69.2794 20.2829 69.4465 20.2933 69.6045 20.2517C69.6994 20.2279 69.7885 20.1855 69.8668 20.1269C69.9451 20.0683 70.011 19.9948 70.0606 19.9105C70.1103 19.8263 70.1427 19.733 70.156 19.6361C70.1693 19.5393 70.1632 19.4407 70.1381 19.3462C69.9968 18.7925 69.4632 18.7175 68.722 18.6742C67.7011 18.6252 67.3377 18.034 67.2137 17.5466C67.1204 17.2084 67.1463 16.8484 67.2871 16.527C67.4278 16.2056 67.6748 15.9424 67.9866 15.7816L68.0386 15.7528L67.8828 15.1385L68.2174 15.0548C68.3439 15.0232 68.4778 15.0427 68.5901 15.1091C68.7023 15.1755 68.7839 15.2834 68.8172 15.4096L68.8518 15.5452H68.9009C69.2339 15.5327 69.5608 15.6376 69.8243 15.8416C70.0879 16.0456 70.2714 16.3357 70.3428 16.6612L70.363 16.7304L69.8526 16.8602C69.7578 16.8857 69.6575 16.882 69.5649 16.8496C69.4723 16.8171 69.3916 16.7576 69.3334 16.6785C69.2572 16.5654 69.149 16.4776 69.0227 16.4262C68.8963 16.3748 68.7575 16.3623 68.624 16.3901C68.5383 16.4125 68.458 16.4517 68.3877 16.5055C68.3174 16.5592 68.2585 16.6265 68.2145 16.7033C68.1704 16.7801 68.1421 16.8649 68.1312 16.9527C68.1203 17.0406 68.1271 17.1297 68.151 17.2149C68.2808 17.7225 68.7451 17.7571 69.4459 17.809C70.3111 17.8898 70.9081 18.3282 71.0811 19.0059C71.1688 19.3662 71.1349 19.7454 70.9846 20.0844C70.8344 20.4235 70.5763 20.7034 70.2505 20.8805Z" fill="#E5B20E"/>
<path d="M69.0881 22.9111C71.5983 22.9111 73.6332 20.8761 73.6332 18.3659C73.6332 15.8557 71.5983 13.8208 69.0881 13.8208C66.5779 13.8208 64.543 15.8557 64.543 18.3659C64.543 20.8761 66.5779 22.9111 69.0881 22.9111Z" stroke="#E5B20E" stroke-width="0.571025" stroke-miterlimit="10"/>
<g style="mix-blend-mode:soft-light">
<path d="M63.8886 18.3657C63.8886 18.3657 63.5309 15.701 66.2505 13.9158C68.5577 12.3988 70.5765 13.2352 71.5887 13.6966" stroke="#FFF3D5" stroke-width="0.498926" stroke-miterlimit="10" stroke-linecap="round"/>
</g>
<path d="M44.5947 12.4219C46.7545 12.4219 48.5054 10.6711 48.5054 8.51126C48.5054 6.35146 46.7545 4.60059 44.5947 4.60059C42.4349 4.60059 40.6841 6.35146 40.6841 8.51126C40.6841 10.6711 42.4349 12.4219 44.5947 12.4219Z" fill="#FFDE82"/>
<path d="M44.9756 12.8808C47.1354 12.8808 48.8862 11.13 48.8862 8.97017C48.8862 6.81038 47.1354 5.05957 44.9756 5.05957C42.8158 5.05957 41.0649 6.81038 41.0649 8.97017C41.0649 11.13 42.8158 12.8808 44.9756 12.8808Z" fill="#FFE8AC"/>
<path d="M45.7513 10.6512L45.7196 10.6686L45.8292 11.1098L45.6071 11.1675C45.5652 11.1783 45.5217 11.1808 45.4789 11.1748C45.4361 11.1688 45.3949 11.1544 45.3576 11.1324C45.3204 11.1104 45.2878 11.0814 45.2619 11.0468C45.2359 11.0122 45.217 10.9729 45.2062 10.931L45.1745 10.8128H45.1312C44.8819 10.8263 44.6355 10.7533 44.4338 10.6062C44.232 10.4591 44.0872 10.2468 44.0238 10.0052V9.95912L44.4016 9.86104C44.4692 9.84545 44.54 9.85096 44.6044 9.87674C44.6689 9.90251 44.7239 9.94731 44.7621 10.0052C44.8203 10.1007 44.9083 10.1745 45.0125 10.2151C45.1167 10.2558 45.2314 10.2611 45.3389 10.2302C45.4024 10.2144 45.4622 10.1862 45.5147 10.147C45.5672 10.1079 45.6114 10.0587 45.6446 10.0023C45.6779 9.94597 45.6997 9.88351 45.7086 9.81865C45.7175 9.75379 45.7134 9.68786 45.6965 9.6246C45.6013 9.25545 45.2437 9.20353 44.7477 9.17469C44.5182 9.18755 44.2915 9.11914 44.1074 8.98148C43.9234 8.84383 43.7937 8.6457 43.7412 8.42194C43.6791 8.19553 43.6964 7.9547 43.7904 7.73953C43.8843 7.52437 44.0491 7.34792 44.2574 7.23956L44.292 7.22224L44.1882 6.81274L44.4131 6.755C44.4976 6.7339 44.587 6.74688 44.662 6.79112C44.737 6.83537 44.7916 6.90735 44.814 6.99151L44.8371 7.08381H44.8775C45.0989 7.07786 45.3156 7.14912 45.4903 7.2854C45.665 7.42167 45.7868 7.61451 45.8349 7.83079V7.8769L45.4917 7.96344C45.4283 7.9804 45.3612 7.97764 45.2993 7.95548C45.2375 7.93332 45.1839 7.89278 45.1457 7.83938C45.0933 7.76601 45.0206 7.70951 44.9366 7.67673C44.8527 7.64395 44.7609 7.63636 44.6727 7.65483C44.6154 7.6702 44.5617 7.69673 44.5147 7.73292C44.4678 7.76911 44.4284 7.81425 44.3989 7.86571C44.3694 7.91717 44.3504 7.97395 44.343 8.03279C44.3355 8.09163 44.3397 8.15134 44.3555 8.20853C44.442 8.54595 44.7506 8.56906 45.2206 8.60367C45.7974 8.65846 46.1983 8.95264 46.3137 9.40542C46.3693 9.64601 46.3444 9.89817 46.2428 10.1232C46.1412 10.3483 45.9685 10.5338 45.7513 10.6512Z" fill="#FFDE82"/>
<path d="M44.9753 12.0067C46.6525 12.0067 48.0121 10.647 48.0121 8.96986C48.0121 7.29267 46.6525 5.93311 44.9753 5.93311C43.2981 5.93311 41.9385 7.29267 41.9385 8.96986C41.9385 10.647 43.2981 12.0067 44.9753 12.0067Z" stroke="#FFDE82" stroke-width="0.285512" stroke-miterlimit="10"/>
<path d="M22.5754 31.3237C22.535 30.8363 22.362 30.2768 21.9438 30.0317C21.8695 29.9819 21.783 29.9535 21.6936 29.9497C21.6042 29.9458 21.5156 29.9666 21.4372 30.0098C21.3589 30.053 21.294 30.1169 21.2495 30.1945C21.2051 30.2721 21.1829 30.3605 21.1853 30.4499C20.9142 33.6482 21.0469 36.9387 21.1536 40.1428C21.1709 40.6475 21.4132 41.331 21.8861 41.5156C22.3591 41.7002 22.5725 41.2272 22.5869 40.7745C22.6937 37.6511 22.8205 34.4413 22.5754 31.3237Z" fill="url(#paint5_linear_3471_10296)"/>
<path d="M64.2866 1.60425C64.2866 1.01304 64.1049 0.222853 63.7444 0.038279C63.3839 -0.146295 63.1936 0.367003 63.1676 0.926491C63.058 5.54083 63.1676 10.184 63.1878 14.7955C63.1878 16.0039 64.252 17.1229 64.2578 15.4502C64.2866 10.8474 64.3933 6.20417 64.2866 1.60425Z" fill="url(#paint6_linear_3471_10296)"/>
<path d="M65.668 42.2766C65.6479 41.0827 65.5296 39.6523 65.2701 39.0466C65.0682 38.5737 64.823 38.9226 64.8029 40.0646C64.774 41.8123 64.8029 43.5802 64.8029 45.3336C64.8029 46.5766 64.973 48.2176 65.2556 48.7079C65.5383 49.1982 65.6738 47.958 65.6767 46.9198C65.6709 45.3826 65.694 43.8109 65.668 42.2766Z" fill="url(#paint7_linear_3471_10296)"/>
<path d="M75.0005 28.2205C74.963 27.3352 73.6451 26.2017 73.5845 27.6149C73.3884 32.2725 73.5499 36.9705 73.6306 41.6281C73.6451 42.4731 74.9313 43.5084 74.9544 42.2049C75.0322 37.5502 75.1909 32.8666 75.0005 28.2205Z" fill="url(#paint8_linear_3471_10296)"/>
<path d="M97.3192 118.711L58.8068 124.328C58.6831 124.341 58.5584 124.341 58.4347 124.328L19.6368 121.116C19.2342 121.082 18.8581 120.901 18.58 120.608C18.3019 120.315 18.1412 119.93 18.1285 119.527L17.096 86.289C17.0887 86.0573 17.1305 85.8268 17.2185 85.6125C17.3066 85.3981 17.439 85.2048 17.607 85.0452C17.775 84.8857 17.9749 84.7634 18.1935 84.6865C18.4121 84.6096 18.6445 84.5798 18.8754 84.599L57.2985 87.7714C57.422 87.7872 57.547 87.7872 57.6705 87.7714L95.8224 82.2111C96.0516 82.1776 96.2852 82.193 96.5079 82.2561C96.7307 82.3193 96.9376 82.4287 97.1152 82.5774C97.2927 82.7261 97.4368 82.9106 97.5381 83.1188C97.6393 83.327 97.6955 83.5543 97.7028 83.7857L98.7266 117.026C98.7407 117.431 98.6049 117.827 98.3452 118.138C98.0854 118.448 97.7201 118.652 97.3192 118.711Z" fill="url(#paint9_radial_3471_10296)"/>
<path d="M98.7266 117.026L98.6459 114.431L57.0764 112.7L17.396 96.1724L18.1199 119.532C18.1326 119.936 18.2933 120.321 18.5714 120.614C18.8495 120.907 19.2256 121.088 19.6282 121.122L58.4261 124.334C58.5498 124.347 58.6745 124.347 58.7982 124.334L97.3221 118.716C97.7235 118.658 98.089 118.452 98.3482 118.14C98.6075 117.828 98.7423 117.432 98.7266 117.026Z" fill="url(#paint10_radial_3471_10296)"/>
<path d="M90.9717 103.206L98.3027 103.445L98.2277 100.985L90.9717 103.206Z" fill="url(#paint11_radial_3471_10296)"/>
<path d="M103.03 101.485L90.9721 103.215L90.75 98.4651L102.485 96.7896C102.736 96.7537 102.992 96.7713 103.236 96.8411C103.48 96.9109 103.706 97.0315 103.9 97.1948C104.094 97.3582 104.252 97.5606 104.362 97.789C104.472 98.0173 104.533 98.2664 104.541 98.5199L104.576 99.6533C104.587 100.095 104.435 100.525 104.15 100.862C103.866 101.2 103.467 101.421 103.03 101.485Z" fill="#BB6125"/>
<path d="M40.4131 88.022L56.5921 89.5908" stroke="#84401A" stroke-width="0.602748" stroke-miterlimit="10" stroke-linecap="round"/>
<path d="M19.5044 85.9946L33.2955 87.3328" stroke="#84401A" stroke-width="0.602748" stroke-miterlimit="10" stroke-linecap="round"/>
<path d="M88.3271 84.6679L95.8081 83.5229" stroke="#84401A" stroke-width="0.602748" stroke-miterlimit="10" stroke-linecap="round"/>
<path d="M76.2578 86.5167L85.6739 85.0747" stroke="#84401A" stroke-width="0.602748" stroke-miterlimit="10" stroke-linecap="round"/>
<path d="M58.9741 89.1614L70.758 87.3589" stroke="#84401A" stroke-width="0.602748" stroke-miterlimit="10" stroke-linecap="round"/>
<defs>
<radialGradient id="paint0_radial_3471_10296" cx="0" cy="0" r="1" gradientUnits="userSpaceOnUse" gradientTransform="translate(52.9005 83.5603) scale(72.9469 72.9469)">
<stop stop-color="#412BC9"/>
<stop offset="0.1" stop-color="#412BC9" stop-opacity="0.96"/>
<stop offset="0.26" stop-color="#412BC9" stop-opacity="0.86"/>
<stop offset="0.44" stop-color="#412BC9" stop-opacity="0.7"/>
<stop offset="0.65" stop-color="#412BC9" stop-opacity="0.47"/>
<stop offset="0.87" stop-color="#412BC9" stop-opacity="0.18"/>
<stop offset="1" stop-color="#412BC9" stop-opacity="0"/>
</radialGradient>
<radialGradient id="paint1_radial_3471_10296" cx="0" cy="0" r="1" gradientUnits="userSpaceOnUse" gradientTransform="translate(14.7949 105.534) scale(65.7053 65.7052)">
<stop stop-color="#EEEAF5"/>
<stop offset="0.19" stop-color="#EEEAF5" stop-opacity="0.99"/>
<stop offset="0.36" stop-color="#F0ECF6" stop-opacity="0.94"/>
<stop offset="0.52" stop-color="#F2EFF7" stop-opacity="0.87"/>
<stop offset="0.67" stop-color="#F5F2F9" stop-opacity="0.76"/>
<stop offset="0.81" stop-color="#F9F7FB" stop-opacity="0.63"/>
<stop offset="0.95" stop-color="#FDFDFE" stop-opacity="0.47"/>
<stop offset="1" stop-color="white" stop-opacity="0.4"/>
</radialGradient>
<radialGradient id="paint2_radial_3471_10296" cx="0" cy="0" r="1" gradientUnits="userSpaceOnUse" gradientTransform="translate(27.8965 121.978) scale(25.252 25.2518)">
<stop stop-color="#EEEAF5"/>
<stop offset="0.15" stop-color="#EEEAF5" stop-opacity="0.99"/>
<stop offset="0.28" stop-color="#EFEBF6" stop-opacity="0.94"/>
<stop offset="0.41" stop-color="#F0EDF6" stop-opacity="0.87"/>
<stop offset="0.53" stop-color="#F2EFF7" stop-opacity="0.77"/>
<stop offset="0.64" stop-color="#F4F2F9" stop-opacity="0.64"/>
<stop offset="0.75" stop-color="#F7F5FA" stop-opacity="0.48"/>
<stop offset="0.86" stop-color="#FAF9FC" stop-opacity="0.29"/>
<stop offset="0.97" stop-color="#FEFDFE" stop-opacity="0.07"/>
<stop offset="1" stop-color="white" stop-opacity="0"/>
</radialGradient>
<radialGradient id="paint3_radial_3471_10296" cx="0" cy="0" r="1" gradientUnits="userSpaceOnUse" gradientTransform="translate(75.9925 65.9742) scale(12.998 12.998)">
<stop stop-color="#FFC90D"/>
<stop offset="1" stop-color="#FFC90D" stop-opacity="0"/>
</radialGradient>
<radialGradient id="paint4_radial_3471_10296" cx="0" cy="0" r="1" gradientUnits="userSpaceOnUse" gradientTransform="translate(21.8719 58.9116) scale(13.7911 13.7911)">
<stop stop-color="#E5B20E"/>
<stop offset="1" stop-color="#E5B20E" stop-opacity="0"/>
</radialGradient>
<linearGradient id="paint5_linear_3471_10296" x1="21.8717" y1="41.556" x2="21.8717" y2="29.9509" gradientUnits="userSpaceOnUse">
<stop stop-color="#FFD355"/>
<stop offset="1" stop-color="#FFC90D" stop-opacity="0"/>
</linearGradient>
<linearGradient id="paint6_linear_3471_10296" x1="63.73" y1="16.298" x2="63.73" y2="0.000784885" gradientUnits="userSpaceOnUse">
<stop stop-color="#FFD355"/>
<stop offset="1" stop-color="#FFC90D" stop-opacity="0"/>
</linearGradient>
<linearGradient id="paint7_linear_3471_10296" x1="65.2326" y1="48.8204" x2="65.2326" y2="38.8419" gradientUnits="userSpaceOnUse">
<stop stop-color="#FFD355"/>
<stop offset="1" stop-color="#FFC90D" stop-opacity="0"/>
</linearGradient>
<linearGradient id="paint8_linear_3471_10296" x1="74.2911" y1="42.8192" x2="74.2911" y2="26.9458" gradientUnits="userSpaceOnUse">
<stop stop-color="#FFD355"/>
<stop offset="1" stop-color="#FFC90D" stop-opacity="0"/>
</linearGradient>
<radialGradient id="paint9_radial_3471_10296" cx="0" cy="0" r="1" gradientUnits="userSpaceOnUse" gradientTransform="translate(63.6974 103.06) rotate(13.54) scale(39.9458 39.9458)">
<stop stop-color="#A05320"/>
<stop offset="0.95" stop-color="#CB7E4D"/>
<stop offset="0.98" stop-color="#CD804F"/>
</radialGradient>
<radialGradient id="paint10_radial_3471_10296" cx="0" cy="0" r="1" gradientUnits="userSpaceOnUse" gradientTransform="translate(55.6112 116.942) rotate(13.54) scale(50.2502 50.2502)">
<stop stop-color="#84401A"/>
<stop offset="1" stop-color="#84401A" stop-opacity="0"/>
</radialGradient>
<radialGradient id="paint11_radial_3471_10296" cx="0" cy="0" r="1" gradientUnits="userSpaceOnUse" gradientTransform="translate(94.9248 102.173) rotate(13.5401) scale(4.97195 4.97197)">
<stop stop-color="#84401A"/>
<stop offset="1" stop-color="#84401A" stop-opacity="0"/>
</radialGradient>
</defs>
</svg>
