<svg width="25" height="24" viewBox="0 0 25 24" fill="none" xmlns="http://www.w3.org/2000/svg">
<g id="wallet-cards">
<path id="Vector" d="M3.05005 9C3.05005 8.46957 3.26076 7.96086 3.63584 7.58579C4.01091 7.21071 4.51962 7 5.05005 7H19.05C19.5805 7 20.0892 7.21071 20.4643 7.58579C20.8393 7.96086 21.05 8.46957 21.05 9M3.05005 11H6.05005C6.85005 11 7.65005 11.3 8.15005 11.9L9.25005 12.8C10.85 14.4 13.35 14.4 14.95 12.8L16.05 11.9C16.55 11.4 17.35 11 18.15 11H21.05M5.05005 3H19.05C20.1546 3 21.05 3.89543 21.05 5V19C21.05 20.1046 20.1546 21 19.05 21H5.05005C3.94548 21 3.05005 20.1046 3.05005 19V5C3.05005 3.89543 3.94548 3 5.05005 3Z" stroke="#7B68EE" stroke-width="1.5" stroke-linecap="round" stroke-linejoin="round"/>
</g>
</svg>
