<svg width="35" height="35" viewBox="0 0 35 35" fill="none" xmlns="http://www.w3.org/2000/svg">
<g clip-path="url(#clip0_1_2298)">
<path fill-rule="evenodd" clip-rule="evenodd" d="M10.03 1.06435C11.0302 0.796339 12.0583 1.38993 12.3264 2.39018L13.447 6.57234C13.715 7.57259 13.1214 8.60072 12.1211 8.86874C11.1209 9.13674 10.0928 8.54314 9.82473 7.54292L8.70413 3.36074C8.4361 2.3605 9.0297 1.33237 10.03 1.06435ZM1.06435 10.0455C0.796339 11.0458 1.38993 12.0739 2.39018 12.3419L6.57233 13.4625C7.57258 13.7305 8.6007 13.1369 8.86873 12.1367C9.13675 11.1364 8.54315 10.1083 7.5429 9.84029L3.36075 8.71969C2.3605 8.45167 1.33237 9.04527 1.06435 10.0455ZM12.0635 14.9582C11.4113 13.0034 13.2714 11.1433 15.2262 11.7955L33.0238 17.7333C35.3238 18.5007 35.2948 21.7641 32.9813 22.4901L27.914 24.0804L34.664 30.8305C35.6403 31.8067 35.6403 33.3895 34.664 34.366C33.6878 35.3422 32.1048 35.3422 31.1285 34.366L24.3628 27.6002L22.7581 32.7132C22.0321 35.0267 18.7686 35.056 18.0013 32.756L12.0635 14.9582ZM6.05188 22.5463C5.31965 23.2786 4.13245 23.2786 3.40023 22.5463C2.66799 21.8141 2.66799 20.6269 3.40023 19.8947L6.46178 16.8331C7.194 16.1009 8.3812 16.1009 9.11343 16.8331C9.84565 17.5654 9.84565 18.7525 9.11343 19.4848L6.05188 22.5463ZM22.2021 6.06804C22.9343 5.33582 22.9343 4.14864 22.2021 3.41639C21.4699 2.68417 20.2827 2.68417 19.5504 3.41639L16.4889 6.47794C15.7567 7.21019 15.7567 8.39737 16.4889 9.12959C17.2211 9.86184 18.4083 9.86184 19.1405 9.12959L22.2021 6.06804Z" fill="black"/>
</g>
<defs>
<clipPath id="clip0_1_2298">
<rect width="35" height="35" fill="white"/>
</clipPath>
</defs>
</svg>
