<svg width="35" height="35" viewBox="0 0 35 35" fill="none" xmlns="http://www.w3.org/2000/svg">
<path d="M20.3381 3.0539C18.7029 1.66037 16.2978 1.66039 14.6627 3.05388L12.6968 4.72916C12.4632 4.92821 12.1728 5.04849 11.8669 5.0729L9.29225 5.27837C7.15064 5.44927 5.45003 7.14988 5.27913 9.29147L5.07368 11.8661C5.04928 12.172 4.92896 12.4625 4.72991 12.6961L3.05463 14.6619C1.66114 16.2972 1.66115 18.7021 3.05466 20.3372L4.72994 22.3032C4.92896 22.5368 5.04926 22.8271 5.07367 23.1331L5.27916 25.7076C5.45006 27.8492 7.15068 29.5498 9.2923 29.7207L11.8669 29.9263C12.1728 29.9507 12.4632 30.071 12.6967 30.27L14.6626 31.9452C16.2978 33.3387 18.7029 33.3388 20.3381 31.9452L22.3039 30.27C22.5374 30.071 22.8278 29.9507 23.1337 29.9262L25.7084 29.7207C27.85 29.5499 29.5505 27.8493 29.7216 25.7076L29.9269 23.1331C29.9513 22.8271 30.0717 22.5366 30.2707 22.303L31.946 20.3373C33.3396 18.7021 33.3396 16.297 31.946 14.6619L30.2707 12.696C30.0716 12.4624 29.9514 12.172 29.9271 11.8661L29.7216 9.29148C29.5507 7.14991 27.85 5.44924 25.7084 5.27835L23.1337 5.07289C22.8278 5.04848 22.5374 4.92821 22.3039 4.72916L20.3381 3.0539ZM21.6248 11.3125L23.6872 13.3749L13.3752 23.687L11.3128 21.6244L21.6248 11.3125ZM14.922 14.9217C14.0677 15.7759 12.6826 15.7759 11.8284 14.9217C10.9741 14.0675 10.9741 12.6824 11.8284 11.8281C12.6826 10.9739 14.0677 10.9739 14.922 11.8281C15.7763 12.6824 15.7763 14.0675 14.922 14.9217ZM20.0779 23.1713C19.2236 22.317 19.2236 20.932 20.0779 20.0777C20.9322 19.2234 22.3172 19.2234 23.1715 20.0777C24.0258 20.932 24.0258 22.317 23.1715 23.1713C22.3172 24.0256 20.9322 24.0256 20.0779 23.1713Z" fill="black"/>
</svg>
