<svg width="35" height="35" viewBox="0 0 35 35" fill="none" xmlns="http://www.w3.org/2000/svg">
<path fill-rule="evenodd" clip-rule="evenodd" d="M13.4137 0.657749C13.7255 0.304012 14.21 0.155908 14.6663 0.274769C17.439 0.996917 21.6999 2.87307 25.29 6.21872C28.9065 9.58925 31.8678 14.4823 31.8678 21.1559C31.8678 23.7968 31.275 27.0287 29.2235 29.7082C27.1385 32.4317 23.6801 34.4097 18.3144 34.7407L18.3001 34.7417C11.1506 35.1005 6.12908 31.386 4.1115 26.2675C2.11249 21.196 3.11618 14.8857 7.62251 10.0973C7.86355 9.8412 8.20138 9.69847 8.55305 9.70417C8.90476 9.7099 9.23775 9.8635 9.47038 10.1273L12.6356 13.7172C13.7928 11.6519 14.3557 9.8516 14.4406 8.05037C14.5269 6.21832 14.1236 4.28165 13.1906 1.94853C13.0155 1.51064 13.1018 1.01149 13.4137 0.657749ZM13.288 19.6689C13.288 18.6333 14.1274 17.7939 15.163 17.7939C16.1985 17.7939 17.038 18.6333 17.038 19.6689C17.038 20.7044 16.1985 21.5439 15.163 21.5439C14.1274 21.5439 13.288 20.7044 13.288 19.6689ZM23.2609 19.985C23.7491 19.4968 23.7491 18.7054 23.2609 18.2172C22.7728 17.7291 21.9813 17.7291 21.4932 18.2172L13.2848 26.4255C12.7967 26.9137 12.7967 27.7052 13.2848 28.1932C13.773 28.6815 14.5644 28.6815 15.0526 28.1932L23.2609 19.985ZM19.9353 26.7417C19.9353 25.706 20.7748 24.8666 21.8103 24.8666C22.8458 24.8666 23.6853 25.706 23.6853 26.7417C23.6853 27.7772 22.8458 28.6167 21.8103 28.6167C20.7748 28.6167 19.9353 27.7772 19.9353 26.7417Z" fill="black"/>
</svg>
