<svg width="35" height="35" viewBox="0 0 35 35" fill="none" xmlns="http://www.w3.org/2000/svg">
<path fill-rule="evenodd" clip-rule="evenodd" d="M0 27.5C0 29.57 1.675 31.25 3.745 31.25H31.255C33.325 31.25 35 29.57 35 27.5V22.415C35.0003 22.1403 34.91 21.8732 34.7433 21.655C34.5766 21.4367 34.3426 21.2795 34.0775 21.2075C33.2639 20.986 32.5458 20.503 32.0339 19.833C31.5219 19.163 31.2446 18.3432 31.2446 17.5C31.2446 16.6568 31.5219 15.837 32.0339 15.167C32.5458 14.497 33.2639 14.014 34.0775 13.7925C34.3426 13.7205 34.5766 13.5633 34.7433 13.345C34.91 13.1268 35.0003 12.8597 35 12.585V7.5C35 5.43 33.325 3.75 31.255 3.75H3.745C1.675 3.75 0 5.43 0 7.5V12.575C0.000332389 12.851 0.0919864 13.1191 0.260668 13.3375C0.429349 13.5559 0.665574 13.7124 0.9325 13.7825C1.75469 13.9975 2.48241 14.479 3.00178 15.1517C3.52116 15.8243 3.80289 16.6502 3.80289 17.5C3.80289 18.3498 3.52116 19.1757 3.00178 19.8483C2.48241 20.521 1.75469 21.0025 0.9325 21.2175C0.665574 21.2876 0.429349 21.4441 0.260668 21.6625C0.0919864 21.8809 0.000332389 22.149 0 22.425L0 27.5ZM12.405 24.855L24.905 12.355C25.184 12.0594 25.3368 11.6668 25.331 11.2604C25.3253 10.854 25.1614 10.4658 24.8742 10.1783C24.5869 9.89073 24.199 9.72642 23.7926 9.7202C23.3862 9.71399 22.9934 9.86636 22.6975 10.145L10.1975 22.645C10.0453 22.7883 9.92341 22.9607 9.83905 23.152C9.75469 23.3433 9.70957 23.5496 9.70638 23.7586C9.70318 23.9677 9.74197 24.1752 9.82044 24.369C9.89891 24.5628 10.0155 24.7388 10.1632 24.8867C10.311 25.0347 10.4869 25.1514 10.6806 25.2301C10.8743 25.3088 11.0818 25.3478 11.2908 25.3449C11.4999 25.3419 11.7062 25.297 11.8976 25.2129C12.089 25.1287 12.2615 25.007 12.405 24.855ZM10.0525 12.5C10.0525 11.837 10.3159 11.2011 10.7847 10.7322C11.2536 10.2634 11.8895 10 12.5525 10C13.2155 10 13.8514 10.2634 14.3203 10.7322C14.7891 11.2011 15.0525 11.837 15.0525 12.5C15.0525 13.163 14.7891 13.7989 14.3203 14.2678C13.8514 14.7366 13.2155 15 12.5525 15C11.8895 15 11.2536 14.7366 10.7847 14.2678C10.3159 13.7989 10.0525 13.163 10.0525 12.5ZM20.0525 22.5C20.0525 21.837 20.3159 21.2011 20.7847 20.7322C21.2536 20.2634 21.8895 20 22.5525 20C23.2155 20 23.8514 20.2634 24.3203 20.7322C24.7891 21.2011 25.0525 21.837 25.0525 22.5C25.0525 23.163 24.7891 23.7989 24.3203 24.2678C23.8514 24.7366 23.2155 25 22.5525 25C21.8895 25 21.2536 24.7366 20.7847 24.2678C20.3159 23.7989 20.0525 23.163 20.0525 22.5Z" fill="black"/>
</svg>
