<svg width="20" height="25" viewBox="0 0 20 25" fill="none" xmlns="http://www.w3.org/2000/svg">
<path d="M18.75 22.5C19.4404 22.5 20 23.0596 20 23.75C20 24.4404 19.4404 25 18.75 25H1.25C0.55965 25 0 24.4404 0 23.75C0 23.0596 0.55965 22.5 1.25 22.5H18.75ZM12.5 0C13.1904 0 13.75 0.55965 13.75 1.25V8.75H16.25C16.7262 8.75 17.1615 9.02101 17.3719 9.44824C17.5819 9.87519 17.5311 10.3845 17.2412 10.7617L10.9913 18.8867C10.7546 19.1944 10.3881 19.375 10 19.375C9.61187 19.375 9.24537 19.1944 9.00875 18.8867L2.75879 10.7617C2.46887 10.3845 2.41819 9.87519 2.62818 9.44824C2.83854 9.02101 3.27379 8.75 3.75 8.75H6.25V1.25L6.2561 1.12182C6.32026 0.491662 6.8529 0 7.5 0H12.5ZM8.75 10C8.75 10.6904 8.19038 11.25 7.5 11.25H6.28906L10 16.0742L13.711 11.25H12.5C11.8096 11.25 11.25 10.6904 11.25 10V2.5H8.75V10Z" fill="white"/>
</svg>
