<svg width="38" height="38" viewBox="0 0 38 38" fill="none" xmlns="http://www.w3.org/2000/svg">
<g clip-path="url(#clip0_1_2301)">
<path fill-rule="evenodd" clip-rule="evenodd" d="M13.7696 0C9.45386 0 5.99043 1.216 3.60186 3.60186C1.21329 5.99043 0 9.45657 0 13.7696C0 18.0853 1.216 21.5514 3.60186 23.94C5.34443 25.6826 7.657 26.7981 10.4581 27.2786C11.4179 26.2811 12.4523 25.3583 13.5524 24.5181C14.2256 24.016 15.0453 23.4786 15.9627 23.0633C17.1728 22.4914 18.5086 22.2373 19.8441 22.325C21.3309 22.4461 22.7411 23.0353 23.8721 24.0079L23.9373 23.94C23.982 23.8951 24.0263 23.8499 24.0703 23.8043C23.7057 22.7714 23.6622 21.6523 23.9456 20.5942C24.229 19.5361 24.826 18.5886 25.6581 17.8763C26.1847 17.4257 26.7493 17.0701 27.322 16.796C27.4659 15.8406 27.5391 14.8336 27.5391 13.7723C27.5391 9.45657 26.3259 5.99314 23.9373 3.60457C21.5514 1.21329 18.0853 0 13.7696 0ZM13.68 9.01414C13.7496 9.01836 13.8194 9.01836 13.889 9.01414C15.1511 9.03586 15.6099 9.443 15.7429 9.63029C16.0038 9.99706 16.3998 10.2452 16.8437 10.32C17.2875 10.3948 17.7429 10.2902 18.1097 10.0293C18.4765 9.76833 18.7246 9.37236 18.7994 8.92849C18.8742 8.48462 18.7697 8.0292 18.5087 7.66243C17.8139 6.68529 16.7499 6.07186 15.4796 5.795C15.4631 5.35711 15.2779 4.94257 14.9626 4.63821C14.6474 4.33385 14.2266 4.16328 13.7884 4.16223C13.3502 4.16117 12.9286 4.32972 12.6119 4.63257C12.2952 4.93541 12.108 5.34905 12.0894 5.78686C11.2877 5.94062 10.5324 6.27785 9.88272 6.77214C9.38332 7.16176 8.98102 7.66183 8.7074 8.23308C8.43378 8.80434 8.29629 9.43124 8.30571 10.0646C8.30571 12.6323 10.7757 14.0953 13.5443 14.4889C14.7467 14.6626 15.5529 14.9231 16.0224 15.219C16.397 15.4551 16.4513 15.6261 16.4513 15.8541C16.4513 16.0116 16.3699 16.2993 15.9383 16.6087C15.504 16.9181 14.7739 17.1869 13.7859 17.1869C12.7409 17.1869 11.989 16.9426 11.5547 16.6684C11.134 16.3997 11.1204 16.1934 11.1204 16.1364C11.1204 15.6865 10.9417 15.255 10.6236 14.9369C10.3054 14.6187 9.87392 14.44 9.424 14.44C8.97408 14.44 8.54259 14.6187 8.22444 14.9369C7.9063 15.255 7.72757 15.6865 7.72757 16.1364C7.72757 17.6483 8.60971 18.8154 9.73071 19.5293C10.412 19.9636 11.2181 20.2621 12.0921 20.425C12.1186 20.8576 12.3097 21.2636 12.6261 21.5598C12.9424 21.8559 13.3602 22.0198 13.7936 22.0177C14.2269 22.0156 14.6431 21.8477 14.9566 21.5485C15.2701 21.2494 15.4572 20.8415 15.4796 20.4087C16.3916 20.2133 17.2221 19.8631 17.9143 19.3664C19.0244 18.5711 19.8414 17.3416 19.8414 15.8541C19.8414 14.25 18.9973 13.0856 17.8329 12.35C16.7607 11.6714 15.3873 11.3267 14.0247 11.1313C12.9336 10.9766 12.2984 10.6699 11.9781 10.4201C11.8766 10.3476 11.7908 10.2552 11.7257 10.1487C11.7094 10.1235 11.7001 10.0945 11.6986 10.0646C11.6986 9.766 11.7936 9.58686 11.9809 9.44028C12.2034 9.26386 12.7056 9.03043 13.68 9.01414ZM28.0114 23.6577L29.5531 24.7543C28.7389 25.4736 27.9001 26.2091 27.0967 26.8986C26.0924 27.759 25.1641 28.538 24.4177 29.127C24.1734 29.3224 23.9563 29.488 23.7663 29.6291C23.6961 29.5041 23.6274 29.3784 23.56 29.2519L23.4786 29.1026C23.1665 28.474 22.7976 27.8753 22.3766 27.3139C21.8337 26.6353 20.9326 25.8156 19.5673 25.7043C18.8059 25.6636 18.0466 25.8167 17.3606 26.1494C16.7417 26.4317 16.1391 26.8199 15.58 27.2351C14.4157 28.1362 13.3298 29.1341 12.3337 30.2181C10.9489 31.6842 9.65364 33.2323 8.455 34.8541C8.16201 35.3077 8.06118 35.859 8.1747 36.3869C8.28821 36.9147 8.60677 37.3759 9.06029 37.6689C9.51381 37.9618 10.0651 38.0627 10.593 37.9492C11.1209 37.8356 11.582 37.5171 11.875 37.0636C11.932 36.9876 12.2876 36.5099 12.8929 35.7634C13.528 34.9817 14.3749 33.9856 15.2923 33.0139C16.1291 32.1018 17.0397 31.2602 18.0147 30.4977C18.3681 30.2252 18.7515 29.9939 19.1574 29.8083C19.1703 29.8235 19.183 29.8388 19.1954 29.8544C19.4126 30.1259 19.6134 30.5031 19.9283 31.0976L19.9663 31.1681L19.9907 31.2089C20.2567 31.7083 20.691 32.5253 21.3099 33.1143C21.6627 33.4509 22.1649 33.801 22.8299 33.9557C23.5166 34.1159 24.187 34.0181 24.7787 33.7739C25.1482 33.6062 25.4994 33.4006 25.8264 33.1604C26.1576 32.9297 26.5376 32.6447 26.9393 32.3244C27.7536 31.6839 28.7307 30.8614 29.7513 29.9847C30.5547 29.2953 31.3907 28.5651 32.1996 27.8486L33.041 29.5314C33.1791 29.8084 33.3785 30.0502 33.6241 30.2385C33.8697 30.4268 34.155 30.5566 34.4583 30.6181C34.7616 30.6796 35.0749 30.6712 35.3744 30.5934C35.6739 30.5156 35.9518 30.3706 36.1869 30.1693C37.4164 29.1161 37.867 27.4197 37.9729 26.0599C38.0841 24.6131 37.8561 22.9601 37.1586 21.5623C37.0096 21.2639 36.7897 21.0066 36.518 20.8131C35.2423 19.9093 33.6463 19.4289 32.1996 19.3203C30.8424 19.2117 29.0944 19.399 27.8649 20.4521C27.6304 20.6533 27.4447 20.9052 27.322 21.1887C27.1993 21.4722 27.1427 21.78 27.1566 22.0886C27.1705 22.3972 27.2544 22.6987 27.402 22.9701C27.5497 23.2415 27.7571 23.4757 28.0087 23.655L28.0114 23.6577Z" fill="black"/>
</g>
<defs>
<clipPath id="clip0_1_2301">
<rect width="38" height="38" fill="white"/>
</clipPath>
</defs>
</svg>
