<svg width="42" height="40" viewBox="0 0 42 40" fill="none" xmlns="http://www.w3.org/2000/svg">
<path id="Vector" d="M34.0689 31.3162C33.7104 31.2137 33.3344 31.1881 32.9653 31.2408C32.5963 31.2935 32.2425 31.4234 31.927 31.6221L29.9893 29.4803C29.7853 29.2763 29.6833 29.0724 29.4793 28.9704L29.7853 28.3585H33.6609L34.4768 28.8684C34.8551 28.9648 35.256 28.9128 35.5973 28.7232C35.9386 28.5336 36.1945 28.2207 36.3126 27.8485C36.4441 27.4697 36.4216 27.0543 36.25 26.6919C36.0783 26.3295 35.7712 26.0489 35.3947 25.9107C35.0527 25.8134 34.6883 25.8306 34.357 25.9594C34.0256 26.0883 33.7454 26.3219 33.5589 26.6246H29.7853C29.6477 26.1388 29.388 25.6963 29.0309 25.3392C28.6739 24.9821 28.2313 24.7224 27.7455 24.5848C27.0762 24.3662 26.3498 24.4025 25.7057 24.6868C25.2977 23.7689 24.9917 22.749 24.5838 21.8311C25.7674 20.9648 27.031 20.2135 28.3574 19.5873C28.5121 19.9567 28.7485 20.2862 29.0488 20.5512C29.3491 20.8161 29.7055 21.0097 30.0912 21.1172C30.748 21.3683 31.4743 21.3683 32.131 21.1172L34.7827 23.055C34.7703 23.399 34.8744 23.7372 35.0779 24.0148C35.2815 24.2924 35.5728 24.4933 35.9047 24.5848C36.092 24.6467 36.2902 24.6691 36.4866 24.6506C36.6831 24.6321 36.8736 24.5731 37.0461 24.4773C37.2186 24.3814 37.3694 24.2509 37.4889 24.0938C37.6084 23.9368 37.6941 23.7567 37.7405 23.5649C37.8024 23.3776 37.8248 23.1794 37.8063 22.9829C37.7878 22.7865 37.7287 22.596 37.6329 22.4235C37.5371 22.251 37.4065 22.1002 37.2495 21.9807C37.0925 21.8612 36.9124 21.7755 36.7206 21.7291H35.9047L33.5589 20.0973C33.7349 19.8472 33.8724 19.5722 33.9668 19.2814C34.0448 19.0167 34.0792 18.7411 34.0689 18.4654L36.7206 17.8535C37.0409 18.3276 37.506 18.6854 38.0464 18.8734C38.3545 18.9677 38.6781 19.0003 38.9988 18.9693C39.3195 18.9383 39.6308 18.8443 39.9151 18.6927C40.1994 18.5411 40.4509 18.3349 40.6553 18.0859C40.8596 17.8369 41.0129 17.5499 41.1061 17.2416C41.3012 16.6328 41.2503 15.9719 40.9644 15.4001C40.6786 14.8284 40.1803 14.3911 39.5763 14.1819C38.9405 13.9882 38.2543 14.0504 37.6638 14.3552C37.0732 14.66 36.625 15.1833 36.4146 15.8137V16.1197L35.2927 16.3237L33.6609 16.7316C33.3281 16.2831 32.9127 15.9024 32.437 15.6097L33.6609 13.366C33.9983 13.4267 34.3461 13.3544 34.6313 13.1643C34.9165 12.9741 35.117 12.6809 35.1907 12.3461C35.3125 11.9538 35.2734 11.5293 35.0821 11.1659C34.8908 10.8025 34.563 10.53 34.1708 10.4083C33.7786 10.2865 33.3541 10.3256 32.9907 10.5169C32.6273 10.7081 32.3547 11.0359 32.233 11.4282V12.2441L30.6012 15.3038C30.0331 15.3945 29.5021 15.6436 29.0692 16.0225C28.6362 16.4013 28.3188 16.8945 28.1534 17.4455C28.0799 17.6052 28.045 17.7799 28.0514 17.9555H27.1335L24.0738 17.6495C23.9812 17.6525 23.8903 17.6237 23.8162 17.5681C23.742 17.5125 23.689 17.4333 23.6659 17.3436C23.5314 15.9881 23.4973 14.6245 23.5639 13.264C24.2388 13.2949 24.905 13.1015 25.4584 12.7141C26.0119 12.3266 26.4216 11.7669 26.6236 11.1222V10.7142L29.5813 9.38836H29.7853C29.9727 9.45028 30.1708 9.47268 30.3673 9.45416C30.5637 9.43565 30.7542 9.37661 30.9267 9.28078C31.0992 9.18495 31.25 9.0544 31.3695 8.89737C31.489 8.74035 31.5747 8.56026 31.6211 8.36847C31.683 8.1811 31.7054 7.98293 31.6869 7.78646C31.6684 7.59 31.6094 7.39951 31.5135 7.22701C31.4177 7.05451 31.2872 6.90376 31.1301 6.78425C30.9731 6.66473 30.793 6.57906 30.6012 6.53265C30.4206 6.46909 30.229 6.4425 30.0378 6.45449C29.8467 6.46648 29.66 6.51681 29.4887 6.60244C29.3175 6.68808 29.1651 6.8073 29.0408 6.953C28.9166 7.0987 28.8229 7.2679 28.7654 7.45055C28.7285 7.49194 28.7004 7.54042 28.6828 7.59302C28.6653 7.64563 28.6587 7.70127 28.6634 7.75652L26.5216 8.77642C26.229 8.30075 25.8482 7.88535 25.3997 7.55255C25.6249 6.6549 25.8972 5.76975 26.2156 4.9008C26.745 4.91906 27.2649 4.75766 27.6908 4.44285C28.1167 4.12804 28.4235 3.67836 28.5614 3.16698C28.6557 2.85894 28.6883 2.53532 28.6573 2.21466C28.6263 1.89399 28.5324 1.5826 28.3807 1.29834C28.2291 1.01408 28.0229 0.762551 27.7739 0.558164C27.5249 0.353776 27.2379 0.200555 26.9296 0.10729C26.6215 0.0129545 26.2979 -0.0196419 25.9772 0.011363C25.6566 0.0423679 25.3452 0.136365 25.0609 0.287969C24.7767 0.439573 24.5252 0.645803 24.3208 0.894825C24.1164 1.14385 23.9632 1.43077 23.8699 1.73913C23.7281 2.16304 23.7103 2.61864 23.8187 3.05229C23.9271 3.48594 24.1572 3.87958 24.4818 4.18688C24.1758 5.20678 23.8699 6.12469 23.6659 7.0426C23.1142 7.0426 22.5774 7.22153 22.1361 7.55255C21.6525 6.63286 21.1073 5.74693 20.5042 4.9008C20.6146 4.70308 20.6798 4.48331 20.695 4.25733C20.7102 4.03135 20.6751 3.80483 20.5921 3.59409C20.5092 3.38336 20.3804 3.19366 20.2152 3.03873C20.05 2.8838 19.8524 2.76749 19.6368 2.69818C19.4212 2.62887 19.1929 2.60831 18.9684 2.63797C18.7438 2.66763 18.5286 2.74676 18.3384 2.86968C18.1482 2.99259 17.9876 3.15622 17.8683 3.34874C17.749 3.54125 17.6739 3.75785 17.6485 3.9829C17.5856 4.17703 17.5622 4.38177 17.5797 4.58507C17.5972 4.78838 17.6551 4.98612 17.7501 5.16669C17.8452 5.34726 17.9754 5.50699 18.1331 5.63649C18.2908 5.76598 18.4728 5.86261 18.6684 5.9207H18.9743L20.9122 8.9804C20.9122 9.08239 20.8102 9.08238 20.8102 9.18437C20.6081 9.79125 20.6082 10.4473 20.8104 11.0541C21.0127 11.6609 21.4063 12.1858 21.9321 12.55C21.4857 13.4586 20.9383 14.3139 20.3003 15.0998C19.4843 16.1197 19.4843 16.1197 18.3624 15.5077C17.5278 15.1663 16.7396 14.7208 16.0167 14.1819C16.1416 14.0406 16.2136 13.8604 16.2207 13.6719C16.4144 13.0488 16.4105 12.381 16.2096 11.7602C16.0088 11.1393 15.6207 10.5958 15.0987 10.2043L15.4047 7.24657C15.5856 7.15788 15.744 7.02911 15.8677 6.87006C15.9914 6.711 16.0772 6.52586 16.1186 6.32867C16.1822 6.14803 16.2088 5.95645 16.1968 5.76533C16.1848 5.57421 16.1345 5.38746 16.0489 5.21618C15.9632 5.0449 15.844 4.8926 15.6983 4.76834C15.5526 4.64407 15.3834 4.55039 15.2008 4.49285C15.0066 4.42999 14.8019 4.40661 14.5986 4.42407C14.3953 4.44153 14.1975 4.49947 14.017 4.59451C13.8364 4.68954 13.6767 4.81974 13.5472 4.97743C13.4177 5.13513 13.321 5.31714 13.2629 5.51275C13.1807 5.75626 13.1658 6.01743 13.2196 6.26874C13.2735 6.52005 13.3941 6.75217 13.5689 6.9406C13.5517 7.75996 13.4835 8.57746 13.3649 9.38836V9.69432C12.9047 9.68799 12.4499 9.79296 12.039 10.0003L9.79526 7.55255C9.85859 7.50504 9.91 7.44345 9.9454 7.37264C9.98081 7.30183 9.99925 7.22374 9.99925 7.14458C10.0936 6.83654 10.1262 6.51291 10.0952 6.19225C10.0642 5.87159 9.9702 5.56019 9.8186 5.27594C9.667 4.99168 9.46075 4.74015 9.21173 4.53576C8.96271 4.33137 8.6758 4.17815 8.36744 4.08488C7.7453 3.89554 7.07344 3.96109 6.49964 4.26712C5.92583 4.57315 5.49709 5.09459 5.30774 5.71673C5.1184 6.33886 5.18392 7.01074 5.48995 7.58454C5.79598 8.15835 6.31742 8.58707 6.93956 8.77642H8.4694L10.4072 10.9182L10.7132 11.2242C10.5907 11.4172 10.4882 11.6223 10.4072 11.8361C10.4072 12.0401 10.3052 12.2441 10.3052 12.4481H7.4495C7.27629 12.202 7.02451 12.0221 6.73556 11.9381C6.5482 11.8762 6.35005 11.8538 6.15359 11.8723C5.95713 11.8908 5.76665 11.9498 5.59415 12.0457C5.42166 12.1415 5.27089 12.2721 5.15137 12.4291C5.03186 12.5861 4.94618 12.7662 4.89976 12.958C4.8194 13.1372 4.7799 13.332 4.78404 13.5284C4.78817 13.7248 4.83583 13.9178 4.92366 14.0934C5.0115 14.2691 5.13726 14.4231 5.29187 14.5442C5.44648 14.6653 5.62611 14.7506 5.81769 14.7938C6.12339 14.904 6.4562 14.9139 6.76793 14.8222C7.07967 14.7305 7.35415 14.542 7.55153 14.2839H10.7132C11.0928 14.938 11.7163 15.4148 12.447 15.6097C13.1499 15.8352 13.9105 15.799 14.5888 15.5077C15.288 16.6348 15.869 17.831 16.3226 19.0774C15.0987 19.6893 14.1809 20.6072 12.957 21.1172C12.7906 20.7554 12.5504 20.4324 12.2518 20.1689C11.9532 19.9055 11.6028 19.7074 11.2231 19.5873C10.4311 19.3819 9.59025 19.4916 8.87739 19.8933L6.12365 17.8535C6.16108 17.5192 6.07929 17.1825 5.8927 16.9026C5.70612 16.6227 5.42672 16.4177 5.10375 16.3237C4.71154 16.2019 4.28703 16.241 3.92362 16.4323C3.56022 16.6235 3.28764 16.9513 3.16592 17.3436C3.0442 17.7358 3.08328 18.1603 3.27455 18.5237C3.46582 18.8871 3.7936 19.1596 4.18582 19.2814H5.00179L7.55153 21.2192C7.44954 21.3212 7.44953 21.4232 7.34754 21.6271C7.24555 21.8311 7.24551 22.1371 7.24551 22.443L4.5938 23.055C4.26472 22.5246 3.75907 22.1274 3.16592 21.9331C2.54379 21.7437 1.87193 21.8093 1.29812 22.1153C0.724319 22.4214 0.295575 22.9428 0.106229 23.5649C-0.0831162 24.1871 -0.0175324 24.8589 0.288496 25.4327C0.594525 26.0065 1.11597 26.4353 1.7381 26.6246C2.04614 26.719 2.36973 26.7516 2.6904 26.7206C3.01106 26.6895 3.32245 26.5956 3.60671 26.4439C3.89097 26.2923 4.14253 26.0861 4.34692 25.8371C4.55131 25.5881 4.70453 25.3011 4.7978 24.9928V24.7888H5.6137L7.75546 24.2789L8.57143 25.1968L7.04158 27.9505C6.79128 28.0039 6.56178 28.1287 6.3808 28.3096C6.19983 28.4906 6.07511 28.7201 6.02169 28.9704C5.91122 29.1681 5.84603 29.3879 5.83083 29.6139C5.81562 29.8399 5.85074 30.0664 5.93373 30.2771C6.01671 30.4879 6.14551 30.6775 6.31071 30.8325C6.47591 30.9874 6.67345 31.1037 6.88907 31.173C7.10469 31.2423 7.33297 31.2629 7.55751 31.2332C7.78204 31.2036 7.99724 31.1244 8.18747 31.0015C8.37771 30.8786 8.53827 30.715 8.65758 30.5225C8.77689 30.33 8.85196 30.1134 8.87739 29.8883C9.00406 29.4826 8.96743 29.0435 8.77536 28.6644L10.3052 25.7067C10.9455 25.6935 11.5654 25.4797 12.0778 25.0954C12.5901 24.7112 12.969 24.1759 13.161 23.5649C13.2434 23.4083 13.2788 23.2312 13.2629 23.055H13.8748C14.9725 23.0967 16.0644 23.2332 17.1385 23.4629C17.1385 24.5848 17.3425 25.6047 17.3425 26.6246C16.7379 26.6783 16.163 26.9107 15.6908 27.2921C15.2186 27.6735 14.8705 28.1867 14.6908 28.7664C14.5097 29.1846 14.4737 29.6513 14.5888 30.0923L11.0191 31.6221H10.7132C10.5191 31.5593 10.3143 31.5359 10.111 31.5533C9.90775 31.5708 9.70996 31.6287 9.52939 31.7238C9.34882 31.8188 9.18908 31.949 9.05959 32.1067C8.9301 32.2644 8.83345 32.4464 8.77536 32.642C8.67899 33.0204 8.73097 33.4213 8.92059 33.7626C9.1102 34.1039 9.4231 34.3598 9.79526 34.4779C9.98938 34.5407 10.1942 34.5641 10.3975 34.5466C10.6008 34.5292 10.7985 34.4712 10.9791 34.3762C11.1596 34.2811 11.3194 34.1509 11.4489 33.9932C11.5783 33.8355 11.675 33.6536 11.7331 33.458L12.957 32.846L15.3027 31.8261C15.4047 32.0301 15.6087 32.1321 15.8127 32.3361L14.8947 35.1918C14.4798 35.2955 14.0962 35.4982 13.7766 35.7823C13.4569 36.0665 13.2107 36.4237 13.0589 36.8236C12.9646 37.1316 12.932 37.4553 12.963 37.7759C12.994 38.0966 13.088 38.408 13.2397 38.6922C13.3913 38.9765 13.5974 39.228 13.8465 39.4324C14.0955 39.6368 14.3825 39.79 14.6908 39.8833C15.2996 40.0783 15.9605 40.0275 16.5322 39.7416C17.104 39.4557 17.5413 38.9575 17.7505 38.3535C17.9086 37.831 17.8948 37.2716 17.7112 36.7575C17.5276 36.2434 17.1839 35.8019 16.7306 35.4977C16.9346 34.6818 17.2405 33.7639 17.5465 32.846H18.2605L20.1982 36.0077C20.1982 36.1097 20.0963 36.1097 20.0963 36.2117C19.9957 36.6036 20.0444 37.019 20.2329 37.377C20.4214 37.7351 20.7362 38.0104 21.1162 38.1495C21.3035 38.2114 21.5017 38.2338 21.6981 38.2153C21.8946 38.1968 22.0851 38.1377 22.2576 38.0419C22.4301 37.9461 22.5808 37.8155 22.7003 37.6585C22.8199 37.5015 22.9055 37.3214 22.952 37.1296C23.0323 36.9432 23.072 36.742 23.0684 36.5391C23.0648 36.3363 23.018 36.1365 22.9311 35.9531C22.8443 35.7698 22.7193 35.607 22.5646 35.4757C22.41 35.3445 22.2291 35.2477 22.034 35.1918H21.7281C21.1424 34.1021 20.4955 33.0465 19.7903 32.0301C20.0876 31.6597 20.3281 31.2473 20.5042 30.8062C20.6784 30.2225 20.6744 29.6 20.4927 29.0186C20.311 28.4372 19.9599 27.9232 19.4843 27.5425C19.7903 26.9306 20.1982 26.5226 20.5042 26.0127C20.8102 25.5027 21.3201 24.9928 22.442 25.5027L24.0738 26.3187C24.0738 26.5226 23.9719 26.6246 23.9719 26.7266C23.8433 27.0949 23.7888 27.4849 23.8116 27.8743C23.8344 28.2636 23.934 28.6447 24.1046 28.9954C24.2753 29.3461 24.5135 29.6596 24.8058 29.9179C25.0981 30.1762 25.4386 30.3741 25.8077 30.5002C25.7057 31.8261 25.5017 33.05 25.3997 34.3759C25.0571 34.5838 24.803 34.9105 24.6858 35.2938C24.6222 35.4744 24.5956 35.666 24.6076 35.8571C24.6196 36.0482 24.6699 36.235 24.7556 36.4062C24.8412 36.5775 24.9604 36.7298 25.1061 36.8541C25.2518 36.9783 25.421 37.072 25.6037 37.1296C25.9825 37.2611 26.3979 37.2386 26.7603 37.0669C27.1228 36.8952 27.4033 36.5881 27.5415 36.2117C27.6281 35.9282 27.6358 35.6266 27.564 35.3391C27.4921 35.0516 27.3433 34.7891 27.1335 34.5798C27.2355 33.4579 27.3375 32.438 27.5415 31.3162C27.5328 31.074 27.5673 30.8323 27.6435 30.6022L28.1534 30.3983L30.9071 33.356C30.7471 33.9642 30.8273 34.6107 31.1311 35.1614C31.435 35.7121 31.9391 36.1247 32.539 36.3137C32.8471 36.408 33.1707 36.4406 33.4913 36.4096C33.812 36.3786 34.1234 36.2846 34.4076 36.133C34.6919 35.9814 34.9435 35.7752 35.1478 35.5261C35.3522 35.2771 35.5055 34.9902 35.5987 34.6818C35.7937 34.073 35.7429 33.4121 35.457 32.8404C35.1711 32.2686 34.6729 31.8314 34.0689 31.6221" fill="white"/>
</svg>
