<svg width="54" height="50" viewBox="0 0 54 50" fill="none" xmlns="http://www.w3.org/2000/svg">
<g id="bgElements" clip-path="url(#clip0_3391_2171)">
<path id="bgelement" d="M26.087 29.0318C23.587 29.0318 4.8791 25.0238 0.0870423 28.0318C-0.579624 34.6984 2.28704 48.5318 19.087 50.5318H48.087C45.5715 45.4375 37.587 37.0318 35.087 35.0318C32.587 33.0318 33.087 28.5318 35.087 26.0318C37.087 23.5318 41.587 24.0318 44.587 22.5318C47.587 21.0318 49.587 18.1318 49.587 14.5318C49.587 10.0318 46.087 4.53178 40.087 5.03178C34.087 5.53178 31.087 11.5318 31.587 14.5318C32.087 17.5318 35.087 22.0318 31.587 26.0318C28.087 30.0318 28.587 29.0318 26.087 29.0318Z" fill="#05478A"/>
<circle id="bgelement_2" cx="51.25" cy="32.25" r="2.25" fill="#05478A"/>
<circle id="bgelement_3" cx="12.5" cy="5.5" r="5.5" fill="#05478A"/>
</g>
<defs>
<clipPath id="clip0_3391_2171">
<rect width="53.5" height="50.5318" fill="white"/>
</clipPath>
</defs>
</svg>
