<svg width="93" height="90" viewBox="0 0 93 90" fill="none" xmlns="http://www.w3.org/2000/svg">
<g id="Dragon icon" clip-path="url(#clip0_5336_3732)">
<path id="Vector" d="M75.1284 72.1763C91.0241 56.2806 91.0241 30.5085 75.1284 14.6128C59.2327 -1.28291 33.4607 -1.28292 17.5649 14.6128C1.66922 30.5085 1.66922 56.2806 17.5649 72.1763C33.4607 88.072 59.2327 88.072 75.1284 72.1763Z" fill="#0CC58B"/>
<g id="Clip path group">
<mask id="mask0_5336_3732" style="mask-type:luminance" maskUnits="userSpaceOnUse" x="5" y="2" width="83" height="83">
<g id="clip-path">
<path id="Vector_2" d="M75.0796 72.1763C90.9753 56.2806 90.9753 30.5085 75.0796 14.6128C59.1839 -1.28291 33.4118 -1.28292 17.5161 14.6128C1.6204 30.5085 1.6204 56.2806 17.5161 72.1763C33.4118 88.072 59.1839 88.072 75.0796 72.1763Z" fill="white"/>
</g>
</mask>
<g mask="url(#mask0_5336_3732)">
<g id="Group">
<path id="Vector_3" d="M91.3065 48.0904C90.8476 48.9092 90.1912 49.6002 89.397 50.1005C89.3467 49.9497 89.3467 49.799 89.2965 49.5979C89.2332 49.2493 89.0565 48.9313 88.794 48.6934C88.3252 48.2494 87.7263 47.9676 87.0854 47.8894H86.1307C85.9474 47.9249 85.7731 47.9965 85.6178 48.1C85.4625 48.2036 85.3294 48.3369 85.2261 48.4924C85.1339 48.6606 85.0814 48.8477 85.0727 49.0394C85.064 49.231 85.0993 49.4221 85.1759 49.5979C85.3189 49.8906 85.5248 50.1479 85.7789 50.3517C86.1156 50.5971 86.4981 50.7724 86.9038 50.8674C87.3095 50.9623 87.7301 50.9749 88.1407 50.9045C87.7081 51.5794 87.1441 52.1604 86.4824 52.613C85.6749 53.1783 84.7033 53.4609 83.7186 53.417H83.2161C83.6545 52.832 84.0412 52.2098 84.3719 51.5577C83.1913 52.1577 81.9428 52.6133 80.6533 52.9145L76.0804 51.4572C92.1105 44.7738 88.8945 24.0703 88.8945 24.0703C87.0854 36.4824 74.0201 38.9447 74.0201 38.9447C79.397 33.4673 77.6382 25.3768 77.6382 25.3768C76.6198 26.272 75.527 27.0789 74.3719 27.7889C74.3431 27.6567 74.3263 27.5221 74.3216 27.3869L74.1709 27.8894C72.1368 29.0874 69.9805 30.0645 67.7387 30.804L67.5879 30.1005C67.5319 30.0089 67.4975 29.9058 67.4874 29.799C67.4006 29.4541 67.2828 29.1177 67.1357 28.7939C67.138 28.7667 67.1347 28.7393 67.1261 28.7134C67.1174 28.6875 67.1036 28.6636 67.0854 28.6432C66.7369 27.6266 66.3171 26.6359 65.8291 25.6784L66.1307 25.3768C66.7388 24.8033 67.3944 24.2821 68.0905 23.8191C68.799 23.352 69.5376 22.9323 70.3015 22.5628C72.01 21.809 73.8693 21.206 75.8291 20.5025C77.8454 19.8236 79.8102 19.0007 81.7085 18.0402C83.6907 17.0236 85.4637 15.6427 86.9347 13.9698C88.2996 12.3177 89.3089 10.4017 89.8995 8.34167C90.4777 6.3798 90.8152 4.35488 90.9045 2.31152C90.4039 4.24138 89.6963 6.11152 88.794 7.88941C87.9202 9.5923 86.7058 11.0975 85.2261 12.3115C83.7772 13.4305 82.1203 14.2504 80.3518 14.7236C78.4889 15.2438 76.5913 15.63 74.6734 15.8794C72.7136 16.1306 70.6533 16.4321 68.4925 16.8844C66.1877 17.4209 63.9827 18.3199 61.9598 19.5477L60.4523 20.5025C51.7085 17.1356 46.2312 20.7035 46.2312 20.7035C46.2312 20.7035 40.7035 17.1356 31.9598 20.5025C31.4838 20.1441 30.9797 19.8248 30.4523 19.5477C28.4293 18.3199 26.2244 17.4209 23.9196 16.8844C21.809 16.4321 19.7487 16.1306 17.7387 15.8794C15.8364 15.635 13.9551 15.2487 12.1106 14.7236C10.3229 14.2605 8.64767 13.44 7.18592 12.3115C5.73478 11.0695 4.52525 9.57035 3.61808 7.88941C2.71579 6.11152 2.00818 4.24138 1.50754 2.31152C1.59685 4.35488 1.93433 6.3798 2.51256 8.34167C3.1013 10.4127 4.1297 12.3323 5.52764 13.9698C6.96909 15.6531 8.72781 17.0362 10.7035 18.0402C12.6018 19.0007 14.5667 19.8236 16.5829 20.5025C18.5427 21.206 20.402 21.809 22.1106 22.5628C23.6403 23.2754 25.0479 24.2251 26.2814 25.3768L26.5829 25.6784C26.1029 26.5984 25.6996 27.5564 25.3769 28.5427C25.3363 28.6198 25.3188 28.7071 25.3266 28.7939L25.0251 29.6482L24.8744 30.1005C24.8241 30.3517 24.7236 30.603 24.6734 30.8542C22.5168 30.1238 20.4311 29.1988 18.4422 28.0904L18.2915 27.4371C18.256 27.6023 18.2391 27.7708 18.2412 27.9397C17.0119 27.2086 15.8514 26.3677 14.7739 25.4271C14.7739 25.4271 13.0151 33.5175 18.392 38.9949C18.392 38.9949 5.37689 36.5326 3.56784 24.1206C3.56784 24.1206 0.301499 44.8743 16.4322 51.5075L11.9598 52.9648H11.9095C10.5651 52.6867 9.26387 52.2304 8.0402 51.608C8.37084 52.2601 8.75755 52.8822 9.19597 53.4673H8.89446C7.90976 53.5112 6.93815 53.2285 6.13064 52.6633C5.48007 52.1976 4.9184 51.6189 4.47236 50.9547C4.88299 51.0252 5.3036 51.0126 5.70927 50.9176C6.11495 50.8227 6.49746 50.6473 6.83417 50.402C7.08824 50.1982 7.29414 49.9408 7.43718 49.6482C7.52668 49.4758 7.56916 49.2828 7.56034 49.0887C7.55152 48.8946 7.4917 48.7063 7.38693 48.5427C7.1902 48.2394 6.88431 48.0235 6.53266 47.9397H5.57789C4.91925 48.0073 4.30118 48.2898 3.8191 48.7437C3.57553 48.9962 3.40229 49.308 3.31659 49.6482C3.27766 49.8127 3.26076 49.9817 3.26633 50.1507C2.45778 49.652 1.78465 48.9616 1.30654 48.1407C0.727792 47.204 0.287713 46.1884 0 45.1256C0.242689 46.2116 0.631484 47.2596 1.15577 48.2412C1.63421 49.2038 2.36331 50.0197 3.26633 50.603V50.7035C3.42697 51.3118 3.71851 51.8778 4.12059 52.3618L4.72362 53.015L5.07538 53.3165L5.37688 53.618C5.8724 53.9865 6.41275 54.2904 6.98492 54.5226L7.88944 54.7738L8.79397 54.8743C9.26342 54.9087 9.7352 54.8919 10.201 54.8241C12.7638 57.7889 17.7889 61.6582 26.1307 61.3567C23.8081 63.7507 20.7784 65.336 17.4874 65.8794C22.1872 68.6177 27.5829 69.9274 33.0151 69.6482C33.3562 70.4813 33.7593 71.2875 34.2211 72.0603V72.6633C34.1709 75.7789 33.4673 78.4924 33.0653 80.804V80.9045C33.0151 81.0552 33.0151 81.206 32.9648 81.3567V81.5578C32.9273 81.6711 32.9103 81.7902 32.9146 81.9095C32.8742 82.0046 32.857 82.1079 32.8643 82.211C32.8798 82.2981 32.8618 82.3878 32.8141 82.4623V83.015C32.7725 83.1962 32.7556 83.3821 32.7638 83.5678C32.7638 88.8944 41.206 90.0502 46.1809 90.0502C51.1558 90.0502 59.5477 88.8944 59.5477 83.5678V83.015C59.5553 82.9442 59.5375 82.873 59.4975 82.814V82.4623C59.4758 82.3796 59.459 82.2957 59.4472 82.211V81.9095C59.4027 81.7979 59.3855 81.6773 59.397 81.5578C59.3467 81.5075 59.3467 81.4572 59.3467 81.3567C59.3467 81.2562 59.2965 81.0552 59.2462 80.9045V80.804C58.8442 78.4924 58.1407 75.7286 58.0905 72.6633V72.0603H58.1407C58.5868 71.2868 58.9732 70.4805 59.2965 69.6482C64.7286 69.9274 70.1244 68.6177 74.8241 65.8794C71.5388 65.3193 68.514 63.7366 66.1809 61.3567C74.5226 61.6582 79.5477 57.7387 82.1105 54.8241C82.6438 54.8911 83.1822 54.9079 83.7186 54.8743L84.6231 54.7738L85.5276 54.5226C86.1049 54.3012 86.6467 53.9965 87.1357 53.618L87.4874 53.3165L87.7889 53.015L88.392 52.3618C88.794 51.8778 89.0856 51.3118 89.2462 50.7035V50.603C90.1526 50.0087 90.8955 49.1967 91.407 48.2412C91.8881 47.2407 92.275 46.1977 92.5628 45.1256C92.2637 46.1604 91.8419 47.1557 91.3065 48.0904ZM4.47236 49.2964C4.79276 48.9535 5.2161 48.7242 5.67839 48.6432H6.3819C6.55758 48.671 6.71778 48.7599 6.83417 48.8944C6.88387 48.9688 6.91038 49.0562 6.91038 49.1457C6.91038 49.2351 6.88387 49.3226 6.83417 49.3969C6.76577 49.6081 6.64471 49.7983 6.48241 49.9497C6.17599 50.1967 5.81952 50.374 5.43773 50.4695C5.05593 50.5649 4.65794 50.5762 4.27136 50.5025C4.27136 50.4522 4.2211 50.4522 4.2211 50.402C4.15928 50.2122 4.15 50.0092 4.19423 49.8145C4.23847 49.6199 4.33458 49.4409 4.47236 49.2964ZM16.0301 53.4673C16.9347 53.2663 17.8392 53.015 18.794 52.8643L19.8492 52.6633L22.0603 53.1155C20.0679 53.4417 18.047 53.5596 16.0301 53.4673ZM70.402 53.1155L72.6633 52.613L73.8693 52.8643L76.5829 53.4673C74.516 53.5607 72.445 53.4428 70.402 53.1155ZM86.1809 49.9497C85.9893 49.8152 85.8479 49.6207 85.7789 49.3969C85.7292 49.3226 85.7027 49.2351 85.7027 49.1457C85.7027 49.0562 85.7292 48.9688 85.7789 48.8944C85.9174 48.7622 86.0925 48.6746 86.2814 48.6432H86.9347C87.397 48.7242 87.8203 48.9535 88.1407 49.2964C88.2785 49.4409 88.3746 49.6199 88.4188 49.8145C88.4631 50.0092 88.4538 50.2122 88.392 50.402V50.5025C88.0057 50.5871 87.6052 50.5813 87.2216 50.4854C86.838 50.3895 86.4818 50.2062 86.1809 49.9497Z" fill="#2AE9C4"/>
</g>
</g>
</g>
<path id="Vector_4" d="M70.4018 50.8041C92.8139 47.0352 88.8942 21.8091 88.8942 21.8091C87.0852 34.2211 74.0199 36.6835 74.0199 36.6835C79.3968 31.2061 77.638 23.1156 77.638 23.1156C71.5576 28.4423 61.3063 31.4573 46.2309 31.4573C31.1556 31.4573 20.8541 28.4423 14.7737 23.1156C14.7737 23.1156 13.0149 31.2061 18.3918 36.6835C18.3918 36.6835 5.37668 34.2211 3.56763 21.8091C3.56763 21.8091 -0.402223 47.0352 22.0601 50.8041C22.0601 50.8041 14.0199 52.4121 8.03999 49.2965C8.03999 49.2965 12.8641 59.4473 26.1807 58.995C23.8581 61.389 20.8284 62.9743 17.5375 63.5176C17.5375 63.5176 30.3013 72.0603 46.2309 63.5176C62.1103 72.0603 74.8742 63.5176 74.8742 63.5176C71.5888 62.9576 68.5641 61.3748 66.2309 58.995C79.5978 59.4473 84.3716 49.2965 84.3716 49.2965C78.3917 52.4121 70.4018 50.8041 70.4018 50.8041Z" fill="#870014"/>
<path id="Vector_5" d="M60.9552 18.4423C51.91 14.7237 46.2316 18.4423 46.2316 18.4423C46.2316 18.4423 40.5029 14.7237 31.508 18.4423C22.513 22.1609 20.4024 45.9297 29.1462 56.6332C37.8899 67.3367 32.8145 75.8292 32.8145 81.1558C32.8145 86.4825 41.2567 87.6885 46.2316 87.6885C51.2065 87.6885 59.5984 86.4825 59.5984 81.1558C59.5984 75.8292 54.5733 67.2865 63.317 56.6332C72.0607 45.9799 69.9502 22.1106 60.9552 18.4423Z" fill="#FF3E3E"/>
<path id="Vector_6" d="M62.4616 33.819C57.4365 36.3818 46.7832 35.2763 46.7832 47.2361C46.7832 59.1959 54.7731 61.5075 56.5319 61.0049C58.2907 60.5024 61.3561 54.2713 66.0797 52.0602C69.547 44.3718 69.6475 33.7185 67.0847 26.3818C66.7329 28.7939 65.6274 32.2612 62.4616 33.819Z" fill="#AF1515"/>
<path id="Vector_7" d="M35.9294 61.0048C37.6882 61.5073 45.7284 59.1455 45.7284 47.236C45.7284 35.3264 35.0751 36.3817 29.9997 33.8189C26.8339 32.2109 25.7284 28.643 25.3766 26.231C22.7636 33.5676 22.8641 44.2712 26.3314 52.0099C31.1053 54.2209 34.4721 60.5526 35.9294 61.0048Z" fill="#AF1515"/>
<path id="Vector_8" d="M31.5581 31.2563V31.1558L31.4576 30.9046C31.4073 30.7036 31.3068 30.5528 31.2565 30.3518C31.11 29.9741 30.9422 29.605 30.754 29.2463C30.6033 28.8443 30.352 28.4925 30.2013 28.0905C29.9655 27.7502 29.7474 27.398 29.548 27.0352C28.6545 25.5925 27.554 24.2888 26.2817 23.1659C25.0613 21.9978 23.6508 21.0462 22.1108 20.3518C20.4023 19.598 18.543 18.9448 16.5832 18.2915C14.567 17.6126 12.6021 16.7897 10.7038 15.8292C8.72809 14.8252 6.96936 13.4421 5.52791 11.7588C4.12998 10.1214 3.10158 8.20168 2.51284 6.13069C1.93058 4.15259 1.59305 2.11055 1.50781 0.050293C2.00347 1.98173 2.71129 3.85241 3.61836 5.62818C4.52552 7.30912 5.73505 8.80825 7.1862 10.0503C8.64795 11.1787 10.3232 11.9993 12.1108 12.4624C13.9554 12.9875 15.8367 13.3738 17.739 13.6181C19.749 13.8694 21.8093 14.1709 23.9199 14.6232C26.2317 15.1372 28.4403 16.0376 30.4525 17.2865C32.4905 18.5002 34.365 19.9694 36.0304 21.6583L37.1862 22.9649C37.5985 23.411 37.9844 23.8808 38.342 24.3719C38.7054 24.8374 39.041 25.324 39.347 25.8292C39.5435 26.078 39.712 26.3476 39.8495 26.6332L40.1008 27.0352L40.2515 27.2865V27.387L40.352 27.588C40.8385 28.7608 40.8391 30.0788 40.3538 31.2521C39.8684 32.4254 38.9369 33.3578 37.7641 33.8443C36.5913 34.3307 35.2733 34.3313 34.1 33.846C32.9267 33.3607 31.9943 32.4291 31.5078 31.2563H31.5581Z" fill="url(#paint0_linear_5336_3732)"/>
<path id="Vector_9" d="M34.0703 57.839C33.5766 56.948 33.0226 56.0917 32.4121 55.2762C31.7999 54.472 31.091 53.7463 30.3015 53.1154C29.5406 52.4545 28.6958 51.8969 27.7889 51.4571L27.4372 51.2561L27.0854 51.1053L26.3819 50.8541C25.419 50.534 24.4254 50.3151 23.4171 50.2008H21.1055L20.3518 50.3013C19.8243 50.3533 19.3028 50.4542 18.794 50.6028C16.6332 51.0048 14.5729 51.6581 12.3618 52.1606C11.2121 52.4488 10.0293 52.584 8.84422 52.5626L7.93969 52.4621L7.03518 52.2109C6.463 51.9787 5.92265 51.6748 5.42713 51.3063L5.12562 51.0048L4.77387 50.7033L4.17085 50.0501C3.76877 49.5661 3.47723 49.0001 3.31659 48.3918C3.21746 48.047 3.21746 47.6813 3.31659 47.3365C3.40229 46.9963 3.57553 46.6845 3.8191 46.432C4.30118 45.9781 4.91925 45.6956 5.57789 45.628H6.53266C6.88431 45.7118 7.1902 45.9277 7.38693 46.231C7.4917 46.3946 7.55152 46.5829 7.56034 46.777C7.56916 46.9711 7.52668 47.1641 7.43718 47.3365C7.29414 47.6291 7.08824 47.8865 6.83417 48.0903C6.3413 48.4421 5.7591 48.6476 5.15459 48.6831C4.55008 48.7187 3.94781 48.5829 3.41708 48.2913C2.42214 47.7531 1.62865 46.9068 1.15577 45.8792C0.623013 44.8838 0.233897 43.8179 0 42.7134C0.287796 43.792 0.727726 44.8241 1.30654 45.7787C1.83348 46.7167 2.61823 47.484 3.56784 47.9898C4.04019 48.1995 4.5605 48.2776 5.07362 48.2157C5.58673 48.1537 6.07353 47.9541 6.48241 47.638C6.64471 47.4866 6.76577 47.2964 6.83417 47.0852C6.88387 47.0109 6.91038 46.9234 6.91038 46.834C6.91038 46.7445 6.88387 46.6571 6.83417 46.5827C6.71778 46.4482 6.55758 46.3592 6.3819 46.3315H5.67839C5.20935 46.3923 4.77959 46.6251 4.47236 46.9847C4.33458 47.1292 4.23847 47.3082 4.19423 47.5028C4.15 47.6975 4.15928 47.9005 4.2211 48.0903C4.63582 49.0064 5.29692 49.7893 6.13064 50.3516C6.93815 50.9168 7.90976 51.1995 8.89446 51.1556C9.93467 51.1319 10.9665 50.9627 11.9598 50.6531C14.0201 50.0501 16.1307 49.246 18.3417 48.643L20 48.2913L20.9045 48.1405L21.7588 48.04H23.5678C24.1589 48.0544 24.7475 48.1216 25.3266 48.241C25.9296 48.2913 26.5327 48.4923 27.1357 48.5928L27.9899 48.8943L28.392 49.045L28.794 49.246C29.9278 49.6999 30.9932 50.3087 31.9598 51.0551C32.9185 51.7771 33.8099 52.5845 34.6231 53.4671C35.4105 54.3751 36.1167 55.3504 36.7337 56.3817C36.8685 56.7222 36.8791 57.0993 36.7635 57.4468C36.6479 57.7944 36.4136 58.09 36.1017 58.282C35.7898 58.4739 35.4203 58.5498 35.058 58.4964C34.6957 58.4429 34.3638 58.2636 34.1206 57.9898H34.0703V57.839Z" fill="#FFE36C"/>
<path id="Vector_10" d="M55.88 56.3314C56.5143 55.299 57.2373 54.3238 58.0409 53.4169C58.8248 52.5234 59.7007 51.7149 60.6539 51.0048C61.6205 50.2584 62.686 49.6496 63.8198 49.1957L64.2218 48.9947L64.674 48.844L65.5283 48.5425C66.0811 48.442 66.6841 48.241 67.2871 48.1907C67.8662 48.0713 68.4548 48.0041 69.0459 47.9897H70.8549L71.7092 48.0902L72.6137 48.241L74.272 48.5927C76.4831 49.1958 78.5936 49.9998 80.6539 50.6028C81.6473 50.9124 82.679 51.0816 83.7193 51.1053C84.704 51.1492 85.6756 50.8665 86.4831 50.3013C87.2871 49.6983 88.1414 48.8942 88.3926 48.04C88.4544 47.8502 88.4637 47.6472 88.4195 47.4526C88.3752 47.2579 88.2791 47.0789 88.1414 46.9344C87.8341 46.5748 87.4044 46.3421 86.9353 46.2812H86.2821C86.0931 46.3126 85.9181 46.4002 85.7795 46.5324C85.7298 46.6068 85.7033 46.6942 85.7033 46.7837C85.7033 46.8731 85.7298 46.9606 85.7795 47.0349C85.8485 47.2587 85.9899 47.4532 86.1816 47.5877C86.5802 47.9045 87.0587 48.105 87.5642 48.1671C88.0696 48.2292 88.5824 48.1504 89.0459 47.9395C89.9955 47.4337 90.7802 46.6664 91.3072 45.7284C91.8813 44.765 92.3368 43.7358 92.664 42.6631C92.3846 43.7541 91.9975 44.8146 91.5082 45.8289C90.9996 46.8484 90.1935 47.6895 89.1966 48.241C88.6659 48.5326 88.0636 48.6684 87.4591 48.6328C86.8546 48.5973 86.2724 48.3918 85.7795 48.04C85.5255 47.8362 85.3196 47.5788 85.1765 47.2862C85.0999 47.1103 85.0647 46.9192 85.0734 46.7276C85.0821 46.536 85.1346 46.3489 85.2268 46.1807C85.33 46.0252 85.4632 45.8918 85.6185 45.7883C85.7737 45.6848 85.9481 45.6132 86.1313 45.5777H87.0861C87.727 45.6558 88.3259 45.9377 88.7946 46.3817C89.0572 46.6196 89.2339 46.9376 89.2971 47.2862C89.399 47.6306 89.399 47.9971 89.2971 48.3415C89.1365 48.9498 88.8449 49.5158 88.4429 49.9998L87.8398 50.653L87.5383 50.9545L87.1866 51.2561C86.6976 51.6345 86.1558 51.9392 85.5785 52.1606L84.674 52.4118L83.7695 52.5123C82.5845 52.5303 81.4022 52.3951 80.2519 52.1103C78.0408 51.6078 75.9806 50.9545 73.87 50.5525L72.262 50.251L71.5082 50.1505H69.1966C68.1884 50.2648 67.1947 50.4838 66.2318 50.8038L65.5283 51.055L65.1765 51.2058L64.8248 51.4068C63.918 51.8467 63.0732 52.4042 62.3122 53.0651C61.5347 53.7092 60.8273 54.4335 60.2017 55.2259C59.5912 56.0414 59.0371 56.8977 58.5434 57.7887C58.3255 58.1123 57.9941 58.3424 57.6147 58.4335C57.2354 58.5245 56.8357 58.4699 56.4946 58.2805C56.1536 58.091 55.896 57.7805 55.7729 57.4103C55.6498 57.0401 55.6701 56.6371 55.8298 56.2812L55.88 56.3314Z" fill="#FFE36C"/>
<path id="Vector_11" d="M46.8848 49.0953C47.3092 47.8304 47.645 46.5375 47.8898 45.226C48.3421 43.1154 49.7491 39.5979 54.9752 38.0903C60.2014 36.5828 67.2868 34.6732 69.1461 29.9999C69.2557 30.9515 69.2557 31.9126 69.1461 32.8642C71.7115 30.958 73.5398 28.2244 74.322 25.1255C74.322 25.1255 76.2818 35.5778 67.7893 37.6883C59.2968 39.7989 49.8496 39.4471 51.0054 49.8994C51.0054 49.8994 49.7491 48.8441 49.3973 47.9396C48.6519 48.4997 47.7952 48.8938 46.8848 49.0953Z" fill="#FFE36C"/>
<path id="Vector_12" d="M45.7283 49.0953C45.3039 47.8304 44.9681 46.5375 44.7233 45.226C44.271 43.1154 42.864 39.5979 37.6379 38.0903C32.4117 36.5828 25.3263 34.6732 23.467 29.9999C23.3574 30.9515 23.3574 31.9126 23.467 32.8642C20.9016 30.958 19.0732 28.2244 18.2911 25.1255C18.2911 25.1255 16.3313 35.5778 24.8238 37.6883C33.3163 39.7989 42.7635 39.4471 41.6077 49.8994C41.6077 49.8994 42.864 48.8441 43.2158 47.9396C43.9612 48.4997 44.8179 48.8938 45.7283 49.0953Z" fill="#FFE36C"/>
<path id="Vector_13" d="M46.2311 71.1056C39.397 74.4222 36.8341 73.1156 35.0251 68.2915C36.2311 74.6232 34.0703 77.5377 34.0703 81.1558C34.0703 86.4825 41.7085 86.0302 46.2311 86.0302C50.7537 86.0302 58.3417 86.4825 58.3417 81.1558C58.3417 77.5377 56.2311 74.6232 57.3869 68.2915C55.6281 73.1156 53.015 74.4222 46.2311 71.1056Z" fill="#B21222"/>
<path id="Vector_14" d="M52.0093 27.5879L52.1098 27.3869V27.2864L52.2606 27.0352L52.5118 26.6332C52.6493 26.3475 52.8178 26.0779 53.0143 25.8291C53.3204 25.3119 53.6737 24.8241 54.0696 24.3719C54.41 23.8814 54.7792 23.4116 55.1751 22.9648L56.3811 21.6583C58.0182 19.9585 59.8776 18.4879 61.9088 17.2864C63.9211 16.0376 66.1296 15.1372 68.4414 14.6231C70.6023 14.1709 72.6626 13.8693 74.6224 13.6181C76.5403 13.3687 78.4379 12.9825 80.3007 12.4623C82.0693 11.9891 83.7261 11.1692 85.1751 10.0503C86.6548 8.83619 87.8692 7.33103 88.743 5.62814C89.6535 3.83638 90.3614 1.94867 90.8535 0C90.7683 2.06026 90.4307 4.1023 89.8485 6.0804C89.2579 8.14041 88.2485 10.0564 86.8837 11.7085C85.4127 13.3814 83.6397 14.7623 81.6575 15.7789C79.7592 16.7394 77.7944 17.5623 75.7781 18.2412C73.8183 18.8945 71.959 19.5477 70.2505 20.3015C68.7105 20.9959 67.3 21.9475 66.0796 23.1156C64.8231 24.2401 63.7394 25.5439 62.8636 26.9849C62.6278 27.3252 62.4097 27.6774 62.2103 28.0402L61.6073 29.196C61.4191 29.5547 61.2513 29.9238 61.1048 30.3015C61.0545 30.5025 60.954 30.6533 60.9038 30.8543C60.8535 31.0553 60.8535 31.005 60.8033 31.1055V31.206C60.3168 32.3788 59.3844 33.3104 58.2111 33.7957C57.0378 34.2811 55.7198 34.2804 54.547 33.794C53.3742 33.3075 52.4426 32.3751 51.9573 31.2018C51.472 30.0285 51.4726 28.7105 51.959 27.5377L52.0093 27.5879Z" fill="url(#paint1_linear_5336_3732)"/>
<path id="Vector_15" d="M70.7033 18.5426C69.0871 19.0329 67.5602 19.7794 66.1807 20.7537C64.8021 21.7314 63.5527 22.8796 62.4621 24.1708L61.7083 25.1758C61.4571 25.5276 61.2058 25.8793 61.0048 26.2311C60.769 26.5713 60.551 26.9236 60.3516 27.2863L60.1003 27.7889L59.9495 28.0401V28.1406C59.5501 28.8598 58.9697 29.4623 58.2659 29.8882C57.562 30.3142 56.7591 30.549 55.9367 30.5693C55.1142 30.5896 54.3007 30.3948 53.5767 30.004C52.8527 29.6133 52.2433 29.0403 51.8088 28.3416C51.4997 29.5268 51.658 30.7855 52.2509 31.8573C52.8438 32.929 53.8259 33.7319 54.9942 34.0998C56.1625 34.4678 57.4275 34.3725 58.5276 33.8339C59.6276 33.2953 60.4785 32.3544 60.9043 31.2059V31.1054C60.9546 31.0049 61.0048 30.9547 61.0048 30.8542C61.0048 30.7537 61.1556 30.5024 61.2058 30.3014C61.3524 29.9237 61.5201 29.5546 61.7083 29.1959L62.3114 28.0401C62.5108 27.6773 62.7288 27.3251 62.9646 26.9848C63.8404 25.5438 64.9241 24.24 66.1807 23.1155C67.4011 21.9474 68.8116 20.9958 70.3516 20.3014C72.0601 19.5477 73.9194 18.8944 75.8792 18.2411C77.8954 17.5622 79.8603 16.7393 81.7586 15.7788H81.8591C80.05 16.3818 78.241 16.7838 76.4822 17.1858C74.7234 17.5879 72.4621 17.9899 70.7033 18.5426Z" fill="#D6D3BD"/>
<path id="Vector_16" d="M21.7588 18.5426C23.3552 19.0432 24.864 19.7892 26.2311 20.7537C27.6097 21.7314 28.8592 22.8796 29.9497 24.1708L30.7035 25.1758L31.4573 26.2311L32.0603 27.2863L32.3618 27.7889C32.3652 27.8817 32.4008 27.9705 32.4623 28.0401V28.1406C32.8617 28.8598 33.4421 29.4623 34.146 29.8882C34.8498 30.3142 35.6527 30.549 36.4751 30.5693C37.2976 30.5896 38.1111 30.3948 38.8351 30.004C39.5591 29.6133 40.1685 29.0403 40.603 28.3416C40.9121 29.5268 40.7538 30.7855 40.161 31.8573C39.5681 32.929 38.5859 33.7319 37.4176 34.0998C36.2493 34.4678 34.9843 34.3725 33.8843 33.8339C32.7842 33.2953 31.9333 32.3544 31.5075 31.2059V31.1054L31.407 30.8542C31.3568 30.6532 31.2563 30.5024 31.206 30.3014C31.0595 29.9237 30.8917 29.5546 30.7035 29.1959C30.5527 28.7939 30.3015 28.4421 30.1507 28.0401C29.9149 27.6999 29.6969 27.3476 29.4974 26.9848C28.6039 25.5421 27.5034 24.2385 26.2311 23.1155C25.0107 21.9474 23.6003 20.9958 22.0603 20.3014C20.3517 19.5477 18.4924 18.8944 16.5326 18.2411C14.5164 17.5622 12.5515 16.7393 10.6532 15.7788H10.5527C12.3361 16.3417 14.1476 16.8114 15.9799 17.1858C17.9899 17.5879 19.9497 17.9899 21.7588 18.5426Z" fill="#D6D3BD"/>
<path id="Vector_17" d="M53.1653 53.7687C53.1723 53.5688 53.1382 53.3697 53.0649 53.1836C52.9916 52.9975 52.8808 52.8285 52.7394 52.6871C52.598 52.5457 52.429 52.4349 52.2429 52.3616C52.0568 52.2883 51.8577 52.2541 51.6578 52.2612H41.0045C40.8047 52.2541 40.6055 52.2883 40.4194 52.3616C40.2333 52.4349 40.0643 52.5457 39.9229 52.6871C39.7815 52.8285 39.6707 52.9975 39.5974 53.1836C39.5242 53.3697 39.49 53.5688 39.497 53.7687C39.5015 53.9571 39.5354 54.1436 39.5975 54.3214C39.5396 54.5176 39.5058 54.7201 39.497 54.9245C39.5063 55.1123 39.5401 55.2981 39.5975 55.4772C39.5354 55.6551 39.5015 55.8416 39.497 56.03C39.5058 56.2343 39.5396 56.4368 39.5975 56.633C39.4623 56.9891 39.4623 57.3824 39.5975 57.7385C39.5401 57.9176 39.5063 58.1035 39.497 58.2913C39.5058 58.4956 39.5396 58.6982 39.5975 58.8943C39.5354 59.0722 39.5015 59.2587 39.497 59.4471C39.4902 59.6492 39.5243 59.8507 39.597 60.0394C39.6697 60.2282 39.7797 60.4004 39.9204 60.5457C40.061 60.6911 40.2295 60.8066 40.4158 60.8855C40.602 60.9644 40.8023 61.005 41.0045 61.0049H51.6578C51.8601 61.005 52.0603 60.9644 52.2465 60.8855C52.4328 60.8066 52.6013 60.6911 52.7419 60.5457C52.8826 60.4004 52.9926 60.2282 53.0653 60.0394C53.1381 59.8507 53.1721 59.6492 53.1653 59.4471C53.1851 59.257 53.1502 59.0653 53.0648 58.8943C53.1475 58.7047 53.182 58.4975 53.1653 58.2913C53.18 58.1015 53.1454 57.9111 53.0648 57.7385C53.2 57.3824 53.2 56.9891 53.0648 56.633C53.1475 56.4433 53.182 56.2362 53.1653 56.03C53.1851 55.8399 53.1502 55.6482 53.0648 55.4772C53.1454 55.3047 53.18 55.1143 53.1653 54.9245C53.182 54.7183 53.1475 54.5111 53.0648 54.3214C53.1502 54.1505 53.1851 53.9588 53.1653 53.7687Z" fill="#FFE36C"/>
<path id="Vector_18" d="M51.6577 62.1107H41.0045C40.6046 62.1107 40.2212 61.9519 39.9385 61.6692C39.6558 61.3865 39.4969 61.003 39.4969 60.6032C39.4902 60.401 39.5242 60.1996 39.5969 60.0108C39.6697 59.8221 39.7796 59.6499 39.9203 59.5046C40.061 59.3592 40.2295 59.2437 40.4157 59.1648C40.602 59.0859 40.8022 59.0453 41.0045 59.0454H51.6577C51.86 59.0453 52.0602 59.0859 52.2465 59.1648C52.4327 59.2437 52.6012 59.3592 52.7419 59.5046C52.8825 59.6499 52.9925 59.8221 53.0653 60.0108C53.138 60.1996 53.172 60.401 53.1653 60.6032C53.1653 61.003 53.0064 61.3865 52.7237 61.6692C52.441 61.9519 52.0576 62.1107 51.6577 62.1107Z" fill="#FFE36C"/>
<path id="Vector_19" d="M52.7138 60.2012H40.0505C39.2179 60.2012 38.543 60.8761 38.543 61.7087V61.7489C38.543 62.5815 39.2179 63.2564 40.0505 63.2564H52.7138C53.5464 63.2564 54.2214 62.5815 54.2214 61.7489V61.7087C54.2214 60.8761 53.5464 60.2012 52.7138 60.2012Z" fill="#FFE36C"/>
<path id="Vector_20" d="M48.592 55.2259C47.9396 54.7367 47.1461 54.4722 46.3307 54.4722C45.5152 54.4722 44.7217 54.7367 44.0694 55.2259C40.9538 57.5877 35.9789 62.1606 38.4412 65.6782C41.9086 70.6028 46.3307 66.2812 46.3307 66.2812C46.3307 66.2812 50.7528 70.6028 54.2201 65.6782C56.6824 62.1606 51.7076 57.5877 48.592 55.2259Z" fill="#FFE36C"/>
<path id="Vector_21" d="M52.3116 72.4118L46.2312 70.653L40.1005 72.4118L35.9297 70.3013C35.9297 70.3013 36.6332 77.0349 37.588 77.1857C38.5427 77.3364 40.9046 74.4721 40.9046 74.4721H51.5076C51.5076 74.4721 53.8694 77.2862 54.8242 77.1857C55.7789 77.0852 56.4824 70.3013 56.4824 70.3013L52.3116 72.4118Z" fill="#F4F3EA"/>
<path id="Vector_22" d="M24.4727 52.2612C25.1548 52.3109 25.8126 52.5359 26.3822 52.9145C26.9836 53.288 27.5549 53.7081 28.0908 54.1708C29.0999 55.1601 29.9781 56.2747 30.7038 57.4874C32.1109 59.9497 33.0656 62.613 34.2214 65.025C34.7734 66.2033 35.4293 67.33 36.1812 68.3919C36.8419 69.3422 37.7684 70.0764 38.8445 70.5024C40.8043 71.3065 43.2164 70.5024 45.4274 69.3467H45.4777C45.6983 69.2354 45.9389 69.1693 46.1854 69.1521C46.4319 69.1349 46.6793 69.167 46.9132 69.2466C47.1472 69.3261 47.3629 69.4515 47.5478 69.6153C47.7327 69.7792 47.8831 69.9783 47.9903 70.2009C48.1033 70.4185 48.1721 70.6563 48.1928 70.9007C48.2136 71.145 48.1858 71.391 48.111 71.6245C48.0363 71.858 47.9161 72.0745 47.7574 72.2614C47.5987 72.4483 47.4046 72.6019 47.1862 72.7135L46.9852 72.814C45.5472 73.37 44.0444 73.7415 42.5129 73.9195C41.6931 74.0028 40.8662 73.9859 40.0505 73.8693C39.2109 73.7231 38.3979 73.4521 37.6385 73.0652C36.2231 72.2803 35.0566 71.1138 34.2717 69.6984C33.5451 68.435 32.9394 67.1058 32.4626 65.7286C31.5581 63.0653 30.9551 60.4019 29.8495 57.9396C29.3221 56.7008 28.6106 55.5488 27.739 54.5225C27.3039 54.0037 26.8155 53.5321 26.2817 53.1155C25.7548 52.6915 25.1348 52.3988 24.4727 52.2612Z" fill="#FFE36C"/>
<path id="Vector_23" d="M67.9895 52.2612C67.309 52.3892 66.6705 52.6826 66.1302 53.1155C65.6079 53.5452 65.1206 54.0157 64.6729 54.5225C63.8013 55.5488 63.0898 56.7008 62.5623 57.9396C61.5071 60.4019 60.8538 63.0653 59.9493 65.7286C59.4906 67.1048 58.9016 68.4341 58.1905 69.6984C57.3713 71.1047 56.1917 72.267 54.7734 73.0652C54.0171 73.4595 53.2029 73.7309 52.3613 73.8693C51.5457 73.9864 50.7188 74.0033 49.899 73.9195C48.3685 73.7358 46.8665 73.3645 45.4267 72.814C44.9657 72.6336 44.5928 72.2813 44.3865 71.8313C44.1803 71.3814 44.1568 70.8689 44.3211 70.4019C44.4045 70.1635 44.5357 69.9446 44.7065 69.7586C44.8773 69.5725 45.0842 69.4232 45.3146 69.3197C45.545 69.2163 45.7941 69.1609 46.0466 69.1568C46.2992 69.1528 46.5499 69.2003 46.7835 69.2964H46.9845C49.1955 70.4522 51.6076 71.2562 53.5674 70.4522C54.6435 70.0262 55.57 69.292 56.2307 68.3416C57.001 67.2917 57.6579 66.1631 58.1905 64.9748C59.3965 62.5627 60.301 59.8994 61.7081 57.4371C62.4516 56.2231 63.3466 55.1086 64.3714 54.1205C64.8801 53.6466 65.4357 53.2257 66.0297 52.8642C66.6189 52.4951 67.2947 52.2871 67.9895 52.2612Z" fill="#FFE36C"/>
<path id="Vector_24" d="M52.7639 77.588C51.9598 77.6885 51.0051 82.0603 51.0051 82.0603H41.4573C41.4573 82.0603 40.4523 77.6885 39.6483 77.588C38.8443 77.4875 35.9297 84.1206 35.9297 84.1206L46.2312 86.4824L56.4824 84.1206C56.4824 84.1206 53.5679 77.4372 52.7639 77.588Z" fill="#F4F3EA"/>
<path id="Vector_25" d="M46.2315 84.8741C34.9753 84.8741 34.2717 72.8138 34.2717 70.3013C34.2215 74.7234 32.8145 78.3917 32.8145 81.1555C32.8145 86.4822 41.2567 87.6882 46.2315 87.6882C51.2064 87.6882 59.5984 86.4822 59.5984 81.1555C59.5984 78.3917 58.2416 74.7234 58.1411 70.3013C58.1411 72.4118 57.6888 84.8741 46.2315 84.8741Z" fill="#FF3E3E"/>
<path id="Vector_26" d="M47.7387 43.6183C47.3513 42.6763 47.305 41.6286 47.6078 40.6561C47.9105 39.6836 48.5433 38.8474 49.397 38.2917C52.3618 36.1309 51.9095 33.8193 51.9095 33.8193C51.9095 33.8193 53.216 35.7791 52.613 37.5379C52.01 39.2967 49.2965 39.4977 47.7387 43.6183Z" fill="#F4F3EA"/>
<path id="Vector_27" d="M44.8752 43.6183C45.2432 42.6739 45.2796 41.6325 44.9784 40.6648C44.6771 39.697 44.056 38.8603 43.2169 38.2917C40.252 36.1309 40.7043 33.8193 40.7043 33.8193C40.7043 33.8193 39.3978 35.7791 40.0008 37.5379C40.6038 39.2967 43.3174 39.4977 44.8752 43.6183Z" fill="#F4F3EA"/>
<path id="Vector_28" d="M43.1147 65.5279C44.5217 63.9198 42.3609 61.5078 40.6524 62.8143C39.9991 63.3168 39.8483 64.0706 40.8534 65.1761C41.8584 66.2816 42.5619 66.1811 43.1147 65.5279Z" fill="#DD9E00"/>
<path id="Vector_29" d="M49.5474 65.5279C48.1404 63.9198 50.3514 61.5078 52.0097 62.8143C52.663 63.3168 52.8137 64.0706 51.8589 65.1761C50.9042 66.2816 50.1002 66.1811 49.5474 65.5279Z" fill="#DD9E00"/>
<path id="Vector_30" d="M46.3308 64.4221C46.2642 64.4221 46.2003 64.3956 46.1531 64.3485C46.106 64.3013 46.0795 64.2374 46.0795 64.1708C46.0795 60.4522 43.7177 59.8994 43.6172 59.8994C43.5167 59.8994 43.366 59.6984 43.4162 59.5979C43.4358 59.5308 43.475 59.4711 43.5287 59.4264C43.5824 59.3816 43.6482 59.3539 43.7177 59.3467C43.768 59.3969 46.5821 59.9999 46.5821 64.1708C46.5821 64.2038 46.5756 64.2365 46.5629 64.267C46.5503 64.2974 46.5318 64.3251 46.5085 64.3485C46.4851 64.3718 46.4574 64.3903 46.427 64.4029C46.3965 64.4156 46.3638 64.4221 46.3308 64.4221Z" fill="#DD9E00"/>
<path id="Vector_31" d="M46.3313 64.4221C46.2647 64.4221 46.2008 64.3956 46.1537 64.3485C46.1066 64.3014 46.0801 64.2375 46.0801 64.1708C46.0801 60 48.8942 59.397 48.9444 59.3467C49.0164 59.3457 49.0863 59.3705 49.1416 59.4166C49.1969 59.4626 49.2339 59.527 49.2459 59.598C49.2962 59.6985 49.1957 59.8492 49.0449 59.8995C48.8942 59.9497 46.5826 60.5025 46.5826 64.1708C46.5826 64.2038 46.5761 64.2365 46.5635 64.267C46.5508 64.2975 46.5323 64.3252 46.509 64.3485C46.4857 64.3718 46.458 64.3903 46.4275 64.403C46.397 64.4156 46.3643 64.4221 46.3313 64.4221Z" fill="#DD9E00"/>
<path id="Vector_32" d="M64.4216 39.397C64.4216 39.397 57.3362 40.0502 52.3613 45.4774C52.3613 45.4774 55.7784 50.3015 60.5523 49.1457C65.3262 47.9899 64.4216 39.397 64.4216 39.397Z" fill="#F4F3EA"/>
<path id="Vector_33" d="M60.9539 45.9802C60.9539 46.7132 60.6628 47.4162 60.1444 47.9345C59.6261 48.4528 58.9231 48.744 58.1901 48.744C57.4659 48.7308 56.7757 48.4338 56.2682 47.9169C55.7607 47.4 55.4764 46.7046 55.4766 45.9802C55.4766 45.2605 55.7625 44.5703 56.2714 44.0614C56.7802 43.5525 57.4704 43.2666 58.1901 43.2666C58.9145 43.2665 59.61 43.5508 60.1269 44.0583C60.6438 44.5658 60.9408 45.2559 60.9539 45.9802Z" fill="#222B28"/>
<path id="Vector_34" d="M57.5877 44.8744C57.5875 45.1349 57.5094 45.3894 57.3635 45.6052C57.2176 45.821 57.0105 45.9883 56.7688 46.0855C56.5271 46.1828 56.2619 46.2055 56.0072 46.1509C55.7525 46.0963 55.5199 45.9668 55.3393 45.779C55.1588 45.5912 55.0385 45.3537 54.9939 45.0971C54.9493 44.8404 54.9824 44.5763 55.0891 44.3386C55.1957 44.1009 55.371 43.9005 55.5923 43.7632C55.8137 43.6259 56.0711 43.5578 56.3314 43.5679C56.6691 43.5809 56.9887 43.7242 57.2229 43.9679C57.4572 44.2115 57.5879 44.5364 57.5877 44.8744Z" fill="#F4F3EA"/>
<path id="Vector_35" d="M28.0909 39.397C28.0909 39.397 35.1763 40.0502 40.1512 45.4774C40.1512 45.4774 36.7341 50.3015 32.0105 49.1457C27.2869 47.9899 28.0909 39.397 28.0909 39.397Z" fill="#F4F3EA"/>
<path id="Vector_36" d="M37.0848 45.9802C37.0848 46.7132 36.7936 47.4162 36.2753 47.9345C35.757 48.4528 35.054 48.744 34.321 48.744C33.5967 48.7308 32.9066 48.4338 32.3991 47.9169C31.8916 47.4 31.6073 46.7046 31.6074 45.9802C31.6074 45.2605 31.8933 44.5703 32.4022 44.0614C32.9111 43.5525 33.6013 43.2666 34.321 43.2666C35.0454 43.2665 35.7409 43.5508 36.2577 44.0583C36.7746 44.5658 37.0716 45.2559 37.0848 45.9802Z" fill="#222B28"/>
<path id="Vector_37" d="M33.7185 44.8744C33.7185 45.1328 33.6419 45.3854 33.4983 45.6003C33.3548 45.8151 33.1507 45.9826 32.912 46.0815C32.6733 46.1804 32.4106 46.2062 32.1571 46.1558C31.9037 46.1054 31.6709 45.981 31.4882 45.7983C31.3054 45.6155 31.181 45.3827 31.1306 45.1293C31.0802 44.8759 31.106 44.6132 31.2049 44.3744C31.3038 44.1357 31.4713 43.9316 31.6861 43.7881C31.901 43.6445 32.1536 43.5679 32.412 43.5679C32.7585 43.5679 33.0908 43.7055 33.3359 43.9505C33.5809 44.1956 33.7185 44.5279 33.7185 44.8744Z" fill="#F4F3EA"/>
</g>
<defs>
<linearGradient id="paint0_linear_5336_3732" x1="21.1126" y1="0.050293" x2="21.1126" y2="34.2096" gradientUnits="userSpaceOnUse">
<stop stop-color="#AF1515"/>
<stop offset="1" stop-color="white"/>
</linearGradient>
<linearGradient id="paint1_linear_5336_3732" x1="71.2236" y1="0" x2="71.2236" y2="34.1593" gradientUnits="userSpaceOnUse">
<stop stop-color="#AF1515"/>
<stop offset="1" stop-color="white"/>
</linearGradient>
<clipPath id="clip0_5336_3732">
<rect width="92.6633" height="90" fill="white"/>
</clipPath>
</defs>
</svg>
