<svg width="38" height="68" viewBox="0 0 38 68" fill="none" xmlns="http://www.w3.org/2000/svg">
<g id="Lamp icon">
<path id="Vector" d="M26.2294 31.3663C26.056 31.3663 25.9043 31.1712 25.9043 30.9327V0.433535C25.9043 0.195091 26.056 0 26.2294 0C26.4029 0 26.5546 0.195091 26.5546 0.433535V30.9327C26.5546 31.1712 26.4029 31.3663 26.2294 31.3663Z" fill="#6C352C"/>
<path id="Vector_2" d="M29.1766 31.106H23.2588C22.7081 31.106 22.2617 31.5524 22.2617 32.1031V33.0113C22.2617 33.562 22.7081 34.0085 23.2588 34.0085H29.1766C29.7273 34.0085 30.1737 33.562 30.1737 33.0113V32.1031C30.1737 31.5524 29.7273 31.106 29.1766 31.106Z" fill="#8E1934"/>
<path id="Vector_3" d="M26.2287 53.9967C32.6815 53.9967 37.9125 49.3868 37.9125 43.7003C37.9125 38.0137 32.6815 33.4038 26.2287 33.4038C19.7759 33.4038 14.5449 38.0137 14.5449 43.7003C14.5449 49.3868 19.7759 53.9967 26.2287 53.9967Z" fill="#BF3748"/>
<g id="Clip path group">
<mask id="mask0_5336_3812" style="mask-type:luminance" maskUnits="userSpaceOnUse" x="14" y="33" width="24" height="21">
<g id="clip-path">
<path id="Vector_4" d="M26.2287 53.9967C32.6815 53.9967 37.9125 49.3868 37.9125 43.7003C37.9125 38.0137 32.6815 33.4038 26.2287 33.4038C19.7759 33.4038 14.5449 38.0137 14.5449 43.7003C14.5449 49.3868 19.7759 53.9967 26.2287 53.9967Z" fill="white"/>
</g>
</mask>
<g mask="url(#mask0_5336_3812)">
<g id="Group">
<g id="Group_2" style="mix-blend-mode:multiply" opacity="0.47">
<path id="Vector_5" d="M38.5209 35.5068C37.0686 35.5068 36.0064 36.6991 35.9414 38.0864C35.9062 39.2656 35.7018 40.4336 35.3344 41.5547C35.226 41.8798 35.1176 42.2266 34.9876 42.5518L34.8358 42.942C34.7965 43.0096 34.7673 43.0826 34.7491 43.1587C34.4673 43.7007 34.2072 44.2642 33.8821 44.7845C32.6917 46.8011 31.0431 48.5091 29.0698 49.7701C24.6478 52.5014 18.9034 52.5881 14.3947 50.1386C13.8022 49.8106 13.1059 49.7245 12.4513 49.8982C11.7968 50.0719 11.2348 50.4921 10.883 51.0708C10.1894 52.2413 10.5796 53.9104 11.7935 54.5824C14.1703 55.8739 16.7828 56.6738 19.4753 56.9345C22.1678 57.1951 24.8853 56.9113 27.4657 56.0998C32.3699 54.4973 36.4487 51.0334 38.8244 46.4536C40.1614 43.8562 40.9299 41.0039 41.0788 38.0864C41.1438 36.6991 39.8432 35.5068 38.5209 35.5068Z" fill="#A82C41"/>
</g>
<path id="Vector_6" d="M17.3217 55.796C16.4763 51.9375 15.6309 47.949 15.9127 43.9171C16.2378 39.43 18.0587 35.5716 20.9417 33.3389L21.0501 33.4906C18.2104 35.68 16.4113 39.4951 16.0861 43.9171C15.8043 47.9273 16.6714 51.9158 17.4951 55.7743L17.3217 55.796Z" fill="white"/>
<path id="Vector_7" d="M24.3879 61.4322C20.4366 52.459 20.2105 42.2839 23.7593 33.144L23.9327 33.2091C20.4044 42.3004 20.6305 52.4208 24.5613 61.3455L24.3879 61.4322Z" fill="white"/>
<path id="Vector_8" d="M26.7279 53.9971L26.5762 53.9321C29.1295 47.2826 29.3132 39.9564 27.0964 33.1874L27.2698 33.144C29.5001 39.9495 29.3087 47.3167 26.7279 53.9971Z" fill="white"/>
<path id="Vector_9" d="M32.2994 55.3623L32.1259 55.2973C34.7922 48.4691 34.1419 40.3187 30.4785 33.9891L30.6303 33.9023C34.337 40.2753 34.9656 48.4908 32.2994 55.3623Z" fill="white"/>
<path id="Vector_10" d="M33.7726 56.1213L33.6426 56.0346C37.6528 50.2469 38.1297 42.1615 34.8348 35.9402L35.0082 35.8535C38.3248 42.1398 37.8262 50.2902 33.7726 56.1213Z" fill="white"/>
</g>
</g>
</g>
<path id="Vector_11" d="M28.4835 53.7148H23.9747C23.6036 53.7148 23.3027 54.0157 23.3027 54.3868V55.3644C23.3027 55.7356 23.6036 56.0364 23.9747 56.0364H28.4835C28.8546 56.0364 29.1555 55.7356 29.1555 55.3644V54.3868C29.1555 54.0157 28.8546 53.7148 28.4835 53.7148Z" fill="#8E1934"/>
<path id="Vector_12" d="M23.6709 65.7453C23.5846 65.7453 23.5019 65.7111 23.4409 65.6501C23.38 65.5891 23.3457 65.5064 23.3457 65.4202L23.5841 57.6599C23.5897 57.5775 23.6263 57.5003 23.6867 57.4439C23.7471 57.3875 23.8267 57.3563 23.9093 57.3564C23.9955 57.3564 24.0782 57.3907 24.1392 57.4517C24.2002 57.5127 24.2345 57.5954 24.2345 57.6816L23.996 65.4419C23.9905 65.5243 23.9538 65.6015 23.8934 65.6579C23.833 65.7143 23.7535 65.7455 23.6709 65.7453Z" fill="#FBA81A"/>
<path id="Vector_13" d="M26.4462 67.9997H26.4246C26.3421 67.9942 26.2649 67.9576 26.2085 67.8972C26.1522 67.8368 26.1209 67.7572 26.1211 67.6746L26.2295 57.6816C26.2295 57.5954 26.2637 57.5127 26.3247 57.4517C26.3857 57.3907 26.4684 57.3564 26.5546 57.3564C26.6409 57.3564 26.7236 57.3907 26.7845 57.4517C26.8455 57.5127 26.8798 57.5954 26.8798 57.6816L26.7497 67.6746C26.7499 67.7572 26.7186 67.8368 26.6623 67.8972C26.6059 67.9576 26.5287 67.9942 26.4462 67.9997Z" fill="#FBA81A"/>
<path id="Vector_14" d="M28.9597 66.5905C28.8771 66.5907 28.7975 66.5594 28.7371 66.503C28.6767 66.4467 28.6401 66.3694 28.6345 66.287L28.4395 57.8764C28.4393 57.7938 28.4705 57.7142 28.5269 57.6538C28.5833 57.5935 28.6605 57.5568 28.7429 57.5513C28.8292 57.5513 28.9119 57.5855 28.9728 57.6465C29.0338 57.7075 29.0681 57.7902 29.0681 57.8764L29.2848 66.2653C29.2848 66.3516 29.2506 66.4343 29.1896 66.4952C29.1286 66.5562 29.0459 66.5905 28.9597 66.5905Z" fill="#FBA81A"/>
<path id="Vector_15" d="M4.86196 21.8935C4.78866 21.8897 4.71691 21.8725 4.65083 21.8431C4.58474 21.8136 4.52561 21.7724 4.47684 21.7218C4.42806 21.6713 4.3906 21.6123 4.3666 21.5484C4.34259 21.4844 4.33252 21.4168 4.33696 21.3492V0.544314C4.33252 0.476779 4.34259 0.409101 4.3666 0.34516C4.3906 0.28122 4.42806 0.222275 4.47684 0.171706C4.52561 0.121137 4.58474 0.0799389 4.65083 0.0504737C4.71691 0.0210085 4.78866 0.00385621 4.86196 0C5.01285 0.00773714 5.15478 0.068482 5.25854 0.169734C5.36231 0.270987 5.42001 0.405043 5.41977 0.544314V21.3492C5.42001 21.4885 5.36231 21.6225 5.25854 21.7238C5.15478 21.825 5.01285 21.8858 4.86196 21.8935Z" fill="#6C352C"/>
<path id="Vector_16" d="M7.71886 19.856H2.14794C1.69301 19.856 1.32422 20.2247 1.32422 20.6797V22.7086C1.32422 23.1635 1.69301 23.5323 2.14794 23.5323H7.71886C8.17379 23.5323 8.54258 23.1635 8.54258 22.7086V20.6797C8.54258 20.2247 8.17379 19.856 7.71886 19.856Z" fill="#8E1934"/>
<path id="Vector_17" d="M7.71886 48.3828H2.14794C1.69301 48.3828 1.32422 48.7516 1.32422 49.2065V50.3207C1.32422 50.7756 1.69301 51.1444 2.14794 51.1444H7.71886C8.17379 51.1444 8.54258 50.7756 8.54258 50.3207V49.2065C8.54258 48.7516 8.17379 48.3828 7.71886 48.3828Z" fill="#8E1934"/>
<path id="Vector_18" d="M7.00159 23.519H2.83965C1.27136 23.519 0 24.7904 0 26.3587V45.5405C0 47.1088 1.27136 48.3801 2.83965 48.3801H7.00159C8.56989 48.3801 9.84125 47.1088 9.84125 45.5405V26.3587C9.84125 24.7904 8.56989 23.519 7.00159 23.519Z" fill="#BF3748"/>
<g id="Clip path group_2">
<mask id="mask1_5336_3812" style="mask-type:luminance" maskUnits="userSpaceOnUse" x="0" y="23" width="10" height="26">
<g id="clip-path-2">
<path id="Vector_19" d="M7.00159 23.5195H2.83965C1.27136 23.5195 0 24.7909 0 26.3592V45.5409C0 47.1092 1.27136 48.3806 2.83965 48.3806H7.00159C8.56989 48.3806 9.84125 47.1092 9.84125 45.5409V26.3592C9.84125 24.7909 8.56989 23.5195 7.00159 23.5195Z" fill="white"/>
</g>
</mask>
<g mask="url(#mask1_5336_3812)">
<g id="Group_3">
<path id="Vector_20" d="M16.2587 29.5888C16.172 28.0497 14.9798 26.5757 13.3107 26.6407C11.6416 26.7058 10.276 27.9414 10.3627 29.5888C10.5361 32.5585 10.2109 34.6395 9.12709 37.4791C9.07882 37.6343 9.0209 37.7864 8.95368 37.9343L8.84529 38.1945C8.69355 38.4546 8.58517 38.7364 8.43343 39.0182C8.10828 39.6468 7.73978 40.2538 7.3496 40.8607C6.95941 41.4676 6.95941 41.446 6.76432 41.7278L6.65594 41.8578L6.37414 42.2263C5.91893 42.7683 5.42036 43.2885 4.9218 43.7871C4.0197 44.6877 2.99865 45.4608 1.88705 46.0848C1.27738 46.4584 0.64782 46.7985 0.00117493 47.1036L-0.519068 47.3421L-1.55955 47.7106C-4.35585 48.6643 -6.43682 48.9245 -9.49325 48.6427C-11.0323 48.4909 -12.5063 50.095 -12.4413 51.5907C-12.3763 53.0864 -11.1407 54.387 -9.49325 54.5387C-6.10682 54.8169 -2.69992 54.3733 0.502398 53.2374C3.70472 52.1014 6.62957 50.299 9.08374 47.949C11.5138 45.5729 13.4104 42.7068 14.6475 39.5412C15.8846 36.3756 16.4338 32.983 16.2587 29.5888Z" fill="#A82C41"/>
<path id="Vector_21" d="M4.20534 28.8303C2.40635 28.8324 0.616873 28.5695 -1.10547 28.05L-1.04044 27.8332C1.33225 28.5346 3.82062 28.7579 6.28027 28.4899C8.73992 28.222 11.1219 27.4683 13.2879 26.2725L13.3963 26.4676C10.5845 28.0266 7.42042 28.84 4.20534 28.8303Z" fill="white"/>
<path id="Vector_22" d="M5.31096 33.0571C2.91729 33.0624 0.533581 32.749 -1.77734 32.125L-1.71231 31.9083C3.1163 33.2063 8.20952 33.1463 13.0062 31.7349L13.0712 31.9516C10.5508 32.6899 7.93731 33.0622 5.31096 33.0571Z" fill="white"/>
<path id="Vector_23" d="M6.22156 38.2815C3.9535 38.281 1.69743 37.9525 -0.476562 37.306L-0.411532 37.0893C4.47856 38.5387 9.70859 38.3484 14.4804 36.5474L14.5671 36.7641C11.8981 37.7637 9.07165 38.2776 6.22156 38.2815Z" fill="white"/>
<path id="Vector_24" d="M6.04905 44.2639C3.64489 44.2683 1.25675 43.8727 -1.01758 43.0934L-0.952548 42.8766C4.01666 44.5613 9.42643 44.3997 14.2862 42.4214L14.3729 42.6165C11.7351 43.7125 8.9055 44.2725 6.04905 44.2639Z" fill="white"/>
</g>
</g>
</g>
<path id="Vector_25" d="M2.10483 61.9306H2.08316C1.98923 61.9251 1.90098 61.8838 1.83649 61.8153C1.772 61.7468 1.73617 61.6562 1.73633 61.5621L2.01813 52.7614C2.04023 52.682 2.08832 52.6123 2.1547 52.5634C2.22107 52.5146 2.30191 52.4894 2.38429 52.4919C2.46667 52.4944 2.54583 52.5244 2.60913 52.5772C2.67242 52.63 2.7162 52.7024 2.73346 52.783L2.47334 61.5838C2.4678 61.6777 2.42655 61.766 2.35803 61.8305C2.28951 61.895 2.19893 61.9308 2.10483 61.9306Z" fill="#FBA81A"/>
<path id="Vector_26" d="M5.24741 64.5099C5.15137 64.5047 5.06063 64.4642 4.99262 64.3962C4.9246 64.3282 4.88411 64.2375 4.87891 64.1414L5.00897 52.7611C5.0145 52.6672 5.05576 52.5789 5.12427 52.5145C5.19279 52.45 5.28338 52.4141 5.37747 52.4143C5.42669 52.4111 5.47602 52.4185 5.52218 52.4359C5.56833 52.4532 5.61024 52.4803 5.64512 52.5152C5.67999 52.55 5.70703 52.5919 5.72442 52.6381C5.74181 52.6843 5.74916 52.7336 5.74598 52.7828L5.61592 64.1414C5.61071 64.2375 5.57022 64.3282 5.50221 64.3962C5.43419 64.4642 5.34346 64.5047 5.24741 64.5099Z" fill="#FBA81A"/>
<path id="Vector_27" d="M8.10676 62.9059C8.01267 62.906 7.92208 62.8702 7.85356 62.8057C7.78504 62.7412 7.74379 62.653 7.73825 62.5591L7.52148 52.9996C7.52132 52.9055 7.55716 52.8149 7.62164 52.7464C7.68613 52.6779 7.77439 52.6366 7.86831 52.6311C7.91753 52.6279 7.96686 52.6353 8.01302 52.6527C8.05917 52.67 8.10108 52.6971 8.13596 52.732C8.17084 52.7668 8.19787 52.8087 8.21526 52.8549C8.23266 52.901 8.24 52.9504 8.23682 52.9996L8.47526 62.5374C8.47543 62.6315 8.43959 62.7221 8.3751 62.7906C8.31062 62.8591 8.22236 62.9003 8.12843 62.9059H8.10676Z" fill="#FBA81A"/>
</g>
</svg>
