<?xml version="1.0" encoding="UTF-8"?><svg id="Layer_1" xmlns="http://www.w3.org/2000/svg" viewBox="0 0 512 512"><path d="M130.13,507.48c-45.9-9.57-40.15-47.61-42.12-83.85-2.61-48.01-4.53-96.03-6.86-144.09l-4.94-101.42c-10.49,1.26-22.76-1.04-24.43-13.31-1.8-13.24-1.22-45.84-.12-59.74,1.26-16.02,16.75-36.72,33.86-36.72h91.67v-22.06c0-20.1,24.6-39.21,43.59-40.71,18.73-1.48,49.88-1.33,68.71,0,19.5,1.37,44.57,19.99,44.57,40.72v22.06h91.67c17.11,0,32.6,20.71,33.86,36.72,1.09,13.91,1.68,46.5-.12,59.74-1.67,12.28-13.94,14.58-24.43,13.31l-4.94,101.42c-2.86,58.81-2.93,120.1-7.76,178.48-2,24.13-15.14,46.34-41.22,49.46h-250.99ZM302.69,68.34v-19.11c0-3.89-7.4-11.49-11.71-11.82-21.29,1.21-48.4-3.16-69.09-.35-5.07.69-13.32,7-13.32,12.17v19.11h94.12ZM428.18,146.76v-41.66c0-2.24-5.61-6.32-8.29-5.44H91.35c-2.67-.89-8.29,3.19-8.29,5.44v41.66h345.12ZM403.67,178.13H107.58l12.76,279.84c.93,10.41,5.11,17.2,16.12,18.19l243.25-.96c8.02-2.56,10.4-9.44,11.2-17.23l12.76-279.84Z"/><path d="M173.99,209.73c9.98-1.62,18.32,4.81,18.92,14.92l-.04,205.89c-2.73,19.28-29.65,19.05-31.42-.94l.04-205.89c.5-6.6,6-12.92,12.49-13.97Z"/><path d="M252.43,209.73c9.98-1.62,18.32,4.81,18.92,14.92l-.04,205.89c-2.73,19.28-29.65,19.05-31.42-.94l.04-205.89c.5-6.6,6-12.92,12.49-13.97Z"/><path d="M330.86,209.73c9.98-1.62,18.32,4.81,18.92,14.92l-.04,205.89c-2.73,19.28-29.65,19.05-31.42-.94l.04-205.89c.5-6.6,6-12.92,12.49-13.97Z"/></svg>