<?xml version="1.0" encoding="UTF-8"?><svg id="Layer_1" xmlns="http://www.w3.org/2000/svg" viewBox="0 0 512 512"><defs><style>.cls-1{fill:#fff;}</style></defs><path class="cls-1" d="M180.71,266.36c-9.13,0-17.59-.19-26.02.14-2.01.08-4.12,1.68-5.89,2.98-19.03,14-38.09,27.96-56.94,42.2-7.34,5.54-14.83,7.27-23.17,2.99-8.29-4.26-11.63-11.29-11.39-20.47.23-9.12-.06-18.25.12-27.38.05-2.76-.96-3.93-3.42-4.97-27.88-11.82-42.66-33.14-43.4-63.21-.75-30.46-.2-60.95-.15-91.43.02-9.13,5.04-14.25,13.28-13.88,7.44.33,11.85,5.38,11.87,13.84.04,23.14-.07,46.29.06,69.43.06,10.24-.66,20.7,1.12,30.68,3.13,17.44,14.41,28.39,31.56,32.91,12.06,3.18,14.2,5.69,14.2,18.29,0,9.24,0,18.49,0,28.82,9.5-7.02,18.21-13.44,26.91-19.88,9.82-7.27,19.71-14.45,29.4-21.89,4.09-3.14,8.41-4.48,13.55-4.47,37,.11,74.01.07,111.01.06,26.14-.01,44.23-18.07,44.25-44.23.04-38.95.03-77.9,0-116.85-.02-26.54-17.96-44.39-44.56-44.4-60.97-.01-121.93.06-182.9-.06-12.53-.02-23.26,3.83-32.31,12.55-5.85,5.63-13.05,6.16-17.97,1.66-5.05-4.62-5.74-12.77-.6-18.56,3.6-4.06,8.06-7.66,12.76-10.39,12.17-7.07,25.36-10.54,39.62-10.49,60.64.17,121.28.01,181.92.1,31.22.05,57.12,18.45,65.78,47.23,2.22,7.36,3.16,15.36,3.23,23.08.33,36.34.15,72.69.15,109.03,0,1.93,0,3.85,0,6.46,2.3,0,4.19,0,6.08,0,31.95,0,63.9-.03,95.85,0,33.27.04,60.41,22,67.04,54.46,1.03,5.06,1.36,10.35,1.38,15.54.11,38.3.17,76.6.03,114.9-.11,31.76-14.54,54.27-43.93,66.99-1.39.6-2.78,2.99-2.83,4.58-.27,9.12-.32,18.25-.08,27.37.24,9.17-2.98,16.27-11.36,20.45-8.31,4.14-15.88,2.68-23.24-2.88-19.1-14.45-38.35-28.7-57.69-42.83-2.16-1.58-5.28-2.58-7.96-2.59-35.7-.17-71.4-.07-107.1-.13-33.35-.06-60.63-22.47-66.98-55.14-.96-4.92-1.2-10.04-1.22-15.07-.1-36.34-.05-72.69-.05-109.03,0-1.93,0-3.87,0-6.5ZM206.05,266.29c-.08,1.69-.17,2.65-.17,3.61,0,38.3,0,76.6.02,114.91,0,2.11.11,4.25.47,6.32,3.71,21.36,20.5,35.69,42.42,35.77,37.33.14,74.66.11,112-.04,5.52-.02,10.04,1.52,14.41,4.82,16.89,12.78,33.95,25.34,50.95,37.97,1.36,1.01,2.82,1.9,4.32,2.92.27-.74.46-1.03.46-1.32.03-9.45.04-18.91.05-28.36.01-10.85,2.63-14.16,13.13-16.61,20.26-4.73,33.69-21.1,33.75-41.73.12-40.26.15-80.52,0-120.77-.09-24.05-18.48-42.25-42.62-42.33-34.07-.12-68.14,0-102.21-.1-3.04,0-4.53.83-5.76,3.72-8.64,20.13-23.63,33.27-44.8,38.84-6.22,1.64-12.86,2.19-19.32,2.29-18.88.29-37.76.1-57.1.1Z"/><path class="cls-1" d="M193.68,161.03c15.5,10.4,32.6,19.75,50.69,27.27,4.67,1.94,8.91,4.33,10.21,9.65,1.16,4.77.1,9.11-3.66,12.46-4.05,3.61-8.84,4.45-13.63,2.08-15.17-7.47-30.33-14.98-45.26-22.91-6.87-3.65-13.21-8.31-19.39-12.25-12.87,7.5-25.32,15.21-38.2,22.13-8.86,4.76-18.23,8.62-27.52,12.55-7.64,3.23-14.73.43-17.47-6.39-2.76-6.87.61-13.03,8.19-16.78,16.46-8.15,32.73-16.67,49.05-25.08,1.43-.73,2.7-1.77,3.32-2.19-1.53-4.34-3.7-8.2-4.01-12.21-.2-2.64,1.75-5.94,3.67-8.14,5.12-5.87,9.25-5.11,22.72,3.62,5.18-5.47,10.47-11.05,15.76-16.64-.19-.42-.37-.84-.56-1.26-1.7,0-3.4,0-5.1,0-25.26,0-50.52-.02-75.78.02-4.75,0-9.18-.65-12.06-4.96-2.85-4.28-3.11-8.9-.9-13.48,2.11-4.36,5.83-6.43,10.66-6.44,15.97-.03,31.94-.03,47.91-.04,1.95,0,3.89,0,6.7,0,0-4.98,0-9.78,0-14.59,0-3.58-.06-7.17.02-10.75.17-7.89,5.34-13.48,12.45-13.54,7.06-.06,12.43,5.46,12.65,13.37.19,7,.04,14.01.06,21.02,0,1.28.14,2.56.25,4.49,1.88,0,3.62,0,5.35,0,16.13,0,32.27-.09,48.4.05,9.64.09,15.36,8.98,11.53,17.71-1.84,4.19-5.05,6.82-9.78,6.95-6.02.17-12.06.01-18.08.28-1.55.07-3.63.75-4.49,1.89-7.91,10.47-15.61,21.1-23.7,32.12Z"/><path class="cls-1" d="M409.83,380.84c-.1,6.46-4.04,11.23-9.59,12.71-6.02,1.62-11.26-.41-14.03-5.92-4.23-8.43-8.29-16.95-12.17-25.54-1.32-2.92-2.94-4-6.24-3.96-17.43.19-34.86.17-52.28.01-3.1-.03-4.63,1.07-5.87,3.79-3.7,8.14-7.61,16.19-11.53,24.22-3.76,7.7-10.17,10.18-17.17,6.78-6.93-3.36-8.99-10.01-5.31-17.72,17.99-37.72,36.04-75.41,54.04-113.12,2.44-5.11,6.06-8.42,12-8.43,6.13-.01,9.88,3.34,12.41,8.63,17.98,37.73,36.01,75.42,53.97,113.16.96,2.01,1.41,4.27,1.77,5.39ZM360.16,332.86c-6.15-12.85-11.92-24.89-18.18-37.96-6.34,13.25-12.16,25.4-18.18,37.96h36.35Z"/></svg>