<svg xmlns="http://www.w3.org/2000/svg" width="13.279" height="13.856" viewBox="0 0 13.279 13.856">
  <path id="file-invoice-dollar_2_" data-name="file-invoice-dollar (2)" d="M9.66,13.279a.577.577,0,0,1-.577.577h-5.2A2.89,2.89,0,0,1,1,10.969V2.887A2.89,2.89,0,0,1,3.887,0H6.493A4.017,4.017,0,0,1,9.351,1.184L11.363,3.2a4.063,4.063,0,0,1,.432.51.577.577,0,1,1-.939.671,2.874,2.874,0,0,0-.308-.364L8.535,2a2.893,2.893,0,0,0-.607-.465V4.041a.578.578,0,0,0,.577.577h1.732a.577.577,0,1,1,0,1.155H8.505A1.734,1.734,0,0,1,6.773,4.041V1.168c-.092-.009-.186-.013-.28-.013H3.887A1.734,1.734,0,0,0,2.155,2.887v8.083A1.734,1.734,0,0,0,3.887,12.7h5.2A.577.577,0,0,1,9.66,13.279Zm3.282-3.887L11.186,9.1a.444.444,0,0,1-.372-.439.578.578,0,0,1,.577-.577H12.7a.581.581,0,0,1,.5.289.577.577,0,1,0,1-.578,1.737,1.737,0,0,0-1.5-.866h-.155V6.35a.577.577,0,1,0-1.155,0v.577A1.734,1.734,0,0,0,9.659,8.659,1.6,1.6,0,0,0,11,10.237l1.756.293a.444.444,0,0,1,.372.439.578.578,0,0,1-.577.577H11.237a.581.581,0,0,1-.5-.289.577.577,0,1,0-1,.578,1.737,1.737,0,0,0,1.5.865h.155v.577a.577.577,0,0,0,1.155,0V12.7a1.734,1.734,0,0,0,1.732-1.732,1.6,1.6,0,0,0-1.337-1.578ZM4.753,8.66H7.928a.577.577,0,0,0,0-1.155H4.753A1.445,1.445,0,0,0,3.309,8.949V10.1a1.445,1.445,0,0,0,1.443,1.443H7.928a.577.577,0,0,0,0-1.155H4.753a.289.289,0,0,1-.289-.289V8.949a.289.289,0,0,1,.289-.289ZM3.887,6.351H5.041a.577.577,0,0,0,0-1.155H3.887a.577.577,0,0,0,0,1.155Zm0-2.309H5.041a.577.577,0,1,0,0-1.155H3.887a.577.577,0,0,0,0,1.155Z" transform="translate(-1)" fill="#fff"/>
</svg>
