<svg width="48" height="48" viewBox="0 0 48 48" fill="none" xmlns="http://www.w3.org/2000/svg">
<mask id="path-1-inside-1_3017_2229" fill="white">
<path d="M33.6921 23.1601C34.0015 22.1506 34.2101 21.1129 34.3147 20.0623C34.3193 20.0464 34.3227 20.0302 34.3248 20.0139C34.3248 20.0096 34.3221 20.0057 34.3221 20.0011C34.5207 17.9114 34.307 15.8031 33.6933 13.7958C33.6899 13.7827 33.6858 13.7697 33.6809 13.7571C32.5523 10.1146 30.155 6.99749 26.9242 4.97172C23.6934 2.94595 19.8434 2.1458 16.073 2.71652C12.3026 3.28725 8.86182 5.19102 6.37533 8.08221C3.88885 10.9734 2.52148 14.6603 2.52148 18.4737C2.52148 22.287 3.88885 25.974 6.37533 28.8652C8.86182 31.7564 12.3026 33.6601 16.073 34.2309C19.8434 34.8016 23.6934 34.0014 26.9242 31.9757C30.155 29.9499 32.5523 26.8328 33.6809 23.1903C33.6852 23.1804 33.6889 23.1704 33.6921 23.1601ZM11.0235 22.6451C10.4725 22.6504 9.92597 22.5465 9.4154 22.3393C8.90484 22.1321 8.44039 21.8258 8.0489 21.4381C7.65742 21.0503 7.34665 20.5889 7.13457 20.0803C6.92248 19.5718 6.81329 19.0262 6.81329 18.4752C6.81329 17.9242 6.92248 17.3787 7.13457 16.8702C7.34665 16.3616 7.65742 15.9001 8.0489 15.5124C8.44039 15.1247 8.90484 14.8184 9.4154 14.6112C9.92597 14.404 10.4725 14.3001 11.0235 14.3054H16.3033V22.6451H11.0235ZM17.0778 14.3054H33.0365C33.5276 16.0335 33.7094 17.8349 33.5736 19.6263H20.9632C20.8605 19.6263 20.762 19.6671 20.6894 19.7397C20.6168 19.8123 20.576 19.9108 20.576 20.0135C20.576 20.1162 20.6168 20.2147 20.6894 20.2873C20.762 20.3599 20.8605 20.4007 20.9632 20.4007H33.4962C33.4003 21.1598 33.2471 21.9106 33.0381 22.6466H17.0778V14.3054ZM29.1906 29.1865C26.865 31.5145 23.8449 33.0223 20.5866 33.482C17.3283 33.9418 14.0089 33.3285 11.13 31.7349C8.25105 30.1413 5.96903 27.6539 4.62877 24.6487C3.2885 21.6434 2.96282 18.2836 3.70093 15.0769C4.43903 11.8702 6.20082 8.99083 8.72008 6.87395C11.2393 4.75707 14.3792 3.51768 17.6651 3.34308C20.951 3.16847 24.2045 4.06813 26.9339 5.90611C29.6633 7.74409 31.7203 10.4205 32.7941 13.5309H11.0235C10.3705 13.5252 9.72288 13.6488 9.11794 13.8947C8.513 14.1406 7.96275 14.5038 7.49897 14.9635C7.03519 15.4232 6.66706 15.9702 6.41584 16.573C6.16461 17.1757 6.03526 17.8222 6.03526 18.4752C6.03526 19.1282 6.16461 19.7748 6.41584 20.3775C6.66706 20.9802 7.03519 21.5273 7.49897 21.9869C7.96275 22.4466 8.513 22.8099 9.11794 23.0558C9.72288 23.3017 10.3705 23.4253 11.0235 23.4195H32.7953C32.0496 25.5916 30.8169 27.5643 29.1914 29.1865H29.1906Z"/>
</mask>
<path d="M33.6921 23.1601L35.125 23.6036L35.1262 23.5997L33.6921 23.1601ZM34.3147 20.0623L32.8737 19.646L32.8357 19.7775L32.8221 19.9136L34.3147 20.0623ZM34.3248 20.0139L35.8124 20.2067L35.8248 20.1107V20.0139H34.3248ZM34.3221 20.0011L32.8288 19.8592L32.8221 19.93V20.0011H34.3221ZM33.6933 13.7958L32.239 14.1635L32.248 14.1992L32.2588 14.2344L33.6933 13.7958ZM33.6809 13.7571L32.2481 14.201L32.2639 14.2521L32.2833 14.3019L33.6809 13.7571ZM2.52148 18.4737H4.02148H2.52148ZM33.6809 23.1903L32.3062 22.59L32.2728 22.6665L32.2481 22.7464L33.6809 23.1903ZM11.0235 22.6451V21.1451H11.0163L11.009 21.1451L11.0235 22.6451ZM6.81329 18.4752H5.31329H6.81329ZM11.0235 14.3054L11.009 15.8053L11.0163 15.8054H11.0235V14.3054ZM16.3033 14.3054H17.8033V12.8054H16.3033V14.3054ZM16.3033 22.6451V24.1451H17.8033V22.6451H16.3033ZM17.0778 14.3054V12.8054H15.5778V14.3054H17.0778ZM33.0365 14.3054L34.4794 13.8954L34.1696 12.8054H33.0365V14.3054ZM33.5736 19.6263V21.1263H34.9642L35.0693 19.7397L33.5736 19.6263ZM33.4962 20.4007L34.9843 20.5887L35.1976 18.9007H33.4962V20.4007ZM33.0381 22.6466V24.1466H34.1713L34.481 23.0565L33.0381 22.6466ZM17.0778 22.6466H15.5778V24.1466H17.0778V22.6466ZM29.1906 29.1865V27.6865H28.5688L28.1294 28.1264L29.1906 29.1865ZM32.7941 13.5309V15.0309H34.8988L34.212 13.0415L32.7941 13.5309ZM11.0235 13.5309L11.0102 15.0309H11.0235V13.5309ZM11.0235 23.4195V21.9195L11.0102 21.9196L11.0235 23.4195ZM32.7953 23.4195L34.214 23.9066L34.8961 21.9195H32.7953V23.4195ZM29.1914 29.1865V30.6865H29.8118L30.251 30.2482L29.1914 29.1865ZM35.1262 23.5997C35.4647 22.4954 35.6929 21.3603 35.8074 20.2109L32.8221 19.9136C32.7273 20.8656 32.5384 21.8058 32.258 22.7204L35.1262 23.5997ZM35.7558 20.4786C35.7815 20.3896 35.8004 20.2987 35.8124 20.2067L32.8373 19.821C32.8449 19.7618 32.8571 19.7033 32.8737 19.646L35.7558 20.4786ZM35.8248 20.0139C35.8248 19.9337 35.8184 19.8623 35.8099 19.8018C35.8013 19.7418 35.7905 19.6913 35.7811 19.6531C35.7764 19.6339 35.7719 19.6171 35.768 19.6031C35.764 19.5892 35.7605 19.5775 35.7578 19.5686C35.7551 19.5598 35.7529 19.5528 35.7516 19.5489C35.7509 19.5469 35.7504 19.5453 35.7501 19.5444C35.75 19.544 35.7496 19.5427 35.7498 19.5435C35.7499 19.5436 35.7511 19.5474 35.7526 19.5521C35.7542 19.5572 35.7567 19.565 35.7596 19.5747C35.7653 19.5937 35.774 19.6241 35.7829 19.662C35.8008 19.7383 35.8221 19.8559 35.8221 20.0011H32.8221C32.8221 20.1486 32.8437 20.2685 32.8621 20.3469C32.8713 20.3859 32.8803 20.4173 32.8863 20.4374C32.8894 20.4476 32.892 20.456 32.8938 20.4616C32.8955 20.4669 32.8969 20.4711 32.8971 20.4718C32.8974 20.4728 32.8971 20.4718 32.897 20.4716C32.8968 20.471 32.8964 20.4697 32.8958 20.4679C32.8947 20.4645 32.8927 20.458 32.8901 20.4498C32.8876 20.4414 32.8842 20.4302 32.8804 20.4168C32.8766 20.4034 32.8722 20.387 32.8676 20.3683C32.8585 20.3313 32.8479 20.2818 32.8395 20.2228C32.8311 20.1634 32.8248 20.093 32.8248 20.0139H35.8248ZM35.8154 20.143C36.0325 17.8579 35.7989 15.5523 35.1277 13.3572L32.2588 14.2344C32.8152 16.054 33.0088 17.965 32.8288 19.8592L35.8154 20.143ZM35.1475 13.4281C35.1289 13.3547 35.1058 13.2826 35.0784 13.2123L32.2833 14.3019C32.2657 14.2569 32.2509 14.2107 32.239 14.1635L35.1475 13.4281ZM35.1137 13.3131C33.8788 9.32779 31.2559 5.91732 27.7211 3.70088L26.1274 6.24256C29.054 8.07766 31.2257 10.9014 32.2481 14.201L35.1137 13.3131ZM27.7211 3.70088C24.1862 1.48444 19.9738 0.608974 15.8485 1.23342L16.2975 4.19963C19.713 3.68262 23.2007 4.40746 26.1274 6.24256L27.7211 3.70088ZM15.8485 1.23342C11.7232 1.85786 7.95859 3.94082 5.23807 7.10414L7.5126 9.06028C9.76505 6.44122 12.882 4.71664 16.2975 4.19963L15.8485 1.23342ZM5.23807 7.10414C2.51755 10.2675 1.02148 14.3014 1.02148 18.4737H4.02148C4.02148 15.0193 5.26015 11.6793 7.5126 9.06028L5.23807 7.10414ZM1.02148 18.4737C1.02148 22.646 2.51755 26.6799 5.23807 29.8432L7.5126 27.8871C5.26015 25.268 4.02148 21.9281 4.02148 18.4737H1.02148ZM5.23807 29.8432C7.95859 33.0066 11.7232 35.0895 15.8485 35.714L16.2975 32.7477C12.882 32.2307 9.76505 30.5062 7.5126 27.8871L5.23807 29.8432ZM15.8485 35.714C19.9738 36.3384 24.1862 35.4629 27.7211 33.2465L26.1274 30.7048C23.2007 32.5399 19.713 33.2648 16.2975 32.7477L15.8485 35.714ZM27.7211 33.2465C31.2559 31.0301 33.8788 27.6196 35.1137 23.6342L32.2481 22.7464C31.2257 26.046 29.054 28.8697 26.1274 30.7048L27.7211 33.2465ZM35.0555 23.7906C35.0821 23.7296 35.1053 23.6672 35.125 23.6036L32.2591 22.7166C32.2725 22.6735 32.2882 22.6313 32.3062 22.59L35.0555 23.7906ZM11.009 21.1451C10.6563 21.1485 10.3063 21.082 9.9794 20.9493L8.85141 23.7292C9.54563 24.0109 10.2888 24.1522 11.038 24.145L11.009 21.1451ZM9.9794 20.9493C9.65249 20.8167 9.35511 20.6206 9.10444 20.3723L6.99337 22.5038C7.52567 23.031 8.15719 23.4475 8.85141 23.7292L9.9794 20.9493ZM9.10444 20.3723C8.85377 20.124 8.65479 19.8286 8.519 19.503L5.75013 20.6577C6.03851 21.3492 6.46106 21.9766 6.99337 22.5038L9.10444 20.3723ZM8.519 19.503C8.3832 19.1773 8.31329 18.828 8.31329 18.4752H5.31329C5.31329 19.2244 5.46176 19.9662 5.75013 20.6577L8.519 19.503ZM8.31329 18.4752C8.31329 18.1224 8.3832 17.7731 8.519 17.4475L5.75013 16.2928C5.46176 16.9843 5.31329 17.726 5.31329 18.4752H8.31329ZM8.519 17.4475C8.65479 17.1219 8.85377 16.8264 9.10444 16.5782L6.99337 14.4466C6.46106 14.9738 6.03851 15.6013 5.75013 16.2928L8.519 17.4475ZM9.10444 16.5782C9.3551 16.3299 9.65249 16.1338 9.9794 16.0011L8.85141 13.2213C8.15719 13.503 7.52567 13.9194 6.99337 14.4466L9.10444 16.5782ZM9.9794 16.0011C10.3063 15.8685 10.6563 15.8019 11.009 15.8053L11.038 12.8055C10.2888 12.7982 9.54563 12.9396 8.85141 13.2213L9.9794 16.0011ZM11.0235 15.8054H16.3033V12.8054H11.0235V15.8054ZM14.8033 14.3054V22.6451H17.8033V14.3054H14.8033ZM16.3033 21.1451H11.0235V24.1451H16.3033V21.1451ZM17.0778 15.8054H33.0365V12.8054H17.0778V15.8054ZM31.5936 14.7154C32.0364 16.2736 32.2004 17.8977 32.0779 19.5128L35.0693 19.7397C35.2185 17.772 35.0188 15.7935 34.4794 13.8954L31.5936 14.7154ZM33.5736 18.1263H20.9632V21.1263H33.5736V18.1263ZM20.9632 18.1263C20.4627 18.1263 19.9827 18.3251 19.6287 18.679L21.7501 20.8003C21.5414 21.009 21.2583 21.1263 20.9632 21.1263V18.1263ZM19.6287 18.679C19.2748 19.0329 19.076 19.513 19.076 20.0135H22.076C22.076 20.3086 21.9587 20.5917 21.7501 20.8003L19.6287 18.679ZM19.076 20.0135C19.076 20.514 19.2748 20.994 19.6287 21.348L21.7501 19.2266C21.9587 19.4353 22.076 19.7184 22.076 20.0135H19.076ZM19.6287 21.348C19.9827 21.7019 20.4627 21.9007 20.9632 21.9007V18.9007C21.2583 18.9007 21.5414 19.018 21.7501 19.2266L19.6287 21.348ZM20.9632 21.9007H33.4962V18.9007H20.9632V21.9007ZM32.008 20.2127C31.9216 20.8968 31.7836 21.5735 31.5951 22.2368L34.481 23.0565C34.7107 22.2477 34.879 21.4228 34.9843 20.5887L32.008 20.2127ZM33.0381 21.1466H17.0778V24.1466H33.0381V21.1466ZM18.5778 22.6466V14.3054H15.5778V22.6466H18.5778ZM28.1294 28.1264C26.034 30.2239 23.3128 31.5825 20.377 31.9967L20.7962 34.9673C24.377 34.462 27.696 32.805 30.2518 30.2466L28.1294 28.1264ZM20.377 31.9967C17.4412 32.411 14.4504 31.8584 11.8564 30.4225L10.4035 33.0473C13.5674 34.7986 17.2154 35.4726 20.7962 34.9673L20.377 31.9967ZM11.8564 30.4225C9.26245 28.9867 7.20631 26.7455 5.99871 24.0377L3.25883 25.2596C4.73176 28.5624 7.23964 31.2959 10.4035 33.0473L11.8564 30.4225ZM5.99871 24.0377C4.7911 21.3299 4.49765 18.3027 5.1627 15.4134L2.23915 14.7404C1.42798 18.2645 1.7859 21.9569 3.25883 25.2596L5.99871 24.0377ZM5.1627 15.4134C5.82775 12.524 7.41516 9.9297 9.68506 8.02235L7.7551 5.72555C4.98649 8.05196 3.05032 11.2163 2.23915 14.7404L5.1627 15.4134ZM9.68506 8.02235C11.955 6.115 14.784 4.99829 17.7447 4.84096L17.5855 1.84519C13.9743 2.03708 10.5237 3.39914 7.7551 5.72555L9.68506 8.02235ZM17.7447 4.84096C20.7054 4.68364 23.6368 5.49425 26.0961 7.1503L27.7717 4.66191C24.7722 2.64201 21.1967 1.6533 17.5855 1.84519L17.7447 4.84096ZM26.0961 7.1503C28.5553 8.80636 30.4087 11.2179 31.3762 14.0204L34.212 13.0415C33.0319 9.62315 30.7713 6.68182 27.7717 4.66191L26.0961 7.1503ZM32.7941 12.0309H11.0235V15.0309H32.7941V12.0309ZM11.0368 12.031C10.1857 12.0235 9.34158 12.1846 8.55312 12.5051L9.68275 15.2843C10.1042 15.113 10.5553 15.0269 11.0102 15.0309L11.0368 12.031ZM8.55312 12.5051C7.76466 12.8255 7.04749 13.299 6.44302 13.8982L8.55493 16.0289C8.87801 15.7086 9.26133 15.4556 9.68275 15.2843L8.55312 12.5051ZM6.44302 13.8982C5.83854 14.4973 5.35873 15.2103 5.03129 15.9959L7.80038 17.1501C7.97539 16.7302 8.23185 16.3491 8.55493 16.0289L6.44302 13.8982ZM5.03129 15.9959C4.70385 16.7815 4.53526 17.6241 4.53526 18.4752H7.53526C7.53526 18.0203 7.62537 17.5699 7.80038 17.1501L5.03129 15.9959ZM4.53526 18.4752C4.53526 19.3263 4.70385 20.169 5.03129 20.9546L7.80038 19.8004C7.62537 19.3805 7.53526 18.9301 7.53526 18.4752H4.53526ZM5.03129 20.9546C5.35873 21.7402 5.83854 22.4531 6.44302 23.0523L8.55493 20.9216C8.23185 20.6014 7.97539 20.2203 7.80038 19.8004L5.03129 20.9546ZM6.44302 23.0523C7.04749 23.6514 7.76466 24.1249 8.55312 24.4454L9.68275 21.6662C9.26133 21.4949 8.87801 21.2418 8.55493 20.9216L6.44302 23.0523ZM8.55312 24.4454C9.34158 24.7659 10.1857 24.927 11.0368 24.9195L11.0102 21.9196C10.5553 21.9236 10.1042 21.8375 9.68275 21.6662L8.55312 24.4454ZM11.0235 24.9195H32.7953V21.9195H11.0235V24.9195ZM31.3765 22.9325C30.7052 24.8881 29.5953 26.6642 28.1318 28.1248L30.251 30.2482C32.0384 28.4643 33.3941 26.2951 34.214 23.9066L31.3765 22.9325ZM29.1914 27.6865H29.1906V30.6865H29.1914V27.6865Z" fill="url(#paint0_linear_3017_2229)" mask="url(#path-1-inside-1_3017_2229)"/>
<path d="M14.1275 20.7784L14.1275 20.7783L14.1275 20.7784ZM14.1275 20.7784L14.1284 20.7806L14.1275 20.7784Z" stroke="url(#paint1_linear_3017_2229)" stroke-width="1.5"/>
<mask id="path-4-inside-2_3017_2229" fill="white">
<path d="M20.9644 17.3273H30.8049C30.9076 17.3273 31.0061 17.2865 31.0788 17.2139C31.1514 17.1413 31.1922 17.0428 31.1922 16.9401C31.1922 16.8374 31.1514 16.7389 31.0788 16.6663C31.0061 16.5937 30.9076 16.5529 30.8049 16.5529H20.9644C20.8617 16.5529 20.7632 16.5937 20.6906 16.6663C20.6179 16.7389 20.5771 16.8374 20.5771 16.9401C20.5771 17.0428 20.6179 17.1413 20.6906 17.2139C20.7632 17.2865 20.8617 17.3273 20.9644 17.3273Z"/>
</mask>
<path d="M20.9644 18.8273H30.8049V15.8273H20.9644V18.8273ZM30.8049 18.8273C31.3055 18.8273 31.7855 18.6285 32.1394 18.2746L30.0181 16.1532C30.2268 15.9446 30.5098 15.8273 30.8049 15.8273V18.8273ZM32.1394 18.2746C32.4933 17.9206 32.6922 17.4406 32.6922 16.9401H29.6922C29.6922 16.6449 29.8094 16.3619 30.0181 16.1532L32.1394 18.2746ZM32.6922 16.9401C32.6922 16.4395 32.4933 15.9595 32.1394 15.6056L30.0181 17.7269C29.8094 17.5183 29.6922 17.2352 29.6922 16.9401H32.6922ZM32.1394 15.6056C31.7855 15.2517 31.3055 15.0529 30.8049 15.0529V18.0529C30.5098 18.0529 30.2268 17.9356 30.0181 17.7269L32.1394 15.6056ZM30.8049 15.0529H20.9644V18.0529H30.8049V15.0529ZM20.9644 15.0529C20.4639 15.0529 19.9838 15.2517 19.6299 15.6056L21.7512 17.7269C21.5425 17.9356 21.2595 18.0529 20.9644 18.0529V15.0529ZM19.6299 15.6056C19.276 15.9595 19.0771 16.4396 19.0771 16.9401H22.0771C22.0771 17.2352 21.9599 17.5182 21.7512 17.7269L19.6299 15.6056ZM19.0771 16.9401C19.0771 17.4406 19.276 17.9206 19.6299 18.2746L21.7512 16.1532C21.9599 16.3619 22.0771 16.645 22.0771 16.9401H19.0771ZM19.6299 18.2746C19.9838 18.6285 20.4639 18.8273 20.9644 18.8273V15.8273C21.2595 15.8273 21.5425 15.9445 21.7512 16.1532L19.6299 18.2746Z" fill="url(#paint2_linear_3017_2229)" mask="url(#path-4-inside-2_3017_2229)"/>
<mask id="path-6-inside-3_3017_2229" fill="white">
<path d="M46.5728 42.1008L39.2968 34.8248L38.7779 34.3044C38.4853 34.0101 38.1373 33.7768 37.7539 33.618C37.3705 33.4592 36.9594 33.3781 36.5444 33.3793C36.3548 33.3798 36.1656 33.3973 35.979 33.4316L34.5316 31.9872L35.452 31.0668C35.6751 30.8433 35.8004 30.5404 35.8004 30.2246C35.8004 29.9088 35.6751 29.6059 35.452 29.3823L34.2207 28.1541C35.1264 26.6807 35.8194 25.0867 36.2791 23.4195H40.3593C41.3374 23.4206 42.2938 23.1314 43.1074 22.5886C43.921 22.0457 44.5551 21.2736 44.9296 20.3701C45.304 19.4665 45.4019 18.4722 45.2108 17.513C45.0196 16.5537 44.5481 15.6728 43.856 14.9818C43.3986 14.5201 42.8538 14.154 42.2535 13.9049C41.6532 13.6558 41.0093 13.5286 40.3593 13.5309H36.2788C35.522 10.807 34.1503 8.29305 32.2693 6.18263C30.3882 4.07222 28.048 2.4216 25.4287 1.35785C22.8094 0.294112 19.9809 -0.154386 17.161 0.04689C14.3411 0.248166 11.605 1.09385 9.16339 2.51883C6.72174 3.94381 4.63964 5.91008 3.07739 8.26627C1.51515 10.6225 0.514415 13.3057 0.152245 16.1095C-0.209924 18.9133 0.0761265 21.7627 0.988375 24.4386C1.90062 27.1144 3.41474 29.5452 5.41416 31.5438C8.35358 34.4822 12.1974 36.3444 16.3251 36.8299C20.4529 37.3154 24.6239 36.3958 28.1648 34.2196L29.3889 35.4471C29.4993 35.5579 29.6306 35.6458 29.7751 35.7058C29.9196 35.7658 30.0746 35.7967 30.2311 35.7967C30.3876 35.7967 30.5425 35.7658 30.687 35.7058C30.8315 35.6458 30.9628 35.5579 31.0733 35.4471L31.9937 34.5266L33.4392 35.9749C33.3473 36.4769 33.3784 36.9936 33.53 37.481C33.6815 37.9683 33.9489 38.4116 34.3093 38.773L34.8278 39.2915L42.1038 46.5678L42.6223 47.0863C43.2159 47.6724 44.0173 47.9998 44.8515 47.9972C45.6856 47.9945 46.4849 47.662 47.0748 47.0721C47.6647 46.4823 47.9973 45.6831 48 44.8489C48.0027 44.0147 47.6753 43.2133 47.0893 42.6197L46.5728 42.1008ZM35.653 39.0181L39.0246 35.6465L45.753 42.3745L42.3814 45.7465L35.653 39.0181ZM40.3609 14.3053C41.4669 14.3068 42.5271 14.7468 43.3091 15.5289C44.091 16.311 44.5309 17.3713 44.5321 18.4773C44.5303 19.583 44.09 20.6428 43.3077 21.4242C42.5254 22.2055 41.465 22.6446 40.3593 22.645H36.4778C36.6483 21.9047 36.7732 21.1547 36.8519 20.3991H40.6467C40.7494 20.3991 40.8479 20.3583 40.9205 20.2857C40.9931 20.2131 41.0339 20.1146 41.0339 20.0119C41.0339 19.9092 40.9931 19.8107 40.9205 19.7381C40.8479 19.6654 40.7494 19.6246 40.6467 19.6246H36.9126C37.0231 17.8392 36.8759 16.0472 36.4755 14.3038L40.3609 14.3053ZM5.96324 30.9948C3.06696 28.0979 1.26475 24.2863 0.863703 20.2096C0.462655 16.1329 1.48758 12.0432 3.76384 8.63744C6.0401 5.23169 9.42685 2.72057 13.347 1.53197C17.2672 0.343361 21.4782 0.55081 25.2626 2.11897C29.0469 3.68712 32.1705 6.51895 34.101 10.1319C36.0315 13.7449 36.6495 17.9155 35.8497 21.9331C35.0499 25.9507 32.8818 29.5666 29.7148 32.1648C26.5478 34.763 22.5779 36.1827 18.4815 36.182C13.7861 36.1799 9.28341 34.3148 5.96169 30.9963L5.96324 30.9948ZM30.5273 34.898C30.448 34.9738 30.3425 35.0162 30.2328 35.0162C30.1231 35.0162 30.0176 34.9738 29.9383 34.898L28.832 33.7882C30.7872 32.4646 32.4707 30.7787 33.7916 28.8216L34.9041 29.9318C34.9822 30.0099 35.026 30.1159 35.026 30.2263C35.026 30.3367 34.9822 30.4427 34.9041 30.5208L30.5273 34.898ZM32.5432 33.9776L33.2638 33.2589L33.9852 32.5375L35.1558 33.7061C34.5257 34.012 34.017 34.5212 33.7118 35.1516L32.5432 33.9776ZM34.86 34.8523C35.0813 34.6308 35.3442 34.4551 35.6335 34.3353C35.9227 34.2154 36.2328 34.1537 36.5459 34.1537C36.8591 34.1537 37.1692 34.2154 37.4584 34.3353C37.7477 34.4551 38.0106 34.6308 38.2319 34.8523L38.477 35.0974L35.1055 38.469L34.86 38.2239C34.4139 37.7766 34.1633 37.1708 34.163 36.5392C34.1627 35.9075 34.4128 35.3015 34.8584 34.8538L34.86 34.8523ZM46.5457 46.5407C46.3243 46.7622 46.0615 46.9379 45.7722 47.0577C45.4829 47.1776 45.1728 47.2393 44.8597 47.2393C44.5465 47.2393 44.2365 47.1776 43.9472 47.0577C43.6579 46.9379 43.3951 46.7622 43.1737 46.5407L42.9286 46.2956L46.3002 42.9236L46.5457 43.1691C46.992 43.6166 47.2426 44.2229 47.2426 44.8549C47.2426 45.487 46.992 46.0932 46.5457 46.5407Z"/>
</mask>
<path d="M46.5728 42.1008L39.2968 34.8248L38.7779 34.3044C38.4853 34.0101 38.1373 33.7768 37.7539 33.618C37.3705 33.4592 36.9594 33.3781 36.5444 33.3793C36.3548 33.3798 36.1656 33.3973 35.979 33.4316L34.5316 31.9872L35.452 31.0668C35.6751 30.8433 35.8004 30.5404 35.8004 30.2246C35.8004 29.9088 35.6751 29.6059 35.452 29.3823L34.2207 28.1541C35.1264 26.6807 35.8194 25.0867 36.2791 23.4195H40.3593C41.3374 23.4206 42.2938 23.1314 43.1074 22.5886C43.921 22.0457 44.5551 21.2736 44.9296 20.3701C45.304 19.4665 45.4019 18.4722 45.2108 17.513C45.0196 16.5537 44.5481 15.6728 43.856 14.9818C43.3986 14.5201 42.8538 14.154 42.2535 13.9049C41.6532 13.6558 41.0093 13.5286 40.3593 13.5309H36.2788C35.522 10.807 34.1503 8.29305 32.2693 6.18263C30.3882 4.07222 28.048 2.4216 25.4287 1.35785C22.8094 0.294112 19.9809 -0.154386 17.161 0.04689C14.3411 0.248166 11.605 1.09385 9.16339 2.51883C6.72174 3.94381 4.63964 5.91008 3.07739 8.26627C1.51515 10.6225 0.514415 13.3057 0.152245 16.1095C-0.209924 18.9133 0.0761265 21.7627 0.988375 24.4386C1.90062 27.1144 3.41474 29.5452 5.41416 31.5438C8.35358 34.4822 12.1974 36.3444 16.3251 36.8299C20.4529 37.3154 24.6239 36.3958 28.1648 34.2196L29.3889 35.4471C29.4993 35.5579 29.6306 35.6458 29.7751 35.7058C29.9196 35.7658 30.0746 35.7967 30.2311 35.7967C30.3876 35.7967 30.5425 35.7658 30.687 35.7058C30.8315 35.6458 30.9628 35.5579 31.0733 35.4471L31.9937 34.5266L33.4392 35.9749C33.3473 36.4769 33.3784 36.9936 33.53 37.481C33.6815 37.9683 33.9489 38.4116 34.3093 38.773L34.8278 39.2915L42.1038 46.5678L42.6223 47.0863C43.2159 47.6724 44.0173 47.9998 44.8515 47.9972C45.6856 47.9945 46.4849 47.662 47.0748 47.0721C47.6647 46.4823 47.9973 45.6831 48 44.8489C48.0027 44.0147 47.6753 43.2133 47.0893 42.6197L46.5728 42.1008ZM35.653 39.0181L39.0246 35.6465L45.753 42.3745L42.3814 45.7465L35.653 39.0181ZM40.3609 14.3053C41.4669 14.3068 42.5271 14.7468 43.3091 15.5289C44.091 16.311 44.5309 17.3713 44.5321 18.4773C44.5303 19.583 44.09 20.6428 43.3077 21.4242C42.5254 22.2055 41.465 22.6446 40.3593 22.645H36.4778C36.6483 21.9047 36.7732 21.1547 36.8519 20.3991H40.6467C40.7494 20.3991 40.8479 20.3583 40.9205 20.2857C40.9931 20.2131 41.0339 20.1146 41.0339 20.0119C41.0339 19.9092 40.9931 19.8107 40.9205 19.7381C40.8479 19.6654 40.7494 19.6246 40.6467 19.6246H36.9126C37.0231 17.8392 36.8759 16.0472 36.4755 14.3038L40.3609 14.3053ZM5.96324 30.9948C3.06696 28.0979 1.26475 24.2863 0.863703 20.2096C0.462655 16.1329 1.48758 12.0432 3.76384 8.63744C6.0401 5.23169 9.42685 2.72057 13.347 1.53197C17.2672 0.343361 21.4782 0.55081 25.2626 2.11897C29.0469 3.68712 32.1705 6.51895 34.101 10.1319C36.0315 13.7449 36.6495 17.9155 35.8497 21.9331C35.0499 25.9507 32.8818 29.5666 29.7148 32.1648C26.5478 34.763 22.5779 36.1827 18.4815 36.182C13.7861 36.1799 9.28341 34.3148 5.96169 30.9963L5.96324 30.9948ZM30.5273 34.898C30.448 34.9738 30.3425 35.0162 30.2328 35.0162C30.1231 35.0162 30.0176 34.9738 29.9383 34.898L28.832 33.7882C30.7872 32.4646 32.4707 30.7787 33.7916 28.8216L34.9041 29.9318C34.9822 30.0099 35.026 30.1159 35.026 30.2263C35.026 30.3367 34.9822 30.4427 34.9041 30.5208L30.5273 34.898ZM32.5432 33.9776L33.2638 33.2589L33.9852 32.5375L35.1558 33.7061C34.5257 34.012 34.017 34.5212 33.7118 35.1516L32.5432 33.9776ZM34.86 34.8523C35.0813 34.6308 35.3442 34.4551 35.6335 34.3353C35.9227 34.2154 36.2328 34.1537 36.5459 34.1537C36.8591 34.1537 37.1692 34.2154 37.4584 34.3353C37.7477 34.4551 38.0106 34.6308 38.2319 34.8523L38.477 35.0974L35.1055 38.469L34.86 38.2239C34.4139 37.7766 34.1633 37.1708 34.163 36.5392C34.1627 35.9075 34.4128 35.3015 34.8584 34.8538L34.86 34.8523ZM46.5457 46.5407C46.3243 46.7622 46.0615 46.9379 45.7722 47.0577C45.4829 47.1776 45.1728 47.2393 44.8597 47.2393C44.5465 47.2393 44.2365 47.1776 43.9472 47.0577C43.6579 46.9379 43.3951 46.7622 43.1737 46.5407L42.9286 46.2956L46.3002 42.9236L46.5457 43.1691C46.992 43.6166 47.2426 44.2229 47.2426 44.8549C47.2426 45.487 46.992 46.0932 46.5457 46.5407Z" stroke="url(#paint3_linear_3017_2229)" stroke-width="3" mask="url(#path-6-inside-3_3017_2229)"/>
<defs>
<linearGradient id="paint0_linear_3017_2229" x1="2.52148" y1="34.4104" x2="40.9832" y2="19.2145" gradientUnits="userSpaceOnUse">
<stop stop-color="#0968E5"/>
<stop offset="0.492708" stop-color="#0941AB"/>
<stop offset="1" stop-color="#091970"/>
</linearGradient>
<linearGradient id="paint1_linear_3017_2229" x1="9.06445" y1="21.1745" x2="15.6523" y2="18.5811" gradientUnits="userSpaceOnUse">
<stop stop-color="#0968E5"/>
<stop offset="0.492708" stop-color="#0941AB"/>
<stop offset="1" stop-color="#091970"/>
</linearGradient>
<linearGradient id="paint2_linear_3017_2229" x1="20.5771" y1="17.3273" x2="21.0655" y2="14.6829" gradientUnits="userSpaceOnUse">
<stop stop-color="#0968E5"/>
<stop offset="0.492708" stop-color="#0941AB"/>
<stop offset="1" stop-color="#091970"/>
</linearGradient>
<linearGradient id="paint3_linear_3017_2229" x1="7.15256e-07" y1="47.9972" x2="57.9219" y2="25.1108" gradientUnits="userSpaceOnUse">
<stop stop-color="#0968E5"/>
<stop offset="0.492708" stop-color="#0941AB"/>
<stop offset="1" stop-color="#091970"/>
</linearGradient>
</defs>
</svg>
