<svg width="48" height="48" viewBox="0 0 48 48" fill="none" xmlns="http://www.w3.org/2000/svg">
<rect x="5.5" y="5.5" width="17" height="17" rx="4.5" stroke="url(#paint0_linear_1640_7576)"/>
<rect x="5.5" y="25.5" width="17" height="17" rx="4.5" stroke="url(#paint1_linear_1640_7576)"/>
<rect x="25.5" y="25.5" width="17" height="17" rx="4.5" stroke="url(#paint2_linear_1640_7576)"/>
<path d="M36.5 14C36.5 15.3807 35.3807 16.5 34 16.5C32.6193 16.5 31.5 15.3807 31.5 14C31.5 12.6193 32.6193 11.5 34 11.5C35.3807 11.5 36.5 12.6193 36.5 14Z" stroke="url(#paint3_linear_1640_7576)" stroke-linecap="round" stroke-linejoin="round"/>
<path d="M40.0203 19.9544L40.0199 19.9548C39.9143 20.0605 39.789 20.1443 39.6511 20.2015C39.5131 20.2587 39.3652 20.2881 39.2159 20.2881C39.0666 20.2881 38.9187 20.2587 38.7807 20.2015C38.6428 20.1443 38.5175 20.0605 38.4119 19.9548L38.4117 19.9546L38.3626 19.9055L38.3627 19.9055L38.3587 19.9017C38.0945 19.6432 37.7589 19.4698 37.3951 19.4038C37.0323 19.338 36.6581 19.3822 36.3205 19.5306C35.99 19.6728 35.7081 19.9084 35.5094 20.2085C35.3102 20.5093 35.2033 20.8618 35.2018 21.2226V21.2245V21.3636C35.2018 21.665 35.0821 21.9541 34.869 22.1672C34.6559 22.3803 34.3668 22.5 34.0655 22.5C33.7641 22.5 33.475 22.3803 33.2619 22.1672C33.0488 21.9541 32.9291 21.665 32.9291 21.3636V21.29H32.9292L32.929 21.2783C32.9203 20.9072 32.8001 20.5473 32.5842 20.2453C32.3713 19.9477 32.075 19.72 31.7328 19.5908C31.3985 19.4466 31.0288 19.4043 30.6703 19.4693C30.3066 19.5352 29.971 19.7086 29.7067 19.9671L29.7067 19.9671L29.7028 19.971L29.6537 20.0201L29.6535 20.0203C29.548 20.1259 29.4227 20.2098 29.2847 20.2669C29.1468 20.3241 28.9989 20.3536 28.8495 20.3536C28.7002 20.3536 28.5523 20.3241 28.4144 20.2669C28.2764 20.2098 28.1511 20.1259 28.0456 20.0203L28.0452 20.0199C27.9395 19.9143 27.8557 19.789 27.7985 19.6511C27.7413 19.5131 27.7119 19.3652 27.7119 19.2159C27.7119 19.0666 27.7413 18.9187 27.7985 18.7807C27.8557 18.6428 27.9395 18.5175 28.0452 18.4119L28.0454 18.4117L28.0945 18.3626L28.0945 18.3627L28.0983 18.3587C28.3568 18.0945 28.5302 17.7589 28.5962 17.3951C28.662 17.0323 28.6178 16.6581 28.4694 16.3205C28.3272 15.99 28.0916 15.7081 27.7915 15.5094C27.4907 15.3102 27.1382 15.2033 26.7774 15.2018H26.7755H26.6364C26.335 15.2018 26.0459 15.0821 25.8328 14.869C25.6197 14.6559 25.5 14.3668 25.5 14.0655C25.5 13.7641 25.6197 13.475 25.8328 13.2619C26.0459 13.0488 26.335 12.9291 26.6364 12.9291H26.71V12.9292L26.7217 12.929C27.0928 12.9203 27.4527 12.8001 27.7547 12.5842C28.0523 12.3713 28.28 12.075 28.4092 11.7329C28.5534 11.3985 28.5957 11.0288 28.5307 10.6703C28.4648 10.3066 28.2914 9.97098 28.0329 9.70673L28.0329 9.70671L28.029 9.70281L27.9799 9.65372L27.9797 9.65352C27.8741 9.54799 27.7902 9.42266 27.7331 9.2847C27.6759 9.14675 27.6464 8.99888 27.6464 8.84955C27.6464 8.70021 27.6759 8.55234 27.7331 8.41439C27.7902 8.27643 27.8741 8.15111 27.9797 8.04557L27.9801 8.04517C28.0857 7.93952 28.211 7.8557 28.3489 7.79852C28.4869 7.74133 28.6348 7.71189 28.7841 7.71189C28.9334 7.71189 29.0813 7.74133 29.2193 7.79852C29.3572 7.8557 29.4825 7.93952 29.5881 8.04517L29.5883 8.04537L29.6374 8.09446L29.6373 8.09448L29.6413 8.09834C29.9055 8.35682 30.2411 8.53022 30.6049 8.59616C30.9324 8.65556 31.2693 8.62535 31.5801 8.50971C31.6359 8.50583 31.6908 8.4926 31.7424 8.47048C32.074 8.32835 32.3569 8.09236 32.5561 7.79155C32.7553 7.49074 32.8622 7.13824 32.8636 6.77745H32.8636V6.77545V6.63636C32.8636 6.33498 32.9834 6.04594 33.1965 5.83283C33.4096 5.61972 33.6986 5.5 34 5.5C34.3014 5.5 34.5904 5.61972 34.8035 5.83283C35.0166 6.04594 35.1364 6.33498 35.1364 6.63636L35.1364 6.71L35.1364 6.71199C35.1378 7.07278 35.2447 7.42528 35.4439 7.72609C35.6426 8.02615 35.9245 8.26171 36.2551 8.40395C36.5926 8.55235 36.9668 8.5965 37.3297 8.53071C37.6934 8.46476 38.029 8.29137 38.2933 8.03289L38.2933 8.03291L38.2972 8.02901L38.3463 7.97992L38.3465 7.97972C38.452 7.87407 38.5773 7.79025 38.7153 7.73306C38.8532 7.67587 39.0011 7.64644 39.1505 7.64644C39.2998 7.64644 39.4477 7.67587 39.5856 7.73306C39.7236 7.79025 39.8489 7.87406 39.9544 7.97972L39.9548 7.98011C40.0605 8.08565 40.1443 8.21098 40.2015 8.34893C40.2587 8.48689 40.2881 8.63476 40.2881 8.78409C40.2881 8.93343 40.2587 9.0813 40.2015 9.21925C40.1443 9.3572 40.0605 9.48253 39.9548 9.58807L39.9546 9.58827L39.9055 9.63736L39.9055 9.63734L39.9017 9.64128C39.6432 9.90552 39.4698 10.2411 39.4038 10.6049C39.3444 10.9324 39.3747 11.2693 39.4903 11.5801C39.4942 11.6359 39.5074 11.6908 39.5295 11.7424C39.6716 12.074 39.9076 12.3569 40.2085 12.5561C40.5093 12.7553 40.8618 12.8622 41.2226 12.8636H41.2245H41.3636C41.665 12.8636 41.9541 12.9834 42.1672 13.1965C42.3803 13.4096 42.5 13.6986 42.5 14C42.5 14.3014 42.3803 14.5904 42.1672 14.8035C41.9541 15.0166 41.665 15.1364 41.3636 15.1364L41.29 15.1364L41.288 15.1364C40.9272 15.1378 40.5747 15.2447 40.2739 15.4439C39.9739 15.6426 39.7383 15.9245 39.5961 16.2551C39.4477 16.5926 39.4035 16.9668 39.4693 17.3297C39.5352 17.6934 39.7086 18.029 39.9671 18.2933L39.9671 18.2933L39.971 18.2972L40.0201 18.3463L40.0203 18.3465C40.1259 18.452 40.2098 18.5773 40.2669 18.7153C40.3241 18.8532 40.3536 19.0011 40.3536 19.1505C40.3536 19.2998 40.3241 19.4477 40.2669 19.5856C40.2098 19.7236 40.1259 19.8489 40.0203 19.9544Z" stroke="url(#paint4_linear_1640_7576)" stroke-linecap="round" stroke-linejoin="round"/>
<defs>
<linearGradient id="paint0_linear_1640_7576" x1="5" y1="23" x2="26.7211" y2="14.418" gradientUnits="userSpaceOnUse">
<stop stop-color="#0968E5"/>
<stop offset="0.492708" stop-color="#0941AB"/>
<stop offset="1" stop-color="#091970"/>
</linearGradient>
<linearGradient id="paint1_linear_1640_7576" x1="5" y1="43" x2="26.7211" y2="34.418" gradientUnits="userSpaceOnUse">
<stop stop-color="#0968E5"/>
<stop offset="0.492708" stop-color="#0941AB"/>
<stop offset="1" stop-color="#091970"/>
</linearGradient>
<linearGradient id="paint2_linear_1640_7576" x1="25" y1="43" x2="46.7211" y2="34.418" gradientUnits="userSpaceOnUse">
<stop stop-color="#0968E5"/>
<stop offset="0.492708" stop-color="#0941AB"/>
<stop offset="1" stop-color="#091970"/>
</linearGradient>
<linearGradient id="paint3_linear_1640_7576" x1="31" y1="17" x2="38.2404" y2="14.1393" gradientUnits="userSpaceOnUse">
<stop stop-color="#0968E5"/>
<stop offset="0.492708" stop-color="#0941AB"/>
<stop offset="1" stop-color="#091970"/>
</linearGradient>
<linearGradient id="paint4_linear_1640_7576" x1="25" y1="23" x2="46.7211" y2="14.418" gradientUnits="userSpaceOnUse">
<stop stop-color="#0968E5"/>
<stop offset="0.492708" stop-color="#0941AB"/>
<stop offset="1" stop-color="#091970"/>
</linearGradient>
</defs>
</svg>
