<svg width="48" height="48" viewBox="0 0 48 48" fill="none" xmlns="http://www.w3.org/2000/svg">
<g clip-path="url(#clip0_1640_7583)">
<mask id="path-1-inside-1_1640_7583" fill="white">
<path d="M6.38319 14.1585H35.3584C35.6305 14.1585 35.8501 13.9225 35.8501 13.6302C35.8501 13.3378 35.6305 13.1018 35.3584 13.1018H6.38319C5.61283 13.1018 4.98343 12.4255 4.98343 11.5977V6.56076C4.98343 5.73301 5.61283 5.05671 6.38319 5.05671H39.5872C40.3575 5.05671 40.9869 5.73301 40.9869 6.56076V11.6013C40.9869 11.9218 40.8951 12.2283 40.7181 12.4854C40.5575 12.7214 40.6066 13.0525 40.8263 13.2251C41.0459 13.3977 41.3541 13.3448 41.5147 13.1088C41.813 12.6685 41.9703 12.1472 41.9703 11.6013V6.56076C41.9703 5.14829 40.9017 4 39.5872 4H6.38319C5.06866 4 4 5.14829 4 6.56076V11.6013C4 13.0102 5.06866 14.1585 6.38319 14.1585Z"/>
</mask>
<path d="M40.7181 12.4854L39.4826 11.6348L39.4781 11.6414L40.7181 12.4854ZM41.5147 13.1088L42.7547 13.9528L42.7565 13.9502L41.5147 13.1088ZM4 11.6013H2.5H4ZM6.38319 15.6585H35.3584V12.6585H6.38319V15.6585ZM35.3584 15.6585C36.5586 15.6585 37.3501 14.6476 37.3501 13.6302H34.3501C34.3501 13.1974 34.7023 12.6585 35.3584 12.6585V15.6585ZM37.3501 13.6302C37.3501 12.6127 36.5586 11.6018 35.3584 11.6018V14.6018C34.7023 14.6018 34.3501 14.0629 34.3501 13.6302H37.3501ZM35.3584 11.6018H6.38319V14.6018H35.3584V11.6018ZM6.38319 11.6018C6.4128 11.6018 6.44078 11.6088 6.46204 11.6185C6.48182 11.6275 6.49072 11.6364 6.49248 11.6383C6.49491 11.6409 6.48343 11.6291 6.48343 11.5977H3.48343C3.48343 13.1506 4.6847 14.6018 6.38319 14.6018V11.6018ZM6.48343 11.5977V6.56076H3.48343V11.5977H6.48343ZM6.48343 6.56076C6.48343 6.52937 6.49491 6.51761 6.49247 6.52023C6.49071 6.52212 6.48182 6.531 6.46204 6.54002C6.44078 6.54972 6.4128 6.55671 6.38319 6.55671V3.55671C4.6847 3.55671 3.48343 5.00793 3.48343 6.56076H6.48343ZM6.38319 6.55671H39.5872V3.55671H6.38319V6.55671ZM39.5872 6.55671C39.5575 6.55671 39.5296 6.54972 39.5083 6.54002C39.4885 6.53099 39.4796 6.52212 39.4779 6.52023C39.4754 6.51761 39.4869 6.52937 39.4869 6.56076H42.4869C42.4869 5.00793 41.2856 3.55671 39.5872 3.55671V6.55671ZM39.4869 6.56076V11.6013H42.4869V6.56076H39.4869ZM39.4869 11.6013C39.4869 11.6182 39.4845 11.6282 39.4833 11.6323C39.4821 11.6361 39.4815 11.6363 39.4826 11.6348L41.9536 13.336C42.3115 12.8161 42.4869 12.2099 42.4869 11.6013H39.4869ZM39.4781 11.6414C38.8856 12.5119 39.0433 13.7317 39.8995 14.4045L41.7531 12.0457C42.17 12.3733 42.2294 12.9309 41.9581 13.3294L39.4781 11.6414ZM39.8995 14.4045C40.8354 15.14 42.1293 14.8717 42.7547 13.9528L40.2747 12.2648C40.5788 11.818 41.2565 11.6554 41.7531 12.0457L39.8995 14.4045ZM42.7565 13.9502C43.2281 13.2541 43.4703 12.4381 43.4703 11.6013H40.4703C40.4703 11.8564 40.3979 12.0829 40.2729 12.2675L42.7565 13.9502ZM43.4703 11.6013V6.56076H40.4703V11.6013H43.4703ZM43.4703 6.56076C43.4703 4.42322 41.8298 2.5 39.5872 2.5V5.5C39.9735 5.5 40.4703 5.87337 40.4703 6.56076H43.4703ZM39.5872 2.5H6.38319V5.5H39.5872V2.5ZM6.38319 2.5C4.14053 2.5 2.5 4.42321 2.5 6.56076H5.5C5.5 5.87337 5.99679 5.5 6.38319 5.5V2.5ZM2.5 6.56076V11.6013H5.5V6.56076H2.5ZM2.5 11.6013C2.5 13.7367 4.14182 15.6585 6.38319 15.6585V12.6585C5.9955 12.6585 5.5 12.2837 5.5 11.6013H2.5Z" fill="url(#paint0_linear_1640_7583)" mask="url(#path-1-inside-1_1640_7583)"/>
<mask id="path-3-inside-2_1640_7583" fill="white">
<path d="M32.0082 17.9731H6.12094C4.95065 17.9731 4 18.9946 4 20.2521V25.8527C4 27.1102 4.95065 28.1316 6.12094 28.1316H31.0641C31.3362 28.1316 31.5558 27.8957 31.5558 27.6033C31.5558 27.3109 31.3362 27.0749 31.0641 27.0749H6.12094C5.49154 27.0749 4.98343 26.5255 4.98343 25.8527V20.2521C4.98343 19.5758 5.49482 19.0299 6.12094 19.0299H32.0049C32.277 19.0299 32.4966 18.7939 32.4966 18.5015C32.4966 18.2091 32.2803 17.9731 32.0082 17.9731Z"/>
</mask>
<path d="M32.0082 16.4731H6.12094V19.4731H32.0082V16.4731ZM6.12094 16.4731C4.02252 16.4731 2.5 18.2696 2.5 20.2521H5.5C5.5 19.7197 5.87878 19.4731 6.12094 19.4731V16.4731ZM2.5 20.2521V25.8527H5.5V20.2521H2.5ZM2.5 25.8527C2.5 27.8352 4.02252 29.6316 6.12094 29.6316V26.6316C5.87878 26.6316 5.5 26.3851 5.5 25.8527H2.5ZM6.12094 29.6316H31.0641V26.6316H6.12094V29.6316ZM31.0641 29.6316C32.2643 29.6316 33.0558 28.6207 33.0558 27.6033H30.0558C30.0558 27.1706 30.408 26.6316 31.0641 26.6316V29.6316ZM33.0558 27.6033C33.0558 26.5859 32.2643 25.5749 31.0641 25.5749V28.5749C30.408 28.5749 30.0558 28.036 30.0558 27.6033H33.0558ZM31.0641 25.5749H6.12094V28.5749H31.0641V25.5749ZM6.12094 25.5749C6.25828 25.5749 6.36185 25.6378 6.41522 25.6953C6.46656 25.7506 6.48343 25.8094 6.48343 25.8527H3.48343C3.48343 27.2476 4.56071 28.5749 6.12094 28.5749V25.5749ZM6.48343 25.8527V20.2521H3.48343V25.8527H6.48343ZM6.48343 20.2521C6.48343 20.295 6.4664 20.3546 6.41442 20.4104C6.3612 20.4674 6.25833 20.5299 6.12094 20.5299V17.5299C4.5694 17.5299 3.48343 18.8478 3.48343 20.2521H6.48343ZM6.12094 20.5299H32.0049V17.5299H6.12094V20.5299ZM32.0049 20.5299C33.2051 20.5299 33.9966 19.5189 33.9966 18.5015H30.9966C30.9966 18.0688 31.3488 17.5299 32.0049 17.5299V20.5299ZM33.9966 18.5015C33.9966 17.4976 33.2209 16.4731 32.0082 16.4731V19.4731C31.3396 19.4731 30.9966 18.9207 30.9966 18.5015H33.9966Z" fill="url(#paint1_linear_1640_7583)" mask="url(#path-3-inside-2_1640_7583)"/>
<mask id="path-5-inside-3_1640_7583" fill="white">
<path d="M6.12094 31.3547H31.0641C31.3362 31.3547 31.5558 31.1187 31.5558 30.8263C31.5558 30.534 31.3362 30.298 31.0641 30.298H6.12094C4.95065 30.298 4 31.3195 4 32.5769V38.1775C4 39.435 4.95065 40.4565 6.12094 40.4565H31.0641C31.3362 40.4565 31.5558 40.2205 31.5558 39.9281C31.5558 39.6358 31.3362 39.3998 31.0641 39.3998H6.12094C5.49154 39.3998 4.98343 38.8503 4.98343 38.1775V32.5769C4.98343 31.9042 5.49482 31.3547 6.12094 31.3547Z"/>
</mask>
<path d="M6.12094 32.8547H31.0641V29.8547H6.12094V32.8547ZM31.0641 32.8547C32.2643 32.8547 33.0558 31.8438 33.0558 30.8263H30.0558C30.0558 30.3936 30.408 29.8547 31.0641 29.8547V32.8547ZM33.0558 30.8263C33.0558 29.8089 32.2643 28.798 31.0641 28.798V31.798C30.408 31.798 30.0558 31.2591 30.0558 30.8263H33.0558ZM31.0641 28.798H6.12094V31.798H31.0641V28.798ZM6.12094 28.798C4.02252 28.798 2.5 30.5944 2.5 32.5769H5.5C5.5 32.0445 5.87878 31.798 6.12094 31.798V28.798ZM2.5 32.5769V38.1775H5.5V32.5769H2.5ZM2.5 38.1775C2.5 40.1601 4.02252 41.9565 6.12094 41.9565V38.9565C5.87878 38.9565 5.5 38.7099 5.5 38.1775H2.5ZM6.12094 41.9565H31.0641V38.9565H6.12094V41.9565ZM31.0641 41.9565C32.2643 41.9565 33.0558 40.9456 33.0558 39.9281H30.0558C30.0558 39.4954 30.408 38.9565 31.0641 38.9565V41.9565ZM33.0558 39.9281C33.0558 38.9107 32.2643 37.8998 31.0641 37.8998V40.8998C30.408 40.8998 30.0558 40.3608 30.0558 39.9281H33.0558ZM31.0641 37.8998H6.12094V40.8998H31.0641V37.8998ZM6.12094 37.8998C6.25828 37.8998 6.36185 37.9626 6.41522 38.0201C6.46656 38.0754 6.48343 38.1342 6.48343 38.1775H3.48343C3.48343 39.5725 4.56071 40.8998 6.12094 40.8998V37.8998ZM6.48343 38.1775V32.5769H3.48343V38.1775H6.48343ZM6.48343 32.5769C6.48343 32.6229 6.46549 32.6816 6.41544 32.7354C6.36397 32.7907 6.26133 32.8547 6.12094 32.8547V29.8547C4.56669 29.8547 3.48343 31.1791 3.48343 32.5769H6.48343Z" fill="url(#paint2_linear_1640_7583)" mask="url(#path-5-inside-3_1640_7583)"/>
<path d="M40.0253 15.3634H37.1616L38.5935 13.1133L40.0253 15.3634Z" stroke="url(#paint3_linear_1640_7583)" stroke-width="1.5"/>
</g>
<defs>
<linearGradient id="paint0_linear_1640_7583" x1="4" y1="14.1585" x2="20.653" y2="-10.4348" gradientUnits="userSpaceOnUse">
<stop stop-color="#0968E5"/>
<stop offset="0.492708" stop-color="#0941AB"/>
<stop offset="1" stop-color="#091970"/>
</linearGradient>
<linearGradient id="paint1_linear_1640_7583" x1="4" y1="28.1317" x2="21.8403" y2="8.35851" gradientUnits="userSpaceOnUse">
<stop stop-color="#0968E5"/>
<stop offset="0.492708" stop-color="#0941AB"/>
<stop offset="1" stop-color="#091970"/>
</linearGradient>
<linearGradient id="paint2_linear_1640_7583" x1="4" y1="40.4565" x2="21.8918" y2="21.281" gradientUnits="userSpaceOnUse">
<stop stop-color="#0968E5"/>
<stop offset="0.492708" stop-color="#0941AB"/>
<stop offset="1" stop-color="#091970"/>
</linearGradient>
<linearGradient id="paint3_linear_1640_7583" x1="33.1846" y1="44" x2="48.006" y2="42.0123" gradientUnits="userSpaceOnUse">
<stop stop-color="#0968E5"/>
<stop offset="0.492708" stop-color="#0941AB"/>
<stop offset="1" stop-color="#091970"/>
</linearGradient>
<clipPath id="clip0_1640_7583">
<rect width="48" height="48" fill="white"/>
</clipPath>
</defs>
</svg>
