<svg width="186" height="64" viewBox="0 0 186 64" fill="none" xmlns="http://www.w3.org/2000/svg">
<path d="M28 4L28.0154 17.1003" stroke="#1A1A1A" stroke-linejoin="round"/>
<path d="M52.4602 46.0104L41.323 39.4551" stroke="#1A1A1A" stroke-linejoin="round"/>
<path d="M4.09888 46.0104L15.236 39.4551" stroke="#1A1A1A" stroke-linejoin="round"/>
<path d="M28.0087 32.0107L15 24.4896L28.0087 16.9717L41 24.5204L28.0087 32.0107Z" stroke="#1A1A1A" stroke-width="2" stroke-linecap="round" stroke-linejoin="round"/>
<path d="M28.0207 46.9689L15.0167 39.5056L15 24.4897L28.0207 32.0108V46.9689Z" stroke="#1A1A1A" stroke-width="2" stroke-linejoin="round"/>
<path d="M28 46.9689L41.0033 39.539V24.5205L28 32.0108V46.9689Z" stroke="#1A1A1A" stroke-width="2" stroke-linejoin="round"/>
<path d="M52 46.0103V18.0322L27.9997 4.04248L4 18.0322V46.0103L27.9997 60L52 46.0103Z" stroke="#1A1A1A" stroke-width="3" stroke-miterlimit="10"/>
<path d="M28.0002 32.0454L27.2439 33.3408L27.9989 33.7816L28.7546 33.3419L28.0002 32.0454ZM3.28296 19.3516L27.2439 33.3408L28.7565 30.75L4.79555 16.7609L3.28296 19.3516ZM28.7546 33.3419L52.7937 19.3527L51.2848 16.7598L27.2457 30.749L28.7546 33.3419Z" fill="#1A1A1A"/>
<path d="M28 32.0459V60.0001" stroke="#1A1A1A" stroke-width="3" stroke-miterlimit="10" stroke-linecap="round"/>
<path d="M80.597 39.92C81.3117 39.92 81.893 39.8293 82.341 39.648C82.7997 39.4667 83.157 39.232 83.413 38.944C83.669 38.656 83.845 38.3307 83.941 37.968C84.037 37.6053 84.085 37.2373 84.085 36.864C84.085 36.4373 84.0263 36.0533 83.909 35.712C83.8023 35.3707 83.6103 35.0827 83.333 34.848C83.0663 34.6133 82.709 34.432 82.261 34.304C81.813 34.176 81.2477 34.112 80.565 34.112H76.789V39.92H80.597ZM76.789 24.736V30.496H79.605C80.2023 30.496 80.741 30.4533 81.221 30.368C81.701 30.2827 82.1063 30.1333 82.437 29.92C82.7783 29.7067 83.0343 29.4133 83.205 29.04C83.3863 28.6667 83.477 28.1973 83.477 27.632C83.477 27.0773 83.4077 26.6187 83.269 26.256C83.1303 25.8827 82.917 25.584 82.629 25.36C82.341 25.136 81.973 24.976 81.525 24.88C81.0877 24.784 80.565 24.736 79.957 24.736H76.789ZM79.957 20.688C81.5677 20.688 82.9383 20.8373 84.069 21.136C85.1997 21.4347 86.1223 21.856 86.837 22.4C87.5517 22.944 88.069 23.6053 88.389 24.384C88.7197 25.1627 88.885 26.032 88.885 26.992C88.885 27.5147 88.8103 28.0213 88.661 28.512C88.5117 28.992 88.277 29.4453 87.957 29.872C87.637 30.288 87.2263 30.672 86.725 31.024C86.2237 31.376 85.621 31.68 84.917 31.936C86.453 32.3093 87.589 32.912 88.325 33.744C89.061 34.576 89.429 35.6533 89.429 36.976C89.429 37.968 89.237 38.8907 88.853 39.744C88.469 40.5973 87.9037 41.344 87.157 41.984C86.421 42.6133 85.509 43.1093 84.421 43.472C83.333 43.824 82.0903 44 80.693 44H71.381V20.688H79.957ZM99.6718 27.152C100.93 27.152 102.077 27.3493 103.112 27.744C104.146 28.1387 105.032 28.704 105.768 29.44C106.514 30.176 107.09 31.072 107.496 32.128C107.912 33.1733 108.12 34.352 108.12 35.664C108.12 36.9867 107.912 38.1813 107.496 39.248C107.09 40.304 106.514 41.2053 105.768 41.952C105.032 42.688 104.146 43.2587 103.112 43.664C102.077 44.0587 100.93 44.256 99.6718 44.256C98.4024 44.256 97.2451 44.0587 96.1998 43.664C95.1651 43.2587 94.2691 42.688 93.5118 41.952C92.7651 41.2053 92.1838 40.304 91.7678 39.248C91.3624 38.1813 91.1598 36.9867 91.1598 35.664C91.1598 34.352 91.3624 33.1733 91.7678 32.128C92.1838 31.072 92.7651 30.176 93.5118 29.44C94.2691 28.704 95.1651 28.1387 96.1998 27.744C97.2451 27.3493 98.4024 27.152 99.6718 27.152ZM99.6718 40.576C100.813 40.576 101.65 40.176 102.184 39.376C102.728 38.5653 103 37.3387 103 35.696C103 34.0533 102.728 32.832 102.184 32.032C101.65 31.232 100.813 30.832 99.6718 30.832C98.4984 30.832 97.6398 31.232 97.0958 32.032C96.5518 32.832 96.2798 34.0533 96.2798 35.696C96.2798 37.3387 96.5518 38.5653 97.0958 39.376C97.6398 40.176 98.4984 40.576 99.6718 40.576ZM115.194 29.2C115.514 28.9013 115.844 28.624 116.186 28.368C116.527 28.112 116.89 27.8987 117.274 27.728C117.668 27.5467 118.09 27.408 118.538 27.312C118.996 27.2053 119.492 27.152 120.026 27.152C120.932 27.152 121.732 27.312 122.426 27.632C123.13 27.9413 123.722 28.3787 124.202 28.944C124.682 29.4987 125.044 30.1653 125.29 30.944C125.535 31.712 125.658 32.5493 125.658 33.456V44H120.698V33.456C120.698 32.6453 120.511 32.016 120.138 31.568C119.764 31.1093 119.215 30.88 118.49 30.88C117.946 30.88 117.434 30.9973 116.954 31.232C116.484 31.456 116.026 31.7653 115.578 32.16V44H110.618V27.408H113.69C114.308 27.408 114.714 27.6853 114.906 28.24L115.194 29.2ZM129.787 44V30.816L128.699 30.592C128.326 30.5067 128.022 30.3733 127.787 30.192C127.563 30.0107 127.451 29.744 127.451 29.392V27.44H129.787V27.2C129.787 26.1973 129.958 25.2533 130.299 24.368C130.651 23.472 131.19 22.6987 131.915 22.048C132.64 21.3867 133.563 20.864 134.683 20.48C135.814 20.096 137.158 19.904 138.715 19.904C139.195 19.904 139.691 19.9307 140.203 19.984C140.715 20.0267 141.158 20.096 141.531 20.192L141.371 22.704C141.35 22.9707 141.216 23.1467 140.971 23.232C140.726 23.3173 140.464 23.36 140.187 23.36C139.078 23.36 138.16 23.4453 137.435 23.616C136.71 23.7867 136.134 24.0427 135.707 24.384C135.291 24.7147 134.998 25.1307 134.827 25.632C134.667 26.1333 134.587 26.7093 134.587 27.36V27.44H145.115V44H140.155V30.832H134.747V44H129.787ZM158.682 31.856C158.308 31.44 157.903 31.152 157.466 30.992C157.028 30.8213 156.57 30.736 156.09 30.736C155.631 30.736 155.21 30.8267 154.826 31.008C154.442 31.1893 154.106 31.4827 153.818 31.888C153.54 32.2827 153.322 32.8 153.162 33.44C153.002 34.08 152.922 34.8533 152.922 35.76C152.922 36.6347 152.986 37.3707 153.114 37.968C153.242 38.5653 153.418 39.0507 153.642 39.424C153.876 39.7867 154.154 40.048 154.474 40.208C154.794 40.368 155.151 40.448 155.546 40.448C155.908 40.448 156.234 40.416 156.522 40.352C156.82 40.2773 157.092 40.176 157.338 40.048C157.583 39.92 157.812 39.76 158.026 39.568C158.25 39.3653 158.468 39.136 158.682 38.88V31.856ZM163.642 20.048V44H160.57C159.951 44 159.546 43.7227 159.354 43.168L158.97 41.904C158.639 42.256 158.292 42.576 157.93 42.864C157.567 43.152 157.172 43.4027 156.746 43.616C156.33 43.8187 155.876 43.9733 155.385 44.08C154.906 44.1973 154.383 44.256 153.818 44.256C152.954 44.256 152.154 44.064 151.418 43.68C150.682 43.296 150.047 42.7413 149.514 42.016C148.98 41.2907 148.559 40.4053 148.25 39.36C147.951 38.304 147.802 37.104 147.802 35.76C147.802 34.5227 147.972 33.376 148.314 32.32C148.655 31.2533 149.135 30.336 149.754 29.568C150.383 28.7893 151.135 28.1813 152.01 27.744C152.884 27.3067 153.85 27.088 154.906 27.088C155.77 27.088 156.495 27.2107 157.082 27.456C157.668 27.7013 158.202 28.032 158.682 28.448V20.048H163.642ZM175.553 37.248C174.561 37.2907 173.745 37.376 173.105 37.504C172.465 37.632 171.958 37.792 171.585 37.984C171.211 38.176 170.95 38.3947 170.801 38.64C170.662 38.8853 170.593 39.152 170.593 39.44C170.593 40.0053 170.747 40.4053 171.057 40.64C171.366 40.864 171.819 40.976 172.417 40.976C173.057 40.976 173.617 40.864 174.097 40.64C174.577 40.416 175.062 40.0533 175.553 39.552V37.248ZM166.625 29.712C167.627 28.8267 168.737 28.1707 169.953 27.744C171.179 27.3067 172.491 27.088 173.889 27.088C174.891 27.088 175.793 27.2533 176.593 27.584C177.403 27.904 178.086 28.3573 178.641 28.944C179.206 29.52 179.638 30.208 179.937 31.008C180.235 31.808 180.385 32.6827 180.385 33.632V44H178.113C177.643 44 177.286 43.936 177.041 43.808C176.806 43.68 176.609 43.4133 176.449 43.008L176.097 42.096C175.681 42.448 175.281 42.7573 174.897 43.024C174.513 43.2907 174.113 43.52 173.697 43.712C173.291 43.8933 172.854 44.0267 172.385 44.112C171.926 44.208 171.414 44.256 170.849 44.256C170.091 44.256 169.403 44.16 168.785 43.968C168.166 43.7653 167.638 43.472 167.201 43.088C166.774 42.704 166.443 42.2293 166.209 41.664C165.974 41.088 165.857 40.4267 165.857 39.68C165.857 39.0827 166.006 38.48 166.305 37.872C166.603 37.2533 167.121 36.6933 167.857 36.192C168.593 35.68 169.585 35.2533 170.833 34.912C172.081 34.5707 173.654 34.3787 175.553 34.336V33.632C175.553 32.6613 175.35 31.9627 174.945 31.536C174.55 31.0987 173.985 30.88 173.249 30.88C172.662 30.88 172.182 30.944 171.809 31.072C171.435 31.2 171.099 31.344 170.801 31.504C170.513 31.664 170.23 31.808 169.953 31.936C169.675 32.064 169.345 32.128 168.961 32.128C168.619 32.128 168.331 32.0427 168.097 31.872C167.862 31.7013 167.67 31.4987 167.521 31.264L166.625 29.712Z" fill="#1A1A1A"/>
</svg>
