<svg width="148" height="48" viewBox="0 0 148 48" fill="none" xmlns="http://www.w3.org/2000/svg">
<g clip-path="url(#clip0_4118_12693)">
<path d="M5.50272 19.4194C5.97709 20.4334 7.15115 22.4376 7.15115 22.4376L20.724 0L7.47727 9.25015C6.68796 9.77672 6.04037 10.4895 5.59167 11.3255C4.98835 12.5868 4.6678 13.9646 4.65244 15.3626C4.63707 16.7607 4.92726 18.1452 5.50272 19.4194Z" fill="url(#paint0_linear_4118_12693)"/>
<path d="M0.124557 26.8077C0.274121 28.9539 0.88052 31.0435 1.90315 32.9364C2.92578 34.8293 4.34103 36.4818 6.05414 37.7834L20.7062 48C20.7062 48 11.539 34.7889 3.80683 21.643C3.02403 20.2542 2.49778 18.7357 2.25328 17.1603C2.14504 16.4469 2.14504 15.7212 2.25328 15.0078C2.05167 15.3814 1.66032 16.1463 1.66032 16.1463C0.876305 17.7453 0.342355 19.4551 0.0771208 21.2161C-0.0755459 23.0776 -0.0596691 24.9491 0.124557 26.8077Z" fill="#A0A8D4"/>
<path d="M37.5047 28.5807C37.0303 27.5667 35.8563 25.5625 35.8563 25.5625L22.2834 48.0001L35.5301 38.7558C36.3195 38.2293 36.967 37.5165 37.4157 36.6805C38.02 35.4184 38.341 34.0396 38.3564 32.6404C38.3717 31.2413 38.0811 29.8557 37.5047 28.5807Z" fill="url(#paint1_linear_4118_12693)"/>
<path d="M42.8829 21.1923C42.7333 19.0461 42.1269 16.9566 41.1043 15.0637C40.0816 13.1708 38.6664 11.5182 36.9533 10.2167L22.3013 0C22.3013 0 31.4625 13.2111 39.2006 26.357C39.9813 27.7463 40.5056 29.2648 40.7482 30.8398C40.8564 31.5532 40.8564 32.2788 40.7482 32.9922C40.9498 32.6187 41.3412 31.8537 41.3412 31.8537C42.1252 30.2548 42.6591 28.5449 42.9244 26.7839C43.079 24.9226 43.0651 23.0512 42.8829 21.1923Z" fill="#A0A8D4"/>
<path style="mix-blend-mode:color" d="M5.59164 11.3255C6.04034 10.4895 6.68793 9.77672 7.47724 9.25015L20.7239 0L7.15112 22.4435C7.15112 22.4435 5.9652 20.4393 5.50269 19.4253C4.92634 18.1503 4.63566 16.7647 4.65103 15.3656C4.66639 13.9664 4.98742 12.5876 5.59164 11.3255ZM0.124557 26.8077C0.274121 28.9539 0.88052 31.0434 1.90315 32.9363C2.92578 34.8292 4.34103 36.4818 6.05414 37.7833L20.7062 48C20.7062 48 11.539 34.7889 3.80683 21.643C3.02403 20.2541 2.49778 18.7356 2.25328 17.1602C2.14504 16.4468 2.14504 15.7212 2.25328 15.0078C2.05167 15.3813 1.66032 16.1463 1.66032 16.1463C0.876305 17.7452 0.342355 19.4551 0.0771208 21.2161C-0.0755459 23.0775 -0.0596691 24.949 0.124557 26.8077ZM37.481 28.5865C37.0066 27.5726 35.8325 25.5684 35.8325 25.5684L22.2834 48L35.5301 38.7558C36.3194 38.2292 36.967 37.5165 37.4157 36.6804C38.0199 35.4184 38.341 34.0395 38.3563 32.6404C38.3717 31.2412 38.081 29.8556 37.5047 28.5806L37.481 28.5865ZM42.8591 21.1983C42.7095 19.052 42.1031 16.9625 41.0805 15.0696C40.0579 13.1767 38.6426 11.5242 36.9295 10.2226L22.3012 0C22.3012 0 31.4624 13.2111 39.2005 26.357C39.9813 27.7463 40.5055 29.2648 40.7482 30.8398C40.8564 31.5532 40.8564 32.2788 40.7482 32.9922C40.9498 32.6187 41.3411 31.8537 41.3411 31.8537C42.1251 30.2548 42.6591 28.5449 42.9243 26.7839C43.0789 24.9226 43.0651 23.0512 42.8828 21.1923L42.8591 21.1983Z" fill="url(#paint2_linear_4118_12693)"/>
<path d="M59.0308 37.4985V10.5911C59.0338 10.557 59.0492 10.5251 59.0741 10.5015C59.0989 10.4778 59.1314 10.464 59.1657 10.4626H76.2623C76.2998 10.4626 76.3357 10.4775 76.3622 10.504C76.3888 10.5305 76.4036 10.5665 76.4036 10.6039V14.0284C76.4036 14.0659 76.3888 14.1018 76.3622 14.1283C76.3357 14.1549 76.2998 14.1697 76.2623 14.1697H63.1555V22.0981H74.3027C74.3402 22.0981 74.3762 22.1129 74.4027 22.1395C74.4292 22.166 74.4441 22.2019 74.4441 22.2394V25.6253C74.4441 25.6628 74.4292 25.6988 74.4027 25.7253C74.3762 25.7518 74.3402 25.7667 74.3027 25.7667H63.1555V33.9327H76.2623C76.2998 33.9327 76.3357 33.9476 76.3622 33.9741C76.3888 34.0006 76.4036 34.0366 76.4036 34.074V37.4985C76.4036 37.536 76.3888 37.5719 76.3622 37.5985C76.3357 37.625 76.2998 37.6398 76.2623 37.6398H59.1657C59.1293 37.6382 59.095 37.6226 59.0699 37.5962C59.0447 37.5699 59.0307 37.5349 59.0308 37.4985ZM101.544 37.5692L89.035 18.5194V37.4921C89.035 37.5296 89.0201 37.5655 88.9936 37.592C88.9671 37.6185 88.9311 37.6334 88.8936 37.6334H85.0387C85.0012 37.6334 84.9653 37.6185 84.9387 37.592C84.9122 37.5655 84.8973 37.5296 84.8973 37.4921V10.6104C84.8973 10.5729 84.9122 10.5369 84.9387 10.5104C84.9653 10.4839 85.0012 10.469 85.0387 10.469H88.6045C88.6276 10.4695 88.6502 10.4756 88.6703 10.4868C88.6905 10.498 88.7076 10.5139 88.7202 10.5333L101.242 29.5445V10.6104C101.242 10.5729 101.257 10.5369 101.284 10.5104C101.31 10.4839 101.346 10.469 101.384 10.469H105.239C105.276 10.469 105.312 10.4839 105.338 10.5104C105.365 10.5369 105.38 10.5729 105.38 10.6104V37.4921C105.38 37.5296 105.365 37.5655 105.338 37.592C105.312 37.6185 105.276 37.6334 105.239 37.6334H101.66C101.637 37.633 101.614 37.6269 101.594 37.6157C101.574 37.6045 101.557 37.5885 101.544 37.5692ZM117.992 32.4164V33.7014C119.644 34.06 121.326 34.2579 123.016 34.2925C124.687 34.2584 126.35 34.0626 127.983 33.7078V27.617L113.989 22.7277C113.963 22.7176 113.941 22.6999 113.925 22.6771C113.909 22.6542 113.9 22.6271 113.899 22.5992V11.4135C113.897 11.3849 113.904 11.3564 113.921 11.3329C113.937 11.3094 113.962 11.2924 113.989 11.285C116.906 10.47 119.917 10.038 122.946 10C125.987 10.04 129.01 10.4718 131.94 11.285C131.968 11.2924 131.992 11.3094 132.009 11.3329C132.025 11.3564 132.033 11.3849 132.03 11.4135V15.6346C132.03 15.6721 132.015 15.7081 131.989 15.7346C131.962 15.7611 131.926 15.776 131.889 15.776H128.105C128.067 15.776 128.031 15.7611 128.005 15.7346C127.978 15.7081 127.963 15.6721 127.963 15.6346V14.3496C126.311 13.9935 124.629 13.7977 122.939 13.765C121.269 13.7979 119.606 13.9915 117.973 14.3432L117.992 20.0999L131.934 24.9828C131.96 24.993 131.982 25.0106 131.998 25.0335C132.014 25.0563 132.023 25.0834 132.024 25.1113V36.644C132.026 36.6726 132.019 36.7011 132.002 36.7246C131.986 36.7481 131.962 36.7651 131.934 36.7725C129.017 37.5874 126.006 38.0193 122.978 38.0575C119.937 38.0172 116.913 37.5853 113.983 36.7725C113.955 36.7651 113.931 36.7481 113.914 36.7246C113.898 36.7011 113.89 36.6726 113.893 36.644V32.4164C113.893 32.3789 113.908 32.343 113.934 32.3165C113.961 32.29 113.997 32.2751 114.034 32.2751H117.812C117.833 32.269 117.856 32.268 117.878 32.2724C117.9 32.2767 117.92 32.2861 117.938 32.2999C117.956 32.3137 117.97 32.3314 117.979 32.3517C117.988 32.3719 117.993 32.3941 117.992 32.4164Z" fill="#1A1A1A"/>
</g>
<defs>
<linearGradient id="paint0_linear_4118_12693" x1="21.3169" y1="0.551452" x2="3.8958" y2="19.4372" gradientUnits="userSpaceOnUse">
<stop offset="0.58" stop-color="#A0A8D4"/>
<stop offset="0.73" stop-color="#8791C7"/>
<stop offset="0.91" stop-color="#6470B4"/>
</linearGradient>
<linearGradient id="paint1_linear_4118_12693" x1="21.6846" y1="47.4486" x2="39.1116" y2="28.5629" gradientUnits="userSpaceOnUse">
<stop offset="0.58" stop-color="#A0A8D4"/>
<stop offset="0.73" stop-color="#8791C7"/>
<stop offset="0.91" stop-color="#6470B4"/>
</linearGradient>
<linearGradient id="paint2_linear_4118_12693" x1="21.5007" y1="-0.237183" x2="21.5007" y2="48.1482" gradientUnits="userSpaceOnUse">
<stop stop-color="#513EFF"/>
<stop offset="0.18" stop-color="#5157FF"/>
<stop offset="0.57" stop-color="#5298FF"/>
<stop offset="1" stop-color="#52E5FF"/>
</linearGradient>
<clipPath id="clip0_4118_12693">
<rect width="148" height="48" fill="white"/>
</clipPath>
</defs>
</svg>
