<svg width="138" height="49" viewBox="0 0 138 49" fill="none" xmlns="http://www.w3.org/2000/svg">
<path d="M68.4284 10.8086H59.9066V33.8714H57.8139V10.8086H49.3137V9.03956H68.4284V10.8086ZM76.3029 34.2381C74.728 34.2381 73.3041 33.8498 72.0528 33.0731C70.8015 32.2965 69.7876 31.2178 69.0972 29.837C68.3852 28.4563 68.0401 26.9029 68.0401 25.1986V24.4651C68.0401 22.696 68.3852 21.0995 69.0756 19.6756C69.766 18.2517 70.7152 17.1299 71.945 16.3316C73.1747 15.5334 74.5123 15.1019 75.9362 15.1019C78.1799 15.1019 79.949 15.857 81.265 17.3887C82.581 18.9205 83.2282 21.0132 83.2282 23.6668V24.8102H70.0464V25.1986C70.0464 27.2913 70.6505 29.0388 71.8371 30.4195C73.0452 31.8218 74.5554 32.5122 76.3677 32.5122C77.4679 32.5122 78.4172 32.318 79.2586 31.9081C80.1 31.5198 80.8551 30.8726 81.5455 29.988L82.8183 30.9589C81.3513 33.1379 79.1723 34.2381 76.3029 34.2381ZM75.9362 16.8278C74.4044 16.8278 73.11 17.3887 72.0528 18.5106C70.9957 19.6325 70.3701 21.1426 70.1327 23.0412H81.2003V22.8254C81.1355 21.0563 80.6393 19.6109 79.6901 18.489C78.7408 17.3672 77.4895 16.8278 75.9362 16.8278ZM89.269 32.167H101.264V33.893H86.7448V32.3828L97.9418 17.1946H87.09V15.4255H100.509V16.9573L89.269 32.167ZM104.198 24.3788C104.198 22.6097 104.543 21.0132 105.234 19.5893C105.924 18.1654 106.895 17.0651 108.146 16.2669C109.398 15.4687 110.822 15.0803 112.418 15.0803C114.877 15.0803 116.862 15.9433 118.394 17.6692C119.926 19.3951 120.681 21.682 120.681 24.5298V24.9613C120.681 26.7519 120.336 28.3484 119.645 29.7723C118.955 31.1962 117.984 32.2965 116.733 33.0731C115.482 33.8498 114.058 34.2381 112.461 34.2381C110.023 34.2381 108.017 33.3752 106.485 31.6492C104.953 29.9233 104.198 27.6365 104.198 24.7887V24.3788ZM106.248 24.9397C106.248 27.1403 106.83 28.9525 107.952 30.3764C109.096 31.8003 110.584 32.4906 112.44 32.4906C114.273 32.4906 115.784 31.7787 116.927 30.3764C118.07 28.9525 118.631 27.0971 118.631 24.7671V24.3788C118.631 22.9764 118.372 21.682 117.855 20.4954C117.337 19.3304 116.603 18.4243 115.654 17.7771C114.705 17.1299 113.626 16.8062 112.418 16.8062C110.606 16.8062 109.117 17.5182 107.952 18.9421C106.809 20.366 106.226 22.2429 106.226 24.5514L106.248 24.9397ZM135.955 29.1898C135.955 28.1758 135.545 27.356 134.726 26.7519C133.906 26.1478 132.698 25.6516 131.036 25.3065C129.375 24.9613 128.124 24.5514 127.218 24.1199C126.312 23.6668 125.643 23.1275 125.211 22.4802C124.78 21.833 124.543 21.0563 124.543 20.1287C124.543 18.6616 125.147 17.475 126.376 16.5258C127.585 15.5765 129.16 15.1019 131.058 15.1019C133.108 15.1019 134.769 15.6197 136.02 16.6337C137.271 17.6476 137.897 18.9852 137.897 20.6249H135.848C135.848 19.5462 135.394 18.64 134.488 17.9281C133.582 17.2162 132.439 16.8494 131.058 16.8494C129.72 16.8494 128.642 17.1514 127.822 17.7339C127.002 18.338 126.592 19.1147 126.592 20.0639C126.592 20.9916 126.937 21.7036 127.606 22.1998C128.275 22.696 129.526 23.1706 131.317 23.6021C133.108 24.0336 134.445 24.4651 135.351 24.9397C136.236 25.4143 136.905 25.9968 137.336 26.6656C137.768 27.3344 137.983 28.1542 137.983 29.1035C137.983 30.6568 137.358 31.9081 136.106 32.8358C134.855 33.7635 133.215 34.2381 131.188 34.2381C129.03 34.2381 127.283 33.7204 125.967 32.6848C124.629 31.6492 123.96 30.3332 123.96 28.7367H126.01C126.096 29.9233 126.592 30.851 127.52 31.5198C128.448 32.1886 129.677 32.5122 131.209 32.5122C132.633 32.5122 133.776 32.1886 134.661 31.5845C135.524 30.9373 135.955 30.1391 135.955 29.1898ZM34.2334 35.2737C33.7372 26.493 22.6912 22.5018 21.6341 22.0919C21.591 22.0703 21.591 22.0272 21.6125 21.984L33.0037 10.5497V9.32002C33.0037 9.12586 32.8311 8.95326 32.6369 8.95326H11.6453V0L3.90019 1.61806V2.78306H4.33167C4.33167 2.78306 6.23019 2.78306 6.23019 4.68159V8.93169H0.232587C0.124716 8.93169 0.0168457 9.03956 0.0168457 9.14743V11.8442H6.25177V26.493C6.25177 31.0883 9.20742 34.2813 14.3852 33.8498C15.4855 33.7635 16.4995 33.332 17.3624 32.7711C17.7508 32.5122 17.9881 32.1023 17.9881 31.6277V30.1822C16.3053 31.3041 14.8814 31.2393 14.8814 31.2393C11.6021 31.2393 11.6669 27.0755 11.6669 27.0755V11.8442H26.7688L15.8954 22.8039C15.8738 24.2493 15.8523 25.3712 15.8523 25.3927C15.8523 25.4359 15.8738 25.4575 15.917 25.4575C25.8842 27.1403 28.581 33.5909 28.581 35.4679C28.581 35.4679 29.6597 44.5937 20.5338 45.2194C20.5338 45.2194 14.5578 45.4783 13.5007 43.0835C13.4575 42.9972 13.5007 42.9109 13.587 42.8678C14.5794 42.4147 15.2482 41.5302 15.2482 40.3436C15.2482 38.5745 14.1695 37.1291 11.9042 37.1291C10.0704 37.1291 8.5602 38.5745 8.5602 40.3436C8.5602 40.3436 7.69723 48.024 20.5123 47.8083C35.1395 47.5494 34.2334 35.2737 34.2334 35.2737Z" fill="#0D61FF"/>
</svg>
