<svg width="226" height="49" viewBox="0 0 226 49" fill="none" xmlns="http://www.w3.org/2000/svg">
<path d="M78.7553 7.28955V15.8146C78.7553 18.6708 77.1513 20.1553 75.1443 20.1553C73.5146 20.1553 72.2366 19.1917 72.2366 16.5786V7.28955H69.2346V16.839C69.2346 20.4939 71.1645 22.8552 74.3809 22.8552C75.2788 22.8659 76.1626 22.6292 76.9377 22.1705C77.7128 21.7117 78.35 21.0481 78.781 20.2508H78.8325V22.4211H81.7659V7.28955H78.7553Z" fill="#0D67FE"/>
<path d="M91.7841 6.85549C90.8686 6.84259 89.9663 7.07714 89.1702 7.53496C88.3741 7.99277 87.7131 8.65726 87.2554 9.45989H87.1954V7.28955H84.262V22.4038H87.2468V13.8874C87.2468 11.0312 88.9022 9.5467 90.995 9.5467C92.7105 9.5467 94.0571 10.5103 94.0571 13.1147V22.4038H97.0505V12.8543C97.0591 9.25154 95.0435 6.85549 91.7841 6.85549Z" fill="#0D67FE"/>
<path d="M105.937 13.2536H105.362C102.789 13.2536 102.266 12.7848 102.266 11.6042C102.266 10.4235 103.303 9.45987 105.225 9.45987C105.594 9.42937 105.965 9.47766 106.314 9.60163C106.663 9.72559 106.983 9.92246 107.252 10.1795C107.521 10.4365 107.734 10.7479 107.877 11.0935C108.02 11.4392 108.089 11.8113 108.081 12.1858H111.203C110.989 9.12998 108.758 6.85547 105.199 6.85547C101.159 6.85547 99.1434 9.26888 99.1434 11.6042C99.1434 14.3301 101.373 15.8928 104.17 15.8928H105.027C107.601 15.8928 108.398 16.5004 108.398 17.9589C108.398 19.2438 107.094 20.2334 105.139 20.2334C104.36 20.2644 103.6 19.9857 103.021 19.4568C102.442 18.9279 102.091 18.1909 102.043 17.4033H98.9204C99.1091 20.5373 101.665 22.8465 105.139 22.8465C109.316 22.8465 111.495 20.3984 111.495 17.9589C111.477 15.1548 109.299 13.2536 105.937 13.2536Z" fill="#0D67FE"/>
<path d="M120.869 9.92882V7.32441H116.821V5.21484H113.836V7.28969H111.391V9.89409H113.836V18.3671C113.836 21.1972 115.303 22.4039 118.073 22.4039H120.869V19.7995H118.339C118.131 19.8118 117.923 19.7784 117.729 19.7016C117.536 19.6248 117.361 19.5064 117.216 19.3546C117.072 19.2028 116.962 19.0212 116.894 18.8223C116.825 18.6233 116.801 18.4118 116.821 18.2021V9.95486L120.869 9.92882Z" fill="#0D67FE"/>
<path d="M129.275 6.85547C125.098 6.85547 121.787 9.71163 121.787 14.851C121.787 19.9904 125.098 22.8465 129.275 22.8465C133.452 22.8465 136.771 19.9643 136.771 14.851C136.771 9.73768 133.469 6.85547 129.275 6.85547ZM129.275 20.2334C126.83 20.2334 124.875 18.4972 124.875 14.851C124.875 11.2048 126.83 9.43383 129.275 9.45987C131.719 9.48592 133.675 11.1961 133.675 14.851C133.675 18.5058 131.728 20.2074 129.275 20.2334Z" fill="#0D67FE"/>
<path d="M146.892 6.85534C145.878 6.82985 144.874 7.0717 143.979 7.55718C143.084 8.04266 142.33 8.75511 141.789 9.62469H141.729C141.778 9.09666 141.798 8.56628 141.789 8.036V7.28941H138.796V25.1209H141.789V21.7438C141.798 21.1847 141.778 20.6254 141.729 20.0683H141.789C142.319 20.9487 143.071 21.6702 143.968 22.1585C144.865 22.6468 145.875 22.8842 146.892 22.8464C150.555 22.8464 153.754 20.0163 153.754 14.764C153.754 9.51183 150.555 6.85534 146.892 6.85534ZM146.129 20.2333C143.359 20.2333 141.755 17.8199 141.755 14.738C141.755 11.8298 143.359 9.5292 146.129 9.45974C148.9 9.39029 150.641 11.578 150.641 14.764C150.641 17.9501 148.848 20.268 146.129 20.2333Z" fill="#0D67FE"/>
<path d="M163.935 6.85534C162.92 6.82985 161.916 7.0717 161.022 7.55718C160.127 8.04266 159.372 8.75511 158.832 9.62469H158.772C158.821 9.09666 158.841 8.56628 158.832 8.036V7.28941H155.864V25.1209H158.857V21.7438C158.866 21.1847 158.846 20.6254 158.797 20.0683H158.857C159.387 20.9487 160.14 21.6702 161.037 22.1585C161.934 22.6468 162.943 22.8842 163.961 22.8464C167.623 22.8464 170.823 20.0163 170.823 14.764C170.823 9.51183 167.598 6.85534 163.935 6.85534ZM163.172 20.2333C160.401 20.2333 158.797 17.8199 158.797 14.738C158.797 11.8298 160.401 9.5292 163.172 9.45974C165.942 9.39029 167.683 11.578 167.683 14.764C167.683 17.9501 165.891 20.268 163.172 20.2333Z" fill="#0D67FE"/>
<path d="M186.167 19.7733C185.764 19.7733 185.575 19.5216 185.575 19.0267V12.3768C185.575 9.19075 184.049 6.85547 179.571 6.85547C175.231 6.85547 173.241 9.05185 173.027 12.1858H176.012C176.209 10.4495 177.539 9.45987 179.571 9.45987C181.287 9.45987 182.505 10.2325 182.505 11.4392C182.505 12.4289 181.827 13.0366 179.597 13.0366H178.405C174.845 13.0366 172.461 14.4951 172.461 17.82C172.461 21.2925 174.983 22.8986 177.942 22.8986C180.146 22.8986 182.016 21.9089 182.754 19.7994C182.831 21.336 183.834 22.4038 185.738 22.4038H187.454V19.7994L186.167 19.7733ZM182.582 15.3719C182.582 18.7836 180.764 20.2681 178.431 20.2681C176.398 20.2681 175.583 19.0528 175.583 17.82C175.583 16.5873 176.286 15.6757 178.456 15.6757H178.894C180.987 15.6757 182.325 14.9291 182.556 13.6443L182.582 15.3719Z" fill="#0D67FE"/>
<path d="M197.386 6.85516C196.372 6.82967 195.368 7.07152 194.473 7.557C193.578 8.04248 192.824 8.75493 192.283 9.62451H192.223C192.272 9.09648 192.292 8.5661 192.283 8.03583V2.4624H189.315V22.4295H192.309V21.7697C192.318 21.2105 192.297 20.6513 192.249 20.0942H192.309C192.839 20.974 193.592 21.6949 194.488 22.1832C195.385 22.6714 196.394 22.9092 197.412 22.8722C201.075 22.8722 204.274 20.0421 204.274 14.7899C204.274 9.5377 201.049 6.85516 197.386 6.85516ZM196.623 20.2331C193.853 20.2331 192.249 17.8197 192.249 14.7378C192.249 11.8296 193.853 9.52902 196.623 9.45957C199.393 9.39011 201.135 11.5778 201.135 14.7639C201.135 17.9499 199.342 20.2678 196.623 20.2331Z" fill="#0D67FE"/>
<path d="M206.152 2.4624V22.4295H209.145V2.4624H206.152Z" fill="#0D67FE"/>
<path d="M226 13.4793C226 9.68559 223.015 6.85547 218.941 6.85547C214.601 6.85547 211.582 9.85054 211.582 14.851C211.582 19.6605 214.541 22.8465 218.941 22.8465C222.552 22.8465 225.245 20.7022 225.871 17.7592H222.612C222.335 18.5099 221.831 19.1531 221.172 19.5973C220.513 20.0415 219.732 20.2641 218.941 20.2334C216.72 20.2334 215.09 18.6187 214.738 15.8928H226V13.4793ZM214.764 13.2276C214.885 12.1916 215.377 11.2364 216.147 10.5423C216.916 9.84824 217.91 9.4632 218.941 9.45987C219.962 9.45244 220.947 9.83719 221.699 10.5365C222.45 11.2357 222.911 12.1975 222.99 13.2276H214.764Z" fill="#0D67FE"/>
<path d="M81.2427 25.1208V30.5987C81.2427 31.1803 81.2427 31.6491 81.2941 32.2742H81.2427C80.7061 31.3907 79.9462 30.6682 79.0415 30.1814C78.1368 29.6946 77.1201 29.461 76.0964 29.5048C72.3996 29.5048 69.2346 32.2742 69.2346 37.3615C69.2346 42.6397 72.4082 45.4959 76.0964 45.4959C77.1186 45.5246 78.1306 45.2836 79.0329 44.7965C79.9352 44.3094 80.6968 43.5931 81.2427 42.7178C81.1912 43.3255 81.1912 43.7683 81.1912 44.3152V45.0618H84.1761V25.0947L81.2427 25.1208ZM76.894 42.8828C74.1579 42.8828 72.3653 40.6604 72.3653 37.3615C72.3653 34.2015 74.1579 32.0832 76.894 32.1093C79.6302 32.1353 81.2427 34.4272 81.2427 37.3354C81.2427 40.4173 79.6216 42.8567 76.8769 42.8828H76.894Z" fill="#0D67FE"/>
<path d="M94.1515 29.5049C89.9658 29.5049 86.655 32.361 86.655 37.5004C86.655 42.6398 89.9658 45.4959 94.1515 45.4959C98.3371 45.4959 101.648 42.6137 101.648 37.5004C101.648 32.3871 98.3285 29.5049 94.1515 29.5049ZM94.1515 42.8828C91.707 42.8828 89.7514 41.1466 89.7514 37.5004C89.7514 33.8542 91.707 32.0832 94.1515 32.1093C96.596 32.1353 98.5515 33.8456 98.5515 37.5004C98.5515 41.1553 96.596 42.8568 94.1515 42.8828V42.8828Z" fill="#0D67FE"/>
<path d="M120.621 29.5051C119.675 29.4828 118.742 29.7246 117.923 30.2039C117.105 30.6833 116.433 31.3816 115.98 32.2224H115.903L115.98 32.9082C115.707 31.8951 115.101 31.0064 114.263 30.3879C113.424 29.7695 112.403 29.4581 111.366 29.5051C110.476 29.5118 109.605 29.7665 108.848 30.2412C108.092 30.7159 107.479 31.3924 107.077 32.1963H107.026V29.9392H104.093V45.0621H107.077V36.537C107.077 33.6809 108.681 32.1963 110.577 32.1963C112.181 32.1963 113.322 33.2641 113.322 35.7731V45.0621H116.306V36.511C116.306 33.6548 117.962 32.1703 119.866 32.1703C121.47 32.1703 122.576 33.2381 122.576 35.747V45.0361H125.57V35.4866C125.595 31.8665 123.666 29.5051 120.621 29.5051Z" fill="#0D67FE"/>
<path d="M141.746 42.4227C141.343 42.4227 141.154 42.171 141.154 41.6761V35.0262C141.154 31.8402 139.628 29.5049 135.15 29.5049C130.802 29.5049 128.82 31.7013 128.606 34.8352H131.591C131.779 33.099 133.117 32.1093 135.15 32.1093C136.866 32.1093 138.084 32.8819 138.084 34.0886C138.084 35.0783 137.406 35.686 135.176 35.686H133.984C130.424 35.686 128.04 37.1445 128.04 40.4694C128.04 43.942 130.561 45.5567 133.521 45.5567C135.716 45.5567 137.595 44.567 138.324 42.4488C138.41 43.9854 139.413 45.0532 141.317 45.0532H143.033V42.4488L141.746 42.4227ZM138.161 38.0213C138.161 41.433 136.342 42.9176 134.01 42.9176C131.977 42.9176 131.162 41.7022 131.162 40.4694C131.162 39.2367 131.865 38.3251 134.035 38.3251H134.473C136.565 38.3251 137.904 37.5785 138.135 36.2937L138.161 38.0213Z" fill="#0D67FE"/>
<path d="M144.817 29.939V45.0619H147.801V29.939H144.817Z" fill="#0D67FE"/>
<path d="M158.661 29.5049C157.745 29.492 156.843 29.7266 156.047 30.1844C155.251 30.6422 154.59 31.3067 154.132 32.1093H154.072V29.939H151.147V45.0619H154.149V36.5368C154.149 33.6806 155.804 32.1961 157.897 32.1961C159.613 32.1961 160.959 33.1597 160.959 35.7728V45.0619H163.953V35.5124C163.936 31.8662 161.92 29.5049 158.661 29.5049Z" fill="#0D67FE"/>
<path d="M173.353 35.903H172.787C170.214 35.903 169.691 35.4429 169.691 34.2536C169.691 33.0642 170.72 32.1093 172.65 32.1093C173.018 32.0801 173.388 32.1293 173.737 32.2538C174.085 32.3784 174.403 32.5755 174.672 32.8323C174.94 33.0892 175.152 33.4002 175.294 33.7452C175.437 34.0901 175.506 34.4615 175.498 34.8352H178.62C178.405 31.7794 176.175 29.5049 172.616 29.5049C168.567 29.5049 166.56 31.9183 166.56 34.2536C166.56 36.9795 168.782 38.5422 171.586 38.5422H172.393C174.966 38.5422 175.763 39.1499 175.763 40.6083C175.763 41.8932 174.46 42.8828 172.504 42.8828C171.726 42.9116 170.967 42.6321 170.389 42.1037C169.81 41.5752 169.459 40.8395 169.408 40.0527H166.286C166.474 43.1867 169.03 45.4959 172.504 45.4959C176.69 45.4959 178.86 43.0478 178.86 40.6083C178.894 37.8042 176.724 35.903 173.353 35.903Z" fill="#0D67FE"/>
<path d="M0 40.5681L0.00330221 40.5656L0.00990663 40.5607L0 40.5681L0.0189877 40.5541L9.98268 33.0606C9.93237 32.5342 9.90663 32.0006 9.90663 31.461V18.2143L19.8133 12.75V25.6656L31.371 16.9724V6.37499L42.9287 0V8.27838L52.8354 0.827921V2.48376L42.9287 9.62375V10.9691L52.8354 4.13961V5.79545L42.9287 12.3145V13.6599L52.8354 7.45129V9.10713L42.9287 15.0052V16.3514L52.8354 10.763V12.4188L42.9287 17.6968V19.0414L52.8354 14.0747V15.7305L42.9287 20.3867V21.7321L52.8354 17.3863V19.0422L42.9287 23.0775V31.461C42.9287 40.606 35.5365 48.0194 26.4177 48.0194C18.9581 48.0194 12.654 43.0584 10.6068 36.2468L0.00660442 40.5648L0 40.5681ZM10.4419 35.6591L0.0132088 40.5607L0.00908108 40.5632L10.521 35.9515C10.4938 35.8544 10.4674 35.7569 10.4419 35.6591ZM10.0887 33.9282L0.0189877 40.5541L0.00990663 40.5607L10.1342 34.2163C10.1182 34.1206 10.103 34.0245 10.0887 33.9282ZM10.3022 35.0801L0.0264177 40.5541L10.3691 35.3686C10.3459 35.2728 10.3236 35.1766 10.3022 35.0801ZM10.013 33.3508L0.031371 40.5458L10.0483 33.64C10.0357 33.5438 10.0239 33.4475 10.013 33.3508ZM31.371 27.7867L19.899 32.4609C20.3714 35.1851 22.7406 37.2564 25.5921 37.2564C28.7837 37.2564 31.371 34.6617 31.371 31.461V27.7867ZM31.371 25.8195L19.8133 31.2532V31.461C19.8133 31.5978 19.818 31.7334 19.8273 31.8678L31.371 26.8031V25.8195ZM31.371 23.8549L19.8133 30.0121V30.6322L31.371 24.8368V23.8549ZM31.371 21.8869L19.8133 28.7694V29.3912L31.371 22.8713V21.8869ZM31.371 19.9206L19.8133 27.5275V28.1485L31.371 20.9042V19.9206ZM31.371 17.9551L19.8133 26.2865V26.9066L31.371 18.9379V17.9551ZM0.00908108 40.5632L0.00660442 40.5648L0.0132088 40.5607L10.2407 34.7915C10.2212 34.6957 10.2025 34.5995 10.1847 34.5031L0.00990663 40.5607L0.00660442 40.5648L0.00330221 40.5656L0.00908108 40.5632Z" fill="#0D67FE"/>
</svg>
