<svg width="226" height="48" viewBox="0 0 226 48" fill="none" xmlns="http://www.w3.org/2000/svg">
<path d="M78.7277 7.28857V15.8102C78.7277 18.6652 77.1245 20.1491 75.1182 20.1491C73.4892 20.1491 72.2117 19.1859 72.2117 16.5739V7.28857H69.2109V16.8342C69.2109 20.4876 71.14 22.8479 74.3552 22.8479C75.2526 22.8587 76.1361 22.6221 76.9109 22.1635C77.6857 21.7049 78.3226 21.0415 78.7535 20.2446H78.8049V22.414H81.7371V7.28857H78.7277Z" fill="white"/>
<path d="M91.7491 6.85304C90.834 6.84015 89.932 7.07461 89.1362 7.53224C88.3405 7.98987 87.6797 8.65409 87.2222 9.45639H87.1622V7.28694H84.23V22.395H87.2136V13.8821C87.2136 11.0271 88.8684 9.54317 90.9603 9.54317C92.6751 9.54317 94.0212 10.5064 94.0212 13.1098V22.395H97.0134V12.8494C97.0219 9.24812 95.0071 6.85304 91.7491 6.85304Z" fill="white"/>
<path d="M105.893 13.2481H105.318C102.746 13.2481 102.223 12.7795 102.223 11.5993C102.223 10.4191 103.261 9.45589 105.181 9.45589C105.55 9.4254 105.921 9.47367 106.27 9.59759C106.619 9.7215 106.939 9.91829 107.208 10.1752C107.477 10.4321 107.69 10.7434 107.832 11.0889C107.975 11.4344 108.045 11.8064 108.036 12.1807H111.157C110.943 9.12613 108.713 6.85254 105.155 6.85254C101.117 6.85254 99.1023 9.26498 99.1023 11.5993C99.1023 14.3242 101.331 15.8862 104.127 15.8862H104.984C107.556 15.8862 108.353 16.4936 108.353 17.9515C108.353 19.2358 107.05 20.2251 105.095 20.2251C104.317 20.2561 103.557 19.9775 102.978 19.4488C102.4 18.9201 102.049 18.1834 102 17.3961H98.8794C99.068 20.5288 101.623 22.8371 105.095 22.8371C109.271 22.8371 111.448 20.39 111.448 17.9515C111.431 15.1486 109.254 13.2481 105.893 13.2481Z" fill="white"/>
<path d="M120.818 9.92544V7.32209H116.771V5.21338H113.788V7.28738H111.344V9.89073H113.788V18.3603C113.788 21.1893 115.254 22.3955 118.023 22.3955H120.818V19.7921H118.289C118.081 19.8044 117.873 19.771 117.68 19.6943C117.486 19.6175 117.311 19.4992 117.167 19.3474C117.023 19.1957 116.913 19.0142 116.844 18.8153C116.776 18.6164 116.751 18.405 116.771 18.1954V9.95148L120.818 9.92544Z" fill="white"/>
<path d="M129.225 6.85254C125.05 6.85254 121.74 9.70755 121.74 14.8448C121.74 19.9821 125.05 22.8371 129.225 22.8371C133.4 22.8371 136.718 19.9561 136.718 14.8448C136.718 9.73358 133.418 6.85254 129.225 6.85254ZM129.225 20.2251C126.782 20.2251 124.827 18.4895 124.827 14.8448C124.827 11.2001 126.782 9.42986 129.225 9.45589C131.669 9.48192 133.623 11.1915 133.623 14.8448C133.623 18.4982 131.677 20.1991 129.225 20.2251Z" fill="white"/>
<path d="M146.832 6.85241C145.817 6.82693 144.814 7.06868 143.92 7.55396C143.025 8.03925 142.271 8.75141 141.73 9.62064H141.67C141.719 9.09282 141.739 8.56266 141.73 8.0326V7.2863H138.738V25.1106H141.73V21.7349C141.739 21.1759 141.719 20.6169 141.67 20.0601H141.73C142.26 20.9401 143.012 21.6613 143.909 22.1494C144.805 22.6375 145.814 22.8748 146.832 22.837C150.493 22.837 153.691 20.008 153.691 14.7579C153.691 9.50783 150.493 6.85241 146.832 6.85241ZM146.069 20.225C143.299 20.225 141.696 17.8125 141.696 14.7319C141.696 11.8248 143.299 9.52518 146.069 9.45576C148.838 9.38634 150.579 11.5732 150.579 14.7579C150.579 17.9427 148.787 20.2597 146.069 20.225Z" fill="white"/>
<path d="M163.87 6.85241C162.855 6.82693 161.852 7.06868 160.957 7.55396C160.063 8.03925 159.309 8.75141 158.768 9.62064H158.708C158.757 9.09282 158.777 8.56266 158.768 8.0326V7.2863H155.802V25.1106H158.794V21.7349C158.803 21.1759 158.783 20.6169 158.734 20.0601H158.794C159.324 20.9401 160.076 21.6613 160.972 22.1494C161.869 22.6375 162.878 22.8748 163.895 22.837C167.556 22.837 170.754 20.008 170.754 14.7579C170.754 9.50783 167.531 6.85241 163.87 6.85241ZM163.107 20.225C160.337 20.225 158.734 17.8125 158.734 14.7319C158.734 11.8248 160.337 9.52518 163.107 9.45576C165.876 9.38634 167.616 11.5732 167.616 14.7579C167.616 17.9427 165.824 20.2597 163.107 20.225Z" fill="white"/>
<path d="M186.089 19.7652C185.687 19.7652 185.498 19.5135 185.498 19.0189V12.3716C185.498 9.18688 183.972 6.85254 179.496 6.85254C175.158 6.85254 173.169 9.04803 172.955 12.1807H175.938C176.135 10.4452 177.464 9.45589 179.496 9.45589C181.211 9.45589 182.428 10.2282 182.428 11.4344C182.428 12.4237 181.751 13.0312 179.522 13.0312H178.33C174.772 13.0312 172.389 14.489 172.389 17.8126C172.389 21.2838 174.909 22.8892 177.867 22.8892C180.071 22.8892 181.94 21.8999 182.677 19.7912C182.754 21.3272 183.757 22.3945 185.661 22.3945H187.376V19.7912L186.089 19.7652ZM182.506 15.3655C182.506 18.7759 180.688 20.2598 178.356 20.2598C176.324 20.2598 175.51 19.0449 175.51 17.8126C175.51 16.5804 176.213 15.6692 178.382 15.6692H178.819C180.911 15.6692 182.248 14.9229 182.48 13.6386L182.506 15.3655Z" fill="white"/>
<path d="M197.315 6.85241C196.301 6.82693 195.297 7.06868 194.403 7.55396C193.508 8.03925 192.754 8.75141 192.214 9.62064H192.154C192.203 9.09282 192.223 8.56266 192.214 8.0326V2.46143H189.247V22.4204H192.239V21.7609C192.248 21.202 192.228 20.6429 192.179 20.0861H192.239C192.77 20.9655 193.522 21.6862 194.418 22.1742C195.315 22.6622 196.323 22.8999 197.341 22.863C201.002 22.863 204.2 20.034 204.2 14.7839C204.2 9.53386 200.976 6.85241 197.315 6.85241ZM196.552 20.225C193.783 20.225 192.179 17.8125 192.179 14.7319C192.179 11.8248 193.783 9.52518 196.552 9.45576C199.321 9.38634 201.062 11.5732 201.062 14.7579C201.062 17.9427 199.27 20.2597 196.552 20.225Z" fill="white"/>
<path d="M206.073 2.46143V22.4204H209.065V2.46143H206.073Z" fill="white"/>
<path d="M225.905 13.4737C225.905 9.68152 222.921 6.85254 218.848 6.85254C214.51 6.85254 211.492 9.84639 211.492 14.8448C211.492 19.6524 214.45 22.8371 218.848 22.8371C222.458 22.8371 225.15 20.6937 225.776 17.7519H222.518C222.241 18.5023 221.737 19.1452 221.078 19.5892C220.42 20.0332 219.639 20.2557 218.848 20.2251C216.628 20.2251 214.999 18.611 214.647 15.8862H225.905V13.4737ZM214.673 13.2221C214.795 12.1865 215.286 11.2317 216.055 10.5379C216.825 9.8441 217.818 9.45922 218.848 9.45589C219.869 9.44846 220.854 9.83306 221.605 10.5321C222.356 11.231 222.817 12.1924 222.895 13.2221H214.673Z" fill="white"/>
<path d="M81.2141 25.11V30.5857C81.2141 31.1671 81.2141 31.6357 81.2656 32.2605H81.2141C80.6778 31.3774 79.9182 30.6552 79.0138 30.1686C78.1095 29.682 77.0932 29.4485 76.0699 29.4923C72.3746 29.4923 69.2109 32.2605 69.2109 37.3458C69.2109 42.6219 72.3832 45.4769 76.0699 45.4769C77.0917 45.5056 78.1033 45.2647 79.0053 44.7778C79.9072 44.2909 80.6684 43.5748 81.2141 42.7C81.1627 43.3074 81.1627 43.75 81.1627 44.2967V45.043H84.1463V25.084L81.2141 25.11ZM76.8673 42.8649C74.1322 42.8649 72.3403 40.6433 72.3403 37.3458C72.3403 34.187 74.1322 32.0696 76.8673 32.0957C79.6023 32.1217 81.2141 34.4126 81.2141 37.3197C81.2141 40.4004 79.5937 42.8388 76.8501 42.8649H76.8673Z" fill="white"/>
<path d="M94.1086 29.4937C89.9247 29.4937 86.6152 32.3487 86.6152 37.4859C86.6152 42.6232 89.9247 45.4782 94.1086 45.4782C98.2926 45.4782 101.602 42.5972 101.602 37.4859C101.602 32.3747 98.284 29.4937 94.1086 29.4937ZM94.1086 42.8662C91.6651 42.8662 89.7103 41.1306 89.7103 37.4859C89.7103 33.8412 91.6651 32.071 94.1086 32.097C96.5521 32.123 98.5069 33.8326 98.5069 37.4859C98.5069 41.1393 96.5521 42.8402 94.1086 42.8662V42.8662Z" fill="white"/>
<path d="M120.57 29.4924C119.625 29.4701 118.692 29.7118 117.874 30.1909C117.055 30.6701 116.383 31.3682 115.931 32.2086H115.854L115.931 32.8941C115.658 31.8815 115.053 30.993 114.214 30.3749C113.376 29.7567 112.355 29.4455 111.319 29.4924C110.429 29.4991 109.558 29.7537 108.802 30.2282C108.046 30.7028 107.434 31.3789 107.032 32.1826H106.981V29.9263H104.048V45.0431H107.032V36.5215C107.032 33.6665 108.635 32.1826 110.53 32.1826C112.133 32.1826 113.274 33.2499 113.274 35.7578V45.0431H116.257V36.4954C116.257 33.6404 117.912 32.1565 119.815 32.1565C121.419 32.1565 122.525 33.2239 122.525 35.7318V45.0171H125.517V35.4715C125.543 31.8528 123.614 29.4924 120.57 29.4924Z" fill="white"/>
<path d="M141.686 42.4063C141.283 42.4063 141.094 42.1546 141.094 41.66V35.0128C141.094 31.828 139.568 29.4937 135.092 29.4937C130.746 29.4937 128.765 31.6891 128.551 34.8218H131.534C131.723 33.0863 133.06 32.097 135.092 32.097C136.807 32.097 138.025 32.8693 138.025 34.0755C138.025 35.0648 137.347 35.6723 135.118 35.6723H133.926C130.368 35.6723 127.985 37.1301 127.985 40.4538C127.985 43.9249 130.506 45.539 133.463 45.539C135.658 45.539 137.536 44.5497 138.265 42.4323C138.35 43.9683 139.354 45.0357 141.257 45.0357H142.972V42.4323L141.686 42.4063ZM138.102 38.0066C138.102 41.417 136.284 42.9009 133.952 42.9009C131.92 42.9009 131.106 41.686 131.106 40.4538C131.106 39.2215 131.809 38.3103 133.978 38.3103H134.415C136.507 38.3103 137.845 37.564 138.076 36.2797L138.102 38.0066Z" fill="white"/>
<path d="M144.757 29.9268V45.0435H147.741V29.9268H144.757Z" fill="white"/>
<path d="M158.603 29.4942C157.688 29.4813 156.786 29.7157 155.99 30.1734C155.194 30.631 154.533 31.2952 154.076 32.0975H154.016V29.928H151.092V45.0448H154.093V36.5232C154.093 33.6682 155.748 32.1843 157.84 32.1843C159.555 32.1843 160.901 33.1475 160.901 35.7596V45.0448H163.893V35.4992C163.876 31.8545 161.861 29.4942 158.603 29.4942Z" fill="white"/>
<path d="M173.287 35.8892H172.721C170.149 35.8892 169.626 35.4293 169.626 34.2404C169.626 33.0516 170.655 32.097 172.584 32.097C172.952 32.0678 173.322 32.117 173.67 32.2415C174.018 32.366 174.337 32.563 174.605 32.8198C174.873 33.0765 175.085 33.3874 175.227 33.7322C175.369 34.0771 175.439 34.4483 175.43 34.8218H178.551C178.337 31.7672 176.108 29.4937 172.55 29.4937C168.503 29.4937 166.497 31.9061 166.497 34.2404C166.497 36.9653 168.717 38.5273 171.521 38.5273H172.327C174.899 38.5273 175.696 39.1347 175.696 40.5926C175.696 41.8769 174.393 42.8662 172.438 42.8662C171.66 42.895 170.901 42.6156 170.323 42.0874C169.745 41.5591 169.394 40.8237 169.343 40.0372H166.222C166.411 43.1699 168.966 45.4782 172.438 45.4782C176.622 45.4782 178.791 43.0311 178.791 40.5926C178.825 37.7897 176.656 35.8892 173.287 35.8892Z" fill="white"/>
<path d="M0 40.5517L0.00330088 40.5492L0.00990263 40.5443L0 40.5517L0.01898 40.5377L9.97865 33.0472C9.92835 32.5211 9.90263 31.9877 9.90263 31.4483V18.2069L19.8053 12.7448V25.6552L31.3583 16.9655V6.37241L42.9114 0V8.27503L52.814 0.827586V2.48276L42.9114 9.61986V10.9647L52.814 4.13793V5.7931L42.9114 12.3095V13.6543L52.814 7.44828V9.10345L42.9114 14.9992V16.3448L52.814 10.7586V12.4138L42.9114 17.6897V19.0337L52.814 14.069V15.7241L42.9114 20.3785V21.7233L52.814 17.3793V19.0345L42.9114 23.0681V31.4483C42.9114 40.5895 35.5221 48 26.407 48C18.9505 48 12.6489 43.041 10.6025 36.2322L0.00660175 40.5484L0 40.5517ZM10.4377 35.6446L0.0132035 40.5443L0.00907741 40.5468L10.5167 35.937C10.4895 35.8399 10.4632 35.7424 10.4377 35.6446ZM10.0846 33.9145L0.01898 40.5377L0.00990263 40.5443L10.1301 34.2025C10.1141 34.1068 10.0989 34.0107 10.0846 33.9145ZM10.298 35.0659L0.026407 40.5377L10.3649 35.3543C10.3418 35.2585 10.3195 35.1624 10.298 35.0659ZM10.0089 33.3373L0.0313583 40.5294L10.0443 33.6264C10.0317 33.5303 10.0199 33.4339 10.0089 33.3373ZM31.3583 27.7755L19.8909 32.4478C20.3631 35.1709 22.7314 37.2414 25.5818 37.2414C28.7721 37.2414 31.3583 34.6477 31.3583 31.4483V27.7755ZM31.3583 25.8091L19.8053 31.2406V31.4483C19.8053 31.585 19.81 31.7206 19.8193 31.8549L31.3583 26.7923V25.8091ZM31.3583 23.8452L19.8053 30V30.6199L31.3583 24.8268V23.8452ZM31.3583 21.8781L19.8053 28.7578V29.3793L31.3583 22.8621V21.8781ZM31.3583 19.9126L19.8053 27.5164V28.1371L31.3583 20.8957V19.9126ZM31.3583 17.9479L19.8053 26.2759V26.8957L31.3583 18.9302V17.9479ZM0.00907741 40.5468L0.00660175 40.5484L0.0132035 40.5443L10.2366 34.7774C10.2171 34.6816 10.1984 34.5855 10.1806 34.4892L0.00990263 40.5443L0.00660175 40.5484L0.00330088 40.5492L0.00907741 40.5468Z" fill="white"/>
</svg>
