<svg width="212" height="180" viewBox="0 0 212 180" fill="none" xmlns="http://www.w3.org/2000/svg">
<g id="Website" clip-path="url(#clip0_5729_16502)">
<g id="Group 1321320914">
<g id="freepik--background-complete--inject-312">
<path id="Vector" d="M197.607 112.395L193.408 112.484L191.274 112.519C190.563 112.519 189.847 112.519 189.133 112.539H188.992L188.992 112.395L188.992 108.814L188.992 108.654H189.152L193.389 108.676C194.8 108.676 196.215 108.711 197.626 108.727H197.715L197.715 108.814C197.715 109.422 197.69 110.027 197.674 110.625L197.607 112.395ZM197.607 112.395L197.562 110.587C197.546 109.991 197.527 109.403 197.52 108.814L197.607 108.903C196.195 108.919 194.781 108.955 193.37 108.955L189.133 108.974L189.293 108.814L189.293 112.395L189.149 112.254C189.847 112.254 190.544 112.254 191.245 112.27L193.347 112.308L197.607 112.395Z" fill="#EBEBEB"/>
<path id="Vector_2" d="M81.5047 65.2712L77.3063 65.3608L75.1751 65.396C74.4615 65.396 73.7447 65.396 73.0311 65.396H72.8903L72.8903 65.252L72.8711 61.6712L72.8711 61.5112H73.0311L77.2679 61.5304C78.6823 61.5304 80.0935 61.5656 81.5047 61.5816H81.5943L81.5943 61.668C81.5943 62.276 81.5655 62.8776 81.5495 63.476L81.5047 65.2712ZM81.5047 65.2712L81.4599 63.46C81.4599 62.8648 81.4247 62.276 81.4183 61.6904L81.5047 61.7768C80.0935 61.7768 78.6823 61.828 77.2679 61.828L73.0311 61.8504L73.1911 61.6904L73.1751 65.2712L73.0311 65.1272C73.7287 65.1272 74.4263 65.1272 75.1271 65.1464L77.2327 65.1816L81.5047 65.2712Z" fill="#EBEBEB"/>
<path id="Vector_3" d="M76.7728 69.7864L72.5744 69.876L70.44 69.9112C69.7296 69.9112 69.0128 69.9112 68.2992 69.9272H68.1584L68.1584 69.7832L68.1328 66.2088L68.1328 66.0488H68.2928L72.5296 66.068C73.9408 66.068 75.3552 66.1032 76.7664 66.1192H76.856L76.856 66.2088C76.856 66.8168 76.8304 67.4184 76.8144 68.0168L76.7728 69.7864ZM76.7728 69.7864L76.728 67.9752C76.712 67.38 76.6928 66.7912 76.6864 66.2056L76.7728 66.292C75.3616 66.308 73.9472 66.3432 72.536 66.3432L68.2992 66.3656L68.4592 66.2056L68.4528 69.7864L68.3088 69.6424C69.0064 69.6424 69.704 69.6424 70.4048 69.6616L72.5072 69.6968L76.7728 69.7864Z" fill="#EBEBEB"/>
<path id="Vector_4" d="M86.2313 69.7864L82.0329 69.876L79.9017 69.9112C79.1881 69.9112 78.4745 69.9112 77.7577 69.9272H77.6169L77.6169 69.7832L77.5977 66.2088L77.5977 66.0488H77.7577L81.9945 66.068C83.4089 66.068 84.8201 66.1032 86.2313 66.1192H86.3209L86.3209 66.2088C86.3209 66.8168 86.2921 67.4184 86.2793 68.0168L86.2313 69.7864ZM86.2313 69.7864L86.1865 67.9752C86.1865 67.38 86.1513 66.7912 86.1449 66.2056L86.2313 66.292C84.8201 66.308 83.4089 66.3432 81.9945 66.3432L77.7577 66.3656L77.9177 66.2056L77.9017 69.7864L77.7577 69.6424C78.4585 69.6424 79.1529 69.6424 79.8537 69.6616L81.9593 69.6968L86.2313 69.7864Z" fill="#EBEBEB"/>
<path id="Vector_5" d="M152.887 65.2679L148.689 65.3575L146.558 65.3927C145.844 65.4087 145.128 65.3927 144.414 65.4087H144.273L144.273 65.2647L144.254 61.6839L144.254 61.5239H144.414L148.651 61.5431C150.065 61.5431 151.476 61.5815 152.887 61.5975H152.977L152.977 61.6839C152.977 62.2919 152.952 62.8967 152.936 63.4919L152.887 65.2679ZM152.887 65.2679L152.843 63.4599C152.827 62.8615 152.808 62.2727 152.801 61.6871L152.887 61.7735C151.476 61.7895 150.065 61.8247 148.651 61.8279L144.414 61.8471L144.574 61.6871L144.558 65.2679L144.414 65.1239C145.112 65.1239 145.809 65.1239 146.51 65.1431L148.616 65.1783L152.887 65.2679Z" fill="#EBEBEB"/>
<path id="Vector_6" d="M202.091 68.0712L203.976 65.0344L203.044 64.4584C202.911 64.3745 202.804 64.2553 202.735 64.1141C202.665 63.9728 202.636 63.8151 202.651 63.6584C202.66 63.4804 202.66 63.302 202.651 63.124C202.646 62.9669 202.685 62.8115 202.764 62.6753C202.842 62.5392 202.957 62.4275 203.096 62.3528L204.056 61.8344L202.366 58.6856L201.406 59.2008C201.267 59.2751 201.11 59.3091 200.953 59.2989C200.796 59.2887 200.645 59.2348 200.516 59.1432C200.372 59.044 200.219 58.948 200.062 58.8616C199.924 58.7876 199.808 58.6766 199.729 58.541C199.65 58.4054 199.61 58.2505 199.614 58.0936L199.649 56.9992L196.078 56.8872L196.046 57.9848C196.039 58.1421 195.989 58.2945 195.901 58.425C195.813 58.5555 195.69 58.659 195.547 58.724L195.313 58.8424C195.233 58.884 195.156 58.9288 195.083 58.9736C194.95 59.0561 194.796 59.0998 194.64 59.0998C194.483 59.0998 194.33 59.0561 194.196 58.9736L193.259 58.3944L191.374 61.4312L192.308 62.0072C192.441 62.0917 192.548 62.2109 192.617 62.352C192.687 62.4931 192.716 62.6506 192.702 62.8072C192.686 62.9849 192.68 63.1633 192.683 63.3416C192.688 63.498 192.649 63.6525 192.571 63.7881C192.493 63.9237 192.379 64.035 192.241 64.1096L191.281 64.628L192.971 67.78L193.931 67.2616C194.07 67.1887 194.226 67.1555 194.382 67.1656C194.539 67.1758 194.689 67.2289 194.817 67.3192C194.963 67.4199 195.113 67.5128 195.268 67.5976C195.408 67.671 195.524 67.7823 195.603 67.9187C195.683 68.0551 195.722 68.2111 195.716 68.3688L195.684 69.4632L199.256 69.5752L199.291 68.4776C199.297 68.321 199.347 68.1692 199.434 68.0392C199.522 67.9092 199.644 67.8062 199.787 67.7416L200.024 67.6232L200.254 67.492C200.388 67.4096 200.542 67.366 200.699 67.366C200.856 67.366 201.01 67.4096 201.144 67.492L202.091 68.0712ZM199.067 65.8312C198.556 66.1048 197.976 66.2209 197.4 66.1649C196.824 66.1088 196.277 65.8831 195.829 65.5164C195.381 65.1496 195.052 64.6582 194.883 64.1043C194.714 63.5504 194.713 62.9588 194.88 62.4045C195.048 61.8501 195.376 61.3578 195.823 60.9898C196.27 60.6219 196.816 60.3947 197.392 60.3371C197.968 60.2795 198.549 60.3941 199.06 60.6663C199.571 60.9385 199.99 61.3561 200.264 61.8664C200.627 62.5491 200.705 63.3478 200.48 64.0878C200.256 64.8278 199.748 65.4489 199.067 65.8152L199.067 65.8312Z" fill="#EBEBEB"/>
<path id="Vector_7" d="M31.0803 131.457L29.8291 129.287L29.1635 129.671C29.0677 129.726 28.9586 129.753 28.8483 129.749C28.738 129.745 28.6311 129.711 28.5395 129.649C28.4362 129.582 28.3293 129.52 28.2195 129.463C28.1225 129.413 28.0413 129.337 27.9849 129.243C27.9284 129.149 27.8989 129.042 27.8995 128.932L27.8995 128.167H25.3811L25.3811 128.929C25.3817 129.038 25.3522 129.146 25.2957 129.24C25.2393 129.333 25.1581 129.41 25.0611 129.46C24.9491 129.518 24.8403 129.579 24.7411 129.646C24.6478 129.711 24.5379 129.747 24.4244 129.751C24.3109 129.755 24.1987 129.726 24.1011 129.668L23.4387 129.284L22.1875 131.454L22.8531 131.838C22.948 131.894 23.0255 131.974 23.0769 132.072C23.1283 132.169 23.1517 132.279 23.1443 132.388C23.1443 132.449 23.1443 132.513 23.1443 132.574C23.1443 132.635 23.1443 132.695 23.1443 132.759C23.1518 132.868 23.1288 132.977 23.0779 133.074C23.0271 133.171 22.9503 133.251 22.8563 133.307L22.1875 133.694L23.4387 135.863L24.1043 135.479C24.2019 135.421 24.3141 135.393 24.4276 135.397C24.5411 135.401 24.651 135.437 24.7443 135.502C24.8476 135.569 24.9545 135.631 25.0643 135.687C25.1608 135.738 25.2417 135.814 25.2981 135.907C25.3545 136 25.3843 136.107 25.3843 136.215L25.3843 136.983H27.8899L27.8899 136.215C27.8895 136.107 27.9192 136 27.9756 135.906C28.0321 135.813 28.1131 135.738 28.2099 135.687C28.3187 135.63 28.4275 135.569 28.5299 135.502C28.6215 135.44 28.7284 135.406 28.8387 135.402C28.949 135.398 29.0581 135.425 29.1539 135.479L29.8195 135.863L31.0707 133.694L30.4051 133.31C30.3102 133.254 30.2327 133.173 30.1813 133.076C30.1299 132.979 30.1065 132.869 30.1139 132.759C30.1139 132.699 30.1139 132.635 30.1139 132.574C30.1139 132.513 30.1139 132.449 30.1139 132.388C30.1065 132.279 30.1299 132.169 30.1813 132.072C30.2327 131.974 30.3102 131.894 30.4051 131.838L31.0803 131.457ZM28.6867 132.577C28.6867 132.983 28.5664 133.379 28.341 133.717C28.1156 134.054 27.7953 134.317 27.4205 134.472C27.0457 134.627 26.6332 134.668 26.2353 134.589C25.8374 134.51 25.4719 134.314 25.1851 134.027C24.8982 133.741 24.7029 133.375 24.6237 132.977C24.5446 132.579 24.5852 132.167 24.7404 131.792C24.8957 131.417 25.1586 131.097 25.4959 130.872C25.8332 130.646 26.2298 130.526 26.6355 130.526C27.1795 130.526 27.7012 130.742 28.0859 131.127C28.4706 131.511 28.6867 132.033 28.6867 132.577Z" fill="#EBEBEB"/>
<path id="Vector_8" d="M10.8112 48.2887C10.8112 47.8887 10.8656 46.8231 10.8656 46.3687C10.8656 44.4231 10.1712 43.5431 8.36 43.4887C7.5056 43.4375 7 42.9319 7 42.2087C7 41.4855 7.5056 40.9831 8.36 40.9287C10.1712 40.8583 10.8528 40.0071 10.8528 38.0487C10.8528 37.5975 10.7984 36.5319 10.7984 36.1287C10.7984 33.5431 11.8896 31.8919 16.0208 30.9863C16.8464 30.7975 17.4864 31.3063 17.4864 32.0775C17.4944 32.315 17.4264 32.5489 17.2923 32.7452C17.1582 32.9414 16.965 33.0898 16.7408 33.1687C14.1552 33.9687 13.7808 34.7943 13.7808 36.6087C13.7808 37.1399 13.8352 38.0199 13.8352 38.5799C13.8352 40.6567 12.824 41.6711 11.064 42.2311C12.8496 42.8167 13.8352 43.8023 13.8352 45.8823C13.8352 46.4391 13.7808 47.3191 13.7808 47.8535C13.7808 49.6647 14.1552 50.4903 16.7408 51.2903C16.965 51.3691 17.1582 51.5175 17.2923 51.7137C17.4264 51.91 17.4944 52.1439 17.4864 52.3815C17.4864 53.1558 16.8464 53.6615 16.0208 53.4759C11.9024 52.5575 10.8112 50.9031 10.8112 48.2887Z" fill="#EBEBEB"/>
<path id="Vector_9" d="M26.4269 36.1288C26.4269 36.5288 26.3725 37.5944 26.3725 38.0488C26.3725 40.0232 27.0925 40.8744 28.9037 40.9544C29.7294 41.0088 30.235 41.5144 30.235 42.2344C30.235 42.9544 29.7294 43.46 28.9037 43.5144C27.0925 43.5688 26.3725 44.4488 26.3725 46.3944C26.3725 46.8456 26.4269 47.9112 26.4269 48.3144C26.4269 50.9256 25.3325 52.58 21.2013 53.4856C20.3757 53.6712 19.7389 53.1656 19.7389 52.3912C19.7306 52.15 19.8014 51.9128 19.9407 51.7157C20.08 51.5186 20.28 51.3726 20.5101 51.3C23.0701 50.5 23.4413 49.6744 23.4413 47.8632C23.4413 47.3288 23.3869 46.4488 23.3869 45.892C23.3869 43.812 24.4013 42.8008 26.1581 42.2408C24.3725 41.6552 23.3869 40.6664 23.3869 38.5896C23.3869 38.0296 23.4413 37.1496 23.4413 36.6184C23.4413 34.804 23.0669 33.9784 20.5101 33.1784C20.28 33.1058 20.08 32.9598 19.9407 32.7627C19.8014 32.5657 19.7306 32.3284 19.7389 32.0872C19.7389 31.316 20.3789 30.8072 21.2013 30.996C25.3325 31.8792 26.4269 33.5304 26.4269 36.1288Z" fill="#EBEBEB"/>
</g>
<g id="freepik--Floor--inject-312">
<path id="Vector_10" d="M-3 153.649L22.9424 153.572L48.8848 153.544L100.77 153.489L152.654 153.544L178.597 153.572L204.539 153.649L178.597 153.729L152.654 153.758L100.77 153.809L48.8848 153.755L22.9424 153.729L-3 153.649Z" fill="#407BFF"/>
</g>
<g id="freepik--Device--inject-312">
<path id="Vector_11" opacity="0.9" d="M188.734 147.242H12.8047L12.8047 153.649H188.734L188.734 147.242Z" fill="#EEEEEE"/>
<path id="Vector_12" d="M170.556 53.8789H30.9844L30.9844 147.242H170.556L170.556 53.8789Z" fill="#DBDBDB"/>
<path id="Vector_13" d="M169.546 55.0181H32L32 146.103H169.546L169.546 55.0181Z" fill="#407BFF"/>
<path id="Vector_14" d="M163.451 60.8711H38.0879L38.0879 140.247H163.451L163.451 60.8711Z" fill="#455A64"/>
<path id="Vector_15" d="M64.9679 63.9268H38.0879L38.0879 140.25H64.9679L64.9679 63.9268Z" fill="#37474F"/>
<path id="Vector_16" d="M40.9647 63.9268H38.0879L38.0879 140.25H40.9647L40.9647 63.9268Z" fill="#455A64"/>
<path id="Vector_17" d="M64.9712 90.0293H40.9648L40.9648 91.1653H64.9712L64.9712 90.0293Z" fill="#DDE2F0"/>
<path id="Vector_18" d="M52.975 67.7158H43.6406L43.6406 68.2246H52.975L52.975 67.7158Z" fill="white"/>
<path id="Vector_19" d="M42.4473 67.8086H43.0489L42.7481 68.1286L42.4473 67.8086Z" fill="white"/>
<path id="Vector_20" d="M45.6271 69.6006H44.3887L44.3887 70.1094H45.6271L45.6271 69.6006Z" fill="white"/>
<path id="Vector_21" d="M43.6406 70.1538L43.6406 69.5522L43.9606 69.853L43.6406 70.1538Z" fill="white"/>
<path id="Vector_22" d="M45.6271 71.4854H44.3887L44.3887 71.9942H45.6271L45.6271 71.4854Z" fill="white"/>
<path id="Vector_23" d="M43.498 71.5781H44.0996L43.7988 71.8981L43.498 71.5781Z" fill="white"/>
<path id="Vector_24" d="M45.6271 73.3701H44.3887L44.3887 73.8789H45.6271L45.6271 73.3701Z" fill="white"/>
<path id="Vector_25" d="M43.498 73.4629H44.0996L43.7988 73.7861L43.498 73.4629Z" fill="white"/>
<path id="Vector_26" d="M46.379 75.2549H45.1406L45.1406 75.7637H46.379L46.379 75.2549Z" fill="white"/>
<path id="Vector_27" d="M44.3887 75.8081L44.3887 75.2065L44.7119 75.5073L44.3887 75.8081Z" fill="white"/>
<path id="Vector_28" d="M47.129 77.1431H45.8906L45.8906 77.6519H47.129L47.129 77.1431Z" fill="white"/>
<path id="Vector_29" d="M45.1406 77.6963L45.1406 77.0947L45.4638 77.3955L45.1406 77.6963Z" fill="white"/>
<path id="Vector_30" d="M47.129 95.9912H45.8906L45.8906 96.5H47.129L47.129 95.9912Z" fill="white"/>
<path id="Vector_31" d="M45.1406 96.5445L45.1406 95.9429L45.4638 96.2437L45.1406 96.5445Z" fill="white"/>
<path id="Vector_32" d="M47.8829 79.0244H46.6445L46.6445 79.5332H47.8829L47.8829 79.0244Z" fill="white"/>
<path id="Vector_33" d="M45.8906 79.5782L45.8906 78.9766L46.2138 79.2774L45.8906 79.5782Z" fill="white"/>
<path id="Vector_34" d="M47.8829 94.106H46.6445L46.6445 94.6148H47.8829L47.8829 94.106Z" fill="white"/>
<path id="Vector_35" d="M45.8906 94.6597L45.8906 94.0581L46.2138 94.3589L45.8906 94.6597Z" fill="white"/>
<path id="Vector_36" d="M48.6349 80.9092H47.3965L47.3965 81.418H48.6349L48.6349 80.9092Z" fill="white"/>
<path id="Vector_37" d="M46.6445 81.4629L46.6445 80.8613L46.9677 81.1621L46.6445 81.4629Z" fill="white"/>
<path id="Vector_38" d="M48.6349 92.2183H47.3965L47.3965 92.7271H48.6349L48.6349 92.2183Z" fill="white"/>
<path id="Vector_39" d="M46.6445 92.7749L46.6445 92.1733L46.9677 92.4741L46.6445 92.7749Z" fill="white"/>
<path id="Vector_40" d="M49.3868 82.7974H48.1484L48.1484 83.3062H49.3868L49.3868 82.7974Z" fill="white"/>
<path id="Vector_41" d="M47.3965 83.3511L47.3965 82.7495L47.7197 83.0503L47.3965 83.3511Z" fill="white"/>
<path id="Vector_42" d="M49.5294 84.6792H48.291L48.291 85.188H49.5294L49.5294 84.6792Z" fill="white"/>
<path id="Vector_43" d="M47.3965 84.772H47.9981L47.6973 85.0952L47.3965 84.772Z" fill="white"/>
<path id="Vector_44" d="M49.5294 86.564H48.291L48.291 87.0728H49.5294L49.5294 86.564Z" fill="white"/>
<path id="Vector_45" d="M47.3965 86.6567H47.9981L47.6973 86.9799L47.3965 86.6567Z" fill="white"/>
<path id="Vector_46" d="M49.5294 88.4487H48.291L48.291 88.9575H49.5294L49.5294 88.4487Z" fill="white"/>
<path id="Vector_47" d="M47.3965 88.5415H47.9981L47.6973 88.8647L47.3965 88.5415Z" fill="white"/>
<path id="Vector_48" d="M49.5294 90.333H48.291L48.291 90.8418H49.5294L49.5294 90.333Z" fill="white"/>
<path id="Vector_49" d="M47.3965 90.4263H47.9981L47.6973 90.7495L47.3965 90.4263Z" fill="white"/>
<path id="Vector_50" d="M45.6271 97.876H44.3887L44.3887 98.3848H45.6271L45.6271 97.876Z" fill="white"/>
<path id="Vector_51" d="M43.6406 98.4292L43.6406 97.8276L43.9606 98.1284L43.6406 98.4292Z" fill="white"/>
<path id="Vector_52" d="M45.6271 99.7607H44.3887L44.3887 100.27H45.6271L45.6271 99.7607Z" fill="white"/>
<path id="Vector_53" d="M43.498 99.8535H44.0996L43.7988 100.177L43.498 99.8535Z" fill="white"/>
<path id="Vector_54" d="M45.6271 101.646H44.3887L44.3887 102.154H45.6271L45.6271 101.646Z" fill="white"/>
<path id="Vector_55" d="M43.498 101.738H44.0996L43.7988 102.061L43.498 101.738Z" fill="white"/>
<path id="Vector_56" d="M46.379 103.53H45.1406L45.1406 104.039H46.379L46.379 103.53Z" fill="white"/>
<path id="Vector_57" d="M44.3887 104.087L44.3887 103.485L44.7119 103.786L44.3887 104.087Z" fill="white"/>
<path id="Vector_58" d="M47.129 105.418H45.8906L45.8906 105.927H47.129L47.129 105.418Z" fill="white"/>
<path id="Vector_59" d="M45.1406 105.972L45.1406 105.37L45.4638 105.671L45.1406 105.972Z" fill="white"/>
<path id="Vector_60" d="M47.129 107.303H45.8906L45.8906 107.812H47.129L47.129 107.303Z" fill="white"/>
<path id="Vector_61" d="M45.1406 107.86L45.1406 107.258L45.4638 107.559L45.1406 107.86Z" fill="white"/>
<path id="Vector_62" d="M47.2716 109.188H46.0332L46.0332 109.697H47.2716L47.2716 109.188Z" fill="white"/>
<path id="Vector_63" d="M45.1406 109.28H45.7422L45.4414 109.603L45.1406 109.28Z" fill="white"/>
<path id="Vector_64" d="M47.2716 111.073H46.0332L46.0332 111.582H47.2716L47.2716 111.073Z" fill="white"/>
<path id="Vector_65" d="M45.1406 111.165H45.7422L45.4414 111.488L45.1406 111.165Z" fill="white"/>
<path id="Vector_66" d="M47.2716 112.958H46.0332L46.0332 113.466H47.2716L47.2716 112.958Z" fill="white"/>
<path id="Vector_67" d="M45.1406 113.05H45.7422L45.4414 113.373L45.1406 113.05Z" fill="white"/>
<path id="Vector_68" d="M47.2716 114.842H46.0332L46.0332 115.351H47.2716L47.2716 114.842Z" fill="white"/>
<path id="Vector_69" d="M45.1406 114.935H45.7422L45.4414 115.258L45.1406 114.935Z" fill="white"/>
<path id="Vector_70" d="M163.451 60.8711H38.0879L38.0879 63.9239H163.451L163.451 60.8711Z" fill="#DDE2F0"/>
<path id="Vector_71" d="M40.9631 62.4005C40.9631 62.515 40.9291 62.627 40.8655 62.7223C40.8018 62.8175 40.7114 62.8918 40.6055 62.9356C40.4997 62.9794 40.3832 62.9909 40.2709 62.9686C40.1585 62.9462 40.0553 62.8911 39.9743 62.81C39.8933 62.729 39.8382 62.6258 39.8158 62.5135C39.7935 62.4011 39.8049 62.2847 39.8488 62.1788C39.8926 62.073 39.9669 61.9825 40.0621 61.9189C40.1574 61.8553 40.2693 61.8213 40.3839 61.8213C40.5375 61.8213 40.6848 61.8823 40.7934 61.9909C40.9021 62.0996 40.9631 62.2469 40.9631 62.4005Z" fill="#C7C7C7"/>
<path id="Vector_72" d="M43.3225 62.4005C43.3225 62.515 43.2885 62.627 43.2249 62.7223C43.1612 62.8175 43.0707 62.8918 42.9649 62.9356C42.8591 62.9794 42.7426 62.9909 42.6303 62.9686C42.5179 62.9462 42.4147 62.8911 42.3337 62.81C42.2527 62.729 42.1975 62.6258 42.1752 62.5135C42.1528 62.4011 42.1643 62.2847 42.2082 62.1788C42.252 62.073 42.3262 61.9825 42.4215 61.9189C42.5167 61.8553 42.6287 61.8213 42.7433 61.8213C42.8969 61.8213 43.0442 61.8823 43.1528 61.9909C43.2614 62.0996 43.3225 62.2469 43.3225 62.4005Z" fill="white"/>
<path id="Vector_73" d="M45.6857 62.4005C45.6857 62.515 45.6518 62.627 45.5881 62.7223C45.5245 62.8175 45.434 62.8918 45.3282 62.9356C45.2224 62.9794 45.1059 62.9909 44.9935 62.9686C44.8812 62.9462 44.778 62.8911 44.697 62.81C44.616 62.729 44.5608 62.6258 44.5385 62.5135C44.5161 62.4011 44.5276 62.2847 44.5714 62.1788C44.6153 62.073 44.6895 61.9825 44.7848 61.9189C44.88 61.8553 44.992 61.8213 45.1065 61.8213C45.2602 61.8213 45.4075 61.8823 45.5161 61.9909C45.6247 62.0996 45.6857 62.2469 45.6857 62.4005Z" fill="#455A64"/>
<path id="Vector_74" d="M73.5456 77.498H71.2832L71.2832 78.0516H73.5456L73.5456 77.498Z" fill="#EBEBEB"/>
<path id="Vector_75" d="M126.347 77.498H76.2129L76.2129 78.0516H126.347L126.347 77.498Z" fill="#EBEBEB"/>
<path id="Vector_76" d="M132.035 77.498H127.74L127.74 78.0516H132.035L132.035 77.498Z" fill="#DDE2F0"/>
<path id="Vector_77" d="M149.112 90.6118H134.613L134.613 91.1654H149.112L149.112 90.6118Z" fill="#EBEBEB"/>
<path id="Vector_78" d="M154.255 77.498H132.969L132.969 78.0516H154.255L154.255 77.498Z" fill="#A6A6A6"/>
<path id="Vector_79" d="M73.5456 80.1187H71.2832L71.2832 80.6723H73.5456L73.5456 80.1187Z" fill="#EBEBEB"/>
<path id="Vector_80" d="M95.4432 80.1187H78.416L78.416 80.6723H95.4432L95.4432 80.1187Z" fill="#A6A6A6"/>
<path id="Vector_81" d="M133.596 90.6118H127.154L127.154 91.1654H133.596L133.596 90.6118Z" fill="#A6A6A6"/>
<path id="Vector_82" d="M92.4753 87.9878H76.2129L76.2129 88.5414H92.4753L92.4753 87.9878Z" fill="#A6A6A6"/>
<path id="Vector_83" d="M89.824 82.7432H78.416L78.416 83.2968H89.824L89.824 82.7432Z" fill="#DDE2F0"/>
<path id="Vector_84" d="M152.224 85.3638H130.611L130.611 85.9174H152.224L152.224 85.3638Z" fill="#A6A6A6"/>
<path id="Vector_85" d="M126.349 98.2373H104.736L104.736 98.7909H126.349L126.349 98.2373Z" fill="#A6A6A6"/>
<path id="Vector_86" d="M133.503 82.7427H91.0938L91.0938 83.2963H133.503L133.503 82.7427Z" fill="#A6A6A6"/>
<path id="Vector_87" d="M125.678 90.6118H76.2129L76.2129 91.1654H125.678L125.678 90.6118Z" fill="#DDE2F0"/>
<path id="Vector_88" d="M131.557 80.1187H96.5137L96.5137 80.6723H131.557L131.557 80.1187Z" fill="#EBEBEB"/>
<path id="Vector_89" d="M142.651 82.7427H135.316L135.316 83.2963H142.651L142.651 82.7427Z" fill="#EBEBEB"/>
<path id="Vector_90" d="M73.5456 82.7427H71.2832L71.2832 83.2963H73.5456L73.5456 82.7427Z" fill="#EBEBEB"/>
<path id="Vector_91" d="M73.5456 85.3638H71.2832L71.2832 85.9174H73.5456L73.5456 85.3638Z" fill="#A6A6A6"/>
<path id="Vector_92" d="M89.5793 85.3638H76.2129L76.2129 85.9174H89.5793L89.5793 85.3638Z" fill="#EBEBEB"/>
<path id="Vector_93" d="M91.7824 93.2324H78.416L78.416 93.786H91.7824L91.7824 93.2324Z" fill="#EBEBEB"/>
<path id="Vector_94" d="M146.196 95.8564H127.533L127.533 96.41H146.196L146.196 95.8564Z" fill="#DDE2F0"/>
<path id="Vector_95" d="M126.365 95.8564H90.5059L90.5059 96.41H126.365L126.365 95.8564Z" fill="#EBEBEB"/>
<path id="Vector_96" d="M88.464 95.8564H78.416L78.416 96.41H88.464L88.464 95.8564Z" fill="#A6A6A6"/>
<path id="Vector_97" d="M132.031 87.9878H93.3945L93.3945 88.5414H132.031L132.031 87.9878Z" fill="#EBEBEB"/>
<path id="Vector_98" d="M156.022 87.9878H132.969L132.969 88.5414H156.022L156.022 87.9878Z" fill="#DDE2F0"/>
<path id="Vector_99" d="M129.558 85.3638H90.9375L90.9375 85.9174H129.558L129.558 85.3638Z" fill="#DDE2F0"/>
<path id="Vector_100" d="M73.5456 87.9878H71.2832L71.2832 88.5414H73.5456L73.5456 87.9878Z" fill="#EBEBEB"/>
<path id="Vector_101" d="M73.5456 90.6118H71.2832L71.2832 91.1654H73.5456L73.5456 90.6118Z" fill="#EBEBEB"/>
<path id="Vector_102" d="M73.5456 93.2324H71.2832L71.2832 93.786H73.5456L73.5456 93.2324Z" fill="#A6A6A6"/>
<path id="Vector_103" d="M73.5456 95.8564H71.2832L71.2832 96.41H73.5456L73.5456 95.8564Z" fill="#EBEBEB"/>
<path id="Vector_104" d="M73.5456 98.2373H71.2832L71.2832 98.7909H73.5456L73.5456 98.2373Z" fill="#EBEBEB"/>
<path id="Vector_105" d="M102.731 98.2373H76.2129L76.2129 98.7909H102.731L102.731 98.2373Z" fill="#EBEBEB"/>
<path id="Vector_106" d="M73.5456 100.861H71.2832L71.2832 101.415H73.5456L73.5456 100.861Z" fill="#EBEBEB"/>
<path id="Vector_107" d="M95.4432 100.861H78.416L78.416 101.415H95.4432L95.4432 100.861Z" fill="#A6A6A6"/>
<path id="Vector_108" d="M92.4753 108.727H76.2129L76.2129 109.281H92.4753L92.4753 108.727Z" fill="#A6A6A6"/>
<path id="Vector_109" d="M89.824 103.482H78.416L78.416 104.036H89.824L89.824 103.482Z" fill="#DDE2F0"/>
<path id="Vector_110" d="M115.955 113.975H104.547L104.547 114.529H115.955L115.955 113.975Z" fill="#DDE2F0"/>
<path id="Vector_111" d="M89.824 119.22H78.416L78.416 119.773H89.824L89.824 119.22Z" fill="#DDE2F0"/>
<path id="Vector_112" d="M133.503 103.482H91.0938L91.0938 104.036H133.503L133.503 103.482Z" fill="#A6A6A6"/>
<path id="Vector_113" d="M125.678 111.351H76.2129L76.2129 111.905H125.678L125.678 111.351Z" fill="#DDE2F0"/>
<path id="Vector_114" d="M131.557 100.861H96.5137L96.5137 101.415H131.557L131.557 100.861Z" fill="#EBEBEB"/>
<path id="Vector_115" d="M138.974 106.106H131.652L131.652 106.66H138.974L138.974 106.106Z" fill="#EBEBEB"/>
<path id="Vector_116" d="M73.5456 103.482H71.2832L71.2832 104.036H73.5456L73.5456 103.482Z" fill="#EBEBEB"/>
<path id="Vector_117" d="M73.5456 106.106H71.2832L71.2832 106.66H73.5456L73.5456 106.106Z" fill="#A6A6A6"/>
<path id="Vector_118" d="M89.5793 106.106H76.2129L76.2129 106.66H89.5793L89.5793 106.106Z" fill="#EBEBEB"/>
<path id="Vector_119" d="M132.031 108.727H93.3945L93.3945 109.281H132.031L132.031 108.727Z" fill="#EBEBEB"/>
<path id="Vector_120" d="M129.558 106.106H90.9375L90.9375 106.66H129.558L129.558 106.106Z" fill="#DDE2F0"/>
<path id="Vector_121" d="M73.5456 108.727H71.2832L71.2832 109.281H73.5456L73.5456 108.727Z" fill="#EBEBEB"/>
<path id="Vector_122" d="M73.5456 113.975H71.2832L71.2832 114.529H73.5456L73.5456 113.975Z" fill="#EBEBEB"/>
<path id="Vector_123" d="M102.731 113.975H76.2129L76.2129 114.529H102.731L102.731 113.975Z" fill="#EBEBEB"/>
<path id="Vector_124" d="M73.5456 116.596H71.2832L71.2832 117.149H73.5456L73.5456 116.596Z" fill="#EBEBEB"/>
<path id="Vector_125" d="M95.4432 116.596H78.416L78.416 117.149H95.4432L95.4432 116.596Z" fill="#A6A6A6"/>
<path id="Vector_126" d="M92.4753 124.464H76.2129L76.2129 125.018H92.4753L92.4753 124.464Z" fill="#A6A6A6"/>
<path id="Vector_127" d="M133.503 119.22H91.0938L91.0938 119.773H133.503L133.503 119.22Z" fill="#A6A6A6"/>
<path id="Vector_128" d="M138.974 121.841H131.652L131.652 122.394H138.974L138.974 121.841Z" fill="#EBEBEB"/>
<path id="Vector_129" d="M73.5456 119.22H71.2832L71.2832 119.773H73.5456L73.5456 119.22Z" fill="#EBEBEB"/>
<path id="Vector_130" d="M73.5456 121.841H71.2832L71.2832 122.394H73.5456L73.5456 121.841Z" fill="#A6A6A6"/>
<path id="Vector_131" d="M89.5793 121.841H76.2129L76.2129 122.394H89.5793L89.5793 121.841Z" fill="#EBEBEB"/>
<path id="Vector_132" d="M132.031 124.464H93.3945L93.3945 125.018H132.031L132.031 124.464Z" fill="#EBEBEB"/>
<path id="Vector_133" d="M129.558 121.841H90.9375L90.9375 122.394H129.558L129.558 121.841Z" fill="#DDE2F0"/>
<path id="Vector_134" d="M73.5456 124.464H71.2832L71.2832 125.018H73.5456L73.5456 124.464Z" fill="#EBEBEB"/>
<path id="Vector_135" d="M72.6803 72.4289C72.6992 72.4468 72.7143 72.4684 72.7245 72.4924C72.7348 72.5163 72.7401 72.5421 72.7401 72.5681C72.7401 72.5941 72.7348 72.6199 72.7245 72.6438C72.7143 72.6678 72.6992 72.6894 72.6803 72.7073C72.6629 72.7254 72.642 72.7397 72.6189 72.7496C72.5959 72.7595 72.571 72.7647 72.5459 72.7649C72.4922 72.7653 72.4405 72.7446 72.4019 72.7073L71.5283 71.8241C71.5283 71.8241 71.5283 71.8241 71.5283 71.8049C71.527 71.7964 71.527 71.7878 71.5283 71.7793C71.5283 71.7793 71.5283 71.7633 71.5283 71.7601C71.5283 71.7569 71.5283 71.7601 71.5283 71.7441L71.5283 71.7217C71.5283 71.7217 71.5283 71.7217 71.5283 71.7025C71.5283 71.6833 71.5283 71.7025 71.5283 71.6865L71.5283 71.6481C71.5283 71.6481 71.5283 71.6321 71.5283 71.6225C71.533 71.6125 71.5383 71.6029 71.5443 71.5937C71.5443 71.5937 71.5443 71.5937 71.5603 71.5745L72.4339 70.6881C72.4714 70.6523 72.5213 70.6323 72.5731 70.6323C72.625 70.6323 72.6748 70.6523 72.7123 70.6881C72.7312 70.706 72.7463 70.7276 72.7565 70.7516C72.7668 70.7755 72.7721 70.8013 72.7721 70.8273C72.7721 70.8533 72.7668 70.8791 72.7565 70.903C72.7463 70.927 72.7312 70.9486 72.7123 70.9665L71.9763 71.7089L72.6803 72.4289Z" fill="#DDE2F0"/>
<path id="Vector_136" d="M73.4699 72.5283L74.2315 70.7203C74.2402 70.6993 74.2531 70.6801 74.2692 70.664C74.2854 70.648 74.3046 70.6352 74.3258 70.6266C74.3469 70.618 74.3695 70.6136 74.3923 70.6138C74.4151 70.6139 74.4377 70.6186 74.4587 70.6275C74.479 70.6362 74.4973 70.6489 74.5127 70.6647C74.528 70.6806 74.5401 70.6993 74.5481 70.7199C74.5562 70.7404 74.56 70.7623 74.5595 70.7844C74.559 70.8065 74.5541 70.8282 74.5451 70.8483L73.7835 72.6627C73.7703 72.6933 73.7484 72.7193 73.7205 72.7375C73.6926 72.7558 73.66 72.7654 73.6267 72.7651C73.6056 72.7696 73.5838 72.7696 73.5627 72.7651C73.5401 72.7569 73.5195 72.744 73.5023 72.7271C73.4851 72.7103 73.4716 72.6901 73.4629 72.6677C73.4541 72.6453 73.4502 72.6213 73.4514 72.5973C73.4526 72.5732 73.4589 72.5497 73.4699 72.5283Z" fill="#DDE2F0"/>
<path id="Vector_137" d="M76.0454 71.7987C76.0454 71.7987 76.0454 71.8147 76.0262 71.8211L75.1526 72.7043C75.1341 72.7227 75.1121 72.7373 75.0879 72.7471C75.0638 72.757 75.0379 72.762 75.0118 72.7619C74.9734 72.7609 74.936 72.7487 74.9043 72.7268C74.8727 72.705 74.8481 72.6744 74.8335 72.6388C74.8189 72.6032 74.815 72.5641 74.8222 72.5263C74.8294 72.4885 74.8475 72.4536 74.8742 72.4259L75.6102 71.6835L74.8742 70.9411C74.8553 70.9232 74.8403 70.9016 74.83 70.8776C74.8198 70.8537 74.8145 70.8279 74.8145 70.8019C74.8145 70.7759 74.8198 70.7501 74.83 70.7262C74.8403 70.7022 74.8553 70.6806 74.8742 70.6627C74.9117 70.6269 74.9616 70.6069 75.0134 70.6069C75.0653 70.6069 75.1151 70.6269 75.1526 70.6627L76.0262 71.5491C76.0262 71.5491 76.0262 71.5491 76.0454 71.5683C76.0513 71.5776 76.0566 71.5872 76.0614 71.5971C76.0605 71.6067 76.0605 71.6163 76.0614 71.6259L76.0614 71.6451C76.0614 71.6451 76.0614 71.6451 76.0614 71.6611L76.0614 71.7027C76.0609 71.7123 76.0609 71.7219 76.0614 71.7315L76.0454 71.7987Z" fill="#DDE2F0"/>
</g>
<g id="freepik--Icons--inject-312">
<path id="Vector_138" d="M34.9281 77.956H18.6113L18.6113 56.644H30.9121L34.9281 60.66L34.9281 77.956Z" fill="#DDE2F0"/>
<path id="Vector_139" opacity="0.6" d="M34.9281 77.956H18.6113L18.6113 56.644H30.9121L34.9281 60.66L34.9281 77.956Z" fill="white"/>
<path id="Vector_140" d="M34.9281 60.66H30.9121L30.9121 56.644L34.9281 60.66Z" fill="#DDE2F0"/>
<path id="Vector_141" d="M22.3848 64.1543C22.3854 64.3948 22.4573 64.6297 22.5915 64.8293C22.7256 65.0289 22.916 65.1843 23.1384 65.2757C23.3608 65.3672 23.6054 65.3906 23.8411 65.3431C24.0769 65.2955 24.2933 65.1791 24.4629 65.0086C24.6325 64.8381 24.7477 64.6212 24.794 64.3852C24.8403 64.1491 24.8156 63.9047 24.723 63.6828C24.6304 63.4608 24.474 63.2713 24.2737 63.1382C24.0734 63.0051 23.8381 62.9344 23.5976 62.9351C23.4378 62.9351 23.2795 62.9666 23.132 63.028C22.9844 63.0893 22.8504 63.1792 22.7377 63.2925C22.625 63.4058 22.5358 63.5403 22.4753 63.6882C22.4147 63.8361 22.3839 63.9945 22.3848 64.1543Z" fill="#DDE2F0"/>
<path id="Vector_142" d="M24.2617 69.5593H32.5145L28.3897 64.5225L24.2617 69.5593Z" fill="#DDE2F0"/>
<path id="Vector_143" d="M21.0234 69.5593H27.8362L24.4314 66.2793L21.0234 69.5593Z" fill="#DDE2F0"/>
<path id="Vector_144" opacity="0.1" d="M21.0234 69.5593H27.8362L24.4314 66.2793L21.0234 69.5593Z" fill="black"/>
<path id="Vector_145" d="M32.5082 61.4985H21.0234L21.0234 69.5593H32.5082L32.5082 61.4985Z" stroke="#DDE2F0" stroke-width="0.64" stroke-miterlimit="10"/>
<path id="Vector_146" d="M26.3681 70.4297H14.6465L14.6465 75.2809H26.3681L26.3681 70.4297Z" fill="#455A64"/>
<path id="Vector_147" d="M18.0921 71.7515L18.0921 74.1035H17.6377L17.6377 73.0987H16.5689L16.5689 74.1035H16.1113L16.1113 71.7515H16.5689L16.5689 72.7115H17.6377L17.6377 71.7515H18.0921Z" fill="white"/>
<path id="Vector_148" d="M20.3361 72.1515H19.5841L19.5841 74.1035H19.1329L19.1329 72.1515H18.3809L18.3809 71.7515H20.3361L20.3361 72.1515Z" fill="white"/>
<path id="Vector_149" d="M22.5484 74.1035L22.5484 72.5451L21.9404 73.7067H21.694L21.0892 72.5451L21.0892 74.1035H20.6348L20.6348 71.7515H21.1244L21.8188 73.0891L22.5228 71.7515H23.0092L23.0092 74.1035H22.5484Z" fill="white"/>
<path id="Vector_150" d="M23.4961 74.1035L23.4961 71.7515H23.9697L23.9697 73.7035H25.1697L25.1697 74.1035H23.4961Z" fill="white"/>
<path id="Vector_151" d="M34.9298 103.844H18.5938L18.5938 82.5093H30.9106L34.9298 86.5285L34.9298 103.844Z" fill="#DDE2F0"/>
<path id="Vector_152" opacity="0.6" d="M34.9298 103.844H18.5938L18.5938 82.5093H30.9106L34.9298 86.5285L34.9298 103.844Z" fill="white"/>
<path id="Vector_153" d="M34.9294 86.529H30.9102L30.9102 82.5098L34.9294 86.529Z" fill="#DDE2F0"/>
<path id="Vector_154" d="M22.3691 90.0266C22.3698 90.2677 22.4419 90.5033 22.5764 90.7034C22.7109 90.9036 22.9017 91.0593 23.1247 91.151C23.3477 91.2427 23.593 91.2662 23.8293 91.2185C24.0657 91.1709 24.2826 91.0542 24.4527 90.8832C24.6228 90.7123 24.7383 90.4947 24.7847 90.2581C24.8312 90.0215 24.8064 89.7764 24.7135 89.5539C24.6206 89.3313 24.4639 89.1413 24.263 89.0079C24.0622 88.8745 23.8263 88.8036 23.5851 88.8042C23.2621 88.8059 22.9528 88.9354 22.7249 89.1645C22.497 89.3936 22.3691 89.7035 22.3691 90.0266Z" fill="#DDE2F0"/>
<path id="Vector_155" d="M24.252 95.4377H32.5112L28.38 90.3945L24.252 95.4377Z" fill="#DDE2F0"/>
<path id="Vector_156" d="M21.0137 95.438H27.8329L24.4217 92.1548L21.0137 95.438Z" fill="#DDE2F0"/>
<path id="Vector_157" opacity="0.1" d="M21.0137 95.438H27.8329L24.4217 92.1548L21.0137 95.438Z" fill="black"/>
<path id="Vector_158" d="M32.5113 87.3706H21.0137L21.0137 95.4378H32.5113L32.5113 87.3706Z" stroke="#DDE2F0" stroke-width="0.64" stroke-miterlimit="10"/>
<path id="Vector_159" d="M26.3582 96.3081H14.627L14.627 101.163H26.3582L26.3582 96.3081Z" fill="#455A64"/>
<path id="Vector_160" d="M17.4006 98.7915C17.4009 98.6462 17.4269 98.5021 17.4774 98.3659C17.5285 98.2268 17.6056 98.0986 17.7046 97.9883C17.808 97.8764 17.9319 97.7851 18.0694 97.7195C18.2231 97.6497 18.3903 97.6148 18.559 97.6171C18.7565 97.6116 18.9516 97.6615 19.1222 97.7611C19.2726 97.8487 19.3947 97.9775 19.4742 98.1323L19.1222 98.3755C19.0724 98.2572 18.983 98.16 18.8694 98.1003C18.8192 98.0726 18.7653 98.0522 18.7094 98.0395C18.6556 98.0294 18.601 98.0241 18.5462 98.0235C18.442 98.0211 18.3387 98.0441 18.2454 98.0907C18.1639 98.1373 18.0922 98.1992 18.0342 98.2731C17.976 98.3485 17.9326 98.4343 17.9062 98.5259C17.8466 98.7144 17.8466 98.9166 17.9062 99.1051C17.9375 99.1972 17.9852 99.2828 18.047 99.3579C18.1079 99.431 18.183 99.4909 18.2678 99.5339C18.3535 99.5793 18.4493 99.6024 18.5462 99.6011C18.6022 99.6009 18.658 99.5944 18.7126 99.5819C18.7699 99.5687 18.8249 99.5471 18.8758 99.5179C18.9305 99.49 18.9793 99.452 19.0198 99.4059C19.0657 99.3586 19.1026 99.3033 19.1286 99.2427L19.503 99.4571C19.4652 99.5453 19.4096 99.6248 19.3398 99.6907C19.2712 99.7598 19.1924 99.8181 19.1062 99.8635C19.0166 99.9091 18.9221 99.9445 18.8246 99.9691C18.7295 99.9932 18.6316 100.005 18.5334 100.004C18.3736 100.006 18.2158 99.9697 18.0726 99.8987C17.937 99.8301 17.8155 99.7368 17.7142 99.6235C17.6125 99.5086 17.5323 99.3764 17.4774 99.2331C17.4237 99.0922 17.3976 98.9423 17.4006 98.7915Z" fill="white"/>
<path id="Vector_161" d="M21.2166 98.2475C21.1913 98.2231 21.1634 98.2017 21.1334 98.1835C21.0277 98.1205 20.9135 98.0731 20.7942 98.0427C20.7253 98.0246 20.6542 98.0159 20.583 98.0171C20.4845 98.0104 20.3863 98.0338 20.3014 98.0843C20.2711 98.1074 20.2468 98.1376 20.2307 98.1721C20.2145 98.2066 20.207 98.2446 20.2086 98.2827C20.2074 98.3249 20.2198 98.3664 20.2438 98.4011C20.272 98.4362 20.3068 98.4656 20.3462 98.4875C20.3996 98.5139 20.4553 98.5354 20.5126 98.5515C20.5798 98.5739 20.6598 98.5931 20.7462 98.6155C20.8326 98.6379 20.967 98.6795 21.0662 98.7147C21.1532 98.7457 21.2343 98.7911 21.3062 98.8491C21.37 98.8998 21.4214 98.9644 21.4566 99.0379C21.4949 99.1245 21.5134 99.2185 21.511 99.3131C21.513 99.4242 21.4878 99.5341 21.4374 99.6331C21.3909 99.7194 21.3252 99.7938 21.2454 99.8507C21.1607 99.9077 21.0664 99.9489 20.967 99.9723C20.8618 99.9949 20.7546 100.007 20.647 100.007C20.4693 100.007 20.2925 99.9814 20.1222 99.9307C19.9563 99.8806 19.7995 99.8039 19.6582 99.7035L19.8598 99.3099C19.8942 99.338 19.9306 99.3637 19.9686 99.3867C20.0996 99.465 20.2406 99.5253 20.3878 99.5659C20.4746 99.5877 20.5639 99.5985 20.6534 99.5979C20.9062 99.5979 21.031 99.5179 21.031 99.3547C21.033 99.3084 21.0183 99.2629 20.9894 99.2267C20.9552 99.1868 20.9126 99.1551 20.8646 99.1339C20.8029 99.1037 20.7387 99.0791 20.6726 99.0603L20.4198 98.9867C20.3204 98.9609 20.2231 98.9278 20.1286 98.8875C20.0527 98.8552 19.9825 98.8109 19.9206 98.7563C19.8666 98.7088 19.8239 98.6497 19.7958 98.5835C19.7675 98.5089 19.7534 98.4297 19.7542 98.3499C19.7518 98.2395 19.7748 98.13 19.8214 98.0299C19.8646 97.9397 19.9268 97.86 20.0038 97.7963C20.0863 97.7331 20.1795 97.6854 20.279 97.6555C20.3828 97.6241 20.4906 97.6079 20.599 97.6075C20.7551 97.606 20.9102 97.6331 21.0566 97.6875C21.1813 97.7409 21.2994 97.8086 21.4086 97.8891L21.2166 98.2475Z" fill="white"/>
<path id="Vector_162" d="M23.2511 98.2475C23.2238 98.2242 23.195 98.2028 23.1647 98.1835C23.0598 98.1189 22.9453 98.0713 22.8255 98.0427C22.7576 98.0246 22.6876 98.016 22.6175 98.0171C22.5189 98.0096 22.4204 98.0331 22.3359 98.0843C22.3051 98.1071 22.2806 98.1372 22.2644 98.1718C22.2482 98.2064 22.2408 98.2446 22.2431 98.2827C22.2409 98.3246 22.2522 98.366 22.2751 98.4011C22.3033 98.4363 22.3381 98.4656 22.3775 98.4875C22.4308 98.514 22.4865 98.5354 22.5439 98.5515C22.6111 98.5739 22.6911 98.5931 22.7775 98.6155C22.8639 98.6379 22.9983 98.6795 23.0975 98.7147C23.1847 98.745 23.266 98.7905 23.3375 98.8491C23.4013 98.8999 23.4527 98.9644 23.4879 99.0379C23.5261 99.1245 23.5447 99.2185 23.5423 99.3131C23.5443 99.4242 23.519 99.5341 23.4687 99.6331C23.4245 99.721 23.3584 99.796 23.2767 99.8507C23.192 99.9078 23.0976 99.949 22.9983 99.9723C22.8931 99.9951 22.7859 100.007 22.6783 100.008C22.5005 100.007 22.3238 99.9815 22.1535 99.9307C21.9878 99.8799 21.8312 99.8032 21.6895 99.7035L21.8943 99.3099C21.9267 99.3391 21.9621 99.3648 21.9999 99.3867C22.06 99.422 22.1219 99.454 22.1855 99.4827C22.2608 99.5172 22.3389 99.545 22.4191 99.5659C22.5059 99.5878 22.5951 99.5985 22.6847 99.5979C22.9375 99.5979 23.0623 99.5179 23.0623 99.3547C23.0643 99.3084 23.0495 99.263 23.0207 99.2267C22.987 99.1877 22.9456 99.1561 22.8991 99.1339C22.836 99.1043 22.7708 99.0797 22.7039 99.0603L22.4543 98.9867C22.3537 98.9615 22.2552 98.9283 22.1599 98.8875C22.084 98.8552 22.0137 98.8109 21.9519 98.7563C21.8978 98.7088 21.8552 98.6498 21.8271 98.5835C21.7987 98.509 21.7846 98.4297 21.7855 98.3499C21.783 98.2395 21.806 98.13 21.8527 98.0299C21.896 97.939 21.9594 97.8591 22.0383 97.7963C22.1196 97.7332 22.2118 97.6855 22.3103 97.6555C22.4141 97.6246 22.5219 97.6084 22.6303 97.6075C22.7864 97.6054 22.9417 97.6325 23.0879 97.6875C23.2161 97.734 23.3385 97.7952 23.4527 97.8699L23.2511 98.2475Z" fill="white"/>
<path id="Vector_163" d="M17.0544 92.9575H16.7344" stroke="#407BFF" stroke-width="0.24" stroke-miterlimit="10"/>
<path id="Vector_164" d="M16.1496 92.9575H14.1016" stroke="#407BFF" stroke-width="0.24" stroke-miterlimit="10" stroke-dasharray="0.59 0.59"/>
<path id="Vector_165" d="M13.8102 92.9577H13.4902L13.4902 92.6377" stroke="#407BFF" stroke-width="0.24" stroke-miterlimit="10"/>
<path id="Vector_166" d="M13.4902 92.004L13.4902 64.436" stroke="#407BFF" stroke-width="0.24" stroke-miterlimit="10" stroke-dasharray="0.63 0.63"/>
<path id="Vector_167" d="M13.4902 64.1193L13.4902 63.7993H13.8102" stroke="#407BFF" stroke-width="0.24" stroke-miterlimit="10"/>
<path id="Vector_168" d="M14.3242 63.7993H16.1386" stroke="#407BFF" stroke-width="0.24" stroke-miterlimit="10" stroke-dasharray="0.52 0.52"/>
<path id="Vector_169" d="M16.3945 63.7993H16.7145" stroke="#407BFF" stroke-width="0.24" stroke-miterlimit="10"/>
<path id="Vector_170" d="M17.0354 92.5962C17.1069 92.5962 17.1769 92.6174 17.2363 92.6571C17.2958 92.6969 17.3421 92.7533 17.3695 92.8194C17.3969 92.8855 17.404 92.9582 17.3901 93.0283C17.3761 93.0985 17.3417 93.1629 17.2911 93.2135C17.2405 93.2641 17.1761 93.2985 17.106 93.3124C17.0358 93.3264 16.9631 93.3192 16.8971 93.2919C16.831 93.2645 16.7745 93.2182 16.7348 93.1587C16.695 93.0992 16.6738 93.0293 16.6738 92.9578C16.6747 92.8621 16.713 92.7707 16.7807 92.703C16.8483 92.6354 16.9398 92.597 17.0354 92.5962Z" fill="#407BFF"/>
<path id="Vector_171" d="M16.6975 64.1612C16.8972 64.1612 17.0591 63.9993 17.0591 63.7996C17.0591 63.5999 16.8972 63.438 16.6975 63.438C16.4978 63.438 16.3359 63.5999 16.3359 63.7996C16.3359 63.9993 16.4978 64.1612 16.6975 64.1612Z" fill="#407BFF"/>
<path id="Vector_172" d="M13.4891 78.3592H9.57227L9.57227 44.9736H51.4347" stroke="#407BFF" stroke-width="0.24" stroke-miterlimit="10" stroke-dasharray="0.64 0.64"/>
<path id="Vector_173" d="M51.2949 45.4505L52.1237 44.9737L51.2949 44.4937L51.2949 45.4505Z" fill="#407BFF"/>
</g>
<g id="freepik--Window--inject-312">
<path id="Vector_174" d="M200.85 35.7358H79.6562L79.6563 112.472H200.85L200.85 35.7358Z" fill="white"/>
<path id="Vector_175" d="M200.889 112.51H79.6094L79.6094 35.71H200.889L200.889 112.51ZM79.6958 112.43H200.809L200.809 35.774H79.6958L79.6958 112.43Z" fill="#407BFF"/>
<path id="Vector_176" d="M200.85 35.7358H79.6562L79.6563 38.6894H200.85L200.85 35.7358Z" fill="#DDE2F0"/>
<path id="Vector_177" d="M82.4364 37.2108C82.437 37.3224 82.4042 37.4316 82.3424 37.5244C82.2805 37.6173 82.1923 37.6895 82.0891 37.7319C81.9859 37.7742 81.8724 37.7848 81.7631 37.7622C81.6538 37.7397 81.5538 37.685 81.4758 37.6052C81.3979 37.5254 81.3455 37.4241 81.3255 37.3143C81.3055 37.2046 81.3187 37.0913 81.3634 36.9892C81.4082 36.887 81.4825 36.8005 81.5767 36.7408C81.6709 36.681 81.7809 36.6509 81.8924 36.654C82.0378 36.6574 82.1762 36.7175 82.2779 36.8216C82.3795 36.9256 82.4364 37.0654 82.4364 37.2108Z" fill="#C7C7C7"/>
<path id="Vector_178" d="M84.7176 37.2111C84.7183 37.3221 84.6859 37.4308 84.6246 37.5234C84.5633 37.616 84.4759 37.6883 84.3734 37.7311C84.271 37.7738 84.1581 37.7852 84.0492 37.7637C83.9403 37.7422 83.8402 37.6888 83.7617 37.6103C83.6832 37.5318 83.6298 37.4317 83.6083 37.3228C83.5868 37.2138 83.5981 37.101 83.6409 36.9985C83.6837 36.8961 83.756 36.8086 83.8485 36.7473C83.9411 36.6861 84.0498 36.6537 84.1608 36.6543C84.3085 36.6543 84.4501 36.713 84.5546 36.8174C84.659 36.9218 84.7176 37.0634 84.7176 37.2111Z" fill="white"/>
<path id="Vector_179" d="M87.0106 37.2106C87.0112 37.3216 86.9789 37.4304 86.9176 37.5229C86.8563 37.6155 86.7689 37.6878 86.6664 37.7306C86.5639 37.7733 86.4511 37.7847 86.3422 37.7632C86.2332 37.7417 86.1332 37.6883 86.0546 37.6098C85.9761 37.5313 85.9227 37.4312 85.9012 37.3223C85.8797 37.2134 85.8911 37.1005 85.9339 36.998C85.9766 36.8956 86.0489 36.8081 86.1415 36.7469C86.2341 36.6856 86.3428 36.6532 86.4538 36.6538C86.6015 36.6538 86.7431 36.7125 86.8475 36.8169C86.9519 36.9213 87.0106 37.0629 87.0106 37.2106Z" fill="#455A64"/>
<path id="Vector_180" d="M92.0635 38.686H83.1035L83.1035 78.4908H92.0635L92.0635 38.686Z" fill="#EBEBEB"/>
<path id="Vector_181" d="M193.334 43.5947H87.1738L87.1738 53.2363H193.334L193.334 43.5947Z" fill="#DDE2F0"/>
<path id="Vector_182" d="M94.5092 47.3262H92.0645L92.0645 47.723H94.5092L94.5092 47.3262Z" fill="white"/>
<path id="Vector_183" d="M94.5092 49.1084H92.0645L92.0645 49.5052H94.5092L94.5092 49.1084Z" fill="white"/>
<path id="Vector_184" d="M94.5092 48.2285H92.0645L92.0645 48.6253H94.5092L94.5092 48.2285Z" fill="white"/>
<path id="Vector_185" d="M123.509 46.9673H99.9766L99.9766 49.8665H123.509L123.509 46.9673Z" fill="white"/>
<path id="Vector_186" d="M123.54 49.8892H99.9492L99.9492 46.9292H123.54L123.54 49.8892Z" fill="white"/>
<path id="Vector_187" d="M123.538 46.9355H120.578L120.578 49.8955H123.538L123.538 46.9355Z" fill="#455A64"/>
<path id="Vector_188" d="M122.979 49.2297L122.71 49.4313L122.214 48.7913L122.035 48.5513C122.072 48.5353 122.106 48.5149 122.138 48.4905C122.198 48.445 122.246 48.3842 122.275 48.3145L122.467 48.5673L122.979 49.2297Z" fill="white"/>
<path id="Vector_189" d="M122.45 47.6879C122.365 47.5779 122.25 47.4945 122.119 47.4474C121.989 47.4004 121.847 47.3916 121.712 47.4222C121.576 47.4528 121.452 47.5215 121.354 47.6201C121.256 47.7188 121.189 47.8434 121.159 47.9792C121.13 48.115 121.14 48.2564 121.188 48.3867C121.236 48.5171 121.32 48.631 121.431 48.715C121.542 48.799 121.674 48.8497 121.813 48.8611C121.951 48.8724 122.09 48.844 122.213 48.7791C122.249 48.7597 122.283 48.7372 122.315 48.7119C122.373 48.6678 122.424 48.6149 122.466 48.5551C122.557 48.4281 122.604 48.2751 122.601 48.1189C122.598 47.9626 122.545 47.8115 122.45 47.6879ZM122.13 48.4783C122.098 48.5027 122.064 48.5232 122.027 48.5391C121.929 48.5782 121.82 48.5804 121.72 48.5453C121.62 48.5102 121.536 48.4402 121.484 48.3482C121.432 48.2561 121.415 48.1483 121.436 48.0446C121.457 47.9409 121.514 47.8483 121.598 47.7839C121.674 47.726 121.767 47.6945 121.862 47.6941C121.958 47.6937 122.051 47.7244 122.127 47.7816C122.203 47.8387 122.259 47.9193 122.286 48.011C122.312 48.1026 122.308 48.2004 122.274 48.2895C122.246 48.364 122.198 48.4293 122.136 48.4783H122.13Z" fill="white"/>
<path id="Vector_190" d="M100.743 47.5371H100.586L100.586 49.2971H100.743L100.743 47.5371Z" fill="#C7C7C7"/>
<path id="Vector_191" d="M188.427 47.9756H178.258L178.258 48.8588H188.427L188.427 47.9756Z" fill="white"/>
<path id="Vector_192" d="M172.822 47.9756H162.652L162.652 48.8588H172.822L172.822 47.9756Z" fill="white"/>
<path id="Vector_193" opacity="0.1" d="M157.216 47.9756H147.047L147.047 48.8588H157.216L157.216 47.9756Z" fill="black"/>
<path id="Vector_194" d="M141.611 47.9756H131.441L131.441 48.8588H141.611L141.611 47.9756Z" fill="white"/>
<path id="Vector_195" d="M200.85 83.2778H79.6562L79.6563 92.9194H200.85L200.85 83.2778Z" fill="#DDE2F0"/>
<path id="Vector_196" d="M110.63 97.4731H87.1738L87.1738 98.5579H110.63L110.63 97.4731Z" fill="#455A64"/>
<path id="Vector_197" d="M87.1738 101.191L90.937 101.134L94.7002 101.099L102.227 101.07L109.753 101.099L113.516 101.131L117.279 101.191L113.516 101.249L109.753 101.284L102.227 101.31L94.7002 101.284L90.937 101.249L87.1738 101.191Z" fill="#A6A6A6"/>
<path id="Vector_198" d="M87.1738 102.67L90.937 102.612L94.7002 102.58L102.227 102.551L109.753 102.577L113.516 102.612L117.279 102.67L113.516 102.73L109.753 102.762L102.227 102.791L94.7002 102.762L90.937 102.73L87.1738 102.67Z" fill="#A6A6A6"/>
<path id="Vector_199" d="M87.1738 104.151L90.937 104.094L94.7002 104.059L102.227 104.03L109.753 104.059L113.516 104.094L117.279 104.151L113.516 104.209L109.753 104.244L102.227 104.27L94.7002 104.244L90.937 104.209L87.1738 104.151Z" fill="#A6A6A6"/>
<path id="Vector_200" d="M87.1738 105.63L90.937 105.572L94.7002 105.54L102.227 105.511L109.753 105.54L113.516 105.572L117.279 105.63L113.516 105.69L109.753 105.722L102.227 105.751L94.7002 105.722L90.937 105.69L87.1738 105.63Z" fill="#A6A6A6"/>
<path id="Vector_201" d="M87.1738 107.112C88.4282 107.064 89.6826 107.038 90.937 107.019L94.7002 106.993L98.4634 107.019C99.7178 107.038 100.972 107.06 102.227 107.112C100.972 107.163 99.7178 107.185 98.4634 107.204L94.6906 107.233L90.9274 107.204C89.6826 107.185 88.4282 107.169 87.1738 107.112Z" fill="#A6A6A6"/>
<path id="Vector_202" d="M148.655 97.4731H125.199L125.199 98.5579H148.655L148.655 97.4731Z" fill="#455A64"/>
<path id="Vector_203" d="M125.199 101.191L128.962 101.134L132.726 101.099L140.252 101.07L147.778 101.099L151.542 101.131L155.305 101.191L151.542 101.249L147.778 101.284L140.252 101.31L132.726 101.284L128.962 101.249L125.199 101.191Z" fill="#A6A6A6"/>
<path id="Vector_204" d="M125.199 102.67L128.962 102.612L132.726 102.58L140.252 102.551L147.778 102.577L151.542 102.612L155.305 102.67L151.542 102.73L147.778 102.762L140.252 102.791L132.726 102.762L128.962 102.73L125.199 102.67Z" fill="#A6A6A6"/>
<path id="Vector_205" d="M125.199 104.151L128.962 104.094L132.726 104.059L140.252 104.03L147.778 104.059L151.542 104.094L155.305 104.151L151.542 104.209L147.778 104.244L140.252 104.27L132.726 104.244L128.962 104.209L125.199 104.151Z" fill="#A6A6A6"/>
<path id="Vector_206" d="M125.199 105.63L128.962 105.572L132.726 105.54L140.252 105.511L147.778 105.54L151.542 105.572L155.305 105.63L151.542 105.69L147.778 105.722L140.252 105.751L132.726 105.722L128.962 105.69L125.199 105.63Z" fill="#A6A6A6"/>
<path id="Vector_207" d="M125.199 107.112C126.454 107.064 127.708 107.038 128.962 107.019L132.726 106.993L136.489 107.019C137.743 107.038 138.998 107.06 140.252 107.112C138.998 107.163 137.743 107.185 136.489 107.204L132.726 107.233L128.962 107.204C127.708 107.185 126.454 107.169 125.199 107.112Z" fill="#A6A6A6"/>
<path id="Vector_208" d="M186.683 97.4731H163.227L163.227 98.5579H186.683L186.683 97.4731Z" fill="#455A64"/>
<path id="Vector_209" d="M163.227 101.191L166.99 101.134L170.753 101.099L178.279 101.07L185.809 101.099L189.572 101.131L193.335 101.191L189.572 101.249L185.809 101.284L178.279 101.31L170.753 101.284L166.99 101.249L163.227 101.191Z" fill="#A6A6A6"/>
<path id="Vector_210" d="M163.227 102.67L166.99 102.612L170.753 102.58L178.279 102.551L185.809 102.577L189.572 102.612L193.335 102.67L189.572 102.73L185.809 102.762L178.279 102.791L170.753 102.762L166.99 102.73L163.227 102.67Z" fill="#A6A6A6"/>
<path id="Vector_211" d="M163.227 104.151L166.99 104.094L170.753 104.059L178.279 104.03L185.809 104.059L189.572 104.094L193.335 104.151L189.572 104.209L185.809 104.244L178.279 104.27L170.753 104.244L166.99 104.209L163.227 104.151Z" fill="#A6A6A6"/>
<path id="Vector_212" d="M163.227 105.63L166.99 105.572L170.753 105.54L178.279 105.511L185.809 105.54L189.572 105.572L193.335 105.63L189.572 105.69L185.809 105.722L178.279 105.751L170.753 105.722L166.99 105.69L163.227 105.63Z" fill="#A6A6A6"/>
<path id="Vector_213" d="M163.227 107.112C164.481 107.064 165.735 107.038 166.99 107.019L170.753 106.993L174.516 107.019C175.771 107.038 177.025 107.06 178.279 107.112C177.025 107.163 175.771 107.185 174.516 107.204L170.753 107.233L166.99 107.204C165.732 107.185 164.481 107.169 163.227 107.112Z" fill="#A6A6A6"/>
<path id="Vector_214" d="M100.521 79.6973H121.033L121.033 59.1853H100.521L100.521 79.6973Z" fill="#EBEBEB"/>
<path id="Vector_215" d="M101.727 78.4907H119.826L119.826 60.3915H101.727L101.727 78.4907Z" fill="#455A64"/>
<path id="Vector_216" d="M104.644 64.7084C104.573 65.068 104.618 65.4412 104.775 65.7728C104.931 66.1045 105.191 66.3769 105.514 66.5499C105.837 66.723 106.208 66.7874 106.57 66.7336C106.933 66.6799 107.269 66.5109 107.528 66.2516C107.788 65.9923 107.957 65.6564 108.01 65.2936C108.064 64.9309 108 64.5604 107.827 64.2371C107.654 63.9137 107.381 63.6546 107.05 63.4981C106.718 63.3415 106.345 63.2957 105.985 63.3676C105.654 63.4337 105.35 63.5964 105.112 63.835C104.873 64.0736 104.711 64.3775 104.644 64.7084Z" fill="#37474F"/>
<path id="Vector_217" d="M106.746 73.7934H119.828L113.287 66.459L106.746 73.7934Z" fill="#37474F"/>
<path id="Vector_218" d="M101.727 73.7932H112.527L107.125 69.0156L101.727 73.7932Z" fill="#407BFF"/>
<path id="Vector_219" d="M119.826 73.793H101.727L101.727 78.4906H119.826L119.826 73.793Z" fill="#407BFF"/>
<path id="Vector_220" d="M159.474 79.6973H179.986L179.986 59.1853H159.474L159.474 79.6973Z" fill="#EBEBEB"/>
<path id="Vector_221" d="M160.682 78.4907H178.781L178.781 60.3915H160.682L160.682 78.4907Z" fill="#455A64"/>
<path id="Vector_222" d="M163.595 64.7079C163.524 65.0668 163.57 65.439 163.726 65.7697C163.883 66.1004 164.142 66.372 164.464 66.5444C164.787 66.7168 165.157 66.7809 165.519 66.7272C165.88 66.6735 166.215 66.5048 166.474 66.2461C166.733 65.9874 166.902 65.6524 166.955 65.2905C167.009 64.9286 166.945 64.559 166.772 64.2363C166.6 63.9136 166.328 63.6549 165.998 63.4984C165.667 63.3419 165.295 63.2959 164.936 63.3671C164.605 63.4329 164.301 63.5954 164.062 63.834C163.823 64.0727 163.661 64.3768 163.595 64.7079Z" fill="#37474F"/>
<path id="Vector_223" d="M165.699 73.7934H178.781L172.24 66.459L165.699 73.7934Z" fill="#37474F"/>
<path id="Vector_224" d="M160.68 73.7932H171.48L166.081 69.0156L160.68 73.7932Z" fill="#407BFF"/>
<path id="Vector_225" d="M178.779 73.793H160.68L160.68 78.4906H178.779L178.779 73.793Z" fill="#407BFF"/>
<path id="Vector_226" d="M129.993 79.6973H150.508L150.508 59.1853H129.993L129.993 79.6973Z" fill="#EBEBEB"/>
<path id="Vector_227" d="M131.204 78.4907H149.303L149.303 60.3915H131.204L131.204 78.4907Z" fill="#DDE2F0"/>
<path id="Vector_228" opacity="0.1" d="M134.119 64.7084C134.047 65.068 134.093 65.4412 134.25 65.7728C134.406 66.1045 134.665 66.3769 134.989 66.5499C135.312 66.723 135.682 66.7874 136.045 66.7336C136.408 66.6799 136.744 66.5109 137.003 66.2516C137.262 65.9923 137.431 65.6564 137.485 65.2936C137.539 64.9309 137.474 64.5604 137.301 64.2371C137.128 63.9137 136.856 63.6546 136.524 63.4981C136.193 63.3415 135.819 63.2957 135.46 63.3676C135.129 63.4337 134.825 63.5964 134.586 63.835C134.348 64.0736 134.185 64.3775 134.119 64.7084Z" fill="black"/>
<path id="Vector_229" opacity="0.1" d="M136.219 73.7934H149.3L142.76 66.459L136.219 73.7934Z" fill="black"/>
<path id="Vector_230" d="M131.205 73.7932H142.005L136.607 69.0156L131.205 73.7932Z" fill="#DDE2F0"/>
<g id="Group" opacity="0.2">
<path id="Vector_231" d="M131.205 73.7932H142.005L136.607 69.0156L131.205 73.7932Z" fill="black"/>
</g>
<path id="Vector_232" d="M149.304 73.793H131.205L131.205 78.4906H149.304L149.304 73.793Z" fill="#DDE2F0"/>
<path id="Vector_233" opacity="0.2" d="M149.304 73.793H131.205L131.205 78.4906H149.304L149.304 73.793Z" fill="black"/>
<path id="Vector_234" d="M101.727 85.8794L106.735 85.8218L111.743 85.7866L121.762 85.7578L131.778 85.7866L136.786 85.8186L141.797 85.8794L136.786 85.937L131.778 85.9722L121.762 85.9978L111.743 85.9722L106.735 85.937L101.727 85.8794Z" fill="white"/>
<path id="Vector_235" d="M101.727 87.3581L106.735 87.3005L111.743 87.2685L121.762 87.2397L131.778 87.2685L136.786 87.3005L141.797 87.3581L136.786 87.4189L131.778 87.4509L121.762 87.4797L111.743 87.4509L106.735 87.4189L101.727 87.3581Z" fill="white"/>
<path id="Vector_236" d="M101.727 88.8396L106.735 88.782L111.743 88.7468L121.762 88.7212L131.778 88.7468L136.786 88.782L141.797 88.8396L136.786 88.8972L131.778 88.9324L121.762 88.958L111.743 88.9324L106.735 88.8972L101.727 88.8396Z" fill="white"/>
<path id="Vector_237" d="M101.732 90.3213C103.4 90.2701 105.07 90.2477 106.74 90.2285L111.748 90.1997L116.756 90.2285C118.427 90.2477 120.097 90.2701 121.768 90.3213C120.097 90.3693 118.427 90.3917 116.756 90.4109L111.748 90.4397L106.74 90.4109C105.067 90.3917 103.396 90.3693 101.732 90.3213Z" fill="white"/>
<path id="Vector_238" d="M88.6381 89.5689L88.6381 86.6313L87.2109 87.9945L88.6381 89.5689Z" fill="white"/>
<path id="Vector_239" d="M191.945 86.6313L191.945 89.5689L193.373 88.2057L191.945 86.6313Z" fill="white"/>
</g>
<g id="freepik--Gears--inject-312">
<path id="Vector_240" d="M61.3047 42.9064C61.3047 44.1375 61.6698 45.341 62.3538 46.3646C63.0379 47.3882 64.0101 48.1859 65.1476 48.6569C66.2851 49.1279 67.5367 49.251 68.7441 49.0105C69.9515 48.7701 71.0605 48.177 71.9308 47.3063C72.8011 46.4355 73.3937 45.3262 73.6335 44.1187C73.8733 42.9111 73.7495 41.6596 73.278 40.5223C72.8064 39.3851 72.0082 38.4133 70.9842 37.7298C69.9603 37.0462 68.7566 36.6817 67.5255 36.6824C65.8758 36.6849 64.2945 37.3416 63.1284 38.5083C61.9622 39.6751 61.3064 41.2567 61.3047 42.9064ZM62.6295 42.9064C62.6288 41.9371 62.9157 40.9895 63.4538 40.1833C63.9919 39.3772 64.757 38.7487 65.6523 38.3775C66.5477 38.0063 67.533 37.909 68.4837 38.098C69.4343 38.2869 70.3076 38.7536 70.9929 39.4389C71.6783 40.1243 72.1449 40.9975 72.3339 41.9482C72.5228 42.8988 72.4255 43.8842 72.0543 44.7795C71.6831 45.6748 71.0547 46.44 70.2485 46.978C69.4424 47.5161 68.4947 47.803 67.5255 47.8024C66.227 47.8024 64.9816 47.2865 64.0635 46.3684C63.1453 45.4502 62.6295 44.2049 62.6295 42.9064ZM61.3047 42.9064C61.3047 44.1375 61.6698 45.341 62.3538 46.3646C63.0379 47.3882 64.0101 48.1859 65.1476 48.6569C66.2851 49.1279 67.5367 49.251 68.7441 49.0105C69.9515 48.7701 71.0605 48.177 71.9308 47.3063C72.8011 46.4355 73.3937 45.3262 73.6335 44.1187C73.8733 42.9111 73.7495 41.6596 73.278 40.5223C72.8064 39.3851 72.0082 38.4133 70.9842 37.7298C69.9603 37.0462 68.7566 36.6817 67.5255 36.6824C65.8758 36.6849 64.2945 37.3416 63.1284 38.5083C61.9622 39.6751 61.3064 41.2567 61.3047 42.9064ZM62.6295 42.9064C62.6288 41.9371 62.9157 40.9895 63.4538 40.1833C63.9919 39.3772 64.757 38.7487 65.6523 38.3775C66.5477 38.0063 67.533 37.909 68.4837 38.098C69.4343 38.2869 70.3076 38.7536 70.9929 39.4389C71.6783 40.1243 72.1449 40.9975 72.3339 41.9482C72.5228 42.8988 72.4255 43.8842 72.0543 44.7795C71.6831 45.6748 71.0547 46.44 70.2485 46.978C69.4424 47.5161 68.4947 47.803 67.5255 47.8024C66.227 47.8024 64.9816 47.2865 64.0635 46.3684C63.1453 45.4502 62.6295 44.2049 62.6295 42.9064ZM57.0391 42.9064C57.0397 44.981 57.6555 47.0089 58.8087 48.7335C59.9618 50.4582 61.6005 51.8022 63.5174 52.5955C65.4344 53.3889 67.5436 53.596 69.5782 53.1906C71.6129 52.7852 73.4816 51.7856 74.9482 50.3182C76.4147 48.8507 77.4132 46.9814 77.8173 44.9465C78.2215 42.9115 78.0131 40.8025 77.2186 38.886C76.4241 36.9695 75.0791 35.3317 73.3537 34.1796C71.6284 33.0275 69.6001 32.4129 67.5255 32.4136C66.1478 32.4136 64.7837 32.685 63.511 33.2124C62.2383 33.7398 61.082 34.5128 60.1082 35.4872C59.1344 36.4617 58.3621 37.6184 57.8355 38.8914C57.3088 40.1644 57.0382 41.5287 57.0391 42.9064ZM60.7095 42.9064C60.7095 41.5575 61.1095 40.239 61.8589 39.1175C62.6084 37.996 63.6736 37.122 64.9198 36.6059C66.166 36.0899 67.5373 35.9551 68.8602 36.2184C70.1831 36.4818 71.3981 37.1316 72.3517 38.0856C73.3053 39.0396 73.9545 40.255 74.2172 41.578C74.48 42.901 74.3445 44.2722 73.8279 45.5182C73.3112 46.7642 72.4367 47.829 71.3149 48.5779C70.1931 49.3268 68.8743 49.7262 67.5255 49.7256C65.7182 49.7222 63.986 49.0025 62.7084 47.7243C61.4308 46.4461 60.712 44.7136 60.7095 42.9064ZM61.3047 42.9064C61.3047 44.1375 61.6698 45.341 62.3538 46.3646C63.0379 47.3882 64.0101 48.1859 65.1476 48.6569C66.2851 49.1279 67.5367 49.251 68.7441 49.0105C69.9515 48.7701 71.0605 48.177 71.9308 47.3063C72.8011 46.4355 73.3937 45.3262 73.6335 44.1187C73.8733 42.9111 73.7495 41.6596 73.278 40.5223C72.8064 39.3851 72.0082 38.4133 70.9842 37.7298C69.9603 37.0462 68.7566 36.6817 67.5255 36.6824C65.8758 36.6849 64.2945 37.3416 63.1284 38.5083C61.9622 39.6751 61.3064 41.2567 61.3047 42.9064ZM62.6295 42.9064C62.6288 41.9371 62.9157 40.9895 63.4538 40.1833C63.9919 39.3772 64.757 38.7487 65.6523 38.3775C66.5477 38.0063 67.533 37.909 68.4837 38.098C69.4343 38.2869 70.3076 38.7536 70.9929 39.4389C71.6783 40.1243 72.1449 40.9975 72.3339 41.9482C72.5228 42.8988 72.4255 43.8842 72.0543 44.7795C71.6831 45.6748 71.0547 46.44 70.2485 46.978C69.4424 47.5161 68.4947 47.803 67.5255 47.8024C66.227 47.8024 64.9816 47.2865 64.0635 46.3684C63.1453 45.4502 62.6295 44.2049 62.6295 42.9064Z" fill="#DDE2F0"/>
<path id="Vector_241" d="M66.293 32.6053H68.693L68.453 30.2085H66.5298L66.293 32.6053Z" fill="#DDE2F0"/>
<path id="Vector_242" d="M71.6113 33.3705L73.6913 34.5705L74.6801 32.3753L73.0161 31.4121L71.6113 33.3705Z" fill="#DDE2F0"/>
<path id="Vector_243" d="M75.832 36.6888L77.032 38.7688L78.9872 37.3608L78.0272 35.6968L75.832 36.6888Z" fill="#DDE2F0"/>
<path id="Vector_244" d="M77.8262 41.6714L77.8262 44.0746L80.223 43.8346L80.223 41.9114L77.8262 41.6714Z" fill="#DDE2F0"/>
<path id="Vector_245" d="M77.0645 46.9863L75.8613 49.0663L78.0565 50.0583L79.0197 48.3943L77.0645 46.9863Z" fill="#DDE2F0"/>
<path id="Vector_246" d="M73.7421 51.2075L71.6621 52.4107L73.0701 54.3659L74.7341 53.4027L73.7421 51.2075Z" fill="#DDE2F0"/>
<path id="Vector_247" d="M68.7606 53.2036H66.3574L66.5974 55.6004H68.5206L68.7606 53.2036Z" fill="#DDE2F0"/>
<path id="Vector_248" d="M63.445 52.4388L61.365 51.2388L60.373 53.434L62.0402 54.3972L63.445 52.4388Z" fill="#DDE2F0"/>
<path id="Vector_249" d="M59.2248 49.1205L58.0216 47.0405L56.0664 48.4453L57.0296 50.1125L59.2248 49.1205Z" fill="#DDE2F0"/>
<path id="Vector_250" d="M57.2269 44.1349L57.2269 41.7349L54.8301 41.9749L54.8301 43.8981L57.2269 44.1349Z" fill="#DDE2F0"/>
<path id="Vector_251" d="M57.9916 38.823L59.1916 36.743L56.9964 35.751L56.0332 37.415L57.9916 38.823Z" fill="#DDE2F0"/>
<path id="Vector_252" d="M61.3104 34.599L63.3904 33.399L61.9856 31.4438L60.3184 32.4038L61.3104 34.599Z" fill="#DDE2F0"/>
<path id="Vector_253" d="M41.3478 33.3767C41.316 34.5839 41.6428 35.7735 42.2871 36.795C42.9313 37.8164 43.864 38.6239 44.9672 39.1152C46.0704 39.6066 47.2946 39.7597 48.4848 39.5553C49.6751 39.3509 50.7779 38.7981 51.654 37.9668C52.53 37.1355 53.1399 36.0631 53.4064 34.8852C53.6729 33.7073 53.5841 32.4769 53.1512 31.3494C52.7184 30.222 51.9609 29.2483 50.9746 28.5514C49.9883 27.8545 48.8175 27.4657 47.6102 27.4343C46.8088 27.413 46.011 27.5498 45.2625 27.837C44.5139 28.1242 43.8293 28.556 43.2477 29.1079C42.6661 29.6597 42.199 30.3208 41.873 31.0532C41.547 31.7857 41.3686 32.5752 41.3478 33.3767ZM44.599 33.4631C44.6138 32.8993 44.7954 32.3526 45.1209 31.892C45.4464 31.4315 45.9012 31.0778 46.4277 30.8758C46.9543 30.6737 47.5289 30.6323 48.0789 30.7569C48.629 30.8814 49.1297 31.1663 49.5178 31.5755C49.906 31.9846 50.164 32.4997 50.2594 33.0556C50.3548 33.6114 50.2831 34.183 50.0536 34.6982C49.8241 35.2133 49.4469 35.6488 48.9698 35.9496C48.4927 36.2503 47.9372 36.4029 47.3734 36.3879C46.6177 36.3678 45.9009 36.0484 45.3807 35.4999C44.8604 34.9514 44.5792 34.2188 44.599 33.4631Z" fill="#EBEBEB"/>
<path id="Vector_254" d="M46.4336 27.6552L48.7792 27.7192L48.6928 26.0552L46.6064 25.9976L46.4336 27.6552Z" fill="#EBEBEB"/>
<path id="Vector_255" d="M50.8789 28.564L52.4949 30.2696L53.6117 29.0312L52.1749 27.5176L50.8789 28.564Z" fill="#EBEBEB"/>
<path id="Vector_256" d="M53.3804 32.3525L53.3164 34.6981L54.9804 34.6117L55.038 32.5253L53.3804 32.3525Z" fill="#EBEBEB"/>
<path id="Vector_257" d="M52.4712 36.7974L50.7656 38.4134L52.004 39.5302L53.5208 38.0934L52.4712 36.7974Z" fill="#EBEBEB"/>
<path id="Vector_258" d="M48.6835 39.2998L46.3379 39.2358L46.4243 40.903L48.5107 40.9574L48.6835 39.2998Z" fill="#EBEBEB"/>
<path id="Vector_259" d="M44.2406 38.3916L42.6246 36.686L41.5078 37.9244L42.9446 39.4412L44.2406 38.3916Z" fill="#EBEBEB"/>
<path id="Vector_260" d="M41.7357 34.6024L41.7997 32.2568L40.1357 32.3432L40.0781 34.4296L41.7357 34.6024Z" fill="#EBEBEB"/>
<path id="Vector_261" d="M42.6453 30.1576L44.3509 28.5416L43.1125 27.4248L41.5957 28.8648L42.6453 30.1576Z" fill="#EBEBEB"/>
<path id="Vector_262" d="M49.0715 32.0425L47.0683 31.4473L45.5547 32.8841L46.0475 34.9129L48.0475 35.5081L49.5675 34.0713L49.0715 32.0425ZM47.5387 34.1385C47.4075 34.1352 47.2802 34.0931 47.173 34.0173C47.0657 33.9416 46.9834 33.8358 46.9365 33.7132C46.8895 33.5906 46.8801 33.4569 46.9093 33.3289C46.9385 33.2009 47.005 33.0845 47.1005 32.9944C47.196 32.9044 47.3161 32.8447 47.4455 32.823C47.575 32.8013 47.7079 32.8185 47.8276 32.8725C47.9472 32.9265 48.0481 33.0149 48.1175 33.1263C48.1868 33.2377 48.2215 33.3673 48.2171 33.4985C48.2112 33.673 48.1367 33.8382 48.0096 33.9581C47.8826 34.078 47.7133 34.1428 47.5387 34.1385Z" fill="#EBEBEB"/>
<path id="Vector_263" d="M67.4941 28.5193L67.4941 26.8457H105.289L105.289 33.2297" stroke="#407BFF" stroke-width="0.24" stroke-miterlimit="10" stroke-dasharray="0.64 0.64"/>
<path id="Vector_264" d="M104.809 33.0923L105.289 33.9211L105.765 33.0923H104.809Z" fill="#407BFF"/>
</g>
<g id="freepik--Plant--inject-312">
<path id="Vector_265" d="M190.405 130.004C190.717 131.145 190.924 132.313 191.023 133.492C190.991 133.55 190.997 133.767 191.023 133.706C191.023 133.898 191.321 133.863 191.321 133.674C191.321 133.553 191.321 133.428 191.321 133.31C192.002 132.462 192.994 131.927 193.791 131.191C194.436 130.615 194.905 129.868 195.145 129.038C195.81 126.753 195.186 124.33 195.986 122.049C196.674 120.084 197.906 118.375 198.95 116.593C200.05 114.711 200.87 112.73 200.946 110.513C201.01 108.823 200.809 106.574 199.522 105.306C198.159 103.965 196.469 104.97 195.423 106.167C192.396 109.642 190.994 114.033 190.428 118.522C190.108 121.009 189.788 123.508 189.868 126.017C189.914 127.36 190.095 128.696 190.405 130.004Z" fill="#DDE2F0"/>
<path id="Vector_266" d="M191.009 134.403C190.843 132.058 190.871 129.704 191.092 127.363C191.092 127.363 191.092 127.363 191.092 127.338C191.054 125.437 190.903 123.539 190.977 121.635C191.07 119.575 191.351 117.527 191.815 115.517C191.815 115.495 191.857 115.517 191.854 115.517C191.481 117.492 191.26 119.492 191.191 121.501C191.153 122.576 191.159 123.651 191.217 124.723C191.236 125.075 191.268 125.427 191.291 125.779C192.082 120.437 194.013 115.328 196.951 110.797C196.993 110.736 197.102 110.797 197.063 110.864C194.963 114.308 193.408 118.055 192.455 121.975C193.911 119.277 196.11 117.056 197.742 114.464C197.742 114.464 197.774 114.464 197.767 114.48C196.302 117.36 193.879 119.642 192.327 122.48C192.059 123.642 191.838 124.81 191.687 126C191.468 127.607 191.348 129.226 191.329 130.848C192.215 129.191 193.134 127.607 193.86 125.853C193.879 125.808 193.947 125.837 193.931 125.885C193.313 127.706 192.484 129.667 191.323 131.219C191.323 132.375 191.351 133.527 191.419 134.679C191.601 137.751 192.126 140.784 192.379 143.847C192.379 143.865 192.371 143.883 192.358 143.896C192.345 143.91 192.327 143.917 192.308 143.917C192.289 143.917 192.272 143.91 192.258 143.896C192.245 143.883 192.238 143.865 192.238 143.847C191.614 140.731 191.203 137.575 191.009 134.403Z" fill="#407BFF"/>
<path id="Vector_267" d="M194.276 110.689C194.276 110.666 194.318 110.689 194.308 110.689C193.748 112.241 193.431 113.815 193.028 115.405C193.026 115.421 193.017 115.434 193.004 115.443C192.992 115.452 192.976 115.456 192.961 115.453C192.946 115.451 192.932 115.442 192.923 115.43C192.914 115.417 192.91 115.402 192.913 115.386C193.073 113.799 193.652 112.189 194.276 110.689Z" fill="#407BFF"/>
<path id="Vector_268" d="M180.02 117.207C180.391 118.117 180.819 119.003 181.3 119.86C182.311 121.697 183.367 123.38 183.54 125.514C183.574 126.471 183.71 127.422 183.946 128.349C184.214 129.139 184.595 129.886 185.076 130.567C186.173 132.167 187.543 133.537 188.557 135.194C189.622 136.919 190.412 138.8 190.897 140.769C190.919 140.877 191.089 140.849 191.063 140.74C191.063 140.74 191.063 140.724 191.063 140.717C191.065 140.71 191.065 140.702 191.063 140.695C191.223 136.109 190.858 131.492 189.463 127.101C188.845 125.171 188.103 123.282 187.242 121.447C186.538 119.825 185.519 118.359 184.244 117.133C183.389 116.365 181.54 114.909 180.327 115.681C179.748 116.052 179.789 116.637 180.02 117.207Z" fill="#DDE2F0"/>
<path id="Vector_269" d="M184.626 127.597C185.433 128.931 186.324 130.214 187.291 131.437C187.733 132.016 188.184 132.589 188.629 133.172C188.837 133.444 189.07 133.719 189.269 134.013C189.147 133.53 189.032 133.053 188.907 132.567C188.315 130.25 187.749 127.914 186.866 125.687C185.965 123.53 184.902 121.445 183.685 119.45C183.653 119.396 183.739 119.357 183.771 119.408C184.731 121.008 185.723 122.592 186.536 124.272C186.986 125.208 187.378 126.169 187.71 127.152C187.337 125.063 186.815 123.004 186.149 120.989C186.149 120.97 186.168 120.957 186.174 120.989C187.048 123.024 187.595 125.184 187.797 127.389C187.995 127.984 188.179 128.585 188.347 129.191C189.07 131.751 189.704 134.346 190.293 136.944C190.302 135.236 190.155 133.531 189.851 131.85C189.851 131.808 189.899 131.802 189.909 131.85C190.357 133.603 190.507 135.42 190.354 137.223C190.574 138.212 190.792 139.204 190.994 140.192C191.442 142.304 191.995 144.455 192.274 146.592C192.271 146.602 192.265 146.61 192.257 146.616C192.25 146.622 192.24 146.625 192.23 146.625C192.221 146.625 192.211 146.622 192.203 146.616C192.195 146.61 192.19 146.602 192.187 146.592C191.867 145.437 191.685 144.237 191.426 143.072C191.166 141.908 190.904 140.727 190.629 139.552C190.232 137.846 189.819 136.139 189.39 134.432C189.106 133.808 188.558 133.255 188.146 132.733C187.694 132.16 187.243 131.588 186.805 131.005C185.98 129.927 185.243 128.786 184.6 127.591C184.574 127.591 184.61 127.575 184.626 127.597Z" fill="#407BFF"/>
<path id="Vector_270" d="M184.429 125.639C185.438 126.926 186.312 128.314 187.037 129.78C187.037 129.799 187.018 129.818 187.005 129.799C186.128 128.426 185.264 127.041 184.391 125.665C184.375 125.642 184.413 125.617 184.429 125.639Z" fill="#407BFF"/>
<path id="Vector_271" d="M203.94 121.568C203.348 122.592 202.66 123.808 202.926 125.05C203.086 125.828 203.655 126.458 203.758 127.252C203.988 129.002 202.244 130.157 200.98 130.986C197.835 133.05 193.518 134.89 192.945 139.108C192.923 139.258 192.667 139.22 192.686 139.072C192.686 139.072 192.686 139.072 192.686 139.047C192.686 139.021 192.686 139.047 192.686 139.021C192.271 136.892 192.291 134.701 192.743 132.58C193.214 130.407 194.161 128.455 195.281 126.544C197.175 123.312 199.182 120.004 202.046 117.53C202.839 116.845 204.462 115.61 205.092 117.159C205.723 118.708 204.67 120.308 203.94 121.568Z" fill="#DDE2F0"/>
<path id="Vector_272" d="M201.06 128.404C198.974 130.663 195.659 131.924 193.86 134.458C194.863 130.607 196.76 127.046 199.396 124.065C199.464 123.988 199.355 123.876 199.281 123.949C197.36 125.816 195.822 128.042 194.756 130.5C195.254 128.784 195.906 127.118 196.705 125.521C196.734 125.46 196.648 125.405 196.612 125.466C195.627 127.21 194.924 129.099 194.529 131.063C192.164 136.791 191.944 143.511 192.44 149.549C192.443 149.565 192.452 149.579 192.464 149.589C192.477 149.599 192.492 149.605 192.508 149.605C192.524 149.605 192.54 149.599 192.553 149.589C192.565 149.579 192.574 149.565 192.577 149.549C192.44 144.791 192.516 139.949 193.659 135.303C193.681 135.204 193.707 135.108 193.732 135.012C195.688 132.289 198.99 131.028 201.115 128.439C201.118 128.417 201.083 128.378 201.06 128.404Z" fill="#407BFF"/>
<path id="Vector_273" d="M201.544 126.465C200.449 127.47 199.371 128.497 198.273 129.502C198.273 129.502 198.273 129.53 198.273 129.521C199.516 128.685 200.634 127.678 201.595 126.529C201.598 126.521 201.599 126.513 201.597 126.505C201.596 126.496 201.593 126.489 201.587 126.482C201.582 126.476 201.576 126.471 201.568 126.468C201.56 126.465 201.552 126.464 201.544 126.465Z" fill="#407BFF"/>
<path id="Vector_274" d="M201.718 122.109C200.749 123.699 199.652 125.207 198.438 126.618C198.437 126.62 198.435 126.622 198.435 126.625C198.434 126.627 198.433 126.63 198.434 126.632C198.434 126.635 198.434 126.637 198.436 126.639C198.437 126.642 198.438 126.644 198.44 126.645C198.442 126.647 198.444 126.648 198.447 126.649C198.449 126.65 198.451 126.65 198.454 126.65C198.457 126.65 198.459 126.649 198.461 126.648C198.464 126.647 198.466 126.646 198.467 126.644C199.828 125.352 200.948 123.829 201.776 122.145C201.795 122.106 201.741 122.071 201.718 122.109Z" fill="#407BFF"/>
<path id="Vector_275" d="M196.785 153.809H187.191L188.484 140.9H195.31L196.785 153.809Z" fill="#455A64"/>
<path id="Vector_276" d="M195.55 142.999H188.273L188.485 140.9H195.31L195.55 142.999Z" fill="#407BFF"/>
<path id="Vector_277" d="M196.484 139.469H187.492L187.492 141.53H196.484L196.484 139.469Z" fill="#455A64"/>
</g>
</g>
</g>
<defs>
<clipPath id="clip0_5729_16502">
<rect width="212" height="180" fill="white" transform="translate(0 -0.00244141)"/>
</clipPath>
</defs>
</svg>
