<svg width="212" height="180" viewBox="0 0 212 180" fill="none" xmlns="http://www.w3.org/2000/svg">
<g id="Digital " clip-path="url(#clip0_4915_13598)">
<g id="freepik--background-complete--inject-62">
<path id="Vector" d="M193.856 152.13H179.217L179.217 152.241H193.856L193.856 152.13Z" fill="#EBEBEB"/>
<path id="Vector_2" d="M141.4 153.333H137.559L137.559 153.443H141.4L141.4 153.333Z" fill="#EBEBEB"/>
<path id="Vector_3" d="M178.775 148.028H170.293L170.293 148.139H178.775L178.775 148.028Z" fill="#EBEBEB"/>
<path id="Vector_4" d="M37.2775 148.771H18.1875L18.1875 148.881H37.2775L37.2775 148.771Z" fill="#EBEBEB"/>
<path id="Vector_5" d="M44.0137 148.771H41.2158L41.2158 148.881H44.0137L44.0137 148.771Z" fill="#EBEBEB"/>
<path id="Vector_6" d="M94.5159 150.636H53.1094L53.1094 150.747H94.5159L94.5159 150.636Z" fill="#EBEBEB"/>
<path id="Vector_7" d="M99.7539 125.305H14.4125C13.7431 125.305 13.1012 125.039 12.6279 124.566C12.1546 124.093 11.8887 123.451 11.8887 122.781L11.8887 2.80934C11.8945 2.14382 12.163 1.50754 12.6356 1.039C13.1083 0.570458 13.7469 0.307592 14.4125 0.307617H99.7539C100.423 0.307617 101.065 0.573519 101.538 1.04683C102.012 1.52014 102.278 2.16208 102.278 2.83144L102.278 122.781C102.278 123.451 102.012 124.093 101.538 124.566C101.065 125.039 100.423 125.305 99.7539 125.305ZM14.4125 0.396018C13.7728 0.397186 13.1596 0.65182 12.7073 1.10415C12.255 1.55648 12.0003 2.16964 11.9992 2.80934L11.9992 122.781C12.0003 123.421 12.255 124.034 12.7073 124.487C13.1596 124.939 13.7728 125.194 14.4125 125.195H99.7539C100.394 125.194 101.007 124.939 101.459 124.487C101.911 124.034 102.166 123.421 102.167 122.781L102.167 2.80934C102.166 2.16964 101.911 1.55648 101.459 1.10415C101.007 0.65182 100.394 0.397186 99.7539 0.396018H14.4125Z" fill="#EBEBEB"/>
<path id="Vector_8" d="M195.363 125.305H110.013C109.344 125.304 108.703 125.038 108.23 124.565C107.757 124.092 107.49 123.45 107.489 122.781L107.489 2.80934C107.496 2.14418 107.765 1.50857 108.238 1.04027C108.71 0.571981 109.348 0.308744 110.013 0.307617H195.363C196.027 0.309918 196.664 0.573811 197.134 1.0421C197.605 1.51039 197.872 2.14534 197.878 2.80934L197.878 122.781C197.878 123.449 197.614 124.09 197.142 124.563C196.671 125.036 196.031 125.303 195.363 125.305ZM110.013 0.396018C109.373 0.397186 108.76 0.65182 108.308 1.10415C107.856 1.55648 107.601 2.16964 107.6 2.80934L107.6 122.781C107.601 123.421 107.856 124.034 108.308 124.487C108.76 124.939 109.373 125.194 110.013 125.195H195.363C196.003 125.194 196.616 124.939 197.068 124.487C197.521 124.034 197.775 123.421 197.777 122.781L197.777 2.80934C197.775 2.16964 197.521 1.55648 197.068 1.10415C196.616 0.65182 196.003 0.397186 195.363 0.396018H110.013Z" fill="#EBEBEB"/>
<path id="Vector_9" d="M216 145.018H-5L-5 145.129H216L216 145.018Z" fill="#EBEBEB"/>
<path id="Vector_10" d="M177.922 85.4604C182.636 84.3479 185.555 79.6249 184.442 74.9113C183.33 70.1976 178.607 67.2784 173.893 68.3909C169.18 69.5034 166.26 74.2264 167.373 78.9401C168.485 83.6537 173.208 86.573 177.922 85.4604Z" fill="#E0E0E0"/>
<path id="Vector_11" d="M179.286 85.4561C184 84.3435 186.919 79.6205 185.807 74.9069C184.694 70.1933 179.971 67.274 175.257 68.3865C170.544 69.499 167.625 74.222 168.737 78.9357C169.85 83.6493 174.573 86.5686 179.286 85.4561Z" fill="#F0F0F0"/>
<path id="Vector_12" d="M179.857 83.1405C183.296 81.7159 184.93 77.7729 183.505 74.3336C182.08 70.8943 178.137 69.2611 174.698 70.6857C171.259 72.1103 169.626 76.0532 171.05 79.4925C172.475 82.9319 176.418 84.5651 179.857 83.1405Z" fill="#F5F5F5"/>
<path id="Vector_13" d="M182.991 76.9148C182.991 75.2168 182.349 73.5817 181.194 72.3368C180.039 71.0918 178.457 70.329 176.764 70.2008C176.932 70.2008 177.1 70.1743 177.276 70.1743C179.064 70.1743 180.779 70.8845 182.043 72.1486C183.307 73.4126 184.017 75.1271 184.017 76.9148C184.017 78.7025 183.307 80.417 182.043 81.6811C180.779 82.9452 179.064 83.6553 177.276 83.6553C177.1 83.6553 176.932 83.6553 176.764 83.6553C178.461 83.5258 180.047 82.7589 181.202 81.5086C182.357 80.2582 182.996 78.6171 182.991 76.9148Z" fill="#E0E0E0"/>
<path id="Vector_14" d="M177.276 72.6279L176.312 75.5893H173.196L175.716 77.4236L174.752 80.385L177.276 78.5552L179.795 80.385L178.832 77.4236L181.351 75.5893H178.235L177.276 72.6279Z" fill="#E6E6E6"/>
<path id="Vector_15" d="M178.687 114.873L152.82 120.372C151.182 120.72 150.137 122.33 150.485 123.968L151.453 128.52C151.801 130.158 153.411 131.204 155.049 130.856L180.916 125.358C182.554 125.009 183.599 123.399 183.251 121.761L182.284 117.209C181.935 115.571 180.325 114.525 178.687 114.873Z" fill="#EBEBEB"/>
<path id="Vector_16" d="M167.216 119.754C166.771 119.464 166.253 119.307 165.721 119.3C165.19 119.294 164.668 119.44 164.217 119.719C163.765 119.999 163.402 120.401 163.171 120.88C162.94 121.358 162.849 121.892 162.91 122.42C162.971 122.947 163.181 123.447 163.516 123.86C163.85 124.272 164.295 124.581 164.799 124.75C165.302 124.92 165.844 124.942 166.359 124.815C166.875 124.687 167.344 124.416 167.711 124.032C167.757 124.171 167.847 124.29 167.968 124.372L170.204 125.827C170.353 125.922 170.533 125.955 170.706 125.919C170.879 125.883 171.03 125.78 171.128 125.632C171.176 125.559 171.21 125.477 171.226 125.391C171.243 125.304 171.242 125.216 171.224 125.13C171.206 125.044 171.171 124.962 171.121 124.89C171.071 124.818 171.007 124.756 170.933 124.708L168.706 123.254C168.583 123.177 168.439 123.143 168.295 123.157C168.539 122.553 168.564 121.882 168.368 121.261C168.171 120.64 167.764 120.107 167.216 119.754ZM167.38 123.184C167.166 123.514 166.859 123.773 166.498 123.929C166.137 124.085 165.737 124.13 165.35 124.059C164.963 123.988 164.606 123.804 164.324 123.53C164.042 123.256 163.847 122.904 163.765 122.519C163.682 122.134 163.716 121.734 163.862 121.368C164.007 121.002 164.258 120.688 164.582 120.465C164.906 120.242 165.289 120.12 165.682 120.114C166.076 120.109 166.462 120.22 166.792 120.434C167.233 120.722 167.543 121.172 167.653 121.688C167.763 122.203 167.665 122.741 167.38 123.184Z" fill="#FAFAFA"/>
<path id="Vector_17" d="M49.728 118.507C47.8317 119.158 46.2714 120.536 45.3904 122.337C44.5093 124.138 44.3795 126.215 45.0296 128.112C46.0815 131.175 52.3137 135.325 55.0541 137.031C55.2121 137.126 55.3889 137.185 55.5721 137.204C55.7553 137.223 55.9404 137.202 56.1145 137.141C56.2885 137.081 56.4472 136.983 56.5794 136.855C56.7116 136.727 56.8141 136.571 56.8796 136.399C57.9979 133.371 60.3714 126.273 59.3194 123.205C58.6683 121.312 57.2929 119.754 55.4949 118.874C53.6969 117.993 51.6231 117.861 49.728 118.507ZM53.3436 129.066C52.6698 129.297 51.9428 129.322 51.2547 129.138C50.5666 128.955 49.9483 128.572 49.4782 128.037C49.0081 127.502 48.7073 126.84 48.6138 126.134C48.5204 125.428 48.6385 124.71 48.9532 124.071C49.2679 123.433 49.7651 122.902 50.3818 122.546C50.9985 122.19 51.707 122.025 52.4175 122.072C53.128 122.118 53.8087 122.375 54.3732 122.809C54.9378 123.243 55.3609 123.835 55.589 124.509C55.8939 125.411 55.8289 126.398 55.408 127.252C54.9871 128.106 54.2447 128.759 53.3436 129.066Z" fill="#EBEBEB"/>
<path id="Vector_18" d="M48.4071 36.7549H44.8092C44.3917 36.7548 43.9806 36.858 43.6127 37.0555C43.2448 37.2529 42.9315 37.5384 42.7008 37.8864L42.1749 38.682C41.9635 39.001 41.6766 39.2627 41.3396 39.444C41.0026 39.6252 40.626 39.7203 40.2433 39.7207H30.9613C30.7632 39.7201 30.567 39.7587 30.3839 39.8343C30.2007 39.9098 30.0343 40.0208 29.8943 40.1609C29.7542 40.301 29.6432 40.4673 29.5676 40.6505C29.4921 40.8336 29.4535 41.0299 29.4541 41.228L29.4541 55.73H50.3916L50.3916 39.7207L50.206 38.3284C50.1499 37.8918 49.936 37.4907 49.6046 37.2009C49.2733 36.911 48.8473 36.7524 48.4071 36.7549Z" fill="#E0E0E0"/>
<path id="Vector_19" d="M48.8179 41.5503H31.0186L31.0186 53.723H48.8179L48.8179 41.5503Z" fill="#FAFAFA"/>
<path id="Vector_20" d="M50.3874 55.7299H29.4499L26.3559 44.5429C26.3005 44.3454 26.2917 44.1378 26.3302 43.9363C26.3686 43.7348 26.4533 43.545 26.5775 43.3818C26.7017 43.2186 26.8622 43.0864 27.0461 42.9957C27.2301 42.9049 27.4326 42.8581 27.6377 42.8589H44.8005C45.3858 42.8563 45.9554 43.0474 46.4207 43.4024C46.886 43.7574 47.2208 44.2563 47.373 44.8214L50.3874 55.7299Z" fill="#F0F0F0"/>
<path id="Vector_21" d="M81.6314 22.602H96.5268C96.7226 22.5986 96.9158 22.5565 97.0952 22.4781C97.2747 22.3997 97.4369 22.2866 97.5724 22.1452C97.708 22.0039 97.8143 21.8372 97.8852 21.6546C97.956 21.4721 97.9901 21.2773 97.9854 21.0815H80.1684C80.1637 21.2777 80.1979 21.4728 80.2691 21.6556C80.3402 21.8385 80.4469 22.0054 80.5829 22.1468C80.719 22.2882 80.8817 22.4012 81.0616 22.4793C81.2416 22.5575 81.4352 22.5992 81.6314 22.602Z" fill="#E0E0E0"/>
<path id="Vector_22" d="M92.0279 22.602H106.923C107.118 22.5974 107.311 22.5545 107.489 22.4756C107.667 22.3966 107.829 22.2834 107.963 22.1422C108.098 22.001 108.203 21.8346 108.274 21.6526C108.344 21.4706 108.378 21.2766 108.373 21.0815H90.5737C90.569 21.2769 90.6029 21.4714 90.6735 21.6536C90.7441 21.8359 90.85 22.0024 90.9851 22.1437C91.1202 22.285 91.2818 22.3982 91.4608 22.4768C91.6397 22.5555 91.8324 22.598 92.0279 22.602Z" fill="#F0F0F0"/>
<path id="Vector_23" d="M81.4999 22.1378H90.5785C90.6349 22.1361 90.6901 22.1212 90.7396 22.0942C90.7892 22.0671 90.8316 22.0288 90.8635 21.9823C90.8954 21.9357 90.9158 21.8823 90.9231 21.8264C90.9305 21.7704 90.9245 21.7136 90.9056 21.6604L85.9243 6.79594C85.862 6.59907 85.7392 6.42687 85.5733 6.30386C85.4074 6.18086 85.207 6.11331 85.0005 6.11084H75.9218C75.8654 6.11248 75.8102 6.12742 75.7607 6.15445C75.7112 6.18147 75.6688 6.21981 75.6369 6.26635C75.605 6.31288 75.5846 6.36629 75.5773 6.42222C75.5699 6.47815 75.5759 6.53503 75.5947 6.5882L80.5761 21.4527C80.6384 21.6495 80.7612 21.8217 80.9271 21.9447C81.0929 22.0677 81.2934 22.1353 81.4999 22.1378Z" fill="#E0E0E0"/>
<path id="Vector_24" d="M81.0614 22.1378H90.1401C90.1965 22.1361 90.2517 22.1212 90.3012 22.0942C90.3507 22.0671 90.3931 22.0288 90.425 21.9823C90.4569 21.9357 90.4773 21.8823 90.4846 21.8264C90.492 21.7704 90.486 21.7136 90.4672 21.6604L85.4858 6.79594C85.4235 6.59907 85.3007 6.42687 85.1348 6.30386C84.969 6.18086 84.7685 6.11331 84.562 6.11084H75.4833C75.427 6.11248 75.3718 6.12742 75.3222 6.15445C75.2727 6.18147 75.2303 6.21981 75.1984 6.26635C75.1665 6.31288 75.1461 6.36629 75.1388 6.42222C75.1314 6.47815 75.1374 6.53503 75.1563 6.5882L80.1376 21.4527C80.1999 21.6495 80.3227 21.8217 80.4886 21.9447C80.6545 22.0677 80.8549 22.1353 81.0614 22.1378Z" fill="#F0F0F0"/>
<path id="Vector_25" d="M82.0738 14.1246C82.1931 14.6948 82.5688 15.1589 82.918 15.1589C83.2672 15.1589 83.4573 14.7169 83.36 14.1246C83.2628 13.5323 82.865 13.0947 82.5158 13.0947C82.1666 13.0947 81.9589 13.5677 82.0738 14.1246Z" fill="#EEEEEE"/>
<path id="Vector_26" d="M101.809 13.9081C102.192 13.18 102.361 12.3584 102.296 11.5383C102.232 10.7181 101.936 9.93316 101.443 9.27426C100.951 8.61535 100.282 8.1095 99.5133 7.81528C98.745 7.52107 97.9091 7.45055 97.1024 7.61189C96.2957 7.77323 95.5512 8.15982 94.9552 8.72689C94.3592 9.29395 93.9361 10.0183 93.7348 10.8159C93.5336 11.6136 93.5624 12.452 93.8181 13.2339C94.0737 14.0159 94.5457 14.7094 95.1793 15.2341L94.9804 17.5016L96.7484 16.0695C97.7118 16.3479 98.7418 16.2849 99.6641 15.891C100.586 15.4971 101.344 14.7966 101.809 13.9081Z" fill="#E0E0E0"/>
<path id="Vector_27" d="M100.523 10.1064H95.6607C95.615 10.1064 95.5712 10.1246 95.5388 10.1569C95.5065 10.1893 95.4883 10.2331 95.4883 10.2788L95.4883 13.7353C95.4877 13.7581 95.4918 13.7808 95.5002 13.8019C95.5087 13.8231 95.5213 13.8424 95.5375 13.8585C95.5536 13.8746 95.5728 13.8873 95.594 13.8958C95.6152 13.9042 95.6379 13.9083 95.6607 13.9076H100.523C100.546 13.9083 100.568 13.9042 100.589 13.8958C100.611 13.8873 100.63 13.8746 100.646 13.8585C100.662 13.8424 100.675 13.8231 100.683 13.8019C100.692 13.7808 100.696 13.7581 100.695 13.7353L100.695 10.2788C100.695 10.2331 100.677 10.1893 100.645 10.1569C100.612 10.1246 100.568 10.1064 100.523 10.1064ZM100.443 13.4745L98.9757 12.007L100.443 10.5396L100.443 13.4745ZM100.262 10.3805L98.7945 11.8435L98.0829 12.5595L95.9038 10.3805H100.262ZM95.727 10.5573L97.19 12.0247L95.727 13.4922L95.727 10.5573ZM95.9038 13.6513L97.3713 12.1838L98.0829 12.8955L98.7945 12.1838L100.262 13.6513H95.9038Z" fill="#FAFAFA"/>
<path id="Vector_28" d="M173.161 54.1653L166.253 48.9762L173.161 43.7871L173.736 44.5518L167.844 48.9762L173.736 53.4006L173.161 54.1653Z" fill="#E0E0E0"/>
<path id="Vector_29" d="M167.049 50.3286C167.796 50.3286 168.401 49.723 168.401 48.9761C168.401 48.2291 167.796 47.6235 167.049 47.6235C166.302 47.6235 165.696 48.2291 165.696 48.9761C165.696 49.723 166.302 50.3286 167.049 50.3286Z" fill="#EBEBEB"/>
<path id="Vector_30" d="M174.894 44.1714C174.894 44.4389 174.814 44.7004 174.666 44.9228C174.517 45.1452 174.306 45.3186 174.059 45.4209C173.811 45.5233 173.539 45.5501 173.277 45.4979C173.015 45.4457 172.774 45.3169 172.585 45.1277C172.395 44.9386 172.267 44.6976 172.214 44.4352C172.162 44.1729 172.189 43.9009 172.291 43.6538C172.394 43.4066 172.567 43.1954 172.79 43.0468C173.012 42.8982 173.273 42.8188 173.541 42.8188C173.9 42.8188 174.244 42.9613 174.497 43.215C174.751 43.4686 174.894 43.8127 174.894 44.1714Z" fill="#EBEBEB"/>
<path id="Vector_31" d="M173.532 55.2348C174.279 55.2348 174.885 54.6293 174.885 53.8823C174.885 53.1353 174.279 52.5298 173.532 52.5298C172.785 52.5298 172.18 53.1353 172.18 53.8823C172.18 54.6293 172.785 55.2348 173.532 55.2348Z" fill="#EBEBEB"/>
</g>
<g id="freepik--Shadow--inject-62">
<path id="freepik--path--inject-62" d="M103.369 163.277C150.7 163.277 189.069 161.037 189.069 158.274C189.069 155.511 150.7 153.271 103.369 153.271C56.0388 153.271 17.6699 155.511 17.6699 158.274C17.6699 161.037 56.0388 163.277 103.369 163.277Z" fill="#F5F5F5"/>
<path id="freepik--path--inject-62_2" opacity="0.25" d="M103.498 170.198C129.599 170.198 153.234 168.798 170.346 166.535C178.901 165.403 185.833 164.055 190.631 162.554C193.029 161.804 194.906 161.013 196.187 160.185C197.457 159.364 198.198 158.469 198.198 157.498C198.198 156.526 197.457 155.632 196.187 154.81C194.906 153.982 193.029 153.191 190.631 152.441C185.833 150.941 178.901 149.592 170.346 148.46C153.234 146.197 129.599 144.798 103.498 144.798C77.3967 144.798 53.7625 146.197 36.6502 148.46C28.0956 149.592 21.1628 150.941 16.3646 152.441C13.967 153.191 12.0905 153.982 10.8094 154.81C9.53895 155.632 8.79805 156.526 8.79805 157.498C8.79805 158.469 9.53895 159.364 10.8094 160.185C12.0905 161.013 13.967 161.804 16.3646 162.554C21.1628 164.055 28.0956 165.403 36.6502 166.535C53.7625 168.798 77.3967 170.198 103.498 170.198Z" stroke="#474747" stroke-opacity="0.5" stroke-width="0.4"/>
</g>
<g id="freepik--Device--inject-62">
<path id="Vector_32" d="M74.5162 34.8763H84.9828L95.5378 155.542H85.0712C82.6794 155.5 80.3862 154.582 78.6254 152.963C76.8645 151.343 75.758 149.135 75.5152 146.755L66.4984 43.6589C66.3757 42.5404 66.4928 41.4087 66.8418 40.339C67.1907 39.2693 67.7636 38.2863 68.5222 37.4553C69.2808 36.6244 70.2078 35.9646 71.2413 35.5199C72.2748 35.0752 73.3913 34.8558 74.5162 34.8763Z" fill="#263238"/>
<path id="Vector_33" d="M68.0315 46.9781C68.0088 46.7498 67.9031 46.5377 67.7344 46.3821C67.5658 46.2265 67.3459 46.1382 67.1165 46.1339C67.0085 46.132 66.9012 46.1531 66.802 46.1959C66.7028 46.2387 66.6138 46.3022 66.541 46.3821C66.4682 46.4619 66.4133 46.5564 66.3799 46.6592C66.3466 46.762 66.3355 46.8707 66.3474 46.9781L67.0546 55.0623C67.0783 55.2899 67.1845 55.5009 67.353 55.6556C67.5215 55.8103 67.7408 55.8979 67.9696 55.9021C68.0772 55.904 68.184 55.8829 68.2829 55.8404C68.3818 55.7979 68.4706 55.7348 68.5433 55.6554C68.616 55.576 68.671 55.4821 68.7047 55.3799C68.7384 55.2776 68.7499 55.1694 68.7387 55.0623L68.0315 46.9781Z" fill="#407BFF"/>
<path id="Vector_34" opacity="0.3" d="M68.0315 46.9781C68.0088 46.7498 67.9031 46.5377 67.7344 46.3821C67.5658 46.2265 67.3459 46.1382 67.1165 46.1339C67.0085 46.132 66.9012 46.1531 66.802 46.1959C66.7028 46.2387 66.6138 46.3022 66.541 46.3821C66.4682 46.4619 66.4133 46.5564 66.3799 46.6592C66.3466 46.762 66.3355 46.8707 66.3474 46.9781L67.0546 55.0623C67.0783 55.2899 67.1845 55.5009 67.353 55.6556C67.5215 55.8103 67.7408 55.8979 67.9696 55.9021C68.0772 55.904 68.184 55.8829 68.2829 55.8404C68.3818 55.7979 68.4706 55.7348 68.5433 55.6554C68.616 55.576 68.671 55.4821 68.7047 55.3799C68.7384 55.2776 68.7499 55.1694 68.7387 55.0623L68.0315 46.9781Z" fill="#EEEEEE"/>
<path id="Vector_35" d="M87.2147 155.542H130.35C131.475 155.562 132.591 155.342 133.625 154.897C134.658 154.452 135.585 153.792 136.344 152.96C137.102 152.129 137.675 151.146 138.024 150.076C138.373 149.006 138.49 147.874 138.367 146.755L129.368 43.6589C129.124 41.2799 128.018 39.0726 126.257 37.4544C124.496 35.8361 122.203 34.919 119.812 34.8763H76.6598C75.5348 34.8558 74.4184 35.0752 73.3849 35.5199C72.3513 35.9646 71.4244 36.6244 70.6658 37.4553C69.9072 38.2863 69.3343 39.2693 68.9853 40.339C68.6364 41.4087 68.5193 42.5404 68.6419 43.6589L77.6543 146.755C77.8972 149.136 79.0043 151.345 80.7661 152.964C82.528 154.583 84.8222 155.501 87.2147 155.542Z" fill="#407BFF"/>
<path id="Vector_36" d="M76.8321 36.8916H88.0456C88.4106 36.8985 88.7627 37.0277 89.0456 37.2585C89.3285 37.4893 89.5258 37.8083 89.6058 38.1645L89.681 38.5137C89.8784 39.3805 90.3605 40.1562 91.0502 40.717C91.74 41.2778 92.5978 41.5914 93.4866 41.6077H104.143C104.985 41.6256 105.8 41.3107 106.41 40.7313C107.021 40.152 107.379 39.3551 107.405 38.5137L107.405 38.1645C107.419 37.8221 107.565 37.4983 107.812 37.261C108.059 37.0237 108.389 36.8913 108.731 36.8916H119.94C121.784 36.9193 123.554 37.6242 124.911 38.8721C126.269 40.1199 127.121 41.8235 127.304 43.6586L136.321 146.755C136.416 147.618 136.326 148.491 136.057 149.317C135.787 150.142 135.345 150.901 134.759 151.541C134.174 152.182 133.458 152.691 132.66 153.033C131.863 153.376 131.001 153.544 130.133 153.527H87.0378C85.1949 153.493 83.4282 152.785 82.0714 151.538C80.7146 150.29 79.8618 148.589 79.6741 146.755L70.6573 43.6586C70.563 42.7971 70.6533 41.9254 70.9221 41.1015C71.1908 40.2777 71.632 39.5205 72.2161 38.8803C72.8002 38.2401 73.514 37.7317 74.3099 37.3888C75.1058 37.0459 75.9656 36.8764 76.8321 36.8916Z" fill="#407BFF"/>
<path id="Vector_37" opacity="0.9" d="M76.8321 36.8916H88.0456C88.4106 36.8985 88.7627 37.0277 89.0456 37.2585C89.3285 37.4893 89.5258 37.8083 89.6058 38.1645L89.681 38.5137C89.8784 39.3805 90.3605 40.1562 91.0502 40.717C91.74 41.2778 92.5978 41.5914 93.4866 41.6077H104.143C104.985 41.6256 105.8 41.3107 106.41 40.7313C107.021 40.152 107.379 39.3551 107.405 38.5137L107.405 38.1645C107.419 37.8221 107.565 37.4983 107.812 37.261C108.059 37.0237 108.389 36.8913 108.731 36.8916H119.94C121.784 36.9193 123.554 37.6242 124.911 38.8721C126.269 40.1199 127.121 41.8235 127.304 43.6586L136.321 146.755C136.416 147.618 136.326 148.491 136.057 149.317C135.787 150.142 135.345 150.901 134.759 151.541C134.174 152.182 133.458 152.691 132.66 153.033C131.863 153.376 131.001 153.544 130.133 153.527H87.0378C85.1949 153.493 83.4282 152.785 82.0714 151.538C80.7146 150.29 79.8618 148.589 79.6741 146.755L70.6573 43.6586C70.563 42.7971 70.6533 41.9254 70.9221 41.1015C71.1908 40.2777 71.632 39.5205 72.2161 38.8803C72.8002 38.2401 73.514 37.7317 74.3099 37.3888C75.1058 37.0459 75.9656 36.8764 76.8321 36.8916Z" fill="#EEEEEE"/>
<g id="Group" opacity="0.2">
<path id="Vector_38" d="M101.111 38.032C101.133 38.2639 101.24 38.4793 101.412 38.6374C101.583 38.7955 101.806 38.8852 102.039 38.8895C102.149 38.8914 102.258 38.8699 102.358 38.8265C102.459 38.783 102.55 38.7186 102.624 38.6374C102.698 38.5563 102.754 38.4604 102.788 38.356C102.822 38.2516 102.833 38.1412 102.821 38.032C102.798 37.8002 102.691 37.5847 102.52 37.4266C102.349 37.2686 102.126 37.1788 101.893 37.1745C101.783 37.1719 101.674 37.1929 101.572 37.2361C101.471 37.2793 101.381 37.3438 101.306 37.425C101.232 37.5063 101.176 37.6026 101.143 37.7073C101.109 37.812 101.098 37.9227 101.111 38.032Z" fill="black"/>
<path id="Vector_39" d="M94.9578 37.1744H97.8971C98.1303 37.1796 98.3535 37.2695 98.5252 37.4273C98.6968 37.5851 98.8051 37.8001 98.8298 38.0319C98.8417 38.1411 98.8303 38.2515 98.7962 38.3559C98.7622 38.4603 98.7063 38.5562 98.6323 38.6374C98.5582 38.7185 98.4678 38.7829 98.367 38.8264C98.2661 38.8698 98.1572 38.8913 98.0474 38.8894H95.1081C94.8752 38.8851 94.652 38.7954 94.4808 38.6373C94.3097 38.4792 94.2026 38.2638 94.1799 38.0319C94.1673 37.923 94.1781 37.8127 94.2116 37.7083C94.2452 37.6039 94.3006 37.5078 94.3743 37.4266C94.448 37.3454 94.5381 37.2809 94.6388 37.2374C94.7394 37.1939 94.8482 37.1725 94.9578 37.1744Z" fill="black"/>
</g>
<g id="Group_2" opacity="0.2">
<path id="Vector_40" d="M122.455 41.6127H121.549L121.47 40.7021H122.376L122.455 41.6127Z" fill="black"/>
<path id="Vector_41" d="M120.564 40.702L120.643 41.6125H119.733L119.653 40.702L119.578 39.7959H120.484L120.564 40.702Z" fill="black"/>
<path id="Vector_42" d="M118.588 38.8896L118.667 39.7957L118.747 40.7019L118.826 41.6124H117.92L117.841 40.7019L117.761 39.7957L117.682 38.8896H118.588Z" fill="black"/>
</g>
<path id="Vector_43" opacity="0.2" d="M75.5938 38.9517L75.828 41.6037H79.806L79.7486 40.9363H80.1906L80.0756 39.6103H79.6336L79.5717 38.9473L75.5938 38.9517ZM77.8701 39.6147H79.1961L79.3154 40.9407H77.9894L77.8701 39.6147Z" fill="black"/>
<g id="Group_3" opacity="0.2">
<path id="Vector_44" d="M95.303 150.548H121.231C122.017 150.548 121.911 149.328 121.125 149.328H95.1969C94.4102 149.328 94.5162 150.548 95.303 150.548Z" fill="black"/>
</g>
</g>
<g id="freepik--Windows--inject-62">
<path id="Vector_45" d="M152.122 80.9063H124.426C124.021 80.9137 123.619 80.8347 123.246 80.6745C122.874 80.5142 122.54 80.2764 122.267 79.9769C121.994 79.6774 121.788 79.3231 121.662 78.9377C121.537 78.5522 121.495 78.1444 121.54 77.7415L123.029 60.6759C123.121 59.8204 123.521 59.0276 124.154 58.4458C124.788 57.8641 125.612 57.5333 126.473 57.5156H154.168C154.573 57.5083 154.975 57.5872 155.347 57.7471C155.72 57.9071 156.053 58.1444 156.327 58.4433C156.6 58.7422 156.807 59.0959 156.933 59.4808C157.059 59.8658 157.102 60.2731 157.059 60.6759L155.565 77.7415C155.475 78.5978 155.075 79.3917 154.441 79.9744C153.807 80.557 152.983 80.8884 152.122 80.9063Z" fill="#407BFF"/>
<path id="Vector_46" opacity="0.4" d="M152.122 80.9063H124.426C124.021 80.9137 123.619 80.8347 123.246 80.6745C122.874 80.5142 122.54 80.2764 122.267 79.9769C121.994 79.6774 121.788 79.3231 121.662 78.9377C121.537 78.5522 121.495 78.1444 121.54 77.7415L123.029 60.6759C123.121 59.8204 123.521 59.0276 124.154 58.4458C124.788 57.8641 125.612 57.5333 126.473 57.5156H154.168C154.573 57.5083 154.975 57.5872 155.347 57.7471C155.72 57.9071 156.053 58.1444 156.327 58.4433C156.6 58.7422 156.807 59.0959 156.933 59.4808C157.059 59.8658 157.102 60.2731 157.059 60.6759L155.565 77.7415C155.475 78.5978 155.075 79.3917 154.441 79.9744C153.807 80.557 152.983 80.8884 152.122 80.9063Z" fill="#EEEEEE"/>
<path id="Vector_47" opacity="0.8" d="M152.016 79.6465H124.753C124.489 79.6512 124.227 79.5996 123.984 79.495C123.741 79.3904 123.524 79.2353 123.345 79.04C123.167 78.8447 123.033 78.6137 122.951 78.3624C122.869 78.111 122.842 77.8451 122.871 77.5823L124.197 62.6118C124.254 62.0527 124.514 61.534 124.928 61.1536C125.341 60.7733 125.88 60.5577 126.442 60.5477H153.678C153.942 60.5429 154.205 60.5946 154.447 60.6991C154.69 60.8037 154.908 60.9588 155.086 61.1541C155.264 61.3494 155.399 61.5804 155.481 61.8318C155.562 62.0831 155.59 62.349 155.561 62.6118L154.235 77.5823C154.178 78.137 153.922 78.6522 153.514 79.0319C153.106 79.4116 152.573 79.6301 152.016 79.6465Z" fill="#EEEEEE"/>
<path id="Vector_48" opacity="0.8" d="M126.013 59.0489C125.997 59.2072 125.923 59.3541 125.806 59.4617C125.689 59.5692 125.536 59.6299 125.377 59.6324C125.302 59.6342 125.228 59.6199 125.159 59.5904C125.09 59.561 125.029 59.5171 124.978 59.4618C124.928 59.4065 124.89 59.3409 124.868 59.2697C124.845 59.1985 124.838 59.1232 124.846 59.0489C124.863 58.8906 124.936 58.7437 125.054 58.6362C125.171 58.5286 125.324 58.4679 125.483 58.4655C125.558 58.4637 125.632 58.478 125.701 58.5074C125.769 58.5368 125.831 58.5807 125.881 58.6361C125.932 58.6914 125.97 58.7569 125.992 58.8281C126.015 58.8994 126.022 58.9747 126.013 59.0489Z" fill="#EEEEEE"/>
<path id="Vector_49" opacity="0.8" d="M127.834 59.0488C127.818 59.2071 127.744 59.354 127.627 59.4616C127.509 59.5691 127.357 59.6298 127.198 59.6323C127.123 59.6333 127.049 59.6185 126.98 59.5888C126.912 59.5592 126.85 59.5154 126.8 59.4603C126.749 59.4052 126.711 59.3401 126.687 59.2692C126.664 59.1983 126.655 59.1232 126.663 59.0488C126.68 58.8909 126.754 58.7445 126.871 58.6372C126.988 58.5298 127.14 58.4687 127.299 58.4654C127.374 58.4644 127.448 58.4792 127.517 58.5088C127.585 58.5384 127.647 58.5822 127.697 58.6373C127.748 58.6924 127.786 58.7575 127.81 58.8285C127.833 58.8994 127.842 58.9745 127.834 59.0488Z" fill="#EEEEEE"/>
<path id="Vector_50" opacity="0.8" d="M129.655 59.0488C129.638 59.2068 129.564 59.3531 129.447 59.4605C129.33 59.5678 129.178 59.6289 129.019 59.6323C128.944 59.6333 128.87 59.6185 128.802 59.5888C128.733 59.5592 128.671 59.5154 128.621 59.4603C128.57 59.4052 128.532 59.3401 128.509 59.2692C128.485 59.1983 128.477 59.1232 128.484 59.0488C128.501 58.8909 128.575 58.7445 128.692 58.6372C128.81 58.5298 128.962 58.4687 129.121 58.4654C129.195 58.4644 129.269 58.4792 129.338 58.5088C129.407 58.5384 129.468 58.5822 129.519 58.6373C129.569 58.6924 129.607 58.7575 129.631 58.8285C129.655 58.8994 129.663 58.9745 129.655 59.0488Z" fill="#EEEEEE"/>
<path id="Vector_51" opacity="0.1" d="M137.089 75.4118H127.281L128.214 64.7817H138.017L137.089 75.4118Z" fill="black"/>
<path id="Vector_52" d="M151.096 65.962H140.7C140.624 65.9638 140.549 65.9493 140.479 65.9194C140.409 65.8895 140.347 65.845 140.295 65.7889C140.244 65.7327 140.206 65.6662 140.183 65.5939C140.159 65.5216 140.152 65.4452 140.161 65.3698C140.176 65.2095 140.25 65.0604 140.368 64.9511C140.486 64.8419 140.641 64.78 140.802 64.7775H151.198C151.274 64.7757 151.349 64.7902 151.419 64.8201C151.489 64.85 151.551 64.8945 151.602 64.9507C151.653 65.0068 151.692 65.0733 151.715 65.1456C151.738 65.2179 151.746 65.2944 151.737 65.3698C151.722 65.5301 151.648 65.6791 151.53 65.7884C151.411 65.8977 151.257 65.9595 151.096 65.962Z" fill="#407BFF"/>
<path id="Vector_53" d="M149.116 68.3224H140.493C140.417 68.3241 140.342 68.3096 140.273 68.28C140.203 68.2504 140.141 68.2063 140.09 68.1506C140.039 68.095 140 68.0291 139.977 67.9573C139.953 67.8856 139.945 67.8096 139.953 67.7345C139.969 67.5742 140.042 67.4252 140.161 67.3159C140.279 67.2066 140.433 67.1448 140.594 67.1422H149.218C149.294 67.1404 149.369 67.155 149.439 67.1849C149.509 67.2147 149.571 67.2593 149.622 67.3154C149.673 67.3716 149.712 67.438 149.735 67.5103C149.758 67.5826 149.766 67.6591 149.757 67.7345C149.742 67.8944 149.668 68.0429 149.549 68.1515C149.431 68.26 149.277 68.3209 149.116 68.3224Z" fill="#407BFF"/>
<path id="Vector_54" d="M149.62 70.687H140.285C140.209 70.6881 140.134 70.6731 140.064 70.6429C139.995 70.6128 139.933 70.5683 139.882 70.5123C139.831 70.4563 139.792 70.3901 139.769 70.3182C139.745 70.2462 139.737 70.17 139.745 70.0947C139.763 69.936 139.838 69.7891 139.956 69.681C140.074 69.573 140.226 69.5112 140.386 69.5069H149.721C149.797 69.5059 149.871 69.5208 149.94 69.5507C150.009 69.5805 150.071 69.6246 150.122 69.6801C150.173 69.7356 150.212 69.8012 150.236 69.8727C150.259 69.9441 150.268 70.0198 150.26 70.0947C150.244 70.2547 150.17 70.4032 150.052 70.5123C149.934 70.6214 149.78 70.6835 149.62 70.687Z" fill="#407BFF"/>
<path id="Vector_55" d="M148.347 73.0518H140.077C140.002 73.0529 139.927 73.0378 139.857 73.0077C139.788 72.9776 139.725 72.9331 139.675 72.8771C139.624 72.8211 139.585 72.7549 139.562 72.6829C139.538 72.611 139.53 72.5348 139.538 72.4595C139.555 72.2992 139.63 72.1507 139.749 72.0416C139.868 71.9326 140.022 71.8706 140.184 71.8672H148.453C148.529 71.8662 148.604 71.8812 148.674 71.9113C148.743 71.9414 148.805 71.986 148.856 72.042C148.907 72.098 148.946 72.1641 148.969 72.2361C148.993 72.3081 149.001 72.3842 148.993 72.4595C148.975 72.6198 148.9 72.7684 148.782 72.8774C148.663 72.9864 148.509 73.0484 148.347 73.0518Z" fill="#407BFF"/>
<path id="Vector_56" d="M149.559 75.4121H139.87C139.795 75.4132 139.72 75.3983 139.651 75.3684C139.582 75.3385 139.521 75.2943 139.47 75.2387C139.42 75.1831 139.381 75.1174 139.358 75.046C139.335 74.9745 139.327 74.899 139.335 74.8243C139.35 74.664 139.424 74.5149 139.542 74.4056C139.661 74.2964 139.815 74.2345 139.976 74.232H149.665C149.74 74.2309 149.815 74.2459 149.885 74.2761C149.954 74.3062 150.017 74.3507 150.068 74.4067C150.119 74.4627 150.157 74.5289 150.181 74.6009C150.204 74.6728 150.212 74.749 150.204 74.8243C150.186 74.9838 150.11 75.1313 149.992 75.2394C149.873 75.3475 149.719 75.4089 149.559 75.4121Z" fill="#407BFF"/>
<g id="Group_4" opacity="0.5">
<path id="Vector_57" d="M151.097 65.962H140.701C140.625 65.9638 140.55 65.9493 140.48 65.9194C140.41 65.8895 140.348 65.845 140.296 65.7889C140.245 65.7327 140.207 65.6662 140.184 65.5939C140.16 65.5216 140.153 65.4452 140.162 65.3698C140.177 65.2095 140.251 65.0604 140.369 64.9511C140.487 64.8419 140.642 64.78 140.803 64.7775H151.199C151.275 64.7757 151.35 64.7902 151.42 64.8201C151.49 64.85 151.552 64.8945 151.603 64.9507C151.654 65.0068 151.693 65.0733 151.716 65.1456C151.739 65.2179 151.747 65.2944 151.738 65.3698C151.723 65.5301 151.649 65.6791 151.531 65.7884C151.412 65.8977 151.258 65.9595 151.097 65.962Z" fill="#EEEEEE"/>
<path id="Vector_58" d="M149.116 68.3224H140.493C140.417 68.3241 140.342 68.3096 140.273 68.28C140.203 68.2504 140.141 68.2063 140.09 68.1506C140.039 68.095 140 68.0291 139.977 67.9573C139.953 67.8856 139.945 67.8096 139.953 67.7345C139.969 67.5742 140.042 67.4252 140.161 67.3159C140.279 67.2066 140.433 67.1448 140.594 67.1422H149.218C149.294 67.1404 149.369 67.155 149.439 67.1849C149.509 67.2147 149.571 67.2593 149.622 67.3154C149.673 67.3716 149.712 67.438 149.735 67.5103C149.758 67.5826 149.766 67.6591 149.757 67.7345C149.742 67.8944 149.668 68.0429 149.549 68.1515C149.431 68.26 149.277 68.3209 149.116 68.3224Z" fill="#EEEEEE"/>
<path id="Vector_59" d="M149.621 70.687H140.286C140.21 70.6881 140.135 70.6731 140.065 70.6429C139.996 70.6128 139.933 70.5683 139.883 70.5123C139.832 70.4563 139.793 70.3901 139.77 70.3182C139.746 70.2462 139.738 70.17 139.746 70.0947C139.764 69.936 139.839 69.7891 139.957 69.681C140.075 69.573 140.227 69.5112 140.387 69.5069H149.722C149.797 69.5059 149.872 69.5208 149.941 69.5507C150.01 69.5805 150.072 69.6246 150.123 69.6801C150.174 69.7356 150.213 69.8012 150.237 69.8727C150.26 69.9441 150.269 70.0198 150.261 70.0947C150.245 70.2547 150.171 70.4032 150.053 70.5123C149.935 70.6214 149.781 70.6835 149.621 70.687Z" fill="#EEEEEE"/>
<path id="Vector_60" d="M148.347 73.0518H140.077C140.002 73.0529 139.927 73.0378 139.857 73.0077C139.788 72.9776 139.725 72.9331 139.675 72.8771C139.624 72.8211 139.585 72.7549 139.562 72.6829C139.538 72.611 139.53 72.5348 139.538 72.4595C139.555 72.2992 139.63 72.1507 139.749 72.0416C139.868 71.9326 140.022 71.8706 140.184 71.8672H148.453C148.529 71.8662 148.604 71.8812 148.674 71.9113C148.743 71.9414 148.805 71.986 148.856 72.042C148.907 72.098 148.946 72.1641 148.969 72.2361C148.993 72.3081 149.001 72.3842 148.993 72.4595C148.975 72.6198 148.9 72.7684 148.782 72.8774C148.663 72.9864 148.509 73.0484 148.347 73.0518Z" fill="#EEEEEE"/>
<path id="Vector_61" d="M149.559 75.4116H139.87C139.795 75.4127 139.72 75.3978 139.651 75.3679C139.582 75.338 139.521 75.2938 139.47 75.2382C139.42 75.1826 139.381 75.117 139.358 75.0455C139.335 74.9741 139.327 74.8985 139.335 74.8238C139.35 74.6635 139.424 74.5144 139.542 74.4052C139.661 74.2959 139.815 74.234 139.976 74.2315H149.665C149.74 74.2304 149.815 74.2455 149.885 74.2756C149.954 74.3057 150.017 74.3502 150.068 74.4062C150.119 74.4622 150.157 74.5284 150.181 74.6004C150.204 74.6723 150.212 74.7485 150.204 74.8238C150.186 74.9833 150.11 75.1308 149.992 75.2389C149.873 75.347 149.719 75.4084 149.559 75.4116Z" fill="#EEEEEE"/>
</g>
<path id="Vector_62" d="M134.783 67.4911C134.614 67.3227 134.414 67.1891 134.194 67.098C133.975 67.0069 133.739 66.96 133.501 66.96C133.263 66.96 133.027 67.0069 132.807 67.098C132.587 67.1891 132.387 67.3227 132.219 67.4911L131.3 68.4149L130.376 67.4911C130.036 67.1512 129.575 66.9602 129.094 66.9602C128.613 66.9602 128.152 67.1512 127.812 67.4911C127.472 67.8311 127.281 68.2922 127.281 68.7729C127.281 69.2537 127.472 69.7148 127.812 70.0547L131.3 73.5377L134.783 70.0547C134.951 69.8864 135.085 69.6866 135.176 69.4667C135.267 69.2467 135.314 69.011 135.314 68.7729C135.314 68.5348 135.267 68.2991 135.176 68.0792C135.085 67.8592 134.951 67.6594 134.783 67.4911Z" fill="#407BFF"/>
<path id="Vector_63" d="M130.561 56.0657H116.183C115.972 56.0688 115.764 56.0272 115.571 55.9436C115.378 55.8601 115.205 55.7365 115.063 55.5811C114.922 55.4256 114.815 55.2419 114.749 55.042C114.684 54.842 114.662 54.6305 114.684 54.4215L115.458 45.5815C115.503 45.1399 115.707 44.7299 116.033 44.4281C116.358 44.1262 116.782 43.9533 117.226 43.9416H131.622C131.832 43.9379 132.04 43.9789 132.233 44.062C132.426 44.145 132.599 44.2682 132.741 44.4233C132.883 44.5784 132.99 44.7619 133.055 44.9616C133.121 45.1613 133.143 45.3726 133.12 45.5815L132.347 54.4215C132.301 54.8664 132.095 55.2793 131.766 55.5823C131.437 55.8852 131.008 56.0572 130.561 56.0657Z" fill="#407BFF"/>
<path id="Vector_64" opacity="0.4" d="M130.561 56.0657H116.183C115.972 56.0688 115.764 56.0272 115.571 55.9436C115.378 55.8601 115.205 55.7365 115.063 55.5811C114.922 55.4256 114.815 55.2419 114.749 55.042C114.684 54.842 114.662 54.6305 114.684 54.4215L115.458 45.5815C115.503 45.1399 115.707 44.7299 116.033 44.4281C116.358 44.1262 116.782 43.9533 117.226 43.9416H131.622C131.832 43.9379 132.04 43.9789 132.233 44.062C132.426 44.145 132.599 44.2682 132.741 44.4233C132.883 44.5784 132.99 44.7619 133.055 44.9616C133.121 45.1613 133.143 45.3726 133.12 45.5815L132.347 54.4215C132.301 54.8664 132.095 55.2793 131.766 55.5823C131.437 55.8852 131.008 56.0572 130.561 56.0657Z" fill="#EEEEEE"/>
<path id="Vector_65" opacity="0.8" d="M130.504 55.4113H116.36C116.222 55.4133 116.086 55.3861 115.96 55.3316C115.833 55.2771 115.72 55.1964 115.628 55.0949C115.535 54.9934 115.465 54.8734 115.422 54.7428C115.379 54.6122 115.364 54.474 115.378 54.3372L116.059 46.5669C116.089 46.2768 116.225 46.0078 116.44 45.8108C116.655 45.6137 116.934 45.5022 117.226 45.4972H131.37C131.507 45.4946 131.643 45.5212 131.77 45.5752C131.896 45.6293 132.009 45.7095 132.102 45.8107C132.195 45.9119 132.265 46.0316 132.308 46.162C132.351 46.2923 132.366 46.4304 132.351 46.5669L131.67 54.3372C131.64 54.6278 131.505 54.8973 131.29 55.0951C131.075 55.2929 130.796 55.4053 130.504 55.4113Z" fill="#EEEEEE"/>
<path id="Vector_66" opacity="0.8" d="M116.991 44.7195C116.983 44.802 116.944 44.8786 116.883 44.9347C116.822 44.9909 116.743 45.0228 116.66 45.0245C116.621 45.0247 116.582 45.0167 116.547 45.0011C116.511 44.9855 116.479 44.9626 116.453 44.9338C116.426 44.9051 116.407 44.8712 116.394 44.8343C116.382 44.7973 116.377 44.7583 116.381 44.7195C116.39 44.637 116.428 44.5605 116.489 44.5044C116.55 44.4482 116.63 44.4163 116.713 44.4146C116.752 44.4144 116.79 44.4224 116.826 44.438C116.861 44.4536 116.893 44.4765 116.92 44.5053C116.946 44.534 116.966 44.5679 116.978 44.6048C116.99 44.6417 116.995 44.6808 116.991 44.7195Z" fill="#EEEEEE"/>
<path id="Vector_67" opacity="0.8" d="M117.951 44.7196C117.943 44.8017 117.905 44.8782 117.845 44.9344C117.785 44.9907 117.706 45.0228 117.623 45.0246C117.585 45.0248 117.546 45.0168 117.51 45.0012C117.475 44.9856 117.443 44.9626 117.417 44.9339C117.39 44.9052 117.37 44.8712 117.358 44.8343C117.346 44.7974 117.341 44.7584 117.345 44.7196C117.354 44.6371 117.392 44.5606 117.453 44.5044C117.514 44.4483 117.594 44.4163 117.677 44.4146C117.715 44.4137 117.754 44.4211 117.79 44.4366C117.826 44.452 117.858 44.475 117.884 44.504C117.91 44.533 117.929 44.5672 117.941 44.6045C117.952 44.6417 117.956 44.681 117.951 44.7196Z" fill="#EEEEEE"/>
<path id="Vector_68" opacity="0.8" d="M118.897 44.7195C118.888 44.802 118.85 44.8786 118.789 44.9347C118.728 44.9909 118.648 45.0228 118.565 45.0245C118.526 45.0255 118.488 45.018 118.452 45.0026C118.416 44.9872 118.384 44.9642 118.358 44.9352C118.332 44.9062 118.313 44.8719 118.301 44.8347C118.29 44.7975 118.286 44.7582 118.291 44.7195C118.299 44.6374 118.336 44.5609 118.397 44.5047C118.457 44.4485 118.536 44.4164 118.618 44.4146C118.657 44.4144 118.696 44.4224 118.732 44.438C118.767 44.4536 118.799 44.4765 118.825 44.5053C118.852 44.534 118.872 44.5679 118.884 44.6048C118.896 44.6417 118.901 44.6808 118.897 44.7195Z" fill="#EEEEEE"/>
</g>
<g id="freepik--Document--inject-62">
<path id="Vector_69" d="M160.397 23.6142L150.659 21.3423L146.65 38.5405L159.336 41.4975L162.66 27.2562L160.397 23.6142Z" fill="#407BFF"/>
<path id="Vector_70" opacity="0.5" d="M160.397 23.6142L150.659 21.3423L146.65 38.5405L159.336 41.4975L162.66 27.2562L160.397 23.6142Z" fill="#EEEEEE"/>
<path id="Vector_71" opacity="0.4" d="M160.397 23.6138L159.707 26.5663L162.66 27.2558L160.397 23.6138Z" fill="#EEEEEE"/>
<path id="Vector_72" d="M159.424 29.4396L151.91 27.7114C151.815 27.6882 151.733 27.6293 151.68 27.547C151.627 27.4647 151.608 27.3653 151.627 27.2694C151.65 27.1745 151.709 27.0921 151.792 27.0394C151.874 26.9868 151.973 26.9678 152.069 26.9865L159.557 28.7545C159.652 28.7777 159.734 28.8366 159.787 28.9189C159.839 29.0012 159.858 29.1006 159.84 29.1965C159.809 29.2788 159.751 29.3479 159.675 29.3922C159.599 29.4365 159.511 29.4533 159.424 29.4396Z" fill="#407BFF"/>
<path id="Vector_73" d="M157.656 30.5885L151.565 29.1653C151.47 29.1421 151.388 29.0832 151.335 29.0009C151.283 28.9186 151.264 28.8192 151.282 28.7233C151.305 28.628 151.363 28.5453 151.446 28.4932C151.529 28.441 151.629 28.4237 151.724 28.4448L157.82 29.8637C157.915 29.8868 157.997 29.9457 158.05 30.028C158.102 30.1103 158.121 30.2097 158.102 30.3057C158.078 30.4009 158.019 30.4833 157.936 30.5359C157.853 30.5885 157.753 30.6074 157.656 30.5885Z" fill="#407BFF"/>
<path id="Vector_74" d="M157.461 32.0872L151.234 30.6375C151.139 30.6133 151.058 30.5543 151.005 30.4722C150.952 30.3902 150.933 30.2913 150.951 30.1955C150.975 30.1011 151.034 30.0194 151.116 29.9669C151.198 29.9144 151.297 29.895 151.393 29.9126L157.656 31.3535C157.75 31.3776 157.832 31.4367 157.884 31.5187C157.937 31.6008 157.956 31.6997 157.939 31.7955C157.929 31.8474 157.909 31.8967 157.879 31.9402C157.849 31.9837 157.81 32.0204 157.765 32.0479C157.72 32.0754 157.67 32.0932 157.617 32.0999C157.565 32.1067 157.512 32.1024 157.461 32.0872Z" fill="#407BFF"/>
<path id="Vector_75" d="M158.376 33.855L150.889 32.087C150.794 32.0638 150.712 32.0048 150.66 31.9223C150.608 31.8398 150.591 31.7404 150.611 31.645C150.632 31.5489 150.69 31.4651 150.773 31.4121C150.856 31.359 150.956 31.3411 151.053 31.3621L158.54 33.1168C158.635 33.14 158.717 33.1989 158.77 33.2812C158.823 33.3635 158.842 33.4629 158.823 33.5588C158.802 33.6566 158.743 33.7422 158.66 33.7974C158.576 33.8527 158.475 33.8734 158.376 33.855Z" fill="#407BFF"/>
<path id="Vector_76" d="M156.643 34.9999L150.548 33.5766C150.452 33.5555 150.368 33.497 150.315 33.4142C150.262 33.3313 150.244 33.2308 150.265 33.1346C150.289 33.0397 150.347 32.9574 150.43 32.9047C150.512 32.852 150.612 32.8331 150.707 32.8518L156.798 34.2706C156.893 34.2938 156.975 34.3526 157.028 34.4349C157.081 34.5172 157.1 34.6167 157.081 34.7126C157.061 34.8085 157.004 34.8926 156.922 34.9465C156.84 35.0003 156.74 35.0195 156.643 34.9999Z" fill="#407BFF"/>
<path id="Vector_77" d="M156.432 36.5027L150.204 35.0485C150.11 35.0243 150.028 34.9653 149.976 34.8832C149.923 34.8012 149.904 34.7023 149.921 34.6065C149.945 34.5124 150.005 34.4311 150.087 34.3793C150.169 34.3275 150.268 34.3092 150.363 34.328L156.591 35.7778C156.686 35.801 156.768 35.8598 156.821 35.9421C156.874 36.0245 156.893 36.1239 156.874 36.2198C156.85 36.3142 156.791 36.3958 156.709 36.4483C156.627 36.5009 156.528 36.5203 156.432 36.5027Z" fill="#407BFF"/>
</g>
<g id="freepik--speech-bubble--inject-62">
<path id="Vector_78" d="M60.9469 17.8241C60.493 16.3425 59.6283 15.0199 58.4531 14.0098C57.2779 12.9997 55.8404 12.3436 54.3073 12.1175C52.7743 11.8914 51.2085 12.1046 49.7918 12.7324C48.375 13.3602 47.1653 14.3769 46.303 15.6644C45.4406 16.952 44.9611 18.4576 44.9199 20.0067C44.8787 21.5558 45.2776 23.0848 46.0703 24.4164C46.863 25.7479 48.017 26.8274 49.3984 27.5296C50.7798 28.2318 52.332 28.5279 53.8749 28.3835L56.633 31.6676L57.075 27.4023C58.7223 26.4934 60.0065 25.045 60.7116 23.3007C61.4168 21.5564 61.4999 19.6225 60.9469 17.8241Z" fill="#407BFF"/>
<path id="Vector_79" d="M55.4568 18.3544L55.0855 20.4848L56.6458 20.1533L56.5441 21.5545L54.8247 21.9213L54.449 24.0252L53.0435 24.3258L53.4192 22.2175L51.6777 22.5887L51.302 24.6927L49.9097 24.9888L50.2854 22.8849L48.7207 23.2164L48.8091 21.8197L50.5417 21.4484L50.9263 19.3179L49.366 19.6494L49.4633 18.2483L51.1871 17.8859L51.576 15.7775L52.9683 15.4814L52.5926 17.5897L54.3341 17.2184L54.7098 15.1101L56.1021 14.814L55.7264 16.9223L57.3043 16.5864L57.1983 17.9875L55.4568 18.3544ZM54.0645 18.6505L52.3186 19.0218L51.934 21.1567L53.6799 20.7854L54.0645 18.6505Z" fill="#EEEEEE"/>
</g>
<g id="freepik--Photo--inject-62">
<path id="Vector_80" d="M58.7411 94.2463L34.8975 89.1782L31.5653 104.855L55.4089 109.923L58.7411 94.2463Z" fill="#407BFF"/>
<path id="Vector_81" opacity="0.6" d="M58.7411 94.2463L34.8975 89.1782L31.5653 104.855L55.4089 109.923L58.7411 94.2463Z" fill="#EEEEEE"/>
<path id="Vector_82" d="M41.2383 99.457L32.5928 105.07L46.8517 108.103L41.2383 99.457Z" fill="#407BFF"/>
<path id="Vector_83" opacity="0.3" d="M41.2383 99.457L32.5928 105.07L46.8517 108.103L41.2383 99.457Z" fill="#EEEEEE"/>
<path id="Vector_84" d="M55.166 109.87L50.6576 96.2964L41.0176 106.86L55.166 109.87Z" fill="#407BFF"/>
<path id="Vector_85" opacity="0.8" d="M44.6634 97.5566C45.341 97.1165 45.5336 96.2104 45.0936 95.5328C44.6535 94.8551 43.7474 94.6625 43.0698 95.1026C42.3921 95.5427 42.1995 96.4488 42.6396 97.1264C43.0797 97.8041 43.9857 97.9966 44.6634 97.5566Z" fill="#EEEEEE"/>
<path id="Vector_86" d="M55.7488 110.445L31.041 105.194L34.577 88.6543L59.2848 93.9053L55.7488 110.445ZM32.0886 104.513L55.0726 109.397L58.2063 94.5859L35.2223 89.7018L32.0886 104.513Z" fill="#407BFF"/>
</g>
<g id="freepik--Icons--inject-62">
<path id="Vector_87" d="M163.225 108.13C167.916 106.187 170.143 100.809 168.2 96.1179C166.257 91.427 160.879 89.1993 156.188 91.1424C151.497 93.0855 149.27 98.4634 151.213 103.154C153.156 107.845 158.534 110.073 163.225 108.13Z" fill="#407BFF"/>
<path id="Vector_88" opacity="0.6" d="M163.225 108.13C167.916 106.187 170.143 100.809 168.2 96.1179C166.257 91.427 160.879 89.1993 156.188 91.1424C151.497 93.0855 149.27 98.4634 151.213 103.154C153.156 107.845 158.534 110.073 163.225 108.13Z" fill="#EEEEEE"/>
<path id="Vector_89" d="M163.973 97.4726C163.928 96.9097 163.678 96.3829 163.27 95.9919C162.837 95.5896 162.27 95.3614 161.679 95.351C160.251 95.2676 158.818 95.2824 157.392 95.3952C156.945 95.4516 156.526 95.6431 156.191 95.944C155.856 96.245 155.621 96.6411 155.518 97.0793C155.31 97.8174 155.35 101.216 155.473 101.941C155.53 102.399 155.728 102.827 156.041 103.166C156.353 103.506 156.763 103.739 157.215 103.833C157.9 104.01 161.259 103.988 162.015 103.864C162.472 103.809 162.901 103.612 163.241 103.301C163.581 102.991 163.815 102.582 163.911 102.131C164.11 101.38 164.039 98.1577 163.973 97.4726ZM163.173 101.804C163.14 102.154 162.982 102.48 162.729 102.723C162.476 102.966 162.144 103.111 161.794 103.13C161.096 103.205 157.971 103.245 157.321 103.064C157.037 102.995 156.782 102.841 156.589 102.622C156.396 102.403 156.275 102.13 156.242 101.84C156.134 100.384 156.134 98.9233 156.242 97.4682C156.276 97.1195 156.432 96.7942 156.684 96.551C156.937 96.3078 157.267 96.1628 157.617 96.1422C159.037 96.0405 160.462 96.0405 161.882 96.1422C162.232 96.1755 162.558 96.3329 162.801 96.586C163.044 96.839 163.189 97.1708 163.208 97.5213C163.297 98.948 163.285 100.379 163.173 101.804ZM159.708 97.4108C159.271 97.4108 158.843 97.5404 158.48 97.7832C158.116 98.0261 157.833 98.3712 157.666 98.775C157.499 99.1789 157.455 99.6232 157.54 100.052C157.625 100.481 157.836 100.874 158.145 101.183C158.454 101.493 158.848 101.703 159.277 101.788C159.705 101.874 160.15 101.83 160.553 101.663C160.957 101.495 161.302 101.212 161.545 100.849C161.788 100.485 161.918 100.058 161.918 99.6208C161.918 99.0346 161.685 98.4725 161.27 98.0581C160.856 97.6436 160.294 97.4108 159.708 97.4108ZM159.708 101.071C159.423 101.069 159.145 100.983 158.909 100.823C158.673 100.663 158.489 100.437 158.382 100.173C158.274 99.9089 158.248 99.619 158.305 99.3398C158.362 99.0607 158.501 98.8048 158.704 98.6045C158.907 98.4042 159.164 98.2686 159.444 98.2147C159.724 98.1608 160.013 98.1911 160.276 98.3018C160.539 98.4125 160.763 98.5985 160.919 98.8364C161.076 99.0744 161.159 99.3535 161.157 99.6384C161.159 99.8301 161.121 100.02 161.048 100.197C160.975 100.374 160.867 100.535 160.731 100.669C160.594 100.804 160.432 100.91 160.254 100.981C160.076 101.052 159.886 101.087 159.694 101.084L159.708 101.071ZM162.519 97.3268C162.519 97.4301 162.488 97.5311 162.431 97.617C162.373 97.7029 162.291 97.7697 162.196 97.809C162.1 97.8484 161.995 97.8585 161.894 97.838C161.793 97.8175 161.7 97.7674 161.627 97.694C161.554 97.6206 161.505 97.5273 161.485 97.4258C161.466 97.3243 161.477 97.2193 161.517 97.1241C161.557 97.0289 161.624 96.9477 161.711 96.891C161.797 96.8342 161.898 96.8043 162.002 96.8052C162.07 96.8052 162.138 96.8187 162.201 96.845C162.264 96.8713 162.321 96.9098 162.369 96.9582C162.417 97.0067 162.455 97.0643 162.481 97.1275C162.506 97.1908 162.519 97.2585 162.519 97.3268Z" fill="#407BFF"/>
<path id="Vector_90" d="M43.0507 72.713C43.7637 68.3204 40.7808 64.1814 36.3882 63.4684C31.9956 62.7554 27.8566 65.7383 27.1436 70.1309C26.4306 74.5235 29.4135 78.6625 33.8061 79.3755C38.1987 80.0885 42.3377 77.1056 43.0507 72.713Z" fill="#407BFF"/>
<path id="Vector_91" opacity="0.6" d="M43.0507 72.713C43.7637 68.3204 40.7808 64.1814 36.3882 63.4684C31.9956 62.7554 27.8566 65.7383 27.1436 70.1309C26.4306 74.5235 29.4135 78.6625 33.8061 79.3755C38.1987 80.0885 42.3377 77.1056 43.0507 72.713Z" fill="#EEEEEE"/>
<path id="Vector_92" fill-rule="evenodd" clip-rule="evenodd" d="M36.4554 68.5216C36.7294 68.5216 36.999 68.5216 37.2686 68.5216H37.3836L37.3836 67.116C37.2377 67.116 37.0874 67.0807 36.9416 67.0718C36.6675 67.0718 36.3891 67.0453 36.1106 67.0718C35.689 67.0665 35.2764 67.1933 34.9305 67.4343C34.7402 67.5732 34.5796 67.7488 34.4582 67.9507C34.3367 68.1527 34.2568 68.3768 34.2233 68.61C34.1915 68.8103 34.1753 69.0127 34.1746 69.2155C34.1746 69.5294 34.1746 69.8476 34.1746 70.1614L34.1746 70.2808H32.8486L32.8486 71.8543H34.1746L34.1746 75.8323H35.7968L35.7968 71.8852H37.1228C37.1935 71.3592 37.2598 70.8421 37.3261 70.3029H35.7835C35.7835 70.3029 35.7835 69.5249 35.7835 69.1846C35.81 68.6763 36.1062 68.5349 36.4554 68.5216Z" fill="#407BFF"/>
</g>
<g id="freepik--Character--inject-62">
<path id="Vector_93" d="M96.7793 63.0714C96.7793 63.0714 98.2423 62.0592 99.2457 63.2261C100.249 64.3929 99.6214 66.9919 99.6214 66.9919L97.2743 64.1454L96.7793 63.0714Z" fill="#263238"/>
<path id="Vector_94" d="M128.665 78.7494L125.73 78.5947C125.216 81.0087 124.566 83.3919 123.785 85.733C123.597 86.2569 123.382 86.7703 123.14 87.2712C122.965 87.6653 122.731 88.0304 122.446 88.3541C122.349 88.4646 122.331 88.4027 122.3 88.4071C121.955 88.4455 121.606 88.4455 121.261 88.4071C120.175 88.2659 119.105 88.0217 118.066 87.6778C116.938 87.3331 115.789 86.9176 114.649 86.4623C113.509 86.0071 112.359 85.5253 111.215 85.0347C110.07 84.544 108.916 83.9915 107.838 83.4877L105.159 88.7917C106.397 89.4414 107.581 89.9762 108.815 90.5199C110.048 91.0636 111.294 91.5542 112.567 92.0183C113.84 92.4824 115.148 92.9023 116.514 93.2426C117.959 93.6322 119.44 93.8707 120.934 93.9542C121.883 93.9996 122.833 93.8952 123.75 93.6448C124.053 93.5555 124.349 93.4417 124.634 93.3045C124.788 93.2315 124.936 93.1457 125.076 93.0481C125.229 92.9547 125.376 92.8529 125.518 92.7431C125.969 92.3784 126.361 91.946 126.68 91.4614C127.149 90.7328 127.519 89.945 127.781 89.1187C128.009 88.4061 128.185 87.6778 128.307 86.9397C128.556 85.578 128.704 84.1995 128.749 82.8158C128.807 81.46 128.779 80.1018 128.665 78.7494Z" fill="#FFBE9D"/>
<path id="Vector_95" d="M101.354 88.7338C103.064 92.2432 115.582 94.5063 115.582 94.5063L117.911 85.4983C117.911 85.4983 112.735 83.2176 107.789 82.4043C102.715 81.5734 99.4754 84.8839 101.354 88.7338Z" fill="#407BFF"/>
<path id="Vector_96" opacity="0.2" d="M109.363 86.4312L107.572 87.0721L107.201 88.3981L107.449 90.5285L109.093 92.9374C111.303 93.6048 113.438 94.0777 114.618 94.3253C112.686 90.4754 109.363 86.4312 109.363 86.4312Z" fill="black"/>
<path id="Vector_97" d="M92.5226 116.112C92.5226 116.112 92.3458 130.547 105.442 127.555C117.924 124.704 113.986 110.728 113.986 110.728L92.5226 116.112Z" fill="#263238"/>
<path id="Vector_98" d="M105.442 125.897C101.145 122.392 88.4158 113.901 83.9958 120.257C79.0586 127.351 90.3429 144.691 109.115 138.194C112.129 137.142 114.781 133.531 105.442 125.897Z" fill="#263238"/>
<path id="Vector_99" d="M121.381 116.112C139.649 112.85 140.687 118.379 137.545 123.064C134.402 127.749 123.98 138.773 105.442 137.597C98.5514 137.151 98.4277 120.191 121.381 116.112Z" fill="#263238"/>
<path id="Vector_100" opacity="0.2" d="M108.111 127.546C108.712 126.215 109.467 124.958 110.361 123.803C111.647 122.264 111.802 126.698 117.433 123.803C123.064 120.907 127.024 117.8 131.391 116.647C135.758 115.493 128.032 123.374 128.032 123.374L114.33 130.888L108.111 127.546Z" fill="black"/>
<path id="Vector_101" d="M108.456 137.367L101.689 139.962L102.26 136.545L107.842 132.894L108.456 137.367Z" fill="#7F3E3B"/>
<path id="Vector_102" d="M141.545 119.232C140.997 115.347 134.658 113.795 129.354 117.963C124.996 121.389 109.403 131.511 104.368 134.812L105.433 138.91C110.061 137.142 119.135 133.703 125.664 131.197C134.751 127.701 142.097 123.117 141.545 119.232Z" fill="#263238"/>
<path id="Vector_103" opacity="0.2" d="M104.651 125.27C102.405 120.505 97.6274 119.573 94.9268 119.444C98.3918 120.986 101.657 122.942 104.651 125.27Z" fill="black"/>
<path id="Vector_104" opacity="0.2" d="M112.788 136.116C117.005 134.512 121.788 132.691 125.664 131.197L126.106 131.024L114.853 128.045C111.043 130.591 107.484 132.934 105.442 134.273L112.788 136.116Z" fill="black"/>
<path id="Vector_105" opacity="0.2" d="M85.7598 127.873C85.7598 127.873 100.408 140.28 105.769 132.329L88.067 125.592L86.0824 124.708L85.7598 127.873Z" fill="black"/>
<path id="Vector_106" d="M123.485 136.373L130.296 137.252L129.58 133.487L122.601 131.67L123.485 136.373Z" fill="#7F3E3B"/>
<path id="Vector_107" d="M128.072 132.465C124.735 131.608 117.164 129.707 112.487 127.882C106.18 125.415 90.1045 118.746 84.8049 121.871C81.1363 124.028 84.9331 127.232 84.9331 127.232C84.9331 127.232 86.6481 130.193 100.085 133.022C109.69 135.042 121.566 136.558 127.56 137.243L128.072 132.465Z" fill="#263238"/>
<path id="Vector_108" d="M129.774 137.372L128.753 133.177C128.737 133.1 128.746 133.02 128.779 132.949C128.813 132.878 128.869 132.82 128.939 132.784L132.165 131.197C132.233 131.163 132.307 131.143 132.383 131.138C132.459 131.132 132.535 131.142 132.606 131.166C132.678 131.191 132.745 131.229 132.802 131.279C132.859 131.329 132.905 131.39 132.939 131.458C132.958 131.494 132.973 131.533 132.983 131.573C133.323 133.089 133.567 134.455 134.026 136.333C134.565 138.543 134.694 137.924 135.352 140.528C135.759 142.097 134.026 142.817 133.788 142.172C132.665 139.215 131.666 139.122 130.287 138.194C130.022 137.991 129.84 137.699 129.774 137.372Z" fill="#407BFF"/>
<path id="Vector_109" d="M102.812 139.599L103.555 135.334C103.568 135.257 103.554 135.177 103.517 135.108C103.479 135.039 103.419 134.985 103.347 134.954L100.014 133.579C99.8722 133.52 99.7128 133.52 99.5704 133.578C99.4281 133.636 99.3144 133.747 99.2539 133.889C99.2381 133.927 99.2263 133.967 99.2186 134.008C98.9799 135.546 98.8252 136.93 98.4893 138.839C98.0959 141.098 97.9235 140.479 97.424 143.126C97.1279 144.722 98.8915 145.337 99.0992 144.665C100.032 141.633 101.022 141.473 102.344 140.47C102.6 140.246 102.766 139.937 102.812 139.599Z" fill="#407BFF"/>
<path id="Vector_110" d="M91.2405 108.266C91.9123 112.12 92.3411 115.612 92.6593 118.122C96.3102 117.959 110.008 117.238 114.967 115.369C114.255 94.5948 107.656 82.2453 107.656 82.2453C105.913 82.1499 104.165 82.1617 102.423 82.2807C102.056 82.3072 101.681 82.3425 101.305 82.3823C98.2506 82.8227 95.2239 83.4366 92.2394 84.221C91.6736 84.3669 91.099 84.526 90.5465 84.6895C87.7177 85.5382 85.2646 86.5769 85.2646 86.5769C86.9771 90.7849 88.3718 95.1154 89.4371 99.5319C90.1797 102.613 90.7676 105.574 91.2405 108.266Z" fill="#407BFF"/>
<path id="Vector_111" d="M91.1562 73.812C92.2922 76.6187 93.8922 81.8564 92.2259 84.2211C93.3062 84.9763 94.5368 85.4893 95.8336 85.7251C97.1305 85.9608 98.4629 85.9136 99.7399 85.5869C102.246 85.0256 102.034 83.2443 101.287 82.3824C97.8791 82.2631 97.4989 79.8276 97.6271 77.4453L91.1562 73.812Z" fill="#FFBE9D"/>
<path id="Vector_112" d="M99.8243 85.5734C99.8243 85.5734 99.1215 86.9834 98.2508 88.4111C96.4165 87.8851 92.0628 86.3558 91.7578 84.1546C91.8845 83.6554 92.1815 83.2161 92.5976 82.9126C94.8478 84.1822 97.2881 85.0807 99.8243 85.5734Z" fill="#EEEEEE"/>
<path id="Vector_113" d="M99.8245 85.5737C100.795 86.0912 101.688 86.743 102.476 87.5096C103.493 86.4312 101.964 82.5371 101.42 82.2056C100.88 81.9625 100.277 81.8945 99.6963 82.0112C99.6963 82.0112 101.619 84.703 99.8245 85.5737Z" fill="#EEEEEE"/>
<path id="Vector_114" opacity="0.2" d="M93.8044 75.293L97.6454 77.4411C97.6054 77.9977 97.6142 78.5568 97.6719 79.1118C96.3945 79.1826 94.4232 78.1615 94.0387 76.9018C93.8618 76.3847 93.7823 75.8391 93.8044 75.293Z" fill="black"/>
<path id="Vector_115" d="M89.2295 70.3423C90.7146 74.0949 91.3909 76.3668 93.9633 77.6839C97.8353 79.6597 101.981 76.3137 101.645 72.181C101.345 68.4638 98.9712 62.9521 94.728 62.6913C93.7885 62.6331 92.8497 62.8142 91.9992 63.2176C91.1488 63.621 90.4145 64.2336 89.8652 64.9979C89.3159 65.7623 88.9695 66.6535 88.8583 67.5881C88.7471 68.5228 88.8748 69.4704 89.2295 70.3423Z" fill="#FFBE9D"/>
<path id="Vector_116" d="M95.3772 69.4585C95.4789 69.7679 95.7264 69.9668 95.9297 69.9005C96.133 69.8342 96.217 69.5247 96.1153 69.2153C96.0137 68.9059 95.7662 68.7026 95.5628 68.7733C95.3595 68.8441 95.2755 69.1446 95.3772 69.4585Z" fill="#263238"/>
<path id="Vector_117" d="M98.8958 68.2694C98.9974 68.5832 99.2449 68.7777 99.4527 68.7114C99.6604 68.6451 99.7356 68.3357 99.6339 68.0218C99.5322 67.708 99.2847 67.5135 99.0814 67.5798C98.8781 67.6461 98.7941 67.96 98.8958 68.2694Z" fill="#263238"/>
<path id="Vector_118" d="M97.8311 68.8174C98.5163 69.6102 99.3076 70.3048 100.182 70.8815C99.798 71.5489 98.7814 71.6285 98.7814 71.6285L97.8311 68.8174Z" fill="#E7B59C"/>
<path id="Vector_119" d="M97.5034 73.3744C97.6441 73.3463 97.7828 73.3093 97.9189 73.2639C97.9423 73.2541 97.9614 73.2362 97.9728 73.2135C97.9841 73.1908 97.987 73.1647 97.9808 73.1401C97.9768 73.1279 97.9704 73.1166 97.962 73.1068C97.9536 73.0971 97.9433 73.0891 97.9318 73.0833C97.9203 73.0776 97.9077 73.0741 97.8949 73.0733C97.8821 73.0724 97.8692 73.0741 97.857 73.0782C97.4745 73.2182 97.0641 73.2651 96.6599 73.2151C96.2556 73.1652 95.869 73.0198 95.5321 72.7909C95.5234 72.7814 95.5128 72.7738 95.501 72.7686C95.4892 72.7634 95.4764 72.7607 95.4636 72.7607C95.4507 72.7607 95.4379 72.7634 95.4261 72.7686C95.4143 72.7738 95.4037 72.7814 95.395 72.7909C95.3862 72.7996 95.3792 72.8099 95.3744 72.8213C95.3697 72.8327 95.3672 72.8449 95.3672 72.8572C95.3672 72.8696 95.3697 72.8818 95.3744 72.8932C95.3792 72.9046 95.3862 72.9149 95.395 72.9235C95.6953 73.1421 96.0381 73.2952 96.4013 73.3729C96.7645 73.4505 97.14 73.451 97.5034 73.3744Z" fill="#263238"/>
<path id="Vector_120" d="M93.9239 68.6851C93.9573 68.6783 93.9883 68.663 94.0139 68.6405C94.0395 68.618 94.0588 68.5891 94.0697 68.5569C94.1411 68.3243 94.2664 68.1118 94.4354 67.9367C94.6043 67.7616 94.8122 67.6288 95.0421 67.5491C95.0912 67.5356 95.1332 67.5038 95.1595 67.4602C95.1858 67.4166 95.1944 67.3646 95.1836 67.3149C95.171 67.2652 95.1394 67.2224 95.0955 67.196C95.0517 67.1695 94.9991 67.1614 94.9493 67.1734C94.6574 67.2702 94.3927 67.4349 94.1768 67.6539C93.9609 67.8728 93.8 68.1399 93.7073 68.4331C93.6983 68.4569 93.6943 68.4822 93.6955 68.5075C93.6967 68.5329 93.7031 68.5577 93.7143 68.5805C93.7255 68.6033 93.7412 68.6235 93.7605 68.64C93.7799 68.6565 93.8024 68.6688 93.8266 68.6762C93.8577 68.6878 93.8912 68.6908 93.9239 68.6851Z" fill="#263238"/>
<path id="Vector_121" d="M100.019 66.5456C100.057 66.5405 100.091 66.5216 100.116 66.4925C100.134 66.4749 100.148 66.4539 100.157 66.4307C100.167 66.4076 100.172 66.3828 100.172 66.3577C100.172 66.3327 100.167 66.3079 100.157 66.2847C100.148 66.2616 100.134 66.2406 100.116 66.2229C99.9081 65.999 99.6493 65.8287 99.3615 65.7263C99.0737 65.624 98.7654 65.5927 98.4629 65.6351C98.4381 65.6398 98.4145 65.6494 98.3935 65.6634C98.3725 65.6773 98.3545 65.6953 98.3405 65.7163C98.3265 65.7373 98.3169 65.7608 98.3121 65.7856C98.3073 65.8103 98.3074 65.8358 98.3126 65.8605C98.3168 65.8851 98.3259 65.9086 98.3394 65.9295C98.3529 65.9505 98.3705 65.9686 98.3912 65.9826C98.4118 65.9966 98.435 66.0063 98.4595 66.0112C98.484 66.016 98.5092 66.0159 98.5336 66.0108C98.7772 65.9748 99.026 66 99.2574 66.0841C99.4889 66.1682 99.6958 66.3086 99.8596 66.4925C99.8799 66.5136 99.9049 66.5294 99.9326 66.5386C99.9603 66.5478 99.9899 66.5502 100.019 66.5456Z" fill="#263238"/>
<path id="Vector_122" opacity="0.2" d="M87.6777 93.3001C88.3363 95.404 88.9153 97.4947 89.4192 99.5323C89.9717 101.778 90.4358 103.952 90.8292 106.016C91.5541 101.848 91.1121 92.5796 91.1121 92.5796L88.8269 90.3696C88.348 91.3061 87.963 92.2877 87.6777 93.3001Z" fill="black"/>
<path id="Vector_123" d="M98.4713 108.544L96.4249 108.774C95.7354 108.84 95.0458 108.894 94.3652 108.947C93.0332 109.054 91.6966 109.093 90.3606 109.066C89.748 109.051 89.1368 108.998 88.5308 108.907C88.044 108.851 87.5678 108.726 87.1164 108.535C86.9528 108.46 86.944 108.416 86.9484 108.425L86.9484 108.363C86.9484 108.306 86.913 108.226 86.8954 108.138C86.854 107.914 86.826 107.688 86.8114 107.461C86.7504 106.243 86.7977 105.021 86.9528 103.811C87.1075 102.507 87.3064 101.159 87.5628 99.8325C88.049 97.1805 88.6634 94.4092 89.3043 91.7881L83.3505 90.1748C82.9306 91.6422 82.6168 93.0345 82.2986 94.4799C81.9803 95.9252 81.724 97.3617 81.4941 98.8247C81.2643 100.288 81.0919 101.782 81.0035 103.315C80.8808 104.936 80.9267 106.566 81.1405 108.177C81.2126 108.657 81.3174 109.131 81.4543 109.596C81.5322 109.865 81.6251 110.129 81.7328 110.387C81.7903 110.529 81.8521 110.666 81.9273 110.829L82.0422 111.055L82.1969 111.316C82.607 111.948 83.1482 112.484 83.7837 112.889C84.2882 113.205 84.8342 113.449 85.4058 113.614C86.309 113.871 87.2427 114.005 88.1816 114.012C88.9969 114.02 89.8119 113.976 90.6214 113.879C93.6108 113.467 96.5327 112.661 99.3111 111.484L98.4713 108.544Z" fill="#FFBE9D"/>
<path id="Vector_124" d="M84.1509 87.1694C80.9553 89.4148 79.9033 101.008 79.9033 101.008L89.813 102.211C90.5612 98.8586 91.005 95.4458 91.139 92.0138C91.2495 86.5197 88.0184 84.4467 84.1509 87.1694Z" fill="#407BFF"/>
<path id="Vector_125" d="M91.7581 73.6796L92.0144 73.6354C92.1646 73.6026 92.3036 73.5313 92.4177 73.4285C92.5319 73.3256 92.6173 73.1948 92.6655 73.0489C92.7137 72.903 92.723 72.747 92.6925 72.5964C92.6621 72.4458 92.5929 72.3058 92.4918 72.19C91.8287 71.4973 91.3937 70.618 91.2453 69.6706C90.9315 67.3192 92.2133 66.9921 92.0454 65.3832C92.0454 65.3832 95.2454 64.9633 97.2742 63.5666C97.2742 63.5666 99.2676 60.6804 97.672 59.319C96.346 58.1742 94.715 59.7345 94.715 59.7345C94.715 59.7345 94.0255 57.6306 92.3769 58.0814C90.7282 58.5322 90.0519 60.7997 90.0519 60.7997C90.0519 60.7997 88.4607 59.0317 87.2629 59.9157C86.0651 60.7997 86.4894 63.1069 86.4894 63.1069C86.4894 63.1069 84.0054 63.1732 83.9214 64.6186C83.8374 66.0639 85.327 67.3413 85.327 67.3413C85.327 67.3413 83.8418 68.7292 84.2529 69.8872C84.664 71.0453 86.0209 71.169 86.0209 71.169C86.0209 71.169 85.0883 73.1448 85.7469 73.7901C86.4054 74.4354 87.6872 74.2674 87.6872 74.2674C87.6872 74.2674 87.727 76.1636 89.2519 76.7029C89.5588 76.8151 89.8897 76.8448 90.2116 76.7889C90.5335 76.7331 90.8351 76.5937 91.0862 76.3846C91.0862 76.3846 91.8376 77.4852 92.3106 77.1802C92.7835 76.8752 91.7581 73.6796 91.7581 73.6796Z" fill="#263238"/>
<path id="Vector_126" d="M88.12 75.7833C89.004 74.6164 91.7223 71.1157 93.34 70.7975C93.34 70.7975 92.6505 70.2494 92.2748 67.6372C91.818 68.4824 91.2583 69.2678 90.6084 69.9754C89.3102 71.3213 88.119 72.7667 87.0459 74.2981C87.2847 74.8693 87.6523 75.3776 88.12 75.7833Z" fill="#407BFF"/>
<path id="Vector_127" opacity="0.6" d="M88.12 75.7833C89.004 74.6164 91.7223 71.1157 93.34 70.7975C93.34 70.7975 92.6505 70.2494 92.2748 67.6372C91.818 68.4824 91.2583 69.2678 90.6084 69.9754C89.3102 71.3213 88.119 72.7667 87.0459 74.2981C87.2847 74.8693 87.6523 75.3776 88.12 75.7833Z" fill="#EEEEEE"/>
<path id="Vector_128" d="M88.7919 74.0157C89.086 74.4211 89.4571 74.7645 89.8842 75.0262C90.3112 75.2879 90.7857 75.4627 91.2804 75.5406C92.6064 75.7351 93.1147 74.4975 92.6064 73.3306C92.1644 72.2786 90.9224 70.9084 89.6538 71.2488C88.3853 71.5891 88.0759 73.0035 88.7919 74.0157Z" fill="#FFBE9D"/>
<path id="Vector_129" d="M93.5654 71.1909C93.5654 71.1909 96.4517 72.3754 98.7236 70.2096C98.7236 70.2096 101.084 70.8461 101.818 69.5643L101.102 69.3345L93.919 70.9036L93.5654 71.1909Z" fill="#407BFF"/>
<path id="Vector_130" d="M100.712 64.8395L92.964 66.4572C92.6863 66.5168 92.4433 66.6836 92.2878 66.9213L92.0977 67.2042C91.9436 67.4437 91.8896 67.7342 91.9474 68.0131L92.4911 70.612C92.5495 70.8902 92.7159 71.1339 92.9536 71.2896C93.1914 71.4454 93.4813 71.5005 93.7596 71.443L101.521 69.8297C101.796 69.7773 102.039 69.6185 102.197 69.3877L102.383 69.1048C102.538 68.8674 102.594 68.5784 102.538 68.3004L101.963 65.6749C101.906 65.3996 101.742 65.1579 101.508 65.0017C101.274 64.8455 100.989 64.7872 100.712 64.8395Z" fill="#407BFF"/>
<path id="Vector_131" opacity="0.3" d="M100.712 64.8395L92.964 66.4572C92.6863 66.5168 92.4433 66.6836 92.2878 66.9213L92.0977 67.2042C91.9436 67.4437 91.8896 67.7342 91.9474 68.0131L92.4911 70.612C92.5495 70.8902 92.7159 71.1339 92.9536 71.2896C93.1914 71.4454 93.4813 71.5005 93.7596 71.443L101.521 69.8297C101.796 69.7773 102.039 69.6185 102.197 69.3877L102.383 69.1048C102.538 68.8674 102.594 68.5784 102.538 68.3004L101.963 65.6749C101.906 65.3996 101.742 65.1579 101.508 65.0017C101.274 64.8455 100.989 64.7872 100.712 64.8395Z" fill="#EEEEEE"/>
<path id="Vector_132" opacity="0.2" d="M100.568 65.0589L94.0171 66.4262C93.4316 66.5484 93.0561 67.1221 93.1783 67.7075L93.5883 69.6719C93.7105 70.2573 94.2842 70.6329 94.8696 70.5107L101.42 69.1433C102.006 69.0211 102.381 68.4475 102.259 67.862L101.849 65.8977C101.727 65.3122 101.153 64.9367 100.568 65.0589Z" fill="#EEEEEE"/>
</g>
<g id="Group 1000002649">
<path id="Vector_133" d="M100.627 110.525C100.627 110.525 99.2478 111.575 99.195 111.533L97.9213 108.596C98.0775 108.431 100.087 106.376 100.345 106.259L103.37 108.34C103.37 108.34 100.707 110.462 100.627 110.525Z" fill="#FFBE9D"/>
<path id="Vector_134" d="M103.21 108.504C103.2 108.525 103.184 108.543 103.165 108.557C102.921 108.792 101.743 109.681 101.584 109.575C101.424 109.469 101.186 108.992 101.319 108.846C101.452 108.7 102.834 107.776 102.834 107.776C102.834 107.776 103.061 107.643 103.38 107.951C103.573 108.151 103.21 108.504 103.21 108.504Z" fill="#FFBE9D"/>
<path id="Vector_135" d="M103.09 107.485C103.079 107.506 103.063 107.524 103.044 107.537C102.8 107.773 101.622 108.661 101.461 108.557C101.3 108.453 101.065 107.973 101.198 107.826C101.331 107.68 102.713 106.756 102.713 106.756C102.713 106.756 102.94 106.623 103.259 106.932C103.456 107.123 103.09 107.485 103.09 107.485Z" fill="#FFBE9D"/>
<path id="Vector_136" d="M102.766 106.641C102.766 106.641 102.751 106.666 102.722 106.695C102.477 106.931 101.299 107.817 101.141 107.713C100.983 107.609 100.743 107.127 100.876 106.981C101.009 106.835 102.389 105.912 102.389 105.912C102.389 105.912 102.618 105.778 102.937 106.086C103.13 106.272 102.766 106.641 102.766 106.641Z" fill="#FFBE9D"/>
<path id="Vector_137" d="M102.433 105.808C102.433 105.808 102.412 105.824 102.389 105.862C102.145 106.098 100.966 106.984 100.808 106.88C100.65 106.776 100.412 106.296 100.542 106.149C100.672 106.003 102.057 105.079 102.057 105.079C102.057 105.079 102.285 104.948 102.604 105.256C102.803 105.446 102.433 105.808 102.433 105.808Z" fill="#FFBE9D"/>
<path id="Vector_138" d="M101.655 108.58C101.873 108.477 102.078 108.347 102.264 108.193C102.465 108.067 102.648 107.914 102.81 107.74C102.592 107.843 102.387 107.973 102.201 108.127C102 108.253 101.816 108.406 101.655 108.58Z" fill="#EB996E"/>
<path id="Vector_139" d="M101.117 107.896C101.42 107.737 101.707 107.549 101.974 107.337C102.261 107.15 102.529 106.937 102.776 106.7C102.475 106.862 102.189 107.049 101.921 107.261C101.635 107.448 101.366 107.661 101.117 107.896Z" fill="#EB996E"/>
<path id="Vector_140" d="M100.636 107.156C100.937 106.994 101.223 106.806 101.492 106.595C101.779 106.41 102.05 106.2 102.3 105.967C101.999 106.127 101.712 106.314 101.444 106.526C101.157 106.712 100.887 106.923 100.636 107.156Z" fill="#EB996E"/>
<path id="Vector_141" d="M98.4233 108.17C98.4233 108.17 99.8727 105.494 100.12 105.528C100.4 105.608 100.671 105.718 100.928 105.856L98.4233 108.17Z" fill="#FFBE9D"/>
</g>
</g>
<defs>
<clipPath id="clip0_4915_13598">
<rect width="221" height="180" fill="white" transform="translate(-5 -0.00244141)"/>
</clipPath>
</defs>
</svg>
