<svg width="176" height="30" viewBox="0 0 176 30" fill="none" xmlns="http://www.w3.org/2000/svg">
<g id="60e4a1e73807569833e7fb95_logo-company-2-crypto-template.svg" clip-path="url(#clip0_1205_4557)">
<path id="Vector" d="M60.4694 15.896C59.2064 17.9449 57.4101 19.1237 55.0806 19.1237C51.7127 19.1237 49.2428 16.4012 49.2428 12.8929C49.2428 9.38458 51.6004 6.69021 55.1368 6.69021C57.3821 6.69021 59.4028 7.95319 60.4132 9.86171L63.6689 7.2796C62.013 4.33263 59.0099 2.56445 55.1929 2.56445C49.0744 2.56445 44.7803 7.1112 44.7803 12.8929C44.7803 18.6746 49.1586 23.2494 55.1368 23.2494C58.8977 23.2494 62.0411 21.2567 63.7531 18.422L60.4694 15.896Z" fill="#979797"/>
<path id="Vector_2" d="M72.6685 8.17773C68.1779 8.17773 64.9502 11.4335 64.9502 15.6996C64.9502 19.9376 68.1779 23.2494 72.6685 23.2494C77.1591 23.2494 80.3867 19.9376 80.3867 15.6996C80.3867 11.4335 77.1591 8.17773 72.6685 8.17773ZM72.6685 11.9667C74.6051 11.9667 76.0645 13.4543 76.0645 15.6996C76.0645 17.9449 74.6051 19.4605 72.6685 19.4605C70.7319 19.4605 69.2725 17.9449 69.2725 15.6996C69.2725 13.4543 70.7319 11.9667 72.6685 11.9667Z" fill="#979797"/>
<path id="Vector_3" d="M83.1768 8.51452V22.9126H87.4429V15.4189C87.4429 13.5385 88.4252 11.9387 90.2214 11.9387C91.7932 11.9387 92.8035 12.921 92.8035 14.8014V22.9126H97.0696V15.4189C97.0696 13.5385 98.052 11.9387 99.8482 11.9387C101.42 11.9387 102.402 12.921 102.402 14.8014V22.9126H106.668V14.1559C106.668 10.423 104.563 8.17773 101.111 8.17773C98.6694 8.17773 97.2942 9.24425 96.2557 10.7037C95.2734 9.10392 93.7017 8.17773 91.4844 8.17773C89.604 8.17773 88.2007 8.90745 87.2745 10.3669V8.51452H83.1768Z" fill="#979797"/>
<path id="Vector_4" d="M117.86 11.9387C119.684 11.9387 121.2 13.4262 121.2 15.7557C121.2 18.001 119.684 19.4885 117.86 19.4885C115.952 19.4885 114.464 18.0291 114.464 15.7557C114.464 13.3981 115.952 11.9387 117.86 11.9387ZM114.268 8.51452H110.31V28.5259H114.576V21.3409C115.474 22.6881 117.187 23.2494 118.73 23.2494C122.659 23.2494 125.494 19.9937 125.494 15.6996C125.494 11.2651 122.435 8.17773 118.758 8.17773C117.355 8.17773 115.39 8.76712 114.268 10.5072V8.51452Z" fill="#979797"/>
<path id="Vector_5" d="M135.756 13.9594L131.827 14.7172C128.795 15.3628 127.14 16.8222 127.14 18.9553C127.14 21.4532 129.104 23.2494 131.911 23.2494C133.819 23.2494 135.223 22.4074 135.896 21.1444V22.9126H139.854V13.8472C139.854 10.3388 137.468 8.17773 133.454 8.17773C130.76 8.17773 128.599 9.30038 127.28 10.9002L129.497 13.5946C130.367 12.6123 131.602 11.8545 133.202 11.8545C134.661 11.8545 135.756 12.4158 135.756 13.8472V13.9594ZM132.865 20.0779C131.855 20.0779 131.209 19.5166 131.209 18.7027C131.209 17.9168 131.771 17.4116 132.921 17.2151L135.784 16.6538V17.0748C135.784 18.7869 134.633 20.0779 132.865 20.0779Z" fill="#979797"/>
<path id="Vector_6" d="M143.446 8.51452V22.9126H147.712V15.4189C147.712 13.5385 148.695 11.9387 150.547 11.9387C152.119 11.9387 153.129 12.921 153.129 14.8014V22.9126H157.395V14.1559C157.395 10.423 155.262 8.17773 151.81 8.17773C149.873 8.17773 148.47 8.90745 147.544 10.3669V8.51452H143.446Z" fill="#979797"/>
<path id="Vector_7" d="M164.361 22.3795L164.193 22.8566C163.575 24.9054 162.537 25.2703 161.414 25.2703C160.937 25.2703 160.207 25.2142 159.449 24.7932V28.3295C160.095 28.6383 161.021 28.8628 162.031 28.8628C164.754 28.8628 166.494 27.5717 167.925 24.0915L174.212 8.51465H169.862L166.494 17.945L163.154 8.51465H158.692L164.361 22.3795Z" fill="#979797"/>
<path id="Vector_8" d="M19.3778 0.614746H14.8988C14.431 0.614746 14.0518 0.993959 14.0518 1.46174V25.3089C14.0518 25.7767 14.431 26.1559 14.8988 26.1559H19.3778C19.8456 26.1559 20.2248 25.7767 20.2248 25.3089V1.46174C20.2248 0.993959 19.8456 0.614746 19.3778 0.614746Z" fill="#979797"/>
<path id="Vector_9" d="M28.506 26.1556C31.404 26.1556 33.7533 23.8063 33.7533 20.9084C33.7533 18.0104 31.404 15.6611 28.506 15.6611C25.6081 15.6611 23.2588 18.0104 23.2588 20.9084C23.2588 23.8063 25.6081 26.1556 28.506 26.1556Z" fill="#8F8F8F"/>
<path id="Vector_10" d="M28.506 11.1092C31.404 11.1092 33.7533 8.75997 33.7533 5.86199C33.7533 2.96402 31.404 0.614746 28.506 0.614746C25.6081 0.614746 23.2588 2.96402 23.2588 5.86199C23.2588 8.75997 25.6081 11.1092 28.506 11.1092Z" fill="#8F8F8F"/>
<path id="Vector_11" d="M5.76776 26.1556C8.66573 26.1556 11.015 23.8063 11.015 20.9084C11.015 18.0104 8.66573 15.6611 5.76776 15.6611C2.86978 15.6611 0.520508 18.0104 0.520508 20.9084C0.520508 23.8063 2.86978 26.1556 5.76776 26.1556Z" fill="#8F8F8F"/>
</g>
<defs>
<clipPath id="clip0_1205_4557">
<rect width="175" height="29" fill="white" transform="translate(0.166992 0.53125)"/>
</clipPath>
</defs>
</svg>
