<svg width="205" height="91" viewBox="0 0 205 91" fill="none" xmlns="http://www.w3.org/2000/svg">
<g clip-path="url(#clip0_4773_13736)">
<mask id="mask0_4773_13736" style="mask-type:luminance" maskUnits="userSpaceOnUse" x="0" y="0" width="205" height="91">
<path d="M205 0H0V90.2H205V0Z" fill="white"/>
</mask>
<g mask="url(#mask0_4773_13736)">
<path d="M10.5945 21.2957C11.4637 19.7131 12.6527 18.3682 14.1533 17.417L39.1469 0.0166711L13.5219 42.1728C13.5219 42.1728 11.3079 38.3762 10.4387 36.482C9.33168 34.1122 8.77408 31.4964 8.85608 28.8888C8.85608 26.273 9.48748 23.6655 10.5945 21.2957ZM0.319875 50.3974C0.639675 54.4318 1.74667 58.3842 3.64087 61.943C5.53507 65.5018 8.22468 68.585 11.4719 71.0368L39.0731 90.2578C39.0731 90.2578 21.7547 65.4198 7.19967 40.746C5.69907 38.1384 4.74787 35.2849 4.27227 32.2837C4.03447 30.9389 4.03447 29.594 4.27227 28.2493C3.87867 28.9627 3.16527 30.3812 3.16527 30.3812C1.66467 33.3988 0.713475 36.6378 0.155875 39.8768C-0.163925 43.3536 -0.0819249 46.9124 0.237875 50.3974H0.319875ZM70.7825 53.7184C69.9133 51.8242 67.6993 48.0276 67.6993 48.0276L42.1563 90.184L67.1499 72.7834C68.6505 71.7584 69.8395 70.4874 70.7087 68.9048C71.8157 66.535 72.4471 63.9192 72.4471 61.3116C72.4471 58.704 71.8895 56.0882 70.8645 53.7184H70.7825ZM80.9095 39.803C80.5897 35.7686 79.4827 31.8163 77.5885 28.2575C75.6943 24.6987 73.0047 21.6154 69.7575 19.1636L42.1563 -0.0571289C42.1563 -0.0571289 59.4009 24.7806 74.0297 49.4544C75.5303 52.062 76.4815 54.9156 76.9571 57.9168C77.1949 59.2616 77.1949 60.6064 76.9571 61.9512C77.3507 61.2378 78.0641 59.8192 78.0641 59.8192C79.5647 56.8098 80.5159 53.5708 81.0735 50.3318C81.3933 46.855 81.3113 43.2962 80.9915 39.8112H80.9095V39.803Z" fill="url(#paint0_linear_4773_13736)"/>
<path d="M127.649 65.1083H101.475V23.6655H127.649V31.4965H107.322L109.856 29.1267V40.4345H125.673V47.8719H109.856V59.6553L107.322 57.2773H127.649V65.1083Z" fill="url(#paint1_linear_4773_13736)"/>
<path d="M142.918 65.1083H134.529V23.6655H142.918L163.639 54.9075H161.105V23.6655H169.412V65.1083H161.105L140.384 33.8663H142.918V65.1083Z" fill="url(#paint2_linear_4773_13736)"/>
<path d="M174.947 35.5304C174.947 33.0786 175.578 30.8647 176.841 28.9623C178.186 27.068 179.924 25.5592 182.22 24.4522C184.516 23.3452 187.124 22.7876 190.051 22.7876C192.979 22.7876 195.512 23.3452 197.562 24.3702C199.694 25.3952 201.359 26.822 202.548 28.7163C203.737 30.6105 204.368 32.8327 204.368 35.4403H195.98C195.98 33.8577 195.348 32.5948 194.315 31.7256C193.29 30.8564 191.781 30.3808 189.969 30.3808C187.993 30.3808 186.41 30.7744 185.221 31.6436C184.032 32.5128 183.483 33.7018 183.483 35.2024C183.483 36.5472 183.877 37.5722 184.59 38.3676C185.303 39.081 186.484 39.6305 187.993 39.9503L194.323 41.2951C197.964 42.0085 200.654 43.3533 202.392 45.1737C204.131 46.9941 205 49.5197 205 52.7669C205 55.3745 204.368 57.6705 203.106 59.6467C201.843 61.6229 200.022 63.1235 197.644 64.2305C195.348 65.2555 192.585 65.813 189.42 65.813C186.41 65.813 183.803 65.3375 181.507 64.3125C179.293 63.2875 177.472 61.7787 176.283 59.9665C175.021 58.0722 174.389 55.85 174.389 53.3244H182.852C182.852 54.907 183.409 56.1698 184.59 57.039C185.779 57.9082 187.435 58.3019 189.576 58.3019C191.79 58.3019 193.454 57.9082 194.717 57.039C195.98 56.1698 196.611 55.0628 196.611 53.636C196.611 52.3732 196.291 51.4221 195.66 50.7087C195.029 49.9953 193.922 49.5196 192.421 49.208L186.017 47.8633C182.376 47.1499 179.613 45.7312 177.71 43.673C175.89 41.6148 174.939 38.9253 174.939 35.6043V35.5304H174.947Z" fill="url(#paint3_linear_4773_13736)"/>
</g>
</g>
<defs>
<linearGradient id="paint0_linear_4773_13736" x1="59.4311" y1="120.005" x2="11.2659" y2="-71.7067" gradientUnits="userSpaceOnUse">
<stop stop-color="#44BCF0"/>
<stop offset="0.3804" stop-color="#7298F8"/>
<stop offset="1" stop-color="#A099FF"/>
</linearGradient>
<linearGradient id="paint1_linear_4773_13736" x1="129.194" y1="102.541" x2="80.9497" y2="-89.171" gradientUnits="userSpaceOnUse">
<stop stop-color="#44BCF0"/>
<stop offset="0.3804" stop-color="#7298F8"/>
<stop offset="1" stop-color="#A099FF"/>
</linearGradient>
<linearGradient id="paint2_linear_4773_13736" x1="164.376" y1="93.6875" x2="116.131" y2="-98.0248" gradientUnits="userSpaceOnUse">
<stop stop-color="#44BCF0"/>
<stop offset="0.3804" stop-color="#7298F8"/>
<stop offset="1" stop-color="#A099FF"/>
</linearGradient>
<linearGradient id="paint3_linear_4773_13736" x1="199.568" y1="84.8304" x2="151.323" y2="-106.881" gradientUnits="userSpaceOnUse">
<stop stop-color="#44BCF0"/>
<stop offset="0.3804" stop-color="#7298F8"/>
<stop offset="1" stop-color="#A099FF"/>
</linearGradient>
<clipPath id="clip0_4773_13736">
<rect width="205" height="90.2" fill="white"/>
</clipPath>
</defs>
</svg>
