<svg width="264" height="196" viewBox="0 0 264 196" fill="none" xmlns="http://www.w3.org/2000/svg">
<path d="M133.399 140.293V167.867L105.825 140.293L119.612 126.506L133.399 140.293Z" fill="#0000FF"/>
<path d="M160.973 140.293L133.399 167.867V140.293L147.186 126.506L160.973 140.293Z" fill="#6699FF"/>
<path d="M147.186 119.612L133.399 133.399V105.825L147.186 119.612Z" fill="#FEE94E"/>
<path d="M133.399 105.825V133.399L119.612 119.612L133.399 105.825Z" fill="#FFBB33"/>
<path d="M133.399 34.4676V62.0419L105.825 34.4676L119.612 20.6805L133.399 34.4676Z" fill="#0000FF"/>
<path d="M160.973 34.4676L133.399 62.0419V34.4676L147.186 20.6805L160.973 34.4676Z" fill="#6699FF"/>
<path d="M147.186 13.7871L133.399 27.5742V0L147.186 13.7871Z" fill="#FEE94E"/>
<path d="M133.399 0V27.5742L119.612 13.7871L133.399 0Z" fill="#FFBB33"/>
<path d="M188.548 88.1255V115.7L160.973 88.1255L174.76 74.3384L188.548 88.1255Z" fill="#0000FF"/>
<path d="M216.122 88.1255L188.547 115.7V88.1255L202.334 74.3384L216.122 88.1255Z" fill="#6699FF"/>
<path d="M202.334 67.4449L188.547 81.232V53.6578L202.334 67.4449Z" fill="#FEE94E"/>
<path d="M188.547 53.6578V81.232L174.76 67.4449L188.547 53.6578Z" fill="#FFBB33"/>
<path d="M210.905 182.213L197.118 196V168.426L210.905 182.213Z" fill="#FEE94E"/>
<path d="M197.118 168.426V196L183.331 182.213L197.118 168.426Z" fill="#FFBB33"/>
<path d="M84.2129 182.213L70.4258 196V168.426L84.2129 182.213Z" fill="#FEE94E"/>
<path d="M70.4258 168.426V196L56.6387 182.213L70.4258 168.426Z" fill="#FFBB33"/>
<path d="M263.072 128.555L249.285 142.342V114.768L263.072 128.555Z" fill="#FEE94E"/>
<path d="M249.285 114.768V142.342L235.498 128.555L249.285 114.768Z" fill="#FFBB33"/>
<path d="M27.5742 128.555L13.7871 142.342V114.768L27.5742 128.555Z" fill="#FEE94E"/>
<path d="M13.7871 114.768V142.342L0 128.555L13.7871 114.768Z" fill="#FFBB33"/>
<path d="M79.7414 88.1255V115.7L52.1672 88.1255L65.9543 74.3384L79.7414 88.1255Z" fill="#FFBB33"/>
<path d="M107.316 88.1255L79.7415 115.7V88.1255L93.5286 74.3384L107.316 88.1255Z" fill="#FEE94E"/>
<path d="M93.5286 67.4449L79.7415 81.232V53.6578L93.5286 67.4449Z" fill="#6699FF"/>
<path d="M79.7412 53.6578V81.232L65.9541 67.4449L79.7412 53.6578Z" fill="#0000FF"/>
</svg>
