<svg width="236" height="196" viewBox="0 0 236 196" fill="none" xmlns="http://www.w3.org/2000/svg">
<g id="Domain reservation">
<path id="Vector 2" d="M0 12.25V49H46.55V19.6L26.95 0H12.25L0 12.25Z" fill="#000080"/>
<path id="Vector 4" d="M0 49H7.35V14.7L14.7 7.35H34.3L31.85 4.9L26.95 0H12.25L0 12.25V49Z" fill="#0000B2"/>
<path id="Vector 3" d="M169.05 0H26.9502L46.5502 19.6V171.5L71.0502 196H80.8502H188.65V19.6L169.05 0Z" fill="#CCDDFF"/>
<path id="Vector 8" d="M159.25 0H98L117.6 19.6V147H181.3V22.05L159.25 0Z" fill="white"/>
<path id="Vector 7" d="M98.0001 53.9L80.8501 71.05L98.0001 88.2H139.65L156.8 71.05L139.65 53.9H98.0001Z" fill="#DD5F00"/>
<path id="Vector 7.1" d="M139.65 53.9H117.6V88.2H139.65L156.8 71.05L139.65 53.9Z" fill="#FFBB33"/>
<path id="Vector 2.1" d="M200.9 196H71.0498L46.5498 171.5V147H227.85V176.4L208.25 196H200.9Z" fill="#000080"/>
<path id="Vector 2.3" d="M208.25 196H151.9L164.15 183.75V147H227.85V183.75L215.6 196H208.25Z" fill="#0000FF"/>
<path id="Vector 9" d="M100.45 71.05L117.6 53.9L134.75 71.05L117.6 88.2L100.45 71.05Z" fill="#FFF8C6"/>
<path id="Vector 9.1" d="M117.6 88.2V53.9L134.75 71.05L126.175 79.625L117.6 88.2Z" fill="white"/>
<path id="Vector 2.2" d="M46.5498 176.4V147H93.0998V183.75L80.8498 196H66.1498L46.5498 176.4Z" fill="#CCDDFF"/>
<path id="Vector 16" d="M80.8502 183.75L75.9502 188.65L83.3002 196L95.5502 183.75V154.35H80.8502V183.75Z" fill="#6699FF"/>
<path id="Vector 5.1" d="M235.2 147H227.85V181.3L213.15 196H222.95L235.2 183.75V147Z" fill="#6699FF"/>
<path id="Vector 6" d="M188.65 19.6L169.05 0H159.25L181.3 22.05V147H188.65V19.6Z" fill="#6699FF"/>
<path id="Vector 6.1" d="M36.7502 0L53.9002 17.15V171.5L71.0502 188.65H88.2002L80.8502 196H66.1502L46.5502 176.4V19.6L26.9502 0H36.7502Z" fill="#6699FF"/>
<path id="Vector 10" d="M117.6 26.9501V41.6501L124.95 34.3001L117.6 26.9501Z" fill="#6699FF"/>
<path id="Vector 17" d="M90.6501 188.65H75.9501L68.6001 196H83.3001L90.6501 188.65Z" fill="#0000FF"/>
<path id="Vector 10.1" d="M117.6 26.9501V41.6501L110.25 34.3001L117.6 26.9501Z" fill="#0000FF"/>
<path id="Vector 10.2" d="M80.8501 107.8V122.5L88.2001 115.15L80.8501 107.8Z" fill="#0000FF"/>
<path id="Vector 5" d="M100.45 147H93.1001V183.75L80.8501 196H90.6501L100.45 186.2V147Z" fill="#0000B2"/>
<path id="Vector 10.3" d="M80.8501 107.8V122.5L73.5001 115.15L80.8501 107.8Z" fill="#000080"/>
<path id="Vector 10.4" d="M110.25 107.8V122.5L117.6 115.15L110.25 107.8Z" fill="#0000B2"/>
<path id="Vector 10.5" d="M110.25 107.8V122.5L102.9 115.15L110.25 107.8Z" fill="#6699FF"/>
<path id="Vector 15" d="M44.1002 17.15H53.9002L36.7502 0H26.9502L44.1002 17.15Z" fill="#0000FF"/>
<path id="Vector 10.6" d="M124.95 107.8V122.5L132.3 115.15L124.95 107.8Z" fill="#FFBB33"/>
<path id="Vector 10.7" d="M124.95 107.8V122.5L117.6 115.15L124.95 107.8Z" fill="#DD5F00"/>
<path id="Vector 10.8" d="M159.25 107.8V122.5L166.6 115.15L159.25 107.8Z" fill="#FEEF7E"/>
<path id="Vector 10.9" d="M159.25 107.8V122.5L151.9 115.15L159.25 107.8Z" fill="#FFBB33"/>
<path id="Vector 11" d="M142.1 41.65H132.3L142.1 31.85V41.65Z" fill="#6699FF"/>
<path id="Vector 11.3" d="M142.1 41.65H151.9L142.1 31.85V41.65Z" fill="#CCDDFF"/>
<path id="Vector 11.1" d="M95.5501 41.65H105.35L95.5501 31.85V41.65Z" fill="#0000FF"/>
<path id="Vector 11.2" d="M95.55 41.65H85.75L95.55 31.85V41.65Z" fill="#000080"/>
<path id="Vector 12" d="M132.3 115.15H147L139.65 122.5L132.3 115.15Z" fill="#6699FF"/>
<path id="Vector 14" d="M53.9 17.15L36.75 0H98L115.15 17.15H53.9Z" fill="#6699FF"/>
<path id="Vector 14.1" d="M115.15 17.15L98 0H159.25L176.4 17.15H115.15Z" fill="#CCDDFF"/>
<path id="Rectangle 34624133" d="M117.192 61.916L123.785 66.7406L116.95 71.1632L110.517 66.7406L117.192 61.916Z" fill="#6699FF"/>
<rect id="Rectangle 34624135" width="8.04103" height="8.04103" transform="matrix(0.83205 0.5547 0 1 110.517 66.7406)" fill="#0000FF"/>
<rect id="Rectangle 34624136" width="8.04103" height="8.04103" transform="matrix(0.83205 -0.5547 0 1 116.95 71.2008)" fill="#000080"/>
</g>
</svg>
