<svg width="176" height="196" viewBox="0 0 176 196" fill="none" xmlns="http://www.w3.org/2000/svg">
<g id="Domain speculation">
<path id="Vector" d="M24.9741 196C38.7669 196 49.9481 184.819 49.9481 171.026C49.9481 157.233 38.7669 146.052 24.9741 146.052C11.1812 146.052 0 157.233 0 171.026C0 184.819 11.1812 196 24.9741 196Z" fill="#E5B20E"/>
<path id="Vector_2" d="M28.7565 195.574C42.5493 195.574 53.7307 184.393 53.7307 170.6C53.7307 156.807 42.5493 145.626 28.7565 145.626C14.9637 145.626 3.78247 156.807 3.78247 170.6C3.78247 184.393 14.9637 195.574 28.7565 195.574Z" fill="#FFDE82"/>
<path id="Vector_3" d="M40.4614 172.353V172.6L43.2045 173.591L42.7192 174.987C42.537 175.514 42.1533 175.947 41.6522 176.192C41.1512 176.437 40.5734 176.474 40.0455 176.294L39.3127 176.037L39.1741 176.274C38.371 177.651 37.1183 178.708 35.6267 179.269C34.1351 179.83 32.4959 179.86 30.9848 179.354L30.6877 179.265L31.5096 176.908C31.6541 176.497 31.9218 176.141 32.2762 175.887C32.6306 175.634 33.0544 175.496 33.4901 175.492C34.1869 175.508 34.8709 175.302 35.4425 174.903C36.0141 174.504 36.4437 173.933 36.6688 173.274C36.8085 172.879 36.8679 172.461 36.8435 172.043C36.8192 171.626 36.7116 171.217 36.527 170.842C36.3425 170.466 36.0848 170.131 35.769 169.857C35.4532 169.582 35.0859 169.374 34.6883 169.243C32.3811 168.451 30.8659 170.234 28.9647 172.719C26.3999 176.254 23.4391 176.155 21.4091 175.452C19.9779 174.99 18.7501 174.047 17.9329 172.785C17.1157 171.522 16.7591 170.016 16.9232 168.521V168.263L14.3684 167.382L14.8536 165.995C14.9428 165.734 15.0828 165.492 15.2656 165.285C15.4484 165.077 15.6704 164.908 15.9188 164.786C16.1673 164.665 16.4372 164.594 16.7132 164.577C16.9893 164.56 17.2659 164.598 17.5272 164.688L18.0818 164.876L18.2304 164.659C18.9766 163.456 20.1171 162.55 21.4572 162.095C22.7973 161.64 24.2538 161.664 25.578 162.163L25.8751 162.252L25.1423 164.391C25.0057 164.786 24.7548 165.132 24.4216 165.384C24.0884 165.636 23.6879 165.783 23.2707 165.807C22.6933 165.829 22.1348 166.018 21.6634 166.353C21.192 166.687 20.8283 167.151 20.6168 167.689C20.4952 168.047 20.4466 168.427 20.4737 168.805C20.5008 169.182 20.6032 169.551 20.7748 169.889C20.9464 170.226 21.1838 170.526 21.473 170.771C21.7622 171.015 22.0972 171.2 22.4587 171.313C24.5679 172.046 25.7761 170.461 27.5981 168.085C29.9351 165.183 32.886 164.124 35.7082 165.114C37.1814 165.637 38.4431 166.628 39.3012 167.935C40.1593 169.242 40.5668 170.793 40.4614 172.353Z" fill="#E5B20E"/>
<path id="Vector_4" d="M28.7569 189.999C39.4706 189.999 48.1559 181.314 48.1559 170.6C48.1559 159.886 39.4706 151.201 28.7569 151.201C18.0431 151.201 9.35791 159.886 9.35791 170.6C9.35791 181.314 18.0431 189.999 28.7569 189.999Z" stroke="#E5B20E" stroke-width="1.09918" stroke-miterlimit="10"/>
<path id="Vector_5" style="mix-blend-mode:multiply" d="M50.1955 183.414C22.7161 189.167 10.239 164.926 8.95172 151.865C6.44313 154.523 4.52073 157.679 3.30916 161.127C2.0976 164.576 1.62381 168.24 1.91844 171.884C2.21307 175.527 3.26966 179.068 5.01962 182.277C6.76958 185.486 9.1739 188.291 12.0771 190.512C14.9802 192.733 18.3175 194.319 21.8727 195.168C25.4279 196.017 29.1216 196.11 32.715 195.441C36.3084 194.772 39.7212 193.356 42.7325 191.284C45.7437 189.212 48.2863 186.531 50.1955 183.414Z" fill="url(#paint0_radial_184_366)"/>
<g id="Vector_6" style="mix-blend-mode:soft-light">
<path d="M47.1558 157.549C49.2079 160.883 50.4398 164.657 50.7504 168.56" stroke="#FFF3D5" stroke-width="0.901127" stroke-miterlimit="10" stroke-linecap="round"/>
</g>
<g id="Vector_7" style="mix-blend-mode:soft-light">
<path d="M17.3096 151.043C21.6025 148.595 26.5357 147.504 31.4603 147.914" stroke="#FFF3D5" stroke-width="0.901127" stroke-miterlimit="10" stroke-linecap="round"/>
</g>
<path id="Vector_8" d="M92.1611 34.669L5.69598 97.3054C4.385 98.255 4.09215 100.088 5.04184 101.399L42.7155 153.404C43.6651 154.715 45.4977 155.008 46.8087 154.059L133.274 91.4223C134.585 90.4726 134.878 88.64 133.928 87.329L96.2545 35.3231C95.3048 34.0122 93.4721 33.7193 92.1611 34.669Z" fill="#0000FF"/>
<path id="Vector_9" d="M48.3836 41.3726C59.8083 41.3726 69.0699 32.111 69.0699 20.6863C69.0699 9.26157 59.8083 0 48.3836 0C36.9589 0 27.6973 9.26157 27.6973 20.6863C27.6973 32.111 36.9589 41.3726 48.3836 41.3726Z" fill="#E5B20E"/>
<path id="Vector_10" d="M50.3938 43.7986C61.8186 43.7986 71.08 34.5371 71.08 23.1123C71.08 11.6876 61.8186 2.42603 50.3938 2.42603C38.9691 2.42603 29.7075 11.6876 29.7075 23.1123C29.7075 34.5371 38.9691 43.7986 50.3938 43.7986Z" fill="#FFDE82"/>
<path id="Vector_11" d="M54.5133 32.0049L54.335 32.1138L54.9192 34.4409L53.7409 34.7479C53.2931 34.862 52.8183 34.7937 52.4209 34.5578C52.0235 34.322 51.7361 33.938 51.6218 33.4903L51.4633 32.8664H51.2355C49.9168 32.9438 48.612 32.5617 47.5431 31.7854C46.4743 31.0091 45.7075 29.8864 45.3732 28.6083L45.304 28.3509L47.2845 27.8459C47.6403 27.7596 48.0142 27.7856 48.3546 27.9204C48.6951 28.0551 48.9854 28.292 49.1858 28.5985C49.4886 29.0887 49.9401 29.4694 50.4745 29.6849C51.0089 29.9005 51.5983 29.9396 52.1565 29.7966C52.4934 29.7137 52.8103 29.5642 53.0886 29.3571C53.367 29.15 53.6011 28.8893 53.7773 28.5904C53.9535 28.2915 54.0682 27.9605 54.1147 27.6166C54.1611 27.2728 54.1384 26.9232 54.0478 26.5882C53.5527 24.6077 51.6614 24.3701 49.0372 24.2116C45.4327 24.0433 44.1454 21.9539 43.7097 20.2506C43.3801 19.0536 43.4718 17.7798 43.9693 16.6423C44.4669 15.5048 45.3401 14.5727 46.4428 14.0022L46.6209 13.9031L46.0764 11.7345L47.2547 11.4374C47.7011 11.323 48.1748 11.39 48.572 11.6238C48.9691 11.8576 49.2574 12.2392 49.3739 12.6851L49.4927 13.1704H49.7105C50.8846 13.1416 52.0325 13.5205 52.9587 14.2427C53.8849 14.9649 54.5322 15.9857 54.7905 17.1314L54.8599 17.3789L53.0477 17.8344C52.712 17.9227 52.3576 17.9075 52.0307 17.7909C51.7038 17.6743 51.4197 17.4616 51.2157 17.1809C50.9436 16.7857 50.5601 16.4806 50.1139 16.3042C49.6677 16.1278 49.1791 16.0883 48.7104 16.1906C48.4007 16.2679 48.1102 16.4076 47.8563 16.601C47.6025 16.7945 47.3908 17.0377 47.2342 17.3157C47.0775 17.5938 46.9792 17.9009 46.9453 18.2182C46.9114 18.5356 46.9426 18.8565 47.0369 19.1614C47.4924 20.9537 49.1263 21.0725 51.6118 21.2508C54.6717 21.5479 56.7809 23.0828 57.385 25.4891C57.6744 26.7396 57.551 28.0503 57.0333 29.2248C56.5156 30.3994 55.6316 31.3748 54.5133 32.0049Z" fill="#E5B20E"/>
<path id="Vector_12" d="M50.3939 39.1841C59.27 39.1841 66.4656 31.9886 66.4656 23.1124C66.4656 14.2362 59.27 7.04065 50.3939 7.04065C41.5177 7.04065 34.322 14.2362 34.322 23.1124C34.322 31.9886 41.5177 39.1841 50.3939 39.1841Z" stroke="#E5B20E" stroke-width="0.732784" stroke-miterlimit="10"/>
<g id="Vector_13" style="mix-blend-mode:soft-light">
<path d="M32.0148 23.1125C32.0148 23.1125 30.7573 13.6853 40.3627 7.3774C48.5323 2.01025 55.6422 4.9711 59.2368 6.60501" stroke="#FFF3D5" stroke-width="0.643662" stroke-miterlimit="10" stroke-linecap="round"/>
</g>
<path id="Vector_14" d="M148.943 130.792C163.671 130.792 175.611 118.853 175.611 104.125C175.611 89.3967 163.671 77.4573 148.943 77.4573C134.215 77.4573 122.276 89.3967 122.276 104.125C122.276 118.853 134.215 130.792 148.943 130.792Z" fill="#E5B20E"/>
<path id="Vector_15" d="M145.992 127.98C160.72 127.98 172.66 116.04 172.66 101.312C172.66 86.5844 160.72 74.645 145.992 74.645C131.264 74.645 119.325 86.5844 119.325 101.312C119.325 116.04 131.264 127.98 145.992 127.98Z" fill="#FFDE82"/>
<path id="Vector_16" d="M142.834 113.453H142.576L141.239 116.245L139.823 115.572C139.288 115.319 138.876 114.864 138.675 114.307C138.475 113.751 138.503 113.137 138.754 112.601L139.11 111.849L138.873 111.68C137.501 110.671 136.522 109.217 136.101 107.567C135.681 105.917 135.845 104.172 136.565 102.63L136.704 102.323L139.11 103.461C139.533 103.671 139.882 104.006 140.108 104.421C140.335 104.835 140.429 105.309 140.378 105.779C140.271 106.517 140.407 107.27 140.764 107.925C141.121 108.58 141.68 109.102 142.358 109.413C142.76 109.607 143.196 109.72 143.642 109.743C144.087 109.767 144.533 109.701 144.953 109.55C145.373 109.398 145.758 109.165 146.086 108.862C146.414 108.56 146.679 108.195 146.864 107.789C147.983 105.442 146.329 103.62 143.893 101.303C140.447 98.1734 140.922 95.0442 141.913 92.9647C142.561 91.5 143.696 90.305 145.126 89.5829C146.556 88.8608 148.192 88.6561 149.755 89.0037L150.023 89.0532L151.261 86.4489L152.686 87.1222C153.219 87.3775 153.63 87.8322 153.831 88.3882C154.031 88.9442 154.004 89.5566 153.756 90.093L153.479 90.6673L153.697 90.8456C154.885 91.781 155.712 93.0996 156.037 94.5767C156.362 96.0538 156.165 97.5979 155.479 98.9458L155.34 99.2429L153.172 98.2526C152.766 98.0631 152.426 97.7559 152.196 97.3711C151.967 96.9862 151.858 96.5413 151.884 96.0939C151.934 95.4791 151.8 94.8635 151.501 94.3244C151.201 93.7853 150.749 93.3467 150.201 93.0637C149.836 92.892 149.44 92.7949 149.036 92.7783C148.633 92.7616 148.23 92.8258 147.852 92.9669C147.474 93.1081 147.128 93.3234 146.834 93.6002C146.54 93.877 146.304 94.2097 146.141 94.5788C145.151 96.7376 146.646 98.2031 148.953 100.431C151.756 103.244 152.568 106.511 151.201 109.393C150.446 110.895 149.217 112.106 147.705 112.84C146.192 113.573 144.481 113.789 142.834 113.453Z" fill="#E5B20E"/>
<path id="Vector_17" d="M146.072 121.959C157.513 121.959 166.787 112.684 166.787 101.243C166.787 89.8019 157.513 80.527 146.072 80.527C134.63 80.527 125.355 89.8019 125.355 101.243C125.355 112.684 134.63 121.959 146.072 121.959Z" stroke="#E5B20E" stroke-width="1.09918" stroke-miterlimit="10"/>
<path id="Vector_18" style="mix-blend-mode:multiply" d="M173.026 115.582C175.824 109.709 176.367 103.014 174.551 96.7671C167.52 111.155 144.666 124.395 127.019 120.048C127.683 120.73 128.384 121.374 129.119 121.979C132.055 125.237 135.749 127.721 139.875 129.21C144 130.699 148.429 131.148 152.77 130.516C157.11 129.885 161.228 128.192 164.758 125.589C168.287 122.986 171.121 119.552 173.006 115.592L173.026 115.582Z" fill="url(#paint1_radial_184_366)"/>
<g id="Vector_19" style="mix-blend-mode:soft-light">
<path d="M121.929 101.312C121.929 101.312 121.612 88.3005 132.238 81.2499C142.863 74.1994 152.043 77.6751 156.766 79.8042" stroke="#FFF3D5" stroke-width="0.772394" stroke-miterlimit="10" stroke-linecap="round"/>
</g>
<path id="Rectangle 34624132" d="M4.96278 101.482C4.00025 100.153 4.29709 98.2958 5.62579 97.3332L47.9255 66.6908L89.0383 123.444L46.7385 154.087C45.4098 155.049 43.5524 154.752 42.5899 153.424L4.96278 101.482Z" fill="#000080"/>
<g id="Group 1261152727">
<path id="Subtract" fill-rule="evenodd" clip-rule="evenodd" d="M69.0942 103.509L56.3126 113.768L39.3375 111.452L40.681 100.751L54.7814 89.7956L65.2797 91.1135L70.5669 91.7773L69.0942 103.509ZM46.8886 102.795L46.3341 107.212L55.1684 108.321L63.869 101.561L64.5159 96.4078L56.4178 95.3911L46.8886 102.795Z" fill="#DD5F00"/>
<path id="Subtract_2" fill-rule="evenodd" clip-rule="evenodd" d="M65.9519 84.7583L78.5952 74.6098L95.3868 76.9007L94.0578 87.4866L80.1099 98.3231L69.8722 97.0378L69.0544 103.552L62.9397 108.449L63.7118 101.672L65.9519 84.7583ZM88.1646 85.3343L88.7192 80.9172L79.8848 79.8081L71.1842 86.5677L70.5373 91.7211L78.6355 92.7378L88.1646 85.3343Z" fill="#FEE94E"/>
<path id="Vector_20" d="M71.7261 87.8921L58.8813 97.5483L58.7664 100.208L61.5574 101.108L74.4022 91.4519L74.5753 88.5579L71.7261 87.8921Z" fill="#FFBB33"/>
</g>
</g>
<defs>
<radialGradient id="paint0_radial_184_366" cx="0" cy="0" r="1" gradientUnits="userSpaceOnUse" gradientTransform="translate(5.90166 197.495) scale(41.6895 41.6895)">
<stop stop-color="#E5B20E"/>
<stop offset="1" stop-color="#E5B20E" stop-opacity="0"/>
</radialGradient>
<radialGradient id="paint1_radial_184_366" cx="0" cy="0" r="1" gradientUnits="userSpaceOnUse" gradientTransform="translate(167.778 141.19) scale(49.7699 49.7699)">
<stop stop-color="#FFC90D"/>
<stop offset="1" stop-color="#FFC90D" stop-opacity="0"/>
</radialGradient>
</defs>
</svg>
