<svg width="173" height="196" viewBox="0 0 173 196" fill="none" xmlns="http://www.w3.org/2000/svg">
<path d="M80.9566 0V51.1304L55.3914 25.5652L80.9566 0Z" fill="#0000FF"/>
<path d="M106.522 25.5652L80.9565 51.1304V0L106.522 25.5652Z" fill="#6699FF"/>
<path d="M80.9565 59.6522V110.783L76.6956 106.522L78.826 104.391L74.5652 100.13L72.4347 102.261L68.1739 98.0001L70.3043 95.8696L66.0434 91.6088L63.913 93.7392L59.6521 89.4783L61.7826 87.3479L57.5217 83.087L55.3913 85.2174L51.1304 80.9566L53.2608 78.8261L49 74.5653L46.8695 76.6957L34.0869 63.9131L42.6087 55.3914H46.8695V51.1305L59.6521 38.3479L80.9565 59.6522Z" fill="#FFBB33"/>
<path d="M127.826 63.9131L115.043 76.6957L112.913 74.5653L108.652 78.8261L110.783 80.9566L106.522 85.2174L104.391 83.087L100.13 87.3479L102.261 89.4783L98 93.7392L95.8696 91.6088L91.6087 95.8696L93.7391 98.0001L89.4783 102.261L87.3478 100.13L83.087 104.391L85.2174 106.522L80.9565 110.783V59.6522L102.261 38.3479L127.826 63.9131Z" fill="#FEE94E"/>
<path d="M63.9131 136.348L46.8696 153.391V136.348H63.9131Z" fill="#0000FF"/>
<path d="M46.8696 153.391V187.478H63.9131V136.348L46.8696 153.391Z" fill="#000080"/>
<path d="M114.935 136.348L97.8914 153.391V136.348H114.935Z" fill="#0000FF"/>
<path d="M97.8914 153.391V187.478H114.935V136.348L97.8914 153.391Z" fill="#000080"/>
<path d="M63.9131 153.391V187.478H46.8696V136.348L63.9131 153.391Z" fill="#000080"/>
<path d="M115.043 153.391V187.478H98V136.348L115.043 153.391Z" fill="#000080"/>
<path d="M118.772 72.2437L135.816 89.2871L118.772 106.331V72.2437Z" fill="#6699FF"/>
<path d="M46.8694 178.957L55.3911 187.478L63.9129 178.957V196H29.8259L46.8694 178.957Z" fill="#DD5F00"/>
<path d="M115.043 178.957L106.522 187.478L98 178.957V196H132.087L115.043 178.957Z" fill="#DD5F00"/>
<path d="M42.6088 183.217L46.8696 187.478H38.3479L42.6088 183.217Z" fill="#FFBB33"/>
<path d="M119.304 183.217L115.043 187.478H123.565L119.304 183.217Z" fill="#FFBB33"/>
<path d="M81.0055 85.2099L76.7373 89.4781L81.0055 93.7464L85.2737 89.4781L81.0055 85.2099Z" fill="#0000FF"/>
<path d="M80.9565 110.783V136.348H42.6086V72.4348L46.8695 76.6957L48.9999 74.5652L53.2608 78.8261L51.1304 80.9566L55.3912 85.2174L57.5217 83.087L61.7825 87.3479L59.6521 89.4783L63.913 93.7392L66.0434 91.6087L70.3043 95.8696L68.1739 98L72.4347 102.261L74.5652 100.13L78.826 104.391L76.6956 106.522L80.9565 110.783Z" fill="#DD5F00"/>
<path d="M119.304 123.565L117.174 125.696H119.304V136.348H80.9565V110.783L85.2174 106.522L83.087 104.391L87.3478 100.13L89.4783 102.261L93.7391 98L91.6087 95.8696L95.8696 91.6087L98 93.7392L102.261 89.4783L100.13 87.3479L104.391 83.087L106.522 85.2174L110.783 80.9566L108.652 78.8261L112.913 74.5652L115.043 76.6957L119.304 72.4348V123.565Z" fill="#DD5F00"/>
<path d="M121.473 66.026L117.205 70.2942L119.314 72.4032L123.582 68.135L121.473 66.026Z" fill="#DD5F00"/>
<path d="M40.4884 66.0747L38.3794 68.1837L42.6476 72.4519L44.7566 70.3429L40.4884 66.0747Z" fill="#FFBB33"/>
<path d="M81.0055 68.1666L76.7373 72.4348L81.0055 76.703L85.2737 72.4348L81.0055 68.1666Z" fill="#0000FF"/>
<path d="M119.304 110.783H42.6086V119.304H119.304V110.783Z" fill="#000080"/>
<g clip-path="url(#clip0_199_637)">
<path d="M3.30179 36.7958V106.148L6.27401 109.12H25.0981V111.431L21.7956 114.734L25.0981 118.036V121.009H12.2184L10.2039 118.994L8.25549 121.009H4.29253L1.32031 118.036V34.8143L5.28327 30.8513H25.0981V32.8328H7.26475L3.30179 36.7958Z" fill="#FFBB33"/>
<path d="M25.099 34.8145V100.203H3.30273V36.7959L5.28421 34.8145H25.099Z" fill="#0000B2"/>
<path d="M46.8951 36.7959V100.203H25.0989V34.8145H44.9137L46.8951 36.7959Z" fill="#6699FF"/>
<path d="M25.0986 111.432V118.037L21.7961 114.734L25.0986 111.432Z" fill="#000080"/>
<path d="M28.4013 114.734L25.0989 118.037V111.432L28.4013 114.734Z" fill="#0000B2"/>
<path d="M48.8766 34.8143V118.036L45.9044 121.009H25.0989V118.036L28.4013 114.734L25.0989 111.431V109.12H43.9229L46.8951 106.148V36.7958L42.9322 32.8328H25.0989V30.8513H44.9137L48.8766 34.8143Z" fill="#FEE94E"/>
<path d="M0 49.3453L1.32099 50.6663V42.7404L0 44.0613V49.3453Z" fill="#FEE94E"/>
<path d="M50.1975 44.0613L48.8765 42.7404V54.6292L50.1975 53.3082V44.0613Z" fill="#FEEF7E"/>
<path d="M0 61.2336L1.32099 62.5546V54.6287L0 55.9496V61.2336Z" fill="#FEE94E"/>
<path d="M44.9138 34.8144H5.28418L7.26566 32.8329H42.9323L44.9138 34.8144Z" fill="#000080"/>
<path d="M46.8951 100.203V106.148L43.9229 109.12H25.0989V100.203H46.8951Z" fill="#0000B2"/>
<path d="M25.099 100.203V109.12H6.27495L3.30273 106.148V100.203H25.099Z" fill="#000080"/>
<path d="M25.099 38.7769H5.28418V80.3879H25.099V38.7769Z" fill="#000080"/>
<path d="M44.9137 38.7769H25.0989V80.3879H44.9137V38.7769Z" fill="#0000B2"/>
<path d="M13.2101 82.3696H5.28418L8.2564 85.3418H18.1638L21.136 82.3696H13.2101Z" fill="#6699FF"/>
<path d="M38.9915 84.3473L37.0066 86.3322L38.9915 88.317L40.9764 86.3322L38.9915 84.3473Z" fill="#DD5F00"/>
<path d="M40.9734 82.3663L38.9885 84.3512L40.9734 86.3361L42.9583 84.3512L40.9734 82.3663Z" fill="#DD5F00"/>
<path d="M37.0108 82.3663L35.0259 84.3512L37.0108 86.3361L38.9957 84.3512L37.0108 82.3663Z" fill="#DD5F00"/>
<path d="M13.2093 62.548L9.2395 66.5178L13.2093 70.4876L17.1791 66.5178L13.2093 62.548Z" fill="#FFBB33"/>
<path d="M17.173 72.1319V80.388H9.24707V72.1319L11.2285 70.1504L13.21 72.1319L15.1915 70.1504L17.173 72.1319Z" fill="#FFBB33"/>
<path d="M25.0989 64.8665V72.7924L21.136 68.8294L25.0989 64.8665Z" fill="#FFBB33"/>
<path d="M25.0989 74.4438V80.3882H21.136V74.4438L23.1175 72.4623L25.0989 74.4438Z" fill="#FFBB33"/>
<path d="M36.9869 60.8967L33.0171 64.8665L36.9869 68.8362L40.9567 64.8665L36.9869 60.8967Z" fill="#FEE94E"/>
<path d="M40.9506 70.4809V80.3883H33.0247V70.4809L35.0061 68.4994L36.9876 70.4809L38.9691 68.4994L40.9506 70.4809Z" fill="#FEE94E"/>
<path d="M29.0618 68.8294L25.0989 72.7924V64.8665L29.0618 68.8294Z" fill="#FEE94E"/>
<path d="M29.0618 74.4438V80.3882H25.0989V74.4438L27.0804 72.4623L29.0618 74.4438Z" fill="#FEE94E"/>
<path d="M25.099 90.2957H5.28418V92.6074H25.099V90.2957Z" fill="#FFBB33"/>
<path d="M44.9137 90.2957H25.0989V92.6074H44.9137V90.2957Z" fill="#FEE94E"/>
<path d="M25.099 94.9192H5.28418V97.2309H25.099V94.9192Z" fill="#FFBB33"/>
<path d="M36.9877 94.9192H25.0989V97.2309H36.9877V94.9192Z" fill="#FEE94E"/>
</g>
<path d="M119.32 119.246L156.246 153.205L159.267 168.686L143.774 165.678L109.751 128.815L115.759 125.533L119.32 119.246Z" fill="#CCDDFF"/>
<path d="M109.751 128.831L115.759 125.549L159.267 168.703L143.774 165.694L109.751 128.831Z" fill="#6699FF"/>
<path d="M119.319 102.138L124.414 107.234L113.787 123.211L98.2633 133.385L93.168 128.289L101.234 120.223L91.618 106.301L94.2733 103.645L96.9286 100.99L110.636 110.822L119.319 102.138Z" fill="#0000FF"/>
<path d="M119.379 102.079L124.474 107.175L113.783 123.208L94.3343 103.759L96.9884 100.931L110.695 110.763L119.379 102.079Z" fill="#0000B2"/>
<path d="M96.9886 100.93L110.696 110.762L106.017 115.441L94.2476 103.671L96.9886 100.93Z" fill="#CCDDFF"/>
<path d="M91.5916 106.327L101.23 120.227L106.016 115.441L94.2469 103.672L91.5916 106.327Z" fill="#6699FF"/>
<defs>
<clipPath id="clip0_199_637">
<rect width="50.1975" height="90.1573" fill="white" transform="translate(0 30.8513)"/>
</clipPath>
</defs>
</svg>
