<svg width="220" height="196" viewBox="0 0 220 196" fill="none" xmlns="http://www.w3.org/2000/svg">
<g id="Group 5">
<g id="Group 3.1">
<path id="Vector" d="M185.251 30.0438L185.251 190.042L200.815 190.042L200.815 30.0438L185.251 30.0438Z" fill="#FFBB33"/>
<path id="Vector_2" d="M216.379 190.042L216.379 30.0434L200.815 30.0434L200.815 190.042L216.379 190.042Z" fill="#FEE94E"/>
</g>
<g id="Group 2.1">
<path id="Vector_3" d="M86.5759 69.4243L86.5759 190.041L102.139 190.041L102.139 69.4243L86.5759 69.4243Z" fill="#FFBB33"/>
<path id="Vector_4" d="M117.703 190.041L117.703 69.4243L102.139 69.4243L102.139 190.041L117.703 190.041Z" fill="#FEE94E"/>
</g>
<g id="Group">
<path id="Vector_5" d="M102.139 46.8918V69.4244L83.3618 50.6472V43.1364L87.1173 39.3809H94.6281L102.139 46.8918Z" fill="#0000FF"/>
<path id="Vector_6" d="M120.917 43.1364V50.6473L102.14 69.4245V46.8919L109.651 39.381H117.162L120.917 43.1364Z" fill="#6699FF"/>
</g>
<g id="Group_2">
<path id="Vector_7" d="M151.476 66.9926V89.5252L132.699 70.7481V63.2372L136.455 59.4818H143.966L151.476 66.9926Z" fill="#0000FF"/>
<path id="Vector_8" d="M170.254 63.2372V70.7481L151.477 89.5253V66.9927L158.988 59.4818H166.499L170.254 63.2372Z" fill="#6699FF"/>
</g>
<g id="Group_3">
<path id="Vector_9" d="M200.815 7.51106V30.0437L182.037 11.2665V3.75562L185.793 0.000183105H193.304L200.815 7.51106Z" fill="#0000FF"/>
<path id="Vector_10" d="M219.593 3.75556V11.2664L200.815 30.0436V7.51099L208.326 0.00012207H215.837L219.593 3.75556Z" fill="#6699FF"/>
</g>
<g id="Group 2.2">
<path id="Vector_11" d="M135.914 89.5252L135.914 190.042L151.477 190.042L151.477 89.5252L135.914 89.5252Z" fill="#FFBB33"/>
<path id="Vector_12" d="M167.041 190.041L167.041 89.5251L151.477 89.5251L151.477 190.041L167.041 190.041Z" fill="#FEE94E"/>
</g>
<g id="Group 4.1">
<path id="Vector_13" d="M37.239 190.041L37.239 131.679L52.8025 131.679L52.8025 190.042L37.239 190.041Z" fill="#FFBB33"/>
<path id="Vector_14" d="M5.91078 190.041L5.91079 0.00012401L12.2207 0.00012207L12.2207 190.042L5.91078 190.041Z" fill="#6699FF"/>
<path id="Vector_15" d="M68.3662 131.679L68.3662 190.041L52.8027 190.042L52.8027 131.679L68.3662 131.679Z" fill="#FEE94E"/>
<g id="Group_4">
<path id="Vector_16" d="M52.8016 109.146V131.679L34.0244 112.902V105.391L37.7799 101.635H45.2907L52.8016 109.146Z" fill="#0000FF"/>
<path id="Vector_17" d="M71.5797 105.391V112.902L52.8025 131.679V109.146L60.3134 101.635H67.8242L71.5797 105.391Z" fill="#6699FF"/>
</g>
<path id="Vector_18" d="M5.91179 189.687L216.378 189.687L216.378 196L5.91078 196L5.91179 189.687Z" fill="#0000FF"/>
</g>
<rect id="Rectangle" x="0.223633" y="51.0859" width="17.4704" height="4.82673" fill="#0000FF"/>
<rect id="Rectangle_2" x="0.223633" y="76.6284" width="17.4704" height="4.82673" fill="#0000FF"/>
<rect id="Rectangle_3" y="25.5433" width="17.4704" height="4.82673" fill="#0000FF"/>
<rect id="Rectangle_4" x="0.223633" width="17.4704" height="4.82673" fill="#0000FF"/>
<rect id="Rectangle_5" x="0.223633" y="102.172" width="17.4704" height="4.82673" fill="#0000FF"/>
<rect id="Rectangle_6" x="0.223633" y="127.715" width="17.4704" height="4.82673" fill="#0000FF"/>
<rect id="Rectangle_7" y="153.258" width="17.4704" height="4.82673" fill="#0000FF"/>
<rect id="Rectangle_8" y="178.8" width="17.4704" height="4.82673" fill="#0000FF"/>
</g>
</svg>
