<svg width="307" height="196" viewBox="0 0 307 196" fill="none" xmlns="http://www.w3.org/2000/svg">
<path d="M75.0469 1.28375V49.9628H78.0893V1.28375H75.0469Z" fill="#FFBB33"/>
<path d="M82.146 1.28375V49.9628H85.1884V1.28375H82.146Z" fill="#FFBB33"/>
<path d="M153.136 45.9062L85.1884 45.9062L85.1884 48.9487L153.136 48.9487L153.136 45.9062Z" fill="#FFBB33"/>
<path d="M0 196L134.882 61.1185H171.391L306.272 196H0Z" fill="#FFF8C6"/>
<path d="M153.136 80.2211L143.797 70.8818H162.476L153.136 80.2211Z" fill="#FFBB33"/>
<path d="M153.136 51.9911L85.1884 51.9911L85.1884 55.0335L153.136 55.0335L153.136 51.9911Z" fill="#FFBB33"/>
<path d="M80.1178 61.1184L67.948 48.9487L74.0329 42.8638L80.1178 48.9487L86.2026 42.8638L92.2875 48.9487L80.1178 61.1184Z" fill="#0000B2"/>
<path d="M153.136 42.8637L144.7 34.4276L148.918 30.2095L153.136 34.4276L157.354 30.2095L161.573 34.4276L153.136 42.8637Z" fill="#0000B2"/>
<path d="M161.572 34.4276L153.136 42.8637V34.4276L157.354 30.2095L161.572 34.4276Z" fill="#6699FF"/>
<path d="M153.136 42.8637L125.118 70.8818H143.797H153.136H162.475H181.154L153.136 42.8637Z" fill="#0000B2"/>
<path d="M129.747 66.2167L125.146 70.8818H181.126L176.525 66.2167H129.747Z" fill="#6699FF"/>
<path d="M178.816 153.654L156.352 176.071V153.654L167.584 142.422L178.816 153.654Z" fill="#6699FF"/>
<path d="M156.352 153.654V176.071L133.935 153.654L145.167 142.422L156.352 153.654Z" fill="#0000FF"/>
<path d="M259.893 74.6329V5.34058e-05H256.85V74.6329H259.893Z" fill="#FFBB33"/>
<path d="M252.794 74.6329V5.34058e-05H249.751V74.6329H252.794Z" fill="#FFBB33"/>
<path d="M212.636 117.647L252.794 77.4886L250.643 75.3373L210.484 115.495L212.636 117.647Z" fill="#FFBB33"/>
<path d="M207.616 112.627L247.774 72.4689L245.623 70.3176L205.465 110.476L207.616 112.627Z" fill="#FFBB33"/>
<path d="M254.822 79.755L266.992 67.5852L260.907 61.5003L254.822 67.5852L248.737 61.5003L242.652 67.5852L254.822 79.755Z" fill="#0000B2"/>
<path d="M178.174 110.249L182.358 114.45L186.55 114.458L193.901 107.137L187.625 100.836L184.475 103.974L186.567 106.074L182.366 110.258L180.275 108.158L178.174 110.249Z" fill="#0000FF"/>
<path d="M187.625 100.836L193.9 107.136L203.351 97.7234L205.443 99.8236L207.543 97.7318L203.36 93.5315L199.168 93.5231L199.161 96.6671L191.825 96.6524L187.625 100.836Z" fill="#0000B2"/>
<path d="M197.077 103.998L195.001 106.066L202.426 113.52L204.502 111.452L197.077 103.998Z" fill="#6699FF"/>
<rect width="2.92988" height="10.5204" transform="matrix(-0.708517 0.705694 0.705694 0.708517 194.988 106.052)" fill="#CCDDFF"/>
<rect width="4.34157" height="28.6237" transform="matrix(-0.709413 0.704793 0.706565 0.707648 205.484 110.46)" fill="#0000FF"/>
<rect width="4.24047" height="28.6237" transform="matrix(-0.709219 0.704988 0.706515 0.707698 202.405 113.521)" fill="#6699FF"/>
<rect width="4.34359" height="1.88925" transform="matrix(-0.707107 0.707107 0.707107 0.707107 225.693 130.7)" fill="#DD5F00"/>
<rect width="4.24246" height="1.88925" transform="matrix(-0.707107 0.707107 0.707107 0.707107 222.623 133.77)" fill="#FFBB33"/>
<path d="M202.404 113.517L205.486 110.46L207.628 112.603L204.542 115.658L202.404 113.517Z" fill="#FFBB33"/>
<path d="M199.37 116.493L202.402 113.512L204.545 115.655L201.508 118.633L199.37 116.493Z" fill="#DD5F00"/>
<path d="M207.429 118.539L210.511 115.482L212.653 117.625L209.567 120.68L207.429 118.539Z" fill="#FFBB33"/>
<path d="M204.395 121.515L207.427 118.534L209.569 120.677L206.533 123.655L204.395 121.515Z" fill="#DD5F00"/>
<path d="M55.3798 76.0357L63.1657 78.3447L101.008 116.241L95.2554 116.253L55.3798 76.0357Z" fill="#79A3FF"/>
<path d="M55.3784 76.0291L57.3359 84.1251L95.2441 121.982L95.2441 116.239L55.3784 76.0291Z" fill="#0000FF"/>
<path d="M104.342 117.693L99.3724 117.684L98.0386 119.013L109.4 130.415L109.413 122.783L104.342 117.693Z" fill="#FEE94E"/>
<path d="M96.6958 125.306L96.7047 120.336L98.0385 119.007L111.532 132.617L103.9 132.603L96.6958 125.306Z" fill="#FFBB33"/>
<path d="M95.2421 121.987L101.006 116.241H95.2422L95.2421 121.987Z" fill="#0000FF"/>
<path d="M98.1348 119.109L95.2399 116.236V121.991L98.1348 119.109Z" fill="#79A3FF"/>
<path d="M49.7412 140.796V195.56H52.7837V140.796H49.7412Z" fill="#FFBB33"/>
<path d="M56.8401 140.796V195.56H59.8825V140.796H56.8401Z" fill="#FFBB33"/>
<path d="M90.6809 105.908L58.4229 138.166L60.2471 139.99L92.5051 107.732L90.6809 105.908Z" fill="#FFBB33"/>
<path d="M94.9395 110.162L62.6795 142.422L64.5037 144.246L96.7636 111.986L94.9395 110.162Z" fill="#FFBB33"/>
<path d="M54.8121 153.929L42.6423 141.759L48.7272 135.674L54.8121 141.759L60.897 135.674L66.9819 141.759L54.8121 153.929Z" fill="#0000B2"/>
<path d="M84.915 111.669L87.8245 108.759L89.6472 110.594L86.7412 113.495L84.915 111.669Z" fill="#DD5F00"/>
<rect x="89.1689" y="115.93" width="4.08905" height="2.58263" transform="rotate(-45 89.1689 115.93)" fill="#DD5F00"/>
<rect x="67.948" y="183.237" width="176.857" height="12.5295" fill="#DD5F00"/>
<rect x="156.376" y="183.237" width="88.4284" height="12.5416" fill="#FFBB33"/>
<rect x="81.3154" y="175.949" width="150.039" height="7.28718" fill="#FFBB33"/>
<rect x="156.335" y="175.949" width="75.0195" height="7.28718" fill="#FEE94E"/>
</svg>
