<svg width="212" height="180" viewBox="0 0 212 180" fill="none" xmlns="http://www.w3.org/2000/svg">
<g id="Wallet-id" clip-path="url(#clip0_4915_13919)">
<g id="freepik--Plant--inject-3">
<path id="Vector" d="M159.174 149.605C158.46 150.621 157.073 150.286 156.432 149.664C155.792 149.042 155.516 148.141 155.269 147.28C154.703 145.318 154.136 143.257 154.555 141.255C154.657 140.649 154.923 140.083 155.325 139.618C155.528 139.389 155.789 139.218 156.079 139.121C156.37 139.024 156.68 139.005 156.981 139.066C157.68 139.25 158.114 139.938 158.427 140.589C159.352 142.512 159.838 144.616 159.847 146.75C159.847 147.743 159.733 148.785 159.174 149.605Z" fill="#A8C0F5"/>
<g id="Group" opacity="0.2">
<path id="Vector_2" d="M159.174 149.605C158.46 150.621 157.073 150.286 156.432 149.664C155.792 149.042 155.516 148.141 155.269 147.28C154.703 145.318 154.136 143.257 154.555 141.255C154.657 140.649 154.923 140.083 155.325 139.618C155.528 139.389 155.789 139.218 156.079 139.121C156.37 139.024 156.68 139.005 156.981 139.066C157.68 139.25 158.114 139.938 158.427 140.589C159.352 142.512 159.838 144.616 159.847 146.75C159.847 147.743 159.733 148.785 159.174 149.605Z" fill="black"/>
</g>
<path id="Vector_3" d="M156.503 154.765C155.306 154.202 153.961 154.039 152.664 154.297C151.957 154.359 151.291 154.657 150.773 155.144C150.298 155.666 150.21 156.586 150.751 157.035C151.102 157.272 151.525 157.379 151.947 157.337C152.959 157.337 154.085 157.145 154.891 157.756C155.355 158.106 155.66 158.684 156.216 158.86C156.492 158.923 156.781 158.895 157.04 158.779C157.299 158.664 157.513 158.468 157.651 158.22C157.917 157.712 157.975 157.121 157.813 156.571C157.749 156.189 157.597 155.828 157.37 155.514C157.143 155.201 156.846 154.944 156.503 154.765Z" fill="#A8C0F5"/>
<path id="Vector_4" d="M161.133 151.066C160.767 150.587 160.524 150.026 160.424 149.432C160.323 148.837 160.37 148.227 160.558 147.655C160.947 146.506 161.646 145.487 162.579 144.711C163.634 143.771 164.863 143.046 166.196 142.577C166.712 142.369 167.267 142.275 167.823 142.301C168.1 142.317 168.37 142.4 168.608 142.544C168.846 142.687 169.045 142.887 169.188 143.125C169.556 143.861 169.206 144.733 168.82 145.451C168.125 146.719 167.33 147.93 166.443 149.072C165.733 149.988 164.916 150.912 163.83 151.309C162.744 151.707 161.622 151.677 161.041 150.941" fill="#A8C0F5"/>
<path id="Vector_5" d="M159.222 164.973C159.188 164.821 159.167 164.665 159.16 164.509C159.127 164.174 159.086 163.751 159.035 163.247C158.971 162.629 158.877 162.015 158.751 161.407C158.585 160.662 158.359 159.931 158.078 159.221C157.806 158.512 157.434 157.845 156.974 157.241C156.346 156.403 155.412 155.847 154.376 155.696C154.219 155.691 154.064 155.669 153.912 155.63C154.069 155.614 154.226 155.614 154.383 155.63C154.812 155.663 155.232 155.773 155.623 155.953C156.198 156.23 156.702 156.636 157.095 157.138C157.577 157.75 157.966 158.43 158.251 159.155C158.539 159.876 158.763 160.621 158.921 161.381C159.039 162.002 159.122 162.628 159.167 163.258C159.208 163.792 159.222 164.226 159.23 164.528C159.245 164.676 159.242 164.825 159.222 164.973Z" fill="#263238"/>
<path id="Vector_6" d="M159.137 164.001C159.129 163.931 159.129 163.859 159.137 163.788C159.137 163.626 159.137 163.42 159.137 163.173C159.137 162.64 159.137 161.867 159.108 160.914C159.06 159.008 158.898 156.38 158.582 153.488C158.265 150.595 157.846 147.993 157.452 146.128C157.36 145.66 157.268 145.241 157.183 144.869C157.099 144.497 157.029 144.181 156.963 143.923C156.896 143.666 156.856 143.485 156.819 143.327C156.798 143.258 156.786 143.186 156.782 143.114C156.813 143.179 156.838 143.246 156.856 143.316L157.036 143.905C157.113 144.163 157.194 144.479 157.286 144.847C157.378 145.215 157.485 145.631 157.584 146.098C158.109 148.529 158.505 150.986 158.769 153.458C159.09 156.358 159.229 158.978 159.244 160.903C159.244 161.86 159.244 162.632 159.211 163.166C159.211 163.416 159.182 163.619 159.174 163.781C159.169 163.855 159.156 163.929 159.137 164.001Z" fill="#263238"/>
<path id="Vector_7" d="M159.123 158.912C159.108 158.699 159.108 158.485 159.123 158.272C159.149 157.86 159.204 157.263 159.322 156.535C159.461 155.68 159.649 154.833 159.885 153.999C160.167 152.977 160.521 151.976 160.944 151.004C161.679 149.212 162.734 147.57 164.058 146.157C164.288 145.915 164.534 145.688 164.794 145.476C164.908 145.384 165.007 145.289 165.106 145.215L165.394 145.016C165.564 144.888 165.743 144.772 165.931 144.67C165.31 145.163 164.719 145.691 164.161 146.253C162.884 147.677 161.858 149.309 161.128 151.077C160.708 152.043 160.351 153.035 160.061 154.047C159.785 154.978 159.601 155.836 159.461 156.557C159.322 157.278 159.252 157.871 159.204 158.279C159.195 158.492 159.167 158.704 159.123 158.912Z" fill="#263238"/>
</g>
<g id="freepik--credit-card--inject-3">
<path id="Vector_8" d="M79.1609 129.722L22.2019 69.4735C21.9143 69.1681 21.7594 68.7612 21.7711 68.3418C21.7829 67.9225 21.9602 67.5249 22.2644 67.236L59.6569 31.8933C59.8079 31.7505 59.9856 31.6388 60.1797 31.5646C60.3739 31.4904 60.5808 31.4553 60.7886 31.4611C60.9964 31.4669 61.2009 31.5136 61.3907 31.5985C61.5804 31.6834 61.7515 31.8048 61.8943 31.9559L118.85 92.2085C119.137 92.5139 119.292 92.9208 119.28 93.3402C119.269 93.7595 119.091 94.1571 118.787 94.446L81.402 129.774C81.2519 129.918 81.0746 130.032 80.8805 130.108C80.6863 130.183 80.4791 130.22 80.2707 130.215C80.0624 130.21 79.857 130.164 79.6666 130.08C79.4761 129.995 79.3042 129.874 79.1609 129.722Z" fill="#407BFF"/>
<g id="Group_2" opacity="0.3">
<path id="Vector_9" d="M79.1609 129.722L22.2019 69.4735C21.9143 69.1681 21.7594 68.7612 21.7711 68.3418C21.7829 67.9225 21.9602 67.5249 22.2644 67.236L59.6569 31.8933C59.8079 31.7505 59.9856 31.6388 60.1797 31.5646C60.3739 31.4904 60.5808 31.4553 60.7886 31.4611C60.9964 31.4669 61.2009 31.5136 61.3907 31.5985C61.5804 31.6834 61.7515 31.8048 61.8943 31.9559L118.85 92.2085C119.137 92.5139 119.292 92.9208 119.28 93.3402C119.269 93.7595 119.091 94.1571 118.787 94.446L81.402 129.774C81.2519 129.918 81.0746 130.032 80.8805 130.108C80.6863 130.183 80.4791 130.22 80.2707 130.215C80.0624 130.21 79.857 130.164 79.6666 130.08C79.4761 129.995 79.3042 129.874 79.1609 129.722Z" fill="black"/>
</g>
<path id="Vector_10" d="M118.431 91.7668L62.3036 32.3974C62.1064 32.188 61.8699 32.0195 61.6075 31.9017C61.3451 31.7839 61.062 31.7191 60.7745 31.7109C60.487 31.7026 60.2007 31.7513 59.932 31.8539C59.6633 31.9566 59.4175 32.1112 59.2087 32.3091L48.5883 42.3518C48.4832 42.4499 48.4041 42.5725 48.3579 42.7086C48.3116 42.8447 48.2998 42.9901 48.3233 43.1319C49.3868 49.0715 53.6335 54.3817 58.6972 57.8998C64.8134 62.1502 72.063 64.3913 78.9372 67.2286C85.8115 70.0659 92.7409 73.8047 96.8735 80.0055C100.771 85.8604 101.691 93.1211 103.674 99.8775C104.214 101.713 104.888 103.507 105.691 105.243C105.749 105.369 105.837 105.48 105.946 105.565C106.056 105.651 106.184 105.71 106.321 105.736C106.457 105.763 106.598 105.757 106.731 105.718C106.865 105.68 106.988 105.61 107.089 105.515L118.346 94.8727C118.557 94.6752 118.727 94.4377 118.845 94.1742C118.964 93.9107 119.029 93.6263 119.037 93.3374C119.044 93.0486 118.995 92.7611 118.891 92.4915C118.787 92.2219 118.631 91.9756 118.431 91.7668Z" fill="#407BFF"/>
<path id="Vector_11" d="M59.7198 73.698L59.959 72.2555L58.487 72.41L58.1963 72.1009L59.9958 71.9169L60.2571 70.2241L60.5515 70.5332L60.3307 71.8912L61.6996 71.7476L61.983 72.0494L60.2792 72.2187L60.0032 74.0108L59.7198 73.698Z" fill="white"/>
<path id="Vector_12" d="M47.5245 60.469L47.7637 59.0265L46.2917 59.181L46.001 58.8719L47.8005 58.6879L48.0618 56.9951L48.3562 57.3042L48.1354 58.6622L49.5043 58.5186L49.7877 58.8204L48.0839 58.9897L47.8079 60.7818L47.5245 60.469Z" fill="white"/>
<path id="Vector_13" d="M61.663 75.7552L61.9021 74.3089L60.4301 74.4635L60.1357 74.1544L61.9353 73.9741L62.2002 72.2812L62.491 72.5867L62.2738 73.9446L63.6391 73.8048L63.9261 74.1065L62.2186 74.2758L61.9426 76.068L61.663 75.7552Z" fill="white"/>
<path id="Vector_14" d="M49.4676 62.5262L49.7068 61.0799L48.2348 61.2345L47.9404 60.9254L49.74 60.745L50.0049 59.0522L50.2956 59.3577L50.0785 60.7156L51.4438 60.5758L51.7308 60.8775L50.0233 61.0468L49.7473 62.839L49.4676 62.5262Z" fill="white"/>
<path id="Vector_15" d="M63.6065 77.8089L63.8457 76.3663L62.3737 76.5209L62.083 76.2118L63.8788 76.0314L64.1438 74.335L64.4345 74.6441L64.2174 76.002L65.5864 75.8622L65.8697 76.1602L64.1622 76.3295L63.8862 78.1217L63.6065 77.8089Z" fill="white"/>
<path id="Vector_16" d="M51.4112 64.5794L51.6504 63.1368L50.1784 63.2914L49.8877 62.9823L51.6835 62.8019L51.9485 61.1055L52.2392 61.4146L52.0221 62.7725L53.3911 62.6327L53.6744 62.9308L51.9669 63.1L51.6909 64.8922L51.4112 64.5794Z" fill="white"/>
<path id="Vector_17" d="M65.546 79.8509L65.7852 78.4083L64.3132 78.5629L64.0225 78.2538L65.8183 78.0698L66.0833 76.377L66.374 76.6861L66.1569 78.044L67.5258 77.9005L67.8092 78.2022L66.1017 78.3715L65.8293 80.1637L65.546 79.8509Z" fill="white"/>
<path id="Vector_18" d="M53.3507 66.6224L53.5899 65.1798L52.1179 65.3344L51.8271 65.0252L53.623 64.8412L53.888 63.1484L54.1787 63.4576L53.9616 64.8155L55.3305 64.672L55.6139 64.9737L53.9064 65.143L53.634 66.9352L53.3507 66.6224Z" fill="white"/>
<path id="Vector_19" d="M72.2608 86.9646L72.5 85.5221L71.028 85.6766L70.7373 85.3675L72.5331 85.1872L72.7981 83.4907L73.0888 83.7998L72.8717 85.1578L74.2407 85.0142L74.524 85.316L72.8165 85.4853L72.5405 87.2774L72.2608 86.9646Z" fill="white"/>
<path id="Vector_20" d="M74.2042 89.0218L74.4434 87.5755L72.9714 87.7301L72.6807 87.4247L74.4765 87.2407L74.7415 85.5479L75.0322 85.857L74.8151 87.2149L76.184 87.0714L76.4674 87.3731L74.7599 87.5424L74.4839 89.3346L74.2042 89.0218Z" fill="white"/>
<path id="Vector_21" d="M76.1468 91.0789L76.3897 89.6327L74.9177 89.7872L74.627 89.4781L76.4228 89.2978L76.6878 87.605L76.9785 87.9104L76.7614 89.2683L78.1303 89.1285L78.4137 89.4266L76.7062 89.5959L76.4338 91.388L76.1468 91.0789Z" fill="white"/>
<path id="Vector_22" d="M78.0938 93.1321L78.333 91.6896L76.861 91.8441L76.5703 91.535L78.3662 91.3547L78.6311 89.6582L78.9255 89.9673L78.7047 91.3252L80.0737 91.1817L80.357 91.4835L78.6495 91.6528L78.3772 93.4449L78.0938 93.1321Z" fill="white"/>
<path id="Vector_23" d="M86.8152 96.9595L84.1214 99.5098L83.8564 99.2301L86.3073 96.9153L85.7075 96.2824L85.954 96.0469L86.8152 96.9595Z" fill="white"/>
<path id="Vector_24" d="M87.1862 101.195C86.7372 101.622 86.0822 101.622 85.464 100.971C85.116 100.626 84.9121 100.161 84.8936 99.6717L85.2395 99.5981C85.2463 100.024 85.4178 100.43 85.7179 100.732C86.1411 101.177 86.5827 101.228 86.9176 100.912C87.2524 100.595 87.2377 100.176 86.763 99.6754L86.5827 99.4841L86.7851 99.2927L88.4264 99.1529L87.1236 97.7765L87.3702 97.541L89.0078 99.2743L88.8128 99.462L87.1347 99.6055C87.6499 100.22 87.6241 100.794 87.1862 101.195Z" fill="white"/>
<path id="Vector_25" d="M89.657 103.944L89.1455 103.403L88.4389 104.073L88.1739 103.797L88.8842 103.127L87.4453 101.607L87.6477 101.416L90.7831 101.158L91.0738 101.464L88.0304 101.732L89.1344 102.903L89.7564 102.314L90.0139 102.582L89.3884 103.171L89.8999 103.712L89.657 103.944Z" fill="white"/>
<path id="Vector_26" d="M91.1571 106.461L90.9105 106.693L89.1221 104.801L89.3208 104.617L91.4773 104.698C92.0661 104.72 92.3016 104.606 92.4856 104.433C92.7984 104.135 92.7837 103.734 92.3936 103.329C92.2718 103.184 92.1189 103.069 91.9463 102.991C91.7736 102.913 91.5856 102.875 91.3963 102.88L91.3963 102.512C91.6411 102.51 91.8835 102.561 92.1061 102.663C92.3287 102.765 92.5262 102.914 92.6843 103.101C93.1995 103.649 93.251 104.257 92.7984 104.684C92.5408 104.926 92.2354 105.052 91.5398 105.052L89.7697 104.989L91.1571 106.461Z" fill="white"/>
<path id="Vector_27" d="M71.7426 105.998C72.5596 105.225 73.4501 105.239 74.0279 105.847C74.6056 106.454 74.5688 107.348 73.7482 108.121C72.9276 108.894 72.0443 108.883 71.4629 108.272C70.8815 107.661 70.9256 106.77 71.7426 105.998ZM73.2146 107.543C73.7776 107.013 73.8255 106.594 73.5532 106.307C73.2808 106.02 72.865 106.045 72.3019 106.579C71.7389 107.113 71.6911 107.528 71.9597 107.812C72.2283 108.095 72.6405 108.077 73.2036 107.543H73.2146Z" fill="white"/>
<path id="Vector_28" d="M75.4812 110.877C74.977 111.356 74.2668 111.245 73.77 110.719C73.126 110.035 73.1517 109.203 73.9503 108.449C74.8077 107.639 75.7903 107.713 76.4784 108.449C76.7147 108.684 76.8826 108.979 76.9642 109.302L76.3423 109.486C76.2962 109.266 76.1861 109.063 76.0258 108.905C75.9422 108.804 75.8377 108.723 75.7196 108.667C75.6016 108.61 75.4727 108.58 75.3419 108.579C75.2111 108.577 75.0814 108.603 74.9619 108.657C74.8424 108.71 74.7358 108.788 74.6495 108.887C74.9586 108.911 75.2455 109.056 75.4481 109.291C75.5565 109.392 75.6436 109.513 75.7042 109.649C75.7648 109.784 75.7976 109.929 75.8007 110.077C75.8038 110.225 75.7771 110.372 75.7222 110.51C75.6673 110.647 75.5853 110.772 75.4812 110.877ZM74.9292 110.347C74.9822 110.297 75.0239 110.236 75.0515 110.168C75.079 110.1 75.0919 110.028 75.0891 109.954C75.0863 109.881 75.068 109.81 75.0353 109.744C75.0027 109.679 74.9565 109.621 74.8997 109.575C74.8554 109.516 74.7995 109.468 74.7356 109.432C74.6717 109.397 74.6011 109.375 74.5283 109.367C74.4555 109.36 74.3819 109.368 74.3122 109.39C74.2426 109.413 74.1782 109.449 74.1232 109.497C74.0708 109.55 74.0301 109.613 74.0036 109.682C73.9772 109.751 73.9657 109.825 73.9699 109.899C73.974 109.973 73.9938 110.045 74.0278 110.111C74.0619 110.177 74.1094 110.235 74.1674 110.281C74.2109 110.34 74.2663 110.389 74.33 110.424C74.3938 110.46 74.4643 110.481 74.537 110.488C74.6098 110.494 74.683 110.485 74.7519 110.46C74.8207 110.436 74.8837 110.398 74.9365 110.347H74.9292Z" fill="white"/>
<path id="Vector_29" d="M78.7926 109.954L79.2599 110.443L74.8182 112.43L74.3545 111.937L78.7926 109.954Z" fill="white"/>
<path id="Vector_30" d="M78.4616 114.653L77.9942 115.094L76.2168 113.221L76.5848 112.872L78.3917 112.975C78.5144 112.999 78.6408 112.996 78.7622 112.966C78.8836 112.936 78.997 112.88 79.0946 112.802C79.2896 112.618 79.2749 112.375 79.0246 112.114C78.9348 112.01 78.8205 111.929 78.692 111.881C78.5635 111.832 78.4249 111.816 78.2886 111.834L78.1635 111.16C78.4226 111.13 78.6851 111.165 78.9277 111.26C79.1703 111.356 79.3856 111.51 79.5546 111.709C80.0771 112.264 80.1397 112.897 79.6907 113.324C79.4515 113.552 79.1682 113.692 78.5168 113.648L77.4422 113.586L78.4616 114.653Z" fill="white"/>
<path id="Vector_31" d="M80.8498 117.071L80.4818 116.67L79.963 117.159L79.433 116.6L79.9556 116.11L78.6934 114.774L79.0798 114.406L81.7551 114.09L82.3255 114.69L79.8084 115.014L80.4377 115.68L80.9014 115.242L81.4129 115.783L80.9492 116.221L81.3172 116.625L80.8498 117.071Z" fill="white"/>
<path id="Vector_32" d="M92.4748 86.4197C93.8732 84.2706 93.3249 81.4149 91.4481 79.6706C90.8772 79.132 90.2156 78.6985 89.494 78.3899C87.7018 77.6539 85.3282 78.1875 84.3862 79.8877C83.617 81.2751 83.9262 83.0083 84.4671 84.4987C85.0302 86.0627 85.9391 87.6599 87.4884 88.2671C89.0377 88.8743 90.771 88.3186 91.8823 87.1631C92.1048 86.9362 92.3033 86.6871 92.4748 86.4197Z" fill="#407BFF"/>
</g>
<g id="freepik--Wallet--inject-3">
<path id="Vector_33" d="M126.607 87.3066H32.498C28.9535 87.3066 26.0801 90.18 26.0801 93.7246L26.0801 158.504C26.0801 162.048 28.9535 164.922 32.498 164.922H126.607C130.151 164.922 133.025 162.048 133.025 158.504L133.025 93.7246C133.025 90.18 130.151 87.3066 126.607 87.3066Z" fill="#DDE2F0"/>
<path id="Vector_34" d="M133.025 93.7246C133.025 93.7246 133.025 93.6474 133.025 93.4928C133.018 93.2622 132.996 93.0323 132.959 92.8046C132.83 91.9087 132.508 91.0513 132.017 90.2912C131.656 89.7321 131.215 89.2298 130.707 88.8008C130.086 88.2919 129.376 87.9026 128.613 87.6526C128.407 87.5827 128.19 87.5422 127.972 87.4797C127.755 87.4171 127.523 87.4098 127.292 87.373L126.581 87.3398H122.614L84.2429 87.3693H57.7469H42.9828H33.3007C32.6473 87.3431 31.9929 87.3801 31.3466 87.4797C30.0452 87.7186 28.8526 88.3626 27.9389 89.3197C27.4776 89.7964 27.0961 90.3444 26.8092 90.9426C26.5134 91.5404 26.3193 92.1834 26.2351 92.8451C26.1716 93.5178 26.1507 94.1938 26.1725 94.8691L26.1725 105.243C26.1725 110.851 26.1725 116.571 26.1725 122.403L26.1725 158.467C26.1748 160.006 26.7343 161.492 27.7476 162.651C28.747 163.803 30.133 164.55 31.6447 164.752C32.3985 164.818 33.1554 164.838 33.9116 164.815H92.1145H122.53H126.07C126.647 164.833 127.225 164.794 127.796 164.701C128.356 164.593 128.9 164.41 129.411 164.156C129.665 164.032 129.911 163.891 130.147 163.737C130.377 163.575 130.599 163.4 130.81 163.214C131.436 162.663 131.947 161.992 132.311 161.242C132.676 160.491 132.887 159.675 132.933 158.842C132.97 154.426 132.933 150.18 132.955 146.132C132.955 129.94 132.981 116.824 132.988 107.764C132.988 103.234 132.988 99.7194 133.007 97.331C133.007 96.1424 133.007 95.2334 133.007 94.6189C133.007 94.0043 133.007 93.6952 133.007 93.6952C133.007 93.6952 133.007 94.008 133.007 94.6189C133.007 95.2298 133.007 96.1424 133.007 97.331C133.007 99.7194 133.007 103.219 133.025 107.764C133.025 116.824 133.025 129.932 133.054 146.132C133.054 150.18 133.08 154.423 133.054 158.85C132.993 159.984 132.632 161.082 132.009 162.033C131.699 162.51 131.328 162.946 130.905 163.328C130.689 163.519 130.462 163.697 130.225 163.862C129.988 164.02 129.742 164.163 129.489 164.292C128.966 164.554 128.41 164.742 127.836 164.852C127.257 164.95 126.668 164.989 126.081 164.969H122.541H92.1255H58.5124H33.8969C33.132 164.993 32.3664 164.971 31.6042 164.903C30.0467 164.699 28.6182 163.93 27.5893 162.743C26.5505 161.553 25.9756 160.028 25.9701 158.448C25.9701 146.087 25.9701 134.024 25.9701 122.384L25.9701 105.243C25.9701 102.441 25.9701 99.6691 25.9701 96.9262L25.9701 94.8765C25.9481 94.1925 25.9703 93.5078 26.0364 92.8267C26.1234 92.1469 26.3237 91.4864 26.6289 90.8726C26.923 90.2562 27.3158 89.6918 27.7917 89.2019C28.263 88.7173 28.8037 88.3055 29.3962 87.9802C29.9918 87.664 30.6321 87.4406 31.2951 87.3178L31.7919 87.2405L32.2887 87.2147C32.6236 87.1963 32.9511 87.2147 33.2786 87.2147H57.7249H84.2209L122.592 87.2478H126.541L127.258 87.2846C127.49 87.3251 127.722 87.3509 127.943 87.3987C128.164 87.4466 128.381 87.5018 128.587 87.5754C129.356 87.8286 130.071 88.2229 130.696 88.7382C131.207 89.1712 131.649 89.6786 132.009 90.2434C132.499 91.0099 132.815 91.8739 132.937 92.7752C132.974 93.0039 132.994 93.2352 132.996 93.467C133.025 93.6474 133.025 93.7246 133.025 93.7246Z" fill="#263238"/>
<path id="Vector_35" d="M129.278 92.0908C130.009 91.9632 130.756 91.9632 131.486 92.0908C130.756 92.2183 130.009 92.2183 129.278 92.0908Z" fill="#263238"/>
<path id="Vector_36" d="M120.27 92.0908C121.768 91.9632 123.275 91.9632 124.774 92.0908C123.275 92.2184 121.768 92.2184 120.27 92.0908Z" fill="#263238"/>
<path id="Vector_37" d="M111.265 92.0909C112.762 91.9632 114.268 91.9632 115.765 92.0909C114.268 92.2185 112.762 92.2185 111.265 92.0909Z" fill="#263238"/>
<path id="Vector_38" d="M102.256 92.0908C103.755 91.9632 105.261 91.9632 106.76 92.0908C105.261 92.2184 103.755 92.2184 102.256 92.0908Z" fill="#263238"/>
<path id="Vector_39" d="M93.251 92.0909C94.7485 91.9632 96.2541 91.9632 97.7516 92.0909C96.2541 92.2185 94.7485 92.2185 93.251 92.0909Z" fill="#263238"/>
<path id="Vector_40" d="M84.2422 92.0908C85.7409 91.9632 87.2478 91.9632 88.7465 92.0908C87.2478 92.2184 85.7409 92.2184 84.2422 92.0908Z" fill="#263238"/>
<path id="Vector_41" d="M75.2373 92.0909C76.7348 91.9632 78.2405 91.9632 79.7379 92.0909C78.2405 92.2185 76.7348 92.2185 75.2373 92.0909Z" fill="#263238"/>
<path id="Vector_42" d="M66.2285 92.0908C67.7272 91.9632 69.2341 91.9632 70.7328 92.0908C69.2341 92.2184 67.7272 92.2184 66.2285 92.0908Z" fill="#263238"/>
<path id="Vector_43" d="M57.2197 92.0908C58.7185 91.9632 60.2253 91.9632 61.724 92.0908C60.2253 92.2184 58.7185 92.2184 57.2197 92.0908Z" fill="#263238"/>
<path id="Vector_44" d="M48.2148 92.091C48.9579 91.997 49.7076 91.965 50.456 91.9953C51.208 91.9644 51.9614 91.9964 52.7081 92.091C51.9616 92.1878 51.208 92.2198 50.456 92.1867C49.7076 92.2192 48.9578 92.1871 48.2148 92.091Z" fill="#263238"/>
<path id="Vector_45" d="M39.207 92.091C39.9538 91.9964 40.7071 91.9644 41.4592 91.9953C42.2113 91.9644 42.9646 91.9964 43.7114 92.091C42.9648 92.1878 42.2113 92.2198 41.4592 92.1867C40.7071 92.2198 39.9536 92.1878 39.207 92.091Z" fill="#263238"/>
<path id="Vector_46" d="M32.4981 94.2988C32.4011 93.5671 32.3691 92.8282 32.4024 92.0908L32.4981 91.9951H33.3555L34.0584 92.0172C34.2763 92.0092 34.4943 92.0315 34.7061 92.0834C34.4947 92.1379 34.2765 92.1615 34.0584 92.1534L33.3555 92.1718H32.9433H32.4981L32.5937 92.0761C32.6256 92.8184 32.5936 93.562 32.4981 94.2988Z" fill="#263238"/>
<path id="Vector_47" d="M32.498 102.553C32.4012 101.869 32.3692 101.178 32.4023 100.489C32.3693 99.8001 32.4013 99.1101 32.498 98.4277C32.5925 99.1103 32.6245 99.8001 32.5937 100.489C32.6246 101.178 32.5925 101.869 32.498 102.553Z" fill="#263238"/>
<path id="Vector_48" d="M32.498 110.807C32.3705 109.435 32.3705 108.054 32.498 106.682C32.6256 108.054 32.6256 109.435 32.498 110.807Z" fill="#263238"/>
<path id="Vector_49" d="M32.498 119.062C32.3704 117.688 32.3704 116.306 32.498 114.933C32.6256 116.306 32.6256 117.688 32.498 119.062Z" fill="#263238"/>
<path id="Vector_50" d="M32.498 127.323C32.3704 125.95 32.3704 124.568 32.498 123.194C32.6256 124.568 32.6256 125.95 32.498 127.323Z" fill="#263238"/>
<path id="Vector_51" d="M32.498 135.566C32.3705 134.194 32.3705 132.813 32.498 131.441C32.6256 132.813 32.6256 134.194 32.498 135.566Z" fill="#263238"/>
<path id="Vector_52" d="M32.498 143.821C32.3705 142.448 32.3705 141.067 32.498 139.695C32.6256 141.067 32.6256 142.448 32.498 143.821Z" fill="#263238"/>
<path id="Vector_53" d="M32.498 152.075C32.3705 150.703 32.3705 149.322 32.498 147.95C32.6256 149.322 32.6256 150.703 32.498 152.075Z" fill="#263238"/>
<path id="Vector_54" d="M34.7059 158.412C33.974 158.506 33.2353 158.538 32.4979 158.508C32.3065 158.316 32.4427 158.452 32.4022 158.408L32.4022 157.97C32.4022 157.827 32.4022 157.691 32.4022 157.554C32.4022 157.312 32.4022 157.08 32.4022 156.852C32.3916 156.635 32.4152 156.417 32.4721 156.208C32.5242 156.418 32.5465 156.635 32.5384 156.852C32.5384 157.08 32.5384 157.312 32.5605 157.554C32.5605 157.691 32.5605 157.827 32.5605 157.97C32.5605 158.04 32.5605 158.114 32.5605 158.187L32.5605 158.408C32.5163 158.368 32.6561 158.508 32.4648 158.316C33.2132 158.281 33.9632 158.313 34.7059 158.412Z" fill="#263238"/>
<path id="Vector_55" d="M43.582 158.412C42.85 158.506 42.1114 158.538 41.374 158.507C40.6366 158.538 39.898 158.506 39.166 158.412C39.8978 158.316 40.6366 158.284 41.374 158.316C42.1114 158.284 42.8502 158.316 43.582 158.412Z" fill="#263238"/>
<path id="Vector_56" d="M52.458 158.412C51.726 158.506 50.9874 158.538 50.25 158.507C49.5126 158.538 48.774 158.506 48.042 158.412C48.7738 158.316 49.5126 158.284 50.25 158.316C50.9874 158.284 51.7262 158.316 52.458 158.412Z" fill="#263238"/>
<path id="Vector_57" d="M61.3346 158.412C59.858 158.539 58.3731 158.539 56.8965 158.412C58.3731 158.284 59.858 158.284 61.3346 158.412Z" fill="#263238"/>
<path id="Vector_58" d="M70.2105 158.412C68.7339 158.539 67.2491 158.539 65.7725 158.412C67.2491 158.284 68.7339 158.284 70.2105 158.412Z" fill="#263238"/>
<path id="Vector_59" d="M79.0865 158.412C77.6099 158.539 76.125 158.539 74.6484 158.412C76.125 158.284 77.6099 158.284 79.0865 158.412Z" fill="#263238"/>
<path id="Vector_60" d="M87.9635 158.412C86.4869 158.539 85.002 158.539 83.5254 158.412C85.002 158.284 86.4869 158.284 87.9635 158.412Z" fill="#263238"/>
<path id="Vector_61" d="M96.8248 158.412C95.3482 158.539 93.8633 158.539 92.3867 158.412C93.8633 158.284 95.3482 158.284 96.8248 158.412Z" fill="#263238"/>
<path id="Vector_62" d="M105.715 158.412C104.239 158.539 102.754 158.539 101.277 158.412C102.754 158.284 104.239 158.284 105.715 158.412Z" fill="#263238"/>
<path id="Vector_63" d="M114.591 158.412C113.115 158.539 111.63 158.539 110.153 158.412C111.63 158.284 113.115 158.284 114.591 158.412Z" fill="#263238"/>
<path id="Vector_64" d="M123.471 158.412C121.995 158.539 120.51 158.539 119.033 158.412C120.51 158.284 121.995 158.284 123.471 158.412Z" fill="#263238"/>
<path id="Vector_65" d="M130.117 158.412C129.387 158.539 128.64 158.539 127.909 158.412C128.64 158.284 129.387 158.284 130.117 158.412Z" fill="#263238"/>
<g id="Group_3" opacity="0.3">
<path id="Vector_66" d="M62.9685 130.355C62.9685 130.355 62.9906 134.035 61.8645 136.243C60.7385 138.451 60.3925 139.327 58.0373 140.181C55.6821 141.035 26.0508 144.292 26.0508 144.292L26.0508 134.293L62.9685 130.355Z" fill="black"/>
</g>
<g id="Group_4" opacity="0.3">
<path id="Vector_67" d="M62.4495 116.482C62.4495 116.482 62.7881 112.725 53.3636 111.33C42.5849 109.737 26.0801 107.779 26.0801 107.779L26.0801 114.885L62.4495 116.482Z" fill="black"/>
</g>
<path id="Vector_68" d="M57.7171 113.074H27.059C24.1507 113.074 21.793 115.432 21.793 118.34L21.793 132.067C21.793 134.975 24.1507 137.333 27.059 137.333H57.7171C60.6255 137.333 62.9832 134.975 62.9832 132.067L62.9832 118.34C62.9832 115.432 60.6255 113.074 57.7171 113.074Z" fill="#DDE2F0"/>
<path id="Vector_69" d="M27.059 137.329C27.059 137.329 26.9523 137.329 26.7462 137.329C26.4374 137.317 26.1305 137.275 25.8299 137.204C25.3381 137.093 24.8655 136.91 24.4278 136.659C23.8282 136.321 23.3017 135.867 22.8785 135.323C22.3425 134.642 21.9823 133.84 21.8297 132.987C21.7531 132.5 21.7235 132.007 21.7414 131.515C21.7414 131.007 21.7414 130.477 21.7414 129.929C21.7414 127.739 21.7414 125.248 21.7414 122.491C21.7414 121.111 21.7414 119.672 21.7414 118.164C21.7661 117.368 21.9687 116.589 22.3342 115.882C22.6998 115.175 23.219 114.559 23.8537 114.079C24.5209 113.566 25.3026 113.222 26.1316 113.078C26.5523 113.008 26.9787 112.979 27.4049 112.99H34.0289H57.7428C58.5417 112.988 59.3307 113.166 60.0517 113.509C60.7727 113.853 61.4073 114.355 61.9086 114.977C62.5725 115.791 62.9798 116.783 63.0788 117.829C63.1193 118.348 63.1046 118.852 63.1083 119.356C63.1083 120.364 63.1083 121.364 63.1083 122.355L63.1083 128.195C63.1083 129.148 63.1083 130.094 63.1083 131.025C63.1083 131.496 63.1267 131.953 63.1083 132.424C63.0948 132.657 63.0666 132.889 63.0236 133.119C62.9736 133.345 62.9121 133.569 62.8396 133.789C62.54 134.65 62.0255 135.421 61.3449 136.029C60.6642 136.636 59.8399 137.059 58.9499 137.259C58.7373 137.308 58.5224 137.346 58.3059 137.373C58.0888 137.392 57.8716 137.399 57.6545 137.406H53.9193H44.9033L31.8467 137.373L28.2955 137.355H27.3755H27.059C27.059 137.355 27.1657 137.355 27.3755 137.355H28.2955L31.8467 137.336L44.9033 137.307H53.9193H56.3886C57.2276 137.285 58.0851 137.377 58.9094 137.16C59.7628 136.956 60.5506 136.539 61.1992 135.948C61.8479 135.358 62.3363 134.612 62.6188 133.782C62.9353 132.931 62.8912 132.008 62.8912 131.073L62.8912 128.243C62.8912 126.337 62.8912 124.387 62.8912 122.403L62.8912 119.404C62.8912 118.9 62.8912 118.388 62.8654 117.895C62.7663 116.887 62.3734 115.93 61.7356 115.142C61.4146 114.753 61.0434 114.408 60.6316 114.116C60.2039 113.834 59.7396 113.612 59.2516 113.457C58.7576 113.313 58.2464 113.236 57.7318 113.229H34.0179H27.3939C26.9763 113.218 26.5586 113.246 26.1464 113.313C25.3435 113.452 24.5861 113.783 23.9384 114.278C23.321 114.743 22.8155 115.34 22.4589 116.026C22.1023 116.712 21.9037 117.468 21.8776 118.241C21.8592 119.739 21.8776 121.185 21.8776 122.565C21.8776 125.321 21.8776 127.813 21.8776 130.002C21.8776 130.551 21.8776 131.08 21.8776 131.588C21.859 132.074 21.8861 132.561 21.9585 133.042C22.1351 134.045 22.5991 134.975 23.2941 135.72C23.9892 136.465 24.8854 136.992 25.874 137.237C26.1721 137.312 26.4764 137.358 26.783 137.377L27.059 137.329Z" fill="#263238"/>
<path id="Vector_70" d="M50.5741 134.933C55.4438 134.933 59.3914 130.986 59.3914 126.116C59.3914 121.246 55.4438 117.299 50.5741 117.299C45.7045 117.299 41.7568 121.246 41.7568 126.116C41.7568 130.986 45.7045 134.933 50.5741 134.933Z" fill="#263238"/>
<path id="Vector_71" d="M52.834 133.318C53.5799 133.041 54.2873 132.67 54.9389 132.214C55.6322 131.705 56.2344 131.083 56.7201 130.374C57.3247 129.513 57.7248 128.526 57.89 127.487C58.0552 126.448 57.981 125.385 57.6732 124.379C57.4327 123.553 57.0517 122.775 56.5471 122.079C56.0715 121.443 55.5148 120.871 54.8911 120.379C54.8911 120.379 54.9463 120.401 55.0346 120.46C55.1708 120.545 55.3022 120.637 55.4284 120.736C55.8918 121.101 56.305 121.525 56.6575 121.998C57.1865 122.699 57.5876 123.487 57.8425 124.328C58.1698 125.357 58.2517 126.449 58.0817 127.516C57.9117 128.583 57.4946 129.596 56.8636 130.473C56.3629 131.19 55.7401 131.812 55.0236 132.313C54.5426 132.653 54.0177 132.927 53.4633 133.126C53.3143 133.184 53.1618 133.232 53.0069 133.27C52.953 133.297 52.8942 133.313 52.834 133.318Z" fill="#FAFAFA"/>
</g>
<g id="freepik--Money--inject-3">
<path id="Vector_72" d="M188.611 69.5986C188.91 72.8097 188.249 76.037 186.711 78.872C185.174 81.7069 182.83 84.0217 179.976 85.5234C177.122 87.025 173.887 87.6459 170.679 87.3073C167.472 86.9687 164.438 85.6859 161.961 83.6213C159.483 81.5568 157.674 78.8034 156.763 75.71C155.851 72.6166 155.879 69.3222 156.841 66.2443C157.803 63.1663 159.658 60.4432 162.169 58.4199C164.68 56.3966 167.735 55.1641 170.947 54.8786C175.241 54.492 179.513 55.825 182.824 58.5848C186.136 61.3446 188.217 65.3057 188.611 69.5986Z" fill="#A8C0F5"/>
<g id="Group_5" opacity="0.3">
<path id="Vector_73" d="M184.71 69.5471C184.637 69.5471 184.537 69.0209 184.254 68.0751C183.857 66.771 183.261 65.5359 182.487 64.4135C181.953 63.6474 181.336 62.9427 180.647 62.3122C179.86 61.5886 178.981 60.9701 178.035 60.4722C177.525 60.2036 176.996 59.9736 176.452 59.7841C175.887 59.5852 175.308 59.429 174.719 59.3167C174.112 59.2002 173.497 59.13 172.879 59.1069C172.24 59.0852 171.6 59.111 170.965 59.1842C170.332 59.2629 169.705 59.3859 169.089 59.5522C168.492 59.7238 167.909 59.9403 167.344 60.1999C166.275 60.691 165.283 61.3357 164.4 62.1135C163.599 62.8183 162.891 63.6235 162.295 64.5092C161.778 65.2862 161.349 66.118 161.015 66.9895C160.53 68.2625 160.247 69.6035 160.176 70.9639C160.12 71.9354 160.154 72.4801 160.076 72.4911C159.999 72.5021 159.867 71.9649 159.804 70.9639C159.734 69.5408 159.929 68.1171 160.378 66.765C161.047 64.7314 162.231 62.9057 163.815 61.4658C164.749 60.6102 165.806 59.8994 166.951 59.3572C167.556 59.0708 168.184 58.8333 168.827 58.6469C169.49 58.4573 170.167 58.3182 170.851 58.2311C171.537 58.1531 172.227 58.126 172.916 58.1501C173.586 58.18 174.253 58.2612 174.91 58.393C176.151 58.6458 177.346 59.0824 178.458 59.6884C180.339 60.7109 181.925 62.2015 183.062 64.0161C183.822 65.2215 184.351 66.558 184.622 67.9573C184.776 68.9951 184.776 69.5471 184.71 69.5471Z" fill="black"/>
</g>
<g id="Group_6" opacity="0.3">
<path id="Vector_74" d="M174.444 78.298L174.669 80.4471L172.748 80.6495L172.531 78.5556C170.617 78.6365 168.733 78.2318 167.592 77.5178L168.402 75.0633C169.583 75.7178 170.915 76.0539 172.266 76.0385L171.931 72.8332C169.749 72.5351 167.294 72.0751 167.007 69.3261C166.793 67.2911 168.092 65.3922 171.088 64.7298L170.867 62.5991L172.788 62.4004L173.005 64.4906C174.386 64.4258 175.763 64.6881 177.024 65.2561L176.314 67.707C175.356 67.2773 174.323 67.0421 173.274 67.0151L173.612 70.2793C175.795 70.5553 178.212 71.0153 178.492 73.7311C178.702 75.7404 177.418 77.6209 174.444 78.298ZM171.644 70.0106L171.357 67.2838C170.367 67.6186 170.021 68.2185 170.087 68.8514C170.153 69.4844 170.768 69.8303 171.644 70.0106ZM175.427 74.2941C175.357 73.6207 174.761 73.3153 173.907 73.1129L174.183 75.7625C175.121 75.4534 175.489 74.9087 175.427 74.2941Z" fill="black"/>
</g>
<path id="Vector_75" d="M160.025 72.1856C160.037 72.2177 160.046 72.251 160.051 72.285C160.051 72.3623 160.08 72.458 160.102 72.5757C160.124 72.6935 160.147 72.8664 160.176 73.0468C160.206 73.2626 160.249 73.4765 160.305 73.6871C160.834 75.9808 161.997 78.0798 163.661 79.7444L164.242 80.2743C164.342 80.3589 164.434 80.4546 164.54 80.5392L164.868 80.7821C165.089 80.944 165.306 81.1244 165.541 81.2752L166.277 81.7205C167.331 82.3157 168.465 82.7558 169.645 83.0269C172.197 83.6108 174.87 83.3646 177.273 82.324C178.384 81.8424 179.419 81.2028 180.346 80.4252L180.986 79.8548C181.192 79.6634 181.354 79.4463 181.557 79.2476C181.649 79.1482 181.744 79.0488 181.833 78.9495C181.921 78.8501 181.998 78.736 182.083 78.633C182.241 78.4196 182.399 78.2135 182.558 78.0074C183.094 77.2173 183.542 76.3708 183.894 75.4829C184.402 74.1905 184.692 72.8225 184.751 71.4349C184.765 71.218 184.765 71.0004 184.751 70.7836C184.751 70.5996 184.751 70.4376 184.751 70.3052C184.751 70.1727 184.751 70.088 184.751 70.0108C184.748 69.9765 184.748 69.942 184.751 69.9077C184.755 69.9407 184.755 69.9741 184.751 70.0071C184.751 70.0844 184.751 70.1837 184.773 70.3015C184.795 70.4192 184.773 70.5959 184.799 70.7836C184.816 71.0016 184.816 71.2206 184.799 71.4386C184.768 72.8378 184.496 74.2211 183.993 75.5271C183.65 76.4342 183.203 77.2986 182.661 78.1031L182.201 78.7471C182.116 78.8538 182.039 78.9679 181.951 79.0709L181.671 79.3764C181.483 79.5788 181.303 79.7959 181.093 79.9909L180.449 80.576C179.51 81.3682 178.462 82.0202 177.336 82.5117C174.902 83.5693 172.194 83.8195 169.608 83.2256C168.41 82.948 167.26 82.4967 166.193 81.8861L165.457 81.4335C165.218 81.2789 165 81.0949 164.776 80.933L164.448 80.6828C164.342 80.5981 164.246 80.4988 164.143 80.4104L163.547 79.8511C162.871 79.1596 162.274 78.3942 161.769 77.5695C161.037 76.3761 160.517 75.0651 160.231 73.6944C160.179 73.4828 160.142 73.2675 160.121 73.0504C160.099 72.8664 160.08 72.7045 160.062 72.572C160.043 72.4396 160.04 72.3549 160.029 72.2776C160.025 72.2471 160.023 72.2164 160.025 72.1856Z" fill="#263238"/>
<path id="Vector_76" d="M165.641 117.626C164.831 119.315 163.538 120.726 161.926 121.68C160.313 122.633 158.454 123.087 156.584 122.984C154.714 122.88 152.916 122.224 151.419 121.099C149.922 119.973 148.792 118.429 148.173 116.661C147.554 114.893 147.474 112.981 147.942 111.167C148.41 109.353 149.406 107.719 150.804 106.472C152.201 105.225 153.938 104.42 155.793 104.16C157.648 103.9 159.538 104.196 161.225 105.011C162.343 105.55 163.344 106.303 164.172 107.228C164.999 108.153 165.636 109.233 166.046 110.404C166.456 111.576 166.631 112.816 166.562 114.055C166.492 115.295 166.179 116.508 165.641 117.626Z" fill="#EBEBEB"/>
<g id="Group_7" opacity="0.3">
<path id="Vector_77" d="M163.724 116.445C163.762 116.15 163.831 115.86 163.93 115.58C164.12 114.812 164.191 114.019 164.14 113.229C164.1 112.687 164.002 112.152 163.849 111.632C163.668 111.038 163.412 110.471 163.087 109.942C162.912 109.658 162.716 109.386 162.502 109.129C161.804 108.294 160.922 107.632 159.926 107.193C159.586 107.045 159.236 106.922 158.877 106.825C158.528 106.734 158.173 106.669 157.814 106.63C157.468 106.591 157.12 106.579 156.772 106.594C156.438 106.607 156.104 106.645 155.775 106.708C155.165 106.819 154.573 107.009 154.012 107.274C153.523 107.509 153.06 107.795 152.632 108.128C152.012 108.621 151.472 109.207 151.032 109.865C150.888 110.127 150.719 110.373 150.527 110.601C150.572 110.3 150.681 110.013 150.848 109.758C151.236 109.02 151.76 108.362 152.393 107.819C152.827 107.441 153.305 107.118 153.817 106.855C154.407 106.553 155.034 106.331 155.683 106.196C156.409 106.046 157.153 106.006 157.891 106.078C158.279 106.117 158.662 106.186 159.039 106.284C159.426 106.389 159.805 106.522 160.173 106.682C160.539 106.846 160.892 107.038 161.229 107.256C161.554 107.469 161.861 107.708 162.149 107.97C162.429 108.221 162.687 108.496 162.922 108.791C163.148 109.069 163.352 109.364 163.532 109.674C163.871 110.25 164.13 110.868 164.302 111.514C164.448 112.069 164.528 112.64 164.541 113.214C164.562 114.042 164.428 114.867 164.147 115.646C164.063 115.939 163.918 116.211 163.724 116.445Z" fill="black"/>
</g>
<g id="Group_8" opacity="0.3">
<path id="Vector_78" d="M155.995 117.755L155.469 118.892L154.45 118.421L154.965 117.317C154.075 116.868 153.328 116.178 152.809 115.326L153.946 114.344C154.34 115.023 154.905 115.589 155.583 115.985L156.375 114.285C155.37 113.486 154.284 112.522 154.961 111.068C155.462 109.99 156.673 109.427 158.365 109.99L158.892 108.86L159.907 109.335L159.392 110.439C160.101 110.817 160.71 111.358 161.17 112.018L160.066 113.033C159.716 112.534 159.271 112.109 158.755 111.782L157.953 113.512C158.958 114.299 160.025 115.253 159.359 116.688C158.884 117.755 157.685 118.296 155.995 117.755ZM157.066 112.783L157.74 111.341C157.144 111.212 156.79 111.407 156.636 111.742C156.481 112.077 156.687 112.426 157.066 112.776L157.066 112.783ZM157.681 116.051C157.843 115.683 157.64 115.363 157.272 115.006L156.621 116.412C157.177 116.529 157.545 116.368 157.681 116.044L157.681 116.051Z" fill="black"/>
</g>
<path id="Vector_79" d="M150.623 110.395C150.623 110.395 150.512 110.693 150.332 111.234C150.088 112 149.974 112.801 149.993 113.604C150.008 114.156 150.083 114.706 150.218 115.242C150.378 115.861 150.614 116.458 150.921 117.019C151.27 117.626 151.703 118.18 152.209 118.664C153.301 119.712 154.7 120.383 156.202 120.578C156.895 120.668 157.598 120.658 158.288 120.548C159.465 120.36 160.575 119.88 161.519 119.153C162.157 118.664 162.71 118.074 163.157 117.405C163.462 116.927 163.606 116.64 163.624 116.651C163.602 116.724 163.571 116.795 163.532 116.861C163.439 117.06 163.334 117.254 163.219 117.442C162.79 118.137 162.244 118.753 161.604 119.26C160.653 120.026 159.521 120.533 158.318 120.732C157.61 120.851 156.888 120.865 156.176 120.773C155.412 120.666 154.668 120.446 153.968 120.121C153.277 119.781 152.64 119.34 152.08 118.811C151.564 118.313 151.122 117.743 150.77 117.118C150.449 116.551 150.202 115.945 150.034 115.315C149.904 114.766 149.836 114.205 149.831 113.641C149.822 112.825 149.958 112.014 150.233 111.245C150.304 111.037 150.391 110.834 150.49 110.638C150.524 110.552 150.569 110.47 150.623 110.395Z" fill="#263238"/>
</g>
<g id="freepik--Floor--inject-3">
<path id="Vector_80" d="M203.716 164.933C203.716 164.988 148.77 165.032 81.0065 165.032C13.243 165.032 -41.7178 164.988 -41.7178 164.933C-41.7178 164.877 13.2173 164.837 81.0065 164.837C148.796 164.837 203.716 164.881 203.716 164.933Z" fill="#263238"/>
</g>
<g id="freepik--Character--inject-3">
<path id="Vector_81" d="M146.502 95.8003C146.502 95.8003 146.477 93.3531 146.37 93.3311L141.35 94.4535C141.295 94.7699 140.662 98.7885 140.769 99.1786L146.432 100.75C146.432 100.75 146.502 95.9439 146.502 95.8003Z" fill="#FFBE9D"/>
<path id="Vector_82" d="M146.504 100.378C146.52 100.344 146.528 100.306 146.526 100.268C146.585 99.7197 146.552 97.324 146.258 97.2247C145.963 97.1253 145.113 97.2946 145.058 97.6111C145.003 97.9276 145.194 100.621 145.194 100.621C145.194 100.621 145.249 101.045 145.963 101.148C146.412 101.195 146.504 100.378 146.504 100.378Z" fill="#FFBE9D"/>
<path id="Vector_83" d="M145.076 101.239C145.092 101.205 145.1 101.167 145.098 101.129C145.157 100.58 145.124 98.1847 144.83 98.0817C144.535 97.9786 143.685 98.1553 143.63 98.4717C143.575 98.7882 143.766 101.482 143.766 101.482C143.766 101.482 143.821 101.905 144.535 102.008C144.977 102.071 145.076 101.239 145.076 101.239Z" fill="#FFBE9D"/>
<path id="Vector_84" d="M143.67 101.666C143.67 101.666 143.689 101.622 143.696 101.556C143.755 101.007 143.718 98.6118 143.427 98.5124C143.137 98.413 142.279 98.586 142.224 98.9025C142.169 99.219 142.36 101.909 142.36 101.909C142.36 101.909 142.415 102.336 143.129 102.439C143.56 102.502 143.67 101.666 143.67 101.666Z" fill="#FFBE9D"/>
<path id="Vector_85" d="M142.273 102.071C142.273 102.071 142.273 102.027 142.299 101.961C142.357 101.412 142.321 99.0166 142.03 98.9172C141.739 98.8179 140.885 98.9908 140.827 99.3036C140.768 99.6164 140.963 102.314 140.963 102.314C140.963 102.314 141.022 102.737 141.735 102.84C142.177 102.906 142.273 102.071 142.273 102.071Z" fill="#FFBE9D"/>
<path id="Vector_86" d="M145.053 98.3096C145.139 98.6923 145.176 99.0842 145.164 99.4761C145.202 99.86 145.19 100.247 145.127 100.628C145.042 100.245 145.005 99.8534 145.017 99.4614C144.979 99.0775 144.991 98.6903 145.053 98.3096Z" fill="#EB996E"/>
<path id="Vector_87" d="M143.641 98.3027C143.738 98.8493 143.784 99.4037 143.777 99.9587C143.824 100.513 143.818 101.069 143.759 101.622C143.667 101.075 143.622 100.521 143.627 99.9661C143.582 99.4123 143.587 98.8557 143.641 98.3027Z" fill="#EB996E"/>
<g id="Group_9" opacity="0.78">
<path id="Vector_88" d="M142.208 98.4204C142.3 98.9675 142.345 99.5216 142.34 100.076C142.389 100.63 142.389 101.186 142.34 101.74C142.246 101.193 142.2 100.639 142.204 100.084C142.157 99.5303 142.159 98.9737 142.208 98.4204Z" fill="#EB996E"/>
</g>
<path id="Vector_89" d="M141.308 94.5713C141.308 94.5713 139.317 99.0977 139.608 99.3811C139.99 99.6606 140.401 99.8987 140.834 100.091L141.308 94.5713Z" fill="#FFBE9D"/>
<path id="Vector_90" d="M130.312 33.8806L128.84 50.8086L120.376 50.1315C120.321 49.1415 120.395 45.3107 120.395 45.3107C120.395 45.3107 116.865 44.7623 116.821 41.2369C116.803 39.5257 117.046 35.9855 117.303 32.795C117.441 31.0948 118.238 29.516 119.525 28.3964C120.812 27.2767 122.486 26.7051 124.189 26.8039C125.06 26.8548 125.911 27.0797 126.694 27.4654C127.476 27.8511 128.174 28.3897 128.745 29.0494C129.315 29.7091 129.748 30.4765 130.017 31.3063C130.287 32.1361 130.387 33.0114 130.312 33.8806Z" fill="#FFBE9D"/>
<path id="Vector_91" d="M120.376 45.2593C122.004 45.2892 123.604 44.8331 124.972 43.9492C124.972 43.9492 123.868 46.4884 120.368 46.1572L120.376 45.2593Z" fill="#EB996E"/>
<path id="Vector_92" d="M118.223 35.2678C118.223 35.3988 118.273 35.5247 118.364 35.6193C118.454 35.714 118.578 35.77 118.708 35.7757C118.772 35.7812 118.837 35.7738 118.898 35.7538C118.959 35.7339 119.016 35.7018 119.064 35.6596C119.112 35.6173 119.152 35.5657 119.18 35.5079C119.208 35.4501 119.224 35.3872 119.227 35.323C119.23 35.1915 119.181 35.0641 119.091 34.9684C119.001 34.8727 118.877 34.8163 118.745 34.8115C118.681 34.8065 118.616 34.8144 118.555 34.8347C118.493 34.8551 118.437 34.8874 118.388 34.9299C118.339 34.9724 118.3 35.0242 118.271 35.0822C118.243 35.1402 118.226 35.2033 118.223 35.2678Z" fill="#263238"/>
<path id="Vector_93" d="M118.039 34.5871C118.101 34.6533 118.484 34.3699 119.025 34.3736C119.566 34.3773 119.963 34.6459 120.022 34.5797C120.081 34.5135 119.989 34.4325 119.816 34.3037C119.58 34.1422 119.3 34.0562 119.014 34.0571C118.733 34.059 118.459 34.1477 118.23 34.3111C118.065 34.4251 118.009 34.5429 118.039 34.5871Z" fill="#263238"/>
<path id="Vector_94" d="M123.559 35.2678C123.559 35.4006 123.611 35.5282 123.703 35.6231C123.796 35.718 123.923 35.7728 124.055 35.7757C124.119 35.7797 124.182 35.7711 124.242 35.7504C124.301 35.7298 124.357 35.6975 124.404 35.6554C124.451 35.6133 124.489 35.5622 124.517 35.5052C124.544 35.4481 124.56 35.3862 124.563 35.323C124.566 35.1915 124.517 35.0641 124.427 34.9684C124.337 34.8727 124.213 34.8163 124.081 34.8115C124.017 34.8065 123.952 34.8144 123.891 34.8347C123.829 34.8551 123.773 34.8874 123.724 34.9299C123.675 34.9724 123.636 35.0242 123.607 35.0822C123.579 35.1402 123.562 35.2033 123.559 35.2678Z" fill="#263238"/>
<path id="Vector_95" d="M123.364 34.6755C123.427 34.7417 123.809 34.4584 124.35 34.4584C124.891 34.4584 125.292 34.7307 125.351 34.6645C125.41 34.5982 125.315 34.5173 125.142 34.3921C124.907 34.2298 124.628 34.1437 124.343 34.1456C124.061 34.1427 123.786 34.2318 123.559 34.3995C123.394 34.5283 123.32 34.6461 123.364 34.6755Z" fill="#263238"/>
<path id="Vector_96" d="M121.399 38.6939C121.113 38.6056 120.818 38.5525 120.519 38.5356C120.379 38.5356 120.25 38.4915 120.225 38.3995C120.213 38.256 120.245 38.1123 120.317 37.9873L120.729 36.9348C121.296 35.4334 121.708 34.2006 121.645 34.1785C121.583 34.1564 121.075 35.3524 120.508 36.8539C120.372 37.2219 120.239 37.5899 120.114 37.9137C120.029 38.0817 120.004 38.2742 120.044 38.4584C120.066 38.5064 120.097 38.5494 120.137 38.5843C120.176 38.6192 120.222 38.6453 120.273 38.6608C120.35 38.6796 120.429 38.6906 120.508 38.6939C120.804 38.7311 121.103 38.7311 121.399 38.6939Z" fill="#263238"/>
<path id="Vector_97" d="M122.992 39.0694C122.903 39.0694 122.903 39.6508 122.399 40.0704C121.895 40.4899 121.269 40.4384 121.266 40.5046C121.262 40.5708 121.406 40.6187 121.67 40.626C122.015 40.6297 122.349 40.5125 122.616 40.2948C122.874 40.0869 123.04 39.7853 123.076 39.4558C123.098 39.2092 123.032 39.0657 122.992 39.0694Z" fill="#263238"/>
<path id="Vector_98" d="M123.223 32.5522C123.279 32.6994 123.819 32.6295 124.456 32.7068C125.093 32.7841 125.604 32.957 125.689 32.8245C125.726 32.7583 125.637 32.6221 125.431 32.4786C125.155 32.3039 124.842 32.1946 124.517 32.1589C124.192 32.1231 123.862 32.162 123.555 32.2725C123.319 32.3793 123.201 32.4823 123.223 32.5522Z" fill="#263238"/>
<path id="Vector_99" d="M118.238 33.0048C118.333 33.1299 118.705 33.0048 119.154 33.0048C119.603 33.0048 119.986 33.0895 120.074 32.9607C120.111 32.8981 120.052 32.773 119.886 32.6589C119.664 32.5207 119.406 32.4512 119.144 32.4591C118.882 32.4669 118.628 32.5518 118.414 32.7031C118.249 32.8171 118.197 32.9459 118.238 33.0048Z" fill="#263238"/>
<path id="Vector_100" d="M131.048 31.7019C130.845 33.4131 130.378 35.5806 130.242 37.3323C130.244 37.4955 130.201 37.6561 130.117 37.796C129.866 38.1272 129.267 38.8485 128.961 38.5614C128.225 37.8696 127.931 35.9339 127.78 34.9293C127.629 33.9246 127.658 32.9016 127.522 31.8933L127.522 31.8234C127.422 31.1176 127.055 30.4772 126.496 30.0349C126.368 29.9446 126.23 29.8716 126.083 29.8178C125.046 29.4498 123.32 30.1269 122.286 30.5022C121.756 30.6973 121.237 30.9365 120.722 31.172C120.142 31.4452 119.5 31.5608 118.861 31.5072C118.222 31.4535 117.609 31.2326 117.082 30.8666C116.453 30.4102 116.398 28.9714 116.674 28.0624C117.41 25.6078 120.505 24.7504 124.468 25.6998C128.431 26.6493 131.453 28.1765 131.048 31.7019Z" fill="#263238"/>
<path id="Vector_101" d="M129.105 35.4774C129.164 35.4517 131.526 34.7414 131.449 37.1702C131.372 39.599 128.969 39.0102 128.965 38.9403C128.961 38.8704 129.105 35.4774 129.105 35.4774Z" fill="#FFBE9D"/>
<path id="Vector_102" d="M129.734 38.05C129.734 38.05 129.774 38.0794 129.844 38.1162C129.945 38.1569 130.057 38.1569 130.157 38.1162C130.316 38.0227 130.447 37.8885 130.537 37.7275C130.627 37.5664 130.673 37.3843 130.669 37.1999C130.681 36.9926 130.647 36.7853 130.569 36.5927C130.55 36.5166 130.511 36.4466 130.458 36.3889C130.405 36.3311 130.338 36.2874 130.264 36.2615C130.216 36.2474 130.165 36.2503 130.12 36.2698C130.074 36.2893 130.036 36.3241 130.014 36.3682C129.977 36.4344 129.992 36.4823 129.977 36.486C129.962 36.4896 129.929 36.4455 129.951 36.3461C129.966 36.2868 130.001 36.2347 130.05 36.1989C130.119 36.1511 130.203 36.1314 130.286 36.1437C130.385 36.1669 130.476 36.2149 130.55 36.2831C130.625 36.3514 130.681 36.4377 130.713 36.5338C130.807 36.7452 130.849 36.9762 130.834 37.2072C130.838 37.4219 130.779 37.633 130.665 37.8147C130.55 37.9964 130.386 38.1409 130.19 38.2303C130.127 38.2461 130.061 38.2473 129.997 38.2339C129.934 38.2205 129.874 38.1929 129.822 38.153C129.734 38.1088 129.723 38.0536 129.734 38.05Z" fill="#EB996E"/>
<path id="Vector_103" d="M131.011 31.8638C130.482 32.1551 129.89 32.3131 129.287 32.324C128.684 32.3349 128.087 32.1984 127.548 31.9263C128.12 32.044 128.701 32.1129 129.285 32.1324C129.867 32.0907 130.444 32.0009 131.011 31.8638Z" fill="#407BFF"/>
<path id="Vector_104" d="M130.926 32.5557C130.437 32.8753 129.861 33.0359 129.277 33.0157C128.693 33.0568 128.11 32.9181 127.606 32.6182C128.156 32.7307 128.713 32.7984 129.273 32.8206C129.831 32.7789 130.383 32.6903 130.926 32.5557Z" fill="#407BFF"/>
<path id="Vector_105" d="M114.15 152.66L115.717 159.876C115.717 159.876 108.909 163.891 109.071 165.253L123.166 162.717L121.186 151.375L114.15 152.66Z" fill="#263238"/>
<path id="Vector_106" d="M123.165 162.717L122.923 161.58L109.498 164.436C109.498 164.436 108.92 164.804 109.071 165.253L123.165 162.717Z" fill="#407BFF"/>
<path id="Vector_107" d="M130.183 153.451L130.415 160.83C130.415 160.83 122.993 163.545 122.904 164.911L137.227 164.973L137.337 153.462L130.183 153.451Z" fill="#263238"/>
<g id="Group_10" opacity="0.6">
<path id="Vector_108" d="M137.226 164.977L137.193 163.818L123.474 164.186C123.474 164.186 122.834 164.458 122.904 164.922L137.226 164.977Z" fill="#407BFF"/>
</g>
<path id="Vector_109" d="M113.383 158.85C113.383 158.85 106.023 122.834 106.023 122.112L119.146 115.179L124.225 157.444L113.383 158.85Z" fill="#263238"/>
<path id="Vector_110" d="M129.892 160.075L119.754 97.6365L119.754 84.1714L133.605 85.4594C133.782 85.9819 138.316 160.138 138.316 160.138L136.888 160.057H129.896" fill="#263238"/>
<path id="Vector_111" d="M111.778 83.2183L106.03 122.112L118.885 118.995L124.121 84.4842L111.778 83.2183Z" fill="#263238"/>
<path id="Vector_112" d="M123.688 86.5156C123.688 86.5156 123.688 86.5819 123.688 86.707C123.688 86.8321 123.721 87.0271 123.746 87.2663C123.805 87.7631 123.886 88.4844 123.993 89.4081C124.21 91.2702 124.541 93.9603 124.976 97.2833C125.833 103.926 127.132 113.107 128.53 123.216C129.23 128.28 129.87 133.108 130.415 137.502C130.558 138.606 130.668 139.677 130.823 140.715C130.978 141.752 131.136 142.761 131.287 143.732C131.581 145.679 131.857 147.493 132.107 149.149C132.604 152.461 132.998 155.144 133.256 156.999C133.384 157.926 133.48 158.647 133.535 159.137C133.565 159.383 133.583 159.567 133.59 159.696C133.594 159.743 133.594 159.789 133.59 159.836C133.59 159.876 133.568 159.836 133.568 159.836C133.568 159.836 133.598 159.836 133.594 159.836C133.601 159.788 133.601 159.74 133.594 159.692C133.594 159.567 133.594 159.38 133.557 159.133C133.513 158.644 133.428 157.919 133.311 156.991C133.072 155.133 132.7 152.447 132.207 149.131C131.96 147.475 131.692 145.661 131.404 143.71C131.257 142.739 131.106 141.73 130.952 140.693C130.797 139.655 130.691 138.58 130.551 137.484C130.013 133.086 129.377 128.258 128.681 123.19C127.283 113.067 125.962 103.907 125.071 97.2649L124.056 89.4191C123.938 88.4955 123.842 87.7779 123.78 87.2811L123.702 86.7254C123.688 86.5819 123.688 86.5156 123.688 86.5156Z" fill="#407BFF"/>
<path id="Vector_113" d="M115.96 158.515C115.96 158.515 115.96 158.452 115.934 158.331C115.908 158.209 115.882 158.022 115.846 157.79C115.765 157.311 115.647 156.612 115.478 155.718L114.142 148.104L109.674 122.999C109.542 122.401 109.506 121.786 109.568 121.177C109.641 120.578 109.744 119.967 109.833 119.371C110.017 118.171 110.199 116.991 110.381 115.83C110.749 113.512 111.117 111.275 111.459 109.148C112.169 104.893 112.85 101.052 113.461 97.861C114.072 94.6705 114.609 92.0724 115.018 90.2949C115.209 89.4007 115.386 88.7162 115.492 88.2452C115.548 88.017 115.588 87.8404 115.618 87.7153C115.647 87.5901 115.651 87.5312 115.651 87.5312C115.651 87.5312 115.651 87.5901 115.599 87.7116C115.548 87.833 115.518 88.0096 115.459 88.2378C115.338 88.7052 115.154 89.3897 114.951 90.2765C114.521 92.054 113.965 94.6337 113.34 97.8389C112.714 101.044 112.015 104.864 111.301 109.122C110.933 111.249 110.565 113.486 110.197 115.805C110.015 116.965 109.833 118.145 109.649 119.345C109.557 119.945 109.457 120.541 109.38 121.159C109.319 121.785 109.356 122.417 109.49 123.032C111.253 132.828 112.85 141.697 114.009 148.126C114.594 151.331 115.069 153.929 115.4 155.729C115.566 156.623 115.695 157.319 115.787 157.797C115.831 158.025 115.864 158.206 115.89 158.334C115.916 158.463 115.96 158.515 115.96 158.515Z" fill="#407BFF"/>
<path id="Vector_114" d="M119.754 97.1948C119.703 97.1948 120.302 101.243 121.09 106.2C121.877 111.157 122.562 115.186 122.602 115.179C122.643 115.172 122.05 111.131 121.263 106.174C120.475 101.217 119.802 97.1875 119.754 97.1948Z" fill="#407BFF"/>
<path id="Vector_115" d="M129.771 159.943C129.879 159.979 129.992 159.999 130.106 160.002C130.32 160.027 130.633 160.057 131.015 160.086C131.788 160.149 132.855 160.204 134.033 160.222C135.211 160.241 136.281 160.222 137.054 160.186C137.422 160.186 137.75 160.149 137.967 160.13C138.08 160.129 138.192 160.114 138.302 160.086C137.886 160.051 137.468 160.043 137.051 160.06C136.278 160.06 135.211 160.06 134.037 160.06C132.863 160.06 131.795 160.005 131.023 159.976C130.607 159.939 130.189 159.928 129.771 159.943Z" fill="#407BFF"/>
<path id="Vector_116" d="M113.384 158.85C113.528 158.857 113.672 158.85 113.814 158.828L114.977 158.703C115.963 158.592 117.318 158.423 118.815 158.231C120.313 158.04 121.667 157.863 122.646 157.709L123.806 157.532C123.949 157.515 124.091 157.486 124.229 157.444C124.086 157.43 123.941 157.43 123.798 157.444C123.522 157.47 123.121 157.51 122.632 157.565C121.649 157.676 120.291 157.841 118.793 158.036C117.296 158.231 115.941 158.404 114.963 158.563L113.803 158.739C113.66 158.761 113.519 158.798 113.384 158.85Z" fill="#407BFF"/>
<path id="Vector_117" d="M94.0786 60.2292L102.344 66.5183C102.344 66.5183 110.035 53.3955 110.716 52.5785C111.397 51.7615 113.123 50.8931 113.123 50.8931L112.173 67.707C112.173 67.707 108.011 78.3275 102.3 77.7497C97.9279 77.3081 90.3691 65.7713 90.3691 65.7713L94.0786 60.2292Z" fill="#407BFF"/>
<g id="Group_11" opacity="0.2">
<path id="Vector_118" d="M102.193 66.3198C101.623 67.2072 101.253 68.208 101.108 69.2527C100.964 70.2975 101.049 71.3611 101.357 72.3697C101.401 72.5821 101.52 72.7715 101.692 72.9033C101.84 72.9663 102.006 72.973 102.158 72.9222C102.311 72.8713 102.44 72.7665 102.52 72.6273C102.669 72.34 102.742 72.0197 102.734 71.6963C102.87 72.0076 103.08 72.2815 103.345 72.4949C103.48 72.5976 103.646 72.6504 103.816 72.6444C103.986 72.6383 104.148 72.5738 104.276 72.4617C104.548 72.16 104.397 71.6816 104.231 71.3062C103.53 69.7116 102.826 68.1169 102.119 66.5222" fill="black"/>
</g>
<path id="Vector_119" d="M96.1573 62.1134C96.2088 62.1465 95.3624 63.567 94.2621 65.2855C93.1618 67.0041 92.2344 68.3694 92.1829 68.3363C92.1314 68.3031 92.9778 66.8643 94.0744 65.1641C95.1711 63.4639 96.1058 62.0803 96.1573 62.1134Z" fill="#263238"/>
<path id="Vector_120" d="M94.0522 61.8816C94.0302 61.8816 94.1369 61.7528 94.3246 61.8264C94.3793 61.8485 94.428 61.8834 94.4664 61.9283C94.5049 61.9731 94.5319 62.0265 94.5454 62.084C94.562 62.1623 94.5527 62.2439 94.5188 62.3164C94.4849 62.3889 94.4283 62.4483 94.3576 62.4858C94.2869 62.5232 94.2059 62.5366 94.1269 62.5239C94.0479 62.5111 93.9751 62.473 93.9198 62.4152C93.8793 62.3713 93.8501 62.3182 93.8347 62.2605C93.8193 62.2028 93.8182 62.1423 93.8314 62.084C93.8793 61.889 94.0302 61.8632 94.0339 61.8927C94.0375 61.9221 93.9823 61.9847 93.9897 62.1024C93.997 62.2202 94.0927 62.3453 94.2436 62.268C94.2714 62.2539 94.2948 62.2323 94.3112 62.2056C94.3275 62.179 94.3361 62.1484 94.3361 62.1171C94.3361 62.0859 94.3275 62.0553 94.3112 62.0286C94.2948 62.002 94.2714 61.9804 94.2436 61.9663C94.159 61.8927 94.067 61.9111 94.0522 61.8816Z" fill="#263238"/>
<path id="Vector_121" d="M102.343 70.5038C102.074 69.8783 101.948 69.2006 101.975 68.5202C101.957 67.3905 102.237 66.5073 102.292 66.5257C102.347 66.5441 102.178 67.4199 102.2 68.5166C102.222 69.6132 102.421 70.4854 102.343 70.5038Z" fill="#263238"/>
<path id="Vector_122" d="M103.959 70.4448C103.907 70.4779 103.366 69.6794 102.899 68.5864C102.583 67.942 102.372 67.2513 102.273 66.5403C102.336 66.5219 102.641 67.4235 103.105 68.4981C103.569 69.5726 104.014 70.4117 103.959 70.4448Z" fill="#263238"/>
<path id="Vector_123" d="M130.43 49.3069L129.179 46.834H120.137L118.713 49.6418L113.127 50.9077L110.72 86.9313C110.705 87.3878 110.816 87.8397 111.04 88.2377L133.006 89.0509L133.9 89.4189C134.688 88.9332 134.198 86.9239 134.206 85.9818L134.489 68.1412L138.835 53.8849L130.43 49.3069Z" fill="#407BFF"/>
<g id="Group_12" opacity="0.2">
<path id="Vector_124" d="M121.057 50.5435L122.654 48.9427C123.252 50.3902 123.851 51.834 124.45 53.2741C126.518 52.0599 128.487 50.6829 130.338 49.1561L124.255 51.1102C123.739 49.7437 123.225 48.3797 122.713 47.0181C122.35 48.258 121.836 49.4483 121.182 50.5619" fill="black"/>
</g>
<path id="Vector_125" d="M146.545 94.4641L140.624 94.7695L140.624 77.7789L134.5 68.1557L138.846 53.8994C139.74 54.2674 146.486 71.1954 148.204 75.7881C148.452 76.4508 148.561 77.1571 148.524 77.8636L146.545 94.4641Z" fill="#407BFF"/>
<path id="Vector_126" d="M113.126 58.3267C113.189 58.3267 112.894 61.819 112.471 66.1062C112.048 70.3934 111.654 73.8747 111.591 73.8673C111.529 73.8599 111.823 70.3787 112.25 66.0841C112.677 61.7895 113.067 58.323 113.126 58.3267Z" fill="#263238"/>
<path id="Vector_127" d="M122.701 47.0291C122.41 48.0186 122.05 48.9864 121.623 49.9253L121.502 50.216C121.464 50.3319 121.397 50.436 121.307 50.5177C121.25 50.5584 121.183 50.5821 121.113 50.586C121.043 50.5899 120.974 50.5739 120.913 50.5398C120.827 50.4928 120.743 50.4412 120.663 50.3853L119.849 49.8333C119.588 49.679 119.347 49.4923 119.132 49.2776C119.416 49.385 119.685 49.5272 119.934 49.7008L120.773 50.2086C120.935 50.3117 121.097 50.4294 121.171 50.3448C121.278 50.1903 121.361 50.0203 121.417 49.8406C122.068 48.2619 122.643 47.007 122.701 47.0291Z" fill="#263238"/>
<path id="Vector_128" d="M129.892 49.2369C129.447 49.4561 128.986 49.6419 128.512 49.7926C127.648 50.1091 126.452 50.5286 125.127 50.985L124.391 51.2315L124.291 51.2646L124.255 51.169C123.787 50.0392 123.383 49.0419 123.107 48.3206C122.938 47.9422 122.8 47.5509 122.694 47.1504C122.908 47.5018 123.09 47.8712 123.239 48.2544C123.555 48.9573 123.975 49.9472 124.457 51.0733L124.321 51.0107L125.057 50.7605C126.385 50.3078 127.589 49.9104 128.465 49.6307C128.929 49.4614 129.407 49.3297 129.892 49.2369Z" fill="#263238"/>
<path id="Vector_129" d="M137.903 54.4077C137.903 54.474 136.648 54.8199 135.172 55.4786C133.697 56.1373 132.596 56.8476 132.545 56.7924C132.748 56.5829 132.981 56.4054 133.237 56.2661C134.417 55.5151 135.701 54.9433 137.049 54.5696C137.324 54.474 137.612 54.4194 137.903 54.4077Z" fill="#263238"/>
<path id="Vector_130" d="M122.701 47.0293C122.706 47.0647 122.706 47.1006 122.701 47.136C122.701 47.2207 122.701 47.3237 122.701 47.4525C122.701 47.7322 122.727 48.1407 122.731 48.6706C122.731 49.7267 122.731 51.2466 122.661 53.1455C122.528 56.9248 122.054 62.132 121.303 67.8471C120.935 70.7101 120.53 73.4259 120.258 75.9063C119.996 78.1043 119.873 80.3167 119.89 82.5303C119.915 84.0197 120.038 85.506 120.258 86.9794C120.324 87.5056 120.409 87.9067 120.449 88.1791C120.468 88.3079 120.482 88.4109 120.493 88.4955C120.498 88.5309 120.498 88.5669 120.493 88.6023C120.478 88.5696 120.467 88.5349 120.46 88.4992C120.442 88.4146 120.42 88.3152 120.39 88.1901C120.339 87.9178 120.24 87.5167 120.162 86.9941C119.912 85.5198 119.77 84.029 119.739 82.5339C119.696 80.3215 119.799 78.1087 120.048 75.9099C120.309 73.4223 120.711 70.7027 121.075 67.8471C121.811 62.132 122.326 56.9359 122.499 53.1639C122.595 51.2797 122.624 49.7525 122.639 48.6963C122.639 48.1811 122.639 47.7763 122.639 47.4783C122.639 47.3531 122.639 47.2464 122.639 47.1618C122.652 47.1142 122.673 47.0693 122.701 47.0293Z" fill="#263238"/>
<path id="Vector_131" d="M146.872 91.8626C146.872 91.9252 145.466 91.9068 143.733 91.8221C141.999 91.7375 140.605 91.6197 140.608 91.5572C140.612 91.4946 142.014 91.513 143.744 91.5977C144.791 91.6132 145.837 91.7017 146.872 91.8626Z" fill="#263238"/>
<path id="Vector_132" d="M141.613 92.5247C141.613 92.5505 141.613 92.6094 141.613 92.6866C141.613 92.7639 141.709 92.8118 141.786 92.7492C141.864 92.6866 141.838 92.6167 141.764 92.5652C141.691 92.5137 141.632 92.5358 141.61 92.5137C141.588 92.4916 141.65 92.3922 141.808 92.4143C141.856 92.4211 141.902 92.4402 141.94 92.4699C141.978 92.4997 142.007 92.5388 142.026 92.5836C142.048 92.6431 142.051 92.7085 142.033 92.7697C142.015 92.8308 141.978 92.8844 141.926 92.9222C141.877 92.9677 141.814 92.9951 141.747 92.9998C141.68 93.0045 141.613 92.9862 141.558 92.9479C141.519 92.9203 141.487 92.8832 141.466 92.8401C141.445 92.797 141.435 92.7493 141.437 92.7014C141.485 92.5394 141.602 92.499 141.613 92.5247Z" fill="#263238"/>
<g id="Group_13" opacity="0.2">
<path id="Vector_133" d="M134.573 68.108L132.645 64.623C131.877 70.7737 132.309 77.015 133.918 83.001L134.514 68.1853" fill="black"/>
</g>
<path id="Vector_134" d="M124.792 61.7051C124.913 61.6861 125.036 61.6787 125.16 61.683L126.186 61.6572C127.08 61.6388 128.372 61.6167 129.925 61.6094H130.028L130.028 61.7124C129.929 63.074 129.815 64.6564 129.69 66.3271L129.69 66.3897L129.634 66.4191L129.403 66.5406L126.904 67.8543L126.841 67.8875L126.786 67.8433L124.424 65.9444L124.387 65.915L124.387 65.8671C124.497 64.6196 124.585 63.5782 124.652 62.8091C124.685 62.4779 124.714 62.2019 124.736 61.9811C124.74 61.8879 124.754 61.7954 124.777 61.7051C124.785 61.8104 124.785 61.9162 124.777 62.0215C124.777 62.246 124.755 62.5294 124.74 62.8716C124.7 63.6076 124.641 64.6527 124.571 65.8782L124.538 65.8009L126.882 67.674H126.764L129.259 66.3529L129.487 66.2315L129.428 66.3198C129.564 64.6417 129.69 63.0703 129.796 61.7087L129.896 61.8155C128.383 61.8155 127.117 61.786 126.216 61.7676L125.163 61.7419C125.039 61.7366 124.915 61.7243 124.792 61.7051Z" fill="#263238"/>
<path id="Vector_135" d="M113.917 88.4033C113.917 88.4622 113.454 88.3812 113.156 87.936C112.857 87.4907 112.949 87.0344 113.008 87.0564C113.067 87.0785 113.086 87.4244 113.343 87.7924C113.601 88.1604 113.936 88.3408 113.917 88.4033Z" fill="#263238"/>
<path id="Vector_136" d="M114.487 88.1641C114.185 87.8938 113.97 87.5391 113.87 87.1456C113.77 86.7522 113.791 86.3379 113.928 85.9561C113.994 85.9561 113.928 86.486 114.086 87.0932C114.245 87.7004 114.539 88.1236 114.487 88.1641Z" fill="#263238"/>
<path id="Vector_137" d="M131.069 85.6875C131.125 85.6875 131.176 86.5523 130.724 87.5018C130.271 88.4512 129.575 88.9738 129.546 88.9223C129.517 88.8707 130.105 88.3077 130.521 87.4061C130.937 86.5045 131 85.6802 131.069 85.6875Z" fill="#263238"/>
<path id="Vector_138" d="M93.6147 60.9175C93.6147 60.9175 86.9244 55.8501 85.9897 55.5116C84.4331 54.9485 84.0577 55.0994 84.0577 55.0994L87.7377 59.0517C87.7377 59.0517 83.859 60.3581 83.5793 60.5237C83.2996 60.6893 83.1635 61.5321 84.1055 61.5321C84.882 61.5321 88.6025 61.6204 88.6025 61.6204L91.6679 63.8578L93.6147 60.9175Z" fill="#FFBE9D"/>
</g>
</g>
<defs>
<clipPath id="clip0_4915_13919">
<rect width="212" height="180" fill="white" transform="translate(0 -0.00244141)"/>
</clipPath>
</defs>
</svg>
