<svg width="184" height="27" viewBox="0 0 184 27" fill="none" xmlns="http://www.w3.org/2000/svg">
<g id="60e4a1e7380756458de7fb94_logo-company-1-crypto-template.svg" clip-path="url(#clip0_1205_4544)">
<path id="Vector" d="M64.4806 20.7079C63.0132 20.7079 61.7196 20.3959 60.5997 19.7719C59.4799 19.1479 58.5917 18.2779 57.9352 17.1623C57.2981 16.0466 56.9795 14.7701 56.9795 13.333C56.9795 11.8958 57.2981 10.6193 57.9352 9.50365C58.5917 8.38796 59.4799 7.51809 60.5997 6.89405C61.7196 6.27003 63.0132 5.95801 64.4806 5.95801C66.315 5.95801 67.8596 6.43076 69.1146 7.37626C70.3697 8.30286 71.1709 9.58875 71.5185 11.2339H67.6086C67.4155 10.5531 67.0294 10.0236 66.4501 9.64548C65.8902 9.24836 65.2241 9.04981 64.4517 9.04981C63.4284 9.04981 62.5595 9.42801 61.8451 10.1844C61.1308 10.9408 60.7736 11.9903 60.7736 13.333C60.7736 14.6756 61.1308 15.7251 61.8451 16.4815C62.5595 17.2379 63.4284 17.6161 64.4517 17.6161C65.2241 17.6161 65.8902 17.427 66.4501 17.0488C67.0294 16.6706 67.4155 16.1317 67.6086 15.432H71.5185C71.1709 17.0204 70.3697 18.2968 69.1146 19.2613C67.8596 20.2257 66.315 20.7079 64.4806 20.7079Z" fill="#979797"/>
<path id="Vector_2" d="M81.123 20.7079C79.7329 20.7079 78.4778 20.3959 77.3579 19.7719C76.2574 19.1479 75.3788 18.2874 74.7224 17.1906C74.0852 16.0749 73.7666 14.789 73.7666 13.333C73.7666 11.8769 74.0949 10.6004 74.7513 9.50365C75.4078 8.38796 76.2863 7.51809 77.3869 6.89405C78.5067 6.27003 79.7618 5.95801 81.152 5.95801C82.5229 5.95801 83.7585 6.27003 84.8591 6.89405C85.979 7.51809 86.8575 8.38796 87.4947 9.50365C88.1512 10.6004 88.4795 11.8769 88.4795 13.333C88.4795 14.789 88.1512 16.0749 87.4947 17.1906C86.8575 18.2874 85.979 19.1479 84.8591 19.7719C83.7393 20.3959 82.4939 20.7079 81.123 20.7079ZM81.123 17.5593C82.0884 17.5593 82.9283 17.2095 83.6427 16.5098C84.3571 15.7913 84.7143 14.7323 84.7143 13.333C84.7143 11.9336 84.3571 10.8841 83.6427 10.1844C82.9283 9.46583 82.098 9.10654 81.152 9.10654C80.1672 9.10654 79.3177 9.46583 78.6033 10.1844C77.9082 10.8841 77.5607 11.9336 77.5607 13.333C77.5607 14.7323 77.9082 15.7913 78.6033 16.5098C79.3177 17.2095 80.1576 17.5593 81.123 17.5593Z" fill="#979797"/>
<path id="Vector_3" d="M91.2139 20.3675V6.29838H94.4862L94.8048 8.19886C95.2689 7.51809 95.8768 6.97915 96.6302 6.58204C97.4019 6.16602 98.2907 5.95801 99.294 5.95801C101.515 5.95801 103.088 6.7995 104.015 8.48251C104.537 7.70719 105.231 7.09261 106.1 6.63877C106.989 6.18492 107.954 5.95801 108.997 5.95801C110.87 5.95801 112.308 6.5064 113.312 7.60319C114.316 8.69998 114.818 10.3073 114.818 12.4252V20.3675H111.111V12.7657C111.111 11.5554 110.87 10.6288 110.387 9.9859C109.924 9.34292 109.2 9.02144 108.215 9.02144C107.211 9.02144 106.4 9.38074 105.782 10.0993C105.183 10.8179 104.885 11.8202 104.885 13.106V20.3675H101.177V12.7657C101.177 11.5554 100.935 10.6288 100.453 9.9859C99.9705 9.34292 99.2272 9.02144 98.223 9.02144C97.238 9.02144 96.437 9.38074 95.8191 10.0993C95.2204 10.8179 94.9211 11.8202 94.9211 13.106V20.3675H91.2139Z" fill="#979797"/>
<path id="Vector_4" d="M117.759 26.6079V6.29838H121.061L121.466 8.31232C121.929 7.68828 122.538 7.13989 123.291 6.66714C124.063 6.19438 125.057 5.95801 126.274 5.95801C127.625 5.95801 128.833 6.27948 129.895 6.92242C130.956 7.56536 131.796 8.44468 132.414 9.56039C133.032 10.6761 133.341 11.9431 133.341 13.3613C133.341 14.7796 133.032 16.0466 132.414 17.1623C131.796 18.259 130.956 19.1289 129.895 19.7719C128.833 20.3959 127.625 20.7079 126.274 20.7079C125.193 20.7079 124.246 20.5094 123.435 20.1123C122.625 19.7151 121.968 19.1573 121.466 18.4387V26.6079H117.759ZM125.492 17.531C126.67 17.531 127.645 17.1433 128.417 16.368C129.19 15.5928 129.576 14.5905 129.576 13.3613C129.576 12.1322 129.19 11.1205 128.417 10.3262C127.645 9.53202 126.67 9.1349 125.492 9.1349C124.295 9.1349 123.31 9.53202 122.538 10.3262C121.785 11.1016 121.409 12.1038 121.409 13.333C121.409 14.5621 121.785 15.5738 122.538 16.368C123.31 17.1433 124.295 17.531 125.492 17.531Z" fill="#979797"/>
<path id="Vector_5" d="M141.025 20.7079C139.789 20.7079 138.775 20.5188 137.984 20.1406C137.192 19.7435 136.603 19.2234 136.217 18.5805C135.831 17.9376 135.638 17.2284 135.638 16.4531C135.638 15.1483 136.159 14.0893 137.201 13.2762C138.244 12.4631 139.808 12.0565 141.894 12.0565H145.543V11.7162C145.543 10.7517 145.262 10.0426 144.703 9.58875C144.143 9.1349 143.448 8.90799 142.618 8.90799C141.864 8.90799 141.208 9.08763 140.648 9.44692C140.088 9.78731 139.741 10.2979 139.605 10.9787H135.986C136.082 9.95748 136.43 9.06872 137.028 8.31232C137.646 7.55591 138.437 6.97915 139.403 6.58204C140.369 6.16602 141.45 5.95801 142.646 5.95801C144.693 5.95801 146.305 6.45913 147.483 7.46136C148.661 8.46359 149.25 9.8819 149.25 11.7162V20.3675H146.093L145.746 18.0983C145.321 18.8547 144.722 19.4788 143.95 19.9704C143.197 20.4621 142.221 20.7079 141.025 20.7079ZM141.864 17.8713C142.926 17.8713 143.747 17.531 144.326 16.8503C144.925 16.1695 145.302 15.328 145.456 14.3257H142.299C141.314 14.3257 140.609 14.5054 140.185 14.8647C139.76 15.2051 139.547 15.6305 139.547 16.1411C139.547 16.6895 139.76 17.115 140.185 17.4175C140.609 17.7201 141.17 17.8713 141.864 17.8713Z" fill="#979797"/>
<path id="Vector_6" d="M152.21 20.3675V6.29838H155.483L155.772 8.68106C156.216 7.84901 156.853 7.18716 157.683 6.6955C158.533 6.20383 159.528 5.95801 160.667 5.95801C162.443 5.95801 163.824 6.5064 164.808 7.60319C165.793 8.69998 166.286 10.3073 166.286 12.4252V20.3675H162.578V12.7657C162.578 11.5554 162.327 10.6288 161.825 9.9859C161.323 9.34292 160.541 9.02144 159.479 9.02144C158.437 9.02144 157.577 9.38074 156.902 10.0993C156.245 10.8179 155.917 11.8202 155.917 13.106V20.3675H152.21Z" fill="#979797"/>
<path id="Vector_7" d="M170.565 26.6078L173.895 19.4314H173.026L167.437 6.29834H171.463L175.488 16.1978L179.688 6.29834H183.627L174.504 26.6078H170.565Z" fill="#979797"/>
<path id="Vector_8" d="M14.7261 24.1621C13.7575 25.1108 12.1867 25.1094 11.2198 24.1592L1.96377 15.0628C0.999186 14.1149 1.00053 12.581 1.96678 11.6347L11.2228 2.5695C12.189 1.62317 13.7552 1.62185 14.7231 2.56656L24.0109 11.6317C24.9811 12.5788 24.9825 14.1171 24.0139 15.0658L14.7261 24.1621Z" fill="#8F8F8F"/>
<path id="Vector_9" d="M27.5207 24.1586C26.5538 25.1089 24.9829 25.1102 24.0143 24.1616L14.7265 15.0653C13.7579 14.1166 13.7593 12.5782 14.7296 11.6312L24.0174 2.56607C24.9852 1.62136 26.5514 1.62268 27.5177 2.56901L36.7737 11.6342C37.7399 12.5805 37.7413 14.1144 36.7767 15.0623L27.5207 24.1586Z" fill="#979797"/>
<path id="Vector_10" d="M37.0047 24.1603C36.037 25.1096 34.4664 25.1096 33.4986 24.1603L24.2251 15.0637C23.2584 14.1154 23.2597 12.579 24.2282 11.6323L33.5017 2.56692C34.4687 1.62157 36.0347 1.62157 37.0018 2.56692L46.2752 11.6323C47.2436 12.579 47.245 14.1154 46.2782 15.0637L37.0047 24.1603Z" fill="#8F8F8F"/>
</g>
<defs>
<clipPath id="clip0_1205_4544">
<rect width="184" height="26" fill="white" transform="translate(0.217773 0.78125)"/>
</clipPath>
</defs>
</svg>
