<svg width="178" height="30" viewBox="0 0 178 30" fill="none" xmlns="http://www.w3.org/2000/svg">
<g id="60e4a1e73807560ecae7fb97_logo-company-3-crypto-template.svg" clip-path="url(#clip0_1205_4571)">
<path id="Vector" d="M22.9356 12.7751C19.1752 12.7751 16.1227 9.73424 16.1227 5.99702C16.1227 5.50955 16.1808 5.0453 16.2736 4.58105H7.2207C3.7156 4.58105 0.87207 7.41298 0.87207 10.8949V22.5592C0.87207 26.0527 3.7156 28.873 7.2207 28.873H18.9431C22.4598 28.873 25.2917 26.0411 25.2917 22.5592V12.3457C24.5721 12.6126 23.7713 12.7751 22.9356 12.7751Z" fill="#8F8F8F"/>
<path id="Vector_2" d="M25.3015 22.5592V12.3457C24.5703 12.6126 23.7694 12.7751 22.9454 12.7751C19.1849 12.7751 16.1325 9.73424 16.1325 5.99702C16.1325 5.50955 16.1905 5.0453 16.2834 4.58105H7.23046C3.74858 4.58105 0.928261 7.36656 0.881836 10.8253C9.23835 14.2723 17.827 18.4622 25.255 23.36C25.2782 23.0931 25.3015 22.8261 25.3015 22.5592Z" fill="#8F8F8F"/>
<path id="Vector_3" d="M23.4571 10.4336C26.1846 10.4336 28.3898 8.24007 28.3898 5.5242C28.3898 2.81994 26.1846 0.614746 23.4571 0.614746C20.7296 0.614746 18.5244 2.80833 18.5244 5.5242C18.5244 8.22846 20.7296 10.4336 23.4571 10.4336Z" fill="#979797"/>
<path id="Vector_4" d="M53.3417 16.6791C53.1476 17.5041 52.82 18.3049 52.3589 19.0815C51.8979 19.8338 51.3276 20.5132 50.6481 21.1199C49.9686 21.7023 49.1921 22.1755 48.3185 22.5395C47.4449 22.8793 46.5106 23.0491 45.5157 23.0491C44.3751 23.0491 43.2952 22.8307 42.276 22.3939C41.2811 21.9328 40.3953 21.314 39.6188 20.5375C38.8665 19.761 38.2599 18.8631 37.7988 17.8439C37.362 16.8004 37.1436 15.6841 37.1436 14.495C37.1436 13.306 37.362 12.2018 37.7988 11.1826C38.2599 10.1391 38.8665 9.22908 39.6188 8.45254C40.3953 7.676 41.2811 7.06933 42.276 6.63252C43.2952 6.17145 44.3751 5.94092 45.5157 5.94092C46.5106 5.94092 47.4449 6.12292 48.3185 6.48692C49.1921 6.82666 49.9686 7.29986 50.6481 7.90654C51.3276 8.48894 51.8979 9.16842 52.3589 9.94496C52.82 10.6973 53.1476 11.4859 53.3417 12.311H49.1557C48.9616 11.8742 48.6946 11.4859 48.3549 11.1462C48.0637 10.855 47.6876 10.5881 47.2265 10.3454C46.7654 10.0784 46.1951 9.94496 45.5157 9.94496C44.3266 9.94496 43.3316 10.3575 42.5308 11.1826C41.73 12.0077 41.3296 13.1118 41.3296 14.495C41.3296 15.8782 41.73 16.9824 42.5308 17.8075C43.3316 18.6325 44.3266 19.0451 45.5157 19.0451C46.1951 19.0451 46.7654 18.9237 47.2265 18.6811C47.6876 18.4384 48.0637 18.1715 48.3549 17.8803C48.6946 17.5405 48.9616 17.1401 49.1557 16.6791H53.3417Z" fill="#979797"/>
<path id="Vector_5" d="M60.2573 14.495C60.2573 15.8782 60.6577 16.9824 61.4585 17.8075C62.2593 18.6325 63.2543 19.0451 64.4434 19.0451C65.6324 19.0451 66.6274 18.6325 67.4282 17.8075C68.229 16.9824 68.6294 15.8782 68.6294 14.495C68.6294 13.1118 68.229 12.0077 67.4282 11.1826C66.6274 10.3575 65.6324 9.94496 64.4434 9.94496C63.2543 9.94496 62.2593 10.3575 61.4585 11.1826C60.6577 12.0077 60.2573 13.1118 60.2573 14.495ZM72.8154 14.495C72.8154 15.6841 72.5849 16.8004 72.1238 17.8439C71.687 18.8631 71.0804 19.761 70.3038 20.5375C69.5515 21.314 68.6658 21.9328 67.6466 22.3939C66.6516 22.8307 65.5839 23.0491 64.4434 23.0491C63.3028 23.0491 62.2229 22.8307 61.2037 22.3939C60.2088 21.9328 59.323 21.314 58.5465 20.5375C57.7942 19.761 57.1875 18.8631 56.7265 17.8439C56.2897 16.8004 56.0713 15.6841 56.0713 14.495C56.0713 13.306 56.2897 12.2018 56.7265 11.1826C57.1875 10.1391 57.7942 9.22908 58.5465 8.45254C59.323 7.676 60.2088 7.06933 61.2037 6.63252C62.2229 6.17145 63.3028 5.94092 64.4434 5.94092C65.5839 5.94092 66.6516 6.17145 67.6466 6.63252C68.6658 7.06933 69.5515 7.676 70.3038 8.45254C71.0804 9.22908 71.687 10.1391 72.1238 11.1826C72.5849 12.2018 72.8154 13.306 72.8154 14.495Z" fill="#979797"/>
<path id="Vector_6" d="M84.4462 5.94092C85.2955 5.94092 86.0235 6.06225 86.6302 6.30492C87.2369 6.52332 87.7344 6.76599 88.1226 7.03293C88.5594 7.3484 88.9113 7.7124 89.1782 8.12494C89.5665 7.7124 90.0154 7.3484 90.5251 7.03293C90.9619 6.76599 91.4836 6.52332 92.0903 6.30492C92.6969 6.06225 93.3643 5.94092 94.0923 5.94092C95.9123 5.94092 97.3683 6.52332 98.4603 7.68813C99.5523 8.85295 100.098 10.5759 100.098 12.857V22.8671H95.9123V13.221C95.9123 12.2018 95.6332 11.401 95.0751 10.8186C94.5412 10.2362 93.9103 9.94496 93.1823 9.94496C92.4543 9.94496 91.8112 10.2362 91.2531 10.8186C90.7192 11.401 90.4523 12.2018 90.4523 13.221V22.8671H86.2662V13.221C86.2662 12.2018 85.9871 11.401 85.429 10.8186C84.8951 10.2362 84.2642 9.94496 83.5362 9.94496C82.8082 9.94496 82.1651 10.2362 81.607 10.8186C81.0731 11.401 80.8062 12.2018 80.8062 13.221V22.8671H76.6201V6.12292H79.7141L80.4422 7.76093C80.7819 7.4212 81.158 7.11786 81.5706 6.85092C81.9103 6.63252 82.3228 6.42625 82.8082 6.23212C83.2935 6.03798 83.8395 5.94092 84.4462 5.94092Z" fill="#979797"/>
<path id="Vector_7" d="M113.203 5.94092C114.247 5.94092 115.242 6.15932 116.188 6.59612C117.134 7.00866 117.959 7.6032 118.663 8.37974C119.391 9.13202 119.962 10.0299 120.374 11.0734C120.811 12.1169 121.029 13.2574 121.029 14.495C121.029 15.7326 120.811 16.8732 120.374 17.9167C119.962 18.9601 119.391 19.8702 118.663 20.6467C117.959 21.399 117.134 21.9935 116.188 22.4303C115.242 22.8429 114.247 23.0491 113.203 23.0491C112.499 23.0491 111.881 22.9642 111.347 22.7943C110.837 22.6245 110.388 22.4424 110 22.2483C109.563 22.0056 109.175 21.7266 108.835 21.4111V28.6912H104.649V6.12292H107.743L108.471 7.76093C108.835 7.4212 109.26 7.11786 109.745 6.85092C110.158 6.63252 110.655 6.42625 111.238 6.23212C111.82 6.03798 112.475 5.94092 113.203 5.94092ZM108.471 14.495C108.471 15.8782 108.872 16.9824 109.672 17.8075C110.473 18.6325 111.468 19.0451 112.657 19.0451C113.846 19.0451 114.841 18.6325 115.642 17.8075C116.443 16.9824 116.843 15.8782 116.843 14.495C116.843 13.1118 116.443 12.0077 115.642 11.1826C114.841 10.3575 113.846 9.94496 112.657 9.94496C111.468 9.94496 110.473 10.3575 109.672 11.1826C108.872 12.0077 108.471 13.1118 108.471 14.495Z" fill="#979797"/>
<path id="Vector_8" d="M131.774 5.94092C132.72 5.94092 133.594 6.11078 134.395 6.45052C135.196 6.76599 135.887 7.21493 136.47 7.79733C137.052 8.37974 137.501 9.07135 137.817 9.87216C138.156 10.673 138.326 11.5466 138.326 12.493V22.8671H135.232L134.504 21.2291C134.116 21.5688 133.691 21.8722 133.23 22.1391C132.818 22.3818 132.32 22.6002 131.738 22.7943C131.155 22.9642 130.5 23.0491 129.772 23.0491C127.952 23.0491 126.557 22.6123 125.586 21.7387C124.615 20.8408 124.13 19.7003 124.13 18.3171C124.13 17.492 124.288 16.7397 124.603 16.0602C124.943 15.3565 125.501 14.762 126.278 14.2766C127.054 13.767 128.073 13.3788 129.335 13.1118C130.621 12.8206 132.223 12.675 134.14 12.675C134.14 11.7529 133.885 11.037 133.376 10.5274C132.89 10.0178 132.235 9.76296 131.41 9.76296C130.852 9.76296 130.403 9.86002 130.063 10.0542C129.748 10.2483 129.493 10.4546 129.299 10.673C129.08 10.9399 128.935 11.2433 128.862 11.583H124.676C124.773 10.8065 124.991 10.0784 125.331 9.39895C125.695 8.71948 126.181 8.12494 126.787 7.61533C127.394 7.10573 128.11 6.70532 128.935 6.41412C129.784 6.09865 130.731 5.94092 131.774 5.94092ZM130.5 19.7731C131.592 19.7731 132.466 19.4576 133.121 18.8267C133.8 18.1715 134.14 17.3343 134.14 16.3151V15.587C132.902 15.587 131.908 15.6477 131.155 15.769C130.403 15.8661 129.808 16.0238 129.372 16.2423C128.959 16.4364 128.68 16.6791 128.534 16.9703C128.389 17.2615 128.316 17.5891 128.316 17.9531C128.316 18.4141 128.522 18.8388 128.935 19.2271C129.347 19.5911 129.869 19.7731 130.5 19.7731Z" fill="#979797"/>
<path id="Vector_9" d="M151.414 5.94092C152.409 5.94092 153.319 6.11078 154.144 6.45052C154.969 6.76599 155.673 7.2392 156.255 7.87014C156.862 8.47681 157.323 9.21695 157.638 10.0906C157.978 10.9642 158.148 11.947 158.148 13.039V22.8671H153.962V13.585C153.962 12.493 153.634 11.6194 152.979 10.9642C152.348 10.2847 151.523 9.94496 150.504 9.94496C149.485 9.94496 148.648 10.2847 147.992 10.9642C147.361 11.6194 147.046 12.493 147.046 13.585V22.8671H142.86V6.12292H145.954L146.682 7.76093C147.095 7.4212 147.543 7.11786 148.029 6.85092C148.441 6.63252 148.927 6.42625 149.485 6.23212C150.067 6.03798 150.71 5.94092 151.414 5.94092Z" fill="#979797"/>
<path id="Vector_10" d="M160.894 6.12256H165.262L169.448 17.0427L173.27 6.12256H177.639C176.449 9.18019 175.37 11.9466 174.399 14.4218C173.986 15.4896 173.574 16.5331 173.161 17.5523C172.773 18.5715 172.421 19.5058 172.106 20.3551C171.79 21.1802 171.523 21.8718 171.305 22.4299C171.086 22.9881 170.953 23.3157 170.904 23.4127C170.492 24.4077 170.079 25.2449 169.667 25.9243C169.279 26.6281 168.854 27.1984 168.393 27.6352C167.932 28.072 167.434 28.3874 166.9 28.5816C166.367 28.7757 165.76 28.8728 165.08 28.8728C164.886 28.8728 164.692 28.8606 164.498 28.8364C164.328 28.8364 164.183 28.8242 164.061 28.8C163.891 28.7757 163.746 28.7393 163.624 28.6908V25.2327C164.547 25.2327 165.25 25.0265 165.736 24.6139C166.245 24.2014 166.633 23.6797 166.9 23.0487L167.264 22.1387L160.894 6.12256Z" fill="#979797"/>
</g>
<defs>
<clipPath id="clip0_1205_4571">
<rect width="177" height="29" fill="white" transform="translate(0.825195 0.53125)"/>
</clipPath>
</defs>
</svg>
