<svg width="64" height="64" viewBox="0 0 64 64" fill="none" xmlns="http://www.w3.org/2000/svg">
<g id="Group 32" filter="url(#filter0_d_3173_696)">
<g id="Ellipse 1879" filter="url(#filter1_i_3173_696)">
<path d="M52 24C52 35.0457 43.0457 44 32 44C20.9543 44 12 35.0457 12 24C12 12.9543 20.9543 4 32 4C43.0457 4 52 12.9543 52 24Z" fill="#1877F2"/>
</g>
<g id="Facebook">
<g id="Subtract" filter="url(#filter2_bii_3173_696)">
<path fill-rule="evenodd" clip-rule="evenodd" d="M24 12C35.0468 12 44 20.9532 44 32C44 41.9844 36.6875 50.2578 27.125 51.7578L27.125 37.7812L31.7852 37.7813L31.7852 37.7812L32.6719 32H32.6718H27.125L27.125 28.25C27.125 26.8658 27.7172 25.5114 29.5295 25.1944C29.7885 25.1491 30.0723 25.125 30.3828 25.125C30.3828 25.125 30.3829 25.125 30.3829 25.125L32.9063 25.125L32.9063 25.125L32.9063 20.2031C32.9063 20.2031 32.9063 20.2031 32.9063 20.2031C32.9063 20.2031 30.6172 19.8125 28.4297 19.8125C27.2681 19.8125 26.209 19.9914 25.2753 20.3405C22.5352 21.3651 20.875 23.8558 20.875 27.5938L20.875 32H15.7969H15.7968L15.7968 37.7813L15.7969 37.7812L20.875 37.7813L20.875 51.7578C11.3125 50.2578 4 41.9844 4 32C4 20.9532 12.9532 12 24 12Z" fill="white" fill-opacity="0.4"/>
</g>
</g>
</g>
<defs>
<filter id="filter0_d_3173_696" x="0" y="0" width="64" height="63.7578" filterUnits="userSpaceOnUse" color-interpolation-filters="sRGB">
<feFlood flood-opacity="0" result="BackgroundImageFix"/>
<feColorMatrix in="SourceAlpha" type="matrix" values="0 0 0 0 0 0 0 0 0 0 0 0 0 0 0 0 0 0 127 0" result="hardAlpha"/>
<feOffset dx="4" dy="4"/>
<feGaussianBlur stdDeviation="4"/>
<feColorMatrix type="matrix" values="0 0 0 0 0.0941176 0 0 0 0 0.466667 0 0 0 0 0.94902 0 0 0 0.4 0"/>
<feBlend mode="normal" in2="BackgroundImageFix" result="effect1_dropShadow_3173_696"/>
<feBlend mode="normal" in="SourceGraphic" in2="effect1_dropShadow_3173_696" result="shape"/>
</filter>
<filter id="filter1_i_3173_696" x="12" y="4" width="40" height="40" filterUnits="userSpaceOnUse" color-interpolation-filters="sRGB">
<feFlood flood-opacity="0" result="BackgroundImageFix"/>
<feBlend mode="normal" in="SourceGraphic" in2="BackgroundImageFix" result="shape"/>
<feColorMatrix in="SourceAlpha" type="matrix" values="0 0 0 0 0 0 0 0 0 0 0 0 0 0 0 0 0 0 127 0" result="hardAlpha"/>
<feOffset/>
<feGaussianBlur stdDeviation="4"/>
<feComposite in2="hardAlpha" operator="arithmetic" k2="-1" k3="1"/>
<feColorMatrix type="matrix" values="0 0 0 0 1 0 0 0 0 1 0 0 0 0 1 0 0 0 0.8 0"/>
<feBlend mode="normal" in2="shape" result="effect1_innerShadow_3173_696"/>
</filter>
<filter id="filter2_bii_3173_696" x="0" y="8" width="48" height="47.7578" filterUnits="userSpaceOnUse" color-interpolation-filters="sRGB">
<feFlood flood-opacity="0" result="BackgroundImageFix"/>
<feGaussianBlur in="BackgroundImageFix" stdDeviation="2"/>
<feComposite in2="SourceAlpha" operator="in" result="effect1_backgroundBlur_3173_696"/>
<feBlend mode="normal" in="SourceGraphic" in2="effect1_backgroundBlur_3173_696" result="shape"/>
<feColorMatrix in="SourceAlpha" type="matrix" values="0 0 0 0 0 0 0 0 0 0 0 0 0 0 0 0 0 0 127 0" result="hardAlpha"/>
<feOffset/>
<feGaussianBlur stdDeviation="2"/>
<feComposite in2="hardAlpha" operator="arithmetic" k2="-1" k3="1"/>
<feColorMatrix type="matrix" values="0 0 0 0 1 0 0 0 0 1 0 0 0 0 1 0 0 0 1 0"/>
<feBlend mode="normal" in2="shape" result="effect2_innerShadow_3173_696"/>
<feColorMatrix in="SourceAlpha" type="matrix" values="0 0 0 0 0 0 0 0 0 0 0 0 0 0 0 0 0 0 127 0" result="hardAlpha"/>
<feOffset dy="4"/>
<feGaussianBlur stdDeviation="4"/>
<feComposite in2="hardAlpha" operator="arithmetic" k2="-1" k3="1"/>
<feColorMatrix type="matrix" values="0 0 0 0 1 0 0 0 0 1 0 0 0 0 1 0 0 0 1 0"/>
<feBlend mode="normal" in2="effect2_innerShadow_3173_696" result="effect3_innerShadow_3173_696"/>
</filter>
</defs>
</svg>
