<?xml version="1.0" encoding="UTF-8"?>
<svg xmlns:xodm="http://www.corel.com/coreldraw/odm/2003" xmlns="http://www.w3.org/2000/svg" xmlns:xlink="http://www.w3.org/1999/xlink" version="1.1" id="Layer_1" x="0px" y="0px" viewBox="0 0 2500 1100" style="enable-background:new 0 0 2500 1100;" xml:space="preserve">
<style type="text/css">
	.st0{fill:url(#SVGID_1_);}
	.st1{fill:url(#SVGID_00000119802283998012467440000016949838922085894532_);}
	.st2{fill:url(#SVGID_00000144313798781364519570000000879506447348115854_);}
	.st3{fill:url(#SVGID_00000170972521923171694060000010411614198096399524_);}
</style>
<g id="Layer_x0020_1">
	<g id="_2680436083568">
		
			<linearGradient id="SVGID_1_" gradientUnits="userSpaceOnUse" x1="716.4114" y1="-408.542" x2="107.4113" y2="2015.4579" gradientTransform="matrix(0.9645 0 0 -0.9645 33.7901 1069.4341)">
			<stop offset="0" style="stop-color:#44BCF0"></stop>
			<stop offset="0.3804" style="stop-color:#7298F8"></stop>
			<stop offset="1" style="stop-color:#A099FF"></stop>
		</linearGradient>
		<path class="st0" d="M129.2,259.7c10.6-19.3,25.1-35.7,43.4-47.3L477.4,0.2L164.9,514.3c0,0-27-46.3-37.6-69.4    c-13.5-28.9-20.3-60.8-19.3-92.6C108,320.4,115.7,288.6,129.2,259.7z M3.9,614.6c3.9,49.2,17.4,97.4,40.5,140.8    s55.9,81,95.5,110.9l336.6,234.4c0,0-211.2-302.9-388.7-603.8c-18.3-31.8-29.9-66.6-35.7-103.2c-2.9-16.4-2.9-32.8,0-49.2    c-4.8,8.7-13.5,26-13.5,26C20.3,407.3,8.7,446.8,1.9,486.3c-3.9,42.4-2.9,85.8,1,128.3H3.9z M863.2,655.1    c-10.6-23.1-37.6-69.4-37.6-69.4l-311.5,514.1l304.8-212.2c18.3-12.5,32.8-28,43.4-47.3c13.5-28.9,21.2-60.8,21.2-92.6    c0-31.8-6.8-63.7-19.3-92.6H863.2z M986.7,485.4c-3.9-49.2-17.4-97.4-40.5-140.8s-55.9-81-95.5-110.9L514.1-0.7    c0,0,210.3,302.9,388.7,603.8c18.3,31.8,29.9,66.6,35.7,103.2c2.9,16.4,2.9,32.8,0,49.2c4.8-8.7,13.5-26,13.5-26    c18.3-36.7,29.9-76.2,36.7-115.7c3.9-42.4,2.9-85.8-1-128.3H986.7z"></path>
		
			<linearGradient id="SVGID_00000070105598497060939640000000954350997383206304_" gradientUnits="userSpaceOnUse" x1="1598.4972" y1="-187.7207" x2="988.4971" y2="2236.2793" gradientTransform="matrix(0.9645 0 0 -0.9645 33.7901 1069.4341)">
			<stop offset="0" style="stop-color:#44BCF0"></stop>
			<stop offset="0.3804" style="stop-color:#7298F8"></stop>
			<stop offset="1" style="stop-color:#A099FF"></stop>
		</linearGradient>
		<polygon style="fill:url(#SVGID_00000070105598497060939640000000954350997383206304_);" points="1556.7,794 1237.5,794     1237.5,288.6 1556.7,288.6 1556.7,384.1 1308.8,384.1 1339.7,355.2 1339.7,493.1 1532.6,493.1 1532.6,583.8 1339.7,583.8     1339.7,727.5 1308.8,698.5 1556.7,698.5   "></polygon>
		
			<linearGradient id="SVGID_00000108278850897269392970000012177083510973230986_" gradientUnits="userSpaceOnUse" x1="2043.3271" y1="-75.7791" x2="1433.3269" y2="2348.2209" gradientTransform="matrix(0.9645 0 0 -0.9645 33.7901 1069.4341)">
			<stop offset="0" style="stop-color:#44BCF0"></stop>
			<stop offset="0.3804" style="stop-color:#7298F8"></stop>
			<stop offset="1" style="stop-color:#A099FF"></stop>
		</linearGradient>
		<polygon style="fill:url(#SVGID_00000108278850897269392970000012177083510973230986_);" points="1742.9,794 1640.6,794     1640.6,288.6 1742.9,288.6 1995.6,669.6 1964.7,669.6 1964.7,288.6 2066,288.6 2066,794 1964.7,794 1712,413 1742.9,413   "></polygon>
		
			<linearGradient id="SVGID_00000126323785471370198430000016396313587022270133_" gradientUnits="userSpaceOnUse" x1="2488.3005" y1="36.1985" x2="1878.3003" y2="2460.1985" gradientTransform="matrix(0.9645 0 0 -0.9645 33.7901 1069.4341)">
			<stop offset="0" style="stop-color:#44BCF0"></stop>
			<stop offset="0.3804" style="stop-color:#7298F8"></stop>
			<stop offset="1" style="stop-color:#A099FF"></stop>
		</linearGradient>
		<path style="fill:url(#SVGID_00000126323785471370198430000016396313587022270133_);" d="M2133.5,433.3c0-29.9,7.7-56.9,23.1-80.1    c16.4-23.1,37.6-41.5,65.6-55s59.8-20.3,95.5-20.3s66.6,6.8,91.6,19.3c26,12.5,46.3,29.9,60.8,53c14.5,23.1,22.2,50.2,22.2,82    H2390c0-19.3-7.7-34.7-20.3-45.3c-12.5-10.6-30.9-16.4-53-16.4c-24.1,0-43.4,4.8-57.9,15.4c-14.5,10.6-21.2,25.1-21.2,43.4    c0,16.4,4.8,28.9,13.5,38.6c8.7,8.7,23.1,15.4,41.5,19.3l77.2,16.4c44.4,8.7,77.2,25.1,98.4,47.3c21.2,22.2,31.8,53,31.8,92.6    c0,31.8-7.7,59.8-23.1,83.9c-15.4,24.1-37.6,42.4-66.6,55.9c-28,12.5-61.7,19.3-100.3,19.3c-36.7,0-68.5-5.8-96.5-18.3    c-27-12.5-49.2-30.9-63.7-53c-15.4-23.1-23.1-50.2-23.1-81h103.2c0,19.3,6.8,34.7,21.2,45.3c14.5,10.6,34.7,15.4,60.8,15.4    c27,0,47.3-4.8,62.7-15.4c15.4-10.6,23.1-24.1,23.1-41.5c0-15.4-3.9-27-11.6-35.7s-21.2-14.5-39.5-18.3l-78.1-16.4    c-44.4-8.7-78.1-26-101.3-51.1c-22.2-25.1-33.8-57.9-33.8-98.4V433.3z"></path>
	</g>
</g>
</svg>
