<?xml version="1.0" encoding="UTF-8"?>
<svg xmlns:xodm="http://www.corel.com/coreldraw/odm/2003" xmlns="http://www.w3.org/2000/svg" xmlns:xlink="http://www.w3.org/1999/xlink" version="1.1" id="Layer_1" x="0px" y="0px" viewBox="0 0 2500 373" style="enable-background:new 0 0 2500 373;" xml:space="preserve">
<style type="text/css">
	.st0{fill:url(#SVGID_1_);}
	.st1{fill:#9945FF;}
</style>
<g id="Layer_x0020_1">
	
		<linearGradient id="SVGID_1_" gradientUnits="userSpaceOnUse" x1="-580.8335" y1="-421.1985" x2="-10.9035" y2="220.3815" gradientTransform="matrix(0.5987 0 0 -0.5987 382.0016 130.2023)">
		<stop offset="0" style="stop-color:#9945FF"></stop>
		<stop offset="7.843140e-02" style="stop-color:#9945FF"></stop>
		<stop offset="0.302" style="stop-color:#8752F3"></stop>
		<stop offset="0.502" style="stop-color:#5497D5"></stop>
		<stop offset="0.6" style="stop-color:#43B4CA"></stop>
		<stop offset="0.7216" style="stop-color:#28E0B9"></stop>
		<stop offset="0.9686" style="stop-color:#19FB9B"></stop>
		<stop offset="1" style="stop-color:#19FB9B"></stop>
	</linearGradient>
	<path class="st0" d="M414.4,294l-68.8,73.7c-1.5,1.6-3.3,2.9-5.3,3.8c-2,0.9-4.2,1.3-6.3,1.3H8c-1.6,0-3.1-0.5-4.4-1.3   c-1.3-0.9-2.3-2.1-3-3.5c-0.6-1.4-0.8-3-0.6-4.5s1-3,2-4.1l68.7-73.7c1.5-1.6,3.3-2.9,5.3-3.7c2-0.9,4.2-1.3,6.4-1.3h326   c1.6,0,3.1,0.4,4.4,1.2c1.3,0.8,2.4,2.1,3,3.5c0.6,1.4,0.8,3,0.6,4.6C416.2,291.4,415.4,292.8,414.4,294L414.4,294z M345.6,145.4   c-1.5-1.6-3.3-2.9-5.3-3.7c-2-0.9-4.2-1.3-6.3-1.3H8c-1.6,0-3.1,0.5-4.4,1.3c-1.3,0.9-2.3,2.1-3,3.5c-0.6,1.4-0.8,3-0.6,4.5   c0.3,1.5,1,3,2,4.1l68.7,73.8c1.5,1.6,3.3,2.9,5.3,3.7c2,0.9,4.2,1.3,6.3,1.3h326c1.6,0,3.1-0.5,4.4-1.3c1.3-0.9,2.3-2.1,2.9-3.5   c0.6-1.4,0.8-3,0.5-4.5c-0.3-1.5-1-3-2-4.1L345.6,145.4L345.6,145.4z M8,92.5h326c2.2,0,4.3-0.5,6.3-1.3c2-0.9,3.8-2.2,5.3-3.8   l68.8-73.7c1.1-1.1,1.8-2.6,2.1-4.1c0.3-1.5,0.1-3.1-0.6-4.6c-0.6-1.4-1.7-2.6-3-3.5c-1.3-0.8-2.9-1.3-4.4-1.2h-326   c-2.2,0-4.3,0.5-6.4,1.3c-2,0.9-3.8,2.2-5.3,3.8L2.1,79.1c-1.1,1.1-1.8,2.6-2,4.1S0,86.3,0.7,87.7c0.6,1.4,1.6,2.6,3,3.5   C4.9,92,6.4,92.5,8,92.5C8,92.5,8,92.5,8,92.5z"></path>
	<path class="st1" d="M811.8,157.8H637.4v-57.4h219.7V42.9H636.8c-7.5,0-15,1.4-21.9,4.2c-7,2.8-13.3,7-18.7,12.3   c-5.4,5.3-9.6,11.6-12.5,18.5c-2.9,6.9-4.4,14.4-4.5,21.9v58.2c0,7.5,1.5,15,4.5,21.9c2.9,6.9,7.2,13.3,12.5,18.5   c5.4,5.3,11.7,9.5,18.7,12.3c7,2.9,14.4,4.3,22,4.3h174.6v57.4H583.3v57.4h228.4c7.5,0,15-1.4,22-4.2c7-2.8,13.3-7,18.7-12.3   c5.3-5.3,9.6-11.6,12.5-18.5c2.9-6.9,4.4-14.4,4.5-21.9v-58.2c0-7.5-1.5-15-4.5-21.9c-2.9-6.9-7.2-13.3-12.5-18.6   c-5.4-5.3-11.7-9.5-18.7-12.3C826.8,159.2,819.3,157.7,811.8,157.8L811.8,157.8L811.8,157.8z"></path>
	<path class="st1" d="M1149.6,42.9h-175c-7.5-0.1-15,1.4-22,4.2c-7,2.8-13.3,7-18.7,12.3c-5.4,5.3-9.6,11.6-12.6,18.5   c-2.9,7-4.5,14.4-4.5,21.9v173.1c0,7.5,1.6,15,4.5,21.9c2.9,7,7.2,13.3,12.6,18.5c5.4,5.3,11.7,9.5,18.7,12.3   c7,2.8,14.5,4.3,22,4.2h175c7.5,0,15-1.4,22-4.2c7-2.8,13.3-7,18.7-12.3c5.4-5.3,9.6-11.6,12.5-18.5c2.9-6.9,4.4-14.4,4.5-21.9   V99.9c0-7.5-1.6-15-4.5-21.9c-2.9-6.9-7.2-13.2-12.5-18.5c-5.3-5.3-11.7-9.5-18.7-12.3C1164.6,44.3,1157.1,42.9,1149.6,42.9   L1149.6,42.9L1149.6,42.9z M1149.2,272.6H975V100.4h174.1L1149.2,272.6L1149.2,272.6z"></path>
	<path class="st1" d="M1762.7,42.9H1592c-7.5,0-15,1.4-22,4.2c-7,2.8-13.3,7-18.7,12.3c-5.3,5.3-9.6,11.6-12.5,18.5   c-2.9,6.9-4.4,14.4-4.5,21.9v230.2h58.2v-94.3h170v94.3h58.2V99.9c0-7.6-1.6-15-4.5-22c-2.9-7-7.2-13.3-12.6-18.6   c-5.4-5.3-11.8-9.5-18.8-12.3C1777.8,44.2,1770.3,42.8,1762.7,42.9C1762.7,42.9,1762.7,42.9,1762.7,42.9z M1762.3,178.3h-170v-78   h170V178.3z"></path>
	<path class="st1" d="M2442.4,42.9h-170.7c-7.5,0-15,1.4-22,4.2c-7,2.8-13.3,7-18.7,12.3c-5.4,5.3-9.6,11.6-12.5,18.5   c-2.9,6.9-4.4,14.4-4.5,21.9v230.2h58.2v-94.3h169.6v94.3h58.2V99.9c0-7.5-1.6-15-4.5-21.9s-7.2-13.2-12.5-18.5   c-5.4-5.3-11.7-9.5-18.7-12.3C2457.4,44.3,2449.9,42.9,2442.4,42.9L2442.4,42.9z M2441.8,178.3h-170v-78h170L2441.8,178.3   L2441.8,178.3z"></path>
	<path class="st1" d="M2104.2,272.6h-23.3L1997.7,67c-2.8-7.1-7.8-13.2-14.1-17.5c-6.3-4.3-13.8-6.6-21.4-6.6h-51.7   c-5,0-10,0.9-14.6,2.8c-4.6,1.9-8.9,4.7-12.4,8.2c-3.6,3.5-6.4,7.7-8.3,12.4c-1.9,4.6-3,9.6-3,14.6v249.1h58.2V100.4h23.3   l83.2,205.7c2.9,7.1,7.8,13.1,14.2,17.4c6.4,4.3,13.8,6.5,21.5,6.5h51.7c5,0,10-0.9,14.6-2.8c4.7-1.9,8.9-4.7,12.4-8.2   c3.6-3.5,6.4-7.7,8.3-12.4c1.9-4.6,3-9.6,3-14.6v-249h-58.3V272.6L2104.2,272.6z"></path>
	<path class="st1" d="M1316.8,42.9h-58.2v230.1c0,7.5,1.6,15,4.5,22c2.9,7,7.2,13.3,12.6,18.5c5.4,5.3,11.7,9.5,18.7,12.3   c7,2.8,14.5,4.3,22,4.2h174.6v-57.4h-174.2C1316.8,272.6,1316.8,42.9,1316.8,42.9z"></path>
</g>
</svg>
