<svg width="411" height="120" viewBox="0 0 411 120" fill="none" xmlns="http://www.w3.org/2000/svg">
<g clip-path="url(#clip0_14_1590)">
<path fill-rule="evenodd" clip-rule="evenodd" d="M0 30.0133L51.5006 0L103.002 30.0133V89.9868L53.0853 119.076C53.0452 119.101 53.0045 119.125 52.9631 119.148L51.5006 120L50.0092 119.131C49.9882 119.119 49.9673 119.107 49.9466 119.094L0 89.9868V30.0133ZM96.4464 86.7959L54.5307 111.223V90.7774L78.7654 76.9333C78.9144 76.8482 79.0498 76.7458 79.1698 76.6294L96.4464 86.7959ZM48.4717 61.7883L27.2705 49.4131L27.2978 73.9427L48.4717 86.0921V61.7883ZM51.4988 56.5467L72.6648 44.2324L51.516 31.9466L30.3295 44.1877L51.4988 56.5467ZM9.03849 31.7575L26.3142 41.8434L50.5082 27.8646L50.5201 27.8578L50.4963 7.59684L9.03849 31.7575ZM52.516 7.60324L52.5398 27.8707L76.6818 41.8953L94.0352 31.7991L52.516 7.60324ZM54.5307 61.7912V86.1263L75.7438 74.0083V49.4495L54.5307 61.7912ZM96.9435 37.1156L79.7831 47.0994V74.6473L96.9435 84.7454V37.1156ZM23.2598 75.115L23.2286 47.0539L6.05897 37.032V85.4101L23.267 75.2839C23.2623 75.228 23.2598 75.1717 23.2598 75.115ZM48.4717 90.7483L24.4206 76.948L7.12354 87.1266L48.4717 111.223V90.7483Z" fill="#8C96A0"/>
<path d="M280.323 85.2547V53.6028H272.227V44.328H280.323V40.2795C280.323 37.3842 280.961 34.8569 282.236 32.6977C283.511 30.4895 285.254 28.772 287.462 27.5451C289.67 26.2692 292.148 25.6312 294.895 25.6312H305.855V34.906H299.458C298.084 34.906 296.809 35.0287 295.631 35.2741C294.454 35.5194 293.521 36.0346 292.834 36.8199C292.148 37.5559 291.804 38.7092 291.804 40.2795V44.328H317.116V85.2548H305.634V53.6028H291.804V85.2547H280.323Z" fill="#8C96A0"/>
<path fill-rule="evenodd" clip-rule="evenodd" d="M167.901 58.2273C169.864 58.9143 171.483 59.8223 172.759 60.9509C174.034 62.0305 174.991 63.3555 175.629 64.9258C176.315 66.4471 176.659 68.1891 176.659 70.152C176.659 73.1945 175.874 75.8444 174.304 78.1018C172.735 80.3592 170.527 82.1012 167.68 83.3281C164.834 84.5058 161.498 85.0947 157.671 85.0947H136.327V33.7155H156.935C162.872 33.7155 167.435 34.9668 170.624 37.4695C173.863 39.9231 175.482 43.113 175.482 47.0387C175.482 48.8545 175.163 50.4739 174.525 51.8969C173.887 53.271 173.003 54.4977 171.875 55.5774C170.747 56.6079 169.423 57.4912 167.901 58.2273ZM156.199 43.6527H148.471V54.2524H156.199C158.21 54.2524 159.829 53.7617 161.056 52.7802C162.331 51.7497 162.97 50.4492 162.97 48.879C162.97 47.3087 162.331 46.0573 161.056 45.1249C159.781 44.1435 158.162 43.6527 156.199 43.6527ZM148.471 75.1575H157.303C159.363 75.1575 161.007 74.6667 162.234 73.6853C163.509 72.7039 164.147 71.3789 164.147 69.7104C164.147 67.9929 163.535 66.6433 162.307 65.6619C161.08 64.6805 159.387 64.1897 157.229 64.1897H148.471V75.1575Z" fill="#8C96A0"/>
<path fill-rule="evenodd" clip-rule="evenodd" d="M190.672 83.4017C193.813 85.1192 197.566 85.978 201.933 85.978C206.299 85.978 210.053 85.1192 213.193 83.4017C216.334 81.6842 218.737 79.2304 220.406 76.0408C222.075 72.8511 222.909 69.0479 222.909 64.6313C222.909 57.9574 221.045 52.7311 217.315 48.9526C213.635 45.174 208.507 43.2847 201.933 43.2847C197.566 43.2847 193.813 44.1435 190.672 45.861C187.531 47.5785 185.102 50.0322 183.386 53.2219C181.717 56.3626 180.883 60.1657 180.883 64.6313C180.883 69.0479 181.717 72.8511 183.386 76.0408C185.102 79.2304 187.531 81.6842 190.672 83.4017ZM208.851 73.4644C207.182 75.6236 204.877 76.7032 201.933 76.7032C198.939 76.7032 196.584 75.6236 194.867 73.4644C193.198 71.3053 192.365 68.3609 192.365 64.6313C192.365 60.8528 193.198 57.9084 194.867 55.7982C196.584 53.6391 198.939 52.5594 201.933 52.5594C204.877 52.5594 207.182 53.6391 208.851 55.7982C210.568 57.9084 211.427 60.8528 211.427 64.6313C211.427 68.3609 210.568 71.3053 208.851 73.4644Z" fill="#8C96A0"/>
<path d="M256.352 85.0947V59.8467C256.352 57.7365 255.812 56.0435 254.732 54.7677C253.652 53.4919 252.23 52.8539 250.464 52.8539C248.452 52.8539 246.587 53.5408 244.87 54.9149C243.489 56.0111 242.042 57.7791 240.528 60.2189V85.0947H229.046V44.168H240.16L240.39 48.7237C241.694 47.2642 243.138 46.1382 244.723 45.3457C247.372 43.9716 250.072 43.2847 252.819 43.2847C255.96 43.2847 258.633 43.9471 260.841 45.2721C263.099 46.5971 264.815 48.4373 265.993 50.7928C267.22 53.1483 267.833 55.921 267.833 59.1106V85.0947H256.352Z" fill="#8C96A0"/>
<path fill-rule="evenodd" clip-rule="evenodd" d="M349.442 44.6097C347.381 43.7264 345.173 43.2847 342.818 43.2847C339.285 43.2847 336.145 44.2416 333.397 46.1555C330.65 48.0202 328.49 50.572 326.921 53.8108C325.351 57.0496 324.565 60.6565 324.565 64.6314C324.565 68.5572 325.351 72.1395 326.921 75.3783C328.49 78.6172 330.65 81.1935 333.397 83.1073C336.145 85.0212 339.285 85.9781 342.818 85.9781C345.271 85.9781 347.528 85.5364 349.589 84.6531C351.65 83.7207 353.367 82.4939 354.741 80.9726L354.962 85.0948H366.002V30.6239H354.594V48.0693C353.22 46.5971 351.503 45.4439 349.442 44.6097ZM351.208 74.6422C349.639 75.9181 347.823 76.5561 345.762 76.5561C343.898 76.5561 342.229 76.0163 340.757 74.9367C339.285 73.857 338.132 72.434 337.298 70.6674C336.465 68.8516 336.047 66.8397 336.047 64.6314C336.047 62.374 336.465 60.3621 337.298 58.5954C338.132 56.7797 339.285 55.3566 340.757 54.3261C342.229 53.2464 343.898 52.7067 345.762 52.7067C347.823 52.7067 349.639 53.3447 351.208 54.6205C352.778 55.8474 353.908 57.5404 354.594 59.6996V69.4896C353.908 71.5998 352.778 73.3173 351.208 74.6422Z" fill="#8C96A0"/>
<path fill-rule="evenodd" clip-rule="evenodd" d="M399.96 85.0948L399.757 81.023C398.695 82.3241 397.39 83.3624 395.839 84.1378C393.336 85.3647 390.343 85.9781 386.859 85.9781C384.16 85.9781 381.781 85.4628 379.72 84.4323C377.659 83.3526 376.064 81.8804 374.936 80.0157C373.808 78.151 373.243 76.0408 373.243 73.6853C373.243 69.4651 374.863 66.2017 378.101 63.8953C381.389 61.5398 385.903 60.3621 391.643 60.3621H399.592V57.5649C399.592 55.6511 398.88 54.1544 397.458 53.0747C396.035 51.9461 394.072 51.3817 391.57 51.3817C389.165 51.3817 387.203 51.897 385.682 52.9275C384.21 53.9089 383.351 55.3075 383.106 57.1233H371.992C372.237 54.228 373.219 51.7498 374.936 49.6887C376.653 47.6277 378.96 46.0574 381.855 44.9777C384.799 43.8491 388.208 43.2847 392.085 43.2847C395.912 43.2847 399.248 43.8736 402.094 45.0513C404.941 46.18 407.123 47.873 408.645 50.1304C410.214 52.3387 411 55.0622 411 58.301V85.0948H399.96ZM399.592 68.3205V71.4859C398.532 73.0156 397.256 74.264 395.765 75.2311C393.999 76.3597 391.962 76.9241 389.656 76.9241C387.987 76.9241 386.688 76.5316 385.755 75.7464C384.872 74.9612 384.431 74.0289 384.431 72.9492C384.431 71.4279 385.043 70.2993 386.271 69.5632C387.546 68.778 389.239 68.3855 391.349 68.3855L399.592 68.3205Z" fill="#8C96A0"/>
</g>
<defs>
<clipPath id="clip0_14_1590">
<rect width="411" height="120" fill="white"/>
</clipPath>
</defs>
</svg>
