<?xml version="1.0" encoding="UTF-8"?>
<svg xmlns:xodm="http://www.corel.com/coreldraw/odm/2003" xmlns="http://www.w3.org/2000/svg" xmlns:xlink="http://www.w3.org/1999/xlink" version="1.1" id="Layer_1" x="0px" y="0px" viewBox="0 0 2500 372" style="enable-background:new 0 0 2500 372;" xml:space="preserve">
<style type="text/css">
	.st0{fill:#1EEFA4;}
	.st1{fill-rule:evenodd;clip-rule:evenodd;fill:#1EEFA4;}
</style>
<g id="Layer_x0020_1">
	<g id="_2250895207408">
		<g>
			<path class="st0" d="M715.6,285c8.3-13,13-28.7,12-44.4c0-14.8-3.7-26.8-9.3-37c-6.5-11.1-16.7-20.4-27.8-26.8     c-14.8-8.3-29.6-15.7-45.3-20.4c-0.9,0-1.9-0.9-2.8-0.9l-2.8-0.9c-10.2-3.7-18.5-6.5-23.1-8.3c-4.6-1.9-9.3-4.6-13-7.4     c-1.9-1.9-2.8-2.8-3.7-5.6c-0.9-1.9-0.9-3.7-0.9-6.5s0.9-6.5,1.9-9.3c1.9-2.8,3.7-5.6,6.5-7.4c4.6-3.7,12-5.6,21.3-5.6     c11.1,0,23.1,2.8,33.3,7.4c9.3,3.7,17.6,9.3,25,15.7L723,83.3c-13-11.1-26.8-20.4-42.6-26.8c-17.6-6.5-36.1-10.2-54.6-10.2     c-21.3,0-38.9,3.7-51.8,11.1C560.1,64.8,550,74,544.4,86.1c-6.5,12-9.3,25-9.3,38.9c0,24.1,7.4,42.6,22.2,54.6     c16.7,13,35.2,23.1,55.5,28.7c10.2,2.8,20.4,6.5,30.5,11.1c7.4,3.7,12,7.4,14.8,11.1s4.6,8.3,4.6,13c0,3.7-0.9,7.4-2.8,10.2     c-1.9,2.8-3.7,5.6-7.4,7.4c-6.5,4.6-14.8,6.5-26.8,6.5c-24.1,0-46.3-10.2-67.6-29.6l-40.7,42.6c13.9,14.8,30.5,26.8,49,34.2     c19.4,8.3,40.7,13,61.1,13s37.9-3.7,52.7-10.2c13.9-6.5,26.8-16.7,35.2-29.6V285z"></path>
			<path class="st0" d="M1593.8,257.3l-29.6-24.1c-10.2,13-23.1,22.2-38.9,26.8c-15.7,4.6-32.4,4.6-47.2,0     c-15.7-4.6-28.7-14.8-38.9-27.8c-9.3-13-14.8-28.7-15.7-44.4c0-15.7,4.6-32.4,13.9-45.3c9.3-13,22.2-23.1,37-28.7     c14.8-5.6,31.5-6.5,47.2-1.9c15.7,4.6,29.6,13,39.8,25.9l49-38.9c-18.5-22.2-43.5-38.9-71.3-47.2c-27.8-7.4-58.3-6.5-85.1,2.8     c-27.8,10.2-50.9,27.8-67.6,51.8s-25,52.7-25,81.4s10.2,57.4,26.8,80.5c17.6,23.1,41.6,40.7,69.4,50.9     c27.8,9.3,57.4,10.2,85.1,0.9c27.8-8.3,52.7-25,70.3-48.1l-18.5-14.8H1593.8z"></path>
			<path class="st1" d="M1021.9,135.1c0,18.5-3.7,35.2-11.1,49c-7.4,13.9-18.5,25-33.3,32.4c-14.8,7.4-31.5,12-51.8,12h-47.2v87     h-64.8V45.3h111c19.4,0,37,3.7,50.9,12c13.9,7.4,25.9,18.5,33.3,32.4c8.3,13.9,12,29.6,12,46.3L1021.9,135.1z M938.6,165.6     c5.6-2.8,10.2-7.4,13-13s4.6-12,4.6-17.6c0-5.6-1.9-12-4.6-16.7c-3.7-4.6-7.4-9.3-13-11.1c-5.6-2.8-12-3.7-18.5-3.7h-41.6v66.6     h41.6C926.6,170.3,933.1,168.4,938.6,165.6z"></path>
			<polygon class="st0" points="1761.3,205.4 1863.1,205.4 1863.1,152.7 1761.3,152.7 1761.3,103.6 1890.8,103.6 1890.8,45.3      1696.5,45.3 1696.5,315.6 1894.5,315.6 1894.5,257.3 1761.3,257.3    "></polygon>
			<polygon class="st0" points="2089.8,45.3 2154.6,45.3 2154.6,315.6 2089.8,315.6    "></polygon>
			<path class="st1" d="M2480.3,248.9c12-20.4,18.5-44.4,18.5-68.5s-6.5-48.1-18.5-68.5c-13-20.4-30.5-37-51.8-48.1     c-22.2-12-47.2-17.6-72.2-17.6h-100.9v270.2h101.8c25,0,50-5.6,72.2-17.6c21.3-11.1,38.9-27.8,51.8-49L2480.3,248.9z      M2423.8,218.4c-6.5,11.1-15.7,20.4-26.8,25.9c-11.1,6.5-25,9.3-37.9,9.3h-38.9V106.4h38.9c13,0,25.9,2.8,37.9,9.3     c11.1,6.5,20.4,14.8,26.8,25.9c6.5,12,10.2,25,9.3,37.9c0,13-2.8,26.8-9.3,37.9V218.4z"></path>
			<path class="st1" d="M1150.5,45.3h58.3l103.6,270.2h-66.6l-14.8-43.5l0,0h-103.6l0,0l-14.8,43.5H1046L1150.5,45.3z M1179.2,121.2     l-0.9,2.8l-31.5,91.6h64.8l-31.5-91.6L1179.2,121.2z"></path>
		</g>
		<g>
			<path class="st0" d="M218.7,251.7c0-15.7,13-28.7,28.7-28.7h11.1l0,0c15.7,0,28.7,13,28.7,28.7v11.1c0,15.7-13,28.7-28.7,28.7     h-11.1l0,0c-15.7,0-28.7-13-28.7-28.7V251.7L218.7,251.7z M247.4,120.3L247.4,120.3c-15.7,0-28.7,13-28.7,28.7v11.1     c0,15.7,13,28.7,28.7,28.7h11.1l0,0c15.7,0,28.7-13,28.7-28.7V149c0-15.7-13-28.7-28.7-28.7H247.4L247.4,120.3z"></path>
			<path class="st1" d="M116,0C53,0,1.2,50.9,1.2,114.7v143.4c0,62.9,50.9,114.7,114.7,114.7h143.4c62.9,0,114.7-50.9,114.7-114.7     V114.7C374.1,51.8,322.3,0,259.4,0H116z M259.4,45.3H116c-37.9,0-68.5,30.5-68.5,68.5v143.4c0,37.9,30.5,68.5,68.5,68.5h143.4     c37.9,0,68.5-30.5,68.5-68.5V113.8C327.9,75.9,297.3,45.3,259.4,45.3L259.4,45.3z"></path>
		</g>
	</g>
</g>
</svg>
