<svg width="95" height="85" viewBox="0 0 95 85" fill="none" xmlns="http://www.w3.org/2000/svg">
<path d="M13.5704 11.8711H81.4275C82.2202 11.8707 83.012 11.921 83.7983 12.0217C83.5318 10.1509 82.8892 8.35343 81.9092 6.7377C80.9292 5.12197 79.6322 3.72142 78.0964 2.6205C76.5605 1.51958 74.8176 0.741085 72.9727 0.331957C71.1279 -0.0771713 69.2193 -0.10846 67.362 0.239978L11.5559 9.76754H11.4922C7.98927 10.4374 4.87418 12.4193 2.7832 15.3085C5.93346 13.0678 9.7045 11.8661 13.5704 11.8711Z" fill="url(#paint0_linear_3138_13152)"/>
<path d="M81.4286 16.96H13.5714C9.97327 16.9639 6.5236 18.395 3.97932 20.9393C1.43503 23.4836 0.00392906 26.9332 1.35743e-08 30.5314L5.42973e-08 71.2457C0.0039291 74.8438 1.43503 78.2935 3.97932 80.8378C6.5236 83.3821 9.97327 84.8132 13.5714 84.8171H81.4286C85.0267 84.8132 88.4764 83.3821 91.0207 80.8378C93.565 78.2935 94.9961 74.8438 95 71.2457L95 30.5314C94.9961 26.9332 93.565 23.4836 91.0207 20.9393C88.4764 18.395 85.0267 16.9639 81.4286 16.96ZM71.356 57.6742C70.0139 57.6742 68.702 57.2763 67.5861 56.5306C66.4702 55.785 65.6004 54.7252 65.0868 53.4853C64.5732 52.2454 64.4389 50.881 64.7007 49.5647C64.9625 48.2484 65.6088 47.0393 66.5578 46.0903C67.5068 45.1413 68.7159 44.495 70.0322 44.2332C71.3485 43.9714 72.7129 44.1058 73.9528 44.6193C75.1927 45.1329 76.2525 46.0027 76.9981 47.1186C77.7438 48.2345 78.1417 49.5464 78.1417 50.8885C78.1417 52.6882 77.4268 54.4142 76.1543 55.6868C74.8817 56.9593 73.1557 57.6742 71.356 57.6742Z" fill="url(#paint1_linear_3138_13152)"/>
<path d="M0.106934 44.8453L0.106934 23.746C0.106934 19.1508 2.65158 11.4468 11.4836 9.77798C18.9797 8.37207 26.4016 8.37207 26.4016 8.37207C26.4016 8.37207 31.2788 11.7649 27.2498 11.7649C23.2208 11.7649 23.3268 16.9602 27.2498 16.9602C31.1728 16.9602 27.2498 21.9435 27.2498 21.9435L11.4518 39.862L0.106934 44.8453Z" fill="url(#paint2_linear_3138_13152)"/>
<defs>
<linearGradient id="paint0_linear_3138_13152" x1="43.2907" y1="0" x2="43.2907" y2="15.3085" gradientUnits="userSpaceOnUse">
<stop offset="0.046875" stop-color="#8606EB"/>
<stop offset="1" stop-color="#8606EB" stop-opacity="0.16"/>
</linearGradient>
<linearGradient id="paint1_linear_3138_13152" x1="47.5" y1="16.96" x2="47.5" y2="84.8171" gradientUnits="userSpaceOnUse">
<stop offset="0.046875" stop-color="#8606EB"/>
<stop offset="1" stop-color="#8606EB" stop-opacity="0.16"/>
</linearGradient>
<linearGradient id="paint2_linear_3138_13152" x1="14.5501" y1="8.37207" x2="14.5501" y2="44.8453" gradientUnits="userSpaceOnUse">
<stop offset="0.046875" stop-color="#8606EB"/>
<stop offset="1" stop-color="#8606EB" stop-opacity="0.16"/>
</linearGradient>
</defs>
</svg>
