<svg width="40" height="40" viewBox="0 0 40 40" fill="none" xmlns="http://www.w3.org/2000/svg">
<path d="M12.2312 16.8078L20 9.03984L27.7711 16.8109L32.2914 12.2914L20 0L7.71172 12.2875L12.2312 16.807M0 20L4.52031 15.4789L9.03984 20L4.51953 24.518L0 20ZM12.2312 23.1914L20 30.9586L27.7711 23.1875L32.2937 27.7047L20 40L7.71172 27.7109L7.70547 27.7039L12.2312 23.1906M30.9586 20L35.4781 15.4805L40 20L35.4805 24.5195L30.9586 20Z" fill="white"/>
<path d="M24.5828 20L20 15.4102L16.6094 18.7992L16.2188 19.1898L15.4164 19.9922L15.4102 19.9984L15.4164 20.0047L20 24.5875L24.5859 20.0016H24.582" fill="white"/>
</svg>
