<svg width="43" height="40" viewBox="0 0 43 40" fill="none" xmlns="http://www.w3.org/2000/svg">
<path id="Crypto Logo" fill-rule="evenodd" clip-rule="evenodd" d="M31.9177 13.017C29.5149 8.97676 25.1247 6.50684 20.106 6.50684C12.5085 6.50684 6.58448 12.353 6.58448 20C6.58448 27.647 12.5085 34.0814 20.106 34.0814C25.1247 34.0814 29.5149 31.1409 31.9177 27.1006H38.8041C35.9582 34.6407 28.5957 40 20.106 40C9.1317 40 0 31.0457 0 20C0 8.95429 9.1317 0 20.106 0C28.5957 0 35.9582 5.47696 38.8041 13.017H31.9177V13.017ZM42.215 17.6471L35.2771 22.5883H26.5729C25.5591 25.2037 23.0214 27.0588 20.0491 27.0588C16.185 27.0588 13.0525 23.9249 13.0525 20.0588C13.0525 16.1928 16.185 13.0588 20.0491 13.0588C23.0662 13.0588 25.637 14.9694 26.6193 17.6471H42.215Z" fill="white"/>
</svg>
