<svg width="1408" height="759" viewBox="0 0 1408 759" fill="none" xmlns="http://www.w3.org/2000/svg">
<path d="M843.597 468.283L832.882 480.127L822.166 486.331V500.995L817.09 511.711V522.99L822.166 529.194H832.882L839.085 522.99V511.711L846.417 493.663L849.801 480.127V468.283L846.417 462.644L843.597 468.283Z" stroke="#3D4151" stroke-width="1.78013" stroke-dasharray="20.47 20.47"/>
<path d="M561.606 255.66L568.938 252.84L577.398 240.432V231.972L585.857 226.896L597.137 219L608.981 224.076L626.465 213.361L638.308 211.669L651.844 213.361L663.688 208.285L668.764 219L663.688 224.076L676.66 231.972H683.992L692.451 240.432L703.731 244.38L709.371 240.432V231.972H721.779L736.442 240.432H751.106H764.642L771.974 255.66L775.358 264.12L781.562 275.963L786.073 287.243V296.267L793.969 303.035L798.481 316.571L807.505 322.774L815.401 332.362L818.785 341.386L824.989 345.334L835.141 347.59L854.316 341.386V355.486L845.856 369.585L837.96 381.993L827.245 392.145L815.401 405.681L805.249 416.961L798.481 429.368L801.865 444.596L807.505 451.928V464.336V475.615L801.865 485.203L791.149 488.023L786.073 495.355L778.742 503.815L781.562 517.914L778.742 524.118L770.846 529.758L766.898 534.834V540.474L765.206 547.242L751.67 563.598L739.262 572.057L728.547 577.133L722.907 572.057L715.575 577.133H705.987L702.039 572.057V563.598L697.527 553.446L688.503 542.73V534.834L685.119 517.914L680.044 503.815L672.712 492.535V482.383L676.66 472.795L680.044 461.516V451.928V444.596L676.66 436.136L672.712 423.728L668.764 419.216L663.688 411.321V402.297V388.761V381.993L655.792 375.789H645.076L640.564 369.585L633.233 365.638L623.645 369.585L611.801 372.969H597.137L582.474 375.789L572.886 372.969L558.786 361.69L554.838 355.486L549.762 347.59L545.25 341.386L542.43 337.438V330.106L538.482 324.466L542.43 317.698V305.855V300.215V293.447V285.551L549.762 275.963L554.838 264.12L561.606 255.66Z" stroke="#3D4151" stroke-width="1.78013" stroke-dasharray="20.47 20.47"/>
<path d="M1242.34 619.432L1246.29 609.844H1255.31L1259.82 613.228L1255.31 619.432L1246.29 622.816L1242.34 619.432Z" stroke="#3D4151" stroke-width="1.78013" stroke-dasharray="20.47 20.47"/>
<path d="M1187.63 565.29L1173.53 571.494H1154.92L1147.02 576.005L1138.57 580.517L1134.62 576.005V571.494L1138.57 559.086V542.166V524.683L1144.2 514.531L1164.51 502.687H1173.53L1187.63 488.587L1191.58 483.511L1198.91 475.615L1210.76 471.668L1218.65 475.615L1222.6 469.976L1229.93 464.9L1243.47 460.952C1255.65 459.147 1254.56 464.336 1252.49 467.156L1246.29 475.615L1252.49 480.127L1267.15 488.587L1277.31 475.615V467.156L1283.51 458.132L1286.33 467.156L1293.66 475.615V490.843L1298.74 497.611L1307.2 514.531L1315.66 524.683V534.834L1311.15 553.446L1302.69 565.29L1293.66 571.494L1286.33 585.593L1277.31 592.925H1268.85L1264.9 596.873L1259.26 600.257L1252.49 596.873H1243.47L1236.7 592.925V585.593L1233.88 580.517L1228.24 571.494L1222.6 576.005L1215.83 565.29L1208.5 562.47H1202.3L1187.63 565.29Z" stroke="#3D4151" stroke-width="1.78013" stroke-dasharray="20.47 20.47"/>
<path d="M1335.4 638.044H1322.99C1322.99 633.984 1327.5 628.832 1329.76 626.764L1343.86 619.433L1356.27 615.485L1366.98 608.153V615.485L1360.21 619.433L1356.27 626.764H1350.63L1343.86 633.532L1335.4 638.044Z" stroke="#3D4151" stroke-width="1.78013" stroke-dasharray="20.47 20.47"/>
<path d="M1382.77 612.101H1375.44L1378.26 604.205V598.001L1386.16 594.617L1389.54 582.773L1392.92 591.233L1398 598.001L1389.54 604.205L1382.77 612.101Z" stroke="#3D4151" stroke-width="1.78013" stroke-dasharray="20.47 20.47"/>
<path d="M368.159 677.523L352.931 669.063H342.215L327.552 662.86L320.22 651.016L310.632 637.48L314.58 632.404V625.072L310.632 617.74L302.736 607.589V597.437L299.916 570.365L295.968 546.114V523.554V502.687L284.688 489.715L270.589 480.691L261.565 468.283L252.541 453.62L244.645 435.008L238.441 432.188V419.216L244.645 414.14L238.441 406.809L244.645 394.965L252.541 382.557L256.489 376.917V369.021L252.541 355.486V351.538L256.489 355.486L261.565 351.538L267.205 344.77H273.409L279.049 337.438H284.688L287.508 347.59L284.688 355.486L279.049 347.59L291.456 340.258H299.916L304.992 344.77L314.016 347.59L324.732 344.77L331.5 347.59L344.471 363.381L350.111 369.021H359.135L372.107 372.969L377.747 382.557L381.695 391.017V397.785L388.462 401.733L394.666 406.809H402.562L406.51 409.629L414.406 414.14H426.25L435.837 419.216L446.553 425.42L452.757 428.24V435.008V444.596L443.733 459.26L435.837 468.283V480.691V498.175L426.25 514.53L418.354 517.35L406.51 523.554L398.05 531.45V539.346L394.666 554.574L385.078 570.365L377.747 577.133H370.979H364.775L368.159 583.337V592.361L360.827 597.437H352.931V607.589H342.215V613.793L346.727 617.74L342.215 627.892V632.404V637.48L346.727 644.248V651.016L342.215 657.784L346.727 662.86L342.215 677.523H350.111L356.879 680.343L368.159 677.523Z" stroke="#3D4151" stroke-width="1.78013" stroke-dasharray="20.47 20.47"/>
<path d="M1311.71 442.339L1324.12 454.183L1320.17 458.131L1311.71 454.183L1302.12 445.723L1296.48 442.339H1290.28L1286.33 448.543L1275.05 445.723L1268.85 442.339H1263.21L1268.85 433.88L1263.21 428.804L1247.42 422.6L1238.96 419.78V414.14L1233.32 404.552H1247.42V409.064L1253.62 419.78L1259.26 414.14L1268.85 409.064L1279 414.14L1296.48 419.78L1308.33 428.804L1311.71 442.339Z" stroke="#3D4151" stroke-width="1.78013" stroke-dasharray="20.47 20.47"/>
<path d="M1152.1 378.609L1140.82 387.069L1129.54 392.709L1131.8 405.681L1137.44 414.705L1152.1 420.344H1163.38V414.705L1171.84 402.861L1175.23 398.349V390.453L1171.84 383.685L1175.23 374.097L1171.84 368.458H1163.38L1152.1 378.609Z" stroke="#3D4151" stroke-width="1.78013" stroke-dasharray="20.47 20.47"/>
<path d="M1143.64 433.88L1156.05 441.212L1149.84 444.596L1137.44 441.212H1127.85H1116.57L1113.75 433.88H1123.34H1132.92H1143.64Z" stroke="#3D4151" stroke-width="1.78013" stroke-dasharray="20.47 20.47"/>
<path d="M1114.31 416.396V424.856C1114.31 431.624 1106.42 430.684 1102.47 429.368L1094.57 420.908L1087.24 405.117L1075.96 388.761L1066.38 379.737V371.841L1084.99 379.737L1090.63 388.761L1102.47 397.221V402.861L1114.31 416.396Z" stroke="#3D4151" stroke-width="1.78013" stroke-dasharray="20.47 20.47"/>
<path d="M1175.22 320.518L1178.04 309.238C1179.17 304.726 1182.65 307.358 1184.25 309.238V320.518L1190.45 325.594L1197.22 336.31L1206.81 347.59L1210.76 358.305V370.713H1202.86L1197.22 364.509L1190.45 350.41L1184.25 336.31L1175.22 320.518Z" stroke="#3D4151" stroke-width="1.78013" stroke-dasharray="20.47 20.47"/>
<path d="M1092.32 384.249L1087.24 369.021L1077.66 354.358V336.874L1084.42 343.642V350.974L1087.24 357.178L1092.32 363.381L1101.91 369.021L1105.86 378.609V392.145H1101.91L1092.32 384.249Z" stroke="#3D4151" stroke-width="1.78013" stroke-dasharray="20.47 20.47"/>
<path d="M1043.81 295.139L1038.74 285.551L1021.25 288.371L1017.31 299.651L1008.28 305.855L991.363 321.646L988.543 330.67V348.154C987.189 358.983 979.707 357.178 976.135 354.922L965.983 334.618L953.575 305.855V291.755H946.243H938.348V282.731H929.888L920.3 269.196L914.096 274.271L898.304 269.196H884.205L875.745 262.428L856.005 260.172L846.981 249.456L840.778 244.38L836.83 249.456L843.598 257.352L846.981 269.196H856.005L862.209 277.091L872.361 269.196L878.001 274.271L889.845 282.731V291.755L880.821 305.855L868.977 311.495L856.005 318.827L843.598 325.594L834.01 334.618H822.166L816.526 325.594V315.443L810.322 305.855L799.606 295.139V285.551L782.687 265.812L777.611 252.276L771.407 257.352L764.639 238.74H774.791L777.611 225.204V212.797L768.023 216.181L755.615 212.797H742.08L734.748 198.133V193.057H727.98L721.212 198.133L724.596 206.029L721.212 212.797L713.316 208.849L716.136 203.209L706.548 198.133L702.6 183.469L692.449 177.265L677.785 167.114C671.468 161.248 673.273 167.678 674.965 171.625L682.297 180.085C688.125 184.409 698.878 193.057 695.268 193.057C691.659 193.057 691.885 201.705 692.449 206.029L682.297 193.057L666.505 180.085L658.609 174.445L644.509 180.085H636.614L631.538 189.109L619.694 198.133V208.849L605.594 212.797H592.623L582.471 206.029L586.419 180.085H609.542L614.618 174.445V162.602L605.594 152.45L619.694 149.63L631.538 142.862L647.329 130.454H653.533L658.609 125.378V114.663L664.813 109.587V116.919L672.145 114.663V106.767L666.505 102.819L658.609 106.767L650.149 102.819V88.1551L674.965 69.5435L692.449 56.5718L706.548 48.6759H730.8L745.463 56.5718L768.023 59.3917C775.242 65.2572 771.031 68.6035 768.023 69.5435H758.999L745.463 65.0316L758.999 76.3114H768.023L774.791 69.5435L782.687 65.0316L786.071 59.3917L795.658 65.0316L810.322 59.3917H829.498L849.237 56.5718H861.645L854.877 48.6759L857.697 43.036H869.541L877.437 48.6759L889.281 43.036L898.304 37.3962H910.712V31.1923L929.324 26.6804H941.168L947.371 22.1685H958.087L968.803 26.6804H984.595L988.543 31.1923L984.595 37.3962L1005.46 40.2161H1009.97H1020.13H1029.71H1047.76L1068.07 48.6759H1079.91H1089.5L1092.32 40.2161L1110.93 43.036L1132.92 48.6759H1152.1H1165.07L1179.73 56.5718H1207.37L1212.45 53.1878H1225.98L1246.85 56.5718L1265.46 62.2117L1277.3 66.7236H1290.28L1298.17 75.1834H1281.82L1273.36 69.5435L1265.46 75.1834L1277.3 80.8233V87.0272L1265.46 95.487H1253.62C1241.89 98.6453 1244.22 103.947 1246.85 106.203L1256.44 110.151L1259.26 124.814V140.042H1253.62L1238.95 124.814L1229.37 110.151L1233.88 91.5391L1229.37 87.0272L1222.6 91.5391H1215.27H1207.37V101.127H1193.83H1173.53L1165.07 106.203L1159.43 119.739L1168.46 124.814H1177.48L1189.89 129.89H1196.65L1207.37 140.042L1215.27 147.938V154.142L1218.65 165.422L1212.45 162.038L1207.37 154.142L1199.47 142.862H1196.65L1199.47 154.142V165.422L1193.83 178.957H1184.81L1179.73 183.469L1177.48 190.237V195.313L1179.73 200.953L1189.89 208.285L1193.83 216.181L1189.89 222.384H1179.73L1177.48 212.233L1165.07 203.773L1159.43 195.313C1152.21 199.374 1149.66 197.005 1149.28 195.313L1142.51 190.237L1132.92 200.953L1142.51 208.285H1149.28L1159.43 212.233L1146.46 220.692L1159.43 232.536L1165.07 240.996L1168.46 252.84L1165.07 268.068L1159.43 279.347L1146.46 285.551L1132.92 288.371L1125.59 295.139L1118.26 288.371L1110.93 293.447L1107.54 302.471L1118.26 315.443L1125.59 327.85V341.95L1118.26 348.154L1113.18 354.922H1107.54V348.154L1097.96 341.95L1086.68 334.618H1082.73V341.95L1077.09 334.618L1072.58 321.646L1068.07 315.443L1062.43 318.827H1056.79V311.495L1052.84 302.471L1043.81 295.139Z" stroke="#3D4151" stroke-width="1.78013" stroke-dasharray="20.47 20.47"/>
<path d="M1203.43 236.484L1200.61 228.588L1202.3 223.513L1207.37 218.437H1214.14L1222.04 213.361L1229.93 204.337L1226.55 197.005L1220.35 185.161V177.829V169.37L1227.68 174.446L1237.83 177.829L1235.01 183.469H1227.68V191.929H1232.75L1237.83 199.825V206.029L1240.08 213.361V222.385H1229.93L1223.73 228.588L1216.96 227.46H1211.89L1207.37 225.205L1204.55 227.46L1209.07 232.536L1207.37 239.304L1203.43 236.484Z" stroke="#3D4151" stroke-width="1.78013" stroke-dasharray="20.47 20.47"/>
<path d="M849.239 215.616L835.703 206.592V193.057L821.604 178.957V171.061L835.703 158.089L846.419 166.549L841.907 171.061H835.703V178.957L846.419 184.033H853.751L857.699 190.237L849.239 193.057L853.751 200.952L857.699 209.412L849.239 215.616Z" stroke="#3D4151" stroke-width="1.78013" stroke-dasharray="20.47 20.47"/>
<path d="M761.821 187.417L748.849 191.929L740.953 180.649L744.337 170.497L755.617 161.474L761.821 170.497H770.845V161.474H781.56V170.497L791.148 176.701L800.172 187.417L791.148 191.929L777.048 187.417H761.821Z" stroke="#3D4151" stroke-width="1.78013" stroke-dasharray="20.47 20.47"/>
<path d="M618.002 118.047L627.589 132.147L631.537 135.53L627.589 140.606L614.054 144.554H603.338L606.722 135.53V132.147L614.054 124.251L606.722 118.047V112.971V107.331H614.054L618.002 118.047Z" stroke="#3D4151" stroke-width="1.78013" stroke-dasharray="20.47 20.47"/>
<path d="M586.984 125.942L596.008 121.994C603.227 118.836 601.648 123.31 599.956 125.942L596.008 134.402L586.984 138.914V125.942Z" stroke="#3D4151" stroke-width="1.78013" stroke-dasharray="20.47 20.47"/>
<path d="M547.508 75.1833L559.916 71.2354H574.015L580.219 75.1833L567.811 82.5151H554.276L547.508 75.1833Z" stroke="#3D4151" stroke-width="1.78013" stroke-dasharray="20.47 20.47"/>
<path d="M444.297 70.6708L449.937 61.647C457.607 58.4886 457.645 52.0592 456.705 49.2392L449.937 36.8315L437.529 26.6797H427.941L418.354 22.7317V16.5279H437.529L449.937 10.324L467.421 6.94006L495.056 10.324L511.976 4.12012H544.687H567.811L581.346 10.324L572.886 22.7317L567.811 32.3196L557.095 36.8315L548.635 41.9074L557.095 49.2392L548.635 53.7511L532.843 58.827L521.563 61.647L511.976 65.5949L495.056 70.6708L479.264 79.1306L467.421 95.4863H456.705L444.297 86.4625V70.6708Z" stroke="#3D4151" stroke-width="1.78013" stroke-dasharray="20.47 20.47"/>
<path d="M383.386 13.1445L372.67 22.7324L386.206 27.8083L396.921 22.7324L410.457 18.2204L435.273 13.1445L451.628 1.30078L422.301 4.68471H402.561V13.1445H396.921H383.386Z" stroke="#3D4151" stroke-width="1.78013" stroke-dasharray="20.47 20.47"/>
<path d="M356.876 37.96H345.596L334.316 44.1638L345.596 50.9317H356.876H369.848L379.999 63.3395V67.2874H369.848L363.08 75.1832L369.848 83.6431L383.383 87.591L391.843 79.6951V71.2353H396.355C408.989 74.3936 408.763 69.9193 407.071 67.2874L400.303 58.2636L391.843 48.1118L383.383 44.1638H376.616L369.848 40.7799L356.876 37.96Z" stroke="#3D4151" stroke-width="1.78013" stroke-dasharray="20.47 20.47"/>
<path d="M236.748 34.0127L228.289 37.9606L218.137 41.9085L221.521 48.1124L228.289 41.9085H239.568L244.08 48.1124L236.748 57.1362H246.9H253.668H262.692L272.844 54.8803L284.687 53.1883V48.1124V41.9085H280.739H275.664L270.588 37.9606L264.948 41.9085L257.616 37.9606L246.9 34.0127H236.748Z" stroke="#3D4151" stroke-width="1.78013" stroke-dasharray="20.47 20.47"/>
<path d="M396.356 147.374L407.072 154.142L396.356 157.526H385.64L380.564 154.142L385.64 150.194L396.356 140.606V147.374Z" stroke="#3D4151" stroke-width="1.78013" stroke-dasharray="20.47 20.47"/>
<path d="M287.506 204.901L307.246 189.673L319.654 185.725L327.549 176.137L341.085 168.806H346.161V176.137H354.621L367.593 168.806L354.621 163.166L359.133 151.322H349.545L354.621 142.298H370.413H382.82L395.228 136.094L403.688 128.198L395.228 125.378L389.024 116.355L385.64 97.179L370.413 105.639L364.773 97.179V90.9751L346.161 85.3352L336.573 90.9751L330.933 102.819V110.715L319.654 120.866L310.066 125.378V132.71L301.606 139.478L295.966 132.71L299.35 119.175L287.506 116.355L280.174 110.715L268.895 102.819L276.226 90.9751L291.454 85.3352L301.606 79.6953L314.578 75.7474L322.474 71.2355L336.573 75.7474L333.189 83.0792L319.654 79.6953L327.549 66.7236H341.085L349.545 60.5197V54.3158H341.085L327.549 60.5197L322.474 54.3158L319.654 45.292L310.066 49.2399V54.3158L301.606 60.5197V54.3158H295.966V60.5197H287.506L276.226 63.3396L268.895 60.5197L255.359 63.3396V66.7236L240.131 63.3396L224.34 54.3158H206.292H191.628L168.505 60.5197L152.713 54.3158L113.798 49.2399H97.4421L75.4465 54.3158L68.1147 57.6997C64.5427 57.6997 58.0757 59.5045 60.7828 66.7236L51.759 71.2355H40.4792C39.3512 72.9274 38.5617 76.9882 44.4271 79.6953L35.9673 85.3352H25.8155L20.7396 94.359L13.4078 97.179L20.7396 102.819L1 119.175L35.9673 105.639L55.1429 97.179H60.7828L78.8304 90.9751L94.6221 97.179L106.466 105.639L112.106 112.971C110.226 119.739 106.466 135.079 106.466 142.298C116.618 142.298 123.386 153.014 117.746 155.27C113.234 157.075 102.33 169.934 97.4421 176.137L84.4703 193.621L88.4182 222.948L97.4421 235.356V246.072L101.39 261.864L106.466 273.707L112.106 280.475V261.864L106.466 251.148V242.688H112.106V255.66L121.13 269.76L131.845 286.679V299.651L156.661 315.443H179.22L187.68 325.594L202.344 331.234H207.984L213.06 340.822L223.212 353.794L237.311 361.126L248.027 353.794H237.311L226.031 340.822V319.391H213.06L207.984 315.443L213.06 296.831C215.128 293.823 216.444 288.71 205.164 292.319L197.268 303.035L184.296 307.547L175.273 299.651L169.069 286.679L175.273 265.812L179.22 255.66L197.268 246.072L213.06 251.148L226.031 242.688L234.491 246.072L244.643 251.148V265.812L248.027 269.76L255.359 265.812V255.66L250.847 242.688L261.563 235.356L270.587 228.024L284.686 222.948V210.541L287.506 204.901Z" stroke="#3D4151" stroke-width="1.78013" stroke-dasharray="20.47 20.47"/>
<path d="M291.456 306.983H275.664L280.176 297.959H285.816L301.608 301.343L291.456 306.983Z" stroke="#3D4151" stroke-width="1.78013" stroke-dasharray="20.47 20.47"/>
<path d="M252.541 281.603H233.93L239.006 285.551L248.593 290.627L257.053 296.831L274.537 294.011L268.897 290.627L252.541 281.603Z" stroke="#3D4151" stroke-width="1.78013" stroke-dasharray="20.47 20.47"/>
<path d="M244.643 163.165H260.434L250.282 171.625L244.643 184.033L247.463 189.109L254.23 184.033L260.434 168.805H270.586V177.829L282.43 171.625V163.165H276.226L270.586 159.782L264.946 153.578H250.282L244.643 163.165Z" stroke="#3D4151" stroke-width="1.78013" stroke-dasharray="20.47 20.47"/>
<path d="M343.338 30.0642L370.973 35.1401L377.177 30.0642H360.822L350.67 24.9883L343.338 30.0642Z" stroke="#3D4151" stroke-width="1.78013" stroke-dasharray="20.47 20.47"/>
<path d="M373.798 8.06885L369.85 15.9647H361.954L354.059 13.1447L361.954 8.06885H373.798Z" stroke="#3D4151" stroke-width="1.78013" stroke-dasharray="20.47 20.47"/>
<path d="M685.116 118.611L690.192 109.023L693.576 102.255L696.396 97.1789L690.192 90.4111V84.2072L702.036 80.2593L709.368 68.9795L717.264 75.1834L706.548 84.2072L709.368 94.359H728.544L735.875 97.1789L728.544 102.255H717.264V109.023H709.368V118.611L702.036 123.686H696.396L685.116 127.634L679.477 123.686H667.633L674.965 118.611H685.116Z" stroke="#3D4151" stroke-width="1.78013" stroke-dasharray="20.47 20.47"/>
<path d="M1175.22 415.833L1180.3 402.861C1177.59 398.8 1181.43 394.777 1183.68 393.273C1183.68 390.566 1198.35 392.145 1205.68 393.273C1205.68 402.297 1195.15 399.289 1189.89 396.657L1185.94 400.605L1187.63 406.245H1196.09L1189.89 411.321L1193.27 419.217L1189.89 423.164L1185.94 415.833L1183.68 419.217V429.368L1175.22 427.676V415.833Z" stroke="#3D4151" stroke-width="1.78013" stroke-dasharray="20.47 20.47"/>
<g filter="url(#filter0_b_555_2887)">
<path d="M1195.37 161.662C1253.11 195.054 1260 251.803 1223.84 316.81C1187.7 381.775 1108.68 454.765 995.278 520.346C881.88 585.926 755.671 631.628 643.337 652.526C530.93 673.437 432.804 669.456 375.064 636.064C317.323 602.671 310.439 545.922 346.597 480.915C382.732 415.95 461.758 342.96 575.156 277.38C688.554 211.799 814.763 166.097 927.097 145.199C1039.5 124.288 1137.63 128.269 1195.37 161.662Z" stroke="url(#paint0_linear_555_2887)" stroke-width="2.1"/>
</g>
<g filter="url(#filter1_b_555_2887)">
<path d="M1195.19 636.038C1137.45 669.43 1039.32 673.411 926.913 652.5C814.579 631.603 688.37 585.9 574.972 520.32C461.574 454.739 382.548 381.75 346.413 316.784C310.255 251.777 317.139 195.028 374.879 161.636C432.62 128.243 530.746 124.262 643.152 145.173C755.487 166.071 881.696 211.773 995.094 277.354C1108.49 342.934 1187.52 415.924 1223.65 480.889C1259.81 545.896 1252.93 602.645 1195.19 636.038Z" stroke="url(#paint1_linear_555_2887)" stroke-width="2.1"/>
</g>
<g filter="url(#filter2_b_555_2887)">
<path d="M1365.5 398.863C1365.5 422.172 1349.58 444.594 1320.26 465.166C1290.97 485.718 1248.53 504.268 1195.98 519.865C1090.9 551.053 945.676 570.359 785.218 570.359C624.76 570.359 479.533 551.053 374.454 519.865C321.908 504.268 279.461 485.718 250.175 465.166C220.859 444.594 204.938 422.172 204.938 398.863C204.938 375.553 220.859 353.132 250.175 332.559C279.461 312.008 321.908 293.457 374.454 277.861C479.533 246.672 624.76 227.366 785.218 227.366C945.676 227.366 1090.9 246.672 1195.98 277.861C1248.53 293.457 1290.97 312.008 1320.26 332.559C1349.58 353.132 1365.5 375.553 1365.5 398.863Z" stroke="url(#paint2_linear_555_2887)" stroke-width="2.1"/>
</g>
<rect x="139.898" y="142" width="92.4" height="92.4" rx="46.2" transform="rotate(30 139.898 142)" fill="#FF8811"/>
<defs>
<filter id="filter0_b_555_2887" x="283.18" y="91.6986" width="1004.07" height="614.328" filterUnits="userSpaceOnUse" color-interpolation-filters="sRGB">
<feFlood flood-opacity="0" result="BackgroundImageFix"/>
<feGaussianBlur in="BackgroundImageFix" stdDeviation="19.95"/>
<feComposite in2="SourceAlpha" operator="in" result="effect1_backgroundBlur_555_2887"/>
<feBlend mode="normal" in="SourceGraphic" in2="effect1_backgroundBlur_555_2887" result="shape"/>
</filter>
<filter id="filter1_b_555_2887" x="282.996" y="91.6728" width="1004.07" height="614.328" filterUnits="userSpaceOnUse" color-interpolation-filters="sRGB">
<feFlood flood-opacity="0" result="BackgroundImageFix"/>
<feGaussianBlur in="BackgroundImageFix" stdDeviation="19.95"/>
<feComposite in2="SourceAlpha" operator="in" result="effect1_backgroundBlur_555_2887"/>
<feBlend mode="normal" in="SourceGraphic" in2="effect1_backgroundBlur_555_2887" result="shape"/>
</filter>
<filter id="filter2_b_555_2887" x="163.988" y="186.416" width="1242.46" height="424.893" filterUnits="userSpaceOnUse" color-interpolation-filters="sRGB">
<feFlood flood-opacity="0" result="BackgroundImageFix"/>
<feGaussianBlur in="BackgroundImageFix" stdDeviation="19.95"/>
<feComposite in2="SourceAlpha" operator="in" result="effect1_backgroundBlur_555_2887"/>
<feBlend mode="normal" in="SourceGraphic" in2="effect1_backgroundBlur_555_2887" result="shape"/>
</filter>
<linearGradient id="paint0_linear_555_2887" x1="574.247" y1="276.854" x2="785.75" y2="642.572" gradientUnits="userSpaceOnUse">
<stop stop-color="#545C71" stop-opacity="0.26"/>
<stop offset="1" stop-color="#485068" stop-opacity="0.12"/>
</linearGradient>
<linearGradient id="paint1_linear_555_2887" x1="996.003" y1="276.828" x2="784.5" y2="642.546" gradientUnits="userSpaceOnUse">
<stop stop-color="#545C71" stop-opacity="0.26"/>
<stop offset="1" stop-color="#485068" stop-opacity="0.12"/>
</linearGradient>
<linearGradient id="paint2_linear_555_2887" x1="785.218" y1="226.316" x2="785.218" y2="571.409" gradientUnits="userSpaceOnUse">
<stop stop-color="#545C71" stop-opacity="0.26"/>
<stop offset="1" stop-color="#485068" stop-opacity="0.12"/>
</linearGradient>
</defs>
</svg>
