<svg width="38" height="40" viewBox="0 0 38 40" fill="none" xmlns="http://www.w3.org/2000/svg">
<g id="NFT logo">
<path id="Vector" d="M5.94889 21.7062C4.90089 18.3284 2.48533 10.5231 2.48533 10.3369L0 11.7382V31.672L2.48533 33.0995V19.2591L6.84756 35.6115L8.96267 36.8275V6.0542L5.97511 7.69331L5.94889 21.7062Z" fill="white"/>
<path id="Vector_2" d="M18.3533 3.48889L25.4067 7.58667L27.02 5.07556L18.3533 0L11.5 4.09778V38.1511L14.3044 40V22.8178H24.7444V19.3511H14.3044V5.79111L18.3533 3.48889Z" fill="white"/>
<path id="Vector_3" d="M26.8599 8.3823L30.5888 10.8134V35.7423L33.6821 34.0267V12.5067L37.5132 15.1201V11.8445L28.3932 6.08008L26.8599 8.3823Z" fill="white"/>
</g>
</svg>
