<svg width="46" height="40" viewBox="0 0 46 40" fill="none" xmlns="http://www.w3.org/2000/svg">
<g id="Polygon logo" clip-path="url(#clip0_3214_12992)">
<g id="Group">
<path id="Vector" d="M34.6269 12.1789C33.791 11.7013 32.7164 11.7013 31.7612 12.1789L25.0746 16.1192L20.5373 18.6266L13.9701 22.5669C13.1343 23.0446 12.0597 23.0446 11.1045 22.5669L5.97015 19.4625C5.13433 18.9848 4.53731 18.0296 4.53731 16.955V10.9848C4.53731 10.0296 5.01493 9.0744 5.97015 8.47739L11.1045 5.49231C11.9403 5.0147 13.0149 5.0147 13.9701 5.49231L19.1045 8.59679C19.9403 9.0744 20.5373 10.0296 20.5373 11.1043V15.0446L25.0746 12.4177V8.35798C25.0746 7.40276 24.597 6.44754 23.6418 5.85052L14.0896 0.23858C13.2537 -0.239032 12.1791 -0.239032 11.2239 0.23858L1.43284 5.96992C0.477612 6.44754 0 7.40276 0 8.35798V19.5819C0 20.5371 0.477612 21.4923 1.43284 22.0893L11.1045 27.7013C11.9403 28.1789 13.0149 28.1789 13.9701 27.7013L20.5373 23.8804L25.0746 21.2535L31.6418 17.4326C32.4776 16.955 33.5522 16.955 34.5075 17.4326L39.6418 20.4177C40.4776 20.8953 41.0746 21.8505 41.0746 22.9251V28.8953C41.0746 29.8505 40.597 30.8057 39.6418 31.4028L34.6269 34.3878C33.791 34.8654 32.7164 34.8654 31.7612 34.3878L26.6269 31.4028C25.791 30.9251 25.194 29.9699 25.194 28.8953V25.0744L20.6567 27.7013V31.6416C20.6567 32.5968 21.1343 33.552 22.0896 34.149L31.7612 39.761C32.597 40.2386 33.6716 40.2386 34.6269 39.761L44.2985 34.149C45.1343 33.6714 45.7313 32.7162 45.7313 31.6416V20.2983C45.7313 19.3431 45.2537 18.3878 44.2985 17.7908L34.6269 12.1789Z" fill="white"/>
</g>
</g>
<defs>
<clipPath id="clip0_3214_12992">
<rect width="45.8507" height="40" fill="white"/>
</clipPath>
</defs>
</svg>
