<svg width="20" height="20" viewBox="0 0 20 20" fill="none" xmlns="http://www.w3.org/2000/svg">
<g id="ic-arb.svg" clip-path="url(#clip0_5910_17895)">
<g id="Clip path group">
<mask id="mask0_5910_17895" style="mask-type:luminance" maskUnits="userSpaceOnUse" x="0" y="0" width="20" height="20">
<g id="clip0_7637_111878">
<path id="Vector" d="M20 0H0V20H20V0Z" fill="white"/>
</g>
</mask>
<g mask="url(#mask0_5910_17895)">
<g id="Group">
<path id="Vector_2" d="M10 20C15.5228 20 20 15.5228 20 10C20 4.47715 15.5228 0 10 0C4.47715 0 0 4.47715 0 10C0 15.5228 4.47715 20 10 20Z" fill="url(#paint0_linear_5910_17895)"/>
<path id="Vector_3" d="M10 20C15.5228 20 20 15.5228 20 10C20 4.47715 15.5228 0 10 0C4.47715 0 0 4.47715 0 10C0 15.5228 4.47715 20 10 20Z" fill="#1A71B1"/>
<g id="Clip path group_2">
<mask id="mask1_5910_17895" style="mask-type:luminance" maskUnits="userSpaceOnUse" x="3" y="3" width="14" height="12">
<g id="clip1_7637_111878">
<path id="Vector_4" d="M16.25 3.45557H3.75V14.8783H16.25V3.45557Z" fill="white"/>
</g>
</mask>
<g mask="url(#mask1_5910_17895)">
<g id="Group_2">
<path id="Vector_5" d="M16.0299 12.3857L11.4202 4.28834C10.7872 3.17797 9.20842 3.17797 8.58283 4.28834L3.97306 12.3857C3.34006 13.4961 4.12945 14.8783 5.39546 14.8783H14.615C15.8736 14.8783 16.6555 13.4961 16.0299 12.3857ZM13.066 11.3962C13.066 11.9627 12.7681 12.4839 12.284 12.7709L10.7872 13.6472C10.5488 13.7831 10.2808 13.8587 10.0053 13.8587C9.72967 13.8587 9.46158 13.7831 9.22325 13.6472L7.72641 12.7709C7.24234 12.4914 6.94446 11.9627 6.94446 11.3962V9.63625C6.94446 9.06975 7.24234 8.5485 7.72641 8.26148L9.21583 7.38528C9.45417 7.24932 9.72225 7.17378 9.99775 7.17378C10.2733 7.17378 10.5414 7.24932 10.7798 7.38528L12.2766 8.26148C12.7607 8.541 13.0585 9.06975 13.0585 9.63625V11.3962H13.066Z" fill="white"/>
<path id="Vector_6" d="M12.098 9.63674C12.098 9.41766 11.9862 9.22132 11.8001 9.11557L10.2958 8.23934C10.2064 8.18647 10.1022 8.15625 9.99792 8.15625C9.89367 8.15625 9.78942 8.18647 9.7 8.23934L8.20316 9.11557C8.01698 9.22132 7.90527 9.42524 7.90527 9.63674V11.3967C7.90527 11.6157 8.01698 11.8122 8.20316 11.9179L9.7 12.7941C9.78942 12.847 9.89367 12.8772 9.99792 12.8772C10.1022 12.8772 10.2064 12.847 10.2958 12.7941L11.7927 11.9179C11.9788 11.8122 12.0906 11.6082 12.0906 11.3967V9.63674H12.098Z" fill="#F1F1F1"/>
</g>
</g>
</g>
</g>
</g>
</g>
</g>
<defs>
<linearGradient id="paint0_linear_5910_17895" x1="10" y1="0" x2="10" y2="20" gradientUnits="userSpaceOnUse">
<stop stop-color="#11324A"/>
<stop offset="1"/>
</linearGradient>
<clipPath id="clip0_5910_17895">
<rect width="20" height="20" fill="white"/>
</clipPath>
</defs>
</svg>
