<svg width="20" height="20" viewBox="0 0 20 20" fill="none" xmlns="http://www.w3.org/2000/svg">
<g id="ic-bnb.svg" clip-path="url(#clip0_5910_17853)">
<g id="Clip path group">
<mask id="mask0_5910_17853" style="mask-type:luminance" maskUnits="userSpaceOnUse" x="0" y="0" width="20" height="20">
<g id="clip0_7567_8821">
<path id="Vector" d="M20 0H0V20H20V0Z" fill="white"/>
</g>
</mask>
<g mask="url(#mask0_5910_17853)">
<g id="Group">
<g id="Mask group">
<mask id="mask1_5910_17853" style="mask-type:luminance" maskUnits="userSpaceOnUse" x="0" y="0" width="20" height="20">
<g id="Group_2">
<path id="Vector_2" d="M20 0H0V20H20V0Z" fill="white"/>
</g>
</mask>
<g mask="url(#mask1_5910_17853)">
<g id="Group_3">
<path id="Vector_3" d="M20 10C20 4.47715 15.5228 0 10 0C4.47715 0 0 4.47715 0 10C0 15.5228 4.47715 20 10 20C15.5228 20 20 15.5228 20 10Z" fill="#F0B90B"/>
<path id="Vector_4" d="M16.9219 8.26667C16.9219 8.62858 16.9281 8.99066 16.9202 9.35233C16.9115 9.76125 16.9081 10.1701 16.915 10.5787C16.9262 11.2572 16.9209 11.9357 16.9202 12.6141C16.9199 13.0835 16.7811 13.5137 16.5076 13.8951C16.32 14.1566 16.0815 14.3647 15.7991 14.5237C15.4321 14.7307 15.0649 14.9377 14.7044 15.1559C14.1819 15.4722 13.654 15.7797 13.1219 16.0787C12.4234 16.4711 11.7336 16.879 11.0357 17.2722C10.7575 17.4292 10.4579 17.5185 10.1394 17.5446C9.6628 17.5837 9.22747 17.4602 8.81822 17.2207C8.28911 16.911 7.75663 16.6071 7.22553 16.3007C7.12999 16.2456 7.03364 16.1916 6.93909 16.1349C6.86943 16.0929 6.83279 16.0334 6.83319 15.9472C6.83518 15.4225 6.84176 14.8975 6.83201 14.373C6.82204 13.8465 6.83419 13.32 6.82126 12.7939C6.81667 12.6057 6.82324 12.4175 6.81269 12.23C6.79518 11.9217 6.65583 11.6756 6.39208 11.5171C6.03258 11.301 5.66413 11.0997 5.29944 10.8921C4.93796 10.6862 4.57866 10.4765 4.21418 10.2762C3.86523 10.0847 3.52544 9.87766 3.17708 9.68533C3.07218 9.62766 3.02342 9.54941 3.02382 9.42841C3.02621 8.65383 3.02043 7.87931 3.02679 7.10497C3.03078 6.6125 3.18584 6.16661 3.48862 5.77586C3.68309 5.52485 3.92873 5.33595 4.20423 5.17909C4.84102 4.817 5.47383 4.44795 6.10843 4.08228C6.17352 4.04485 6.23981 4.03769 6.30908 4.0777C6.54377 4.21365 6.78163 4.34464 7.01453 4.48358C7.64337 4.8592 8.27976 5.22209 8.91413 5.58795C9.10688 5.69902 9.29988 5.8095 9.49222 5.92158C9.81147 6.1077 10.133 6.1069 10.4512 5.92495C10.9806 5.62259 11.5075 5.31644 12.0346 5.01029C12.5524 4.7097 13.0699 4.40893 13.5851 4.10396C13.692 4.04066 13.7817 4.04525 13.8875 4.10715C14.3866 4.39996 14.8905 4.68501 15.39 4.97724C15.6192 5.1114 15.8596 5.22785 16.0706 5.39167C16.5112 5.73346 16.7786 6.18254 16.8842 6.72775C16.9117 6.86949 16.9221 7.0142 16.9219 7.15931C16.9212 7.52837 16.9219 7.89762 16.9219 8.26667ZM15.6639 7.75927C15.6651 7.51007 15.6791 7.25945 15.6516 7.01081C15.6201 6.72477 15.4862 6.49306 15.2371 6.34496C14.7785 6.07245 14.3126 5.8119 13.8537 5.53937C13.765 5.48662 13.7026 5.494 13.6189 5.54455C13.3434 5.71096 13.0627 5.86901 12.7841 6.03005C12.2546 6.33581 11.7226 6.63739 11.1964 6.94811C10.8739 7.13841 10.5371 7.27576 10.1606 7.30801C9.77663 7.34085 9.40963 7.27775 9.06263 7.11394C8.77955 6.98016 8.51647 6.80898 8.24512 6.65311C7.59598 6.27987 6.94666 5.90685 6.29972 5.52963C6.22806 5.48783 6.17631 5.4906 6.10763 5.53081C5.67049 5.7866 5.23277 6.0412 4.79204 6.29082C4.45346 6.48271 4.28604 6.76995 4.28544 7.15652C4.28464 7.68861 4.28524 8.2205 4.28544 8.75258C4.28544 8.77608 4.28584 8.79975 4.28803 8.82308C4.29083 8.85175 4.30496 8.87258 4.33143 8.88758C4.42758 8.94166 4.52253 8.99783 4.61867 9.05216C4.97299 9.25241 5.32752 9.45191 5.68184 9.65233C6.07219 9.87325 6.46116 10.0966 6.85271 10.3156C7.04598 10.4237 7.23271 10.5402 7.39414 10.6927C7.60117 10.8889 7.76758 11.1146 7.88283 11.3764C8.00664 11.6575 8.08009 11.9499 8.08448 12.2587C8.08986 12.635 8.08228 13.0112 8.09263 13.3875C8.10318 13.7742 8.09263 14.1616 8.10498 14.5486C8.10737 14.626 8.09223 14.7045 8.09822 14.7812C8.11096 14.9459 8.10518 15.1102 8.10418 15.275C8.10378 15.3367 8.12788 15.3697 8.17883 15.399C8.59463 15.6372 9.0103 15.8759 9.42397 16.1182C9.59855 16.2205 9.7783 16.2985 9.98505 16.2947C10.1695 16.2912 10.3329 16.2261 10.4915 16.1361C10.9397 15.8819 11.3886 15.6089 11.8401 15.3601C12.1351 15.1901 12.4551 15.0001 12.7301 14.8501C13.044 14.6652 13.3379 14.4939 13.6601 14.3101C13.8351 14.2102 14.0269 14.0989 14.2101 13.9951C14.5401 13.8151 14.8774 13.6097 15.2022 13.4199C15.4896 13.2519 15.6495 12.9981 15.6615 12.6671C15.6615 12.1701 15.6639 11.9951 15.6639 11.4711C15.6639 11.1451 15.6681 10.4977 15.6639 10.1667C15.6639 10.0401 15.6639 9.25508 15.6639 8.78825C15.6639 8.649 15.6651 8.51508 15.6639 8.37258C15.6651 8.16507 15.6639 7.96507 15.6639 7.75927Z" fill="white"/>
<path id="Vector_5" d="M12.7967 3.56471C12.8025 3.62642 12.7603 3.65946 12.7113 3.68773C12.5706 3.76934 12.4295 3.85076 12.2885 3.93217C12.1289 4.02454 11.9681 4.11511 11.8098 4.20966C11.7208 4.26281 11.6388 4.25942 11.55 4.20727C11.2598 4.03708 10.9682 3.86947 10.6762 3.70246C10.5601 3.63597 10.4488 3.55954 10.3246 3.50917C10.0328 3.39113 9.75218 3.42139 9.48143 3.57904C9.12193 3.78845 8.76026 3.99388 8.40176 4.20488C8.30639 4.26102 8.22378 4.25942 8.12862 4.20309C7.83761 4.03071 7.5432 3.86429 7.24999 3.69589C7.21952 3.67837 7.19385 3.65588 7.17275 3.62861C7.13492 3.57944 7.1417 3.50698 7.18986 3.46757C7.28861 3.38695 7.40406 3.33321 7.51334 3.26971C7.91981 3.03342 8.32967 2.80271 8.73418 2.56285C9.0186 2.39405 9.31401 2.25988 9.64326 2.20833C9.87401 2.1721 10.1029 2.17707 10.3338 2.2141C10.6889 2.27083 10.9961 2.43545 11.3002 2.61401C11.7648 2.88692 12.233 3.15425 12.6998 3.42378C12.7535 3.45523 12.8009 3.48986 12.7967 3.56471Z" fill="white"/>
<path id="Vector_6" d="M3.02524 11.729C3.02524 11.4287 3.02524 11.1282 3.02524 10.8281C3.02524 10.7972 3.02544 10.7667 3.03262 10.7362C3.05729 10.632 3.13673 10.5934 3.23445 10.6417C3.2878 10.6682 3.33857 10.6999 3.39033 10.7297C3.65348 10.8814 3.91644 11.0336 4.17999 11.185C4.25842 11.23 4.28369 11.3005 4.28369 11.3858C4.28329 11.7929 4.28528 12.2 4.28289 12.6071C4.2815 12.8481 4.36133 13.0579 4.51579 13.2392C4.59523 13.3324 4.69993 13.3955 4.80543 13.4562C5.1691 13.6655 5.53179 13.8765 5.89667 14.0836C5.9932 14.1386 6.0372 14.2099 6.03542 14.3244C6.02983 14.6681 6.03382 15.0119 6.03303 15.3556C6.03283 15.4491 5.98564 15.507 5.90862 15.5101C5.87158 15.5117 5.83734 15.4991 5.80549 15.4806C5.36239 15.2245 4.91948 14.9681 4.47659 14.7116C4.33425 14.6292 4.18954 14.5502 4.0502 14.4631C3.626 14.1977 3.33 13.8281 3.15803 13.3576C3.06288 13.0977 3.02604 12.829 3.02564 12.5539C3.02485 12.279 3.02524 12.0039 3.02524 11.729Z" fill="white"/>
<path id="Vector_7" d="M15.1311 9.24519C15.1317 9.56011 15.0281 9.84478 14.8724 10.1128C14.7216 10.372 14.5304 10.5969 14.2851 10.7723C14.1137 10.8949 13.9281 10.982 13.7141 11.0038C13.4656 11.0289 13.228 10.8708 13.1545 10.633C13.0782 10.3869 13.1066 10.1458 13.1807 9.90769C13.2991 9.52769 13.5111 9.20603 13.8056 8.93944C13.9739 8.78719 14.162 8.66619 14.3842 8.60919C14.8041 8.50153 15.0951 8.73428 15.131 9.15303C15.1334 9.18353 15.1311 9.21461 15.1311 9.24519Z" fill="white"/>
<path id="Vector_8" d="M15.131 11.9562C15.1333 12.2193 15.0558 12.4628 14.9384 12.6941C14.766 13.0339 14.5296 13.3195 14.2066 13.5281C14.049 13.6299 13.8781 13.6995 13.6899 13.7075C13.4985 13.7156 13.314 13.6412 13.2058 13.4469C13.0999 13.2572 13.0878 13.0522 13.1261 12.846C13.2316 12.2786 13.5286 11.8306 13.9953 11.4944C14.1133 11.4094 14.2445 11.347 14.3864 11.3118C14.8138 11.2055 15.0959 11.445 15.1306 11.8586C15.1335 11.8907 15.131 11.9235 15.131 11.9562Z" fill="white"/>
</g>
</g>
</g>
</g>
</g>
</g>
</g>
<defs>
<clipPath id="clip0_5910_17853">
<rect width="20" height="20" fill="white"/>
</clipPath>
</defs>
</svg>
