<svg id="Layer_1" data-name="Layer 1" xmlns="http://www.w3.org/2000/svg" viewBox="0 0 400 400"><defs><style>.cls-1{fill:#fff;}.cls-2{fill:#081328;}</style></defs><rect class="cls-1" width="400" height="400"/><path class="cls-2" d="M262.05752,129.254a21.32514,21.32514,0,0,1-31.59835-18.69036l-.00726-17.15988L200.1596,75.91046,200,76.0047l-.1596-.09424L169.54809,93.40371v17.15988A21.32,21.32,0,0,1,137.94974,129.254l-15.26586-8.81553L92.38432,137.93167v34.994s7.64743,4.41857,15.26585,8.80844a21.33341,21.33341,0,0,1-.39905,36.71327l-14.8668,8.57639v34.97942l.00726.00709v.04357L122.68388,279.54l14.85228-8.576a21.3425,21.3425,0,0,1,32.01193,18.47284v17.15952l30.29231,17.49325L200,323.9953l.1596.09424,30.29231-17.49325.00726-17.15952a21.33626,21.33626,0,0,1,32.00467-18.47284l14.85228,8.576,30.2923-17.48617v-.04357l.00726-.00709V227.02372l-14.85954-8.57639a21.322,21.322,0,0,1-.39183-36.71327l15.25137-8.80844v-34.994l-30.29956-17.49325Zm-.16691,89.18629-14.85954,8.58348v.04358h-.00726v17.15952a21.33573,21.33573,0,0,1-32.00462,18.47992l-14.85959-8.576-.1596.08715-.1596-.08715-14.85959,8.576a21.33521,21.33521,0,0,1-32.00462-18.47992v-17.2031l-14.85954-8.58348a21.32153,21.32153,0,0,1-.47164-36.65551l15.33118-8.85911V155.77318a21.33622,21.33622,0,0,1,32.00462-18.47992l14.85959,8.576.1596-.08715.1596.08715,14.85959-8.576a21.33521,21.33521,0,0,1,32.00462,18.47992v17.15244l15.33118,8.85911a21.31762,21.31762,0,0,1-.46438,36.65551Z"/></svg>