<svg width="20" height="20" viewBox="0 0 20 20" fill="none" xmlns="http://www.w3.org/2000/svg">
<g clip-path="url(#clip0_5910_17882)">
<mask id="mask0_5910_17882" style="mask-type:luminance" maskUnits="userSpaceOnUse" x="0" y="0" width="20" height="20">
<path d="M20 0H0V20H20V0Z" fill="white"/>
</mask>
<g mask="url(#mask0_5910_17882)">
<mask id="mask1_5910_17882" style="mask-type:luminance" maskUnits="userSpaceOnUse" x="0" y="0" width="20" height="20">
<path d="M20 0H0V20H20V0Z" fill="white"/>
</mask>
<g mask="url(#mask1_5910_17882)">
<path d="M10 20C15.5228 20 20 15.5228 20 10C20 4.47715 15.5228 0 10 0C4.47715 0 0 4.47715 0 10C0 15.5228 4.47715 20 10 20Z" fill="url(#paint0_linear_5910_17882)"/>
<path d="M5.67274 6.48141C5.80459 6.25068 5.9694 6.0529 6.20014 5.90457L9.87542 3.3335L6.10125 9.56341C6.10125 9.56341 5.77163 9.00308 5.63978 8.72283C5.32663 8.01417 5.32663 7.19011 5.67274 6.48141ZM4.15646 10.783C4.23887 11.9862 4.84868 13.1069 5.80459 13.8321L9.87542 16.6668C9.87542 16.6668 7.32086 12.9915 5.1783 9.33266C4.96405 8.95358 4.81571 8.52508 4.74979 8.0801C4.71683 7.88232 4.71683 7.68455 4.74979 7.48677C4.70035 7.58566 4.58498 7.79991 4.58498 7.79991C4.37072 8.24491 4.22239 8.72283 4.13998 9.21733C4.09054 9.74466 4.09054 10.2721 4.15646 10.783ZM14.5397 11.2775C14.4078 10.9972 14.0782 10.4369 14.0782 10.4369L10.304 16.6668L13.9958 14.1122C14.21 13.9639 14.3913 13.7662 14.5232 13.5354C14.8528 12.8267 14.8693 12.0027 14.5397 11.2775ZM16.023 9.23375C15.9406 8.03065 15.3308 6.90993 14.3748 6.18475L10.3204 3.3335C10.3204 3.3335 12.875 7.00881 15.0176 10.6677C15.2318 11.0467 15.3802 11.4752 15.4461 11.9202C15.4791 12.118 15.4791 12.3157 15.4461 12.5136C15.4956 12.4147 15.6109 12.2004 15.6109 12.2004C15.8252 11.7554 15.9735 11.2775 16.0559 10.7995C16.0889 10.2557 16.0889 9.74466 16.023 9.23375Z" fill="white"/>
</g>
</g>
</g>
<defs>
<linearGradient id="paint0_linear_5910_17882" x1="0" y1="0" x2="20" y2="20" gradientUnits="userSpaceOnUse">
<stop offset="0.141613" stop-color="#8098FA"/>
<stop offset="0.857605" stop-color="#4DB5F2"/>
</linearGradient>
<clipPath id="clip0_5910_17882">
<rect width="20" height="20" fill="white"/>
</clipPath>
</defs>
</svg>
