<svg width="20" height="20" viewBox="0 0 20 20" fill="none" xmlns="http://www.w3.org/2000/svg">
<g id="ic-bnb.svg" clip-path="url(#clip0_5910_17820)">
<g id="Clip path group">
<mask id="mask0_5910_17820" style="mask-type:luminance" maskUnits="userSpaceOnUse" x="0" y="0" width="20" height="20">
<g id="clip0_7567_8821">
<path id="Vector" d="M20 0H0V20H20V0Z" fill="white"/>
</g>
</mask>
<g mask="url(#mask0_5910_17820)">
<g id="Group">
<g id="Mask group">
<mask id="mask1_5910_17820" style="mask-type:luminance" maskUnits="userSpaceOnUse" x="0" y="0" width="20" height="20">
<g id="Group_2">
<path id="Vector_2" d="M20 0H0V20H20V0Z" fill="white"/>
</g>
</mask>
<g mask="url(#mask1_5910_17820)">
<g id="Group_3">
<path id="Vector_3" d="M20 10C20 4.47715 15.5228 0 10 0C4.47715 0 0 4.47715 0 10C0 15.5228 4.47715 20 10 20C15.5228 20 20 15.5228 20 10Z" fill="#0D67FE"/>
<path id="Vector_4" d="M4 14.2931L4.00076 14.2925L4.00227 14.2914L4 14.2931L4.00435 14.2899L6.28617 12.5733C6.27464 12.4527 6.26874 12.3305 6.26874 12.2069V9.17242L8.5375 7.92069V10.8793L11.1844 8.88793V6.46035L13.8312 5V6.89636L16.1 5.18965V5.56897L13.8312 7.20455V7.51274L16.1 5.94827V6.32759L13.8312 7.82093V8.12912L16.1 6.7069V7.08621L13.8312 8.4373V8.74569L16.1 7.46552V7.84482L13.8312 9.05388V9.36188L16.1 8.22414V8.60344L13.8312 9.67007V9.97826L16.1 8.98276V9.36206L13.8312 10.2865V12.2069C13.8312 14.3018 12.1383 16 10.05 16C8.34166 16 6.89793 14.8636 6.42908 13.3032L4.00151 14.2923L4 14.2931ZM6.39133 13.1686L4.00302 14.2914L4.00208 14.292L6.40945 13.2355C6.40321 13.2133 6.39718 13.191 6.39133 13.1686ZM6.31044 12.7721L4.00435 14.2899L4.00227 14.2914L6.32087 12.8381C6.3172 12.8161 6.31372 12.7941 6.31044 12.7721ZM6.35933 13.0359L4.00605 14.2899L6.37465 13.102C6.36936 13.0801 6.36425 13.058 6.35933 13.0359ZM6.29311 12.6398L4.00718 14.288L6.3012 12.706C6.29832 12.684 6.29561 12.6619 6.29311 12.6398ZM11.1844 11.3652L8.55712 12.4359C8.66531 13.06 9.20789 13.5345 9.86094 13.5345C10.5919 13.5345 11.1844 12.9401 11.1844 12.2069V11.3652ZM11.1844 10.9146L8.5375 12.1593V12.2069C8.5375 12.2382 8.53858 12.2693 8.5407 12.3001L11.1844 11.1399V10.9146ZM11.1844 10.4645L8.5375 11.875V12.017L11.1844 10.6895V10.4645ZM11.1844 10.0137L8.5375 11.5903V11.7328L11.1844 10.2392V10.0137ZM11.1844 9.56329L8.5375 11.3058V11.4481L11.1844 9.7886V9.56329ZM11.1844 9.11304L8.5375 11.0216V11.1636L11.1844 9.33817V9.11304ZM4.00208 14.292L4.00151 14.2923L4.00302 14.2914L6.34526 12.9698C6.3408 12.9479 6.33651 12.9258 6.33243 12.9038L4.00227 14.2914L4.00151 14.2923L4.00076 14.2925L4.00208 14.292Z" fill="white"/>
</g>
</g>
</g>
</g>
</g>
</g>
</g>
<defs>
<clipPath id="clip0_5910_17820">
<rect width="20" height="20" fill="white"/>
</clipPath>
</defs>
</svg>
