<svg width="191" height="136" viewBox="0 0 191 136" fill="none" xmlns="http://www.w3.org/2000/svg">
<g id="Basket">
<g id="Body">
<path id="Vector" d="M159.627 136H30.5145C25.3052 136 20.8969 131.849 20.1968 126.293L11.0049 52.752H179.136L169.944 126.293C169.244 131.855 164.836 136 159.627 136Z" fill="url(#paint0_linear_2657_9725)"/>
<path id="Vector_2" d="M178.324 66.3687H11.8175C5.85203 66.3687 1.01802 61.5347 1.01802 55.5692L0.00417091 43.9967C-0.051843 43.3414 0.463488 42.7812 1.11885 42.7812H189.017C189.673 42.7812 190.188 43.347 190.132 43.9967L189.118 55.5692C189.124 61.5347 184.29 66.3687 178.324 66.3687Z" fill="url(#paint1_linear_2657_9725)"/>
</g>
<g id="Lines">
<path id="Vector_3" d="M95.0709 122.898C92.3598 122.898 90.1641 120.702 90.1641 117.997V84.2372C90.1641 81.5317 92.3598 79.3359 95.0653 79.3359H95.0709C97.7763 79.3359 99.9721 81.5317 99.9721 84.2372V117.997C99.9721 120.702 97.7763 122.898 95.0709 122.898Z" fill="white"/>
<path id="Vector_4" d="M74.7609 122.898C72.061 123.139 69.6804 121.15 69.4396 118.456L66.426 84.8308C66.1852 82.1366 68.1736 79.756 70.8679 79.5095H70.8735C73.5678 79.2687 75.9484 81.2572 76.1948 83.9514L79.2084 117.577C79.4436 120.276 77.4551 122.657 74.7609 122.898Z" fill="white"/>
<path id="Vector_5" d="M52.321 122.899C49.6436 123.313 47.1341 121.487 46.7196 118.81L41.5216 85.4533C41.107 82.7814 42.9331 80.272 45.6106 79.8575H45.6162C48.288 79.443 50.7974 81.269 51.2119 83.9465L56.41 117.303C56.8245 119.975 54.9985 122.484 52.321 122.899Z" fill="white"/>
<path id="Vector_6" d="M116.551 122.898C119.251 123.139 121.632 121.15 121.873 118.456L124.886 84.8308C125.127 82.1366 123.138 79.756 120.444 79.5095H120.439C117.744 79.2687 115.364 81.2572 115.117 83.9514L112.104 117.577C111.863 120.276 113.857 122.657 116.551 122.898Z" fill="white"/>
<path id="Vector_7" d="M138.986 122.899C141.664 123.313 144.173 121.487 144.588 118.81L149.786 85.4533C150.2 82.7814 148.374 80.272 145.697 79.8575H145.691C143.019 79.443 140.51 81.269 140.095 83.9465L134.897 117.303C134.483 119.975 136.315 122.484 138.986 122.899Z" fill="white"/>
</g>
<g id="Hand">
<g id="Group">
<path id="Vector_8" d="M47.0778 60.4537C42.6807 57.8042 41.3868 52.018 44.2491 47.7497L74.3454 2.82659C76.2386 0.00349227 80.014 -0.842319 82.9267 0.916516C85.8394 2.66975 86.8645 6.40028 85.2513 9.39703L59.6305 57.0144C57.1939 61.5291 51.4749 63.0975 47.0778 60.4537Z" fill="url(#paint2_linear_2657_9725)"/>
<path id="Vector_9" d="M52.0972 55.592C53.8235 55.592 55.2228 54.1926 55.2228 52.4664C55.2228 50.7402 53.8235 49.3408 52.0972 49.3408C50.371 49.3408 48.9717 50.7402 48.9717 52.4664C48.9717 54.1926 50.371 55.592 52.0972 55.592Z" fill="white"/>
</g>
<g id="Group_2">
<path id="Vector_10" d="M147.812 60.4537C152.209 57.8042 153.503 52.018 150.641 47.7497L120.545 2.82659C118.651 0.00349227 114.876 -0.842319 111.963 0.916516C109.051 2.66975 108.026 6.40028 109.639 9.39703L135.26 57.0144C137.696 61.5291 143.415 63.0975 147.812 60.4537Z" fill="url(#paint3_linear_2657_9725)"/>
<path id="Vector_11" d="M142.798 55.592C144.525 55.592 145.924 54.1926 145.924 52.4664C145.924 50.7402 144.525 49.3408 142.798 49.3408C141.072 49.3408 139.673 50.7402 139.673 52.4664C139.673 54.1926 141.072 55.592 142.798 55.592Z" fill="white"/>
</g>
</g>
</g>
<defs>
<linearGradient id="paint0_linear_2657_9725" x1="-115.515" y1="27.3812" x2="292.649" y2="117.243" gradientUnits="userSpaceOnUse">
<stop stop-color="#B8C5E0"/>
<stop offset="0.9964" stop-color="#C9D8E8"/>
</linearGradient>
<linearGradient id="paint1_linear_2657_9725" x1="-0.820088" y1="42.7813" x2="40.19" y2="126.368" gradientUnits="userSpaceOnUse">
<stop stop-color="#81A8FB"/>
<stop offset="1" stop-color="#4F84F7"/>
</linearGradient>
<linearGradient id="paint2_linear_2657_9725" x1="64.3693" y1="0" x2="64.3693" y2="61.7404" gradientUnits="userSpaceOnUse">
<stop stop-color="#FFB52E"/>
<stop offset="1" stop-color="#E69603"/>
</linearGradient>
<linearGradient id="paint3_linear_2657_9725" x1="130.521" y1="0" x2="130.521" y2="61.7404" gradientUnits="userSpaceOnUse">
<stop stop-color="#FFB52E"/>
<stop offset="1" stop-color="#E69603"/>
</linearGradient>
</defs>
</svg>
