<svg width="47" height="24" viewBox="0 0 47 24" fill="none" xmlns="http://www.w3.org/2000/svg">
<g id="white 1" clip-path="url(#clip0_6043_16652)">
<g id="Layer 2">
<g id="Layer 1">
<g id="Group 2220">
<g id="Group 1302">
<path id="Path 3283" d="M39.9032 1.96248L37.3769 5.62985C36.5344 5.29374 35.6356 5.12085 34.7285 5.12037C34.1957 5.1179 33.6644 5.17724 33.1453 5.29721C33.0699 5.31099 32.9954 5.32927 32.9222 5.35195C32.1278 5.53656 31.377 5.87406 30.7116 6.34564C30.6326 6.39412 30.5566 6.44756 30.4843 6.50564C29.8946 6.93893 29.3749 7.46007 28.9432 8.0509C27.2801 10.1351 26.0211 13.1035 23.8401 16.2362C23.6253 16.552 23.419 16.872 23.1537 17.192C21.4584 19.5536 19.2046 21.4587 16.5937 22.7372L16.1727 22.9435C15.798 23.1035 15.419 23.2425 15.0359 23.3646C14.7832 23.4404 14.5306 23.5077 14.2737 23.5667C13.5504 23.7426 12.8113 23.8456 12.0674 23.8741H11.5959C9.70078 23.8782 7.83368 23.4169 6.15854 22.5307C4.48339 21.6446 3.05145 20.3607 1.98846 18.7919C0.925469 17.223 0.263953 15.4171 0.062005 13.5328C-0.139943 11.6485 0.123857 9.74345 0.830236 7.98494C1.53661 6.22643 2.66396 4.66826 4.11328 3.44726C5.56259 2.22627 7.28953 1.37981 9.14244 0.982217C10.9953 0.584626 12.9175 0.648068 14.7402 1.16697C16.5628 1.68587 18.2302 2.64437 19.5959 3.95827L17.0695 7.64669C16.2874 6.72858 15.2867 6.02207 14.1598 5.59225C13.0328 5.16243 11.8159 5.02312 10.6209 5.18716C9.42602 5.35119 8.2916 5.8133 7.32218 6.5309C6.35276 7.24851 5.57952 8.19853 5.07369 9.29346C4.56786 10.3884 4.34571 11.593 4.4277 12.7963C4.5097 13.9997 4.89319 15.163 5.54287 16.1792C6.19255 17.1954 7.08751 18.0318 8.14531 18.6112C9.20311 19.1907 10.3897 19.4947 11.5959 19.4951C11.7529 19.5036 11.9104 19.5036 12.0674 19.4951C13.035 19.4354 13.9798 19.1759 14.8422 18.733H14.8843C17.3348 17.5583 19.3306 15.0193 22.7369 9.17932C22.8843 8.9309 23.0274 8.68248 23.158 8.42564C24.2872 6.36555 25.833 4.5631 27.6969 3.133L27.9074 2.97721C27.9958 2.90985 28.0927 2.84669 28.1853 2.77932C28.4085 2.63195 28.6316 2.493 28.8464 2.35827C29.0611 2.22353 29.398 2.0509 29.6674 1.91616L29.9327 1.78564L30.3159 1.61721L30.8295 1.41511C32.3004 0.892034 33.8617 0.670911 35.42 0.76496C36.9783 0.859008 38.5017 1.2663 39.899 1.96248H39.9032Z" fill="black"/>
<path id="Path 3284" d="M46.3157 10.1055V12.3118C46.3156 12.707 46.2946 13.102 46.2525 13.4949C46.2208 13.8285 46.1716 14.1602 46.1052 14.4886C45.7213 16.5148 44.8025 18.4015 43.444 19.953C42.0855 21.5046 40.3367 22.6645 38.379 23.3127C36.4212 23.9608 34.3258 24.0736 32.3098 23.6392C30.2938 23.2048 28.4307 22.2392 26.9136 20.8423L29.4399 17.1707C30.2871 18.1071 31.367 18.8027 32.5699 19.1869C33.7728 19.5711 35.056 19.6303 36.2892 19.3583C37.5223 19.0864 38.6616 18.493 39.5913 17.6385C40.5211 16.784 41.2083 15.6987 41.583 14.4928H34.3957L37.4104 10.1055H46.3157Z" fill="black"/>
</g>
</g>
</g>
</g>
</g>
<defs>
<clipPath id="clip0_6043_16652">
<rect width="46.3158" height="24" fill="white"/>
</clipPath>
</defs>
</svg>
