<svg width="20" height="20" viewBox="0 0 20 20" fill="none" xmlns="http://www.w3.org/2000/svg">
<path id="Vector" d="M14.5 0.833496C12.76 0.833496 11.09 1.64276 10 2.9216C8.91 1.64276 7.24 0.833496 5.5 0.833496C2.42 0.833496 0 3.2513 0 6.3285C0 10.1051 3.4 13.1823 8.55 17.858L10 19.1668L11.45 17.848C16.6 13.1823 20 10.1051 20 6.3285C20 3.2513 17.58 0.833496 14.5 0.833496ZM10.1 16.3694L10 16.4693L9.9 16.3694C5.14 12.0633 2 9.21588 2 6.3285C2 4.33032 3.5 2.83168 5.5 2.83168C7.04 2.83168 8.54 3.82078 9.07 5.18954H10.94C11.46 3.82078 12.96 2.83168 14.5 2.83168C16.5 2.83168 18 4.33032 18 6.3285C18 9.21588 14.86 12.0633 10.1 16.3694Z" fill="#2639ED"/>
</svg>
