<svg width="37" height="25" viewBox="0 0 37 25" fill="none" xmlns="http://www.w3.org/2000/svg">
<g id="Payment method icon">
<rect x="0.817819" y="0.389108" width="35.0197" height="24.1247" rx="4.28018" fill="white"/>
<path id="visa-logo" fill-rule="evenodd" clip-rule="evenodd" d="M11.5843 16.4549H9.44703L7.84437 10.1608C7.7683 9.87127 7.60678 9.61531 7.3692 9.49467C6.77627 9.19151 6.12291 8.95024 5.41016 8.82855V8.58623H8.85306C9.32824 8.58623 9.68461 8.95024 9.74401 9.37299L10.5756 13.9131L12.7117 8.58623H14.7896L11.5843 16.4549ZM15.9776 16.4549H13.9591L15.6212 8.58623H17.6396L15.9776 16.4549ZM20.251 10.7661C20.3104 10.3423 20.6668 10.1 21.0825 10.1C21.7359 10.0391 22.4476 10.1608 23.0416 10.4629L23.398 8.76879C22.804 8.52647 22.1506 8.40479 21.5577 8.40479C19.5987 8.40479 18.1732 9.49471 18.1732 11.0074C18.1732 12.1582 19.1829 12.7624 19.8957 13.1264C20.6668 13.4893 20.9638 13.7317 20.9044 14.0946C20.9044 14.6391 20.3104 14.8814 19.7175 14.8814C19.0047 14.8814 18.292 14.6999 17.6396 14.3967L17.2833 16.0919C17.996 16.3941 18.7671 16.5157 19.4799 16.5157C21.6765 16.5755 23.0416 15.4867 23.0416 13.8523C23.0416 11.7941 20.251 11.6735 20.251 10.7661ZM30.1057 16.4549L28.5031 8.58623H26.7816C26.4252 8.58623 26.0688 8.82855 25.9501 9.19151L22.9823 16.4549H25.0602L25.4749 15.3052H28.0279L28.2655 16.4549H30.1057ZM27.0784 10.7052L27.6714 13.6708H26.0093L27.0784 10.7052Z" fill="#172B85"/>
<rect x="0.817819" y="0.389108" width="35.0197" height="24.1247" rx="4.28018" stroke="#F2F4F7" stroke-width="0.778215"/>
</g>
</svg>
