<svg width="37" height="25" viewBox="0 0 37 25" fill="none" xmlns="http://www.w3.org/2000/svg">
<g id="Payment method icon">
<rect x="0.954537" y="0.389108" width="35.0197" height="24.1247" rx="2.72375" fill="white"/>
<path id="Stripe" fill-rule="evenodd" clip-rule="evenodd" d="M19.5207 8.44821L17.7286 8.84413V7.34843L19.5207 6.95984V8.44821ZM31.3089 12.6347C31.3089 10.7578 30.4235 9.27672 28.7314 9.27672C27.0321 9.27672 26.004 10.7578 26.004 12.62C26.004 14.8269 27.2178 15.9414 28.9599 15.9414C29.8095 15.9414 30.4521 15.7434 30.9376 15.4648V13.9984C30.4521 14.2477 29.8952 14.4017 29.1883 14.4017C28.4958 14.4017 27.8818 14.1524 27.8032 13.2872H31.2946C31.2946 13.2471 31.2971 13.156 31.3001 13.0509L31.3001 13.0496L31.3001 13.0493C31.3041 12.9056 31.3089 12.7361 31.3089 12.6347ZM27.7818 11.9382C27.7818 11.1097 28.2744 10.7651 28.7242 10.7651C29.1597 10.7651 29.6238 11.1097 29.6238 11.9382H27.7818ZM23.2482 9.27673C22.5485 9.27673 22.0987 9.61399 21.8488 9.84861L21.756 9.39404H20.1852V17.943L21.9702 17.5544L21.9773 15.4795C22.2344 15.6701 22.6128 15.9414 23.2411 15.9414C24.5191 15.9414 25.6829 14.8856 25.6829 12.5614C25.6758 10.4352 24.4977 9.27673 23.2482 9.27673ZM22.8201 14.3284C22.3988 14.3284 22.1489 14.1744 21.9776 13.9838L21.9704 11.2637C22.1561 11.051 22.4131 10.9044 22.8201 10.9044C23.4698 10.9044 23.9196 11.6523 23.9196 12.6127C23.9196 13.5952 23.4769 14.3284 22.8201 14.3284ZM17.7286 9.40136H19.5207V15.8167H17.7286V9.40136ZM15.6944 9.40133L15.8086 9.94389C16.2298 9.15205 17.0652 9.31335 17.2937 9.40133V11.0877C17.0723 11.007 16.3584 10.9044 15.9371 11.4689V15.8167H14.1522V9.40133H15.6944ZM12.2383 7.81035L10.4962 8.1916L10.4891 14.0644C10.4891 15.1495 11.2816 15.9487 12.3383 15.9487C12.9238 15.9487 13.3522 15.8387 13.5878 15.7068V14.2184C13.3593 14.3137 12.2312 14.651 12.2312 13.5659V10.963H13.5878V9.40136H12.2312L12.2383 7.81035ZM8.01874 10.8677C7.64033 10.8677 7.41185 10.9777 7.41185 11.2637C7.41185 11.5759 7.80506 11.7132 8.29288 11.8836C9.08814 12.1613 10.1348 12.5269 10.1393 13.8811C10.1393 15.1935 9.11828 15.9487 7.63319 15.9487C7.01916 15.9487 6.34801 15.8241 5.68401 15.5308V13.7858C6.28375 14.1231 7.04058 14.3724 7.63319 14.3724C8.03302 14.3724 8.31861 14.2624 8.31861 13.9251C8.31861 13.5793 7.89237 13.4212 7.37777 13.2304C6.59407 12.9398 5.60547 12.5732 5.60547 11.3516C5.60547 10.0539 6.56935 9.27672 8.01874 9.27672C8.61135 9.27672 9.19681 9.37203 9.78942 9.61399V11.337C9.24679 11.0364 8.56137 10.8677 8.01874 10.8677Z" fill="#6461FC"/>
<rect x="0.954537" y="0.389108" width="35.0197" height="24.1247" rx="2.72375" stroke="#F2F4F7" stroke-width="0.778215"/>
</g>
</svg>
