<svg width="37" height="25" viewBox="0 0 37 25" fill="none" xmlns="http://www.w3.org/2000/svg">
<g id="Payment method icon">
<rect x="1.09126" y="0.389108" width="35.0197" height="24.1247" rx="4.28018" fill="white"/>
<g id="Mastercard">
<path id="Left" fill-rule="evenodd" clip-rule="evenodd" d="M23.091 19.1233C26.9767 19.1233 30.1267 16.0108 30.1267 12.1713C30.1267 8.33178 26.9767 5.21924 23.091 5.21924C21.3495 5.21924 19.7558 5.84439 18.5272 6.87997C17.2986 5.8444 15.705 5.21925 13.9635 5.21925C10.0778 5.21925 6.92773 8.33179 6.92773 12.1713C6.92773 16.0108 10.0778 19.1234 13.9635 19.1234C15.705 19.1234 17.2987 18.4982 18.5272 17.4626C19.7558 18.4982 21.3495 19.1233 23.091 19.1233Z" fill="#ED0006"/>
<path id="Right" fill-rule="evenodd" clip-rule="evenodd" d="M18.5273 17.4627C20.0402 16.1875 20.9995 14.2901 20.9995 12.1713C20.9995 10.0525 20.0402 8.15505 18.5273 6.87991C19.7559 5.84437 21.3496 5.21924 23.091 5.21924C26.9768 5.21924 30.1268 8.33178 30.1268 12.1713C30.1268 16.0108 26.9768 19.1233 23.091 19.1233C21.3496 19.1233 19.7559 18.4982 18.5273 17.4627Z" fill="#F9A000"/>
<path id="Middle" fill-rule="evenodd" clip-rule="evenodd" d="M18.5268 17.4628C20.0397 16.1876 20.9989 14.2902 20.9989 12.1714C20.9989 10.0526 20.0397 8.15514 18.5268 6.88C17.014 8.15514 16.0547 10.0526 16.0547 12.1714C16.0547 14.2902 17.014 16.1876 18.5268 17.4628Z" fill="#FF5E00"/>
</g>
<rect x="1.09126" y="0.389108" width="35.0197" height="24.1247" rx="4.28018" stroke="#F2F4F7" stroke-width="0.778215"/>
</g>
</svg>
