<svg width="58" height="24" viewBox="0 0 58 24" fill="none" xmlns="http://www.w3.org/2000/svg">
<g id="stripe-seeklogo.com 1" clip-path="url(#clip0_6044_16669)">
<g id="Group">
<path id="Vector" d="M4.03539 9.36274C4.03539 8.74069 4.54579 8.50143 5.39115 8.50143C6.60336 8.50143 8.13458 8.86829 9.34679 9.52224V5.77396C8.02293 5.2476 6.71502 5.04025 5.39115 5.04025C2.15327 5.04025 0 6.73097 0 9.55414C0 13.9564 6.06106 13.2546 6.06106 15.1526C6.06106 15.8864 5.42305 16.1256 4.52984 16.1256C3.20598 16.1256 1.51526 15.5833 0.175452 14.8496V18.6457C1.65882 19.2837 3.15813 19.5549 4.52984 19.5549C7.84748 19.5549 10.1283 17.912 10.1283 15.0569C10.1124 10.3038 4.03539 11.1492 4.03539 9.36274ZM14.8177 1.85022L10.9259 2.67963L10.9099 15.4557C10.9099 17.8163 12.6804 19.5549 15.041 19.5549C16.3489 19.5549 17.3059 19.3156 17.8323 19.0285V15.7907C17.3219 15.998 14.8017 16.7317 14.8017 14.3711V8.70879H17.8323V5.3114H14.8017L14.8177 1.85022ZM22.7928 6.49171L22.5376 5.3114H19.0923V19.2678H23.0799V9.80935C24.0209 8.58118 25.616 8.80449 26.1104 8.97994V5.3114C25.6 5.12 23.7338 4.7691 22.7928 6.49171ZM27.0834 5.3114H31.0869V19.2678H27.0834V5.3114ZM27.0834 4.09919L31.0869 3.23788V0L27.0834 0.845358V4.09919ZM39.4128 5.04025C37.8497 5.04025 36.8449 5.77396 36.2866 6.28436L36.0793 5.29545H32.5702V23.8933L36.5578 23.048L36.5737 18.5341C37.1479 18.9488 37.9933 19.5389 39.3969 19.5389C42.252 19.5389 44.8518 17.2421 44.8518 12.1859C44.8359 7.56037 42.2041 5.04025 39.4128 5.04025ZM38.4558 16.0299C37.5148 16.0299 36.9565 15.695 36.5737 15.2802L36.5578 9.36274C36.9725 8.90019 37.5467 8.58118 38.4558 8.58118C39.9073 8.58118 40.9122 10.2081 40.9122 12.2976C40.9122 14.4349 39.9232 16.0299 38.4558 16.0299ZM57.4206 12.3454C57.4206 8.26218 55.4427 5.04025 51.6626 5.04025C47.8664 5.04025 45.5696 8.26218 45.5696 12.3135C45.5696 17.1145 48.2811 19.5389 52.173 19.5389C54.071 19.5389 55.5065 19.1083 56.5912 18.5022V15.3122C55.5065 15.8545 54.2624 16.1894 52.6834 16.1894C51.1362 16.1894 49.7645 15.6471 49.589 13.765H57.3887C57.3887 13.5576 57.4206 12.7282 57.4206 12.3454ZM49.5412 10.8302C49.5412 9.02779 50.6417 8.27813 51.6466 8.27813C52.6196 8.27813 53.6563 9.02779 53.6563 10.8302H49.5412Z" fill="black"/>
</g>
</g>
<defs>
<clipPath id="clip0_6044_16669">
<rect width="57.4206" height="24" fill="white"/>
</clipPath>
</defs>
</svg>
