<svg width="148" height="48" viewBox="0 0 148 48" fill="none" xmlns="http://www.w3.org/2000/svg">
<path d="M25.9161 13.1205V3.6378C25.9161 0.857522 22.8876 -0.929792 20.4549 0.509993C14.6957 3.83639 5.85844 8.95011 1.98591 11.1843C0.744716 11.8793 0 13.1702 0 14.61C0 19.1279 0 29.3057 0 35.9585C0 38.7388 3.02851 40.5261 5.46125 39.0863L12.9581 34.767L22.0933 29.405C24.4763 28.0148 25.9658 25.4828 25.9658 22.7025L25.9161 13.1205Z" fill="#FDC651"/>
<path d="M33.4624 8.80078L25.9656 13.1201C22.3413 15.2053 18.9653 17.1913 16.3836 18.6807C14.0501 20.0212 12.6104 22.5036 12.6104 25.1845L12.9579 34.7666V44.2989C12.9579 47.0792 15.9864 48.8665 18.4191 47.4268L36.7392 36.8518C38.0797 36.1071 38.874 34.6673 38.874 33.1282V11.9782C38.874 9.14831 35.8455 7.361 33.4624 8.80078Z" fill="#9457F6"/>
<path d="M25.9656 22.7026C25.9656 25.4829 24.4762 28.0149 22.0931 29.4051L12.9579 34.767L12.6104 25.185C12.6104 22.504 14.0501 20.0216 16.3836 18.6811C18.9653 17.1917 22.2917 15.2555 25.9656 13.1206V22.7026Z" fill="#976B7A"/>
<path d="M44.5332 24.1418V7.50977H55.7536V10.6376H48.2568V13.9143H54.9096V16.9925H48.2568V21.014H56.2997V24.1418H44.5332Z" fill="#070707"/>
<path d="M70.2012 24.1426C69.1089 22.256 67.967 20.3693 66.7258 18.4827C65.4846 16.6458 64.1441 14.8584 62.754 13.2201V24.0929H59.0801V7.46094H62.1086C62.6547 8.00706 63.2008 8.65248 63.8463 9.3972C64.4917 10.1419 65.1371 10.9859 65.7825 11.8796C66.4279 12.7732 67.123 13.6669 67.7684 14.6102C68.4139 15.5535 69.0593 16.4472 69.6054 17.2912V7.46094H73.329V24.0929H70.2012V24.1426Z" fill="#070707"/>
<path d="M91.748 15.8013C91.748 17.2411 91.4997 18.4823 91.0529 19.5745C90.6061 20.6668 89.9607 21.5108 89.1663 22.2555C88.3223 22.9506 87.3293 23.4967 86.1378 23.8442C84.9462 24.1918 83.6057 24.3904 82.1659 24.3904C81.4709 24.3904 80.7262 24.3407 79.8325 24.2911C78.9388 24.2414 78.0452 24.1421 77.2012 23.9435V7.75835C78.0452 7.60941 78.9885 7.51012 79.8821 7.41083C80.8255 7.36118 81.6198 7.31152 82.3149 7.31152C83.7547 7.31152 85.0455 7.46047 86.1874 7.808C87.3293 8.15554 88.3223 8.65201 89.1663 9.29743C90.0103 9.9925 90.6557 10.8862 91.1025 11.9288C91.5494 13.021 91.748 14.3119 91.748 15.8013ZM80.9248 21.064C81.1233 21.064 81.3219 21.1136 81.5205 21.1136C81.7688 21.1136 82.017 21.1136 82.3645 21.1136C84.2512 21.1136 85.6413 20.6171 86.5349 19.6738C87.4286 18.7305 87.8754 17.4397 87.8754 15.7516C87.8754 14.014 87.4286 12.6735 86.5846 11.7798C85.7406 10.8862 84.3505 10.4393 82.4638 10.4393C82.2156 10.4393 81.9674 10.4393 81.6695 10.4393C81.4212 10.4393 81.1233 10.489 80.9248 10.489V21.064Z" fill="#070707"/>
<path d="M105.997 20.9147V24.1418H94.876V7.50977H98.5996V20.9147H105.997Z" fill="#070707"/>
<path d="M108.38 24.1418V7.50977H119.6V10.6376H112.103V13.9143H118.756V16.9925H112.103V21.014H120.146V24.1418H108.38Z" fill="#070707"/>
<path d="M127.445 21.2629C127.991 21.2629 128.388 21.2133 128.736 21.114C129.084 21.0147 129.332 20.9154 129.58 20.7664C129.779 20.6175 129.928 20.4189 130.027 20.2203C130.126 20.0217 130.126 19.7735 130.126 19.5252C130.126 18.9791 129.878 18.5323 129.381 18.1847C128.885 17.8372 127.991 17.44 126.75 17.0428C126.204 16.8442 125.658 16.6457 125.112 16.3974C124.566 16.1492 124.069 15.8513 123.672 15.4541C123.225 15.0569 122.878 14.6101 122.629 14.064C122.381 13.5178 122.232 12.8724 122.232 12.1277C122.232 11.383 122.381 10.6879 122.679 10.0425C122.977 9.44672 123.374 8.90061 123.92 8.45378C124.466 8.00695 125.112 7.70906 125.856 7.46082C126.601 7.21258 127.445 7.11328 128.388 7.11328C129.53 7.11328 130.474 7.21258 131.268 7.46082C132.062 7.70906 132.757 7.95729 133.304 8.25517L132.211 11.1844C131.765 10.9362 131.218 10.7376 130.672 10.539C130.126 10.3404 129.431 10.2411 128.637 10.2411C127.743 10.2411 127.098 10.3404 126.7 10.5886C126.303 10.8369 126.105 11.234 126.105 11.7305C126.105 12.0284 126.154 12.2766 126.303 12.4752C126.452 12.6738 126.651 12.8724 126.899 13.0214C127.147 13.1703 127.445 13.3192 127.793 13.4682C128.14 13.6171 128.537 13.7661 128.935 13.8654C129.779 14.1633 130.573 14.5108 131.169 14.8087C131.814 15.1066 132.36 15.5038 132.757 15.9009C133.204 16.2981 133.502 16.7946 133.701 17.3407C133.899 17.8869 133.999 18.5819 133.999 19.3763C133.999 20.9154 133.453 22.1069 132.36 23.0006C131.268 23.8446 129.63 24.2914 127.445 24.2914C126.7 24.2914 126.055 24.2418 125.459 24.1425C124.863 24.0432 124.367 23.9439 123.871 23.7949C123.424 23.646 123.027 23.5467 122.679 23.3977C122.331 23.2488 122.083 23.0999 121.835 23.0006L122.878 20.0217C123.374 20.2699 123.97 20.5182 124.715 20.7664C125.509 21.1636 126.403 21.2629 127.445 21.2629Z" fill="#070707"/>
<path d="M141.445 21.2629C141.991 21.2629 142.388 21.2133 142.736 21.114C143.084 21.0147 143.332 20.9154 143.58 20.7664C143.779 20.6175 143.928 20.4189 144.027 20.2203C144.126 20.0217 144.126 19.7735 144.126 19.5252C144.126 18.9791 143.878 18.5323 143.381 18.1847C142.885 17.8372 141.991 17.44 140.75 17.0428C140.204 16.8442 139.658 16.6457 139.112 16.3974C138.566 16.1492 138.069 15.8513 137.672 15.4541C137.225 15.0569 136.878 14.6101 136.629 14.064C136.381 13.5178 136.232 12.8724 136.232 12.1277C136.232 11.383 136.381 10.6879 136.679 10.0425C136.977 9.44672 137.374 8.90061 137.92 8.45378C138.466 8.00695 139.112 7.70906 139.856 7.46082C140.601 7.21258 141.445 7.11328 142.388 7.11328C143.53 7.11328 144.474 7.21258 145.268 7.46082C146.062 7.70906 146.757 7.95729 147.304 8.25517L146.211 11.1844C145.765 10.9362 145.218 10.7376 144.672 10.539C144.126 10.3404 143.431 10.2411 142.637 10.2411C141.743 10.2411 141.098 10.3404 140.7 10.5886C140.303 10.8369 140.105 11.234 140.105 11.7305C140.105 12.0284 140.154 12.2766 140.303 12.4752C140.452 12.6738 140.651 12.8724 140.899 13.0214C141.147 13.1703 141.445 13.3192 141.793 13.4682C142.14 13.6171 142.537 13.7661 142.935 13.8654C143.779 14.1633 144.573 14.5108 145.169 14.8087C145.814 15.1066 146.36 15.5038 146.757 15.9009C147.204 16.2981 147.502 16.7946 147.701 17.3407C147.899 17.8869 147.999 18.5819 147.999 19.3763C147.999 20.9154 147.453 22.1069 146.36 23.0006C145.268 23.8446 143.63 24.2914 141.445 24.2914C140.7 24.2914 140.055 24.2418 139.459 24.1425C138.863 24.0432 138.367 23.9439 137.871 23.7949C137.424 23.646 137.026 23.5467 136.679 23.3977C136.331 23.2488 136.083 23.0999 135.835 23.0006L136.878 20.0217C137.374 20.2699 137.97 20.5182 138.715 20.7664C139.509 21.1636 140.353 21.2629 141.445 21.2629Z" fill="#070707"/>
<path d="M54.3638 34.5186C54.3638 35.5612 54.2149 36.5046 53.8674 37.2493C53.5198 38.0436 53.073 38.689 52.4772 39.1855C51.8815 39.682 51.1367 40.0792 50.2927 40.3274C49.4487 40.5757 48.5054 40.7246 47.4628 40.7246C46.9663 40.7246 46.4202 40.7246 45.8244 40.675C45.2286 40.6253 44.6329 40.526 44.0371 40.4267V28.6602C44.5832 28.5113 45.179 28.4616 45.8244 28.412C46.4698 28.3623 47.016 28.3623 47.5125 28.3623C48.5054 28.3623 49.4487 28.4616 50.2927 28.7098C51.1367 28.9581 51.8318 29.3056 52.4772 29.8517C53.073 30.3482 53.5198 30.9936 53.8674 31.788C54.1652 32.5327 54.3638 33.476 54.3638 34.5186ZM46.2713 38.7883C46.4202 38.7883 46.5691 38.7883 46.7677 38.838C46.9663 38.838 47.2642 38.838 47.6117 38.838C49.1012 38.838 50.1934 38.4408 50.9381 37.6961C51.6829 36.9514 52.0304 35.9088 52.0304 34.5186C52.0304 33.1285 51.6829 32.0859 50.9381 31.3412C50.2431 30.5965 49.1012 30.2489 47.6117 30.2489C46.9663 30.2489 46.4698 30.2489 46.2216 30.2986V38.7883H46.2713Z" fill="#070707"/>
<path d="M68.0173 34.5187C68.0173 35.5613 67.8684 36.4549 67.5705 37.2493C67.2726 38.0436 66.8258 38.6891 66.3293 39.2352C65.7832 39.7813 65.1874 40.1785 64.4427 40.4267C63.698 40.675 62.9533 40.8239 62.1589 40.8239C61.3645 40.8239 60.5702 40.675 59.8751 40.4267C59.18 40.1785 58.5346 39.7813 57.9885 39.2352C57.4424 38.6891 57.0452 38.0436 56.6976 37.2493C56.3998 36.4549 56.2012 35.5613 56.2012 34.5187C56.2012 33.476 56.3501 32.5824 56.6976 31.788C57.0452 30.9937 57.4424 30.3482 57.9885 29.8021C58.5346 29.256 59.18 28.8588 59.8751 28.6106C60.5702 28.3623 61.3149 28.2134 62.1093 28.2134C62.9036 28.2134 63.6483 28.3623 64.3434 28.6106C65.0385 28.8588 65.6839 29.3056 66.23 29.8021C66.7761 30.3482 67.1733 30.9937 67.5209 31.788C67.8684 32.5824 68.0173 33.5257 68.0173 34.5187ZM58.5346 34.5187C58.5346 35.1641 58.6339 35.8095 58.7828 36.306C58.9318 36.8521 59.18 37.2989 59.4779 37.6961C59.7758 38.0933 60.173 38.3912 60.6198 38.5898C61.0667 38.7884 61.5631 38.8876 62.1093 38.8876C62.6554 38.8876 63.1519 38.7884 63.5987 38.5898C64.0455 38.3912 64.4427 38.0933 64.7406 37.6961C65.0385 37.2989 65.2867 36.8521 65.4356 36.306C65.5846 35.7598 65.6839 35.1641 65.6839 34.5187C65.6839 33.8732 65.5846 33.2278 65.4356 32.7313C65.2867 32.1852 65.0385 31.7384 64.7406 31.3412C64.4427 30.944 64.0455 30.6461 63.5987 30.4475C63.1519 30.2489 62.6554 30.1496 62.1093 30.1496C61.5631 30.1496 61.0667 30.2489 60.6198 30.4475C60.173 30.6461 59.7758 30.944 59.4779 31.3412C59.18 31.7384 58.9318 32.1852 58.7828 32.7313C58.6339 33.2775 58.5346 33.8732 58.5346 34.5187Z" fill="#070707"/>
<path d="M73.0814 28.5112C73.3296 28.9581 73.6275 29.5042 73.9254 30.1496C74.2233 30.795 74.5708 31.4404 74.8687 32.1852C75.2162 32.8802 75.5141 33.6249 75.8617 34.32C76.1596 35.0647 76.4575 35.7102 76.7553 36.3556C77.0036 35.7598 77.3015 35.0647 77.649 34.32C77.9469 33.5753 78.2944 32.8802 78.5923 32.1852C78.9398 31.4901 79.2377 30.795 79.5356 30.1496C79.8335 29.5042 80.1314 28.9581 80.3796 28.5112H82.3655C82.4648 29.4049 82.5641 30.3482 82.6634 31.3411C82.7627 32.3341 82.862 33.3767 82.9117 34.4193C83.011 35.4619 83.0606 36.5045 83.1102 37.5471C83.1599 38.5897 83.2095 39.6323 83.2592 40.6253H81.0747C81.025 39.2351 80.9754 37.7457 80.9257 36.2563C80.8761 34.7669 80.7768 33.3271 80.6279 31.9369C80.4789 32.1852 80.33 32.5327 80.181 32.8802C79.9824 33.2774 79.8335 33.6746 79.6349 34.0718C79.4363 34.5186 79.2377 34.9654 79.0391 35.4123C78.8405 35.8591 78.6419 36.3556 78.4434 36.7528C78.2448 37.1996 78.0958 37.5968 77.8972 37.994C77.7483 38.3911 77.5993 38.689 77.5001 38.9869H75.8617C75.7624 38.7387 75.6134 38.3911 75.4645 37.994C75.3155 37.5968 75.117 37.1996 74.9184 36.7528C74.7198 36.3059 74.5212 35.8591 74.3226 35.4123C74.124 34.9654 73.9254 34.5186 73.7268 34.0718C73.5282 33.6249 73.3296 33.2278 73.1807 32.8802C72.9821 32.483 72.8332 32.1852 72.7339 31.9369C72.5849 33.3271 72.4856 34.7669 72.436 36.2563C72.3863 37.7457 72.3367 39.1855 72.287 40.6253H70.1025C70.1522 39.6323 70.2018 38.5897 70.2515 37.4975C70.3011 36.4052 70.4004 35.3626 70.4501 34.32C70.5494 33.2774 70.599 32.2348 70.6983 31.2419C70.7976 30.2489 70.8969 29.3552 70.9962 28.5112H73.0814Z" fill="#070707"/>
<path d="M93.983 40.6256C93.8341 40.1291 93.6355 39.6823 93.4866 39.1858C93.3376 38.6894 93.139 38.2425 92.9901 37.7461H87.8764C87.7274 38.2425 87.5288 38.739 87.3799 39.1858C87.2309 39.6823 87.0324 40.1291 86.8834 40.576H84.5996C85.0464 39.2851 85.4933 38.0936 85.8905 37.0013C86.2876 35.9091 86.6848 34.8665 87.082 33.8735C87.4792 32.8806 87.8764 31.9373 88.2239 31.0932C88.6211 30.1996 89.0183 29.3556 89.4154 28.4619H91.5006C91.8978 29.3059 92.295 30.1996 92.6922 31.0932C93.0894 31.9869 93.4866 32.9302 93.8341 33.8735C94.1816 34.8168 94.6285 35.9091 95.0256 37.0013C95.4228 38.0936 95.8697 39.2851 96.3165 40.576H93.983V40.6256ZM90.4084 30.845C90.1602 31.4408 89.8126 32.2351 89.5147 33.0792C89.1672 33.9728 88.8197 34.9161 88.4225 35.9587H92.3943C91.9971 34.9161 91.6496 33.9728 91.3021 33.0295C90.9545 32.1855 90.6566 31.4408 90.4084 30.845Z" fill="#070707"/>
<path d="M97.8555 28.5112H100.04V40.6253H97.8555V28.5112Z" fill="#070707"/>
<path d="M111.161 40.6253C110.763 39.9799 110.317 39.2352 109.82 38.4904C109.324 37.7457 108.827 36.9513 108.281 36.157C107.735 35.3626 107.238 34.6179 106.692 33.9228C106.146 33.1781 105.65 32.5327 105.153 31.9369V40.6253H102.969V28.5112H104.756C105.203 29.0077 105.699 29.6035 106.246 30.2489C106.792 30.944 107.338 31.639 107.884 32.3341C108.43 33.0788 108.926 33.7739 109.473 34.5186C109.969 35.2633 110.416 35.9087 110.813 36.5542V28.5112H112.998V40.6253H111.161Z" fill="#070707"/>
<path d="M118.856 38.987C119.65 38.987 120.246 38.838 120.594 38.5898C120.941 38.3415 121.14 37.9443 121.14 37.4479C121.14 37.15 121.09 36.9017 120.941 36.7032C120.842 36.5046 120.643 36.306 120.395 36.157C120.147 36.0081 119.899 35.8095 119.551 35.6605C119.203 35.5116 118.856 35.3627 118.409 35.2137C118.012 35.0648 117.565 34.9158 117.218 34.7172C116.82 34.5186 116.473 34.3201 116.175 34.0222C115.877 33.7739 115.629 33.4264 115.48 33.0789C115.281 32.6817 115.232 32.2349 115.232 31.7384C115.232 30.6461 115.629 29.8021 116.374 29.1567C117.118 28.5113 118.161 28.2134 119.452 28.2134C120.196 28.2134 120.891 28.3127 121.487 28.4616C122.083 28.6106 122.53 28.8092 122.877 29.0077L122.182 30.7951C121.785 30.5965 121.338 30.3979 120.891 30.2986C120.395 30.1993 119.948 30.1 119.452 30.1C118.856 30.1 118.409 30.1993 118.062 30.4475C117.714 30.6958 117.565 31.0433 117.565 31.4901C117.565 31.7384 117.615 31.9866 117.714 32.1852C117.813 32.3838 117.962 32.5327 118.211 32.6817C118.409 32.8306 118.657 32.9796 118.906 33.0789C119.203 33.2278 119.501 33.3271 119.799 33.4264C120.395 33.625 120.891 33.8732 121.338 34.0718C121.785 34.2704 122.182 34.5683 122.48 34.8165C122.778 35.1144 123.026 35.462 123.175 35.8591C123.324 36.2563 123.424 36.7528 123.424 37.2989C123.424 38.3912 123.026 39.2352 122.282 39.831C121.537 40.4267 120.395 40.7246 118.856 40.7246C118.359 40.7246 117.913 40.675 117.466 40.6253C117.069 40.5757 116.671 40.4764 116.374 40.3771C116.076 40.2778 115.778 40.1785 115.53 40.0792C115.281 39.9799 115.132 39.8806 114.983 39.831L115.629 38.0436C115.927 38.2422 116.374 38.3912 116.92 38.5898C117.466 38.8876 118.111 38.987 118.856 38.987Z" fill="#070707"/>
</svg>
