<svg width="28" height="35" viewBox="0 0 28 35" fill="none" xmlns="http://www.w3.org/2000/svg">
<g id="Group">
<path id="Vector" d="M18.6663 9.45015V2.62015C18.6663 0.617636 16.485 -0.66969 14.7328 0.367326C10.5847 2.76319 4.21958 6.44638 1.43037 8.05555C0.536387 8.55618 0 9.48591 0 10.5229C0 13.777 0 21.1076 0 25.8994C0 27.9019 2.18131 29.1892 3.93351 28.1522L9.33314 25.0412L15.9128 21.1792C17.6293 20.1779 18.702 18.3542 18.702 16.3517L18.6663 9.45015Z" fill="#FDC651"/>
<path id="Vector_2" d="M24.1028 6.33898L18.7032 9.45003C16.0928 10.9519 13.6612 12.3823 11.8017 13.455C10.121 14.4205 9.08398 16.2085 9.08398 18.1395L9.3343 25.041V31.9068C9.3343 33.9093 11.5156 35.1966 13.2678 34.1596L26.4629 26.5429C27.4284 26.0065 28.0006 24.9695 28.0006 23.861V8.62756C28.0006 6.58929 25.8193 5.30196 24.1028 6.33898Z" fill="#9457F6"/>
<path id="Vector_3" d="M18.7032 16.3515C18.7032 18.354 17.6304 20.1777 15.914 21.179L9.3343 25.0409L9.08398 18.1394C9.08398 16.2084 10.121 14.4205 11.8017 13.455C13.6612 12.3822 16.057 10.9876 18.7032 9.44995V16.3515Z" fill="#976B7A"/>
</g>
</svg>
