<?xml version="1.0" encoding="UTF-8"?><svg id="Layer_1" xmlns="http://www.w3.org/2000/svg" viewBox="0 0 409.6 409.6"><path d="M223.56,409.25c-11.87.47-25.65.47-37.53,0-40.8-1.62-131.13-13.81-154.43-51.92-27.11-44.33,37.54-70.64,69.79-79.32,10.2-2.75,23.9-3.8,33.11-6.81.82-.27,1.49-.24,2.02-1.15l-48.02-75.66C34.88,90.82,132.25-28.1,244.95,6.95c79.85,24.84,117.08,121.7,73.48,193.53l-44.54,69.56c.06,1.15,18.85,4.15,21.55,4.77,33.72,7.78,112.46,32.82,83.67,82.02-22.51,38.46-115.05,50.79-155.54,52.41ZM205.98,332.66l95.45-150.75c40.25-81.92-30.54-174.4-120.83-154.24-67.66,15.11-103.22,93.39-71.36,154.77l95.1,149.73,1.65.49ZM149.16,292.94c-9.17.2-26.4,4.33-35.79,6.6-15.66,3.78-59.84,17.67-63.52,35.47-2.33,11.29,14.77,21.81,23.35,26.23,62.25,32.04,192.46,31.05,256.3,3.47,9.28-4.01,29.63-14.6,31.23-25.47s-16.51-22.13-25.08-26.42c-22.98-11.53-50.37-16.05-75.61-19.93l-45.28,69.67c-5.04,6.35-14.81,6.05-19.48-.45l-44.4-68.99c-.55-.44-1.13-.2-1.73-.18Z"/><path d="M199.45,73.63c52.76-4.79,86.15,57.02,51.67,97.89-24.33,28.84-68.14,28.6-92.21-.43-30.42-36.68-6.48-93.19,40.54-97.46ZM201.84,97.56c-50.09,4.68-37.66,82.5,12.17,70.39,41.99-10.21,31.8-74.5-12.17-70.39Z"/></svg>