<svg width="148" height="48" viewBox="0 0 148 48" fill="none" xmlns="http://www.w3.org/2000/svg">
<path d="M25.9161 13.1205V3.6378C25.9161 0.857522 22.8876 -0.929792 20.4549 0.509993C14.6957 3.83639 5.85844 8.95012 1.98591 11.1843C0.744717 11.8793 0 13.1702 0 14.61C0 19.1279 0 29.3057 0 35.9585C0 38.7388 3.02851 40.5261 5.46125 39.0863L12.9581 34.767L22.0933 29.405C24.4763 28.0148 25.9658 25.4828 25.9658 22.7025L25.9161 13.1205Z" fill="#FDC651"/>
<path d="M33.4634 8.80103L25.9666 13.1204C22.3423 15.2056 18.9662 17.1915 16.3846 18.6809C14.0511 20.0214 12.6113 22.5038 12.6113 25.1848L12.9589 34.7668V44.2992C12.9589 47.0795 15.9874 48.8668 18.4201 47.427L36.7401 36.852C38.0806 36.1073 38.875 34.6675 38.875 33.1284V11.9785C38.875 9.14856 35.8465 7.36124 33.4634 8.80103Z" fill="#9457F6"/>
<path d="M25.9666 22.7024C25.9666 25.4826 24.4771 28.0147 22.0941 29.4048L12.9589 34.7668L12.6113 25.1848C12.6113 22.5038 14.0511 20.0214 16.3846 18.6809C18.9662 17.1915 22.2926 15.2552 25.9666 13.1204V22.7024Z" fill="#976B7A"/>
<path d="M44.5332 24.1415V7.50952H55.7536V10.6373H48.2568V13.9141H54.9096V16.9922H48.2568V21.0137H56.2997V24.1415H44.5332Z" fill="#070707"/>
<path d="M70.2012 24.1421C69.1089 22.2555 67.967 20.3689 66.7258 18.4822C65.4846 16.6453 64.1441 14.858 62.754 13.2196V24.0925H59.0801V7.46045H62.1086C62.6547 8.00657 63.2008 8.65199 63.8463 9.39671C64.4917 10.1414 65.1371 10.9854 65.7825 11.8791C66.4279 12.7728 67.123 13.6664 67.7684 14.6097C68.4139 15.553 69.0593 16.4467 69.6054 17.2907V7.46045H73.329V24.0925H70.2012V24.1421Z" fill="#070707"/>
<path d="M91.748 15.8008C91.748 17.2406 91.4997 18.4818 91.0529 19.574C90.6061 20.6663 89.9607 21.5103 89.1663 22.255C88.3223 22.9501 87.3293 23.4962 86.1378 23.8438C84.9462 24.1913 83.6057 24.3899 82.1659 24.3899C81.4709 24.3899 80.7262 24.3402 79.8325 24.2906C78.9388 24.2409 78.0452 24.1416 77.2012 23.943V7.75786C78.0452 7.60892 78.9885 7.50963 79.8821 7.41034C80.8255 7.36069 81.6198 7.31104 82.3149 7.31104C83.7547 7.31104 85.0455 7.45998 86.1874 7.80751C87.3293 8.15505 88.3223 8.65152 89.1663 9.29695C90.0103 9.99201 90.6557 10.8857 91.1025 11.9283C91.5494 13.0205 91.748 14.3114 91.748 15.8008ZM80.9248 21.0635C81.1233 21.0635 81.3219 21.1131 81.5205 21.1131C81.7688 21.1131 82.017 21.1131 82.3645 21.1131C84.2512 21.1131 85.6413 20.6166 86.5349 19.6733C87.4286 18.73 87.8754 17.4392 87.8754 15.7512C87.8754 14.0135 87.4286 12.673 86.5846 11.7793C85.7406 10.8857 84.3505 10.4389 82.4638 10.4389C82.2156 10.4389 81.9674 10.4389 81.6695 10.4389C81.4212 10.4389 81.1233 10.4885 80.9248 10.4885V21.0635Z" fill="#070707"/>
<path d="M105.998 20.9144V24.1415H94.877V7.50952H98.6005V20.9144H105.998Z" fill="#070707"/>
<path d="M108.381 24.1415V7.50952H119.601V10.6373H112.104V13.9141H118.757V16.9922H112.104V21.0137H120.147V24.1415H108.381Z" fill="#070707"/>
<path d="M127.444 21.2622C127.99 21.2622 128.387 21.2125 128.735 21.1132C129.083 21.0139 129.331 20.9146 129.579 20.7657C129.778 20.6167 129.927 20.4181 130.026 20.2196C130.125 20.021 130.125 19.7727 130.125 19.5245C130.125 18.9784 129.877 18.5315 129.38 18.184C128.884 17.8365 127.99 17.4393 126.749 17.0421C126.203 16.8435 125.657 16.6449 125.111 16.3967C124.565 16.1484 124.068 15.8506 123.671 15.4534C123.224 15.0562 122.877 14.6094 122.628 14.0632C122.38 13.5171 122.231 12.8717 122.231 12.127C122.231 11.3823 122.38 10.6872 122.678 10.0418C122.976 9.44599 123.373 8.89987 123.919 8.45304C124.465 8.00621 125.111 7.70833 125.855 7.46009C126.6 7.21185 127.444 7.11255 128.387 7.11255C129.529 7.11255 130.473 7.21185 131.267 7.46009C132.061 7.70833 132.756 7.95655 133.303 8.25444L132.21 11.1837C131.764 10.9354 131.217 10.7368 130.671 10.5382C130.125 10.3397 129.43 10.2404 128.636 10.2404C127.742 10.2404 127.097 10.3397 126.699 10.5879C126.302 10.8361 126.104 11.2333 126.104 11.7298C126.104 12.0277 126.153 12.2759 126.302 12.4745C126.451 12.6731 126.65 12.8717 126.898 13.0206C127.146 13.1696 127.444 13.3185 127.792 13.4675C128.139 13.6164 128.536 13.7654 128.934 13.8646C129.778 14.1625 130.572 14.5101 131.168 14.808C131.813 15.1058 132.359 15.503 132.756 15.9002C133.203 16.2974 133.501 16.7939 133.7 17.34C133.898 17.8861 133.998 18.5812 133.998 19.3756C133.998 20.9146 133.452 22.1062 132.359 22.9998C131.267 23.8438 129.629 24.2907 127.444 24.2907C126.699 24.2907 126.054 24.241 125.458 24.1417C124.863 24.0424 124.366 23.9431 123.87 23.7942C123.423 23.6453 123.026 23.546 122.678 23.397C122.33 23.2481 122.082 23.0991 121.834 22.9998L122.877 20.021C123.373 20.2692 123.969 20.5174 124.714 20.7657C125.508 21.1629 126.402 21.2622 127.444 21.2622Z" fill="#070707"/>
<path d="M141.446 21.2622C141.992 21.2622 142.389 21.2125 142.737 21.1132C143.085 21.0139 143.333 20.9146 143.581 20.7657C143.78 20.6167 143.929 20.4181 144.028 20.2196C144.127 20.021 144.127 19.7727 144.127 19.5245C144.127 18.9784 143.879 18.5315 143.382 18.184C142.886 17.8365 141.992 17.4393 140.751 17.0421C140.205 16.8435 139.659 16.6449 139.113 16.3967C138.567 16.1484 138.07 15.8506 137.673 15.4534C137.226 15.0562 136.879 14.6094 136.63 14.0632C136.382 13.5171 136.233 12.8717 136.233 12.127C136.233 11.3823 136.382 10.6872 136.68 10.0418C136.978 9.44599 137.375 8.89987 137.921 8.45304C138.467 8.00621 139.113 7.70833 139.857 7.46009C140.602 7.21185 141.446 7.11255 142.389 7.11255C143.531 7.11255 144.475 7.21185 145.269 7.46009C146.063 7.70833 146.758 7.95655 147.305 8.25444L146.212 11.1837C145.765 10.9354 145.219 10.7368 144.673 10.5382C144.127 10.3397 143.432 10.2404 142.638 10.2404C141.744 10.2404 141.099 10.3397 140.701 10.5879C140.304 10.8361 140.106 11.2333 140.106 11.7298C140.106 12.0277 140.155 12.2759 140.304 12.4745C140.453 12.6731 140.652 12.8717 140.9 13.0206C141.148 13.1696 141.446 13.3185 141.794 13.4675C142.141 13.6164 142.538 13.7654 142.936 13.8646C143.78 14.1625 144.574 14.5101 145.17 14.808C145.815 15.1058 146.361 15.503 146.758 15.9002C147.205 16.2974 147.503 16.7939 147.702 17.34C147.9 17.8861 148 18.5812 148 19.3756C148 20.9146 147.454 22.1062 146.361 22.9998C145.269 23.8438 143.631 24.2907 141.446 24.2907C140.701 24.2907 140.056 24.241 139.46 24.1417C138.864 24.0424 138.368 23.9431 137.871 23.7942C137.425 23.6453 137.027 23.546 136.68 23.397C136.332 23.2481 136.084 23.0991 135.836 22.9998L136.879 20.021C137.375 20.2692 137.971 20.5174 138.716 20.7657C139.51 21.1629 140.354 21.2622 141.446 21.2622Z" fill="#070707"/>
<path d="M54.3638 34.5184C54.3638 35.561 54.2149 36.5043 53.8674 37.249C53.5198 38.0434 53.073 38.6888 52.4772 39.1853C51.8815 39.6818 51.1367 40.0789 50.2927 40.3272C49.4487 40.5754 48.5054 40.7244 47.4628 40.7244C46.9663 40.7244 46.4202 40.7244 45.8244 40.6747C45.2286 40.6251 44.6329 40.5258 44.0371 40.4265V28.66C44.5832 28.511 45.179 28.4614 45.8244 28.4117C46.4698 28.3621 47.016 28.3621 47.5125 28.3621C48.5054 28.3621 49.4487 28.4614 50.2927 28.7096C51.1367 28.9578 51.8318 29.3054 52.4772 29.8515C53.073 30.348 53.5198 30.9934 53.8674 31.7878C54.1652 32.5325 54.3638 33.4758 54.3638 34.5184ZM46.2713 38.7881C46.4202 38.7881 46.5691 38.7881 46.7677 38.8377C46.9663 38.8377 47.2642 38.8377 47.6117 38.8377C49.1012 38.8377 50.1934 38.4406 50.9381 37.6959C51.6829 36.9511 52.0304 35.9085 52.0304 34.5184C52.0304 33.1283 51.6829 32.0856 50.9381 31.3409C50.2431 30.5962 49.1012 30.2487 47.6117 30.2487C46.9663 30.2487 46.4698 30.2487 46.2216 30.2983V38.7881H46.2713Z" fill="#070707"/>
<path d="M68.0173 34.5184C68.0173 35.561 67.8684 36.4547 67.5705 37.249C67.2726 38.0434 66.8258 38.6888 66.3293 39.2349C65.7832 39.7811 65.1874 40.1782 64.4427 40.4265C63.698 40.6747 62.9533 40.8237 62.1589 40.8237C61.3645 40.8237 60.5702 40.6747 59.8751 40.4265C59.18 40.1782 58.5346 39.7811 57.9885 39.2349C57.4424 38.6888 57.0452 38.0434 56.6976 37.249C56.3998 36.4547 56.2012 35.561 56.2012 34.5184C56.2012 33.4758 56.3501 32.5821 56.6976 31.7878C57.0452 30.9934 57.4424 30.348 57.9885 29.8019C58.5346 29.2557 59.18 28.8585 59.8751 28.6103C60.5702 28.3621 61.3149 28.2131 62.1093 28.2131C62.9036 28.2131 63.6483 28.3621 64.3434 28.6103C65.0385 28.8585 65.6839 29.3054 66.23 29.8019C66.7761 30.348 67.1733 30.9934 67.5209 31.7878C67.8684 32.5821 68.0173 33.5255 68.0173 34.5184ZM58.5346 34.5184C58.5346 35.1638 58.6339 35.8092 58.7828 36.3057C58.9318 36.8518 59.18 37.2987 59.4779 37.6959C59.7758 38.093 60.173 38.3909 60.6198 38.5895C61.0667 38.7881 61.5631 38.8874 62.1093 38.8874C62.6554 38.8874 63.1519 38.7881 63.5987 38.5895C64.0455 38.3909 64.4427 38.093 64.7406 37.6959C65.0385 37.2987 65.2867 36.8518 65.4356 36.3057C65.5846 35.7596 65.6839 35.1638 65.6839 34.5184C65.6839 33.873 65.5846 33.2276 65.4356 32.7311C65.2867 32.185 65.0385 31.7381 64.7406 31.3409C64.4427 30.9438 64.0455 30.6459 63.5987 30.4473C63.1519 30.2487 62.6554 30.1494 62.1093 30.1494C61.5631 30.1494 61.0667 30.2487 60.6198 30.4473C60.173 30.6459 59.7758 30.9438 59.4779 31.3409C59.18 31.7381 58.9318 32.185 58.7828 32.7311C58.6339 33.2772 58.5346 33.873 58.5346 34.5184Z" fill="#070707"/>
<path d="M73.0804 28.511C73.3287 28.9578 73.6265 29.5039 73.9244 30.1494C74.2223 30.7948 74.5698 31.4402 74.8677 32.1849C75.2153 32.88 75.5132 33.6247 75.8607 34.3198C76.1586 35.0645 76.4565 35.7099 76.7544 36.3553C77.0026 35.7596 77.3005 35.0645 77.648 34.3198C77.9459 33.575 78.2934 32.88 78.5913 32.1849C78.9389 31.4898 79.2368 30.7948 79.5346 30.1494C79.8325 29.5039 80.1304 28.9578 80.3786 28.511H82.3646C82.4638 29.4046 82.5631 30.3479 82.6624 31.3409C82.7617 32.3339 82.861 33.3765 82.9107 34.4191C83.01 35.4617 83.0596 36.5043 83.1093 37.5469C83.1589 38.5895 83.2086 39.6321 83.2582 40.625H81.0737C81.0241 39.2349 80.9744 37.7455 80.9248 36.256C80.8751 34.7666 80.7758 33.3268 80.6269 31.9367C80.4779 32.1849 80.329 32.5324 80.1801 32.88C79.9815 33.2772 79.8325 33.6743 79.6339 34.0715C79.4353 34.5184 79.2368 34.9652 79.0382 35.412C78.8396 35.8589 78.641 36.3553 78.4424 36.7525C78.2438 37.1993 78.0948 37.5965 77.8963 37.9937C77.7473 38.3909 77.5984 38.6888 77.4991 38.9867H75.8607C75.7614 38.7384 75.6125 38.3909 75.4635 37.9937C75.3146 37.5965 75.116 37.1993 74.9174 36.7525C74.7188 36.3057 74.5202 35.8589 74.3216 35.412C74.123 34.9652 73.9244 34.5184 73.7258 34.0715C73.5273 33.6247 73.3287 33.2275 73.1797 32.88C72.9811 32.4828 72.8322 32.1849 72.7329 31.9367C72.5839 33.3268 72.4846 34.7666 72.435 36.256C72.3854 37.7455 72.3357 39.1853 72.2861 40.625H70.1016C70.1512 39.6321 70.2009 38.5895 70.2505 37.4972C70.3001 36.405 70.3994 35.3624 70.4491 34.3198C70.5484 33.2772 70.598 32.2346 70.6973 31.2416C70.7966 30.2487 70.8959 29.355 70.9952 28.511H73.0804Z" fill="#070707"/>
<path d="M93.983 40.6251C93.8341 40.1287 93.6355 39.6818 93.4866 39.1853C93.3376 38.6889 93.139 38.242 92.9901 37.7456H87.8764C87.7274 38.242 87.5288 38.7385 87.3799 39.1853C87.2309 39.6818 87.0324 40.1286 86.8834 40.5755H84.5996C85.0464 39.2846 85.4933 38.0931 85.8905 37.0008C86.2876 35.9086 86.6848 34.866 87.082 33.873C87.4792 32.8801 87.8764 31.9368 88.2239 31.0928C88.6211 30.1991 89.0183 29.3551 89.4154 28.4614H91.5006C91.8978 29.3054 92.295 30.1991 92.6922 31.0928C93.0894 31.9864 93.4866 32.9297 93.8341 33.873C94.1816 34.8163 94.6285 35.9086 95.0256 37.0008C95.4228 38.0931 95.8697 39.2846 96.3165 40.5755H93.983V40.6251ZM90.4084 30.8445C90.1602 31.4403 89.8126 32.2346 89.5147 33.0787C89.1672 33.9723 88.8197 34.9156 88.4225 35.9582H92.3943C91.9971 34.9156 91.6496 33.9723 91.3021 33.029C90.9545 32.185 90.6566 31.4403 90.4084 30.8445Z" fill="#070707"/>
<path d="M97.8555 28.511H100.04V40.625H97.8555V28.511Z" fill="#070707"/>
<path d="M111.161 40.625C110.763 39.9796 110.317 39.2349 109.82 38.4902C109.324 37.7455 108.827 36.9511 108.281 36.1567C107.735 35.3624 107.238 34.6177 106.692 33.9226C106.146 33.1779 105.65 32.5325 105.153 31.9367V40.625H102.969V28.511H104.756C105.203 29.0075 105.699 29.6032 106.246 30.2487C106.792 30.9437 107.338 31.6388 107.884 32.3339C108.43 33.0786 108.926 33.7737 109.473 34.5184C109.969 35.2631 110.416 35.9085 110.813 36.5539V28.511H112.998V40.625H111.161Z" fill="#070707"/>
<path d="M118.857 38.9867C119.651 38.9867 120.247 38.8378 120.595 38.5895C120.942 38.3413 121.141 37.9441 121.141 37.4476C121.141 37.1497 121.091 36.9015 120.942 36.7029C120.843 36.5043 120.644 36.3057 120.396 36.1568C120.148 36.0078 119.899 35.8092 119.552 35.6603C119.204 35.5114 118.857 35.3624 118.41 35.2135C118.013 35.0645 117.566 34.9156 117.219 34.717C116.821 34.5184 116.474 34.3198 116.176 34.0219C115.878 33.7737 115.63 33.4261 115.481 33.0786C115.282 32.6814 115.233 32.2346 115.233 31.7381C115.233 30.6459 115.63 29.8019 116.375 29.1564C117.119 28.511 118.162 28.2131 119.453 28.2131C120.197 28.2131 120.892 28.3124 121.488 28.4614C122.084 28.6103 122.531 28.8089 122.878 29.0075L122.183 30.7948C121.786 30.5962 121.339 30.3976 120.892 30.2983C120.396 30.1991 119.949 30.0997 119.453 30.0997C118.857 30.0997 118.41 30.199 118.063 30.4473C117.715 30.6955 117.566 31.0431 117.566 31.4899C117.566 31.7381 117.616 31.9864 117.715 32.185C117.814 32.3835 117.963 32.5325 118.211 32.6814C118.41 32.8304 118.658 32.9793 118.907 33.0786C119.204 33.2276 119.502 33.3269 119.8 33.4262C120.396 33.6247 120.892 33.873 121.339 34.0716C121.786 34.2702 122.183 34.568 122.481 34.8163C122.779 35.1142 123.027 35.4617 123.176 35.8589C123.325 36.2561 123.424 36.7525 123.424 37.2987C123.424 38.3909 123.027 39.2349 122.283 39.8307C121.538 40.4265 120.396 40.7244 118.857 40.7244C118.36 40.7244 117.914 40.6747 117.467 40.6251C117.07 40.5754 116.672 40.4761 116.375 40.3768C116.077 40.2775 115.779 40.1782 115.531 40.0789C115.282 39.9797 115.133 39.8804 114.984 39.8307L115.63 38.0434C115.928 38.242 116.375 38.3909 116.921 38.5895C117.467 38.8874 118.112 38.9867 118.857 38.9867Z" fill="#070707"/>
</svg>
