<svg width="28" height="28" viewBox="0 0 28 28" fill="none" xmlns="http://www.w3.org/2000/svg">
<g id="ic-bnb.svg" clip-path="url(#clip0_2199_10393)">
<g id="Clip path group">
<mask id="mask0_2199_10393" style="mask-type:luminance" maskUnits="userSpaceOnUse" x="0" y="0" width="28" height="28">
<g id="clip0_7567_8821">
<path id="Vector" d="M28 0H0V28H28V0Z" fill="white"/>
</g>
</mask>
<g mask="url(#mask0_2199_10393)">
<g id="Group">
<g id="Mask group">
<mask id="mask1_2199_10393" style="mask-type:luminance" maskUnits="userSpaceOnUse" x="0" y="0" width="28" height="28">
<g id="Group_2">
<path id="Vector_2" d="M28 0H0V28H28V0Z" fill="white"/>
</g>
</mask>
<g mask="url(#mask1_2199_10393)">
<g id="Group_3">
<path id="Vector_3" d="M28 14C28 6.26801 21.732 0 14 0C6.26801 0 0 6.26801 0 14C0 21.732 6.26801 28 14 28C21.732 28 28 21.732 28 14Z" fill="#0D67FE"/>
<path id="Vector_4" d="M5.59961 20.0103L5.60067 20.0095L5.60279 20.0079L5.59961 20.0103L5.6057 20.0058L8.80025 17.6027C8.78411 17.4338 8.77585 17.2627 8.77585 17.0897V12.8414L11.9521 11.089V15.231L15.6577 12.4431V9.04449L19.3633 7V9.6549L22.5396 7.26552V7.79656L19.3633 10.0864V10.5178L22.5396 8.32758V8.85863L19.3633 10.9493V11.3808L22.5396 9.38965V9.9207L19.3633 11.8122V12.244L22.5396 10.4517V10.9827L19.3633 12.6754V13.1066L22.5396 11.5138V12.0448L19.3633 13.5381V13.9696L22.5396 12.5759V13.1069L19.3633 14.401V17.0897C19.3633 20.0225 16.9933 22.4 14.0696 22.4C11.6779 22.4 9.65672 20.809 9.00032 18.6245L5.60173 20.0093L5.59961 20.0103ZM8.94748 18.436L5.60384 20.0079L5.60252 20.0087L8.97284 18.5298C8.96411 18.4986 8.95566 18.4674 8.94748 18.436ZM8.83422 17.8809L5.6057 20.0058L5.60279 20.0079L8.84883 17.9733C8.84369 17.9426 8.83882 17.9118 8.83422 17.8809ZM8.90267 18.2503L5.60808 20.0058L8.92412 18.3428C8.91671 18.3121 8.90955 18.2813 8.90267 18.2503ZM8.80996 17.6957L5.60967 20.0032L8.82128 17.7885C8.81725 17.7576 8.81346 17.7267 8.80996 17.6957ZM15.6577 15.9113L11.9796 17.4103C12.131 18.284 12.8907 18.9483 13.8049 18.9483C14.8282 18.9483 15.6577 18.1161 15.6577 17.0897V15.9113ZM15.6577 15.2804L11.9521 17.023V17.0897C11.9521 17.1335 11.9536 17.177 11.9566 17.2201L15.6577 15.5958V15.2804ZM15.6577 14.6503L11.9521 16.625V16.8239L15.6577 14.9652V14.6503ZM15.6577 14.0192L11.9521 16.2265V16.4259L15.6577 14.3349V14.0192ZM15.6577 13.3886L11.9521 15.8282V16.0273L15.6577 13.704V13.3886ZM15.6577 12.7583L11.9521 15.4302V15.629L15.6577 13.0734V12.7583ZM5.60252 20.0087L5.60173 20.0093L5.60384 20.0079L8.88297 18.1577C8.87672 18.127 8.87073 18.0962 8.86501 18.0653L5.60279 20.0079L5.60173 20.0093L5.60067 20.0095L5.60252 20.0087Z" fill="white"/>
</g>
</g>
</g>
</g>
</g>
</g>
</g>
<defs>
<clipPath id="clip0_2199_10393">
<rect width="28" height="28" fill="white"/>
</clipPath>
</defs>
</svg>
