<svg width="1440" height="2148" viewBox="0 0 1440 2148" fill="none" xmlns="http://www.w3.org/2000/svg">
<g filter="url(#filter0_dddddd_964_3368)">
<path fill-rule="evenodd" clip-rule="evenodd" d="M770.927 1117.69C737.32 1143.6 703 1161.72 674.791 1170.14C660.672 1174.36 648.292 1176.09 638.395 1175.29C628.5 1174.49 621.531 1171.23 617.435 1165.92C613.338 1160.6 611.956 1153.03 613.705 1143.26C615.453 1133.49 620.274 1121.96 627.944 1109.38C637.803 1093.2 652.183 1075.61 670.134 1058.21L668.284 1054.49C621.292 1099.7 597.707 1146.82 614.295 1168.34C634.355 1194.36 705.565 1173.09 773.347 1120.83C841.13 1068.58 879.817 1005.12 859.757 979.104C844.501 959.315 799.657 966.878 749.236 994.624C749.477 994.591 749.715 994.558 749.949 994.526L753.494 996.819C769.701 988.073 785.237 981.49 799.262 977.301C813.38 973.085 825.761 971.357 835.657 972.153C845.552 972.948 852.521 976.211 856.618 981.525C860.714 986.838 862.096 994.408 860.348 1004.18C858.599 1013.95 853.778 1025.49 846.108 1038.07C830.783 1063.2 804.534 1091.79 770.927 1117.69Z" fill="url(#paint0_linear_964_3368)"/>
</g>
<g style="mix-blend-mode:overlay">
<circle cx="855.972" cy="978.075" r="7.43311" fill="#FFF9F9"/>
</g>
<circle cx="626.538" cy="1171.83" r="11.893" fill="#E38652"/>
<defs>
<filter id="filter0_dddddd_964_3368" x="-358.878" y="0.122192" width="2191.81" height="2147.2" filterUnits="userSpaceOnUse" color-interpolation-filters="sRGB">
<feFlood flood-opacity="0" result="BackgroundImageFix"/>
<feColorMatrix in="SourceAlpha" type="matrix" values="0 0 0 0 0 0 0 0 0 0 0 0 0 0 0 0 0 0 127 0" result="hardAlpha"/>
<feOffset/>
<feGaussianBlur stdDeviation="11.5224"/>
<feColorMatrix type="matrix" values="0 0 0 0 0.862745 0 0 0 0 0.341176 0 0 0 0 0.341176 0 0 0 1 0"/>
<feBlend mode="normal" in2="BackgroundImageFix" result="effect1_dropShadow_964_3368"/>
<feColorMatrix in="SourceAlpha" type="matrix" values="0 0 0 0 0 0 0 0 0 0 0 0 0 0 0 0 0 0 127 0" result="hardAlpha"/>
<feOffset/>
<feGaussianBlur stdDeviation="23.0447"/>
<feColorMatrix type="matrix" values="0 0 0 0 0.862745 0 0 0 0 0.341176 0 0 0 0 0.341176 0 0 0 0.5 0"/>
<feBlend mode="normal" in2="effect1_dropShadow_964_3368" result="effect2_dropShadow_964_3368"/>
<feColorMatrix in="SourceAlpha" type="matrix" values="0 0 0 0 0 0 0 0 0 0 0 0 0 0 0 0 0 0 127 0" result="hardAlpha"/>
<feOffset/>
<feGaussianBlur stdDeviation="80.6565"/>
<feColorMatrix type="matrix" values="0 0 0 0 0.862745 0 0 0 0 0.341176 0 0 0 0 0.341176 0 0 0 1 0"/>
<feBlend mode="normal" in2="effect2_dropShadow_964_3368" result="effect3_dropShadow_964_3368"/>
<feColorMatrix in="SourceAlpha" type="matrix" values="0 0 0 0 0 0 0 0 0 0 0 0 0 0 0 0 0 0 127 0" result="hardAlpha"/>
<feOffset/>
<feGaussianBlur stdDeviation="161.313"/>
<feColorMatrix type="matrix" values="0 0 0 0 0.862745 0 0 0 0 0.341176 0 0 0 0 0.341176 0 0 0 1 0"/>
<feBlend mode="normal" in2="effect3_dropShadow_964_3368" result="effect4_dropShadow_964_3368"/>
<feColorMatrix in="SourceAlpha" type="matrix" values="0 0 0 0 0 0 0 0 0 0 0 0 0 0 0 0 0 0 127 0" result="hardAlpha"/>
<feOffset/>
<feGaussianBlur stdDeviation="276.537"/>
<feColorMatrix type="matrix" values="0 0 0 0 0.862745 0 0 0 0 0.341176 0 0 0 0 0.341176 0 0 0 1 0"/>
<feBlend mode="normal" in2="effect4_dropShadow_964_3368" result="effect5_dropShadow_964_3368"/>
<feColorMatrix in="SourceAlpha" type="matrix" values="0 0 0 0 0 0 0 0 0 0 0 0 0 0 0 0 0 0 127 0" result="hardAlpha"/>
<feOffset/>
<feGaussianBlur stdDeviation="483.939"/>
<feColorMatrix type="matrix" values="0 0 0 0 0.862745 0 0 0 0 0.341176 0 0 0 0 0.341176 0 0 0 1 0"/>
<feBlend mode="normal" in2="effect5_dropShadow_964_3368" result="effect6_dropShadow_964_3368"/>
<feBlend mode="normal" in="SourceGraphic" in2="effect6_dropShadow_964_3368" result="shape"/>
</filter>
<linearGradient id="paint0_linear_964_3368" x1="737.026" y1="968" x2="737.026" y2="1179.44" gradientUnits="userSpaceOnUse">
<stop stop-color="#E3C58B"/>
<stop offset="1" stop-color="#FF7A00" stop-opacity="0.6"/>
</linearGradient>
</defs>
</svg>
