<svg width="85" height="85" viewBox="0 0 85 85" fill="none" xmlns="http://www.w3.org/2000/svg">
<g id="Icon Big">
<circle id="Ellipse 1915" cx="42" cy="43" r="41" fill="white"/>
<g id="Layer 2">
<g id="Layer 1">
<path id="Vector" d="M42.5 21C38.2477 21 34.0909 22.261 30.5552 24.6234C27.0196 26.9859 24.2639 30.3437 22.6366 34.2723C21.0093 38.2009 20.5835 42.5238 21.4131 46.6944C22.2427 50.865 24.2904 54.696 27.2972 57.7028C30.304 60.7096 34.135 62.7573 38.3056 63.5869C42.4762 64.4165 46.7991 63.9907 50.7277 62.3634C54.6563 60.7361 58.0141 57.9804 60.3766 54.4448C62.739 50.9091 64 46.7523 64 42.5C64 36.7978 61.7348 31.3292 57.7028 27.2972C53.6708 23.2652 48.2022 21 42.5 21V21ZM42.5 60.4189C38.956 60.4189 35.4915 59.368 32.5448 57.399C29.598 55.4301 27.3013 52.6315 25.9451 49.3573C24.5889 46.083 24.234 42.4801 24.9254 39.0042C25.6168 35.5283 27.3234 32.3354 29.8294 29.8294C32.3354 27.3234 35.5283 25.6168 39.0042 24.9254C42.4801 24.234 46.083 24.5888 49.3573 25.9451C52.6315 27.3013 55.4301 29.598 57.399 32.5448C59.368 35.4915 60.4189 38.956 60.4189 42.5C60.41 47.2497 58.5193 51.8022 55.1608 55.1608C51.8023 58.5193 47.2497 60.41 42.5 60.4189Z" fill="#FF5150"/>
<path id="Vector_2" d="M50.2611 44.2958L45.4908 40.708L44.2948 39.8144V29.958C44.2948 29.4822 44.1058 29.0259 43.7694 28.6895C43.433 28.3531 42.9767 28.1641 42.5009 28.1641C42.0252 28.1641 41.5689 28.3531 41.2325 28.6895C40.896 29.0259 40.707 29.4822 40.707 29.958V40.708C40.7084 40.8485 40.7264 40.9883 40.7608 41.1245C40.793 41.256 40.8427 41.3825 40.9086 41.5008C40.9548 41.6186 41.0207 41.7276 41.1034 41.8233C41.1034 41.8233 41.1034 41.877 41.1572 41.8905C41.2316 41.9773 41.3149 42.0561 41.4058 42.1256L41.4797 42.1794L44.2747 44.2756L48.5747 47.5006C48.8833 47.7359 49.2617 47.8612 49.6497 47.8567C50.0251 47.8553 50.3905 47.7362 50.6946 47.5162C50.9987 47.2961 51.2262 46.9862 51.3449 46.6301C51.4636 46.274 51.4676 45.8896 51.3563 45.5311C51.245 45.1726 51.0241 44.8581 50.7247 44.6317L50.2611 44.2958Z" fill="#FF5150"/>
</g>
</g>
</g>
</svg>
