<svg width="48" height="48" viewBox="0 0 48 48" fill="none" xmlns="http://www.w3.org/2000/svg">
<mask id="path-1-inside-1_1640_7567" fill="white">
<path d="M38.2732 4.00284C38.1499 4.01888 38.0362 4.10221 37.9571 4.2345C37.8781 4.3668 37.8402 4.53722 37.8517 4.70827C37.8633 4.87933 37.9234 5.03701 38.0188 5.14662C38.1142 5.25624 38.2371 5.30881 38.3604 5.29277H42.4157L30.1047 20.0867L21.7617 13.375C21.6786 13.3063 21.5822 13.2752 21.4858 13.2861C21.3894 13.2969 21.2979 13.3491 21.2239 13.4355L4.40711 33.9737C4.36128 34.0306 4.32399 34.0994 4.29735 34.1763C4.27072 34.2532 4.25527 34.3366 4.25189 34.4218C4.24851 34.507 4.25726 34.5922 4.27764 34.6727C4.29802 34.7532 4.32964 34.8273 4.37068 34.8908C4.41173 34.9544 4.4614 35.0061 4.51685 35.043C4.57231 35.0799 4.63246 35.1013 4.69389 35.106C4.75531 35.1106 4.81679 35.0985 4.87482 35.0702C4.93285 35.0419 4.9863 34.998 5.03211 34.9411L21.5873 14.7254L29.9303 21.4371C30.0148 21.5031 30.112 21.5308 30.2085 21.5163C30.3049 21.5019 30.3956 21.446 30.468 21.3565L43.0697 6.21992V11.8029C43.0689 11.8884 43.0802 11.9732 43.1032 12.0525C43.1262 12.1319 43.1603 12.204 43.2036 12.2649C43.2469 12.3258 43.2985 12.3741 43.3553 12.4071C43.4122 12.4401 43.4732 12.4571 43.5348 12.4571C43.5965 12.4571 43.6575 12.4401 43.7144 12.4071C43.7712 12.3741 43.8228 12.3258 43.8661 12.2649C43.9094 12.204 43.9435 12.1319 43.9665 12.0525C43.9894 11.9732 44.0008 11.8884 44 11.8029V4.64781C43.9999 4.47676 43.9509 4.31272 43.8637 4.19177C43.7765 4.07081 43.6582 4.00286 43.5348 4.00284H38.3604C38.3314 3.99905 38.3022 3.99905 38.2732 4.00284ZM43.2877 15.9347C43.2254 15.9347 43.1637 15.952 43.1063 15.9857C43.0489 16.0194 42.997 16.0687 42.9536 16.1307C42.9102 16.1928 42.8763 16.2663 42.8538 16.3469C42.8313 16.4274 42.8207 16.5135 42.8226 16.5999V43.3458C42.8218 43.4313 42.8331 43.5162 42.8561 43.5955C42.8791 43.6748 42.9132 43.747 42.9565 43.8078C42.9998 43.8687 43.0514 43.917 43.1082 43.95C43.1651 43.983 43.2261 44 43.2877 44C43.3494 44 43.4104 43.983 43.4673 43.95C43.5241 43.917 43.5757 43.8687 43.619 43.8078C43.6623 43.747 43.6964 43.6748 43.7194 43.5955C43.7423 43.5162 43.7537 43.4313 43.7529 43.3458V16.5999C43.7548 16.5135 43.7442 16.4274 43.7217 16.3469C43.6992 16.2663 43.6653 16.1928 43.6219 16.1307C43.5785 16.0687 43.5266 16.0194 43.4692 15.9857C43.4118 15.952 43.3501 15.9347 43.2877 15.9347ZM38.8401 16.0758C38.7351 16.1084 38.6414 16.1905 38.5752 16.3082C38.5089 16.4258 38.4741 16.5716 38.4767 16.7208V43.3458C38.4759 43.4313 38.4872 43.5162 38.5102 43.5955C38.5332 43.6748 38.5673 43.747 38.6106 43.8078C38.6539 43.8687 38.7054 43.917 38.7623 43.95C38.8192 43.983 38.8802 44 38.9418 44C39.0035 44 39.0645 43.983 39.1214 43.95C39.1782 43.917 39.2298 43.8687 39.2731 43.8078C39.3163 43.747 39.3505 43.6748 39.3735 43.5955C39.3964 43.5162 39.4078 43.4313 39.407 43.3458V16.7208C39.4087 16.6228 39.3942 16.5256 39.3648 16.4365C39.3353 16.3474 39.2916 16.2687 39.237 16.2066C39.1823 16.1444 39.1182 16.1003 39.0494 16.0776C38.9807 16.055 38.9091 16.0544 38.8401 16.0758ZM21.4419 19.4417C21.3369 19.4744 21.2433 19.5565 21.177 19.6741C21.1108 19.7917 21.076 19.9375 21.0785 20.0867V43.3458C21.0777 43.4313 21.0891 43.5162 21.112 43.5955C21.135 43.6748 21.1691 43.747 21.2124 43.8078C21.2557 43.8687 21.3073 43.917 21.3641 43.95C21.421 43.983 21.482 44 21.5437 44C21.6053 44 21.6663 43.983 21.7232 43.95C21.7801 43.917 21.8316 43.8687 21.8749 43.8078C21.9182 43.747 21.9523 43.6748 21.9753 43.5955C21.9983 43.5162 22.0096 43.4313 22.0088 43.3458V20.0867C22.0105 19.9887 21.9961 19.8915 21.9666 19.8024C21.9372 19.7133 21.8935 19.6346 21.8388 19.5725C21.7842 19.5103 21.72 19.4662 21.6512 19.4436C21.5825 19.4209 21.5109 19.4203 21.4419 19.4417ZM34.5378 21.1953C34.4222 21.2153 34.3163 21.2948 34.2409 21.418C34.1656 21.5411 34.1263 21.699 34.1308 21.8604V43.3458C34.1299 43.4313 34.1413 43.5162 34.1643 43.5955C34.1873 43.6748 34.2214 43.747 34.2647 43.8078C34.308 43.8687 34.3595 43.917 34.4164 43.95C34.4733 43.983 34.5343 44 34.5959 44C34.6576 44 34.7186 43.983 34.7755 43.95C34.8323 43.917 34.8839 43.8687 34.9272 43.8078C34.9704 43.747 35.0046 43.6748 35.0275 43.5955C35.0505 43.5162 35.0619 43.4313 35.061 43.3458V21.8604C35.0637 21.7668 35.0516 21.6735 35.0256 21.587C34.9996 21.5006 34.9604 21.423 34.9106 21.3597C34.8608 21.2964 34.8016 21.2489 34.7372 21.2205C34.6729 21.1921 34.6048 21.1835 34.5378 21.1953ZM25.8314 22.9891C25.7184 23.0088 25.6145 23.0854 25.5395 23.2043C25.4645 23.3232 25.4236 23.4761 25.4245 23.634V43.3458C25.4236 43.4313 25.435 43.5162 25.458 43.5955C25.4809 43.6748 25.5151 43.747 25.5583 43.8078C25.6016 43.8687 25.6532 43.917 25.71 43.95C25.7669 43.983 25.8279 44 25.8896 44C25.9512 44 26.0122 43.983 26.0691 43.95C26.126 43.917 26.1775 43.8687 26.2208 43.8078C26.2641 43.747 26.2982 43.6748 26.3212 43.5955C26.3442 43.5162 26.3556 43.4313 26.3547 43.3458V23.634C26.3552 23.5421 26.3415 23.4511 26.3146 23.3671C26.2877 23.2831 26.2481 23.208 26.1986 23.1469C26.149 23.0859 26.0906 23.0402 26.0273 23.013C25.964 22.9857 25.8972 22.9776 25.8314 22.9891ZM17.0815 25.0852C16.9764 25.1178 16.8828 25.1999 16.8166 25.3175C16.7503 25.4351 16.7155 25.581 16.7181 25.7302V43.3458C16.7172 43.4313 16.7286 43.5162 16.7516 43.5955C16.7746 43.6748 16.8087 43.747 16.852 43.8078C16.8953 43.8687 16.9468 43.917 17.0037 43.95C17.0606 43.983 17.1216 44 17.1832 44C17.2449 44 17.3059 43.983 17.3627 43.95C17.4196 43.917 17.4712 43.8687 17.5145 43.8078C17.5577 43.747 17.5918 43.6748 17.6148 43.5955C17.6378 43.5162 17.6492 43.4313 17.6483 43.3458V25.7302C17.65 25.6322 17.6356 25.5349 17.6062 25.4458C17.5767 25.3567 17.533 25.2781 17.4784 25.2159C17.4237 25.1538 17.3596 25.1097 17.2908 25.087C17.222 25.0644 17.1504 25.0638 17.0815 25.0852ZM30.2355 26.1937C30.1732 26.1937 30.1115 26.211 30.0541 26.2447C29.9967 26.2784 29.9447 26.3277 29.9014 26.3897C29.858 26.4518 29.824 26.5253 29.8015 26.6059C29.779 26.6865 29.7684 26.7725 29.7704 26.8589V43.3458C29.7695 43.4313 29.7809 43.5162 29.8039 43.5955C29.8268 43.6748 29.861 43.747 29.9042 43.8078C29.9475 43.8687 29.9991 43.917 30.056 43.95C30.1128 43.983 30.1738 44 30.2355 44C30.2971 44 30.3581 43.983 30.415 43.95C30.4719 43.917 30.5234 43.8687 30.5667 43.8078C30.61 43.747 30.6441 43.6748 30.6671 43.5955C30.6901 43.5162 30.7015 43.4313 30.7006 43.3458V26.8589C30.7025 26.7725 30.6919 26.6865 30.6694 26.6059C30.6469 26.5253 30.613 26.4518 30.5696 26.3897C30.5262 26.3277 30.4743 26.2784 30.4169 26.2447C30.3595 26.211 30.2978 26.1937 30.2355 26.1937ZM12.7792 30.1442C12.6661 30.1639 12.5623 30.2405 12.4873 30.3594C12.4123 30.4783 12.3713 30.6312 12.3722 30.7891V43.3458C12.3713 43.4313 12.3827 43.5162 12.4057 43.5955C12.4287 43.6748 12.4628 43.747 12.5061 43.8078C12.5493 43.8687 12.6009 43.917 12.6578 43.95C12.7146 43.983 12.7757 44 12.8373 44C12.8989 44 12.96 43.983 13.0168 43.95C13.0737 43.917 13.1253 43.8687 13.1685 43.8078C13.2118 43.747 13.2459 43.6748 13.2689 43.5955C13.2919 43.5162 13.3033 43.4313 13.3024 43.3458V30.7891C13.3029 30.6972 13.2893 30.6062 13.2623 30.5222C13.2354 30.4382 13.1959 30.3631 13.1463 30.302C13.0968 30.241 13.0384 30.1953 12.975 30.1681C12.9117 30.1408 12.8449 30.1327 12.7792 30.1442ZM8.38965 35.062C8.28463 35.0947 8.19101 35.1768 8.12475 35.2944C8.05849 35.412 8.02369 35.5578 8.02628 35.707V43.3458C8.02541 43.4313 8.03679 43.5162 8.05978 43.5955C8.08276 43.6748 8.11688 43.747 8.16016 43.8078C8.20343 43.8687 8.255 43.917 8.31187 43.95C8.36873 43.983 8.42975 44 8.49139 44C8.55303 44 8.61406 43.983 8.67092 43.95C8.72778 43.917 8.77935 43.8687 8.82263 43.8078C8.86591 43.747 8.90003 43.6748 8.92301 43.5955C8.94599 43.5162 8.95738 43.4313 8.95651 43.3458V35.707C8.95822 35.609 8.9438 35.5118 8.91434 35.4227C8.88489 35.3336 8.84119 35.2549 8.78654 35.1928C8.7319 35.1306 8.66775 35.0865 8.59898 35.0639C8.53021 35.0412 8.45862 35.0406 8.38965 35.062ZM4.36351 40.1009C4.25848 40.1335 4.16486 40.2156 4.0986 40.3332C4.03234 40.4508 3.99754 40.5966 4.00013 40.7458V43.3458C3.99926 43.4313 4.01065 43.5162 4.03363 43.5955C4.05662 43.6748 4.09074 43.747 4.13401 43.8078C4.17729 43.8687 4.22886 43.917 4.28572 43.95C4.34259 43.983 4.40361 44 4.46525 44C4.52689 44 4.58791 43.983 4.64478 43.95C4.70164 43.917 4.75321 43.8687 4.79648 43.8078C4.83976 43.747 4.87388 43.6748 4.89687 43.5955C4.91985 43.5162 4.93123 43.4313 4.93036 43.3458V40.7458C4.93207 40.6478 4.91765 40.5506 4.8882 40.4615C4.85875 40.3724 4.81504 40.2938 4.7604 40.2316C4.70575 40.1694 4.64161 40.1253 4.57284 40.1027C4.50407 40.08 4.43248 40.0794 4.36351 40.1009Z"/>
</mask>
<path d="M38.2732 4.00284C38.1499 4.01888 38.0362 4.10221 37.9571 4.2345C37.8781 4.3668 37.8402 4.53722 37.8517 4.70827C37.8633 4.87933 37.9234 5.03701 38.0188 5.14662C38.1142 5.25624 38.2371 5.30881 38.3604 5.29277H42.4157L30.1047 20.0867L21.7617 13.375C21.6786 13.3063 21.5822 13.2752 21.4858 13.2861C21.3894 13.2969 21.2979 13.3491 21.2239 13.4355L4.40711 33.9737C4.36128 34.0306 4.32399 34.0994 4.29735 34.1763C4.27072 34.2532 4.25527 34.3366 4.25189 34.4218C4.24851 34.507 4.25726 34.5922 4.27764 34.6727C4.29802 34.7532 4.32964 34.8273 4.37068 34.8908C4.41173 34.9544 4.4614 35.0061 4.51685 35.043C4.57231 35.0799 4.63246 35.1013 4.69389 35.106C4.75531 35.1106 4.81679 35.0985 4.87482 35.0702C4.93285 35.0419 4.9863 34.998 5.03211 34.9411L21.5873 14.7254L29.9303 21.4371C30.0148 21.5031 30.112 21.5308 30.2085 21.5163C30.3049 21.5019 30.3956 21.446 30.468 21.3565L43.0697 6.21992V11.8029C43.0689 11.8884 43.0802 11.9732 43.1032 12.0525C43.1262 12.1319 43.1603 12.204 43.2036 12.2649C43.2469 12.3258 43.2985 12.3741 43.3553 12.4071C43.4122 12.4401 43.4732 12.4571 43.5348 12.4571C43.5965 12.4571 43.6575 12.4401 43.7144 12.4071C43.7712 12.3741 43.8228 12.3258 43.8661 12.2649C43.9094 12.204 43.9435 12.1319 43.9665 12.0525C43.9894 11.9732 44.0008 11.8884 44 11.8029V4.64781C43.9999 4.47676 43.9509 4.31272 43.8637 4.19177C43.7765 4.07081 43.6582 4.00286 43.5348 4.00284H38.3604C38.3314 3.99905 38.3022 3.99905 38.2732 4.00284ZM43.2877 15.9347C43.2254 15.9347 43.1637 15.952 43.1063 15.9857C43.0489 16.0194 42.997 16.0687 42.9536 16.1307C42.9102 16.1928 42.8763 16.2663 42.8538 16.3469C42.8313 16.4274 42.8207 16.5135 42.8226 16.5999V43.3458C42.8218 43.4313 42.8331 43.5162 42.8561 43.5955C42.8791 43.6748 42.9132 43.747 42.9565 43.8078C42.9998 43.8687 43.0514 43.917 43.1082 43.95C43.1651 43.983 43.2261 44 43.2877 44C43.3494 44 43.4104 43.983 43.4673 43.95C43.5241 43.917 43.5757 43.8687 43.619 43.8078C43.6623 43.747 43.6964 43.6748 43.7194 43.5955C43.7423 43.5162 43.7537 43.4313 43.7529 43.3458V16.5999C43.7548 16.5135 43.7442 16.4274 43.7217 16.3469C43.6992 16.2663 43.6653 16.1928 43.6219 16.1307C43.5785 16.0687 43.5266 16.0194 43.4692 15.9857C43.4118 15.952 43.3501 15.9347 43.2877 15.9347ZM38.8401 16.0758C38.7351 16.1084 38.6414 16.1905 38.5752 16.3082C38.5089 16.4258 38.4741 16.5716 38.4767 16.7208V43.3458C38.4759 43.4313 38.4872 43.5162 38.5102 43.5955C38.5332 43.6748 38.5673 43.747 38.6106 43.8078C38.6539 43.8687 38.7054 43.917 38.7623 43.95C38.8192 43.983 38.8802 44 38.9418 44C39.0035 44 39.0645 43.983 39.1214 43.95C39.1782 43.917 39.2298 43.8687 39.2731 43.8078C39.3163 43.747 39.3505 43.6748 39.3735 43.5955C39.3964 43.5162 39.4078 43.4313 39.407 43.3458V16.7208C39.4087 16.6228 39.3942 16.5256 39.3648 16.4365C39.3353 16.3474 39.2916 16.2687 39.237 16.2066C39.1823 16.1444 39.1182 16.1003 39.0494 16.0776C38.9807 16.055 38.9091 16.0544 38.8401 16.0758ZM21.4419 19.4417C21.3369 19.4744 21.2433 19.5565 21.177 19.6741C21.1108 19.7917 21.076 19.9375 21.0785 20.0867V43.3458C21.0777 43.4313 21.0891 43.5162 21.112 43.5955C21.135 43.6748 21.1691 43.747 21.2124 43.8078C21.2557 43.8687 21.3073 43.917 21.3641 43.95C21.421 43.983 21.482 44 21.5437 44C21.6053 44 21.6663 43.983 21.7232 43.95C21.7801 43.917 21.8316 43.8687 21.8749 43.8078C21.9182 43.747 21.9523 43.6748 21.9753 43.5955C21.9983 43.5162 22.0096 43.4313 22.0088 43.3458V20.0867C22.0105 19.9887 21.9961 19.8915 21.9666 19.8024C21.9372 19.7133 21.8935 19.6346 21.8388 19.5725C21.7842 19.5103 21.72 19.4662 21.6512 19.4436C21.5825 19.4209 21.5109 19.4203 21.4419 19.4417ZM34.5378 21.1953C34.4222 21.2153 34.3163 21.2948 34.2409 21.418C34.1656 21.5411 34.1263 21.699 34.1308 21.8604V43.3458C34.1299 43.4313 34.1413 43.5162 34.1643 43.5955C34.1873 43.6748 34.2214 43.747 34.2647 43.8078C34.308 43.8687 34.3595 43.917 34.4164 43.95C34.4733 43.983 34.5343 44 34.5959 44C34.6576 44 34.7186 43.983 34.7755 43.95C34.8323 43.917 34.8839 43.8687 34.9272 43.8078C34.9704 43.747 35.0046 43.6748 35.0275 43.5955C35.0505 43.5162 35.0619 43.4313 35.061 43.3458V21.8604C35.0637 21.7668 35.0516 21.6735 35.0256 21.587C34.9996 21.5006 34.9604 21.423 34.9106 21.3597C34.8608 21.2964 34.8016 21.2489 34.7372 21.2205C34.6729 21.1921 34.6048 21.1835 34.5378 21.1953ZM25.8314 22.9891C25.7184 23.0088 25.6145 23.0854 25.5395 23.2043C25.4645 23.3232 25.4236 23.4761 25.4245 23.634V43.3458C25.4236 43.4313 25.435 43.5162 25.458 43.5955C25.4809 43.6748 25.5151 43.747 25.5583 43.8078C25.6016 43.8687 25.6532 43.917 25.71 43.95C25.7669 43.983 25.8279 44 25.8896 44C25.9512 44 26.0122 43.983 26.0691 43.95C26.126 43.917 26.1775 43.8687 26.2208 43.8078C26.2641 43.747 26.2982 43.6748 26.3212 43.5955C26.3442 43.5162 26.3556 43.4313 26.3547 43.3458V23.634C26.3552 23.5421 26.3415 23.4511 26.3146 23.3671C26.2877 23.2831 26.2481 23.208 26.1986 23.1469C26.149 23.0859 26.0906 23.0402 26.0273 23.013C25.964 22.9857 25.8972 22.9776 25.8314 22.9891ZM17.0815 25.0852C16.9764 25.1178 16.8828 25.1999 16.8166 25.3175C16.7503 25.4351 16.7155 25.581 16.7181 25.7302V43.3458C16.7172 43.4313 16.7286 43.5162 16.7516 43.5955C16.7746 43.6748 16.8087 43.747 16.852 43.8078C16.8953 43.8687 16.9468 43.917 17.0037 43.95C17.0606 43.983 17.1216 44 17.1832 44C17.2449 44 17.3059 43.983 17.3627 43.95C17.4196 43.917 17.4712 43.8687 17.5145 43.8078C17.5577 43.747 17.5918 43.6748 17.6148 43.5955C17.6378 43.5162 17.6492 43.4313 17.6483 43.3458V25.7302C17.65 25.6322 17.6356 25.5349 17.6062 25.4458C17.5767 25.3567 17.533 25.2781 17.4784 25.2159C17.4237 25.1538 17.3596 25.1097 17.2908 25.087C17.222 25.0644 17.1504 25.0638 17.0815 25.0852ZM30.2355 26.1937C30.1732 26.1937 30.1115 26.211 30.0541 26.2447C29.9967 26.2784 29.9447 26.3277 29.9014 26.3897C29.858 26.4518 29.824 26.5253 29.8015 26.6059C29.779 26.6865 29.7684 26.7725 29.7704 26.8589V43.3458C29.7695 43.4313 29.7809 43.5162 29.8039 43.5955C29.8268 43.6748 29.861 43.747 29.9042 43.8078C29.9475 43.8687 29.9991 43.917 30.056 43.95C30.1128 43.983 30.1738 44 30.2355 44C30.2971 44 30.3581 43.983 30.415 43.95C30.4719 43.917 30.5234 43.8687 30.5667 43.8078C30.61 43.747 30.6441 43.6748 30.6671 43.5955C30.6901 43.5162 30.7015 43.4313 30.7006 43.3458V26.8589C30.7025 26.7725 30.6919 26.6865 30.6694 26.6059C30.6469 26.5253 30.613 26.4518 30.5696 26.3897C30.5262 26.3277 30.4743 26.2784 30.4169 26.2447C30.3595 26.211 30.2978 26.1937 30.2355 26.1937ZM12.7792 30.1442C12.6661 30.1639 12.5623 30.2405 12.4873 30.3594C12.4123 30.4783 12.3713 30.6312 12.3722 30.7891V43.3458C12.3713 43.4313 12.3827 43.5162 12.4057 43.5955C12.4287 43.6748 12.4628 43.747 12.5061 43.8078C12.5493 43.8687 12.6009 43.917 12.6578 43.95C12.7146 43.983 12.7757 44 12.8373 44C12.8989 44 12.96 43.983 13.0168 43.95C13.0737 43.917 13.1253 43.8687 13.1685 43.8078C13.2118 43.747 13.2459 43.6748 13.2689 43.5955C13.2919 43.5162 13.3033 43.4313 13.3024 43.3458V30.7891C13.3029 30.6972 13.2893 30.6062 13.2623 30.5222C13.2354 30.4382 13.1959 30.3631 13.1463 30.302C13.0968 30.241 13.0384 30.1953 12.975 30.1681C12.9117 30.1408 12.8449 30.1327 12.7792 30.1442ZM8.38965 35.062C8.28463 35.0947 8.19101 35.1768 8.12475 35.2944C8.05849 35.412 8.02369 35.5578 8.02628 35.707V43.3458C8.02541 43.4313 8.03679 43.5162 8.05978 43.5955C8.08276 43.6748 8.11688 43.747 8.16016 43.8078C8.20343 43.8687 8.255 43.917 8.31187 43.95C8.36873 43.983 8.42975 44 8.49139 44C8.55303 44 8.61406 43.983 8.67092 43.95C8.72778 43.917 8.77935 43.8687 8.82263 43.8078C8.86591 43.747 8.90003 43.6748 8.92301 43.5955C8.94599 43.5162 8.95738 43.4313 8.95651 43.3458V35.707C8.95822 35.609 8.9438 35.5118 8.91434 35.4227C8.88489 35.3336 8.84119 35.2549 8.78654 35.1928C8.7319 35.1306 8.66775 35.0865 8.59898 35.0639C8.53021 35.0412 8.45862 35.0406 8.38965 35.062ZM4.36351 40.1009C4.25848 40.1335 4.16486 40.2156 4.0986 40.3332C4.03234 40.4508 3.99754 40.5966 4.00013 40.7458V43.3458C3.99926 43.4313 4.01065 43.5162 4.03363 43.5955C4.05662 43.6748 4.09074 43.747 4.13401 43.8078C4.17729 43.8687 4.22886 43.917 4.28572 43.95C4.34259 43.983 4.40361 44 4.46525 44C4.52689 44 4.58791 43.983 4.64478 43.95C4.70164 43.917 4.75321 43.8687 4.79648 43.8078C4.83976 43.747 4.87388 43.6748 4.89687 43.5955C4.91985 43.5162 4.93123 43.4313 4.93036 43.3458V40.7458C4.93207 40.6478 4.91765 40.5506 4.8882 40.4615C4.85875 40.3724 4.81504 40.2938 4.7604 40.2316C4.70575 40.1694 4.64161 40.1253 4.57284 40.1027C4.50407 40.08 4.43248 40.0794 4.36351 40.1009Z" stroke="url(#paint0_linear_1640_7567)" stroke-width="3" mask="url(#path-1-inside-1_1640_7567)"/>
<defs>
<linearGradient id="paint0_linear_1640_7567" x1="4" y1="44" x2="52.269" y2="24.9288" gradientUnits="userSpaceOnUse">
<stop stop-color="#0968E5"/>
<stop offset="0.492708" stop-color="#0941AB"/>
<stop offset="1" stop-color="#091970"/>
</linearGradient>
</defs>
</svg>
